<svg xmlns="http://www.w3.org/2000/svg" xmlns:xlink="http://www.w3.org/1999/xlink" width="25.874" height="21.366" viewBox="0 0 25.874 21.366">
  <defs>
    <clipPath id="clip-path">
      <rect id="矩形_1" data-name="矩形 1" width="25.874" height="21.366" transform="translate(0 0)" fill="none"/>
    </clipPath>
  </defs>
  <g id="home" transform="translate(0 0)">
    <g id="组_1" data-name="组 1" clip-path="url(#clip-path)">
      <path id="路径_1" data-name="路径 1" d="M25.674,9.644a1.3,1.3,0,0,1-1.114.642,1.276,1.276,0,0,1-.695-.207l-10.927-7.1L2.01,10.079A1.283,1.283,0,0,1,.2,9.644,1.4,1.4,0,0,1,.619,7.761L12.242.207a1.272,1.272,0,0,1,1.391,0L25.257,7.761a1.4,1.4,0,0,1,.417,1.883m-4.227.736L13.635,5.3a1.27,1.27,0,0,0-1.392,0L4.43,10.38a1.378,1.378,0,0,0-.617,1.159V20a1.341,1.341,0,0,0,1.313,1.366H9.438A1.341,1.341,0,0,0,10.751,20V16.147a2.19,2.19,0,1,1,4.376,0V20a1.342,1.342,0,0,0,1.313,1.367h4.311A1.342,1.342,0,0,0,22.064,20V11.539a1.383,1.383,0,0,0-.617-1.159" fill="#717071"/>
    </g>
  </g>
</svg>
