<?xml version="1.0" encoding="UTF-8"?>
<svg xmlns="http://www.w3.org/2000/svg" width="94.64" height="65.27" xmlns:xlink="http://www.w3.org/1999/xlink" viewBox="0 0 94.64 65.27">
  <defs>
    <filter id="drop-shadow-1" filterUnits="userSpaceOnUse">
      <feOffset dx="0" dy="2"/>
      <feGaussianBlur result="blur" stdDeviation="2"/>
      <feFlood flood-color="#000" flood-opacity=".65"/>
      <feComposite in2="blur" operator="in"/>
      <feComposite in="SourceGraphic"/>
    </filter>
  </defs>
  <g style="isolation: isolate;">
    <g id="_圖層_2" data-name="圖層 2">
      <g id="_圖層_3" data-name="圖層 3">
        <g style="filter: url(#drop-shadow-1);">
          <path d="m5.8,49.57s0-2.39-.73-4.42c-.73-2.03.07-2.83.07-2.83l1.4-1.47-3.43-1.79s-.22-3.05-.58-4.5c-.36-1.45-.94-5-.94-6.6s.29-2.68.29-2.68l.87-1.45-1.02-.73s-.51-1.09-.44-1.74c.07-.65-1.31-5.15-1.31-5.15,1.16-1.7,1.89-5.22,1.89-5.22l9.9,10.48s7.29,14.5,7.29,15.01-2.1,4.86-2.18,5.62c-.07.76-5.18,5.26-5.62,5.51s-5.48,1.96-5.48,1.96Z" style="fill: #a58669;"/>
          <polygon points="3.12 39.05 5 33.83 14.82 35.79 13.05 38.53 7.03 37.09 3.12 39.05" style="fill: #91765d;"/>
          <polygon points="94.64 28.28 92.75 33.5 60.77 65.27 62.67 59.96 94.64 28.28" style="fill: #bf9b78;"/>
          <polygon points="62.66 45.03 60.77 50.25 60.77 65.27 62.68 59.99 62.66 45.03" style="fill: #a58669;"/>
          <path d="m7.69,44.34c.36,2.86-1.89,5.22-1.89,5.22l54.97.69,2.43-6.64-55.51.73Z" style="fill: #bf9b78;"/>
          <path d="m1.89,10.99s1.38,4.5,1.31,5.15c-.07.65.44,1.74.44,1.74l1.02.73-.87,1.45s-.29,1.09-.29,2.68.58,5.15.94,6.6c.36,1.45.58,4.5.58,4.5l7.9,2.03-5.87,1.23s-.8.8-.07,2.83c.73,2.03.73,4.42.73,4.42l54.97.69v15.01l31.98-31.76-11.02-9.65-9.93-.83,7.96-.9L62.33,0v12.73S3.55,11.1,1.89,10.99Z" style="fill: #d8b08a;"/>
          <polygon points="81.64 16.91 81.42 18.49 73.68 17.8 81.64 16.91" style="fill: #bf9b78;"/>
          <polygon points="62.33 0 60.44 5.22 60.37 12.67 62.33 12.73 62.33 0" style="fill: #a58669;"/>
          <polygon points="3.63 17.88 1.74 23.1 2.76 23.82 3.77 20.05 4.64 18.6 3.63 17.88" style="fill: #91765d;"/>
          <path d="m19.25,18.76c0,.87-1.8,1.58-4.02,1.58s-4.02-.71-4.02-1.58,1.8-1.58,4.02-1.58,4.02.71,4.02,1.58Z" style="fill: #c4c4c4; mix-blend-mode: multiply;"/>
          <ellipse cx="72.27" cy="37.47" rx="6.25" ry="2.45" style="fill: #c4c4c4; mix-blend-mode: multiply;"/>
          <g style="mix-blend-mode: multiply;">
            <path d="m37.07,26.43c13.31-.59,45.86,1.77,56.8,2.61l.41-.41c-10.56-.82-43.73-3.25-57.23-2.64-5.48.24-10.77.97-15.44,1.6-6.58.9-12.52,1.7-17.35.98.03.17.07.31.1.46,4.86.69,10.77-.11,17.31-1,4.66-.63,9.94-1.35,15.4-1.6Z" style="fill: #c4c4c4;"/>
            <path d="m21.48,21.44c-5.9,1.57-8.77.77-11.9-.43-1.66-.64-4-.28-6.01.27-.02.15-.03.31-.04.47,1.98-.56,4.31-.94,5.9-.34,3.21,1.23,6.15,2.04,12.17.44,4.6-1.22,51.6,1.71,68.95,2.84l-.54-.47c-17.87-1.17-63.84-4.03-68.52-2.79Z" style="fill: #c4c4c4;"/>
            <path d="m65.9,56.82c-1.1-.26-2.24-.58-3.25-.98v.45c.91.36,1.91.65,2.88.89l.36-.36Z" style="fill: #c4c4c4;"/>
            <path d="m8.6,11.2c-.29,0-.57-.02-.84-.03-2.09,1.19-3.82,1.91-5.15,2.34.04.14.08.28.12.43,1.46-.48,3.4-1.29,5.79-2.7.03-.02.05-.03.08-.04Z" style="fill: #c4c4c4;"/>
            <path d="m62.93,43.94c-2.58-1.12-5.24-2.27-8.87-2.71-6.58-.8-10.54-.36-17.41,3.48h.89c6.36-3.43,10.22-3.81,16.46-3.05,3.57.44,6.21,1.58,8.75,2.68,3.78,1.64,7.37,3.18,13.48,2.22l.53-.53c-6.35,1.14-10-.43-13.83-2.09Z" style="fill: #c4c4c4;"/>
            <path d="m62.66,51.21v.45c2.03.57,4.91,1.06,7.9.53l.55-.55c-3.2.72-6.33.17-8.46-.44Z" style="fill: #c4c4c4;"/>
            <path d="m31.09,15.35c-3.64-1-6.66-2.15-9.33-3.16-.59-.23-1.16-.44-1.71-.65-.46-.01-.92-.03-1.37-.04.92.33,1.89.7,2.93,1.09,2.68,1.02,5.71,2.17,9.37,3.18,9.63,2.64,36.98.71,48.66-.61l-.44-.39c-11.85,1.32-38.63,3.17-48.11.57Z" style="fill: #c4c4c4;"/>
            <path d="m44.85,14.25c-4.4-.59-7.94-1.36-10.7-2.31-.47-.01-.94-.03-1.4-.04,2.94,1.18,6.89,2.09,12.05,2.79,8.79,1.19,25.16-1.98,30.72-3.14l-.41-.36c-5.83,1.21-21.69,4.23-30.26,3.07Z" style="fill: #c4c4c4;"/>
            <path d="m25.37,34.59c3.41-1,6.95-2.04,10.99-2.65,12.25-1.83,43.58-2.03,51.67,1,.49.18.94.35,1.38.52l.34-.34c-.5-.19-1.01-.38-1.57-.59-8.3-3.11-39.29-2.91-51.89-1.03-4.07.61-7.62,1.65-11.05,2.66-5.56,1.64-10.9,3.2-18.36,3.13-.06.1-.11.24-.16.42,7.7.08,13.24-1.55,18.64-3.14Z" style="fill: #c4c4c4;"/>
            <path d="m82.5,38.13c-.46.23-.96.5-1.47.77-3.65,1.95-8.64,4.62-14.59,2.05-2.36-1.02-3.87-2.12-5.2-3.09-2.55-1.86-4.55-3.33-10.71-2.94-7.1.44-27.6,6.02-38.65,9.48l1.4.02c11.24-3.46,30.46-8.64,37.28-9.06,6-.37,7.85.98,10.42,2.86,1.35.99,2.88,2.1,5.29,3.14,6.14,2.65,11.24-.08,14.96-2.07.51-.27,1-.54,1.46-.77.71-.35,1.44-.5,2.16-.52l.45-.44c-.92-.03-1.87.12-2.8.58Z" style="fill: #c4c4c4;"/>
            <path d="m11.1,15.9c4.43-1.66,6.51-.59,11.06,1.76l.37.19c4.29,2.21,51.69,2.51,63.11,2.56l-.5-.44c-12.12-.05-58.33-.4-62.41-2.5l-.37-.19c-4.53-2.33-6.8-3.51-11.41-1.78-2.32.87-5.23,1.1-7.73,1.1.02.15.06.29.1.43,2.52,0,5.44-.25,7.79-1.13Z" style="fill: #c4c4c4;"/>
            <path d="m62.33,3.95v.44c1.41-.34,2.62-.78,3.61-1.23l-.36-.31c-.91.4-2,.79-3.26,1.1Z" style="fill: #c4c4c4;"/>
            <path d="m62.33,8.49v.45c2.7-.35,5.71-.92,8.08-1.87l-.37-.32c-2.27.87-5.13,1.41-7.71,1.74Z" style="fill: #c4c4c4;"/>
          </g>
        </g>
      </g>
    </g>
  </g>
</svg>