<svg xmlns="http://www.w3.org/2000/svg" width="67.64" height="68" viewBox="0 0 67.64 68">
  <title>search</title>
  <g>
    <path d="M607.5,424a18.84,18.84,0,1,0,18.84,18.84A18.84,18.84,0,0,0,607.5,424Zm-8.92,25.8a1.27,1.27,0,0,1-1-2.07l13.16-16.55a1.27,1.27,0,0,1,2,1.58l-13.16,16.55A1.27,1.27,0,0,1,598.58,449.84Zm19.67-11.52-13.16,16.55a1.27,1.27,0,1,1-2-1.58l13.16-16.55A1.27,1.27,0,0,1,618.26,438.32Z" transform="translate(-580.35 -416.08)" style="fill: none"/>
    <path d="M645.68,474.9l-0.28-.29-6.88,6.88,0.17,0.17,1.82,1.82c1.17,1.17,3.65.58,5.56-1.32s2.49-4.39,1.32-5.56l-1.7-1.7h0Z" transform="translate(-580.35 -416.08)" style="fill: #616e7d"/>
    <polygon points="63.36 56.88 56.49 63.75 58.17 65.41 65.05 58.54 64.85 58.34 64.84 58.34 63.36 56.88" style="fill: #aad4c8"/>
    <path d="M607.14,416.08A26.79,26.79,0,1,0,622,465.19l14.87,14.65,6.88-6.87-14.77-14.55A26.76,26.76,0,0,0,607.14,416.08Zm0.37,45.63a18.84,18.84,0,1,1,18.84-18.84A18.84,18.84,0,0,1,607.5,461.72Z" transform="translate(-580.35 -416.08)" style="fill: #616e7d"/>
    <path d="M610.74,431.22l-13.16,16.55a1.27,1.27,0,0,0,2,1.58l13.16-16.55A1.27,1.27,0,0,0,610.74,431.22Z" transform="translate(-580.35 -416.08)" style="fill: #82bfab"/>
    <path d="M616.26,436.74L603.1,453.29a1.27,1.27,0,0,0,2,1.58l13.16-16.55A1.27,1.27,0,0,0,616.26,436.74Z" transform="translate(-580.35 -416.08)" style="fill: #82bfab"/>
  </g>
</svg>
