<svg xmlns="http://www.w3.org/2000/svg" width="39.271" height="41" viewBox="0 0 39.271 41">
  <g id="mo_btn1-2" transform="translate(-2384.599 294.571)">
    <g id="组_9632" data-name="组 9632">
      <path id="路径_7810" data-name="路径 7810" d="M2394.078-287.5a4.724,4.724,0,0,1,2.11.334c.978.442,2.762,1.132,3.511,1.394s4.156.993,4.156.993.795-.026.942-.5a1.139,1.139,0,0,0-.224-1.158c-.235-.18-4.383-1.891-4.789-2.1s-5.064-3.021-5.064-3.021Z" fill="#4a3a30"/>
      <g id="组_9628" data-name="组 9628">
        <path id="路径_7811" data-name="路径 7811" d="M2387.164-261.42a3.064,3.064,0,0,0-.086,1.712c.239.749.956.656,1.575.723,1.194.13,1.825.993,3.4.916.938-.046,1.553-.276,1.722-.879a1.015,1.015,0,0,0-.5-.812s-2.194-.861-2.251-.9a11.014,11.014,0,0,1-1.076-.766c-.022-.073-.451-1.7-.451-1.7l-2.315.109Z" fill="#040000"/>
        <path id="路径_7812" data-name="路径 7812" d="M2386.2-257.774a2.356,2.356,0,0,0-.1,1.4,7.363,7.363,0,0,1,.35.744c.153.452.169,1.218.872,1.643.842.6,2.412.558,2.874-.149a3.6,3.6,0,0,0-.711-1.635l-.867-1.444-.014-1.391-2.313-.394Z" fill="#040000"/>
        <path id="路径_7813" data-name="路径 7813" d="M2389.025-279.244l.439,9.284c-.62,2.726-1.939,5.321-2.04,8.022.053,1.133,2.36,1.273,2.906.518.129-2.094,1.757-5,2.67-8.342a36.755,36.755,0,0,0,.647-9.579Z" fill="#604d43"/>
        <path id="路径_7814" data-name="路径 7814" d="M2389.025-279.244l.439,9.284c-.62,2.726-1.939,5.321-2.04,8.022.053,1.133,2.36,1.273,2.906.518.129-2.094,1.757-5,2.67-8.342a36.755,36.755,0,0,0,.647-9.579Z" fill="#604d43" opacity="0.5" style="mix-blend-mode: multiply;isolation: isolate"/>
        <path id="路径_7815" data-name="路径 7815" d="M2393.591-279.1c.11.943-1.066,3.491-2.492,4.683.03,2.019-.067,5.526-.3,7.82a51,51,0,0,0-1.868,8.628,2.34,2.34,0,0,1-2.241.513.771.771,0,0,1-.147-.056c-.015-.006-.032-.015-.05-.021a.743.743,0,0,1-.454-.648,30.893,30.893,0,0,1,.87-8.071l-.788-11.94-.022-.333Z" fill="#604d43"/>
        <path id="路径_7816" data-name="路径 7816" d="M2388.29-266.063c-1.329,1.78-1.468,5.19-1.6,8.606-.028-.013-.077-.031-.147-.056-.015-.006-.032-.015-.05-.021a.743.743,0,0,1-.454-.648,30.893,30.893,0,0,1,.87-8.071l-.788-11.94,1.446.89C2386.834-274.279,2387.721-270.246,2388.29-266.063Z" fill="#604d43" opacity="0.5" style="mix-blend-mode: multiply;isolation: isolate"/>
      </g>
      <path id="路径_7817" data-name="路径 7817" d="M2389.442-286.909l3.146-3.03,1.451,1.99-.429,9.013c-1.563,1.085-3.045,1.525-4.4.97l-.429-6.127Z" fill="#fff"/>
      <path id="路径_7818" data-name="路径 7818" d="M2391.972-287.049l.616,1.205a13.168,13.168,0,0,1-1.75,5.509l.512.994.832-.5a16.208,16.208,0,0,0,.81-6.07l.262-1.622Z" fill="#cd3843"/>
      <path id="路径_7819" data-name="路径 7819" d="M2391.5-291.288l-1.078.821a2.971,2.971,0,0,0-.517,1.144c.012.39.923,3.633.923,3.633s1.005-.649,1.042-1.089l.909.121.677-.724.508.319a6.988,6.988,0,0,0,.077-2.876C2393.678-290.743,2392-291.673,2391.5-291.288Z" fill="#d3dced"/>
      <path id="路径_7820" data-name="路径 7820" d="M2394.579-277.006a1.808,1.808,0,0,1-1.623.687c-.435-1.221-.174-5.189.218-7.194.185-.947.384-1.875.528-2.685a10.138,10.138,0,0,0-.8-5.232,3.493,3.493,0,0,1,.386-.113c.525-.131,1.447-.254,1.911.3.666.8-.6,5.421-.68,7.242S2395.281-277.858,2394.579-277.006Z" fill="#4a3a30"/>
      <path id="路径_7821" data-name="路径 7821" d="M2393.7-286.2a10.138,10.138,0,0,0-.8-5.232,3.493,3.493,0,0,1,.386-.113c.351.2.866.757,1.231,2.291a4.46,4.46,0,0,1,.116.994c0,.083-.515.355-.518.438s.507-.022.5.061a11.106,11.106,0,0,1-1.442,4.244C2393.359-284.46,2393.558-285.388,2393.7-286.2Z" fill="#604d43"/>
      <path id="路径_7822" data-name="路径 7822" d="M2391.019-285.041q-.227,1.326-.368,2.468c-.078.618-.135,1.2-.184,1.735-.577,6.469.634,7.627-3.168,6.4-.253-.081-.527-.176-.826-.278-2.337-.8-1.846-2.639-1.8-2.795l0-.012.008-.02c.016-.058.069-.229.151-.487a30.23,30.23,0,0,0,.823-3.118c0-.025.012-.049.016-.074.11-.581.188-1.092.245-1.563a.7.7,0,0,1,.009-.094c.057-.524.09-1,.122-1.469,0-.123.013-.242.025-.364.045-.749.1-1.514.241-2.455.193-1.248,2.762-2.636,3.736-3.123.2-.1.324-.159.356-.171a1.861,1.861,0,0,0,0,1.731A6.814,6.814,0,0,1,2391.019-285.041Z" fill="#4a3a30"/>
      <path id="路径_7823" data-name="路径 7823" d="M2391.019-285.039c-.161.931-.3,1.933-.388,2.931l-.142.469a11.278,11.278,0,0,0-.461-4.735c-.026-.091.687-.495.661-.582-.015-.052-.77.211-.786.16a11.435,11.435,0,0,1-.627-2.277,1.945,1.945,0,0,1,.776-1.217,1.433,1.433,0,0,1,.359-.174,1.863,1.863,0,0,0-.007,1.732A6.8,6.8,0,0,1,2391.019-285.039Z" fill="#604d43"/>
      <path id="路径_7824" data-name="路径 7824" d="M2391.071-290.889a2.023,2.023,0,0,0-.374,1.353,3.33,3.33,0,0,0,.517,1.373,3.615,3.615,0,0,0,1.152,1.427.528.528,0,0,0,.411.078c.153-.055.192-.225.23-.383a6.646,6.646,0,0,0,.154-2.835,2.725,2.725,0,0,0-.435-1.108,1.2,1.2,0,0,0-1.027-.516.784.784,0,0,0-.72.8Z" fill="#f3ac91"/>
      <path id="路径_7825" data-name="路径 7825" d="M2391.529-289.47a2.12,2.12,0,0,0,1.478,2.429,5.376,5.376,0,0,0,.532-2.164C2393.489-290.175,2391.529-289.47,2391.529-289.47Z" fill="#f3ac91" opacity="0.5" style="mix-blend-mode: multiply;isolation: isolate"/>
      <path id="路径_7826" data-name="路径 7826" d="M2392.208-288.64a3.877,3.877,0,0,0,1.073.57,1.879,1.879,0,0,0,.54.135.755.755,0,0,0,.524-.151,1.1,1.1,0,0,0,.307-.623,10.949,10.949,0,0,0,.262-3.251,2.153,2.153,0,0,0-.172-.8,2.179,2.179,0,0,0-1.22-.93,3.35,3.35,0,0,0-1.252-.307,2.016,2.016,0,0,0-1.887,1.426,2.016,2.016,0,0,0,.326,1.705c.145.2.4.333.522.542.143.255.158.59.3.858A2.6,2.6,0,0,0,2392.208-288.64Z" fill="#f3ac91"/>
      <path id="路径_7827" data-name="路径 7827" d="M2391.3-290.841a.851.851,0,0,0,.048.345.292.292,0,0,0,.269.188.392.392,0,0,0,.222-.121,2.266,2.266,0,0,0,.433-.532,1.329,1.329,0,0,1,.181-.268,1.031,1.031,0,0,1,.708-.209,3.33,3.33,0,0,0,1.151-.18,1.109,1.109,0,0,0,.719-.852,1.366,1.366,0,0,0-.418-.988,3.3,3.3,0,0,0-1.492-.994,2.532,2.532,0,0,0-1.774.088,2.061,2.061,0,0,0-1.148,1.329,2.655,2.655,0,0,0-.017,1.087,4.649,4.649,0,0,0,.451,1.368c.051.1.261.567.376.518S2391.256-290.706,2391.3-290.841Z" fill="#040000"/>
      <path id="路径_7828" data-name="路径 7828" d="M2391.228-291.086a.767.767,0,0,0-.217-.265.344.344,0,0,0-.326-.051.351.351,0,0,0-.19.272.846.846,0,0,0,.036.342,2.992,2.992,0,0,0,.183.5.648.648,0,0,0,.231.3.373.373,0,0,0,.553-.3,1.417,1.417,0,0,0-.085-.361A2.246,2.246,0,0,0,2391.228-291.086Z" fill="#f3ac91"/>
      <path id="路径_7829" data-name="路径 7829" d="M2390.688-282.532l-.144,1.673a.392.392,0,0,1-.077.021c-.422.086-2.464.544-3.012,1.252-.462.593-.54,3.535-.156,5.147-.253-.081-.527-.176-.826-.278-2.337-.8-1.846-2.639-1.8-2.795l0-.012.008-.02c.016-.058.069-.229.151-.487.188-.634.52-1.792.823-3.118,0-.025.012-.049.016-.074.029-.135.061-.27.09-.409.057-.274.106-.679.155-1.154a.7.7,0,0,1,.009-.094c.041-.45.077-.954.122-1.469,0-.123.013-.242.025-.364.045-.561.09-1.126.139-1.625l1.023-.1,3.413,3.863Z" fill="#150f0b" opacity="0.5" style="mix-blend-mode: multiply;isolation: isolate"/>
      <g id="组_9631" data-name="组 9631">
        <g id="组_9630" data-name="组 9630">
          <path id="路径_7830" data-name="路径 7830" d="M2406.942-282.875l-.039.97a2.471,2.471,0,0,1-1.267,1.949c-.131.091-.275.174-.426.258a2.809,2.809,0,0,1-.306.141,6.63,6.63,0,0,1-1.816.521c-.238.042-.482.07-.726.093-.134.007-.269.014-.4.015a9.19,9.19,0,0,1-2.051-.165,7.043,7.043,0,0,1-2.317-.847.784.784,0,0,1-.125-.069,3.832,3.832,0,0,1-1.018-.9,2.118,2.118,0,0,1-.493-1.432l.039-.97Z" fill="#eda93f"/>
          <path id="路径_7831" data-name="路径 7831" d="M2403.088-279.036c-.238.042-.482.07-.726.093l.029-3.578c.229.016.458.044.68.079Z" fill="#fff" opacity="0.25" style="mix-blend-mode: screen;isolation: isolate"/>
          <path id="路径_7832" data-name="路径 7832" d="M2401.959-278.928a9.19,9.19,0,0,1-2.051-.165l.144-3.279a8.946,8.946,0,0,1,1.969-.17Z" fill="#fff" opacity="0.25" style="mix-blend-mode: screen;isolation: isolate"/>
          <path id="路径_7833" data-name="路径 7833" d="M2397.591-279.94a.784.784,0,0,1-.125-.069,3.832,3.832,0,0,1-1.018-.9l.125-3.12a10.039,10.039,0,0,1,1.088-.039l-.014.823Z" fill="#fff" opacity="0.25" style="mix-blend-mode: screen;isolation: isolate"/>
          <path id="路径_7834" data-name="路径 7834" d="M2405.775-283.414l-.139,3.458c-.131.091-.275.174-.426.258a2.809,2.809,0,0,1-.306.141l.149-3.394.015-.363A6.648,6.648,0,0,1,2405.775-283.414Z" fill="#fff" opacity="0.25" style="mix-blend-mode: screen;isolation: isolate"/>
          <ellipse id="椭圆_6" data-name="椭圆 6" cx="3.163" cy="5.478" rx="3.163" ry="5.478" transform="matrix(0.04, -0.999, 0.999, 0.04, 2395.863, -280.028)" fill="#eda93f"/>
          <path id="路径_7835" data-name="路径 7835" d="M2405.429-285.172c2.088,1.32,2.008,3.321-.18,4.469a8.558,8.558,0,0,1-7.74-.31c-2.088-1.32-2.008-3.321.179-4.47A8.563,8.563,0,0,1,2405.429-285.172Z" fill="#f0d58b"/>
          <path id="路径_7836" data-name="路径 7836" d="M2406.44-282.894c0,.04,0,.081-.009.119a2.421,2.421,0,0,1-1.417,1.692,7.158,7.158,0,0,1-3.656.744,7.162,7.162,0,0,1-3.584-1.034,2.423,2.423,0,0,1-1.277-1.8q0-.059,0-.12a2.334,2.334,0,0,1,1.427-1.81,7.152,7.152,0,0,1,3.655-.743,7.159,7.159,0,0,1,3.585,1.034A2.331,2.331,0,0,1,2406.44-282.894Z" fill="#eda93f"/>
          <path id="路径_7837" data-name="路径 7837" d="M2406.431-282.775a2.421,2.421,0,0,1-1.417,1.692,7.158,7.158,0,0,1-3.656.744,7.162,7.162,0,0,1-3.584-1.034,2.423,2.423,0,0,1-1.277-1.8,2.424,2.424,0,0,1,1.418-1.692,7.171,7.171,0,0,1,3.654-.744,7.176,7.176,0,0,1,3.585,1.035A2.422,2.422,0,0,1,2406.431-282.775Z" fill="#f0d58b"/>
          <g id="组_9629" data-name="组 9629">
            <path id="路径_7838" data-name="路径 7838" d="M2403.686-281.484a3.223,3.223,0,0,1-.67.244,3.86,3.86,0,0,1-.643.1,2.456,2.456,0,0,1-.538-.015.852.852,0,0,1-.348-.112.345.345,0,0,1-.095-.092.258.258,0,0,1-.047-.113.2.2,0,0,1,.017-.111.186.186,0,0,1,.089-.084.544.544,0,0,1,.241-.038c.105,0,.229,0,.372,0a3.8,3.8,0,0,0,.472-.038,2.17,2.17,0,0,0,.543-.153l-1.476-.994c-.21.045-.424.086-.642.125a3.806,3.806,0,0,1-.655.057,2.786,2.786,0,0,1-.648-.076,1.931,1.931,0,0,1-.622-.28,1.084,1.084,0,0,1-.39-.4.566.566,0,0,1-.05-.385.751.751,0,0,1,.211-.352,2.253,2.253,0,0,1,.4-.306l-.182-.123a.087.087,0,0,1-.045-.1c.009-.038.043-.072.1-.1a.459.459,0,0,1,.189-.041.284.284,0,0,1,.168.036l.171.115a3.792,3.792,0,0,1,.408-.167,3.761,3.761,0,0,1,.458-.129,1.967,1.967,0,0,1,.423-.046.57.57,0,0,1,.312.079.5.5,0,0,1,.089.081.291.291,0,0,1,.064.108.159.159,0,0,1,0,.112.187.187,0,0,1-.1.092.529.529,0,0,1-.165.045c-.068.008-.147.019-.237.032s-.193.032-.307.059a2.385,2.385,0,0,0-.367.121l1.276.859q.308-.063.633-.11a3.806,3.806,0,0,1,.659-.034,2.834,2.834,0,0,1,.666.105,2.282,2.282,0,0,1,.653.308q.579.39.547.781a1,1,0,0,1-.531.718l.213.143a.079.079,0,0,1,.034.1.184.184,0,0,1-.1.1.4.4,0,0,1-.192.042.293.293,0,0,1-.158-.04Zm-4.01-1.963a.945.945,0,0,0,.282.129,1.273,1.273,0,0,0,.31.041,2.2,2.2,0,0,0,.337-.023c.118-.016.238-.037.361-.063l-1.144-.77a.746.746,0,0,0-.327.343Q2399.43-283.611,2399.676-283.447Zm3.759.642a1.208,1.208,0,0,0-.628-.214,3.25,3.25,0,0,0-.694.044l1.326.892a.522.522,0,0,0,.252-.357C2403.7-282.562,2403.616-282.683,2403.435-282.8Z" fill="#eda93f"/>
          </g>
        </g>
        <path id="路径_7839" data-name="路径 7839" d="M2396.5-283.173a2.316,2.316,0,0,0,1.118,1.687l-.182-3.07A2.1,2.1,0,0,0,2396.5-283.173Z" fill="#fff" opacity="0.75" style="mix-blend-mode: screen;isolation: isolate"/>
        <path id="路径_7840" data-name="路径 7840" d="M2401.784-285.588l.6,5.207q.367-.028.719-.085l-.628-5.04C2402.246-285.539,2402.019-285.572,2401.784-285.588Z" fill="#fff" opacity="0.75" style="mix-blend-mode: screen;isolation: isolate"/>
        <path id="路径_7841" data-name="路径 7841" d="M2405.235-284.517c-.028-.019-.052-.039-.081-.057a5.228,5.228,0,0,0-.769-.4l.595,3.91.034-.017a3.8,3.8,0,0,0,.7-.487Z" fill="#fff" opacity="0.75" style="mix-blend-mode: screen;isolation: isolate"/>
        <path id="路径_7842" data-name="路径 7842" d="M2399.477-285.426l.388,4.882a8.446,8.446,0,0,0,1.493.205c.207.008.407,0,.609-.01l-.551-5.256A8.233,8.233,0,0,0,2399.477-285.426Z" fill="#fff" opacity="0.75" style="mix-blend-mode: screen;isolation: isolate"/>
      </g>
      <path id="路径_7843" data-name="路径 7843" d="M2387-287.715l-.505.072s-.841,2.057.313,3.446a6.038,6.038,0,0,0,2.734,1.738,3.384,3.384,0,0,0,1.921.967c1.024.072,3.692,1.517,3.932-.326a1.628,1.628,0,0,0-.6-1.389c-.692-.5-4.715-2.053-5.468-3.141A4,4,0,0,0,2387-287.715Z" fill="#4a3a30"/>
      <path id="路径_7844" data-name="路径 7844" d="M2397.553-282.7a5.13,5.13,0,0,1-.763-.112,1.717,1.717,0,0,0-1.088.084,1.055,1.055,0,0,1-.69-.017c-.669.162-.663,1.192-.393,1.187a2.932,2.932,0,0,1,1.083.67c.519.55.794.446.794.446.182.172.563.1.375-.12l-.732-1.019.657.821c.205.217.427.092.3-.207,0,0-.429-.67-.578-.915s0-.392.205-.447a3.134,3.134,0,0,1,.778,0C2397.795-282.318,2397.844-282.683,2397.553-282.7Z" fill="#f3ac91"/>
      <path id="路径_7845" data-name="路径 7845" d="M2404.489-286.076s-.646-.136-.816.251l.7.743.334.682c.065.186.295.186.278,0l-.126-.682.469-.111a5.047,5.047,0,0,1,1.2.979v-.425a2.461,2.461,0,0,0-.572-1.03A4.19,4.19,0,0,0,2404.489-286.076Z" fill="#f3ac91"/>
    </g>
    <g id="组_9635" data-name="组 9635">
      <g id="组_9634" data-name="组 9634">
        <path id="路径_7846" data-name="路径 7846" d="M2412.639-261.162v1.25a3.183,3.183,0,0,1-1.529,2.573c-.165.123-.346.238-.535.354a3.5,3.5,0,0,1-.386.2,8.592,8.592,0,0,1-2.31.764c-.3.066-.617.115-.929.157-.173.016-.345.032-.518.041a11.94,11.94,0,0,1-2.647-.107,9.086,9.086,0,0,1-3.025-.97,1.151,1.151,0,0,1-.165-.082,4.987,4.987,0,0,1-1.356-1.11,2.723,2.723,0,0,1-.707-1.817v-1.25Z" fill="#eda93f"/>
        <path id="路径_7847" data-name="路径 7847" d="M2407.879-256.024c-.3.066-.617.115-.929.157l-.148-4.6c.3.008.592.033.88.066Z" fill="#fff" opacity="0.25" style="mix-blend-mode: screen;isolation: isolate"/>
        <path id="路径_7848" data-name="路径 7848" d="M2406.432-255.826a11.94,11.94,0,0,1-2.647-.107l.016-4.226a11.466,11.466,0,0,1,2.524-.32Z" fill="#fff" opacity="0.25" style="mix-blend-mode: screen;isolation: isolate"/>
        <path id="路径_7849" data-name="路径 7849" d="M2400.76-256.9a1.151,1.151,0,0,1-.165-.082,4.987,4.987,0,0,1-1.356-1.11v-4.02a12.813,12.813,0,0,1,1.4-.107l.025,1.06Z" fill="#fff" opacity="0.25" style="mix-blend-mode: screen;isolation: isolate"/>
        <path id="路径_7850" data-name="路径 7850" d="M2411.11-261.8v4.456c-.165.123-.346.238-.535.354a3.5,3.5,0,0,1-.386.2l.016-4.374v-.468A8.275,8.275,0,0,1,2411.11-261.8Z" fill="#fff" opacity="0.25" style="mix-blend-mode: screen;isolation: isolate"/>
        <path id="路径_7851" data-name="路径 7851" d="M2410.574-263.879c2.754,1.59,2.754,4.168,0,5.759a11.026,11.026,0,0,1-9.975,0c-2.755-1.591-2.755-4.169,0-5.759A11.02,11.02,0,0,1,2410.574-263.879Z" fill="#eda93f"/>
        <ellipse id="椭圆_7" data-name="椭圆 7" cx="7.053" cy="4.072" rx="7.053" ry="4.072" transform="translate(2398.533 -265.232)" fill="#f0d58b"/>
        <path id="路径_7852" data-name="路径 7852" d="M2411.993-261.16c0,.052,0,.1-.007.154a3.117,3.117,0,0,1-1.735,2.249,9.218,9.218,0,0,1-4.665,1.146,9.21,9.21,0,0,1-4.664-1.146,3.12,3.12,0,0,1-1.736-2.249c0-.051-.007-.1-.007-.154a3.009,3.009,0,0,1,1.743-2.4,9.22,9.22,0,0,1,4.664-1.145,9.228,9.228,0,0,1,4.665,1.145A3.006,3.006,0,0,1,2411.993-261.16Z" fill="#eda93f"/>
        <path id="路径_7853" data-name="路径 7853" d="M2411.986-261.006a3.117,3.117,0,0,1-1.735,2.249,9.218,9.218,0,0,1-4.665,1.146,9.21,9.21,0,0,1-4.664-1.146,3.12,3.12,0,0,1-1.736-2.249,3.122,3.122,0,0,1,1.736-2.25,9.231,9.231,0,0,1,4.664-1.146,9.238,9.238,0,0,1,4.665,1.146A3.118,3.118,0,0,1,2411.986-261.006Z" fill="#f0d58b"/>
        <g id="组_9633" data-name="组 9633">
          <path id="路径_7854" data-name="路径 7854" d="M2408.522-259.2a4.226,4.226,0,0,1-.849.349,4.973,4.973,0,0,1-.823.165,3.247,3.247,0,0,1-.693.009,1.141,1.141,0,0,1-.453-.126.467.467,0,0,1-.127-.114.333.333,0,0,1-.066-.143.245.245,0,0,1,.017-.144.231.231,0,0,1,.109-.112.676.676,0,0,1,.308-.061c.135,0,.294-.009.478-.019a4.87,4.87,0,0,0,.606-.073,2.762,2.762,0,0,0,.691-.225l-1.951-1.2q-.4.1-.818.193a4.8,4.8,0,0,1-.84.108,3.63,3.63,0,0,1-.838-.065,2.468,2.468,0,0,1-.815-.328,1.413,1.413,0,0,1-.523-.491.736.736,0,0,1-.083-.493.956.956,0,0,1,.254-.464,2.834,2.834,0,0,1,.491-.415l-.24-.148a.112.112,0,0,1-.062-.121c.008-.049.051-.094.128-.136a.579.579,0,0,1,.24-.062.373.373,0,0,1,.218.037l.227.14a4.631,4.631,0,0,1,.516-.236,4.925,4.925,0,0,1,.582-.19,2.5,2.5,0,0,1,.543-.081.721.721,0,0,1,.4.085.644.644,0,0,1,.12.1.4.4,0,0,1,.087.136.209.209,0,0,1,0,.145.245.245,0,0,1-.123.124.66.66,0,0,1-.21.065l-.3.054c-.116.021-.247.052-.392.092a3.056,3.056,0,0,0-.466.175l1.686,1.039q.391-.1.809-.174a4.772,4.772,0,0,1,.846-.078,3.646,3.646,0,0,1,.863.1,2.9,2.9,0,0,1,.855.363q.765.471.744.976a1.284,1.284,0,0,1-.646.951l.282.173a.1.1,0,0,1,.049.128.243.243,0,0,1-.124.134.514.514,0,0,1-.245.064.374.374,0,0,1-.205-.044Zm-5.261-2.319a1.183,1.183,0,0,0,.369.151,1.633,1.633,0,0,0,.4.037,2.918,2.918,0,0,0,.432-.046c.151-.027.3-.06.462-.1l-1.512-.931a.96.96,0,0,0-.4.459C2402.962-261.8,2403.045-261.656,2403.261-261.523Zm4.87.633a1.554,1.554,0,0,0-.819-.244,4.277,4.277,0,0,0-.89.092l1.751,1.08a.677.677,0,0,0,.306-.473Q2408.488-260.671,2408.131-260.89Z" fill="#eda93f"/>
        </g>
      </g>
      <path id="路径_7855" data-name="路径 7855" d="M2399.186-261.006a2.979,2.979,0,0,0,1.525,2.112l-.392-3.94A2.709,2.709,0,0,0,2399.186-261.006Z" fill="#fff" opacity="0.75" style="mix-blend-mode: screen;isolation: isolate"/>
      <path id="路径_7856" data-name="路径 7856" d="M2405.863-264.386l1.038,6.668c.314-.037.622-.086.921-.146l-1.068-6.452C2406.46-264.346,2406.166-264.378,2405.863-264.386Z" fill="#fff" opacity="0.75" style="mix-blend-mode: screen;isolation: isolate"/>
      <path id="路径_7857" data-name="路径 7857" d="M2410.358-263.186c-.036-.023-.069-.047-.107-.07a6.682,6.682,0,0,0-1.011-.477l.968,5c.014-.009.029-.015.043-.023a4.92,4.92,0,0,0,.879-.664Z" fill="#fff" opacity="0.75" style="mix-blend-mode: screen;isolation: isolate"/>
      <path id="路径_7858" data-name="路径 7858" d="M2402.9-264.058l.751,6.26a10.91,10.91,0,0,0,1.932.187c.266,0,.523-.027.783-.045l-.981-6.733A10.539,10.539,0,0,0,2402.9-264.058Z" fill="#fff" opacity="0.75" style="mix-blend-mode: screen;isolation: isolate"/>
    </g>
    <g id="组_9638" data-name="组 9638">
      <g id="组_9637" data-name="组 9637">
        <path id="路径_7859" data-name="路径 7859" d="M2423.869-267.9v1.25a3.178,3.178,0,0,1-1.529,2.573c-.164.123-.345.238-.534.353a3.415,3.415,0,0,1-.387.2,8.569,8.569,0,0,1-2.31.764c-.3.066-.616.115-.929.156-.172.017-.345.033-.517.041a11.893,11.893,0,0,1-2.648-.106,9.1,9.1,0,0,1-3.025-.971.973.973,0,0,1-.164-.082,4.959,4.959,0,0,1-1.357-1.11,2.72,2.72,0,0,1-.707-1.816v-1.25Z" fill="#eda93f"/>
        <path id="路径_7860" data-name="路径 7860" d="M2419.109-262.762c-.3.066-.616.115-.929.156l-.148-4.6c.3.008.592.032.88.065Z" fill="#fff" opacity="0.25" style="mix-blend-mode: screen;isolation: isolate"/>
        <path id="路径_7861" data-name="路径 7861" d="M2417.663-262.565a11.893,11.893,0,0,1-2.648-.106l.017-4.226a11.511,11.511,0,0,1,2.524-.321Z" fill="#fff" opacity="0.25" style="mix-blend-mode: screen;isolation: isolate"/>
        <path id="路径_7862" data-name="路径 7862" d="M2411.99-263.642a.973.973,0,0,1-.164-.082,4.959,4.959,0,0,1-1.357-1.11v-4.02a13.089,13.089,0,0,1,1.4-.106l.025,1.06Z" fill="#fff" opacity="0.25" style="mix-blend-mode: screen;isolation: isolate"/>
        <path id="路径_7863" data-name="路径 7863" d="M2422.34-268.533v4.456c-.164.123-.345.238-.534.353a3.415,3.415,0,0,1-.387.2l.017-4.374v-.468A8.065,8.065,0,0,1,2422.34-268.533Z" fill="#fff" opacity="0.25" style="mix-blend-mode: screen;isolation: isolate"/>
        <path id="路径_7864" data-name="路径 7864" d="M2421.8-270.618c2.755,1.591,2.755,4.169,0,5.759a11.02,11.02,0,0,1-9.975,0c-2.754-1.59-2.754-4.168,0-5.759A11.026,11.026,0,0,1,2421.8-270.618Z" fill="#eda93f"/>
        <ellipse id="椭圆_8" data-name="椭圆 8" cx="7.053" cy="4.072" rx="7.053" ry="4.072" transform="translate(2409.763 -271.97)" fill="#f0d58b"/>
        <path id="路径_7865" data-name="路径 7865" d="M2423.223-267.9c0,.051,0,.1-.006.153a3.119,3.119,0,0,1-1.735,2.25,9.219,9.219,0,0,1-4.665,1.146,9.21,9.21,0,0,1-4.664-1.146,3.121,3.121,0,0,1-1.737-2.25c0-.05-.006-.1-.006-.153a3.007,3.007,0,0,1,1.743-2.4,9.22,9.22,0,0,1,4.664-1.145,9.229,9.229,0,0,1,4.665,1.145A3.006,3.006,0,0,1,2423.223-267.9Z" fill="#eda93f"/>
        <path id="路径_7866" data-name="路径 7866" d="M2423.217-267.745a3.119,3.119,0,0,1-1.735,2.25,9.219,9.219,0,0,1-4.665,1.146,9.21,9.21,0,0,1-4.664-1.146,3.121,3.121,0,0,1-1.737-2.25,3.122,3.122,0,0,1,1.737-2.249,9.22,9.22,0,0,1,4.664-1.146,9.229,9.229,0,0,1,4.665,1.146A3.119,3.119,0,0,1,2423.217-267.745Z" fill="#f0d58b"/>
        <g id="组_9636" data-name="组 9636">
          <path id="路径_7867" data-name="路径 7867" d="M2419.752-265.942a4.218,4.218,0,0,1-.849.348,5.055,5.055,0,0,1-.822.166,3.242,3.242,0,0,1-.693.008,1.114,1.114,0,0,1-.454-.126.449.449,0,0,1-.127-.114.315.315,0,0,1-.065-.143.242.242,0,0,1,.016-.143.237.237,0,0,1,.109-.113.7.7,0,0,1,.309-.061c.135,0,.294-.008.478-.018a5.031,5.031,0,0,0,.6-.073,2.854,2.854,0,0,0,.692-.225l-1.951-1.2c-.268.067-.541.132-.819.192a4.875,4.875,0,0,1-.84.109,3.579,3.579,0,0,1-.838-.066,2.465,2.465,0,0,1-.815-.328,1.393,1.393,0,0,1-.522-.491.728.728,0,0,1-.084-.492.96.96,0,0,1,.254-.464,2.764,2.764,0,0,1,.492-.415l-.241-.149a.112.112,0,0,1-.062-.12c.009-.049.051-.1.128-.136a.58.58,0,0,1,.241-.062.365.365,0,0,1,.218.037l.226.139a4.935,4.935,0,0,1,.516-.236,5,5,0,0,1,.583-.189,2.5,2.5,0,0,1,.542-.081.723.723,0,0,1,.405.085.634.634,0,0,1,.119.1.392.392,0,0,1,.088.136.218.218,0,0,1,0,.144.242.242,0,0,1-.123.124.685.685,0,0,1-.21.066l-.3.054c-.116.021-.246.051-.392.092a3.075,3.075,0,0,0-.465.174l1.686,1.039c.261-.064.531-.122.808-.173a4.771,4.771,0,0,1,.847-.078,3.635,3.635,0,0,1,.862.1,2.929,2.929,0,0,1,.856.364q.764.469.744.976a1.279,1.279,0,0,1-.647.95l.283.174a.1.1,0,0,1,.048.128.235.235,0,0,1-.123.134.529.529,0,0,1-.245.064.37.37,0,0,1-.205-.044Zm-5.261-2.319a1.223,1.223,0,0,0,.37.151,1.622,1.622,0,0,0,.4.037,2.938,2.938,0,0,0,.432-.047c.15-.026.3-.06.461-.1l-1.511-.931a.963.963,0,0,0-.4.458C2414.192-268.538,2414.276-268.394,2414.491-268.261Zm4.871.632a1.561,1.561,0,0,0-.82-.243,4.148,4.148,0,0,0-.89.092l1.752,1.08a.678.678,0,0,0,.306-.473Q2419.719-267.408,2419.362-267.629Z" fill="#eda93f"/>
        </g>
      </g>
      <path id="路径_7868" data-name="路径 7868" d="M2410.416-267.745a2.984,2.984,0,0,0,1.526,2.113l-.393-3.941A2.711,2.711,0,0,0,2410.416-267.745Z" fill="#fff" opacity="0.75" style="mix-blend-mode: screen;isolation: isolate"/>
      <path id="路径_7869" data-name="路径 7869" d="M2417.094-271.124l1.037,6.667q.471-.054.922-.146l-1.069-6.452C2417.69-271.085,2417.4-271.117,2417.094-271.124Z" fill="#fff" opacity="0.75" style="mix-blend-mode: screen;isolation: isolate"/>
      <path id="路径_7870" data-name="路径 7870" d="M2421.589-269.925c-.037-.023-.07-.047-.107-.069a6.66,6.66,0,0,0-1.011-.477l.967,5,.044-.023a4.967,4.967,0,0,0,.879-.663Z" fill="#fff" opacity="0.75" style="mix-blend-mode: screen;isolation: isolate"/>
      <path id="路径_7871" data-name="路径 7871" d="M2414.133-270.8l.752,6.26a10.816,10.816,0,0,0,1.932.188c.266,0,.522-.027.782-.045l-.98-6.733A10.553,10.553,0,0,0,2414.133-270.8Z" fill="#fff" opacity="0.75" style="mix-blend-mode: screen;isolation: isolate"/>
    </g>
  </g>
</svg>
