<svg xmlns="http://www.w3.org/2000/svg" width="42.89" height="42.102" viewBox="0 0 42.89 42.102">
  <g id="mo_btn4-3_line" transform="translate(-2652.458 -164.273)">
    <g id="组_8755" data-name="组 8755">
      <g id="组_8744" data-name="组 8744">
        <g id="组_8743" data-name="组 8743">
          <g id="组_8732" data-name="组 8732">
            <g id="组_8727" data-name="组 8727">
              <path id="路径_6292" data-name="路径 6292" d="M2676.554,193.9l-5.889-8.757,8.959-5.172,5.89,8.757Z" fill="none" stroke="#fff" stroke-width="1"/>
              <path id="路径_6293" data-name="路径 6293" d="M2676.348,194.132l-5.89-8.757.206-.23,5.889,8.757Z" fill="none" stroke="#fff" stroke-width="1"/>
              <path id="路径_6294" data-name="路径 6294" d="M2676.348,194.132l8.959-5.172.206-.23-8.959,5.172Z" fill="none" stroke="#fff" stroke-width="1"/>
              <path id="路径_6295" data-name="路径 6295" d="M2671.372,185.308l8.1-4.676,5.335,7.933-8.1,4.676Z" fill="none" stroke="#fff" stroke-width="1"/>
            </g>
            <g id="组_8731" data-name="组 8731">
              <g id="组_8730" data-name="组 8730">
                <g id="组_8728" data-name="组 8728">
                  <path id="路径_6296" data-name="路径 6296" d="M2684.947,188.484l.08.118-8.382,4.84-.08-.118Z" fill="none" stroke="#fff" stroke-width="1"/>
                  <path id="路径_6297" data-name="路径 6297" d="M2683.594,186.471l.079.118-8.382,4.84-.079-.118Z" fill="none" stroke="#fff" stroke-width="1"/>
                  <path id="路径_6298" data-name="路径 6298" d="M2682.24,184.458l.079.118-8.382,4.84-.079-.118Z" fill="none" stroke="#fff" stroke-width="1"/>
                  <path id="路径_6299" data-name="路径 6299" d="M2680.886,182.445l.08.118-8.382,4.84-.08-.118Z" fill="none" stroke="#fff" stroke-width="1"/>
                  <path id="路径_6300" data-name="路径 6300" d="M2679.533,180.433l.079.118-8.382,4.84-.079-.118Z" fill="none" stroke="#fff" stroke-width="1"/>
                </g>
                <g id="组_8729" data-name="组 8729">
                  <path id="路径_6301" data-name="路径 6301" d="M2671.372,185.308l-.142.082,5.335,7.933.142-.082Z" fill="none" stroke="#fff" stroke-width="1"/>
                  <path id="路径_6302" data-name="路径 6302" d="M2673.432,184.119l-.142.082,5.335,7.933.142-.082Z" fill="none" stroke="#fff" stroke-width="1"/>
                  <path id="路径_6303" data-name="路径 6303" d="M2675.492,182.93l-.142.082,5.335,7.933.142-.082Z" fill="none" stroke="#fff" stroke-width="1"/>
                  <path id="路径_6304" data-name="路径 6304" d="M2677.552,181.74l-.142.082,5.335,7.933.142-.082Z" fill="none" stroke="#fff" stroke-width="1"/>
                  <path id="路径_6305" data-name="路径 6305" d="M2679.612,180.551l-.142.082,5.335,7.933.142-.082Z" fill="none" stroke="#fff" stroke-width="1"/>
                </g>
              </g>
            </g>
          </g>
          <g id="组_8736" data-name="组 8736">
            <path id="路径_6306" data-name="路径 6306" d="M2667.87,198.916l-5.889-8.758,8.959-5.172,5.889,8.757Z" fill="none" stroke="#fff" stroke-width="1"/>
            <path id="路径_6307" data-name="路径 6307" d="M2667.664,199.146l-5.889-8.757.206-.23,5.889,8.758Z" fill="none" stroke="#fff" stroke-width="1"/>
            <path id="路径_6308" data-name="路径 6308" d="M2667.664,199.146l8.959-5.172.206-.23-8.959,5.172Z" fill="none" stroke="#fff" stroke-width="1"/>
            <path id="路径_6309" data-name="路径 6309" d="M2662.688,190.322l8.1-4.676,5.335,7.933-8.1,4.676Z" fill="none" stroke="#fff" stroke-width="1"/>
            <g id="组_8735" data-name="组 8735">
              <g id="组_8733" data-name="组 8733">
                <path id="路径_6310" data-name="路径 6310" d="M2676.263,193.5l.08.118-8.382,4.84-.08-.118Z" fill="none" stroke="#fff" stroke-width="1"/>
                <path id="路径_6311" data-name="路径 6311" d="M2674.91,191.485l.079.118-8.382,4.84-.079-.118Z" fill="none" stroke="#fff" stroke-width="1"/>
                <path id="路径_6312" data-name="路径 6312" d="M2673.556,189.472l.08.118-8.382,4.84-.079-.118Z" fill="none" stroke="#fff" stroke-width="1"/>
                <path id="路径_6313" data-name="路径 6313" d="M2672.2,187.459l.079.118-8.382,4.84-.08-.118Z" fill="none" stroke="#fff" stroke-width="1"/>
                <path id="路径_6314" data-name="路径 6314" d="M2670.849,185.447l.079.118-8.382,4.84-.079-.118Z" fill="none" stroke="#fff" stroke-width="1"/>
              </g>
              <g id="组_8734" data-name="组 8734">
                <path id="路径_6315" data-name="路径 6315" d="M2662.688,190.322l-.142.082,5.335,7.933.142-.082Z" fill="none" stroke="#fff" stroke-width="1"/>
                <path id="路径_6316" data-name="路径 6316" d="M2664.748,189.133l-.142.082,5.335,7.933.142-.082Z" fill="none" stroke="#fff" stroke-width="1"/>
                <path id="路径_6317" data-name="路径 6317" d="M2666.808,187.943l-.142.082,5.335,7.933.142-.082Z" fill="none" stroke="#fff" stroke-width="1"/>
                <path id="路径_6318" data-name="路径 6318" d="M2668.868,186.754l-.142.082,5.335,7.933.142-.082Z" fill="none" stroke="#fff" stroke-width="1"/>
                <path id="路径_6319" data-name="路径 6319" d="M2670.928,185.565l-.142.082,5.335,7.933.142-.082Z" fill="none" stroke="#fff" stroke-width="1"/>
              </g>
            </g>
          </g>
          <g id="组_8742" data-name="组 8742">
            <g id="组_8737" data-name="组 8737">
              <path id="路径_6320" data-name="路径 6320" d="M2659.186,203.93l-5.89-8.757,8.959-5.172,5.889,8.757Z" fill="none" stroke="#fff" stroke-width="1"/>
              <path id="路径_6321" data-name="路径 6321" d="M2658.979,204.16l-5.89-8.757.206-.23,5.89,8.757Z" fill="none" stroke="#fff" stroke-width="1"/>
              <path id="路径_6322" data-name="路径 6322" d="M2658.979,204.16l8.959-5.172.206-.23-8.959,5.172Z" fill="none" stroke="#fff" stroke-width="1"/>
              <path id="路径_6323" data-name="路径 6323" d="M2654,195.336l8.1-4.676,5.335,7.933-8.1,4.676Z" fill="none" stroke="#fff" stroke-width="1"/>
            </g>
            <g id="组_8741" data-name="组 8741">
              <g id="组_8740" data-name="组 8740">
                <g id="组_8738" data-name="组 8738">
                  <path id="路径_6324" data-name="路径 6324" d="M2667.579,198.511l.079.118-8.382,4.84-.079-.118Z" fill="none" stroke="#fff" stroke-width="1"/>
                  <path id="路径_6325" data-name="路径 6325" d="M2666.225,196.5l.08.118-8.382,4.84-.08-.118Z" fill="none" stroke="#fff" stroke-width="1"/>
                  <path id="路径_6326" data-name="路径 6326" d="M2664.872,194.486l.079.118-8.382,4.84-.08-.118Z" fill="none" stroke="#fff" stroke-width="1"/>
                  <path id="路径_6327" data-name="路径 6327" d="M2663.518,192.473l.079.118-8.382,4.84-.079-.118Z" fill="none" stroke="#fff" stroke-width="1"/>
                  <path id="路径_6328" data-name="路径 6328" d="M2662.165,190.46l.08.118-8.382,4.84-.08-.118Z" fill="none" stroke="#fff" stroke-width="1"/>
                </g>
                <g id="组_8739" data-name="组 8739">
                  <path id="路径_6329" data-name="路径 6329" d="M2654,195.336l-.142.082,5.335,7.933.142-.082Z" fill="none" stroke="#fff" stroke-width="1"/>
                  <path id="路径_6330" data-name="路径 6330" d="M2656.064,194.147l-.142.082,5.335,7.933.142-.082Z" fill="none" stroke="#fff" stroke-width="1"/>
                  <path id="路径_6331" data-name="路径 6331" d="M2658.124,192.957l-.142.082,5.335,7.933.142-.082Z" fill="none" stroke="#fff" stroke-width="1"/>
                  <path id="路径_6332" data-name="路径 6332" d="M2660.184,191.768l-.142.082,5.335,7.933.142-.082Z" fill="none" stroke="#fff" stroke-width="1"/>
                  <path id="路径_6333" data-name="路径 6333" d="M2662.244,190.578l-.142.082,5.335,7.933.142-.082Z" fill="none" stroke="#fff" stroke-width="1"/>
                </g>
              </g>
            </g>
          </g>
        </g>
      </g>
      <g id="组_8750" data-name="组 8750">
        <g id="组_8745" data-name="组 8745">
          <path id="路径_6334" data-name="路径 6334" d="M2685.676,199.168l-5.89-8.757,8.959-5.172,5.89,8.757Z" fill="none" stroke="#fff" stroke-width="1"/>
          <path id="路径_6335" data-name="路径 6335" d="M2685.469,199.4l-5.889-8.757.206-.23,5.89,8.757Z" fill="none" stroke="#fff" stroke-width="1"/>
          <path id="路径_6336" data-name="路径 6336" d="M2685.469,199.4l8.959-5.172.206-.23-8.959,5.172Z" fill="none" stroke="#fff" stroke-width="1"/>
          <path id="路径_6337" data-name="路径 6337" d="M2680.494,190.575l8.1-4.676,5.335,7.933-8.1,4.676Z" fill="none" stroke="#fff" stroke-width="1"/>
        </g>
        <g id="组_8749" data-name="组 8749">
          <g id="组_8748" data-name="组 8748">
            <g id="组_8746" data-name="组 8746">
              <path id="路径_6338" data-name="路径 6338" d="M2694.069,193.75l.079.118-8.382,4.84-.079-.118Z" fill="none" stroke="#fff" stroke-width="1"/>
              <path id="路径_6339" data-name="路径 6339" d="M2692.715,191.737l.079.118-8.382,4.84-.079-.118Z" fill="none" stroke="#fff" stroke-width="1"/>
              <path id="路径_6340" data-name="路径 6340" d="M2691.362,189.725l.08.118-8.382,4.84-.08-.118Z" fill="none" stroke="#fff" stroke-width="1"/>
              <path id="路径_6341" data-name="路径 6341" d="M2690.008,187.712l.079.118-8.382,4.84-.079-.118Z" fill="none" stroke="#fff" stroke-width="1"/>
              <path id="路径_6342" data-name="路径 6342" d="M2688.655,185.7l.079.118-8.382,4.84-.079-.118Z" fill="none" stroke="#fff" stroke-width="1"/>
            </g>
            <g id="组_8747" data-name="组 8747">
              <path id="路径_6343" data-name="路径 6343" d="M2680.494,190.575l-.142.082,5.335,7.933.142-.082Z" fill="none" stroke="#fff" stroke-width="1"/>
              <path id="路径_6344" data-name="路径 6344" d="M2682.554,189.385l-.142.082,5.335,7.933.142-.082Z" fill="none" stroke="#fff" stroke-width="1"/>
              <path id="路径_6345" data-name="路径 6345" d="M2684.614,188.2l-.142.082,5.335,7.933.142-.082Z" fill="none" stroke="#fff" stroke-width="1"/>
              <path id="路径_6346" data-name="路径 6346" d="M2686.674,187.007l-.142.082,5.335,7.933.142-.082Z" fill="none" stroke="#fff" stroke-width="1"/>
              <path id="路径_6347" data-name="路径 6347" d="M2688.734,185.817l-.142.082,5.335,7.933.142-.082Z" fill="none" stroke="#fff" stroke-width="1"/>
            </g>
          </g>
        </g>
      </g>
      <g id="组_8754" data-name="组 8754">
        <path id="路径_6348" data-name="路径 6348" d="M2676.991,204.182l-5.89-8.757,8.959-5.172,5.889,8.757Z" fill="none" stroke="#fff" stroke-width="1"/>
        <path id="路径_6349" data-name="路径 6349" d="M2676.785,204.412l-5.89-8.757.206-.23,5.89,8.757Z" fill="none" stroke="#fff" stroke-width="1"/>
        <path id="路径_6350" data-name="路径 6350" d="M2676.785,204.412l8.959-5.172.206-.23-8.959,5.172Z" fill="none" stroke="#fff" stroke-width="1"/>
        <path id="路径_6351" data-name="路径 6351" d="M2671.809,195.589l8.1-4.676,5.335,7.933-8.1,4.676Z" fill="none" stroke="#fff" stroke-width="1"/>
        <g id="组_8753" data-name="组 8753">
          <g id="组_8751" data-name="组 8751">
            <path id="路径_6352" data-name="路径 6352" d="M2685.385,198.764l.079.118-8.382,4.84L2677,203.6Z" fill="none" stroke="#fff" stroke-width="1"/>
            <path id="路径_6353" data-name="路径 6353" d="M2684.031,196.751l.08.118-8.382,4.84-.079-.118Z" fill="none" stroke="#fff" stroke-width="1"/>
            <path id="路径_6354" data-name="路径 6354" d="M2682.677,194.738l.08.118-8.382,4.84-.08-.118Z" fill="none" stroke="#fff" stroke-width="1"/>
            <path id="路径_6355" data-name="路径 6355" d="M2681.324,192.726l.079.118-8.382,4.84-.079-.118Z" fill="none" stroke="#fff" stroke-width="1"/>
            <path id="路径_6356" data-name="路径 6356" d="M2679.97,190.713l.08.118-8.382,4.84-.08-.118Z" fill="none" stroke="#fff" stroke-width="1"/>
          </g>
          <g id="组_8752" data-name="组 8752">
            <path id="路径_6357" data-name="路径 6357" d="M2671.809,195.589l-.142.082L2677,203.6l.142-.082Z" fill="none" stroke="#fff" stroke-width="1"/>
            <path id="路径_6358" data-name="路径 6358" d="M2673.87,194.4l-.142.082,5.335,7.933.142-.082Z" fill="none" stroke="#fff" stroke-width="1"/>
            <path id="路径_6359" data-name="路径 6359" d="M2675.93,193.21l-.142.082,5.335,7.933.142-.082Z" fill="none" stroke="#fff" stroke-width="1"/>
            <path id="路径_6360" data-name="路径 6360" d="M2677.99,192.02l-.142.082,5.335,7.933.142-.082Z" fill="none" stroke="#fff" stroke-width="1"/>
            <path id="路径_6361" data-name="路径 6361" d="M2680.05,190.831l-.142.082,5.335,7.933.142-.082Z" fill="none" stroke="#fff" stroke-width="1"/>
          </g>
        </g>
      </g>
    </g>
    <g id="_4推動整治復育-整治開發併行" data-name="4推動整治復育-整治開發併行">
      <g id="组_8764" data-name="组 8764">
        <g id="组_8763" data-name="组 8763">
          <path id="路径_6362" data-name="路径 6362" d="M2671.339,204.346c0,.845-1.254,1.529-2.8,1.529s-2.8-.684-2.8-1.529,1.253-1.528,2.8-1.528S2671.339,203.5,2671.339,204.346Z" fill="none" stroke="#fff" stroke-width="1" opacity="0.4" style="mix-blend-mode: darken;isolation: isolate"/>
          <g id="组_8762" data-name="组 8762">
            <path id="路径_6363" data-name="路径 6363" d="M2669.242,180.17c0,.212-.315.384-.7.384s-.7-.172-.7-.384.314-.383.7-.383S2669.242,179.959,2669.242,180.17Z" fill="none" stroke="#fff" stroke-width="1"/>
            <g id="组_8756" data-name="组 8756">
              <path id="路径_6364" data-name="路径 6364" d="M2668.306,181.633c0,.313-.048,1.308-.058,3.419-.007,1.469-.083,14.15-.117,19.762a1.9,1.9,0,0,0,.409.044c.612,0,1.108-.271,1.108-.6l-.385-22.816c-.046-.006-.092-.013-.138-.021C2668.54,181.312,2668.307,181.356,2668.306,181.633Z" fill="none" stroke="#fff" stroke-width="1"/>
              <path id="路径_6365" data-name="路径 6365" d="M2674.634,174.375l-.008,0C2674.632,174.379,2674.635,174.378,2674.634,174.375Z" fill="none" stroke="#fff" stroke-width="1"/>
              <path id="路径_6366" data-name="路径 6366" d="M2667.838,180.17l-.406,24.083c0,.255.29.472.7.561.034-5.612.11-18.293.117-19.762.01-2.111.056-3.106.058-3.419,0-.277.234-.321.819-.217.046.008.092.015.138.021l-.021-1.267Z" fill="none" stroke="#fff" stroke-width="1"/>
            </g>
            <g id="组_8761" data-name="组 8761">
              <g id="组_8757" data-name="组 8757">
                <path id="路径_6367" data-name="路径 6367" d="M2678.649,186.226l-7.8-5.935-.345-.225-.381.728a44.687,44.687,0,0,0,4.287,4.109C2677.562,187.288,2678.649,186.226,2678.649,186.226Z" fill="none" stroke="#fff" stroke-width="1"/>
                <path id="路径_6368" data-name="路径 6368" d="M2678.994,186.451l-8.148-6.16-.381.728a44.564,44.564,0,0,0,4.287,4.109C2677.906,187.513,2678.994,186.451,2678.994,186.451Z" fill="none" stroke="#fff" stroke-width="1"/>
              </g>
              <g id="组_8758" data-name="组 8758">
                <path id="路径_6369" data-name="路径 6369" d="M2670.965,181.2a43.045,43.045,0,0,1-4.631-2.305,1.307,1.307,0,0,0-.012.165.646.646,0,0,0,.2.533h0a5.808,5.808,0,0,0,.686.357c.805.359,3.458,1.633,3.85,1.7a.523.523,0,0,0,.634-.588A.783.783,0,0,1,2670.965,181.2Z" fill="none" stroke="#fff" stroke-width="1"/>
                <path id="路径_6370" data-name="路径 6370" d="M2668.126,178.143c-.278-.2-.518-.343-.629-.409l-.007,0-.059-.034v0a.446.446,0,0,0-.42.047,1.631,1.631,0,0,0-.676,1.149,43.045,43.045,0,0,0,4.631,2.305.783.783,0,0,0,.73-.138.811.811,0,0,0-.221-.481C2671.1,180.178,2668.829,178.638,2668.126,178.143Z" fill="none" stroke="#fff" stroke-width="1"/>
              </g>
              <g id="组_8759" data-name="组 8759">
                <path id="路径_6371" data-name="路径 6371" d="M2669.767,180.948l-.345-.225s-3.26,5.36-4.938,8.567c-3.155,6.027-2.84,7.311-2.84,7.311l.355.2.593-1.7Z" fill="none" stroke="#fff" stroke-width="1"/>
                <path id="路径_6372" data-name="路径 6372" d="M2662,196.8l8.148-15.568-.38-.288s-3.26,5.36-4.939,8.567C2661.674,195.542,2662,196.8,2662,196.8Z" fill="none" stroke="#fff" stroke-width="1"/>
              </g>
              <g id="组_8760" data-name="组 8760">
                <path id="路径_6373" data-name="路径 6373" d="M2670.022,165.127l-.329-.214a.2.2,0,0,0-.072-.038v15.364l.344.225.194-.536s.461-5.8.461-8.963A24.838,24.838,0,0,0,2670.022,165.127Z" fill="none" stroke="#fff" stroke-width="1"/>
                <path id="路径_6374" data-name="路径 6374" d="M2669.965,165.1v15.364l.539-.311s.461-5.8.461-8.963C2670.965,165.242,2669.965,165.1,2669.965,165.1Z" fill="none" stroke="#fff" stroke-width="1"/>
              </g>
            </g>
          </g>
        </g>
      </g>
    </g>
  </g>
</svg>
