<?xml version="1.0" encoding="utf-8"?>
<!-- Generator: Adobe Illustrator 27.3.1, SVG Export Plug-In . SVG Version: 6.00 Build 0)  -->
<svg version="1.1" id="圖層_1" xmlns="http://www.w3.org/2000/svg" xmlns:xlink="http://www.w3.org/1999/xlink" x="0px" y="0px"
	 viewBox="0 0 38.5 42" style="enable-background:new 0 0 38.5 42;" xml:space="preserve">
<style type="text/css">
	.st0{fill:none;stroke:#FFFFFF;stroke-width:0.288;}
	.st1{opacity:0.3;fill:none;stroke:#FFFFFF;stroke-width:0.288;enable-background:new    ;}
	.st2{opacity:0.3;}
	.st3{opacity:0.77;fill:none;stroke:#FFFFFF;stroke-width:0.288;enable-background:new    ;}
	.st4{opacity:0.2;}
	.st5{opacity:0.4;fill:none;stroke:#FFFFFF;stroke-width:0.288;enable-background:new    ;}
</style>
<g id="组_4230" transform="translate(-228.582 -360.073)">
	<g id="pc2-3" transform="translate(229.579 364.155)">
		<g id="组_6399" transform="translate(0 0)">
			<g id="组_6289">
				<g id="组_5935" transform="translate(74.464 22.827)">
					<g id="组_5932">
						<path id="路径_16783" class="st0" d="M-39.6-10.5l-12.8-7.4l1.2-0.7l12.8,7.4L-39.6-10.5z"/>
					</g>
					<g id="组_5934" transform="translate(0 5.987)">
						<g id="组_5933">
							<path id="路径_16784" class="st0" d="M-52.4-22.9l12.8,7.4l0,7.4h0l0,4.4L-52.4-11l0-7.4h0L-52.4-22.9z"/>
							<path id="路径_16785" class="st0" d="M-39.6-15.4l1.2-0.7l0,7.4h0l0,4.4l-1.2,0.7l0-7.4h0L-39.6-15.4z"/>
						</g>
					</g>
				</g>
				<g id="组_5944" transform="translate(0 22.827)">
					<g id="组_5939" transform="translate(0 45.3)">
						<g id="组_5938">
							<g id="组_5936">
								<path id="路径_16786" class="st0" d="M13.4-42.7L0.6-50.1l1.2-0.7l12.8,7.4L13.4-42.7z"/>
							</g>
							<g id="组_5937" transform="translate(44.303 25.747)">
								<path id="路径_16787" class="st0" d="M-29.7-69.2l0,12.2l-1.2,0.7l0-12.2L-29.7-69.2z"/>
							</g>
						</g>
					</g>
					<g id="组_5943">
						<g id="组_5942">
							<path id="路径_16788" class="st0" d="M0.6-5.5l12.8,7.4l0,1.2l0,0l0,11.8L0.6,7.4l0-12.2h0L0.6-5.5z"/>
							<g id="组_5940" transform="translate(0.001)">
								<path id="路径_16789" class="st0" d="M0.6-5.5l12.8,7.4l22.7-13.1l-12.8-7.4l-13.8,8L7.2-9.3L0.6-5.5z"/>
							</g>
							<g id="组_5941" transform="translate(44.303 25.747)">
								<path id="路径_16790" class="st0" d="M-8.2-36.9l0,1.2l-22.7,13.1l0-1.2L-8.2-36.9z"/>
							</g>
						</g>
					</g>
				</g>
				<g id="组_5946" transform="translate(35.3 35.824)">
					<g id="组_5945">
						<path id="路径_16791" class="st0" d="M-22.9-22.5L-22.9-22.5l0,0.1l-0.7-0.6l0,0l0.1,0l0,0L-22.9-22.5z"/>
						<path id="路径_16792" class="st0" d="M-23.6-23L-23.6-23l-0.5-0.4c-0.2-0.2-0.4-0.5-0.4-0.8l0.1-3h-0.1v3
							c0,0.3,0.1,0.7,0.4,0.9L-23.6-23L-23.6-23L-23.6-23l0.6,0.6v-0.1h0L-23.6-23z"/>
						<path id="路径_16793" class="st0" d="M-19.3-24.6l-3.6,2.1l-1.1-0.9c-0.2-0.2-0.4-0.5-0.4-0.7v-1.2l3.3-2v1.3c0,0,0,0,0,0.1
							c0,0.3,0.1,0.5,0.3,0.7c0,0,0,0,0,0C-20.6-25.2-19.9-24.9-19.3-24.6z"/>
						<path id="路径_16794" class="st0" d="M-21.2-26.1l-3.3,1.9v-2.7c0.2-0.2,0.4-0.4,0.4-0.4c0.1,0.1,2.1-0.5,2.8-0.6
							L-21.2-26.1C-21.2-26.1-21.2-26.1-21.2-26.1z"/>
					</g>
					<path id="路径_16795" class="st0" d="M-22.9-22.5l3.6-2.1v0.1L-22.9-22.5L-22.9-22.5z"/>
					<path id="路径_16796" class="st0" d="M-20.8-25.3l-3.3,1.9l0,0c-0.2-0.2-0.4-0.5-0.4-0.7l3.3-1.9
						C-21.1-25.8-21-25.5-20.8-25.3C-20.8-25.3-20.8-25.3-20.8-25.3z"/>
				</g>
				<g id="组_5948" transform="translate(88.675 38.372)">
					<path id="路径_16797" class="st1" d="M-62.4-28.4l1.1-0.7c0.1-0.1,0.2-0.1,0.4,0l2.4,1.3c0.1,0,0.1,0.1,0.1,0.1
						c0,0,0,0.1-0.1,0.1l-1.1,0.7c-0.1,0.1-0.2,0.1-0.4,0l-2.4-1.3C-62.5-28.2-62.5-28.3-62.4-28.4C-62.5-28.3-62.5-28.4-62.4-28.4z
						"/>
					<path id="路径_16798" class="st0" d="M-57.9-28.3c0,0,0,0.1-0.1,0.1l-0.5,0.3l0-0.1c0,0,0,0,0-0.1l0.2-0.1c0,0,0,0,0,0l0-0.2
						c0,0,0,0,0,0l-1.9-1c0,0-0.1,0-0.1,0l-0.4,0.3c0,0,0-0.1,0-0.1c0,0,0,0,0,0c0,0-0.1,0-0.1,0l-0.3,0.2c0,0,0,0,0,0l0,0.2
						l-0.2,0.1c0,0,0,0,0,0l0,0.1l-0.2-0.1c0,0-0.1-0.1-0.1-0.1c0,0.1,0,0.2,0,0.2c0,0,0,0.1,0.1,0.1l2.3,1.3c0.1,0.1,0.2,0,0.3,0
						l1.1-0.7c0,0,0.1-0.1,0.1-0.1C-57.9-28.1-57.9-28.2-57.9-28.3z"/>
					<g id="组_5947" transform="translate(2.269)">
						<path id="路径_16799" class="st0" d="M-60.6-28.5l-1.9-1c0,0-0.1,0-0.1,0l-1.1,0.7c0,0,0,0,0,0.1c0,0,0,0,0,0l1.9,1
							c0,0,0.1,0,0.1,0L-60.6-28.5C-60.6-28.4-60.6-28.4-60.6-28.5C-60.6-28.4-60.6-28.4-60.6-28.5z"/>
						<path id="路径_16800" class="st0" d="M-60.6-28.4l-1.9-1c0,0-0.1,0-0.1,0l-1.1,0.7c0,0,0,0,0,0.1c0,0,0,0,0,0l1.9,1
							c0,0,0.1,0,0.1,0L-60.6-28.4C-60.6-28.3-60.6-28.3-60.6-28.4C-60.6-28.4-60.6-28.4-60.6-28.4z"/>
						<path id="路径_16801" class="st0" d="M-61-28c0.1,0,0.1,0,0.2,0c0.1,0,0.1,0.1,0,0.1l-0.2,0.1c-0.1,0-0.1,0-0.2,0
							c0,0-0.1,0,0-0.1c0,0,0,0,0,0L-61-28z"/>
						<path id="路径_16802" class="st0" d="M-63-29.6c0.1-0.1,0.2-0.1,0.3,0l2.3,1.3c0.1,0,0.1,0.1,0.1,0.1c0,0,0,0.1-0.1,0.1
							l-1.1,0.7c-0.1,0.1-0.2,0.1-0.3,0l-2.3-1.3c-0.1,0-0.1-0.1-0.1-0.1c0,0,0-0.1,0.1-0.1L-63-29.6z M-60.6-28.5l-1.9-1
							c0,0-0.1,0-0.1,0l-1.1,0.7c0,0,0,0,0,0.1c0,0,0,0,0,0l1.9,1c0,0,0.1,0,0.1,0L-60.6-28.5C-60.6-28.4-60.6-28.4-60.6-28.5
							C-60.6-28.4-60.6-28.4-60.6-28.5L-60.6-28.5z M-60.8-27.9c0.1,0,0.1-0.1,0-0.1c-0.1,0-0.1,0-0.2,0l-0.2,0.1c0,0,0,0,0,0.1
							c0,0,0,0,0,0c0.1,0,0.1,0,0.2,0L-60.8-27.9L-60.8-27.9z M-63.6-29.1C-63.6-29.1-63.6-29.1-63.6-29.1
							C-63.6-29.1-63.6-29.1-63.6-29.1C-63.5-29.1-63.5-29.1-63.6-29.1l0.4-0.2c0,0,0,0,0,0c0,0-0.1,0-0.1,0L-63.6-29.1L-63.6-29.1z
							"/>
						<path id="路径_16803" class="st0" d="M-63.2-29.3C-63.2-29.3-63.2-29.3-63.2-29.3C-63.2-29.3-63.2-29.3-63.2-29.3l-0.2,0.2
							c0,0-0.1,0-0.1,0c0,0,0,0,0,0c0,0,0,0,0,0L-63.2-29.3z"/>
					</g>
				</g>
				<g id="组_5976" transform="translate(2.527 -3.505)">
					<g id="组_5965" transform="translate(56.21)">
						<path id="路径_16816" class="st0" d="M-23.4,9.8h-17.2l-0.6-9.7h17.8L-23.4,9.8z"/>
						<rect id="矩形_23" x="-40.6" y="0.5" class="st0" width="17.2" height="9.8"/>
						<rect id="矩形_24" x="-40.2" y="0.9" class="st0" width="16.5" height="9"/>
					</g>
					<g id="组_5970" transform="translate(5.375)">
						<g id="组_5969">
							<g id="组_5966" transform="translate(0 29.349)">
								<path id="路径_16817" class="st0" d="M-4.4-10.6L-5-11l0-9.8l0.6,0.3L-4.4-10.6z"/>
							</g>
							<g id="组_5967">
								<path id="路径_16818" class="st0" d="M-4.4,8.9L-5,8.6L9.7,0.2l0.6,0.3L-4.4,8.9z"/>
							</g>
							<g id="组_5968" transform="translate(1.975 1.147)">
								<path id="路径_16819" class="st0" d="M8.3-0.7l0,9.8l-14.6,8.5l0-9.8L8.3-0.7z"/>
								<path id="路径_16820" class="st0" d="M-6,8L7.9,0l0,8.9l-13.9,8L-6,8z"/>
							</g>
						</g>
						<g id="组_6474" transform="translate(-18.954 -73.92)">
							<g id="组_6471" transform="translate(36.396 85.108)">
								<path id="路径_17780" class="st0" d="M-8.9-1.6l-8.4,4.9v-6l8.4-4.9V-1.6z"/>
								<g id="组_6467" transform="translate(0.123 0.547)" class="st2">
									<path id="路径_17781" class="st0" d="M-17.5,2.6L-17.5,2.6l0-6l8.4-4.8v0l-8.4,4.8V2.6z"/>
									<path id="路径_17782" class="st0" d="M-17,2.3L-17,2.3l0-6l0,0V2.3z"/>
									<path id="路径_17783" class="st0" d="M-16.4,2L-16.4,2l0-6l0,0V2z"/>
									<path id="路径_17784" class="st0" d="M-15.9,1.7L-15.9,1.7l0-6l0,0V1.7z"/>
									<path id="路径_17785" class="st0" d="M-15.4,1.4L-15.4,1.4l0-6l0,0V1.4z"/>
									<path id="路径_17786" class="st0" d="M-14.9,1.1L-14.9,1.1l0-6l0,0V1.1z"/>
									<path id="路径_17787" class="st0" d="M-14.3,0.8L-14.3,0.8l0-6l0,0L-14.3,0.8z"/>
									<path id="路径_17788" class="st0" d="M-13.8,0.5L-13.8,0.5l0-6l0,0V0.5z"/>
									<path id="路径_17789" class="st0" d="M-13.3,0.2L-13.3,0.2l0-6l0,0V0.2z"/>
									<path id="路径_17790" class="st0" d="M-12.8-0.1L-12.8-0.1l0-6l0,0V-0.1z"/>
									<path id="路径_17791" class="st0" d="M-12.2-0.4L-12.2-0.4l0-6l0,0V-0.4z"/>
									<path id="路径_17792" class="st0" d="M-11.7-0.7L-11.7-0.7l0-6l0,0L-11.7-0.7z"/>
									<path id="路径_17793" class="st0" d="M-11.2-1L-11.2-1l0-6l0,0V-1z"/>
									<path id="路径_17794" class="st0" d="M-10.7-1.3L-10.7-1.3l0-6l0,0V-1.3z"/>
									<path id="路径_17795" class="st0" d="M-10.1-1.6L-10.1-1.6l0-6l0,0V-1.6z"/>
									<path id="路径_17796" class="st0" d="M-9.6-1.9L-9.6-1.9l0-6l0,0V-1.9z"/>
									<path id="路径_17797" class="st0" d="M-17.5-2.8l8.4-4.8v0L-17.5-2.8L-17.5-2.8z"/>
									<path id="路径_17798" class="st0" d="M-17.5-2.1L-9.1-7v0L-17.5-2.1L-17.5-2.1z"/>
									<path id="路径_17799" class="st0" d="M-17.5-1.5l8.4-4.8v0L-17.5-1.5L-17.5-1.5z"/>
									<path id="路径_17800" class="st0" d="M-17.5-0.9l8.4-4.8v0L-17.5-0.9L-17.5-0.9z"/>
									<path id="路径_17801" class="st0" d="M-17.5-0.3l8.4-4.8v0L-17.5-0.3L-17.5-0.3z"/>
									<path id="路径_17802" class="st0" d="M-17.5,0.3l8.4-4.8v0L-17.5,0.3L-17.5,0.3z"/>
									<path id="路径_17803" class="st0" d="M-17.5,0.9l8.4-4.8v0L-17.5,0.9L-17.5,0.9z"/>
									<path id="路径_17804" class="st0" d="M-17.5,1.5l8.4-4.8v0L-17.5,1.5L-17.5,1.5z"/>
									<path id="路径_17805" class="st0" d="M-17.5,2.1l8.4-4.8v0L-17.5,2.1L-17.5,2.1z"/>
								</g>
								<path id="路径_17806" class="st0" d="M-9-1.7v-6.1l0.1-0.1v6.2l-8.5,4.9V3.2L-9-1.7z"/>
								<g id="组_6468" transform="translate(0.242 17.238)">
									<path id="路径_17807" class="st0" d="M-16.8-16.9l0.1-0.2l0.2-0.1l0.1,0.1v0.2l-0.1,0.2l-0.2,0.1l-0.1-0.1V-16.9z"/>
									<path id="路径_17808" class="st0" d="M-16-16.5l0.1-0.2l0.2-0.1l0.1,0.1v0.2l-0.1,0.2l-0.2,0.1l-0.1-0.1V-16.5z"/>
									<path id="路径_17809" class="st0" d="M-14.9-17.4l0.1-0.2l0.2-0.1l0.1,0.1v0.2l-0.1,0.2l-0.2,0.1l-0.1-0.1V-17.4z"/>
									<path id="路径_17810" class="st0" d="M-13.2-17.5l0.1-0.2l0.2-0.1l0.1,0.1v0.2l-0.1,0.2l-0.2,0.1l-0.1-0.1V-17.5z"/>
									<path id="路径_17811" class="st0" d="M-12.1-18.4l0.1-0.2l0.2-0.1l0.1,0.1v0.2l-0.1,0.2l-0.2,0.1l-0.1-0.1L-12.1-18.4z"
										/>
									<path id="路径_17812" class="st0" d="M-11-18.8l0.1-0.2l0.2-0.1l0.1,0.1v0.2l-0.1,0.2l-0.2,0.1l-0.1-0.1V-18.8z"/>
									<path id="路径_17813" class="st0" d="M-17.6-16.6l0.2-0.3l0.2-0.1l0.2,0.1v0.3l-0.2,0.3l-0.2,0.1l-0.2-0.1V-16.6z"/>
									<path id="路径_17814" class="st0" d="M-12.9-17.4l1-1l1.1-0.4l1.6-1.2l0-0.1l-1.6,1.1l-1.1,0.4l-1,1l-1.7,0l-1.1,0.9
										l-0.8-0.4l-0.7,0.3l0,0.1l0.7-0.3l0.8,0.4l1.1-1L-12.9-17.4z"/>
								</g>
								<g id="组_6469" transform="translate(0.242 14.183)">
									<path id="路径_17815" class="st0" d="M-12.3-16.8l0.1-0.2l0.2-0.1l0.1,0.1v0.2l-0.1,0.2l-0.2,0.1l-0.1-0.1V-16.8z"/>
									<path id="路径_17816" class="st0" d="M-13.4-15.9l0.1-0.2l0.2-0.1l0.1,0.1v0.2l-0.1,0.2l-0.2,0.1l-0.1-0.1V-15.9z"/>
									<path id="路径_17817" class="st0" d="M-16-15.4l0.1-0.2l0.2-0.1l0.1,0.1v0.2l-0.1,0.2l-0.2,0.1l-0.1-0.1V-15.4z"/>
									<path id="路径_17818" class="st0" d="M-16.6-15.6l0.1-0.2l0.2-0.1l0.1,0.1v0.2l-0.1,0.2l-0.2,0.1l-0.1-0.1V-15.6z"/>
									<path id="路径_17819" class="st0" d="M-17.6-15.4l0.2-0.3l0.2-0.1l0.2,0.1v0.3l-0.2,0.3l-0.2,0.1l-0.2-0.1V-15.4z"/>
									<path id="路径_17820" class="st0" d="M-9.2-17.8l0-0.1l-2.8,1l0,0l-1.1,0.9l-2.6,0.5l-0.6-0.3l-0.9,0.2l0,0.1l0.9-0.2
										l0.6,0.3l2.6-0.5l0,0l1.1-0.9L-9.2-17.8z"/>
								</g>
								<g id="组_6470" transform="translate(0.242 8.599)">
									<path id="路径_17821" class="st0" d="M-17.6-11l0.2-0.3l0.2-0.1l0.2,0.1v0.3l-0.2,0.3l-0.2,0.1l-0.2-0.1L-17.6-11z"/>
									<path id="路径_17822" class="st0" d="M-15.8-11.4l0.1-0.2l0.2-0.1l0.1,0.1v0.2l-0.1,0.2l-0.2,0.1l-0.1-0.1V-11.4z"/>
									<path id="路径_17823" class="st0" d="M-14.3-11.1l0.1-0.2l0.2-0.1l0.1,0.1v0.2l-0.1,0.2l-0.2,0.1l-0.1-0.1V-11.1z"/>
									<path id="路径_17824" class="st0" d="M-12.5-12l0.1-0.2l0.2-0.1l0.1,0.1v0.2l-0.1,0.2l-0.2,0.1l-0.1-0.1V-12z"/>
									<path id="路径_17825" class="st0" d="M-11.3-12.3l0.1-0.2l0.2-0.1l0.1,0.1v0.2l-0.1,0.2l-0.2,0.1l-0.1-0.1V-12.3z"/>
									<path id="路径_17826" class="st0" d="M-11-12.3L-11-12.3l1.8-1.5l0-0.1l-1.8,1.5l-1.2,0.3l-1.8,1l-1.5-0.3l-1.7,0.4
										l0,0.1l1.7-0.4l1.5,0.4l1.8-1L-11-12.3z"/>
								</g>
							</g>
							<g id="组_6472" transform="translate(26.46 105.049)">
								<path id="路径_17827" class="st0" d="M-9.7-21.5l0.8-0.5l0.6,0.3v1l-0.6,1l-0.4,0.2v-0.5l0.2-0.1l0.3-0.6v-0.6l-0.3-0.2
									l-0.5,0.3L-9.7-21.5z"/>
								<path id="路径_17828" class="st0" d="M-9.3-19.9l-0.3,0.1L-9.9-20v-0.6l0.3-0.6l-0.2-0.4l-0.6,1v1l0.6,0.3l0.4-0.2V-19.9z
									"/>
							</g>
							<g id="组_6473" transform="translate(26.46 114.887)">
								<path id="路径_17829" class="st0" d="M-9.7-28.5l0.8-0.5l0.6,0.3v1l-0.6,1l-0.4,0.2v-0.5l0.2-0.1l0.3-0.6v-0.6l-0.3-0.2
									l-0.5,0.3L-9.7-28.5z"/>
								<path id="路径_17830" class="st0" d="M-10.3-26.6l0.6,0.3l0.4-0.2v-0.5l-0.3,0.1L-9.9-27L-10.3-26.6z"/>
								<path id="路径_17831" class="st0" d="M-9.9-27v-0.6l0.3-0.6l-0.2-0.4l-0.6,1v1L-9.9-27z"/>
							</g>
							<path id="路径_17832" class="st0" d="M16.1,90.1l2-1.2v-0.6l-2,1.2L16.1,90.1z"/>
						</g>
					</g>
					<g id="组_5975" transform="translate(0 29.349)">
						<g id="组_5974">
							<g id="组_5971" transform="translate(0 27.48)">
								<path id="路径_16821" class="st0" d="M-0.4-30.5l-0.7,0l0-9.8l0.7,0L-0.4-30.5z"/>
							</g>
							<g id="组_5972">
								<path id="路径_16822" class="st0" d="M-0.4-12.8l-0.7,0l1.5-7.9L1-20.4L-0.4-12.8z"/>
							</g>
							<g id="组_5973" transform="translate(2.49 1.159)">
								<path id="路径_16823" class="st0" d="M-1.5-21.6l0,9.8l-1.4,7.6l0-9.8L-1.5-21.6z"/>
								<path id="路径_16824" class="st0" d="M-2.8-13.9l1.1-6.2l0,8.4l-1.1,6.2L-2.8-13.9z"/>
							</g>
						</g>
					</g>
				</g>
				<g id="组_6448" transform="translate(-419.309 -518.367)">
					<path id="路径_17596" class="st0" d="M430.1,534.8l9.2-5c0.1,0,0.1-0.1,0.1-0.2c0-0.1,0-0.1,0-0.2l-9.2,5c0,0.1,0,0.1,0,0.2
						C430.2,534.7,430.1,534.8,430.1,534.8L430.1,534.8z"/>
					<path id="路径_17597" class="st0" d="M438.8,529.1c0.1,0,0.2,0,0.3,0.1l0,0l4.3,2.7l-9.1,5.1l-4.3-2.8l0,0l0,0l0,0
						c-0.1-0.1-0.2-0.1-0.3,0L438.8,529.1z"/>
					<path id="路径_17598" class="st0" d="M434.3,537.1l9.1-5.1c0,0,0,0,0,0c0,0,0-0.1,0-0.1l-9.1,5.1
						C434.3,537,434.3,537,434.3,537.1C434.3,537.1,434.3,537.1,434.3,537.1L434.3,537.1z"/>
					<path id="路径_17599" class="st0" d="M434.3,536.9l9.1-5.1c0,0,0,0,0,0L434.3,536.9C434.2,536.9,434.3,536.9,434.3,536.9
						L434.3,536.9z"/>
					<path id="路径_17600" class="st0" d="M434.2,536.9l9.1-5.1l0,0L434.2,536.9L434.2,536.9L434.2,536.9z"/>
					<path id="路径_17601" class="st0" d="M429.9,534.1c-0.2-0.1-0.3,0-0.3,0.2c0,0.2,0.1,0.4,0.3,0.5c0.2,0.1,0.3,0,0.3-0.2
						c0-0.1,0-0.1,0-0.2l0.1,0l4,2.6c0,0,0.1,0,0.1,0c0-0.1,0-0.1-0.1-0.1L429.9,534.1L429.9,534.1L429.9,534.1L429.9,534.1z"/>
					<g id="组_6400" transform="translate(483.567 565.573)">
						<path id="路径_17602" class="st0" d="M-45.1-35.7C-45.1-35.7-45.1-35.7-45.1-35.7C-45.1-35.7-45.1-35.6-45.1-35.7l0.4,0.3
							c0,0,0.1,0,0.1,0l0.4-0.2c0,0,0,0,0-0.1c0,0,0,0,0,0l-0.4-0.2c0,0-0.1,0-0.1,0L-45.1-35.7z"/>
					</g>
					<g id="组_6401" transform="translate(481.11 566.887)">
						<path id="路径_17603" class="st0" d="M-43.3-36.7C-43.3-36.6-43.4-36.6-43.3-36.7C-43.4-36.6-43.3-36.6-43.3-36.7l0.4,0.3
							c0,0,0.1,0,0.1,0l0.4-0.2c0,0,0,0,0-0.1c0,0,0,0,0,0l-0.4-0.2c0,0-0.1,0-0.1,0L-43.3-36.7z"/>
					</g>
					<g id="组_6402" transform="translate(478.653 568.202)">
						<path id="路径_17604" class="st0" d="M-41.6-37.6C-41.6-37.6-41.6-37.6-41.6-37.6C-41.6-37.5-41.6-37.5-41.6-37.6l0.4,0.3
							c0,0,0.1,0,0.1,0l0.4-0.2c0,0,0,0,0-0.1c0,0,0,0,0,0l-0.4-0.2c0,0-0.1,0-0.1,0L-41.6-37.6z"/>
					</g>
					<g id="组_6403" transform="translate(476.195 569.517)">
						<path id="路径_17605" class="st0" d="M-39.8-38.5C-39.9-38.5-39.9-38.5-39.8-38.5C-39.9-38.5-39.8-38.5-39.8-38.5l0.4,0.3
							c0,0,0.1,0,0.1,0l0.4-0.2c0,0,0,0,0-0.1c0,0,0,0,0,0l-0.4-0.2c0,0-0.1,0-0.1,0L-39.8-38.5z"/>
					</g>
					<g id="组_6404" transform="translate(473.738 570.832)">
						<path id="路径_17606" class="st0" d="M-38.1-39.5C-38.1-39.5-38.1-39.4-38.1-39.5C-38.1-39.4-38.1-39.4-38.1-39.5l0.4,0.3
							c0,0,0.1,0,0.1,0l0.4-0.2c0,0,0,0,0-0.1c0,0,0,0,0,0l-0.4-0.2c0,0-0.1,0-0.1,0L-38.1-39.5z"/>
					</g>
					<g id="组_6405" transform="translate(471.281 572.146)">
						<path id="路径_17607" class="st0" d="M-36.3-40.4C-36.4-40.4-36.4-40.4-36.3-40.4C-36.4-40.3-36.3-40.3-36.3-40.4l0.4,0.3
							c0,0,0.1,0,0.1,0l0.4-0.2c0,0,0,0,0-0.1c0,0,0,0,0,0l-0.4-0.2c0,0-0.1,0-0.1,0L-36.3-40.4z"/>
					</g>
					<g id="组_6406" transform="translate(483.469 567.047)">
						<path id="路径_17608" class="st0" d="M-45-36.4C-45-36.4-45-36.4-45-36.4C-45-36.3-45-36.3-45-36.4l0.4,0.3c0,0,0.1,0,0.1,0
							l1.1-0.6c0,0,0,0,0-0.1c0,0,0,0,0,0l-0.4-0.2c0,0-0.1,0-0.1,0L-45-36.4z"/>
					</g>
					<g id="组_6407" transform="translate(481.011 569.677)">
						<path id="路径_17609" class="st0" d="M-43.3-38.6C-43.3-38.6-43.3-38.6-43.3-38.6C-43.3-38.6-43.3-38.6-43.3-38.6l0.4,0.3
							c0,0,0.1,0,0.1,0l0.4-0.2c0,0,0-0.1,0-0.1l-0.4-0.2c0,0-0.1,0-0.1,0L-43.3-38.6z"/>
					</g>
					<g id="组_6408" transform="translate(478.554 570.992)">
						<path id="路径_17610" class="st0" d="M-41.5-39.6C-41.5-39.6-41.5-39.5-41.5-39.6C-41.5-39.5-41.5-39.5-41.5-39.6l0.4,0.3
							c0,0,0.1,0,0.1,0l0.4-0.2c0,0,0,0,0-0.1c0,0,0,0,0,0l-0.4-0.2c0,0-0.1,0-0.1,0L-41.5-39.6z"/>
					</g>
					<g id="组_6409" transform="translate(476.097 572.307)">
						<path id="路径_17611" class="st0" d="M-39.8-40.5C-39.8-40.5-39.8-40.5-39.8-40.5C-39.8-40.5-39.8-40.4-39.8-40.5l0.4,0.3
							c0,0,0.1,0,0.1,0l0.4-0.2c0,0,0,0,0-0.1c0,0,0,0,0,0l-0.4-0.2c0,0-0.1,0-0.1,0L-39.8-40.5z"/>
					</g>
					<g id="组_6410" transform="translate(473.64 573.621)">
						<path id="路径_17612" class="st0" d="M-38-41.5C-38-41.4-38-41.4-38-41.5C-38-41.4-38-41.4-38-41.5l0.4,0.3c0,0,0.1,0,0.1,0
							l0.4-0.2c0,0,0,0,0-0.1c0,0,0,0,0,0l-0.4-0.2c0,0-0.1,0-0.1,0L-38-41.5z"/>
					</g>
					<g id="组_6411" transform="translate(485.852 568.538)">
						<path id="路径_17613" class="st0" d="M-46.7-37.5C-46.7-37.4-46.7-37.4-46.7-37.5C-46.7-37.4-46.7-37.4-46.7-37.5l0.4,0.3
							c0,0,0.1,0,0.1,0l1.1-0.6c0,0,0,0,0-0.1c0,0,0,0,0,0l-0.4-0.2c0,0-0.1,0-0.1,0L-46.7-37.5z"/>
					</g>
					<g id="组_6412" transform="translate(483.395 571.167)">
						<path id="路径_17614" class="st0" d="M-45-39.7C-45-39.7-45-39.7-45-39.7C-45-39.6-45-39.6-45-39.7l0.4,0.3c0,0,0.1,0,0.1,0
							l0.4-0.2c0,0,0,0,0-0.1c0,0,0,0,0,0l-0.4-0.2c0,0-0.1,0-0.1,0L-45-39.7z"/>
					</g>
					<g id="组_6413" transform="translate(480.938 572.482)">
						<path id="路径_17615" class="st0" d="M-43.2-40.6C-43.2-40.6-43.2-40.6-43.2-40.6C-43.2-40.6-43.2-40.6-43.2-40.6l0.4,0.3
							c0,0,0.1,0,0.1,0l0.4-0.2c0,0,0,0,0-0.1c0,0,0,0,0,0l-0.4-0.2c0,0-0.1,0-0.1,0L-43.2-40.6z"/>
					</g>
					<g id="组_6414" transform="translate(478.48 573.797)">
						<path id="路径_17616" class="st0" d="M-41.5-41.6C-41.5-41.6-41.5-41.5-41.5-41.6C-41.5-41.5-41.5-41.5-41.5-41.6l0.4,0.3
							c0,0,0.1,0,0.1,0l0.4-0.2c0,0,0,0,0-0.1c0,0,0,0,0,0l-0.4-0.2c0,0-0.1,0-0.1,0L-41.5-41.6z"/>
					</g>
					<g id="组_6415" transform="translate(468.823 573.461)">
						<path id="路径_17617" class="st0" d="M-34.6-41.3C-34.6-41.3-34.6-41.3-34.6-41.3C-34.6-41.3-34.6-41.3-34.6-41.3l0.4,0.3
							c0,0,0.1,0,0.1,0l0.4-0.2c0,0,0-0.1,0-0.1l-0.4-0.2c0,0-0.1,0-0.1,0L-34.6-41.3z"/>
					</g>
					<g id="组_6416" transform="translate(471.182 574.936)">
						<path id="路径_17618" class="st0" d="M-36.3-42.4C-36.3-42.4-36.3-42.4-36.3-42.4C-36.3-42.3-36.3-42.3-36.3-42.4l0.4,0.3
							c0,0,0.1,0,0.1,0l0.4-0.2c0,0,0,0,0-0.1c0,0,0,0,0,0l-0.4-0.2c0,0-0.1,0-0.1,0L-36.3-42.4z"/>
					</g>
					<g id="组_6417" transform="translate(476.023 575.111)">
						<path id="路径_17619" class="st0" d="M-39.7-42.5C-39.7-42.5-39.7-42.5-39.7-42.5C-39.7-42.4-39.7-42.4-39.7-42.5l0.4,0.3
							c0,0,0.1,0,0.1,0l0.4-0.2c0,0,0,0,0-0.1c0,0,0,0,0,0l-0.4-0.2c0,0-0.1,0-0.1,0L-39.7-42.5z"/>
					</g>
					<g id="组_6418" transform="translate(473.566 576.426)">
						<path id="路径_17620" class="st0" d="M-38-43.4C-38-43.4-38-43.4-38-43.4C-38-43.4-38-43.4-38-43.4l0.4,0.3c0,0,0.1,0,0.1,0
							l0.4-0.2c0,0,0,0,0-0.1c0,0,0,0,0,0l-0.4-0.2c0,0-0.1,0-0.1,0L-38-43.4z"/>
					</g>
					<g id="组_6419" transform="translate(485.666 569.957)">
						<path id="路径_17621" class="st0" d="M-46.6-38.1C-46.6-38.1-46.6-38.1-46.6-38.1C-46.6-38-46.6-38-46.6-38.1l0.4,0.3
							c0,0,0.1,0,0.1,0l1.8-1c0,0,0,0,0-0.1c0,0,0,0,0,0l-0.4-0.2c0,0-0.1,0-0.1,0L-46.6-38.1z"/>
					</g>
					<g id="组_6420" transform="translate(483.209 573.902)">
						<path id="路径_17622" class="st0" d="M-44.8-41.7C-44.8-41.6-44.9-41.6-44.8-41.7C-44.8-41.6-44.8-41.6-44.8-41.7l0.4,0.3
							c0,0,0.1,0,0.1,0l0.4-0.2c0,0,0,0,0-0.1c0,0,0,0,0,0l-0.4-0.2c0,0-0.1,0-0.1,0L-44.8-41.7z"/>
					</g>
					<g id="组_6421" transform="translate(480.751 575.217)">
						<path id="路径_17623" class="st0" d="M-43.1-42.6C-43.1-42.6-43.1-42.6-43.1-42.6C-43.1-42.5-43.1-42.5-43.1-42.6l0.4,0.3
							c0,0,0.1,0,0.1,0l0.4-0.2c0,0,0,0,0-0.1c0,0,0,0,0,0l-0.4-0.2c0,0-0.1,0-0.1,0L-43.1-42.6z"/>
					</g>
					<g id="组_6422" transform="translate(478.294 576.531)">
						<path id="路径_17624" class="st0" d="M-41.3-43.5C-41.4-43.5-41.4-43.5-41.3-43.5l0.4,0.3c0,0,0.1,0,0.1,0l0.4-0.2
							c0,0,0,0,0-0.1c0,0,0,0,0,0l-0.4-0.2c0,0-0.1,0-0.1,0L-41.3-43.5z"/>
					</g>
					<g id="组_6423" transform="translate(475.837 577.846)">
						<path id="路径_17625" class="st0" d="M-39.6-44.5C-39.6-44.5-39.6-44.4-39.6-44.5C-39.6-44.4-39.6-44.4-39.6-44.5l0.4,0.3
							c0,0,0.1,0,0.1,0l0.4-0.2c0,0,0,0,0-0.1c0,0,0,0,0,0l-0.4-0.2c0,0-0.1,0-0.1,0L-39.6-44.5z"/>
					</g>
					<g id="组_6424" transform="translate(466.366 574.776)">
						<path id="路径_17626" class="st0" d="M-32.8-42.3C-32.9-42.3-32.9-42.2-32.8-42.3C-32.9-42.2-32.8-42.2-32.8-42.3l0.4,0.3
							c0,0,0.1,0,0.1,0l0.4-0.2c0,0,0,0,0-0.1c0,0,0,0,0,0l-0.4-0.2c0,0-0.1,0-0.1,0L-32.8-42.3z"/>
					</g>
					<g id="组_6425" transform="translate(468.725 576.251)">
						<path id="路径_17627" class="st0" d="M-34.5-43.3C-34.5-43.3-34.5-43.3-34.5-43.3C-34.5-43.3-34.5-43.2-34.5-43.3l0.4,0.3
							c0,0,0.1,0,0.1,0l0.4-0.2c0,0,0,0,0-0.1c0,0,0,0,0,0l-0.4-0.2c0,0-0.1,0-0.1,0L-34.5-43.3z"/>
					</g>
					<g id="组_6426" transform="translate(471.109 577.741)">
						<path id="路径_17628" class="st0" d="M-36.2-44.4C-36.2-44.4-36.2-44.4-36.2-44.4C-36.2-44.3-36.2-44.3-36.2-44.4l0.4,0.3
							c0,0,0.1,0,0.1,0l0.4-0.2c0,0,0,0,0-0.1c0,0,0,0,0,0l-0.4-0.2c0,0-0.1,0-0.1,0L-36.2-44.4z"/>
					</g>
					<g id="组_6427" transform="translate(473.38 579.161)">
						<path id="路径_17629" class="st0" d="M-37.8-45.4C-37.8-45.4-37.9-45.4-37.8-45.4C-37.8-45.3-37.8-45.3-37.8-45.4l0.4,0.3
							c0,0,0.1,0,0.1,0l0.4-0.2c0,0,0,0,0-0.1c0,0,0,0,0,0l-0.4-0.2c0,0-0.1,0-0.1,0L-37.8-45.4z"/>
					</g>
					<g id="组_6428" transform="translate(492.81 571.351)">
						<path id="路径_17630" class="st0" d="M-51.7-39.8C-51.7-39.8-51.7-39.8-51.7-39.8C-51.7-39.8-51.7-39.8-51.7-39.8l0.4,0.3
							c0,0,0.1,0,0.1,0l0.4-0.2c0,0,0,0,0-0.1c0,0,0,0,0,0l-0.4-0.2c0,0-0.1,0-0.1,0L-51.7-39.8z"/>
					</g>
					<g id="组_6429" transform="translate(490.352 572.666)">
						<path id="路径_17631" class="st0" d="M-49.9-40.8C-49.9-40.8-49.9-40.7-49.9-40.8C-49.9-40.7-49.9-40.7-49.9-40.8l0.4,0.3
							c0,0,0.1,0,0.1,0l0.4-0.2c0,0,0,0,0-0.1c0,0,0,0,0,0l-0.4-0.2c0,0-0.1,0-0.1,0L-49.9-40.8z"/>
					</g>
					<g id="组_6430" transform="translate(487.895 573.981)">
						<path id="路径_17632" class="st0" d="M-48.2-41.7C-48.2-41.7-48.2-41.7-48.2-41.7C-48.2-41.6-48.2-41.6-48.2-41.7l0.4,0.3
							c0,0,0.1,0,0.1,0l0.4-0.2c0,0,0,0,0-0.1c0,0,0,0,0,0l-0.4-0.2c0,0-0.1,0-0.1,0L-48.2-41.7z"/>
					</g>
					<g id="组_6431" transform="translate(475.609 575.295)">
						<path id="路径_17633" class="st0" d="M-39.4-41.1C-39.4-41.1-39.4-41.1-39.4-41.1C-39.4-41.1-39.4-41.1-39.4-41.1l0.4,0.3
							c0,0,0.1,0,0.1,0l3.2-1.7c0,0,0,0,0-0.1c0,0,0,0,0,0l-0.4-0.2c0,0-0.1,0-0.1,0L-39.4-41.1z"/>
					</g>
					<g id="组_6432" transform="translate(463.909 576.091)">
						<path id="路径_17634" class="st0" d="M-31.1-43.2C-31.1-43.2-31.1-43.2-31.1-43.2C-31.1-43.1-31.1-43.1-31.1-43.2l0.4,0.3
							c0,0,0.1,0,0.1,0l0.4-0.2c0,0,0,0,0-0.1c0,0,0,0,0,0l-0.4-0.2c0,0-0.1,0-0.1,0L-31.1-43.2z"/>
					</g>
					<g id="组_6433" transform="translate(461.452 577.406)">
						<path id="路径_17635" class="st0" d="M-29.3-44.1C-29.4-44.1-29.4-44.1-29.3-44.1C-29.4-44.1-29.3-44.1-29.3-44.1l0.4,0.3
							c0,0,0.1,0,0.1,0l0.4-0.2c0,0,0,0,0-0.1c0,0,0,0,0,0l-0.4-0.2c0,0-0.1,0-0.1,0L-29.3-44.1z"/>
					</g>
					<g id="组_6434" transform="translate(456.538 578.721)">
						<path id="路径_17636" class="st0" d="M-25.8-44.7C-25.9-44.7-25.9-44.7-25.8-44.7C-25.9-44.6-25.8-44.6-25.8-44.7l0.4,0.3
							c0,0,0.1,0,0.1,0l1.1-0.6c0,0,0,0,0-0.1c0,0,0,0,0,0l-0.4-0.2c0,0-0.1,0-0.1,0L-25.8-44.7z"/>
					</g>
					<g id="组_6435" transform="translate(466.268 577.565)">
						<path id="路径_17637" class="st0" d="M-32.8-44.3C-32.8-44.3-32.8-44.2-32.8-44.3C-32.8-44.2-32.8-44.2-32.8-44.3l0.4,0.3
							c0,0,0.1,0,0.1,0l0.4-0.2c0,0,0,0,0-0.1c0,0,0,0,0,0l-0.4-0.2c0,0-0.1,0-0.1,0L-32.8-44.3z"/>
					</g>
					<g id="组_6436" transform="translate(463.811 578.88)">
						<path id="路径_17638" class="st0" d="M-31-45.2C-31-45.2-31-45.2-31-45.2C-31-45.1-31-45.1-31-45.2l0.4,0.3c0,0,0.1,0,0.1,0
							l0.4-0.2c0,0,0-0.1,0-0.1l-0.4-0.2c0,0-0.1,0-0.1,0L-31-45.2z"/>
					</g>
					<g id="组_6437" transform="translate(461.354 580.195)">
						<path id="路径_17639" class="st0" d="M-29.3-46.1C-29.3-46.1-29.3-46.1-29.3-46.1C-29.3-46.1-29.3-46.1-29.3-46.1l0.4,0.3
							c0,0,0.1,0,0.1,0l0.4-0.2c0,0,0,0,0-0.1c0,0,0,0,0,0l-0.4-0.2c0,0-0.1,0-0.1,0L-29.3-46.1z"/>
					</g>
					<g id="组_6438" transform="translate(458.896 581.51)">
						<path id="路径_17640" class="st0" d="M-27.5-47.1C-27.5-47.1-27.5-47-27.5-47.1C-27.5-47-27.5-47-27.5-47.1l0.4,0.3
							c0,0,0.1,0,0.1,0l0.4-0.2c0,0,0,0,0-0.1c0,0,0,0,0,0l-0.4-0.2c0,0-0.1,0-0.1,0L-27.5-47.1z"/>
					</g>
					<g id="组_6439" transform="translate(468.651 579.056)">
						<path id="路径_17641" class="st0" d="M-34.5-45.3C-34.5-45.3-34.5-45.3-34.5-45.3l0.4,0.3c0,0,0.1,0,0.1,0l0.4-0.2
							c0,0,0,0,0-0.1c0,0,0,0,0,0l-0.4-0.2c0,0-0.1,0-0.1,0L-34.5-45.3z"/>
					</g>
					<g id="组_6440" transform="translate(466.194 580.371)">
						<path id="路径_17642" class="st0" d="M-32.7-46.3C-32.7-46.3-32.7-46.2-32.7-46.3C-32.7-46.2-32.7-46.2-32.7-46.3l0.4,0.3
							c0,0,0.1,0,0.1,0l0.4-0.2c0,0,0,0,0-0.1c0,0,0,0,0,0l-0.4-0.2c0,0-0.1,0-0.1,0L-32.7-46.3z"/>
					</g>
					<g id="组_6441" transform="translate(461.28 581.685)">
						<path id="路径_17643" class="st0" d="M-29.2-46.8C-29.2-46.8-29.2-46.8-29.2-46.8C-29.2-46.7-29.2-46.7-29.2-46.8l0.4,0.3
							c0,0,0.1,0,0.1,0l1.1-0.6c0,0,0,0,0-0.1c0,0,0,0,0,0l-0.4-0.2c0,0-0.1,0-0.1,0L-29.2-46.8z"/>
					</g>
					<g id="组_6442" transform="translate(470.922 580.476)">
						<path id="路径_17644" class="st0" d="M-36.1-46.3C-36.1-46.3-36.1-46.3-36.1-46.3C-36.1-46.3-36.1-46.3-36.1-46.3l0.4,0.3
							c0,0,0.1,0,0.1,0l0.4-0.2c0,0,0,0,0-0.1c0,0,0,0,0,0l-0.4-0.2c0,0-0.1,0-0.1,0L-36.1-46.3z"/>
					</g>
					<g id="组_6443" transform="translate(468.465 581.79)">
						<path id="路径_17645" class="st0" d="M-34.3-47.3C-34.3-47.3-34.4-47.2-34.3-47.3C-34.3-47.2-34.3-47.2-34.3-47.3l0.4,0.3
							c0,0,0.1,0,0.1,0l0.4-0.2c0,0,0-0.1,0-0.1l-0.4-0.2c0,0-0.1,0-0.1,0L-34.3-47.3z"/>
					</g>
					<g id="组_6444" transform="translate(463.551 583.105)">
						<path id="路径_17646" class="st0" d="M-30.8-47.8C-30.8-47.8-30.9-47.8-30.8-47.8C-30.8-47.8-30.8-47.8-30.8-47.8l0.4,0.3
							c0,0,0.1,0,0.1,0l1.1-0.6c0,0,0,0,0-0.1c0,0,0,0,0,0l-0.4-0.2c0,0-0.1,0-0.1,0L-30.8-47.8z"/>
					</g>
					<g id="组_6445" transform="translate(473.151 581.869)">
						<path id="路径_17647" class="st0" d="M-37.7-47.3C-37.7-47.3-37.7-47.3-37.7-47.3l0.4,0.3c0,0,0.1,0,0.1,0l0.4-0.2
							c0,0,0,0,0-0.1c0,0,0,0,0,0l-0.4-0.2c0,0-0.1,0-0.1,0L-37.7-47.3z"/>
					</g>
					<g id="组_6446" transform="translate(465.78 584.499)">
						<path id="路径_17648" class="st0" d="M-32.4-48.8C-32.4-48.8-32.4-48.8-32.4-48.8C-32.4-48.8-32.4-48.7-32.4-48.8l0.4,0.3
							c0,0,0.1,0,0.1,0l1.1-0.6c0,0,0,0,0-0.1c0,0,0,0,0,0l-0.4-0.2c0,0-0.1,0-0.1,0L-32.4-48.8z"/>
					</g>
					<path id="路径_17649" class="st0" d="M439,530.2l0.4-0.2c0,0,0,0,0,0l0,0.1c0,0,0,0,0,0L439,530.2L439,530.2z"/>
					<path id="路径_17650" class="st0" d="M438.5,529.9C438.5,529.9,438.5,529.9,438.5,529.9l0.4,0.3c0,0,0.1,0,0.1,0l0,0.1
						c0,0-0.1,0-0.1,0l-0.4-0.2C438.5,530,438.5,530,438.5,529.9L438.5,529.9z"/>
					<path id="路径_17651" class="st0" d="M438.3,530.6l0.4-0.2c0,0,0,0,0,0l0,0.1c0,0,0,0,0,0L438.3,530.6L438.3,530.6z"/>
					<path id="路径_17652" class="st0" d="M437.8,530.3C437.8,530.3,437.8,530.3,437.8,530.3l0.4,0.3c0,0,0.1,0,0.1,0l0,0.1
						c0,0-0.1,0-0.1,0l-0.4-0.2C437.8,530.4,437.8,530.4,437.8,530.3L437.8,530.3z"/>
					<path id="路径_17653" class="st0" d="M437.6,530.9l0.4-0.2c0,0,0,0,0,0l0,0.1c0,0,0,0,0,0L437.6,530.9L437.6,530.9z"/>
					<path id="路径_17654" class="st0" d="M437,530.6C437,530.7,437.1,530.7,437,530.6l0.4,0.3c0,0,0.1,0,0.1,0l0,0.1
						c0,0-0.1,0-0.1,0l-0.4-0.2C437.1,530.8,437,530.7,437,530.6L437,530.6z"/>
					<path id="路径_17655" class="st0" d="M436.9,531.3l0.4-0.2c0,0,0,0,0,0l0,0.1c0,0,0,0,0,0L436.9,531.3L436.9,531.3z"/>
					<path id="路径_17656" class="st0" d="M436.3,531C436.3,531,436.3,531.1,436.3,531l0.4,0.3c0,0,0.1,0,0.1,0l0,0.1
						c0,0-0.1,0-0.1,0l-0.4-0.2C436.3,531.1,436.3,531.1,436.3,531L436.3,531z"/>
					<path id="路径_17657" class="st0" d="M436.2,531.7l0.4-0.2c0,0,0,0,0,0l0,0.1c0,0,0,0,0,0L436.2,531.7L436.2,531.7z"/>
					<path id="路径_17658" class="st0" d="M435.6,531.4C435.6,531.4,435.6,531.4,435.6,531.4l0.4,0.3c0,0,0.1,0,0.1,0l0,0.1
						c0,0-0.1,0-0.1,0l-0.4-0.2C435.6,531.5,435.6,531.5,435.6,531.4L435.6,531.4z"/>
					<path id="路径_17659" class="st0" d="M435.5,532.1l0.4-0.2c0,0,0,0,0,0l0,0.1c0,0,0,0,0,0L435.5,532.1L435.5,532.1z"/>
					<path id="路径_17660" class="st0" d="M434.9,531.8C434.9,531.8,434.9,531.8,434.9,531.8l0.4,0.3c0,0,0.1,0,0.1,0l0,0.1
						c0,0-0.1,0-0.1,0l-0.4-0.2C434.9,531.9,434.9,531.9,434.9,531.8L434.9,531.8z"/>
					<path id="路径_17661" class="st0" d="M439,531l1.1-0.6c0,0,0,0,0,0l0,0.1c0,0,0,0,0,0L439,531L439,531z"/>
					<path id="路径_17662" class="st0" d="M438.4,530.7C438.4,530.7,438.4,530.7,438.4,530.7l0.4,0.3c0,0,0.1,0,0.1,0l0,0.1
						c0,0-0.1,0-0.1,0l-0.4-0.2C438.4,530.8,438.4,530.8,438.4,530.7L438.4,530.7z"/>
					<path id="路径_17663" class="st0" d="M438.3,531.4l0.4-0.2c0,0,0,0,0,0l0,0.1c0,0,0,0,0,0L438.3,531.4L438.3,531.4z"/>
					<path id="路径_17664" class="st0" d="M437.7,531.1C437.7,531.1,437.7,531.1,437.7,531.1l0.4,0.3c0,0,0.1,0,0.1,0l0,0.1
						c0,0-0.1,0-0.1,0l-0.4-0.2C437.7,531.2,437.7,531.2,437.7,531.1L437.7,531.1z"/>
					<path id="路径_17665" class="st0" d="M437.6,531.7l0.4-0.2c0,0,0,0,0,0l0,0.1c0,0,0,0,0,0L437.6,531.7L437.6,531.7z"/>
					<path id="路径_17666" class="st0" d="M437,531.5C437,531.5,437,531.5,437,531.5l0.4,0.3c0,0,0.1,0,0.1,0l0,0.1
						c0,0-0.1,0-0.1,0l-0.4-0.2C437,531.6,437,531.5,437,531.5L437,531.5z"/>
					<path id="路径_17667" class="st0" d="M436.9,532.1l0.4-0.2c0,0,0,0,0,0l0,0.1c0,0,0,0,0,0L436.9,532.1L436.9,532.1z"/>
					<path id="路径_17668" class="st0" d="M436.3,531.8C436.3,531.8,436.3,531.9,436.3,531.8l0.4,0.3c0,0,0.1,0,0.1,0l0,0.1
						c0,0-0.1,0-0.1,0l-0.4-0.2C436.3,531.9,436.3,531.9,436.3,531.8L436.3,531.8z"/>
					<path id="路径_17669" class="st0" d="M436.2,532.5l0.4-0.2c0,0,0,0,0,0l0,0.1c0,0,0,0,0,0L436.2,532.5L436.2,532.5z"/>
					<path id="路径_17670" class="st0" d="M435.6,532.2C435.6,532.2,435.6,532.2,435.6,532.2l0.4,0.3c0,0,0.1,0,0.1,0l0,0.1
						c0,0-0.1,0-0.1,0l-0.4-0.2C435.6,532.3,435.6,532.3,435.6,532.2L435.6,532.2z"/>
					<path id="路径_17671" class="st0" d="M439.7,531.4l1.1-0.6c0,0,0,0,0,0l0,0.1c0,0,0,0,0,0L439.7,531.4L439.7,531.4z"/>
					<path id="路径_17672" class="st0" d="M439.1,531.1C439.1,531.1,439.1,531.2,439.1,531.1l0.4,0.3c0,0,0.1,0,0.1,0l0,0.1
						c0,0-0.1,0-0.1,0l-0.4-0.2C439.1,531.2,439.1,531.2,439.1,531.1L439.1,531.1z"/>
					<path id="路径_17673" class="st0" d="M439,531.8l0.4-0.2c0,0,0,0,0,0l0,0.1c0,0,0,0,0,0L439,531.8L439,531.8z"/>
					<path id="路径_17674" class="st0" d="M438.4,531.5C438.4,531.5,438.4,531.5,438.4,531.5l0.4,0.3c0,0,0.1,0,0.1,0l0,0.1
						c0,0-0.1,0-0.1,0l-0.4-0.2C438.4,531.6,438.4,531.6,438.4,531.5L438.4,531.5z"/>
					<path id="路径_17675" class="st0" d="M438.3,532.2l0.4-0.2c0,0,0,0,0,0l0,0.1c0,0,0,0,0,0L438.3,532.2L438.3,532.2z"/>
					<path id="路径_17676" class="st0" d="M437.7,531.9C437.7,531.9,437.7,531.9,437.7,531.9l0.4,0.3c0,0,0.1,0,0.1,0l0,0.1
						c0,0-0.1,0-0.1,0l-0.4-0.2C437.7,532,437.7,532,437.7,531.9L437.7,531.9z"/>
					<path id="路径_17677" class="st0" d="M437.5,532.5l0.4-0.2c0,0,0,0,0,0l0,0.1c0,0,0,0,0,0L437.5,532.5L437.5,532.5z"/>
					<path id="路径_17678" class="st0" d="M437,532.3C437,532.3,437,532.3,437,532.3l0.4,0.3c0,0,0.1,0,0.1,0l0,0.1
						c0,0-0.1,0-0.1,0l-0.4-0.2C437,532.4,437,532.4,437,532.3L437,532.3z"/>
					<path id="路径_17679" class="st0" d="M434.8,532.5l0.4-0.2c0,0,0,0,0,0l0,0.1c0,0,0,0,0,0L434.8,532.5L434.8,532.5z"/>
					<path id="路径_17680" class="st0" d="M434.2,532.2C434.2,532.2,434.2,532.2,434.2,532.2l0.4,0.3c0,0,0.1,0,0.1,0l0,0.1
						c0,0-0.1,0-0.1,0l-0.4-0.2C434.2,532.3,434.2,532.3,434.2,532.2L434.2,532.2z"/>
					<path id="路径_17681" class="st0" d="M435.4,532.9l0.4-0.2c0,0,0,0,0,0l0,0.1c0,0,0,0,0,0L435.4,532.9L435.4,532.9z"/>
					<path id="路径_17682" class="st0" d="M434.9,532.6C434.9,532.6,434.9,532.6,434.9,532.6l0.4,0.3c0,0,0.1,0,0.1,0l0,0.1
						c0,0-0.1,0-0.1,0l-0.4-0.2C434.9,532.7,434.9,532.7,434.9,532.6L434.9,532.6z"/>
					<path id="路径_17683" class="st0" d="M436.8,532.9l0.4-0.2c0,0,0,0,0,0l0,0.1c0,0,0,0,0,0L436.8,532.9L436.8,532.9z"/>
					<path id="路径_17684" class="st0" d="M436.3,532.6C436.3,532.7,436.3,532.7,436.3,532.6l0.4,0.3c0,0,0.1,0,0.1,0l0,0.1
						c0,0-0.1,0-0.1,0l-0.4-0.2C436.3,532.8,436.3,532.7,436.3,532.6L436.3,532.6z"/>
					<path id="路径_17685" class="st0" d="M436.1,533.3l0.4-0.2c0,0,0,0,0,0l0,0.1c0,0,0,0,0,0L436.1,533.3L436.1,533.3z"/>
					<path id="路径_17686" class="st0" d="M435.6,533C435.6,533,435.6,533,435.6,533l0.4,0.3c0,0,0.1,0,0.1,0l0,0.1
						c0,0-0.1,0-0.1,0l-0.4-0.2C435.6,533.1,435.6,533.1,435.6,533L435.6,533z"/>
					<path id="路径_17687" class="st0" d="M439.6,532.2l1.8-1c0,0,0,0,0,0l0,0.1c0,0,0,0,0,0L439.6,532.2L439.6,532.2z"/>
					<path id="路径_17688" class="st0" d="M439.1,531.9C439.1,531.9,439.1,531.9,439.1,531.9l0.4,0.3c0,0,0.1,0,0.1,0l0,0.1
						c0,0-0.1,0-0.1,0l-0.4-0.2C439.1,532,439.1,532,439.1,531.9L439.1,531.9z"/>
					<path id="路径_17689" class="st0" d="M438.9,532.6l0.4-0.2c0,0,0,0,0,0l0,0.1c0,0,0,0,0,0L438.9,532.6L438.9,532.6z"/>
					<path id="路径_17690" class="st0" d="M438.4,532.3C438.4,532.3,438.4,532.3,438.4,532.3l0.4,0.3c0,0,0.1,0,0.1,0l0,0.1
						c0,0-0.1,0-0.1,0l-0.4-0.2C438.4,532.4,438.4,532.4,438.4,532.3L438.4,532.3z"/>
					<path id="路径_17691" class="st0" d="M438.2,533l0.4-0.2c0,0,0,0,0,0l0,0.1c0,0,0,0,0,0L438.2,533L438.2,533z"/>
					<path id="路径_17692" class="st0" d="M437.6,532.7C437.7,532.7,437.7,532.7,437.6,532.7l0.4,0.3c0,0,0.1,0,0.1,0l0,0.1
						c0,0-0.1,0-0.1,0l-0.4-0.2C437.7,532.8,437.6,532.8,437.6,532.7L437.6,532.7z"/>
					<path id="路径_17693" class="st0" d="M437.5,533.3l0.4-0.2c0,0,0,0,0,0l0,0.1c0,0,0,0,0,0L437.5,533.3L437.5,533.3z"/>
					<path id="路径_17694" class="st0" d="M436.9,533C436.9,533.1,437,533.1,436.9,533l0.4,0.3c0,0,0.1,0,0.1,0l0,0.1
						c0,0-0.1,0-0.1,0l-0.4-0.2C437,533.2,436.9,533.1,436.9,533L436.9,533z"/>
					<path id="路径_17695" class="st0" d="M436.8,533.7l0.4-0.2c0,0,0,0,0,0l0,0.1c0,0,0,0,0,0L436.8,533.7L436.8,533.7z"/>
					<path id="路径_17696" class="st0" d="M436.2,533.4C436.2,533.4,436.2,533.5,436.2,533.4l0.4,0.3c0,0,0.1,0,0.1,0l0,0.1
						c0,0-0.1,0-0.1,0l-0.4-0.2C436.2,533.5,436.2,533.5,436.2,533.4L436.2,533.4z"/>
					<path id="路径_17697" class="st0" d="M434.1,532.8l0.4-0.2c0,0,0,0,0,0l0,0.1c0,0,0,0,0,0L434.1,532.8L434.1,532.8z"/>
					<path id="路径_17698" class="st0" d="M433.5,532.5C433.5,532.6,433.5,532.6,433.5,532.5l0.4,0.3c0,0,0.1,0,0.1,0l0,0.1
						c0,0-0.1,0-0.1,0l-0.4-0.2C433.5,532.7,433.5,532.6,433.5,532.5L433.5,532.5z"/>
					<path id="路径_17699" class="st0" d="M434.7,533.3l0.4-0.2c0,0,0,0,0,0l0,0.1c0,0,0,0,0,0L434.7,533.3L434.7,533.3z"/>
					<path id="路径_17700" class="st0" d="M434.2,533C434.2,533,434.2,533,434.2,533l0.4,0.3c0,0,0.1,0,0.1,0l0,0.1
						c0,0-0.1,0-0.1,0l-0.4-0.2C434.2,533.1,434.2,533.1,434.2,533L434.2,533z"/>
					<path id="路径_17701" class="st0" d="M435.4,533.7l0.4-0.2c0,0,0,0,0,0l0,0.1c0,0,0,0,0,0L435.4,533.7L435.4,533.7z"/>
					<path id="路径_17702" class="st0" d="M434.9,533.4C434.9,533.4,434.9,533.4,434.9,533.4l0.4,0.3c0,0,0.1,0,0.1,0l0,0.1
						c0,0-0.1,0-0.1,0l-0.4-0.2C434.9,533.5,434.9,533.5,434.9,533.4L434.9,533.4z"/>
					<path id="路径_17703" class="st0" d="M436.1,534.1l0.4-0.2c0,0,0,0,0,0l0,0.1c0,0,0,0,0,0L436.1,534.1L436.1,534.1z"/>
					<path id="路径_17704" class="st0" d="M435.5,533.8C435.5,533.8,435.5,533.8,435.5,533.8l0.4,0.3c0,0,0.1,0,0.1,0l0,0.1
						c0,0-0.1,0-0.1,0l-0.4-0.2C435.5,533.9,435.5,533.9,435.5,533.8L435.5,533.8z"/>
					<path id="路径_17705" class="st0" d="M441.7,531.8l0.4-0.2c0,0,0,0,0,0l0,0.1c0,0,0,0,0,0L441.7,531.8L441.7,531.8z"/>
					<path id="路径_17706" class="st0" d="M441.1,531.6C441.1,531.6,441.1,531.6,441.1,531.6l0.4,0.3c0,0,0.1,0,0.1,0l0,0.1
						c0,0-0.1,0-0.1,0l-0.4-0.2C441.1,531.7,441.1,531.7,441.1,531.6L441.1,531.6z"/>
					<path id="路径_17707" class="st0" d="M441,532.2l0.4-0.2c0,0,0,0,0,0l0,0.1c0,0,0,0,0,0L441,532.2L441,532.2z"/>
					<path id="路径_17708" class="st0" d="M440.4,531.9C440.4,532,440.4,532,440.4,531.9l0.4,0.3c0,0,0.1,0,0.1,0l0,0.1
						c0,0-0.1,0-0.1,0l-0.4-0.2C440.4,532,440.4,532,440.4,531.9L440.4,531.9z"/>
					<path id="路径_17709" class="st0" d="M440.3,532.6l0.4-0.2c0,0,0,0,0,0l0,0.1c0,0,0,0,0,0L440.3,532.6L440.3,532.6z"/>
					<path id="路径_17710" class="st0" d="M439.7,532.3C439.7,532.3,439.7,532.3,439.7,532.3l0.4,0.3c0,0,0.1,0,0.1,0l0,0.1
						c0,0-0.1,0-0.1,0l-0.4-0.2C439.7,532.4,439.7,532.4,439.7,532.3L439.7,532.3z"/>
					<path id="路径_17711" class="st0" d="M436.7,534.5l3.2-1.7c0,0,0,0,0,0l0,0.1c0,0,0,0,0,0L436.7,534.5L436.7,534.5z"/>
					<path id="路径_17712" class="st0" d="M436.2,534.2C436.2,534.2,436.2,534.2,436.2,534.2l0.4,0.3c0,0,0.1,0,0.1,0l0,0.1
						c0,0-0.1,0-0.1,0l-0.4-0.2C436.2,534.3,436.2,534.3,436.2,534.2L436.2,534.2z"/>
					<path id="路径_17713" class="st0" d="M433.4,533.2l0.4-0.2c0,0,0,0,0,0l0,0.1c0,0,0,0,0,0L433.4,533.2L433.4,533.2z"/>
					<path id="路径_17714" class="st0" d="M432.8,532.9C432.8,532.9,432.8,533,432.8,532.9l0.4,0.3c0,0,0.1,0,0.1,0l0,0.1
						c0,0-0.1,0-0.1,0l-0.4-0.2C432.8,533,432.8,533,432.8,532.9L432.8,532.9z"/>
					<path id="路径_17715" class="st0" d="M432.6,533.6l0.4-0.2c0,0,0,0,0,0l0,0.1c0,0,0,0,0,0L432.6,533.6L432.6,533.6z"/>
					<path id="路径_17716" class="st0" d="M432.1,533.3C432.1,533.3,432.1,533.3,432.1,533.3l0.4,0.3c0,0,0.1,0,0.1,0l0,0.1
						c0,0-0.1,0-0.1,0l-0.4-0.2C432.1,533.4,432.1,533.4,432.1,533.3L432.1,533.3z"/>
					<path id="路径_17717" class="st0" d="M431.2,534.3l1.1-0.6c0,0,0,0,0,0l0,0.1c0,0,0,0,0,0L431.2,534.3L431.2,534.3z"/>
					<path id="路径_17718" class="st0" d="M430.7,534.1C430.7,534.1,430.7,534.1,430.7,534.1l0.4,0.3c0,0,0.1,0,0.1,0l0,0.1
						c0,0-0.1,0-0.1,0l-0.4-0.2C430.7,534.2,430.7,534.2,430.7,534.1L430.7,534.1z"/>
					<path id="路径_17719" class="st0" d="M434,533.6l0.4-0.2c0,0,0,0,0,0l0,0.1c0,0,0,0,0,0L434,533.6L434,533.6z"/>
					<path id="路径_17720" class="st0" d="M433.5,533.3C433.5,533.4,433.5,533.4,433.5,533.3l0.4,0.3c0,0,0.1,0,0.1,0l0,0.1
						c0,0-0.1,0-0.1,0l-0.4-0.2C433.5,533.5,433.5,533.4,433.5,533.3L433.5,533.3z"/>
					<path id="路径_17721" class="st0" d="M433.3,534l0.4-0.2c0,0,0,0,0,0l0,0.1c0,0,0,0,0,0L433.3,534L433.3,534z"/>
					<path id="路径_17722" class="st0" d="M432.8,533.7C432.8,533.7,432.8,533.8,432.8,533.7l0.4,0.3c0,0,0.1,0,0.1,0l0,0.1
						c0,0-0.1,0-0.1,0l-0.4-0.2C432.8,533.8,432.8,533.8,432.8,533.7L432.8,533.7z"/>
					<path id="路径_17723" class="st0" d="M432.6,534.4l0.4-0.2c0,0,0,0,0,0l0,0.1c0,0,0,0,0,0L432.6,534.4L432.6,534.4z"/>
					<path id="路径_17724" class="st0" d="M432.1,534.1C432.1,534.1,432.1,534.1,432.1,534.1l0.4,0.3c0,0,0.1,0,0.1,0l0,0.1
						c0,0-0.1,0-0.1,0l-0.4-0.2C432.1,534.2,432.1,534.2,432.1,534.1L432.1,534.1z"/>
					<path id="路径_17725" class="st0" d="M431.9,534.8l0.4-0.2c0,0,0,0,0,0l0,0.1c0,0,0,0,0,0L431.9,534.8L431.9,534.8z"/>
					<path id="路径_17726" class="st0" d="M431.4,534.5C431.4,534.5,431.4,534.5,431.4,534.5l0.4,0.3c0,0,0.1,0,0.1,0l0,0.1
						c0,0-0.1,0-0.1,0l-0.4-0.2C431.4,534.6,431.4,534.6,431.4,534.5L431.4,534.5z"/>
					<path id="路径_17727" class="st0" d="M434.7,534.1l0.4-0.2c0,0,0,0,0,0l0,0.1c0,0,0,0,0,0L434.7,534.1L434.7,534.1z"/>
					<path id="路径_17728" class="st0" d="M434.2,533.8C434.2,533.8,434.2,533.8,434.2,533.8l0.4,0.3c0,0,0.1,0,0.1,0l0,0.1
						c0,0-0.1,0-0.1,0l-0.4-0.2C434.2,533.9,434.2,533.9,434.2,533.8L434.2,533.8z"/>
					<path id="路径_17729" class="st0" d="M434,534.4l0.4-0.2c0,0,0,0,0,0l0,0.1c0,0,0,0,0,0L434,534.4L434,534.4z"/>
					<path id="路径_17730" class="st0" d="M433.5,534.2C433.5,534.2,433.5,534.2,433.5,534.2l0.4,0.3c0,0,0.1,0,0.1,0l0,0.1
						c0,0-0.1,0-0.1,0l-0.4-0.2C433.5,534.3,433.5,534.2,433.5,534.2L433.5,534.2z"/>
					<path id="路径_17731" class="st0" d="M432.6,535.2l1.1-0.6c0,0,0,0,0,0l0,0.1c0,0,0,0,0,0L432.6,535.2L432.6,535.2z"/>
					<path id="路径_17732" class="st0" d="M432,534.9C432,534.9,432.1,534.9,432,534.9l0.4,0.3c0,0,0.1,0,0.1,0l0,0.1
						c0,0-0.1,0-0.1,0l-0.4-0.2C432.1,535,432,535,432,534.9L432,534.9z"/>
					<path id="路径_17733" class="st0" d="M435.4,534.5l0.4-0.2c0,0,0,0,0,0l0,0.1c0,0,0,0,0,0L435.4,534.5L435.4,534.5z"/>
					<path id="路径_17734" class="st0" d="M434.8,534.2C434.8,534.2,434.8,534.2,434.8,534.2l0.4,0.3c0,0,0.1,0,0.1,0l0,0.1
						c0,0-0.1,0-0.1,0l-0.4-0.2C434.8,534.3,434.8,534.3,434.8,534.2L434.8,534.2z"/>
					<path id="路径_17735" class="st0" d="M434.7,534.8l0.4-0.2c0,0,0,0,0,0l0,0.1c0,0,0,0,0,0L434.7,534.8L434.7,534.8z"/>
					<path id="路径_17736" class="st0" d="M434.1,534.6C434.1,534.6,434.1,534.6,434.1,534.6l0.4,0.3c0,0,0.1,0,0.1,0l0,0.1
						c0,0-0.1,0-0.1,0l-0.4-0.2C434.1,534.7,434.1,534.7,434.1,534.6L434.1,534.6z"/>
					<path id="路径_17737" class="st0" d="M433.2,535.6l1.1-0.6c0,0,0,0,0,0l0,0.1c0,0,0,0,0,0L433.2,535.6L433.2,535.6z"/>
					<path id="路径_17738" class="st0" d="M432.7,535.3C432.7,535.3,432.7,535.4,432.7,535.3l0.4,0.3c0,0,0.1,0,0.1,0l0,0.1
						c0,0-0.1,0-0.1,0l-0.4-0.2C432.7,535.4,432.7,535.4,432.7,535.3L432.7,535.3z"/>
					<path id="路径_17739" class="st0" d="M436,534.9l0.4-0.2c0,0,0,0,0,0l0,0.1c0,0,0,0,0,0L436,534.9L436,534.9z"/>
					<path id="路径_17740" class="st0" d="M435.5,534.6C435.5,534.6,435.5,534.6,435.5,534.6l0.4,0.3c0,0,0.1,0,0.1,0l0,0.1
						c0,0-0.1,0-0.1,0l-0.4-0.2C435.5,534.7,435.5,534.7,435.5,534.6L435.5,534.6z"/>
					<path id="路径_17741" class="st0" d="M435.3,535.3l0.4-0.2c0,0,0,0,0,0l0,0.1c0,0,0,0,0,0L435.3,535.3L435.3,535.3z"/>
					<path id="路径_17742" class="st0" d="M434.8,535C434.8,535,434.8,535,434.8,535l0.4,0.3c0,0,0.1,0,0.1,0l0,0.1
						c0,0-0.1,0-0.1,0l-0.4-0.2C434.8,535.1,434.8,535.1,434.8,535L434.8,535z"/>
					<g id="组_6447" transform="translate(470.694 583.184)">
						<path id="路径_17743" class="st0" d="M-35.9-48.3C-35.9-48.3-35.9-48.2-35.9-48.3C-35.9-48.2-35.9-48.2-35.9-48.3l0.4,0.3
							c0,0,0.1,0,0.1,0l0.4-0.2c0,0,0,0,0-0.1c0,0,0,0,0,0l-0.4-0.2c0,0-0.1,0-0.1,0L-35.9-48.3z"/>
					</g>
					<path id="路径_17744" class="st0" d="M433.9,536l1.1-0.6c0,0,0,0,0,0l0,0.1c0,0,0,0,0,0L433.9,536L433.9,536z"/>
					<path id="路径_17745" class="st0" d="M433.3,535.7C433.3,535.7,433.3,535.8,433.3,535.7l0.4,0.3c0,0,0.1,0,0.1,0l0,0.1
						c0,0-0.1,0-0.1,0l-0.4-0.2C433.3,535.8,433.3,535.8,433.3,535.7L433.3,535.7z"/>
				</g>
				<g id="组_6466" transform="translate(932.404 -40.57)">
					<g id="组_6453" transform="translate(-868.367 45.336)">
						<g id="组_6451" transform="translate(0)">
							<path id="路径_17746" class="st0" d="M-41.7-5.7c-0.3,0-0.6,0-0.8,0.1c-0.3,0.1-0.5,0.2-0.8,0.3C-43.6-5.2-43.8-5-44-4.8
								c-0.2,0.2-0.4,0.4-0.5,0.7c-0.1,0.2-0.2,0.5-0.3,0.8c-0.1,0.3-0.1,0.6-0.1,0.8h0.4c0-0.2,0-0.5,0.1-0.7
								c0.1-0.2,0.2-0.5,0.3-0.7c0.1-0.2,0.3-0.4,0.5-0.6c0.2-0.2,0.4-0.3,0.6-0.5c0.2-0.1,0.4-0.2,0.7-0.3c0.2-0.1,0.5-0.1,0.7-0.1
								L-41.7-5.7L-41.7-5.7z"/>
							<path id="路径_17747" class="st0" d="M-42.5-5.3c-0.2,0.1-0.5,0.2-0.7,0.3c-0.2,0.1-0.4,0.3-0.6,0.5
								c-0.2,0.2-0.3,0.4-0.5,0.6c-0.1,0.2-0.2,0.4-0.3,0.7c-0.1,0.2-0.1,0.5-0.1,0.7l0,0c0,0.2,0,0.5,0.1,0.7
								c0.1,0.2,0.2,0.5,0.3,0.7c0.1,0.2,0.3,0.4,0.5,0.6l0.3-0.3c-0.2-0.2-0.3-0.3-0.4-0.5c-0.1-0.2-0.2-0.4-0.2-0.6
								c-0.1-0.2-0.1-0.4-0.1-0.6l0,0c0-0.2,0-0.4,0.1-0.6c0.1-0.2,0.1-0.4,0.2-0.6c0.1-0.2,0.2-0.4,0.4-0.5
								c0.2-0.2,0.3-0.3,0.5-0.4c0.2-0.1,0.4-0.2,0.6-0.2c0.2-0.1,0.4-0.1,0.6-0.1v-0.4C-42-5.4-42.2-5.3-42.5-5.3z"/>
							<path id="路径_17748" class="st0" d="M-43.8-3c0-0.2,0.1-0.3,0.2-0.5c0.1-0.2,0.2-0.3,0.3-0.4c0.1-0.1,0.3-0.2,0.4-0.3
								c0.2-0.1,0.3-0.2,0.5-0.2c0.2,0,0.4-0.1,0.5-0.1V-5c-0.2,0-0.4,0-0.6,0.1c-0.2,0.1-0.4,0.1-0.6,0.2c-0.2,0.1-0.4,0.2-0.5,0.4
								c-0.2,0.2-0.3,0.3-0.4,0.5c-0.1,0.2-0.2,0.4-0.2,0.6c-0.1,0.2-0.1,0.4-0.1,0.6l0,0c0,0.2,0,0.4,0.1,0.6
								c0.1,0.2,0.1,0.4,0.2,0.6c0.1,0.2,0.2,0.4,0.4,0.5c0.2,0.2,0.3,0.3,0.5,0.4c0.2,0.1,0.4,0.2,0.6,0.2c0.2,0.1,0.4,0.1,0.6,0.1
								v-0.4c-0.2,0-0.4,0-0.5-0.1c-0.2,0-0.3-0.1-0.5-0.2c-0.2-0.1-0.3-0.2-0.4-0.3c-0.1-0.1-0.2-0.3-0.3-0.4
								c-0.1-0.2-0.2-0.3-0.2-0.5c0-0.2-0.1-0.4-0.1-0.5l0,0C-43.8-2.7-43.8-2.9-43.8-3z"/>
							<path id="路径_17749" class="st0" d="M-40.2-1.6c-0.1,0.1-0.2,0.3-0.3,0.4c-0.1,0.1-0.2,0.2-0.4,0.3
								c-0.1,0.1-0.3,0.1-0.4,0.2c-0.1,0-0.3,0.1-0.4,0.1l0,0c-0.2,0-0.3,0-0.4-0.1c-0.1,0-0.3-0.1-0.4-0.2
								c-0.1-0.1-0.3-0.2-0.4-0.3c-0.1-0.1-0.2-0.2-0.3-0.4c-0.1-0.1-0.1-0.3-0.2-0.4c0-0.1-0.1-0.3-0.1-0.4l0,0
								c0-0.2,0-0.3,0.1-0.4c0-0.1,0.1-0.3,0.2-0.4c0.1-0.1,0.2-0.3,0.3-0.4c0.1-0.1,0.2-0.2,0.4-0.3c0.1-0.1,0.3-0.1,0.4-0.2
								c0.1,0,0.3-0.1,0.4-0.1v-0.4c-0.2,0-0.4,0-0.5,0.1c-0.2,0-0.3,0.1-0.5,0.2c-0.2,0.1-0.3,0.2-0.4,0.3
								c-0.1,0.1-0.2,0.3-0.3,0.4c-0.1,0.2-0.2,0.3-0.2,0.5c0,0.2-0.1,0.4-0.1,0.5l0,0c0,0.2,0,0.4,0.1,0.5c0,0.2,0.1,0.3,0.2,0.5
								c0.1,0.2,0.2,0.3,0.3,0.4c0.1,0.1,0.3,0.2,0.4,0.3c0.2,0.1,0.3,0.2,0.5,0.2c0.2,0,0.4,0.1,0.5,0.1l0,0c0.2,0,0.4,0,0.5-0.1
								c0.2,0,0.3-0.1,0.5-0.2c0.2-0.1,0.3-0.2,0.4-0.3c0.1-0.1,0.2-0.3,0.3-0.4L-40.2-1.6z"/>
							<path id="路径_17750" class="st0" d="M-40.4-2.5c0,0.1,0,0.2,0,0.3c0,0.1-0.1,0.2-0.1,0.3c-0.1,0.1-0.1,0.2-0.2,0.3
								c-0.1,0.1-0.2,0.2-0.3,0.2c-0.1,0.1-0.2,0.1-0.3,0.1c-0.1,0-0.2,0-0.3,0l0,0c-0.1,0-0.2,0-0.3,0c-0.1,0-0.2-0.1-0.3-0.1
								c-0.1-0.1-0.2-0.1-0.3-0.2c-0.1-0.1-0.2-0.2-0.2-0.3C-43-1.9-43-2-43-2.1c0-0.1,0-0.2,0-0.3l0,0c0-0.1,0-0.2,0-0.3
								c0-0.1,0.1-0.2,0.1-0.3c0.1-0.1,0.1-0.2,0.2-0.3c0.1-0.1,0.2-0.2,0.3-0.2c0.1-0.1,0.2-0.1,0.3-0.1c0.1,0,0.2,0,0.3,0v-0.4
								c-0.2,0-0.3,0-0.4,0.1c-0.1,0-0.3,0.1-0.4,0.2c-0.1,0.1-0.3,0.2-0.4,0.3c-0.1,0.1-0.2,0.2-0.3,0.4c-0.1,0.1-0.1,0.3-0.2,0.4
								c0,0.1-0.1,0.3-0.1,0.4l0,0c0,0.2,0,0.3,0.1,0.4c0,0.1,0.1,0.3,0.2,0.4c0.1,0.1,0.2,0.3,0.3,0.4c0.1,0.1,0.2,0.2,0.4,0.3
								c0.1,0.1,0.3,0.1,0.4,0.2c0.1,0,0.3,0.1,0.4,0.1l0,0c0.2,0,0.3,0,0.4-0.1c0.1,0,0.3-0.1,0.4-0.2c0.1-0.1,0.3-0.2,0.4-0.3
								c0.1-0.1,0.2-0.2,0.3-0.4c0.1-0.1,0.1-0.3,0.2-0.4c0-0.1,0.1-0.3,0.1-0.4L-40.4-2.5z"/>
							<path id="路径_17751" class="st3" d="M-40.1-2.5c0-0.1-0.1-0.2-0.1-0.3C-40.3-3-40.4-3-40.5-3.1c-0.1-0.1-0.2-0.2-0.3-0.2
								c-0.1-0.1-0.2-0.1-0.3-0.1c-0.1,0-0.2,0-0.3,0l0,0c-0.1,0-0.2,0-0.3,0c-0.1,0-0.2,0.1-0.3,0.1c-0.1,0.1-0.2,0.1-0.3,0.2
								C-42.5-3-42.5-3-42.6-2.8c-0.1,0.1-0.1,0.2-0.1,0.3c0,0.1,0,0.2,0,0.3l0,0c0,0.1,0,0.2,0,0.3c0,0.1,0.1,0.2,0.1,0.3
								c0.1,0.1,0.1,0.2,0.2,0.3c0.1,0.1,0.2,0.2,0.3,0.2c0.1,0.1,0.2,0.1,0.3,0.1c0.1,0,0.2,0,0.3,0l0,0c0.1,0,0.2,0,0.3,0
								c0.1,0,0.2-0.1,0.3-0.1c0.1-0.1,0.2-0.1,0.3-0.2c0.1-0.1,0.2-0.2,0.2-0.3c0.1-0.1,0.1-0.2,0.1-0.3c0-0.1,0-0.2,0-0.3l0,0
								C-40.1-2.3-40.1-2.4-40.1-2.5z"/>
							<path id="路径_17752" class="st0" d="M-40.4-2.8c0-0.1-0.1-0.2-0.1-0.3c-0.1-0.1-0.1-0.2-0.2-0.3c-0.1-0.1-0.2-0.2-0.3-0.2
								c-0.1-0.1-0.2-0.1-0.3-0.1c-0.1,0-0.2,0-0.3,0l0,0c-0.1,0-0.2,0-0.3,0c-0.1,0-0.2,0.1-0.3,0.1c-0.1,0.1-0.2,0.1-0.3,0.2
								c-0.1,0.1-0.2,0.2-0.2,0.3C-43-3.1-43-3-43-2.8c0,0.1,0,0.2,0,0.3l0,0c0,0.1,0,0.2,0,0.3c0,0.1,0.1,0.2,0.1,0.3
								c0.1,0.1,0.1,0.2,0.2,0.3c0.1,0.1,0.2,0.2,0.3,0.2c0.1,0.1,0.2,0.1,0.3,0.1c0.1,0,0.2,0,0.3,0l0,0c0.1,0,0.2,0,0.3,0
								c0.1,0,0.2-0.1,0.3-0.1c0.1-0.1,0.2-0.1,0.3-0.2c0.1-0.1,0.2-0.2,0.2-0.3c0.1-0.1,0.1-0.2,0.1-0.3c0-0.1,0-0.2,0-0.3l0,0
								C-40.4-2.6-40.4-2.7-40.4-2.8z"/>
							<path id="路径_17753" class="st0" d="M-40.7-2.8c0-0.1-0.1-0.2-0.1-0.2c0-0.1-0.1-0.2-0.2-0.2c-0.1-0.1-0.1-0.1-0.2-0.2
								c-0.1,0-0.2-0.1-0.2-0.1c-0.1,0-0.2,0-0.3,0l0,0c-0.1,0-0.2,0-0.3,0c-0.1,0-0.2,0.1-0.2,0.1c-0.1,0-0.2,0.1-0.2,0.2
								c-0.1,0.1-0.1,0.1-0.2,0.2c0,0.1-0.1,0.2-0.1,0.2c0,0.1,0,0.2,0,0.3l0,0c0,0.1,0,0.2,0,0.3c0,0.1,0.1,0.2,0.1,0.2
								c0,0.1,0.1,0.2,0.2,0.2c0.1,0.1,0.1,0.1,0.2,0.2c0.1,0,0.2,0.1,0.2,0.1c0.1,0,0.2,0,0.3,0l0,0c0.1,0,0.2,0,0.3,0
								c0.1,0,0.2-0.1,0.2-0.1c0.1,0,0.2-0.1,0.2-0.2c0.1-0.1,0.1-0.1,0.2-0.2c0-0.1,0.1-0.2,0.1-0.2c0-0.1,0-0.2,0-0.3l0,0
								C-40.7-2.6-40.7-2.7-40.7-2.8z"/>
							<g id="组_6450" transform="translate(11.833 0.337)">
								<g id="组_6449">
									<path id="路径_17754" class="st0" d="M-52.6-5.8l0.2-0.1L-52.6-6v0.1h-0.8v0L-52.6-5.8L-52.6-5.8z"/>
									<path id="路径_17755" class="st0" d="M-52.6-5.5h-0.8v0L-52.6-5.5v0.1l0.2-0.1L-52.6-5.5L-52.6-5.5z"/>
									<path id="路径_17756" class="st0" d="M-52.6-5.1h-0.8v0L-52.6-5.1V-5l0.2-0.1L-52.6-5.1L-52.6-5.1z"/>
									<path id="路径_17757" class="st0" d="M-52.6-4.7h-0.8v0L-52.6-4.7L-52.6-4.7l0.2,0L-52.6-4.7L-52.6-4.7z"/>
									<path id="路径_17758" class="st0" d="M-52.6-4.3h-0.8v0L-52.6-4.3v0.1l0.2-0.1L-52.6-4.3L-52.6-4.3z"/>
								</g>
							</g>
						</g>
						<g id="组_6452" transform="translate(10.252 11.936)">
							<path id="路径_17759" class="st0" d="M-51.9-14.1c-0.1,0-0.1,0-0.2,0c0,0-0.1,0.1-0.1,0.1c0,0,0,0.1,0,0.1c0,0,0,0.1,0,0.1
								l0,0h0.1l0,0c0,0,0-0.1,0-0.1c0,0,0-0.1,0-0.1C-51.8-14-51.9-14.1-51.9-14.1z M-52-14C-52-14-52-14-52-14
								C-52-14-52.1-14-52-14C-52.1-14-52.1-14-52-14C-52.1-14-52.1-14-52-14C-52.1-14-52.1-14-52-14C-52.1-14-52-14.1-52-14
								C-52-14.1-52-14.1-52-14C-52-14-52-14-52-14C-52-14-52-14-52-14L-52-14z"/>
							<path id="路径_17760" class="st0" d="M-51.9-13.7h-0.1c0,0,0,0,0,0s0,0,0,0L-51.9-13.7C-51.9-13.8-51.9-13.8-51.9-13.7
								C-51.9-13.7-51.9-13.7-51.9-13.7z"/>
							<rect id="矩形_25" x="-52" y="-13.7" class="st0" width="0.1" height="0"/>
							<path id="路径_17761" class="st0" d="M-52-14.2C-52-14.2-52-14.2-52-14.2L-52-14.2C-52-14.2-52-14.2-52-14.2
								C-52-14.2-52-14.2-52-14.2L-52-14.2C-52-14.2-52-14.2-52-14.2z"/>
							<path id="路径_17762" class="st0" d="M-52.1-14.1C-52.1-14.1-52.1-14.1-52.1-14.1L-52.1-14.1
								C-52.1-14.2-52.1-14.2-52.1-14.1C-52.1-14.2-52.1-14.2-52.1-14.1L-52.1-14.1C-52.1-14.2-52.1-14.1-52.1-14.1
								C-52.1-14.1-52.1-14.1-52.1-14.1C-52.1-14.1-52.1-14.1-52.1-14.1z"/>
							<path id="路径_17763" class="st0" d="M-52.2-14.1C-52.2-14.1-52.2-14.1-52.2-14.1L-52.2-14.1
								C-52.2-14.1-52.2-14.1-52.2-14.1C-52.2-14.1-52.2-14.1-52.2-14.1L-52.2-14.1C-52.2-14.1-52.2-14.1-52.2-14.1
								C-52.2-14.1-52.2-14.1-52.2-14.1z"/>
							<path id="路径_17764" class="st0" d="M-52.2-14L-52.2-14C-52.2-14-52.2-14-52.2-14C-52.2-14-52.2-14-52.2-14L-52.2-14
								C-52.2-14-52.2-14-52.2-14C-52.2-14-52.2-14-52.2-14z"/>
							<path id="路径_17765" class="st0" d="M-52.2-13.8C-52.2-13.8-52.2-13.8-52.2-13.8C-52.2-13.8-52.2-13.9-52.2-13.8
								L-52.2-13.8C-52.2-13.9-52.2-13.9-52.2-13.8C-52.2-13.9-52.2-13.9-52.2-13.8L-52.2-13.8C-52.2-13.8-52.2-13.8-52.2-13.8z"/>
							<path id="路径_17766" class="st0" d="M-51.8-13.8C-51.8-13.8-51.8-13.8-51.8-13.8L-51.8-13.8
								C-51.8-13.9-51.8-13.9-51.8-13.8C-51.8-13.9-51.8-13.9-51.8-13.8C-51.8-13.9-51.8-13.9-51.8-13.8L-51.8-13.8
								C-51.8-13.9-51.8-13.9-51.8-13.8C-51.8-13.8-51.8-13.8-51.8-13.8z"/>
							<path id="路径_17767" class="st0" d="M-51.7-14L-51.7-14C-51.8-14-51.8-14-51.7-14C-51.8-14-51.8-14-51.7-14L-51.7-14
								C-51.7-14-51.7-14-51.7-14C-51.7-14-51.7-14-51.7-14z"/>
							<path id="路径_17768" class="st0" d="M-51.8-14.1C-51.8-14.1-51.8-14.1-51.8-14.1C-51.8-14.1-51.8-14.1-51.8-14.1
								L-51.8-14.1C-51.8-14.1-51.8-14.1-51.8-14.1C-51.8-14.1-51.8-14.1-51.8-14.1L-51.8-14.1C-51.8-14.1-51.8-14.1-51.8-14.1z"/>
							<path id="路径_17769" class="st0" d="M-51.9-14.1C-51.9-14.1-51.9-14.1-51.9-14.1C-51.9-14.1-51.9-14.2-51.9-14.1
								L-51.9-14.1C-51.9-14.2-51.9-14.2-51.9-14.1C-51.9-14.2-51.9-14.2-51.9-14.1C-51.9-14.2-51.9-14.2-51.9-14.1L-51.9-14.1
								C-51.9-14.1-51.9-14.1-51.9-14.1z"/>
						</g>
					</g>
					<g id="组_6465" transform="translate(-849.329 45.336)">
						<g id="组_6459" transform="translate(0 3.938)">
							<rect id="矩形_26" x="-58.5" y="-7.3" class="st0" width="9.5" height="0.1"/>
							<g id="组_6454" transform="translate(0.148)">
								<path id="路径_17770" class="st0" d="M-56.4-8.5h-1.9c-0.2,0-0.3,0.1-0.3,0.3l0,0c0,0.2,0.1,0.3,0.3,0.3h0.6
									c0.1,0,0.1,0,0.1,0.1l0.1,0.2c0,0,0,0,0.1,0c0,0,0,0,0,0l0.1-0.2c0,0,0.1-0.1,0.1-0.1h0.7c0.2,0,0.3-0.1,0.3-0.3l0,0
									C-56.1-8.4-56.3-8.5-56.4-8.5z"/>
								<path id="路径_17771" class="st0" d="M-57.2-7.3c0-0.1-0.1-0.2-0.2-0.2c-0.1,0-0.2,0.1-0.2,0.2s0.1,0.2,0.2,0.2
									C-57.3-7.1-57.2-7.2-57.2-7.3z"/>
								<circle id="椭圆_352" class="st0" cx="-57.4" cy="-7.3" r="0.1"/>
							</g>
							<g id="组_6455" transform="translate(6.286 3.589)">
								<path id="路径_17772" class="st0" d="M-62.7-9.5h1.9c0.2,0,0.3-0.1,0.3-0.3l0,0c0-0.2-0.1-0.3-0.3-0.3h-0.6
									c-0.1,0-0.1,0-0.1-0.1l-0.1-0.2c0,0,0,0-0.1,0c0,0,0,0,0,0l-0.1,0.2c0,0-0.1,0.1-0.1,0.1h-0.7c-0.2,0-0.3,0.1-0.3,0.3l0,0
									C-63-9.6-62.9-9.5-62.7-9.5z"/>
								<path id="路径_17773" class="st0" d="M-61.6-10.9c0-0.1-0.1-0.2-0.2-0.2c-0.1,0-0.2,0.1-0.2,0.2c0,0.1,0.1,0.2,0.2,0.2
									C-61.7-10.7-61.6-10.8-61.6-10.9z"/>
								<circle id="椭圆_353" class="st0" cx="-61.8" cy="-10.9" r="0.1"/>
							</g>
							<g id="组_6456" transform="translate(12.011)">
								<path id="路径_17774" class="st0" d="M-64.9-8.5h-1.9c-0.2,0-0.3,0.1-0.3,0.3l0,0c0,0.2,0.1,0.3,0.3,0.3h0.6
									c0.1,0,0.1,0,0.1,0.1l0.1,0.2c0,0,0,0,0.1,0c0,0,0,0,0,0l0.1-0.2c0,0,0.1-0.1,0.1-0.1h0.7c0.2,0,0.3-0.1,0.3-0.3l0,0
									C-64.6-8.4-64.7-8.5-64.9-8.5z"/>
								<path id="路径_17775" class="st0" d="M-65.6-7.3c0-0.1-0.1-0.2-0.2-0.2c-0.1,0-0.2,0.1-0.2,0.2s0.1,0.2,0.2,0.2
									C-65.7-7.1-65.6-7.2-65.6-7.3z"/>
								<circle id="椭圆_354" class="st0" cx="-65.8" cy="-7.3" r="0.1"/>
							</g>
							<g id="组_6457" transform="translate(24.428)">
								<path id="路径_17776" class="st0" d="M-73.7-8.5h-1.9c-0.2,0-0.3,0.1-0.3,0.3l0,0l0,0c0,0.2,0.1,0.3,0.3,0.3l0,0h0.6
									c0.1,0,0.1,0,0.1,0.1l0.1,0.2c0,0,0,0,0.1,0c0,0,0,0,0,0l0.1-0.2c0,0,0.1-0.1,0.1-0.1h0.7c0.2,0,0.3-0.1,0.3-0.3l0,0l0,0
									C-73.4-8.4-73.6-8.5-73.7-8.5z"/>
								<path id="路径_17777" class="st0" d="M-74.5-7.3c0-0.1-0.1-0.2-0.2-0.2l0,0c-0.1,0-0.2,0.1-0.2,0.2v0
									c0,0.1,0.1,0.2,0.2,0.2l0,0C-74.6-7.1-74.5-7.2-74.5-7.3L-74.5-7.3z"/>
								<circle id="椭圆_355" class="st0" cx="-74.7" cy="-7.3" r="0.1"/>
							</g>
							<g id="组_6458" transform="translate(18.149 3.589)">
								<path id="路径_17778" class="st0" d="M-71.1-9.5h1.9c0.2,0,0.3-0.1,0.3-0.3l0,0l0,0c0-0.2-0.1-0.3-0.3-0.3l0,0h-0.6
									c-0.1,0-0.1,0-0.1-0.1l-0.1-0.2c0,0,0,0-0.1,0c0,0,0,0,0,0l-0.1,0.2c0,0-0.1,0.1-0.1,0.1h-0.7c-0.2,0-0.3,0.1-0.3,0.3l0,0
									l0,0C-71.4-9.6-71.3-9.5-71.1-9.5z"/>
								<path id="路径_17779" class="st0" d="M-70-10.9c0-0.1-0.1-0.2-0.2-0.2l0,0c-0.1,0-0.2,0.1-0.2,0.2v0
									c0,0.1,0.1,0.2,0.2,0.2l0,0C-70.1-10.7-70-10.8-70-10.9L-70-10.9z"/>
								<circle id="椭圆_356" class="st0" cx="-70.2" cy="-10.9" r="0.1"/>
							</g>
						</g>
						<g id="组_6460" transform="translate(1.631 0)">
						</g>
						<g id="组_6461" transform="translate(7.625 13.455)">
						</g>
						<g id="组_6462" transform="translate(13.499 0)">
						</g>
						<g id="组_6463" transform="translate(25.883 0)">
						</g>
						<g id="组_6464" transform="translate(19.493 13.455)">
						</g>
					</g>
				</g>
			</g>
			<g id="组_6290" transform="translate(74.751 88.196)">
				<path id="路径_17512" class="st0" d="M-39.6-58.8c0.2-3.3-2.5-6.1-6.1-6.3c-3.6-0.2-6.7,2.2-6.9,5.5c-0.2,3.3,2.5,6.1,6.1,6.3
					S-39.8-55.6-39.6-58.8z"/>
				<path id="路径_17513" class="st0" d="M-41.8-63.7c1.7,3.1,0.5,7.3-3.1,8.6c-2.5,0.7-4.7-0.7-7-2c-0.1,0-0.1,0-0.2,0
					c0.9,2.1,3.1,3.6,5.7,3.7c3.6,0.2,6.7-2.2,6.9-5.5C-39.5-60.7-40.3-62.5-41.8-63.7z"/>
			</g>
			<g id="组_6398" transform="translate(45.945 30.189)">
				<path id="路径_17514" class="st0" d="M-18.9-6.7h1.4v-1.4l-2.4-1.1c-0.9-0.4-1.9-0.4-2.7,0c-0.8,0.4-0.8,1.1,0,1.6l3.8,2.2
					L-18.9-6.7z"/>
				<path id="路径_17515" class="st0" d="M-16.2-4C-16.2-4-16.2-4-16.2-4c-0.5,0.4-1,0.6-1.5,0.8C-18.1-3-18.6-2.9-19.1-3
					c0,0,0,0,0,0c-0.1,0-0.2,0-0.3,0c0,0,0,0-0.1,0c-0.2,0-0.4-0.1-0.5-0.2l0,0c-0.2-0.1-0.3-0.1-0.5-0.2c-0.9-0.5-1.8-1-2.6-1.6
					l-0.1,0l-0.4-0.3c-0.2-0.1-0.3-0.2-0.4-0.3c-0.7-0.5-1.2-0.8-1.2-0.8c-0.5-0.3-0.7-0.6-0.6-1c0-0.2,0.1-0.3,0.3-0.4l0,0l0,0
					c0.1-0.1,0.2-0.1,0.2-0.2c0,0,0,0,0,0c0.1-0.1,0.2-0.1,0.3-0.1h0c0.8-0.2,1.7-0.2,2.4,0.2l2.4,1.1c0.2-0.8,0-1.3,0.4-1.3
					c0.5,0.1,1.9,0,2.7,0.1c0.1,0.3,0.2,0.6,0.3,1c0,0.7,0.1,1.4,0.2,2.1C-16.4-4.7-16.3-4.4-16.2-4z"/>
				<path id="路径_17516" class="st0" d="M-14.3-7.4c-0.1-0.2-0.7-1-0.7-1c-0.6,0-1.1,0.3-1.7,0.3c-0.1,0-0.2,0-0.3,0
					c0.1,0.3,0.2,0.6,0.3,1c0,1.1,0.2,2.2,0.5,3.2l0,0c0.8-0.1,1.4-0.5,1.7-1.2C-14.1-5.9-14-6.8-14.3-7.4z"/>
				<g id="组_6397" transform="translate(0 0)">
					<path id="路径_17517" class="st0" d="M-27.4,2.5c-0.2-0.1-0.3-0.3-0.4-0.5c-0.1-0.2-0.2-0.4-0.1-0.6c0.3-0.1,0.6-0.1,0.9-0.2
						c0.3,0,0.6,0,0.8,0c0.8,0,1.6-0.1,2.4-0.3c0.2,0.3,0.4,0.7,0.4,1c0,0.2,0,0.4,0,0.5c-0.1,0.1-0.5,0.3-1,0.3
						c-0.4,0-0.8-0.1-1.1,0C-26.1,3-26.8,2.8-27.4,2.5z"/>
					<path id="路径_17518" class="st0" d="M-27.8,2C-27.8,2-27.8,2-27.8,2C-28,1.7-28,1.4-27.7,1.2c0,0,0,0,0.1,0
						c0.2-0.1,0.4-0.1,0.6-0.1c0.3,0,0.6,0,0.8,0c0.8,0,1.6-0.1,2.4-0.3c0.2,0.3,0.4,0.7,0.4,1c0,0.2,0,0.4,0,0.5
						c-0.1,0.1-0.5,0.3-1,0.3c-0.4,0-0.8-0.1-1.1,0C-26.3,2.7-27.2,2.5-27.8,2z"/>
					<path id="路径_17519" class="st0" d="M-23.1-5.5l0,0.5l-0.1,6.4v0c0,0,0,0,0,0C-24,2-25,2.1-25.9,1.6
						c-0.1-0.1-0.2-0.2-0.3-0.3l0-0.1l0.2-7.6c0-0.4,0-0.7,0.2-1c0.1-0.1,0.2-0.3,0.3-0.4c0,0,0,0,0.1-0.1l0,0
						c0.1-0.1,0.2-0.1,0.2-0.2c0.1-0.1,0.2-0.1,0.4-0.2h0h0c0.5-0.1,1.1-0.1,1.6-0.1c0.3,0.1,0,0.4,0,1.1L-23.1-5.5L-23.1-5.5z"/>
					<g id="组_6396" transform="translate(1.641 0.011)">
						<path id="路径_17520" class="st0" d="M-23.4-15.5C-23.4-15.5-23.4-15.5-23.4-15.5c0.2,0,3.7-1.5,4.9-0.6
							c0.2,0.1,0.4-0.1,0.4-1.1c0,0-0.2-1.1-0.9-1.3c-1.4-0.4-4.5,1.2-4.5,1.2c-0.1,0.5,0,1.1,0,1.6C-23.4-15.6-23.4-15.5-23.4-15.5
							z"/>
						<path id="路径_17521" class="st0" d="M-30-17.1c-0.1-0.2,1.3-0.4,1.5-0.5c0.6,0,1.1,0.2,1.7,0.3c0.5,0.1,4.9-0.6,5.3-0.7
							c0,0-1.3,2-1.3,2c0,0-3.1-0.6-3.3-0.5c-0.3,0.1-0.6,0.1-0.9,0.3c-0.1-0.2-0.3-0.3-0.5-0.4c-0.2-0.1-0.4-0.2-0.6-0.2
							c-0.2-0.1-0.4-0.2-0.6-0.2c-0.2,0-0.5,0-0.7,0C-29.5-17-29.9-16.9-30-17.1C-30-17-30-17-30-17.1C-30-17.1-30-17.1-30-17.1z"/>
						<path id="路径_17582" class="st0" d="M-26.9-16.2c-0.2,0.1-0.4,0.1-0.6,0.2c-0.2-0.1-0.4-0.1-0.6-0.1c-0.2,0-0.4,0-0.6,0
							c-0.2-0.1-0.2-0.2,0-0.3c0.2-0.1,0.5,0,0.7-0.1c0.2-0.1,0.2-0.2,0-0.3c0.2,0,0.7-0.1,0.8,0.1C-27.1-16.6-27-16.4-26.9-16.2z"
							/>
						<path id="路径_17583" class="st0" d="M-23.1-18.2l0,0.1l0.2,1.1c0.1,0.1,0.2,0.2,0.3,0.2c0,0,0,0,0,0c0,0,0.1,0,0.1,0
							c0.8-0.2,1.7-0.6,1.6-1.2c0,0,0,0,0,0l-0.2-0.8l-0.1,0l-1.4,0.4L-23.1-18.2z"/>
						<g id="组_6394" transform="translate(27.662 18.634)">
							<path id="路径_17584" class="st0" d="M-49.2-23.9c0.7,0.1,1.4,0.1,2.1,0c0.8-0.1,1.6-0.4,2.2-0.9c0.5-0.4,0.9-0.8,1.2-1.3
								c-0.4-1.1-1.2-3-1.3-3.7c-0.4-1.8-0.6-4.9-0.9-5.9c-0.2-0.8-0.7-1.8-2.5-1.2l-2,0.9c-0.5,0.4-2.5,1.2-2.5,2.5
								c0,0,0.2,0.4,0.4,1.1c0.3,0.9,0.8,2.3,1.1,3.3c0.1,0.3,0.2,0.6,0.2,0.8c0.2,0.7,0.4,2.3,0.6,3.5
								C-50.3-24.3-49.8-24-49.2-23.9z"/>
						</g>
						<g id="组_6395" transform="translate(36.061 18.638)" class="st4">
							<path id="路径_17585" class="st0" d="M-53.4-29.8c-0.4-1.8-0.6-4.9-0.9-5.9c-0.2-0.8-0.7-1.8-2.5-1.2
								c0.2,0,0.4,0.2,0.6,0.3c1.6,2.1,1.7,4.7,1.9,7.2c0.1,1.2,1,2.4,0.6,3.6c-0.4,1.2-1.8,1.8-3.1,1.6c-0.7-0.1-1.4-0.3-2.1-0.4
								c0.3,0.4,0.8,0.6,1.3,0.7c0.7,0.1,1.4,0.1,2.1,0c0.8-0.1,1.6-0.4,2.2-0.9c0.5-0.4,0.9-0.8,1.2-1.3
								C-52.4-27.2-53.3-29.2-53.4-29.8z"/>
						</g>
						<path id="路径_17586" class="st0" d="M-24.1-18.9c0.2,0.3,0.5,0.6,0.9,0.7c0.1,0,0.3,0.1,0.4,0.1c0,0,0.1,0,0.1,0
							c0.1,0,0.3,0,0.4-0.1c0.2-0.1,1.1-0.1,1.1-0.4c0-0.1,0-0.1,0-0.2c0-0.6-0.6-1.5-0.7-2.1c-0.2-0.5-0.6-1-1.1-1.3
							c-0.4-0.3-0.9-0.4-1.3-0.5l-0.2,0.3l-0.2,0.3c0.1,0.5,0.2,1.1,0.2,1.6C-24.5-19.9-24.3-19.4-24.1-18.9z"/>
						<path id="路径_17587" class="st0" d="M-25.1-22.2c0.1,0.3,0.4,0.3,0.6,0.5c0.2,0.3,0.3,0.6,0.5,0.9c0.1,0.1,0.3,1.1,0.6,0.9
							c0.5-0.4,0.3,1.1,1.3,1.5c0.3,0,0.5,0,0.8-0.1c0.1,0,0.2-0.1,0.2-0.2c0,0,0,0,0,0c0.2-0.3,1-1.3,1.2-1.8
							c0.1-0.4,0.1-0.9,0-1.4c-0.1-0.4-0.3-0.8-0.6-1c-0.3-0.3-0.6-0.5-1-0.7c-0.7-0.2-1.5-0.2-2.2,0c-0.1,0-0.2,0.1-0.3,0.1
							c-0.2,0.1-0.3,0.1-0.5,0.2c-0.1,0-0.1,0.1-0.2,0.1c-0.6,0.5-0.6,0.8-0.6,0.9C-25.1-22.3-25.1-22.2-25.1-22.2z"/>
						<path id="路径_17588" class="st0" d="M-23.1-20.1c-0.1,0.2,0,0.5,0.2,0.6c0.2,0.1,0.5,0,0.6-0.2c0.1-0.2,0-0.4-0.1-0.5
							C-22.7-20.4-23-20.3-23.1-20.1z"/>
					</g>
					<path id="路径_17589" class="st1" d="M-18.5-21.8c0.2,0.9,0,1.8-0.5,2.6c-0.1,0.1-0.2,0.2-0.2,0.4c0,0,0,0,0,0.1
						c0.2-0.3,1-1.4,1.1-1.9c0.1-0.5,0.1-0.9-0.1-1.4c-0.1-0.4-0.4-0.7-0.7-1c-0.3-0.3-0.6-0.5-1-0.6c-0.7-0.2-1.5-0.1-2.2,0.1
						c0.6-0.1,1.1-0.1,1.7,0C-19.5-23.4-18.8-22.7-18.5-21.8z"/>
					<path id="路径_17590" class="st0" d="M-21.7-15.7c-0.1-0.2-0.3-0.3-0.4-0.4c-0.4-0.3-0.9-0.1-1.4,0.2l-3.4,2.8
						c0,0-0.7,0.9-0.6,1.2c0,0.1,0.1,0.2,0.1,0.3c0.2,0.2,0.4,0.2,0.7,0.2c0.1,0,0.1,0.1,0.2,0.1c1.1-0.5,4.5-2.2,4.5-2.2l0,0
						C-21.6-13.7-21.1-14.8-21.7-15.7z"/>
					<path id="路径_17591" class="st0" d="M-26-14l2.5-1.9c0.4-0.3,0.9-0.4,1.4-0.2c0.2,0.1,0.3,0.3,0.4,0.4
						c0.6,0.8,0.1,2-0.4,2.3l0,0l-2.8,1.6C-25.6-12.3-26-13.1-26-14z"/>
					<path id="路径_17592" class="st0" d="M-21.7-15.7c-0.1-0.2-0.3-0.3-0.4-0.4c-0.2-0.2-0.5-0.2-0.8-0.1c0.3,0,0.6,0.2,0.7,0.4
						c0.3,0.7,0.5,1.6,0,2.1c-0.9,0.7-2.1,1-2.8,1.9c0,0,0.1,0.1,0.1,0.1l2.8-1.6l0,0C-21.6-13.7-21.1-14.8-21.7-15.7z"/>
					<path id="路径_17593" class="st0" d="M-32.1-15c0-0.1,0.1-0.2,0.2-0.1c0.1,0.1,0.8,0.6,1.1,0.6c0.1,0,0.3,0.1,0.3-0.2
						c0-0.2,0-0.4-0.1-0.5c0-0.3,0.2-0.2,0.2-0.1c0,0.2,0.1,0.3,0.1,0.5c0.1,0.2,0,0.6,0.1,0.7c0,0,0.1,0.1,0.1,0.1
						c0.4,0.1,3.3,1,3.3,1c0.6,0.3,1.1,0.4,0.8,0.9c-0.3,0.6-0.6,1.2-1.3,1c-0.5-0.2-1.2-0.6-1.8-1.1c-0.3-0.1-0.5-0.3-0.8-0.5
						c-0.6-0.4-1.1-0.6-1.7-1c-0.2-0.1-0.3-0.2-0.5-0.3C-32-14.1-32.1-14.9-32.1-15z"/>
				</g>
				<path id="路径_17594" class="st0" d="M-16.4-5.5l0-0.2C-16.5-5.7-16.5-5.6-16.4-5.5z"/>
				<path id="路径_17595" class="st5" d="M-16.2-4C-16.2-4-16.2-4-16.2-4c-0.5,0.4-1,0.6-1.5,0.8C-18.1-3-18.6-2.9-19.1-3
					c0,0,0,0,0,0c-0.1,0-0.2,0-0.3,0c0,0,0,0-0.1,0c-0.2,0-0.4-0.1-0.5-0.2l0,0c-0.2-0.1-0.3-0.1-0.5-0.2c-0.9-0.5-1.8-1-2.6-1.6
					l-0.1,6.4c0,0,0,0,0,0C-24,2-25,2.1-25.9,1.6c0.5-0.5,1.4-0.3,1.9-0.8c0.2-0.3,0.3-0.6,0.3-1c0.1-1.6-0.2-3.2,0-4.8
					c0-0.1,0.1-0.3,0.1-0.4c0-0.1,0.1-0.2,0.2-0.2c0.1,0,0.2,0,0.3,0c0.1,0.1,0.3,0.1,0.4,0.3c0.6,0.5,1.3,1,2.1,1.3
					c0.5,0.3,1.1,0.4,1.7,0.5c0.6,0,1.4-0.1,1.9-0.5c0.3-0.3,0.5-0.7,0.5-1.1C-16.4-4.7-16.3-4.4-16.2-4z"/>
			</g>
		</g>
	</g>
</g>
</svg>
