<svg xmlns="http://www.w3.org/2000/svg" width="437.977" height="75.389" viewBox="0 0 437.977 75.389">
  <g id="index_logo" transform="translate(-105.324 -50.462)">
    <path id="路径_5808" data-name="路径 5808" d="M112.328,55.431a23.858,23.858,0,0,1-1.927,2.755v9.4h-2.142v-7.04c-.5.485-.99.936-1.476,1.332a20.963,20.963,0,0,0-1.459-1.854,17.547,17.547,0,0,0,4.951-5.384Zm-.666-3.835a24.155,24.155,0,0,1-4.952,4.735,12.445,12.445,0,0,0-1.188-1.746,16.022,16.022,0,0,0,4.069-3.835Zm10.587,7.166h-2.467v6.32c0,1.152-.216,1.746-1.008,2.07a9.912,9.912,0,0,1-3.511.361,8.86,8.86,0,0,0-.648-2.179c1.026.054,2.215.054,2.539.036.324,0,.45-.072.45-.342V58.762h-5.312V56.727h9.957Zm-.45-4.951h-8.751V51.776H121.8Z" fill="#231815"/>
    <path id="路径_5809" data-name="路径 5809" d="M139.277,56.007a20.717,20.717,0,0,1-2.089,6.932,8.7,8.7,0,0,0,3.367,2.773,7.992,7.992,0,0,0-1.458,1.836,9.706,9.706,0,0,1-3.223-2.736A11.432,11.432,0,0,1,132.2,67.6a8.3,8.3,0,0,0-1.207-1.891,9.109,9.109,0,0,0,3.673-2.791,20.087,20.087,0,0,1-1.476-3.961,8.512,8.512,0,0,1-.63.882,10.182,10.182,0,0,0-.991-.972v.162h-2.052v3.691l2.539-.54.18,1.963c-2.953.684-6.14,1.368-8.445,1.89l-.378-2.178.937-.163v-7.67h1.926v7.328l1.152-.216V53.864h-3.6V51.812h8.247v2.052h-2.557v3.151h2.052v.45A17.992,17.992,0,0,0,133.8,50.75l2.125.324c-.162,1.008-.4,2-.648,2.952h5.113v1.981Zm-4.735.234a21.157,21.157,0,0,0,1.368,4.537,17.432,17.432,0,0,0,1.206-4.771h-2.485Z" fill="#231815"/>
    <path id="路径_5810" data-name="路径 5810" d="M147.95,52.172c-.468,1.513-1.062,3.313-1.566,4.717a5.866,5.866,0,0,1,1.314,3.727,2.773,2.773,0,0,1-.81,2.377,2.2,2.2,0,0,1-1.027.4,5.916,5.916,0,0,1-1.152.036,4.337,4.337,0,0,0-.468-1.836,5.908,5.908,0,0,0,.774.018.774.774,0,0,0,.486-.144,1.386,1.386,0,0,0,.307-1.081,5.112,5.112,0,0,0-1.243-3.295c.36-1.08.72-2.538,1.008-3.727h-1.44V67.513H142.26V51.452h3.98l.306-.09ZM156.4,65.514c.27,0,.36-.306.4-2.143a5.318,5.318,0,0,0,1.746.793c-.162,2.466-.666,3.151-1.926,3.151h-1.243c-1.584,0-1.944-.613-1.944-2.4V61.247h-1.189c-.27,3.025-1.1,5.113-4.591,6.319a5.6,5.6,0,0,0-1.188-1.728c2.862-.882,3.511-2.341,3.727-4.591h-2.161V59.338h10.263v1.909h-2.827v3.691c0,.5.036.576.289.576ZM149.373,56.4h-1.4V52.856h4.178a13.371,13.371,0,0,0-.739-1.71l2.035-.577a11.53,11.53,0,0,1,1.026,2.287H158.2V56.4h-1.423v1.6h-7.4Zm.576-1.711v1.459h6.194V54.692Z" fill="#231815"/>
    <path id="路径_5811" data-name="路径 5811" d="M176.087,63.533c-.7.361-1.4.721-2.07,1.027a7.476,7.476,0,0,0,2.5,1.17,7.49,7.49,0,0,0-1.26,1.638,7.839,7.839,0,0,1-4.88-4.807,11.639,11.639,0,0,1-1.746,1.242v1.549l2.539-.486a9.173,9.173,0,0,0-.018,1.566c-3.331.72-3.925.883-4.268,1.1a5.293,5.293,0,0,0-.684-1.44,1.254,1.254,0,0,0,.72-1.224V64.7c-.5.216-.99.378-1.476.54a9.592,9.592,0,0,0-.828-1.045l.018.127c-1.657.486-3.421.936-4.88,1.332l-.36-1.945c.522-.107,1.1-.251,1.765-.414V58.87h-1.4V57.015h1.4V53.667H159.63V51.794h4.88v1.873h-1.477v3.348h1.315V58.87h-1.315v3.979l1.351-.36.162,1.224a16.285,16.285,0,0,0,3.691-1.458h-2.071V58.312h8.967v3.943h-3.007a5.067,5.067,0,0,0,.774,1.225,14.7,14.7,0,0,0,1.783-1.207Zm.054-5.851H165.122V55.989h11.019Zm-.576-2.269h-9.813V51.326h9.813Zm-6.95-2.647H167.48v1.207h1.135Zm-.558,8.012h5.059V59.77h-5.059Zm3.115-8.012H170.02v1.207h1.152Zm2.557,0H172.54v1.207h1.189Z" fill="#231815"/>
    <path id="路径_5812" data-name="路径 5812" d="M183.59,51.434a27.073,27.073,0,0,1-1.782,3.727V67.513h-2.035V58.258c-.414.522-.846,1.008-1.26,1.458a14.405,14.405,0,0,0-1.153-2.2,18.988,18.988,0,0,0,4.249-6.734Zm3.151,10.947a22.963,22.963,0,0,1-2.755,4.394,11.179,11.179,0,0,0-1.656-1.153,16.228,16.228,0,0,0,2.484-3.817Zm2.9-1.134v6.319h-2.161V61.247h-4.7V59.3h4.7V57.718H183.95V51.524H193.4v6.194H189.64V59.3H194.3v1.945Zm-3.655-5.42h5.275V53.414h-5.275Zm5.851,5.96a20.857,20.857,0,0,1,2.647,3.8l-1.692,1.026a23.984,23.984,0,0,0-2.539-3.943Z" fill="#231815"/>
    <path id="路径_5813" data-name="路径 5813" d="M206.757,60.4c-.486.271-.972.541-1.494.792h5.276v6.285H208.45v-.4h-6.878v.433h-1.981V63.371c-1.008.306-2.034.576-3.078.828a10.834,10.834,0,0,0-1.009-1.818A39.284,39.284,0,0,0,202.49,60.4h-6.5V58.726h6.428v-.882h-4.5V56.223h4.5V55.4h-5.474V51.344h14.225V55.4h-6.68v.828h3.673V57.3a14.542,14.542,0,0,0,1.729-1.548l1.692,1.026a17.949,17.949,0,0,1-2.233,1.945h2.7V60.4Zm-5.779-7.6h-2v1.117h2Zm.648,9.9-.054.018v.7h6.878v-.72Zm6.824,2.863v-.81h-6.878v.81Zm-5.51-11.649h2.035V52.8H202.94Zm1.549,4.807H206c.486-.288.973-.576,1.423-.882h-2.935Zm2.448-4.807h2.089V52.8h-2.089Z" fill="#231815"/>
    <path id="路径_5814" data-name="路径 5814" d="M230.2,64.7V66.81H213.882V64.7h6.951V58.438h-5.78V56.313h5.78V50.786h2.3v5.527h5.87v2.125h-5.87V64.7Z" fill="#231815"/>
    <path id="路径_5815" data-name="路径 5815" d="M236.6,62.993c-1.549.613-3.187,1.224-4.556,1.747l-.522-2q.837-.243,1.945-.594V56.925H231.81V54.909h1.657V51.02H235.2v3.889h1.387v2.016H235.2v4.646l1.063-.379Zm11.361.846a12.867,12.867,0,0,1-1.981,1.135,7.387,7.387,0,0,0,2.593.936,6.464,6.464,0,0,0-1.152,1.585,7.323,7.323,0,0,1-5.15-4.286,12.07,12.07,0,0,1-1.62,1.081v1.116l2.467-.414a10.919,10.919,0,0,0,.071,1.566c-3.168.613-3.727.793-4.086.99a5.127,5.127,0,0,0-.649-1.332,1.235,1.235,0,0,0,.63-1.152,20.6,20.6,0,0,1-2.791.99,8.163,8.163,0,0,0-1.026-1.4,18.1,18.1,0,0,0,4.952-1.765h-3.493V61.5h2.647v-.648H237.59V59.7h1.783v-.63H237.14v-1.35h2.233v-.685h-1.891v-2.9h4.573v2.9h-.864v.685h2.593v-.649H242.9V54.134h4.718v2.935h-1.981v.649h2.2v1.35h-2.2v.63h1.909v1.153h-1.909V61.5h2.791v1.386h-1.746Zm.4-10.209H236.546V52.01h4.915a8.865,8.865,0,0,0-.45-1.008l1.782-.54a9.941,9.941,0,0,1,.739,1.548h4.825Zm-9.38,2.4h1.494v-.882h-1.494Zm2.214,3.673h2.593v-.63h-2.593Zm0,1.8h2.593v-.648h-2.593Zm2.719,1.386a5.1,5.1,0,0,0,.864,1.153,11.87,11.87,0,0,0,1.783-1.153Zm.522-6.824h1.6v-.918h-1.6Z" fill="#231815"/>
    <path id="路径_5816" data-name="路径 5816" d="M265.6,57.124a14.287,14.287,0,0,1-3.529,6.626,13.56,13.56,0,0,0,4.411,1.836,10.363,10.363,0,0,0-1.494,2.035,13.554,13.554,0,0,1-4.7-2.341,17.066,17.066,0,0,1-5.348,2.521,7.943,7.943,0,0,0-1.243-2,14.385,14.385,0,0,0,4.916-2.125,16.694,16.694,0,0,1-2.917-5.095h-.27a13.65,13.65,0,0,1-4.393,8.714,9.021,9.021,0,0,0-1.549-1.854c3.565-3.043,3.925-7.581,3.925-10.5V53.576h-2.845V51.488h11.38c-.288,1.656-.666,3.565-1.009,5.059h2.7l.4-.09Zm-9.939-2.161c0,.5-.018,1.026-.036,1.584h2.9c.252-.9.5-1.944.738-2.971h-3.6Zm2.143,3.619a11.371,11.371,0,0,0,2.485,3.709,10.634,10.634,0,0,0,2.394-3.709Z" fill="#231815"/>
    <path id="路径_5817" data-name="路径 5817" d="M273.338,60.2l.486,1.909c-1.872.918-3.889,1.891-5.528,2.629l-.864-2.161c.666-.234,1.459-.522,2.341-.882V56.925h-1.945V54.891h1.945V50.983h1.98v3.908h1.675v2.034h-1.675v3.944Zm8.03,5.114c.973,0,1.153-.414,1.315-2.251a5.546,5.546,0,0,0,1.872.774c-.288,2.521-.9,3.386-3.007,3.386h-3.835c-2.431,0-3.133-.667-3.133-3.134V59.446l-.972.414-.792-1.89,1.764-.757V52.478h2.053v3.853l1.494-.63V50.732h2v4.105l1.962-.847,1.621.523-.072.324a59.592,59.592,0,0,1-.792,7.94l-1.747-.486c.2-1.458.342-3.745.414-5.87l-1.386.612v6.356h-2V57.9l-1.494.648v5.563c0,1.045.162,1.207,1.26,1.207Z" fill="#231815"/>
    <path id="路径_5818" data-name="路径 5818" d="M294.8,54.225v2.826l.36-.414a40.582,40.582,0,0,1,6.14,3.638l-1.585,1.962A35.52,35.52,0,0,0,294.8,58.96v8.553H292.49V54.225h-6.5V52.064h16.043v2.161Z" fill="#231815"/>
    <path id="路径_5819" data-name="路径 5819" d="M310.418,55.593c-.792,4.861-2.736,8.5-5.257,10.389a7.539,7.539,0,0,0-1.729-1.656,11.718,11.718,0,0,0,4.411-7.023H304.08v-2.16h4.538l.4-.072Zm8.949-.306c-1.332,1.332-2.9,2.827-4.178,3.853a12.735,12.735,0,0,0,5.474,4.754,9.615,9.615,0,0,0-1.6,2,14.319,14.319,0,0,1-5.852-6.23V64.83c0,1.242-.234,1.872-.954,2.268a7.262,7.262,0,0,1-3.241.487,9.35,9.35,0,0,0-.792-2.395c.99.036,1.944.036,2.286.036.306,0,.414-.108.414-.414V50.75h2.287v4.393a20.449,20.449,0,0,0,.99,2.322,28.657,28.657,0,0,0,3.187-3.565Z" fill="#231815"/>
    <path id="路径_5820" data-name="路径 5820" d="M325.015,59.428c-.72-.522-2.286-1.368-3.349-1.945l1.152-1.584c1.009.486,2.611,1.26,3.4,1.747Zm-2.719,6.5a55.655,55.655,0,0,0,3.4-5.69l1.567,1.441c-.954,1.89-2.089,3.943-3.151,5.689Zm3.529-11.379a37.019,37.019,0,0,0-3.348-2.017l1.206-1.567c1.008.523,2.61,1.333,3.385,1.819Zm5.564,3.205c-.144.738-.306,1.512-.468,2.232h6.392s-.036.6-.072.883c-.234,3.385-.54,4.9-1.171,5.527a2.818,2.818,0,0,1-2.124.775c-.774.054-2.125.036-3.493-.019a4.144,4.144,0,0,0-.847-2.034c1.441.126,3.007.144,3.656.144a1.554,1.554,0,0,0,.936-.18c.36-.288.594-1.243.774-3.061H328.22c.342-1.152.72-2.791,1.009-4.267h-2.323V55.719h11.451v2.035Zm5.8-4.069H328.04V51.65h9.147Z" fill="#231815"/>
    <path id="路径_5821" data-name="路径 5821" d="M346.274,63.191a11.349,11.349,0,0,1-5.4,4,11.358,11.358,0,0,0-1.495-1.891,10.911,10.911,0,0,0,5.2-2.755Zm-3.565-7.184a17.7,17.7,0,0,0-3.1-1.278l.865-1.4a20.407,20.407,0,0,1,3.132,1.135Zm-2.7,2.863a36.494,36.494,0,0,0,3.421-3.169l1.279,1.279c-1.009,1.134-2.125,2.268-3.133,3.276Zm11.307,3.673a37.609,37.609,0,0,1,5.1,3.061l-1.386,1.711a35.5,35.5,0,0,0-5.294-3.421l1.17-1.351h-1.818v5H346.9v-5h-6.878V60.671H346.9V59.122a10.224,10.224,0,0,1-1.368.828,8.32,8.32,0,0,0-1.494-1.6,5.4,5.4,0,0,0,3.546-3.8h-2.322V52.658h2.665c.054-.594.072-1.206.072-1.89l2.16-.036c-.017.684-.072,1.314-.126,1.926h3.385V57a1.25,1.25,0,0,0,.055.559.332.332,0,0,0,.233.072h.343a.685.685,0,0,0,.288-.055.811.811,0,0,0,.18-.449c.018-.27.036-.9.054-1.693a6.432,6.432,0,0,0,1.8.99,7.512,7.512,0,0,1-.27,2,1.423,1.423,0,0,1-.72.792,2.77,2.77,0,0,1-1.1.2H353.17a2.106,2.106,0,0,1-1.35-.45c-.342-.342-.487-.738-.487-1.945V54.549h-1.62a7.263,7.263,0,0,1-2.665,4.465h2.035v1.657H356v1.872ZM344.131,53.5a20.627,20.627,0,0,0-3.169-1.278l.793-1.387a21.069,21.069,0,0,1,3.187,1.117Z" fill="#231815"/>
    <path id="路径_5822" data-name="路径 5822" d="M372.953,54.3a8.842,8.842,0,0,1-1.476,2.936,8.917,8.917,0,0,0,3.006,1.386,7.063,7.063,0,0,0-1.17,1.657,9.178,9.178,0,0,1-3.115-1.747,10.561,10.561,0,0,1-3.187,1.71,7.033,7.033,0,0,0-1.188-1.53A8.582,8.582,0,0,0,368.9,57.25a12.819,12.819,0,0,1-1.062-1.567,6.878,6.878,0,0,1-.774.828,14.457,14.457,0,0,0-1.1-1.224v1.837h-1.711a12.142,12.142,0,0,1,1.675,1.116l-.883,1.188a11.134,11.134,0,0,0-1.926-1.4V59.86h-1.873V58.438A9.755,9.755,0,0,1,358.8,60.22a6.649,6.649,0,0,0-1.207-1.35,9.294,9.294,0,0,0,2.9-1.746h-2.107V53.7h2.863V53.09h-3.277V51.6h3.277v-.864h1.873V51.6h3.115V53.09h-3.115V53.7h2.845v1.063a8.806,8.806,0,0,0,2.232-4l1.909.45c-.144.468-.306.918-.468,1.368h4.5V54.3ZM367.011,65.37h7.2v1.764h-16.4V65.37h2.665V62.651h2.053V65.37H364.9V61.985h-6.013V60.256H373.1v1.729h-6.086v.9h4.645v1.567h-4.645Zm-6.968-9.489h1.206v-.918h-1.206Zm3.079-.918v.918h1.1v-.918Zm.486,2.161h-.486v.594Zm5.329-2.828a7.255,7.255,0,0,0,1.171,1.711,6.314,6.314,0,0,0,.846-1.711Z" fill="#231815"/>
    <path id="路径_5823" data-name="路径 5823" d="M379,59.41a27.578,27.578,0,0,0-3.367-1.945l1.153-1.6a28.813,28.813,0,0,1,3.421,1.765Zm-2.971,6.5a50.453,50.453,0,0,0,3.4-5.672L381,61.679c-.936,1.872-2.071,3.943-3.169,5.689Zm4.034-11.4a25.087,25.087,0,0,0-3.331-2l1.17-1.549a23.988,23.988,0,0,1,3.4,1.8ZM390.3,59.158c-.126-.324-.306-.666-.487-1.044-6.95.486-7.958.558-8.678.846-.126-.432-.451-1.44-.684-2,.4-.108.738-.487,1.206-1.117a24.259,24.259,0,0,0,2.773-5.132l2.214.631a32.352,32.352,0,0,1-3.024,5.131l5.059-.27a26.738,26.738,0,0,0-1.836-2.467l1.836-.918a25.441,25.441,0,0,1,3.583,5.24Zm-8.7.9h9.327v7.455h-2.179v-.685H383.7v.757h-2.089Zm2.089,1.981v2.827h5.059V62.039Z" fill="#231815"/>
    <path id="路径_5824" data-name="路径 5824" d="M407.08,60.959a10.59,10.59,0,0,0,3.511,2.088,7.373,7.373,0,0,0-1.422,1.657,12.107,12.107,0,0,1-2.827-1.891v1.333h-3.277v1.17h5.87V67.08h-13.7V65.316h5.654v-1.17H397.7V63.029a12.427,12.427,0,0,1-2.863,1.837,7.978,7.978,0,0,0-1.368-1.639,10.868,10.868,0,0,0,3.637-2.268H393.63V59.212h3.439V53.846h-2.485V52.118h2.485v-1.35h2.143v1.35h5.636v-1.35h2.2v1.35h2.467v1.728h-2.467v5.366h3.331v1.747Zm-1.134,1.494a11.176,11.176,0,0,1-1.3-1.494h-5.077a10.954,10.954,0,0,1-1.279,1.494h2.593V61.337h2.179v1.116Zm-6.734-8.607v.793h5.636v-.793Zm0,3.061h5.636v-.792h-5.636Zm0,2.305h5.636V58.4h-5.636Z" fill="#231815"/>
    <path id="路径_5825" data-name="路径 5825" d="M421.137,57.916v1.872h5.744v1.927h-2.845l1.8.648c-.63,1.008-1.332,2.089-1.89,2.863h3.871v1.963H412.242V65.226h3.548a15.023,15.023,0,0,0-1.495-2.917l1.422-.594h-2.611V59.788h5.727V57.916h-3.656v-.883q-1.134.542-2.323.973a7.769,7.769,0,0,0-1.422-1.981c3.385-.972,6.626-2.791,8.337-5.474l2.034.919c-.162.234-.324.468-.5.72a19.943,19.943,0,0,0,7.382,3.835A10.361,10.361,0,0,0,427.2,57.9a24.016,24.016,0,0,1-2.449-1.044v1.062Zm-5.024,3.8a12.266,12.266,0,0,1,1.567,2.863l-1.476.648h2.629V61.715Zm7.059-5.762a20.59,20.59,0,0,1-3.115-2.341,16,16,0,0,1-2.917,2.341Zm-2.035,5.762v3.511h2.251l-1.207-.5a16.54,16.54,0,0,0,1.585-3.007Z" fill="#231815"/>
    <path id="路径_5826" data-name="路径 5826" d="M446.285,53.468h-3.133a11.4,11.4,0,0,1,1.387,1.224l-1.189,1.063h2.395v3.133h-2.2v-1.53H432.439v1.53h-2.071V55.755h.649a12.694,12.694,0,0,0-1.387-1.386,10.357,10.357,0,0,0,2.629-3.782l1.89.541a6,6,0,0,1-.324.72h3.962v1.494a7.531,7.531,0,0,0,1.89-2.755l1.927.5a6.818,6.818,0,0,1-.324.756h4.987ZM434.96,55.755a12.87,12.87,0,0,0-1.639-1.674l.666-.6h-1.062a14.222,14.222,0,0,1-1.8,2.269Zm-.252,7.184h9.741v4.646h-2.143V67.1h-7.6v.487h-2.179V58.1h10.965v4.015h-8.786Zm0-3.295v.937h6.7v-.937Zm0,4.861v1.009h7.6V64.5Zm3.763-10.136a9.944,9.944,0,0,0-1.009-.757l.163-.126h-2.377a11.877,11.877,0,0,1,1.062,1.08l-1.3,1.189h2.052a8.894,8.894,0,0,0-.468-1.026Zm4.447,1.386a17.49,17.49,0,0,0-1.782-1.621l.774-.666h-1.6a7.46,7.46,0,0,1-1.261,1.405c-.126-.126-.306-.27-.5-.432a7,7,0,0,1,.684,1.314Z" fill="#231815"/>
    <path id="路径_5827" data-name="路径 5827" d="M453.824,63.965c-1.981.7-4.141,1.387-5.87,1.945l-.486-2.178c.63-.163,1.368-.361,2.2-.595V58.906h-1.819V56.943h1.819V53.775h-1.981v-2h5.942v2H451.7v3.168h1.621v1.963H451.7v3.6c.594-.18,1.189-.36,1.765-.558Zm10.7,1.1v1.944H452.942V65.064h4.969V63.353h-3.727V61.427h3.727V59.878h-3.6V51.506h9.4v8.372H460.09v1.549h3.817v1.926H460.09v1.711Zm-8.282-10.245h1.854V53.324h-1.854Zm0,3.241h1.854V56.511h-1.854Zm5.437-4.736h-1.782v1.495h1.782Zm0,3.187h-1.782V58.06h1.782Z" fill="#231815"/>
    <path id="路径_5828" data-name="路径 5828" d="M475.533,51.272c-.09.108-.18.234-.27.342a17.326,17.326,0,0,0,7.472,3.241,7.359,7.359,0,0,0-1.35,1.638c-.36-.09-.739-.216-1.116-.324v4.646H467.755V56.277c-.378.126-.756.252-1.116.342a11.576,11.576,0,0,0-1.153-1.656c3.313-.774,6.518-2.269,8.157-4.357Zm4.087,4.663a19.911,19.911,0,0,1-2.448-1.1v.468h-6.32v-.36a21.846,21.846,0,0,1-2.179.99Zm-10.857,5.474H479.35V67.5h-2.2v-.432H470.87v.485h-2.107Zm2.035-1.891a7.109,7.109,0,0,0-.612-1.872l1.386-.4h-2.035v2.268Zm.072,3.295v.72h6.284v-.72Zm6.284,2.845v-.72H470.87v.72Zm-4.088-8.408h-1.4a8.127,8.127,0,0,1,.72,1.908l-1.152.36h1.836Zm2.593-3.331a17.964,17.964,0,0,1-1.513-1.171c-.467.4-.99.792-1.53,1.171ZM474.8,57.25v2.268h1.674l-1.08-.306a14.085,14.085,0,0,0,.7-1.962Zm3.565,0h-1.873l1.4.341c-.36.721-.7,1.423-.991,1.927h1.459Z" fill="#231815"/>
    <path id="路径_5829" data-name="路径 5829" d="M148.411,89.153a24.021,24.021,0,0,1-4.018,7.986,24.269,24.269,0,0,0,8.182,3.773,19.246,19.246,0,0,0-3.185,4.508,24.969,24.969,0,0,1-8.476-4.753,28.7,28.7,0,0,1-8.672,4.654,19.14,19.14,0,0,0-3.234-4.164,23.349,23.349,0,0,0,8.378-3.969,34.456,34.456,0,0,1-2.89-4.263,18.726,18.726,0,0,1-2.107,2.254,39.356,39.356,0,0,0-2.989-3.332v5h-4.654a33.3,33.3,0,0,1,4.556,3.038l-2.4,3.234a30.336,30.336,0,0,0-5.242-3.822v5h-5.1v-3.871a26.556,26.556,0,0,1-6.664,4.851,17.972,17.972,0,0,0-3.282-3.675,25.3,25.3,0,0,0,7.888-4.753h-5.733V87.536h7.791V85.87h-8.917V81.8h8.917V79.451h5.1V81.8h8.476V85.87h-8.476v1.666H129.4v2.891a23.964,23.964,0,0,0,6.076-10.878l5.193,1.226c-.392,1.273-.833,2.5-1.274,3.723h12.249v4.655Zm-16.169,30.132h19.6v4.8H107.205v-4.8h7.251v-7.4h5.586v7.4h6.467v-9.211H110.145v-4.7H148.8v4.7h-16.56v2.45h12.641v4.262H132.242ZM113.28,93.464h3.283v-2.5H113.28Zm8.379-2.5v2.5h2.988v-2.5Zm1.322,5.88h-1.322v1.617Zm14.5-7.692a19.67,19.67,0,0,0,3.185,4.654,17.186,17.186,0,0,0,2.3-4.654Z" fill="#231815"/>
    <path id="路径_5830" data-name="路径 5830" d="M184.132,81.95c-.538.735-1.077,1.47-1.616,2.156a54.927,54.927,0,0,0,19.4,11.563,17.642,17.642,0,0,0-4.018,5.341c-2.351-1.127-4.752-2.3-7.055-3.626v3.185h-24.5v-2.4a66.321,66.321,0,0,1-6.565,3.577,23.744,23.744,0,0,0-4.263-5.341c9.015-3.577,18.275-9.5,23.42-17.149Zm-20.97,22.832h31.6v20.236h-6.223v-1.96h-19.4v2.156h-5.978Zm5.978,5.145v7.742h19.4v-7.742Zm18.324-14.7a61.768,61.768,0,0,1-8.525-7.006,60.97,60.97,0,0,1-8.085,7.006Z" fill="#231815"/>
    <path id="路径_5831" data-name="路径 5831" d="M223.382,117.619c-3.331,2.793-9.211,5.341-14.257,6.517a22.7,22.7,0,0,0-3.43-4.214c4.9-.686,10.583-2.352,13.572-4.165Zm25.968-8.28v4.8H230.34v11.171h-5.782V114.141H205.891v-4.8h18.667v-2.156H210.447V102.97h14.111v-2.205H208v-4.41h9.015a27.31,27.31,0,0,0-1.813-3.577l3.283-.734H205.989V87.487h6.663a44.776,44.776,0,0,0-3.135-6.076l5-1.665a31.8,31.8,0,0,1,3.724,6.859l-2.352.882h4.508V79.5h5.389v7.986h3.675V79.5h5.487v7.986h4.361l-1.764-.539a43.065,43.065,0,0,0,3.136-7.055l6.124,1.421c-1.371,2.253-2.7,4.458-3.919,6.173h6.32v4.557H236.268l4.606,1.175c-1.078,1.176-2.107,2.254-2.989,3.136h9.456v4.41h-17v2.205h14.7v4.213h-14.7v2.156ZM221.08,92.044a22.86,22.86,0,0,1,1.96,3.674l-2.646.637H233.77l-1.764-.539c.784-1.127,1.812-2.6,2.5-3.772Zm15.286,23.419c3.969,1.47,9.75,3.92,12.886,5.488l-4.115,3.185c-2.842-1.617-8.575-4.214-12.69-5.929Z" fill="#231815"/>
    <path id="路径_5832" data-name="路径 5832" d="M295.8,89.251a24.063,24.063,0,0,1-4.9,7.153,38.119,38.119,0,0,0,9.015,2.891,22.4,22.4,0,0,0-3.675,4.948,35.269,35.269,0,0,1-10-4.213,39.214,39.214,0,0,1-9.995,4.116,18.636,18.636,0,0,0-1.372-2.059,57.162,57.162,0,0,1-2.4,8.183l-3.919-1.813a63.918,63.918,0,0,0,1.567-6.761h-2.6v17.246c0,2.646-.392,4.214-2.107,5.1-1.666.931-3.871,1.029-6.908,1.029a19.445,19.445,0,0,0-1.666-5.537c1.813.049,3.772.049,4.409.049.588-.049.784-.147.784-.735V108.359a29.686,29.686,0,0,1-6.124,9.064,32.645,32.645,0,0,0-2.646-5.634,30.776,30.776,0,0,0,6.957-10.093h-6.124V96.6h11.22a71.13,71.13,0,0,0-9.456-4.753l3.674-3.723c1.176.441,2.548.98,3.871,1.567a30.486,30.486,0,0,0,3.087-3.086H254.744v-4.9h15.825l.882-.2,3.724,2.352a36.523,36.523,0,0,1-7.154,8.084A27.511,27.511,0,0,1,271.6,94.1l-2.4,2.5h2.351l.784-.245,3.528,1.176-.2,1.127a29.688,29.688,0,0,0,5.978-2.254,27.7,27.7,0,0,1-3.479-4.067,29.18,29.18,0,0,1-2.2,2.107,42.728,42.728,0,0,0-4.752-3.282A29.21,29.21,0,0,0,280.564,79.5L286,80.97a32.85,32.85,0,0,1-1.813,3.43h14.454v4.851Zm2.3,17.54s-.1,1.519-.2,2.205c-.784,8.476-1.666,12.249-3.087,13.817a5.383,5.383,0,0,1-3.576,1.715,37.44,37.44,0,0,1-5.488.1,12.647,12.647,0,0,0-1.568-5.39,41.5,41.5,0,0,0,4.214.245,2,2,0,0,0,1.568-.539c.686-.637,1.323-2.744,1.861-7.3H286.15c-1.666,5.83-5.144,10.583-12.886,13.621a16.481,16.481,0,0,0-3.381-4.508c5.88-2.156,8.722-5.292,10.241-9.113H274.2v-4.851h7.154a40.665,40.665,0,0,0,.489-4.36h5.831c-.147,1.469-.294,2.939-.49,4.36Zm-16.07-17.54a19.159,19.159,0,0,0,4.066,4.164,14.9,14.9,0,0,0,3.234-4.164Z" fill="#231815"/>
    <path id="路径_5833" data-name="路径 5833" d="M345.292,96.551a56.886,56.886,0,0,1-8.427,16.806c1.421,3.527,2.989,5.585,4.557,5.585,1.176,0,1.764-2.45,2.009-8.574a15.813,15.813,0,0,0,4.948,3.282c-.931,9.065-2.891,11.221-7.447,11.221-3.43,0-6.125-2.45-8.281-6.468a41.5,41.5,0,0,1-8.28,6.664,38.411,38.411,0,0,0-4.214-4.8,37.431,37.431,0,0,0,10-7.937,101.211,101.211,0,0,1-3.381-19.745H312.563v5.242h12.1s-.049,1.519-.049,2.205c-.147,10.289-.441,14.65-1.568,16.071a4.6,4.6,0,0,1-3.381,1.959,38.536,38.536,0,0,1-5.634.147,13.217,13.217,0,0,0-1.617-5.438c1.764.147,3.43.2,4.214.2a1.585,1.585,0,0,0,1.47-.588c.489-.686.686-3.038.833-9.211h-6.37c-.2,7.153-1.225,16.707-5.243,22.685a25.472,25.472,0,0,0-4.948-3.969c3.724-5.879,4.066-14.405,4.066-20.774V86.8h19.991c-.1-2.4-.2-4.8-.2-7.252h6.124c-.048,2.45,0,4.851.1,7.252h7.5a61.342,61.342,0,0,0-6.272-4.263l3.528-3.478a40.938,40.938,0,0,1,7.986,5.242l-2.351,2.5h5.1v5.782H332.8a115.7,115.7,0,0,0,1.96,13.424,49.57,49.57,0,0,0,4.7-10.877Z" fill="#231815"/>
    <path id="路径_5834" data-name="路径 5834" d="M381.945,110.466A48.028,48.028,0,0,0,397.82,118.7a23.552,23.552,0,0,0-3.92,4.949,49.152,49.152,0,0,1-16.217-10.436v12.053h-6.174V113.455a47.061,47.061,0,0,1-16.316,10.485,30.153,30.153,0,0,0-3.968-4.851,43.906,43.906,0,0,0,16.022-8.623h-14.5v-5.34h18.765v-2.892H357.5V81.754h34.395v20.48H377.683v2.892H396.4v5.34ZM363.621,89.741h7.888V86.605h-7.888Zm7.888,7.643V94.248h-7.888v3.136Zm13.964-10.779h-7.79v3.136h7.79Zm0,7.643h-7.79v3.136h7.79Z" fill="#231815"/>
    <path id="路径_5835" data-name="路径 5835" d="M427.271,82.244c0,9.26,1.323,27.144,19.353,37.776a31.372,31.372,0,0,0-4.7,5.1c-10.142-6.125-15.335-15.385-18.03-24.155-3.675,10.975-9.554,19.108-18.079,24.2a46.624,46.624,0,0,0-5.341-4.753c10.191-5.144,16.022-14.6,18.717-27.487l2.988.539c-.343-1.861-.539-3.626-.686-5.291H410.318V82.244Z" fill="#231815"/>
    <path id="路径_5836" data-name="路径 5836" d="M491.8,84.3v39.883h-6.418v-3.871H459.416v3.969h-6.124V84.3Zm-6.418,29.986V90.231H459.416v24.057Z" fill="#231815"/>
    <path id="路径_5837" data-name="路径 5837" d="M504.5,112.377a56.378,56.378,0,0,1-2.059,11.906,18.113,18.113,0,0,0-4.066-1.421c1.078-2.891,1.617-7.252,1.911-11.171Zm38.8,7.153c0,2.6-.441,3.92-1.96,4.753s-3.674.98-6.81.98a19.681,19.681,0,0,0-1.421-4.949c1.666.1,3.528.1,4.165.1.637-.049.832-.245.832-.882V86.605H522.331v38.707h-5.144v-17.3l-3.872,1.666c-.147-.588-.294-1.323-.538-2.058-9.6,1.568-11.22,2.058-12.3,2.5a31.305,31.305,0,0,0-1.617-4.655c1.225-.294,2.254-1.469,3.723-3.331.588-.736,1.765-2.254,3.136-4.361-3.772.441-4.85.735-5.536,1.078a48.837,48.837,0,0,0-1.617-4.655c.931-.245,1.715-1.175,2.646-2.646A59.767,59.767,0,0,0,506.8,79.6l4.655,1.959a75.343,75.343,0,0,1-6.419,11.955l3.43-.245c1.225-2.2,2.45-4.556,3.479-6.908l4.213,2.744a89.533,89.533,0,0,1-9.946,15.237l5.341-.734c-.392-1.176-.784-2.353-1.176-3.332l3.724-1.421a83.072,83.072,0,0,1,3.087,8.721V81.558H543.3ZM509.4,111.348a90.369,90.369,0,0,1,1.274,10.191l-4.067,1.078a101.5,101.5,0,0,0-1.029-10.289Zm4.9-1.421a65.346,65.346,0,0,1,2.793,9.162l-3.773,1.47a77.916,77.916,0,0,0-2.547-9.407Zm19.6,2.4a13.643,13.643,0,0,0,2.842-.294c.1,1.176.2,2.842.343,3.92a9.387,9.387,0,0,1-3.038.294h-4.116c-4.164,0-5-1.568-5-5.488v-2.891h-1.421v-4.361h4.949c-.344-1.028-.833-2.254-1.226-3.184l2.94-.931h-6.908V95.032h2.646a25.654,25.654,0,0,0-1.813-6.369l3.282-1.078a26.814,26.814,0,0,1,2.107,6.467l-2.841.98h4.311a58.88,58.88,0,0,0,1.715-7.349l3.92,1.029c-.686,2.106-1.372,4.459-1.96,6.32h2.5v4.361H531.4a20.823,20.823,0,0,1,1.47,3.381l-1.96.734h5.978v4.361h-7.35v2.94c0,1.078.147,1.519.931,1.519Z" fill="#231815"/>
  </g>
</svg>
