<?xml version="1.0" encoding="utf-8"?>
<!-- Generator: Adobe Illustrator 27.4.1, SVG Export Plug-In . SVG Version: 6.00 Build 0)  -->
<svg version="1.1" id="圖層_1" xmlns="http://www.w3.org/2000/svg" xmlns:xlink="http://www.w3.org/1999/xlink" x="0px" y="0px"
	 viewBox="0 0 67.1 67.1" style="enable-background:new 0 0 67.1 67.1;" xml:space="preserve">
<style type="text/css">
	.st0{clip-path:url(#SVGID_00000110433133084605407060000008661444052785870241_);}
	.st1{fill:#A58669;}
	.st2{fill:#91765D;}
	.st3{fill:#BF9B78;}
	.st4{fill:#D8B08A;}
	.st5{fill:#C4C4C4;}
	.st6{clip-path:url(#SVGID_00000067957318422188958340000005582850066774439830_);}
	.st7{fill:url(#SVGID_00000084502864024277759090000008507965707716937101_);}
	.st8{fill:#FFFFFF;}
	.st9{fill:url(#SVGID_00000101782266267539665430000000049265939606712985_);}
</style>
<g>
	<g>
		<defs>
			<circle id="SVGID_1_" cx="33.5" cy="33.5" r="30.5"/>
		</defs>
		<clipPath id="SVGID_00000145743935502787828220000006457371717414790789_">
			<use xlink:href="#SVGID_1_"  style="overflow:visible;"/>
		</clipPath>
		<g style="clip-path:url(#SVGID_00000145743935502787828220000006457371717414790789_);">
			<path class="st1" d="M-1.3,39.6c0,0,0-2.4-0.7-4.5c-0.8-2,0-2.9,0-2.9l1.4-1.5L-4,28.9c0,0-0.2-3.1-0.6-4.6s-1-5.1-1-6.7
				s0.3-2.7,0.3-2.7l0.9-1.5l-1-0.7c0,0-0.5-1.1-0.4-1.8s-1.3-5.2-1.3-5.2C-6,3.9-5.3,0.4-5.3,0.4L4.8,11c0,0,7.4,14.8,7.4,15.3
				S10.1,31.2,10,32c-0.1,0.8-5.3,5.4-5.7,5.6C3.8,37.9-1.3,39.6-1.3,39.6z"/>
			<polygon class="st2" points="-4,28.9 -2.1,23.6 7.9,25.6 6.1,28.4 -0.1,26.9 			"/>
			<polygon class="st3" points="89.1,18 87.2,23.3 54.6,55.6 56.6,50.2 			"/>
			<polygon class="st1" points="56.5,35 54.6,40.3 54.6,55.6 56.6,50.2 			"/>
			<path class="st4" d="M-5.3,0.4c0,0,1.4,4.6,1.3,5.2c0,0.7,0.5,1.8,0.5,1.8l1,0.7l-0.9,1.5c0,0-0.3,1.1-0.3,2.7s0.6,5.2,1,6.7
				s0.6,4.6,0.6,4.6l8,2.1l-6,1.3c0,0-0.8,0.8-0.1,2.9s0.7,4.5,0.7,4.5l10.1,32.3L61,66.5L89,18L77.9,8.1L67.8,7.3l8.1-0.9
				L56.2-10.8v13C56.2,2.1-3.6,0.5-5.3,0.4z"/>
			<polygon class="st3" points="75.9,6.4 75.6,8 67.8,7.3 			"/>
			<polygon class="st1" points="56.2,-10.8 54.3,-5.5 54.2,2.1 56.2,2.1 			"/>
			<polygon class="st2" points="-3.5,7.4 -5.4,12.7 -4.4,13.4 -3.4,9.6 -2.5,8.1 			"/>
			<ellipse class="st5" cx="8.3" cy="8.3" rx="4.1" ry="1.6"/>
			<ellipse class="st5" cx="66.3" cy="27.3" rx="6.4" ry="2.5"/>
			<ellipse class="st5" cx="40.8" cy="34.2" rx="4.6" ry="1.8"/>
			<g>
				<path class="st5" d="M30.5,16.1c13.5-0.6,46.7,1.8,57.8,2.7l0.4-0.4C78,17.5,44.2,15,30.5,15.6c-5.6,0.2-11,1-15.7,1.6
					C8.1,18.2,2,19-2.9,18.3c0,0.2,0.1,0.3,0.1,0.5c4.9,0.7,11-0.1,17.6-1C19.6,17.1,24.9,16.3,30.5,16.1z"/>
				<path class="st5" d="M14.6,11c-6,1.6-8.9,0.8-12.1-0.4c-1.7-0.6-4.1-0.3-6.1,0.3c0,0.1,0,0.3,0,0.5c2-0.6,4.4-1,6-0.3
					c3.3,1.3,6.3,2.1,12.4,0.5c4.7-1.2,52.5,1.7,70.2,2.9L84.4,14C66.2,12.6,19.4,9.7,14.6,11z"/>
				<path class="st5" d="M1.5,0.6c-0.3,0-0.6,0-0.9,0C-1.5,1.8-3.3,2.5-4.6,3c0,0.1,0.1,0.3,0.1,0.4C-2.9,2.9-1,2.1,1.5,0.6L1.5,0.6
					z"/>
				<path class="st5" d="M56.8,33.9c-2.6-1.1-5.3-2.3-9-2.8c-6.7-0.8-10.7-0.4-17.7,3.5H31c6.5-3.5,10.4-3.9,16.8-3.1
					c3.6,0.4,6.3,1.6,8.9,2.7c3.8,1.7,7.5,3.2,13.7,2.3l0.5-0.5C64.4,37.2,60.7,35.6,56.8,33.9z"/>
				<path class="st5" d="M24.4,4.8c-3.7-1-6.8-2.2-9.5-3.2c-0.6-0.2-1.2-0.4-1.7-0.7c-0.5,0-0.9,0-1.4,0c0.9,0.3,1.9,0.7,3,1.1
					c2.7,1,5.8,2.2,9.5,3.2c9.8,2.7,37.6,0.7,49.5-0.6l-0.4-0.4C61.3,5.5,34.1,7.4,24.4,4.8z"/>
				<path class="st5" d="M38.4,3.7c-4.5-0.6-8.1-1.4-10.9-2.4c-0.5,0-1,0-1.4,0c3,1.2,7,2.1,12.3,2.8c8.9,1.2,25.6-2,31.3-3.2
					l-0.4-0.4C63.3,1.8,47.1,4.9,38.4,3.7z"/>
				<path class="st5" d="M18.6,24.4c3.5-1,7.1-2.1,11.2-2.7c12.5-1.9,44.4-2.1,52.6,1c0.5,0.2,1,0.4,1.4,0.5l0.3-0.3
					c-0.5-0.2-1-0.4-1.6-0.6c-8.5-3.2-40-3-52.8-1c-4.1,0.6-7.8,1.7-11.2,2.7c-5.7,1.7-11.1,3.3-18.7,3.2c-0.1,0.1-0.1,0.2-0.2,0.4
					C7.5,27.7,13.1,26,18.6,24.4z"/>
				<path class="st5" d="M76.7,28c-0.5,0.2-1,0.5-1.5,0.8c-3.7,2-8.8,4.7-14.8,2.1c-2.4-1-3.9-2.2-5.3-3.1c-2.6-1.9-4.6-3.4-10.9-3
					c-7.2,0.5-31.8,6.2-43,9.7h1.4C14,31,37.3,25.6,44.2,25.2c6.1-0.4,8,1,10.6,2.9c1.4,1,2.9,2.1,5.4,3.2
					c6.2,2.7,11.4-0.1,15.2-2.1c0.5-0.3,1-0.5,1.5-0.8c0.7-0.4,1.5-0.5,2.2-0.5l0.5-0.5C78.7,27.4,77.7,27.5,76.7,28z"/>
				<path class="st5" d="M4.1,5.4c4.5-1.7,6.6-0.6,11.3,1.8l0.4,0.2C20.2,9.6,68.4,10,80,10l-0.5-0.4C67.1,9.4,20.1,9.1,15.9,7
					l-0.4-0.2C10.9,4.4,8.6,3.2,3.9,4.9C1.6,5.8-1.4,6.1-3.9,6.1c0,0.1,0.1,0.3,0.1,0.4C-1.3,6.5,1.7,6.3,4.1,5.4z"/>
				<path class="st5" d="M56.2-6.8v0.4c1.4-0.4,2.7-0.8,3.7-1.2l-0.4-0.3C58.6-7.5,57.5-7.1,56.2-6.8z"/>
				<path class="st5" d="M56.2-2.2v0.5c2.8-0.4,5.8-1,8.2-1.9L64.1-4C61.7-3.1,58.8-2.5,56.2-2.2z"/>
			</g>
		</g>
	</g>
	<g>
		<defs>
			<circle id="SVGID_00000026147694777412035480000008460021919367419298_" cx="33.5" cy="33.5" r="30.5"/>
		</defs>
		<clipPath id="SVGID_00000026149183041472717100000010223826097935372209_">
			<use xlink:href="#SVGID_00000026147694777412035480000008460021919367419298_"  style="overflow:visible;"/>
		</clipPath>
		<g style="clip-path:url(#SVGID_00000026149183041472717100000010223826097935372209_);">
			<path class="st1" d="M-1.3,72.6c0,0,0-2.4-0.7-4.5c-0.8-2.1,0-2.9,0-2.9l1.4-1.5L-4,61.9c0,0-0.2-3.1-0.6-4.6s-1-5.1-1-6.7
				c0-1.6,0.3-2.7,0.3-2.7l0.9-1.5l-1-0.7c0,0-0.5-1.1-0.4-1.8s-1.3-5.2-1.3-5.2c1.2-1.7,1.9-5.3,1.9-5.3L4.8,44
				c0,0,7.4,14.8,7.4,15.3S10.1,64.2,10,65c-0.1,0.8-5.3,5.4-5.7,5.6C3.8,70.8-1.3,72.6-1.3,72.6z"/>
			<polygon class="st2" points="-4,61.9 -2.1,56.6 7.9,58.6 6.1,61.3 -0.1,59.9 			"/>
			<polygon class="st3" points="89.1,50.9 87.2,56.2 54.6,88.6 56.6,83.2 			"/>
			<polygon class="st1" points="56.5,68 54.6,73.3 54.6,88.6 56.6,83.2 			"/>
			<path class="st3" d="M0.6,67.3c0.4,2.9-1.9,5.3-1.9,5.3l55.9,0.7l2.5-6.8L0.6,67.3z"/>
			<path class="st4" d="M6.4,66.4c0,0,1.4,4.6,1.3,5.2c-0.1,0.7,0.4,1.8,0.4,1.8l1,0.7l-0.9,1.5c0,0-0.3,1.1-0.3,2.7s0.6,5.2,1,6.7
				s0.6,4.6,0.6,4.6l8,2.1l-6,1.3c0,0-0.8,0.8-0.1,2.9s0.7,4.5,0.7,4.5l55.9,0.7v15.3L100.8,84l-11.2-9.8l-10.1-0.8l8.1-0.9L68,55.2
				v13C68,68.2,8.1,66.5,6.4,66.4z"/>
			<polygon class="st3" points="75.9,39.3 75.6,41 67.8,40.3 			"/>
			<polygon class="st2" points="-3.5,40.3 -5.4,45.6 -4.4,46.4 -3.4,42.5 -2.5,41.1 			"/>
			<ellipse class="st5" cx="8.3" cy="41.2" rx="4.1" ry="1.6"/>
			<ellipse class="st5" cx="66.3" cy="60.3" rx="6.4" ry="2.5"/>
			<g>
				<path class="st5" d="M30.5,49c13.5-0.6,46.7,1.8,57.8,2.7l0.4-0.4C78,50.5,44.2,48,30.5,48.6c-5.6,0.2-11,1-15.7,1.6
					c-6.7,0.9-12.7,1.7-17.7,1c0,0.2,0.1,0.3,0.1,0.5c4.9,0.7,11-0.1,17.6-1C19.6,50,24.9,49.3,30.5,49z"/>
				<path class="st5" d="M14.6,44c-6,1.6-8.9,0.8-12.1-0.4c-1.7-0.6-4.1-0.3-6.1,0.3c0,0.1,0,0.3,0,0.5c2-0.6,4.4-1,6-0.3
					c3.3,1.3,6.3,2.1,12.4,0.5c4.7-1.2,52.5,1.7,70.2,2.9L84.4,47C66.2,45.6,19.4,42.7,14.6,44z"/>
				<path class="st5" d="M59.8,80c-1.1-0.3-2.3-0.6-3.3-1v0.5c0.9,0.4,1.9,0.7,2.9,0.9L59.8,80z"/>
				<path class="st5" d="M1.5,33.5c-0.3,0-0.6,0-0.9,0c-2.1,1.2-3.9,1.9-5.2,2.4c0,0.1,0.1,0.3,0.1,0.4C-2.9,35.8-1,35,1.5,33.5
					C1.5,33.6,1.5,33.6,1.5,33.5z"/>
				<path class="st5" d="M56.8,66.9c-2.6-1.1-5.3-2.3-9-2.8c-6.7-0.8-10.7-0.4-17.7,3.5H31c6.5-3.5,10.4-3.9,16.8-3.1
					c3.6,0.4,6.3,1.6,8.9,2.7c3.8,1.7,7.5,3.2,13.7,2.3l0.5-0.5C64.4,70.1,60.7,68.5,56.8,66.9z"/>
				<path class="st5" d="M56.5,74.2v0.5c2.1,0.6,5,1.1,8,0.5l0.6-0.6C61.9,75.4,58.7,74.9,56.5,74.2z"/>
				<path class="st5" d="M24.4,37.8c-3.7-1-17-1.3-19.8-2.3c-0.6-0.2-1.2-0.4-1.7-0.7c-0.5,0-0.9,0-1.4,0c0.9,0.3,1.9,0.7,3,1.1
					c2.7,1,16.1,1.3,19.8,2.3c9.8,2.7,37,3.5,49.5-0.6l-0.4-0.4C59.8,41.2,34.1,40.4,24.4,37.8z"/>
				<path class="st5" d="M42.4,37.1c-4.5-0.6-8.1-1.4-10.9-2.4c-0.5,0-1,0-1.4,0c3,1.2,7,2.1,12.3,2.8c8.9,1.2,25.8-0.4,31.4-1.6
					l-0.4-0.4C67.4,36.8,51.1,38.3,42.4,37.1z"/>
				<path class="st5" d="M18.6,57.3c3.5-1,7.1-2.1,11.2-2.7c12.5-1.9,44.4-2.1,52.6,1c0.5,0.2,1,0.4,1.4,0.5l0.3-0.3
					c-0.5-0.2-1-0.4-1.6-0.6c-8.5-3.2-40-3-52.8-1c-4.1,0.6-7.8,1.7-11.2,2.7c-5.7,1.7-11.1,3.3-18.7,3.2c-0.1,0.1-0.1,0.2-0.2,0.4
					C7.5,60.6,13.1,59,18.6,57.3z"/>
				<path class="st5" d="M76.7,60.9c-0.5,0.2-1,0.5-1.5,0.8c-3.7,2-8.8,4.7-14.8,2.1c-2.4-1-3.9-2.2-5.3-3.1
					c-2.6-1.9-4.6-3.4-10.9-3c-7.2,0.5-28.1,6.1-39.3,9.6h1.4c11.4-3.5,31-8.8,37.9-9.2c6.1-0.4,8,1,10.6,2.9c1.4,1,2.9,2.1,5.4,3.2
					c6.2,2.7,11.4-0.1,15.2-2.1c0.5-0.3,1-0.5,1.5-0.8c0.7-0.4,1.5-0.5,2.2-0.5l0.5-0.5C78.7,60.3,77.7,60.5,76.7,60.9z"/>
				<path class="st5" d="M4.1,38.3c4.5-1.7,6.6-0.6,11.3,1.8l0.4,0.2c4.4,2.2,52.6,2.6,64.2,2.6l-0.5-0.4C67.2,42.4,20.1,42.1,16,40
					l-0.4-0.2C11,37.4,8.7,36.2,4,38c-2.4,0.8-5.4,1-7.9,1c0,0.1,0.1,0.3,0.1,0.4C-1.3,39.5,1.7,39.2,4.1,38.3z"/>
			</g>
		</g>
	</g>
</g>
<radialGradient id="SVGID_00000175316311486222934790000011942473427973651590_" cx="-1546.8251" cy="806.8408" r="30.5" gradientTransform="matrix(-1 0 0 1 -1513.025 -773.3408)" gradientUnits="userSpaceOnUse">
	<stop  offset="0.7849" style="stop-color:#262626;stop-opacity:0"/>
	<stop  offset="0.9355" style="stop-color:#262626;stop-opacity:0.5"/>
	<stop  offset="1" style="stop-color:#262626;stop-opacity:0.7"/>
</radialGradient>
<circle style="fill:url(#SVGID_00000175316311486222934790000011942473427973651590_);" cx="33.8" cy="33.5" r="30.5"/>
<polygon class="st8" points="28.4,50.8 49.9,34.5 28.4,18.2 "/>
<g>
	
		<linearGradient id="SVGID_00000068679311575932787690000006718649429613055104_" gradientUnits="userSpaceOnUse" x1="-1580.0205" y1="806.84" x2="-1513.02" y2="806.84" gradientTransform="matrix(-1 0 0 1 -1513.02 -773.34)">
		<stop  offset="6.000000e-02" style="stop-color:#FFFFFF;stop-opacity:0"/>
		<stop  offset="0.2" style="stop-color:#FFFFFF;stop-opacity:0.5"/>
		<stop  offset="0.52" style="stop-color:#FFFFFF"/>
		<stop  offset="0.83" style="stop-color:#FFFFFF;stop-opacity:0.5"/>
		<stop  offset="1" style="stop-color:#FFFFFF;stop-opacity:0"/>
	</linearGradient>
	<path style="fill:url(#SVGID_00000068679311575932787690000006718649429613055104_);" d="M33.5,0.5c18.2,0,33,14.8,33,33
		s-14.8,33-33,33s-33-14.8-33-33S15.3,0.5,33.5,0.5 M33.5,0C15,0,0,15,0,33.5S15,67,33.5,67S67,52,67,33.5C67.1,15,52,0,33.5,0
		L33.5,0z"/>
</g>
</svg>
