<?xml version="1.0" encoding="utf-8"?>
<!-- Generator: Adobe Illustrator 27.3.1, SVG Export Plug-In . SVG Version: 6.00 Build 0)  -->
<svg version="1.1" id="圖層_1" xmlns="http://www.w3.org/2000/svg" xmlns:xlink="http://www.w3.org/1999/xlink" x="0px" y="0px"
	 viewBox="0 0 36.2 41" style="enable-background:new 0 0 36.2 41;" xml:space="preserve">
<style type="text/css">
	.st0{fill:#E8912C;}
	.st1{fill:#DC841E;}
	.st2{fill:#C36E18;}
	.st3{fill:#CC7212;}
	.st4{fill:#D8790E;}
	.st5{fill:#AB6122;}
	.st6{fill:#925424;}
	.st7{fill:#235B71;}
	.st8{fill:#FFFDFA;}
	.st9{fill:#D1E6FD;}
	.st10{fill:#4C8094;}
	.st11{fill:#CBCBCB;}
	.st12{fill:#F8C9B0;}
	.st13{fill:#ECBEA3;}
	.st14{fill:#202325;}
	.st15{fill:#42484D;}
	.st16{fill:#2B3032;}
	.st17{fill:#1E426F;}
	.st18{fill:#146FB5;}
	.st19{fill:#F39C15;}
	.st20{fill:#E1740D;}
	.st21{fill:#E5E5E4;}
	.st22{fill:#257FC2;}
	.st23{fill:#F5B796;}
	.st24{fill:#430206;}
	.st25{fill:#340204;}
	.st26{fill:#550A0F;}
	.st27{fill:#691217;}
	.st28{fill:#F4B734;}
	.st29{fill:#C86917;}
	.st30{fill:url(#路径_16702_00000091733174380994059930000016568109262980407949_);}
	.st31{fill:#222222;}
	.st32{fill:#DFDFDF;}
	.st33{fill:#464546;}
	.st34{fill:url(#路径_16711_00000094591258454448306420000008997912095856322204_);}
	.st35{fill:url(#路径_16712_00000026136445087765507720000001286476206981470139_);}
	.st36{fill:#C2C1C1;}
	.st37{fill:url(#路径_16714_00000158732822702387404340000007585753571343626143_);}
	.st38{fill:url(#路径_16715_00000050657553722008889460000017960627979103351982_);}
	.st39{fill:#323333;}
	.st40{fill:url(#路径_16717_00000153702779666643060610000014212410319885961624_);}
	.st41{fill:url(#路径_16718_00000111164948245153593620000014195793285779235219_);}
	.st42{fill:url(#路径_16719_00000113327718490471953040000004644129306595306386_);}
	.st43{fill:#818282;}
	.st44{fill:#D8D8D8;}
	.st45{clip-path:url(#SVGID_00000075128119809988763560000002323645996158073987_);}
	.st46{clip-path:url(#SVGID_00000136385401936204414070000010783178733034866101_);}
	.st47{fill:url(#路径_16741_00000097482241239783091300000004315258408189466811_);}
	.st48{clip-path:url(#SVGID_00000078021750765268489600000000717107098277687450_);}
	.st49{opacity:0.5;fill:url(#路径_16742_00000018237164392754557190000008519972440057631113_);enable-background:new    ;}
	.st50{fill:url(#路径_16744_00000060028446681093278080000005732629209838943382_);}
	.st51{fill:url(#路径_16745_00000117661596187440652730000010782748847801477280_);}
	.st52{fill:#343959;}
	.st53{fill:#FAAD7D;}
	.st54{fill:#FFFFFF;}
	.st55{fill:#E9EEF4;}
	.st56{fill:#B0B0D1;}
	.st57{fill:#D3EC53;}
	.st58{fill:#FE784C;}
</style>
<g id="pc2-2" transform="translate(-163.296 -229.745)">
	<g id="组_5899" transform="translate(-651.648 4.587)">
		<g id="组_5871">
			<path id="路径_16656" class="st0" d="M840.4,257.8c-1.6,0.5-3.1,1.3-4.8,1.7c-1.5,0.3-3,0.5-4.5,0.4c-2.4,0-4.2,0-6.3-1.3
				c-0.7-0.4-1.5-0.8-2.3-1.1c-2.8-1.1-4.2-4.8-2.2-7.3c0.2-0.3,0.5-0.6,0.8-0.8c0.3-0.1,0.6-0.2,0.9-0.3c1.6-0.5,2.7-1.7,4.2-2.3
				c1.4-0.6,3-0.6,4.5-0.7c1.6-0.1,3.4-0.3,5-0.1c1.9,0.2,3.6,1.3,5.1,2.4c1,0.7,2,1.5,2.7,2.6C845.3,253.8,843.2,257.1,840.4,257.8
				z"/>
			<path id="路径_16657" class="st1" d="M831.5,259.7c-0.1,0-0.2,0-0.3,0l-0.3,0c-2.2,0-3.8,0-5.6-1.2c-0.7-0.4-1.4-0.8-2.2-1.1
				l-0.2-0.1c-1.2-0.5-2.1-1.6-2.5-2.9c-0.3-1.1-0.1-2.3,0.6-3.2c0.2-0.4,0.6-0.7,1.1-0.8c0.1,0,0.1,0,0.2-0.1
				c1-0.3,1.8-0.8,2.5-1.3c0.5-0.4,1.1-0.7,1.7-1c1.2-0.5,2.7-0.6,4.2-0.6c0.5,0,1-0.1,1.4-0.1c0.7,0,1.5-0.1,2.3-0.1
				c0.4,0,0.8,0,1.2,0.1c1.7,0.2,3.3,1.3,4.7,2.3c1,0.7,1.9,1.4,2.5,2.3c0.6,0.9,0.7,2,0.3,3c-0.5,1.3-1.6,2.3-2.9,2.7
				c-0.8,0.2-1.5,0.5-2.3,0.8c-0.8,0.4-1.6,0.6-2.5,0.9C834.2,259.6,832.8,259.7,831.5,259.7z"/>
			<path id="路径_16658" class="st2" d="M831.5,258.9c-0.1,0-0.2,0-0.3,0l-0.3,0c-2.1,0-3.6,0-5.1-1.1c-0.7-0.5-1.5-0.8-2.3-1.1
				l-0.2-0.1c-1-0.4-1.7-1.3-2-2.3c-0.3-0.8-0.1-1.8,0.5-2.5c0.1-0.1,0.2-0.3,0.4-0.4c0.1,0,0.2-0.1,0.3-0.1c0.1,0,0.2,0,0.2-0.1
				c1.1-0.3,2-0.9,2.7-1.4c0.5-0.4,1-0.7,1.6-0.9c1.1-0.4,2.5-0.5,4-0.6c0.5,0,1-0.1,1.5-0.1c0.7,0,1.5-0.1,2.2-0.1
				c0.4,0,0.8,0,1.1,0.1c1.5,0.2,3,1.2,4.3,2.1c0.9,0.7,1.7,1.3,2.3,2.1c0.4,0.7,0.5,1.5,0.2,2.2c-0.4,1-1.3,1.8-2.4,2.2
				c-0.8,0.2-1.6,0.5-2.4,0.9c-0.8,0.3-1.5,0.6-2.3,0.8C834,258.8,832.7,258.9,831.5,258.9z"/>
			<path id="路径_16659" class="st3" d="M821.3,254.6c0.1-0.2,0.2-0.5,0.4-0.6c0.1-0.1,0.2-0.3,0.4-0.4c0.1,0,0.2-0.1,0.3-0.1
				c0.1,0,0.2,0,0.2-0.1c1.1-0.3,2-0.9,2.7-1.4c0.5-0.4,1-0.7,1.6-0.9c1.1-0.4,2.5-0.5,4-0.6c0.5,0,1-0.1,1.5-0.1
				c0.7,0,1.5-0.1,2.2-0.1c0.4,0,0.8,0,1.1,0.1c1.5,0.2,3,1.2,4.3,2.1c0.9,0.7,1.7,1.3,2.3,2.1c0.1,0.1,0.1,0.2,0.1,0.3
				c0,0,0-0.1,0.1-0.1c0.3-0.7,0.2-1.6-0.2-2.2c-0.5-0.8-1.4-1.5-2.3-2.1c-1.3-0.9-2.8-1.9-4.3-2.1c-0.4,0-0.8-0.1-1.1-0.1
				c-0.7,0-1.5,0.1-2.2,0.1c-0.5,0-1,0.1-1.5,0.1c-1.4,0.1-2.9,0.1-4,0.6c-0.6,0.3-1.1,0.6-1.6,0.9c-0.8,0.5-1.6,1.1-2.7,1.4
				c-0.1,0-0.1,0-0.2,0.1c-0.1,0-0.2,0.1-0.3,0.1c-0.1,0.1-0.3,0.3-0.4,0.4c-0.6,0.7-0.7,1.6-0.5,2.5
				C821.2,254.4,821.3,254.5,821.3,254.6z"/>
			<path id="路径_16660" class="st4" d="M821.7,252.8c0.1-0.1,0.2-0.3,0.4-0.4c0.1,0,0.2-0.1,0.3-0.1c0.1,0,0.2,0,0.2-0.1
				c1.1-0.3,2-0.9,2.7-1.4c0.5-0.4,1-0.7,1.6-0.9c1.1-0.4,2.5-0.5,4-0.6c0.5,0,1-0.1,1.5-0.1c0.7,0,1.5-0.1,2.2-0.1
				c0.4,0,0.8,0,1.1,0.1c1.5,0.2,3,1.2,4.3,2.1c0.9,0.7,1.7,1.3,2.3,2.1c0.2,0.2,0.3,0.5,0.3,0.8c0.1-0.6,0-1.2-0.3-1.7
				c-0.5-0.8-1.4-1.5-2.3-2.1c-1.3-0.9-2.8-1.9-4.3-2.1c-0.4,0-0.8-0.1-1.1-0.1c-0.7,0-1.5,0.1-2.2,0.1c-0.5,0-1,0.1-1.5,0.1
				c-1.4,0.1-2.9,0.1-4,0.6c-0.6,0.3-1.1,0.6-1.6,0.9c-0.8,0.5-1.6,1.1-2.7,1.4c-0.1,0-0.1,0-0.2,0.1c-0.1,0-0.2,0.1-0.3,0.1
				c-0.1,0.1-0.3,0.3-0.4,0.4c-0.5,0.6-0.7,1.4-0.5,2.1C821.2,253.6,821.4,253.2,821.7,252.8z"/>
			<path id="路径_16661" class="st5" d="M831.5,258.9l-0.2,0c-1.4,0-2.2,0-3.1-0.6c-0.6-0.4-1.1-0.6-1.8-0.9l-0.2-0.1
				c-0.5-0.2-0.8-0.6-0.9-1.1c-0.1-0.3,0-0.7,0.2-1c0,0,0,0,0.1-0.1l0,0c0.1,0,0.1,0,0.2,0c0.8-0.3,1.5-0.6,2.1-1.1
				c0.3-0.2,0.6-0.4,0.9-0.6c0.6-0.3,1.6-0.3,2.5-0.3c0.3,0,0.7,0,1-0.1c0.5,0,1-0.1,1.5-0.1c0.2,0,0.5,0,0.7,0
				c0.9,0.1,1.8,0.7,2.6,1.3c0.6,0.4,1.1,0.8,1.4,1.2c0.2,0.3,0.2,0.6,0.1,0.9c-0.2,0.5-0.6,0.9-1.1,1c-0.6,0.2-1.2,0.4-1.7,0.6
				c-0.5,0.2-1,0.4-1.5,0.5c-0.8,0.2-1.7,0.3-2.5,0.3C831.6,258.9,831.6,258.9,831.5,258.9z"/>
			<path id="路径_16662" class="st6" d="M831.7,258.6l-0.1,0c-0.9,0-1.3,0-1.9-0.4c-0.3-0.2-0.7-0.4-1-0.5l-0.1,0
				c-0.3-0.1-0.5-0.4-0.5-0.6c-0.1-0.2,0-0.4,0.1-0.6c0,0,0,0,0,0l0,0c0,0,0.1,0,0.1,0c0.4-0.2,0.9-0.4,1.3-0.7
				c0.2-0.1,0.4-0.2,0.6-0.3c0.5-0.1,1-0.2,1.5-0.2c0.2,0,0.4,0,0.6,0c0.3,0,0.6,0,0.9,0c0.1,0,0.3,0,0.4,0c0.5,0.1,1.1,0.4,1.5,0.8
				c0.3,0.2,0.6,0.4,0.8,0.7c0.1,0.2,0.1,0.3,0,0.5c-0.1,0.3-0.4,0.5-0.7,0.6c-0.3,0.1-0.7,0.2-1,0.4c-0.3,0.1-0.6,0.2-0.9,0.3
				C832.8,258.5,832.3,258.6,831.7,258.6C831.8,258.6,831.8,258.6,831.7,258.6z"/>
			<g id="组_5931" transform="translate(13.386 295.671) rotate(-11)">
				<path id="矩形_7" class="st7" d="M812.1,90.4l-0.8,16.2l-12.9,5.1l0.7-17.3L812.1,90.4z"/>
				<path id="矩形_8" class="st8" d="M799.9,95l11.4-3.5l-0.7,14.7l-11.3,4.4L799.9,95z"/>
				<g id="组_5926" transform="translate(813.081 119.249)">
					<g id="组_5918" transform="translate(4.086)">
						<path id="路径_16763" class="st9" d="M-14-22.3c-0.1,0-0.2,0-0.2-0.1c0,0,0-0.1,0-0.1c0-0.1,0.1-0.3,0.3-0.3
							c0.1,0,0.2,0,0.2,0.1c0,0,0,0,0,0.1C-13.8-22.5-13.9-22.4-14-22.3z M-14-22.8c-0.1,0.1-0.2,0.2-0.2,0.3c0,0.1,0.1,0.1,0.2,0.1
							c0.1,0,0.2-0.1,0.2-0.3C-13.8-22.8-13.9-22.8-14-22.8L-14-22.8z"/>
					</g>
					<path id="矩形_9" class="st9" d="M-9.9-22.4L-9.9-22.4C-9.9-22.5-9.9-22.4-9.9-22.4C-9.9-22.4-9.9-22.4-9.9-22.4l0.1,0.2
						c0,0,0,0.1-0.1,0.1l0,0c0,0,0,0-0.1,0c0,0,0,0,0,0L-9.9-22.4C-10-22.4-10-22.4-9.9-22.4z"/>
					<path id="路径_16764" class="st9" d="M-9.9-22.3c-0.6,0.2-1.1,0.8-1.2,1.5c0,0.6,0.5,1,1.1,0.7c0.6-0.2,1.1-0.8,1.2-1.5
						C-8.8-22.1-9.3-22.5-9.9-22.3L-9.9-22.3z M-9.9-20.2C-10-20.2-10-20.2-9.9-20.2c-0.1,0-0.1,0-0.2,0.1c-0.5,0.1-0.8-0.1-0.8-0.6
						c0,0,0-0.1,0-0.1c0,0,0-0.1,0-0.1c0.1-0.5,0.4-0.9,0.9-1.1c0,0,0.1,0,0.1,0s0.1,0,0.1,0c0.3-0.1,0.7,0,0.8,0.4
						c0,0.1,0,0.1,0,0.2c0,0,0,0.1,0,0.1c0,0,0,0.1,0,0.1C-9.2-20.9-9.5-20.5-9.9-20.2L-9.9-20.2z"/>
					<path id="路径_16765" class="st9" d="M-10-21.7l0,0.5l0,0L-10-21.7C-10-21.7-10-21.7-10-21.7C-10-21.7-10-21.7-10-21.7
						L-10-21.7L-10-21.7z"/>
					<path id="路径_16766" class="st9" d="M-10-21L-10-21l0,0.5c0,0,0,0,0,0c0,0,0,0,0,0c0,0,0,0,0,0L-10-21L-10-21z"/>
					<path id="路径_16767" class="st9" d="M-10.1-21.1C-10.1-21.1-10.1-21.1-10.1-21.1L-10.1-21.1l-0.5,0.2c0,0,0,0,0,0
						c0,0,0,0,0,0L-10.1-21.1z"/>
					<path id="路径_16768" class="st9" d="M-9.4-21.3C-9.4-21.3-9.4-21.3-9.4-21.3L-9.4-21.3l-0.5,0.2c0,0,0,0,0,0v0L-9.4-21.3
						C-9.4-21.4-9.4-21.4-9.4-21.3L-9.4-21.3z"/>
					<path id="路径_16769" class="st9" d="M-10.1-21.3L-10.1-21.3C-10.1-21.2-10.1-21.2-10.1-21.3l-0.3-0.2c0,0,0,0,0,0
						c0,0,0,0,0,0l0,0L-10.1-21.3z"/>
					<path id="路径_16770" class="st9" d="M-9.6-20.9C-9.6-20.9-9.6-20.9-9.6-20.9L-9.6-20.9L-9.8-21l-0.1,0c0,0,0,0,0,0
						L-9.6-20.9C-9.6-20.9-9.6-20.9-9.6-20.9z"/>
					<g id="组_5919" transform="translate(2.296 3.417)">
						<path id="路径_16771" class="st9" d="M-11.7-25.4l-0.3,0.8l0,0l-0.1,0.2l-0.1,0c0,0,0-0.1,0-0.1v0v0c0,0,0-0.1-0.1-0.1
							c0,0,0,0,0,0l0,0l0,0c0,0-0.1,0-0.1,0.1c0,0,0,0,0,0l0,0l-0.1,0l0,0l0,0l0.1-0.2l0,0L-11.7-25.4z"/>
						<path id="路径_16772" class="st9" d="M-12.1-24.5L-12.1-24.5L-12.1-24.5l-0.2,0.2l0,0l-0.6,0.6l0.3-0.8l0,0l0.1-0.2l0.1,0
							c0,0,0,0.1,0,0.1c0,0,0,0,0,0v0c0,0,0,0.1,0.1,0.1c0,0,0,0,0,0l0,0C-12.2-24.5-12.2-24.5-12.1-24.5
							C-12.2-24.5-12.2-24.5-12.1-24.5L-12.1-24.5L-12.1-24.5z"/>
					</g>
					<g id="组_5920" transform="translate(4.191 2.969)">
						<path id="路径_16773" class="st9" d="M-14.1-25.1l-0.1,0.2l-0.1-0.1C-14.2-25-14.2-25-14.1-25.1
							C-14.1-25.1-14.1-25.1-14.1-25.1z"/>
						<path id="路径_16774" class="st9" d="M-14.1-23.2C-14.2-23.2-14.2-23.2-14.1-23.2c-0.1,0-0.1,0-0.2,0.1l0.1-0.2L-14.1-23.2z
							"/>
					</g>
					<g id="组_5921" transform="translate(0.799 5.333)">
						<path id="路径_16775" class="st9" d="M-9.9-26.8C-9.9-26.8-9.9-26.7-9.9-26.8l-0.2,0.1L-9.9-26.8
							C-9.9-26.8-9.9-26.8-9.9-26.8z"/>
						<path id="路径_16776" class="st9" d="M-11.6-26.2l-0.2,0.1c0,0,0-0.1,0-0.1c0,0,0-0.1,0-0.1L-11.6-26.2z"/>
					</g>
					<g id="组_5922" transform="translate(4.694 2.356)">
						<path id="路径_16777" class="st9" d="M-14.7-24.6L-14.7-24.6L-14.7-24.6L-14.7-24.6L-14.7-24.6l0.1,0l0,0.1L-14.7-24.6
							L-14.7-24.6L-14.7-24.6l0,0.1l0,0L-14.7-24.6z"/>
					</g>
					<g id="组_5923" transform="translate(8.746 5.285)">
						<path id="路径_16778" class="st9" d="M-17.6-26.8L-17.6-26.8L-17.6-26.8L-17.6-26.8L-17.6-26.8L-17.6-26.8L-17.6-26.8
							L-17.6-26.8L-17.6-26.8l-0.1,0.1l0,0l0-0.1L-17.6-26.8z"/>
					</g>
					<g id="组_5924" transform="translate(0.168 8.099)">
						<path id="路径_16779" class="st9" d="M-11.2-28.8L-11.2-28.8L-11.2-28.8L-11.2-28.8L-11.2-28.8L-11.2-28.8l0.1-0.1l0,0
							l-0.1,0l0,0l0.1,0v0L-11.2-28.8l0.1-0.1v0L-11.2-28.8z"/>
					</g>
					<g id="组_5925" transform="translate(4.337 10.952)">
						<path id="路径_16780" class="st9" d="M-14.3-31.1C-14.3-31.1-14.4-31.1-14.3-31.1C-14.4-31.1-14.4-31.1-14.3-31.1
							L-14.3-31.1C-14.4-31.1-14.4-31.1-14.3-31.1C-14.4-31.1-14.4-31.1-14.3-31.1C-14.4-31.1-14.4-31.1-14.3-31.1
							C-14.4-31.1-14.4-31.1-14.3-31.1L-14.3-31.1C-14.4-31.1-14.3-31.1-14.3-31.1C-14.3-31.1-14.3-31.1-14.3-31.1
							C-14.3-31.1-14.3-31.1-14.3-31.1C-14.3-31.1-14.3-31.1-14.3-31.1C-14.3-31-14.3-31-14.3-31.1C-14.3-31-14.4-31-14.3-31.1
							C-14.4-31-14.4-31-14.3-31.1c0,0.1,0,0.1-0.1,0.1C-14.4-31-14.4-31-14.3-31.1L-14.3-31.1C-14.4-31-14.4-31-14.3-31.1
							C-14.4-31-14.4-31-14.3-31.1L-14.3-31.1C-14.4-31-14.4-31-14.3-31.1C-14.4-31-14.4-31-14.3-31.1C-14.4-31-14.4-31-14.3-31.1
							C-14.4-31.1-14.4-31.1-14.3-31.1C-14.4-31.1-14.4-31.1-14.3-31.1L-14.3-31.1C-14.4-31.1-14.4-31.1-14.3-31.1
							C-14.4-31.1-14.4-31.1-14.3-31.1C-14.4-31.1-14.4-31.1-14.3-31.1C-14.4-31.1-14.4-31.1-14.3-31.1
							C-14.4-31.1-14.4-31.1-14.3-31.1C-14.4-31.1-14.4-31.1-14.3-31.1C-14.4-31.1-14.4-31.1-14.3-31.1
							C-14.4-31.1-14.3-31.1-14.3-31.1C-14.3-31.1-14.3-31.1-14.3-31.1L-14.3-31.1z"/>
					</g>
				</g>
				<g id="组_5927" transform="translate(817.714 95.36)">
					<path id="矩形_10" class="st10" d="M-14.5-2.9l5.3-1.6l-0.1,1.9l-5.3,1.7L-14.5-2.9z"/>
					<path id="路径_16781" class="st10" d="M-11.8-4.7c-0.5,0.2-0.9,0.7-1,1.2c0,0.5,0.4,0.8,0.9,0.7c0.5-0.2,0.9-0.7,1-1.2l0,0
						c0-0.3-0.2-0.7-0.5-0.7C-11.6-4.7-11.7-4.7-11.8-4.7L-11.8-4.7z M-11.9-3.3c-0.1,0.1-0.3,0-0.4-0.1c0,0,0-0.1,0-0.2
						c0-0.3,0.2-0.5,0.4-0.6c0.1-0.1,0.3,0,0.4,0.1c0,0,0,0.1,0,0.2v0C-11.5-3.6-11.6-3.4-11.9-3.3z"/>
				</g>
				<g id="组_5928" transform="translate(827.243 111.114)">
					<path id="矩形_11" class="st9" d="M-21.7-14.5l2.2-0.7c0,0,0.1,0,0.1,0c0,0,0,0,0,0l0,0c0,0.1-0.1,0.1-0.1,0.2l-2.2,0.7
						c0,0-0.1,0-0.1,0c0,0,0,0,0-0.1l0,0C-21.9-14.4-21.8-14.5-21.7-14.5z"/>
					<path id="矩形_12" class="st9" d="M-21.7-15.3l4.2-1.3c0,0,0.1,0,0.1,0c0,0,0,0,0,0l0,0c0,0.1-0.1,0.1-0.1,0.2l-4.2,1.4
						c0,0-0.1,0-0.1,0c0,0,0,0,0,0l0,0C-21.8-15.2-21.8-15.3-21.7-15.3z"/>
				</g>
				<g id="组_5929" transform="translate(808.38 125.986)">
					<path id="矩形_13" class="st9" d="M-7.2-25.1l8.3-2.9c0,0,0.1,0,0.1,0c0,0,0,0,0,0l0,0c0,0.1,0,0.1-0.1,0.1l-8.3,2.9
						c-0.1,0-0.1,0-0.1-0.1l0,0C-7.2-25-7.2-25.1-7.2-25.1z"/>
					<path id="矩形_14" class="st9" d="M-7.2-24.3l8.3-2.9c0,0,0.1,0,0.1,0c0,0,0,0,0,0l0,0c0,0.1,0,0.1-0.1,0.1l-8.3,2.9
						c-0.1,0-0.1,0-0.1-0.1l0,0C-7.3-24.3-7.2-24.3-7.2-24.3z"/>
					<path id="矩形_15" class="st9" d="M-7.2-23.6l8.3-2.9c0,0,0.1,0,0.1,0c0,0,0,0,0,0l0,0c0,0.1,0,0.1-0.1,0.1l-8.3,2.9
						c-0.1,0-0.1,0-0.1-0.1l0,0C-7.3-23.5-7.3-23.6-7.2-23.6z"/>
					<path id="矩形_16" class="st9" d="M-7.3-22.8l8.3-3c0,0,0.1,0,0.1,0c0,0,0,0,0,0l0,0c0,0.1,0,0.1-0.1,0.1l-8.3,3
						c0,0-0.1,0-0.1-0.1l0,0C-7.3-22.8-7.3-22.8-7.3-22.8z"/>
					<path id="矩形_17" class="st9" d="M-7.3-22.1l8.3-3c0,0,0.1,0,0.1,0c0,0,0,0,0,0l0,0c0,0.1,0,0.1-0.1,0.1l-8.3,3
						c-0.1,0-0.1,0-0.1-0.1l0,0C-7.4-22-7.3-22.1-7.3-22.1z"/>
					<path id="矩形_18" class="st9" d="M-7.3-21.3l8.3-3c0,0,0.1,0,0.1,0c0,0,0,0,0,0l0,0c0,0.1,0,0.1-0.1,0.1l-8.3,3
						c-0.1,0-0.1,0-0.1-0.1l0,0C-7.4-21.3-7.4-21.3-7.3-21.3z"/>
					<path id="矩形_19" class="st9" d="M-7.4-20.6l8.3-3c0,0,0.1,0,0.1,0c0,0,0,0,0,0l0,0c0,0.1,0,0.1-0.1,0.1l-8.3,3.1
						c-0.1,0-0.1,0-0.1-0.1l0,0C-7.4-20.5-7.4-20.6-7.4-20.6z"/>
					<path id="矩形_20" class="st9" d="M-7.4-19.8l8.3-3.1c0,0,0.1,0,0.1,0c0,0,0,0,0,0l0,0c0,0.1,0,0.1-0.1,0.1l-8.3,3.1
						c0,0-0.1,0-0.1-0.1l0,0C-7.5-19.8-7.4-19.8-7.4-19.8z"/>
					<path id="矩形_21" class="st9" d="M-7.4-19.1l8.3-3.1c0,0,0.1,0,0.1,0c0,0,0,0,0,0l0,0c0,0.1,0,0.1-0.1,0.1l-8.3,3.1
						c0,0-0.1,0-0.1-0.1l0,0C-7.5-19-7.5-19.1-7.4-19.1z"/>
					<path id="矩形_22" class="st9" d="M-7.5-18.3l3.8-1.4c0,0,0.1,0,0.1,0.1l0,0c0,0.1,0,0.1-0.1,0.1l-3.8,1.4
						c-0.1,0-0.1,0-0.1-0.1l0,0C-7.5-18.3-7.5-18.3-7.5-18.3z"/>
				</g>
				<g id="组_5930" transform="translate(809.61 115.893)">
					<path id="路径_16782" class="st9" d="M-4.7-17.1l-3.8,1.3l0.1-3.3l3.8-1.2L-4.7-17.1z M-8.4-15.9l3.6-1.2l0.1-3L-8.3-19
						L-8.4-15.9z"/>
				</g>
			</g>
		</g>
		<g id="组_5883">
			<path id="路径_16663" class="st11" d="M853.9,253.8c0,0-0.1-0.1-0.1-0.1c-0.1-0.1-0.5-0.2-0.7-0.3c-0.3-0.1-0.6-0.1-0.9-0.1
				c-0.1,0-0.1,0-0.2,0c-0.3,0-0.6,0.1-0.3,0.2l-0.3,0.1c-0.1,0-0.1,0.1-0.2,0.1c0,0,0,0,0,0.1c-0.1,0-0.1,0.1-0.2,0.1c0,0,0,0,0,0
				c0,0-0.1,0.1-0.1,0.1c-0.1,0.1-0.1,0.1-0.2,0.2l0,0c-0.2,0-0.4,0-0.6,0c-0.1,0-0.1,0-0.2,0c-0.2,0-0.3,0.1-0.5,0.2
				c-0.2,0.1-0.3,0.1-0.4,0.2c-0.2,0.1-0.6,0.2-0.5,0.3c0,0,0.1,0,0.1,0.1c0,0,0,0-0.1,0c-0.1,0-0.2,0.1-0.4,0.1
				c-0.2,0.1-0.3,0.1-0.4,0.2c-0.4,0.2-1,0.4-1,0.9c0,0.4,0.6,0.1,0.7,0c0.1-0.1,0.1-0.1,0.2-0.1c0.2,0,0.3,0.1,0.4,0.2
				c0,0.1,0,0.3,0,0.4c0,0.2-0.1,0.3-0.2,0.5c-0.1,0.1-0.1,0.2-0.2,0.3c0,0.1,0,0.3,0,0.4c0,0.2,0.1,0.2,0.2,0.1
				c0.1-0.1,0.3-0.2,0.4-0.3c0.4-0.2,0.8-0.4,1.1-0.5l0.1,0c0.2,0,0.4-0.1,0.6-0.1c0.1,0,0.1,0,0.2-0.1c0,0,0.1,0,0.1,0
				c0,0,0.1,0,0.1,0c0,0,0,0,0.1,0c0.2-0.1,0.8-0.3,1.2-0.4c0.3-0.1,0.5-0.2,0.8-0.3c0.1,0,0.1-0.1,0.2-0.1l0,0c0,0,0.1,0,0.1,0
				c0.1,0,0.2,0,0.2-0.1c0.1,0,0.1-0.1,0.2-0.1c0,0,0.1,0,0.1-0.1c0.1-0.1,0.2-0.1,0.3-0.2c0,0,0.1-0.1,0.1-0.1c0,0,0,0,0,0
				c0,0,0-0.1,0.1-0.2c0,0,0,0,0-0.1c0,0,0,0,0,0c0,0,0,0,0,0c0,0-0.1,0-0.1-0.1c-0.1-0.1-0.3-0.2-0.4-0.2c-0.1,0-0.2-0.1-0.3-0.1
				c0,0,0,0,0,0c0,0,0,0,0,0c0,0,0,0,0,0l-0.3-0.1c0,0,0,0,0,0c0,0,0,0,0,0c0,0,0,0,0-0.1c0,0,0.1,0,0.1-0.1l0,0c0,0,0.1,0,0.1,0
				c0.1,0,0.2,0,0.4,0l0,0c0,0,0.1,0,0.1,0l0.1,0c0.2-0.1,0.4-0.1,0.6-0.2C853.9,254,853.9,253.9,853.9,253.8z M846.9,256.1
				C846.9,256.1,846.9,256,846.9,256.1L846.9,256.1c0-0.1,0-0.1,0-0.1c0,0,0,0,0,0c0,0,0,0,0,0c0,0,0,0,0,0c0,0,0,0,0,0s0,0,0,0
				c0.1,0,0.1,0,0.2-0.1c0.1,0,0.1,0,0.2-0.1C847.2,255.9,847.1,256,846.9,256.1C846.9,256.1,846.9,256.1,846.9,256.1
				C846.9,256.1,846.9,256.1,846.9,256.1L846.9,256.1z"/>
			<path id="路径_16664" class="st12" d="M846.3,247.4c0,0.2-0.1,0.5-0.2,0.7c-0.1,0.3-0.2,0.6-0.2,0.7c0,0.1-0.1,0.4-0.2,0.7
				c0,0.1-0.1,0.2-0.1,0.3c0,0.1,0,0.2-0.1,0.2c0,0,0,0,0,0c0,0.1,0.1,0.3,0.1,0.4c0,0.1,0.1,0.3,0,0.4c0,0.1,0.1,0.4,0.1,0.4l0,0.1
				l0,0.1l0,0.1l-0.1,0l0,0l-0.2,0c-0.1,0-0.2-0.1-0.3-0.1c-0.1-0.2-0.2-0.3-0.2-0.5c0,0,0.1-0.5,0.1-0.7c0,0,0-0.2,0-0.3
				c0-0.5,0-1.3,0-1.6c0-0.2,0-0.5,0.1-0.7c0-0.2,0.1-0.4,0.1-0.5c0-0.3,0.1-0.6,0.1-0.8c0,0,0.9-0.2,1-0.1
				C846.6,246.3,846.4,247.2,846.3,247.4z"/>
			<path id="路径_16665" class="st13" d="M846.2,248.1c-0.1,0.3-0.2,0.6-0.2,0.7c0,0.1-0.1,0.4-0.2,0.7c0,0.1-0.1,0.2-0.1,0.3
				c0,0.1,0,0.2-0.1,0.2c0,0,0,0,0,0c0,0,0,0,0,0c0,0,0,0,0,0c0,0,0,0,0-0.1c0-0.1,0-0.3,0-0.4c0.1-0.9,0.1-1.8,0-2.7l0-0.2
				c0-0.1,0.1-0.1,0.2-0.1c0,0,0,0,0,0c0.1,0.1,0.1,0.1,0.2,0.2c0.1,0.2,0.2,0.4,0.2,0.7C846.2,247.9,846.2,248,846.2,248.1z"/>
			<path id="路径_16666" class="st14" d="M846.6,255.7c0,0.2-0.1,0.4-0.2,0.5c-0.3,0.2-0.7,0.5-0.7,0.5c-0.1,0.1-0.1,0.3-0.1,0.4
				c0,0.1,0.1,0.1,0.1,0.2c0.2,0.2,0.6,0,0.8-0.1c0.1-0.1,0.3-0.3,0.4-0.4c0.2-0.1,0.3-0.1,0.5-0.2c0.1,0,0.2-0.1,0.2-0.2
				c0-0.1,0-0.2,0-0.2c0-0.1-0.1-0.1-0.1-0.1l-0.2-0.1l-0.2-0.2L846.6,255.7z"/>
			<path id="路径_16667" class="st14" d="M848.7,256.3c0,0,0,0.1,0,0.1c0,0.1,0,0.1,0.1,0.2c0,0.1,0,0.2,0,0.3
				c-0.1,0.1-0.1,0.3-0.2,0.4c-0.2,0.2-0.3,0.5-0.5,0.7c-0.2,0.2-0.4,0.3-0.7,0.3c-0.4,0-0.4-0.1-0.4-0.4c0-0.2,0.4-0.6,0.5-0.7
				c0.1-0.1,0.3-0.6,0.3-0.6l0.3-0.2L848.7,256.3z"/>
			<path id="路径_16668" class="st15" d="M847.4,256.4c0,0.1-0.2,0.1-0.3,0.2c-0.1,0-0.1,0-0.2,0.1c-0.1,0-0.2,0.1-0.2,0.2
				c-0.1,0.1-0.2,0.1-0.2,0.2c-0.1,0.1-0.3,0.2-0.5,0.2c-0.1,0-0.2,0-0.2,0c-0.1-0.1-0.2-0.1-0.2-0.2c0,0,0,0,0-0.1c0,0,0-0.1,0-0.1
				c0-0.1,0.1-0.3,0.2-0.4c0.2-0.1,0.4-0.3,0.6-0.4c0.2-0.1,0.2-0.3,0.2-0.5l0.4,0l0.3,0.2l0.1,0.1
				C847.4,256.1,847.4,256.3,847.4,256.4z"/>
			<path id="路径_16669" class="st16" d="M847.4,256.4c0,0.1-0.2,0.1-0.3,0.2c-0.1,0-0.1,0-0.2,0.1c-0.1,0-0.2,0.1-0.2,0.2
				c-0.1,0.1-0.2,0.1-0.2,0.2c-0.1,0.1-0.3,0.2-0.5,0.2c-0.1,0-0.2,0-0.2,0c-0.1-0.1-0.2-0.1-0.2-0.2c0,0,0,0,0-0.1
				c0.1,0,0.2,0,0.3,0.1c0.2,0,0.4,0,0.5-0.1c0.1,0,0.1-0.1,0.2-0.2c0.1-0.1,0.2-0.1,0.3-0.2c0.1,0,0.2-0.1,0.3-0.2
				c0.1-0.1,0.1-0.2,0.1-0.3c0-0.1,0-0.1,0.1-0.2l0.1,0.1C847.4,256.1,847.4,256.3,847.4,256.4z"/>
			<path id="路径_16670" class="st15" d="M848.7,256.7c-0.1,0.3-0.2,0.5-0.4,0.7c-0.2,0.3-0.6,0.6-1,0.6s-0.4-0.1-0.4-0.4
				c0,0,0,0,0,0c0-0.2,0.4-0.6,0.5-0.7s0.3-0.6,0.3-0.6l0.3-0.2l0.7,0c0,0,0,0,0,0C848.8,256.3,848.7,256.5,848.7,256.7z"/>
			<path id="路径_16671" class="st16" d="M848.7,256.7c-0.1,0.3-0.2,0.5-0.4,0.7c-0.2,0.3-0.6,0.6-1,0.6s-0.4-0.1-0.4-0.4
				c0,0,0,0,0,0c0,0,0,0,0,0c0.1,0.1,0.3,0.1,0.5,0.1c0.2,0,0.3,0,0.5-0.1c0.1-0.1,0.2-0.1,0.3-0.2c0.1-0.1,0.2-0.2,0.2-0.3
				c0.1-0.1,0.1-0.2,0.1-0.3c0-0.2,0.1-0.3,0-0.5l0-0.1c0-0.1,0.1-0.1,0.2-0.1C848.8,256.3,848.7,256.5,848.7,256.7z"/>
			<path id="路径_16672" class="st16" d="M847.8,254.4c0,0.5-0.2,1.5-0.2,1.5s0,0,0,0c-0.1,0-0.2,0.1-0.3,0.1c-0.1,0-0.2,0-0.3,0
				c-0.3,0-0.5-0.1-0.6-0.4c0-0.1,0-0.2,0-0.4c0-0.3,0-0.6-0.1-0.9c-0.1-0.3-0.2-0.7-0.2-1c-0.1-0.8-0.2-1.5-0.2-2.3
				c0-0.1,0-0.1,0-0.2c0-0.1,0-0.2,0-0.3c0-0.3,0-0.6,0.1-0.9c0.1-0.4,0.6-0.1,0.8-0.1c0.1,0,0.2,0.3,0.3,0.6c0,0.2,0.1,0.3,0.1,0.5
				c0.1,0.2,0.1,0.5,0.2,0.7c0.1,0.6,0.2,1.3,0.3,1.8c0.1,0.4,0.1,0.7,0.1,0.9c0,0,0,0.1,0,0.1C847.8,254.3,847.8,254.4,847.8,254.4
				z"/>
			<path id="路径_16673" class="st14" d="M847.8,254.1c0,0.1,0,0.2,0,0.3c0,0.4-0.1,0.8-0.1,1.1c0,0.1,0,0.3-0.1,0.4
				c-0.1,0.2-0.2-0.1-0.2-0.2c0-0.4-0.1-0.7-0.1-1.1c0-0.2,0-0.7-0.3-0.7c-0.1,0-0.2,0-0.3,0c-0.1,0-0.2,0-0.3,0
				c0.2,0,0.3-0.1,0.4-0.2c0.1-0.1,0.2-0.1,0.2-0.2c0.1-0.3-0.1-0.6-0.2-0.9c-0.1-0.3-0.2-0.6-0.3-0.8c0-0.2-0.1-0.4-0.1-0.6
				c0.7-0.2,0.8,0.6,1.2,2.1l0,0C847.7,253.6,847.8,253.9,847.8,254.1z"/>
			<path id="路径_16674" class="st16" d="M846.3,250.4c0,0,0,0.1,0,0.2c0,0.2,0.1,0.4,0.1,0.6c0,0.1,0.1,0.2,0.1,0.3
				c0.1,0.1,0.1,0.1,0.2,0.2c0.1,0.1,0.2,0.2,0.2,0.4c0.1,0.6,0.2,1.3,0.3,2c0,0.6,0.2,1.1,0.1,1.7c0,0.1,0,0.1,0,0.2
				c0,0.1,0,0.3,0.1,0.4c0,0.1,0.1,0.1,0.1,0.1c0.2,0.1,0.5,0.1,0.7,0h0c0.3-0.1,0.6-0.4,0.6-0.7c0-0.2-0.1-0.3-0.1-0.5
				c0-0.2,0-0.4,0-0.5c0,0,0-0.1,0-0.1c0-0.1,0-0.1,0-0.2c0-0.1,0-0.3,0-0.4c0-0.1,0-0.1,0-0.2c0-0.1,0-0.1,0-0.2
				c0.1-0.9,0.2-1.8,0.2-2.4c0-0.2,0-0.4-0.1-0.6c-0.1-0.5-0.1-1-0.1-1l-0.3,0.1l-1.5,0.4L846.3,250.4z"/>
			<path id="路径_16675" class="st14" d="M848,256.6c0,0-0.1,0-0.1,0C847.8,256.6,847.9,256.6,848,256.6c0,0,0.2,0,0.3,0
				c0.1,0,0.1,0,0.2,0h0c0.3-0.1,0.6-0.4,0.6-0.7c0-0.2-0.1-0.3-0.1-0.5c0-0.2,0-0.4,0-0.5c0,0,0-0.1,0-0.1c0-0.2,0-0.4,0-0.6
				c0-0.1,0-0.1,0-0.2s0-0.1,0-0.2c0.1-0.9,0.2-1.8,0.2-2.4c0-0.2,0-0.4-0.1-0.6c-0.1-0.5-0.1-1-0.1-1l-0.3,0.1
				c0,0.2,0.1,0.5,0.1,0.9c0,0.2,0.1,0.4,0.1,0.6c0,0.5,0,0.9,0,1.4c0,0.2,0,0.4-0.1,0.5c0,0.2-0.1,0.3-0.3,0.5
				c-0.2,0.1-0.5,0.2-0.7,0.1c0.1,0.1,0.3,0.1,0.5,0.1c0.1,0,0.3,0,0.4,0.1c0.1,0.1,0,0.2,0,0.3c0,0.3,0,0.6,0,0.9c0,0.3,0,0.7,0,1
				C848.4,256.2,848.5,256.5,848,256.6z"/>
			<path id="路径_16676" class="st17" d="M845.9,246.4c0.1,0.2,0.1,0.4,0.1,0.6c0,0.2,0,0.4-0.1,0.7c-0.1,0.5-0.2,1-0.1,1.6
				c-0.2,0-0.4,0-0.5-0.1c-0.2-0.2-0.2-0.4-0.2-0.6c0-0.3,0.1-0.6,0.2-0.8c0.1-0.2,0.1-0.4,0.1-0.6c0-0.1,0-0.2,0-0.3
				c0-0.5,0-0.9,0.1-1.4c0-0.2,0.1-0.4,0.2-0.6c0-0.1,0.1-0.1,0.1-0.2c0.2-0.2,0.5-0.3,0.7-0.3c-0.2,0.3-0.4,0.7-0.4,1.1
				c0,0.1,0,0.2-0.1,0.3c0,0.1,0,0.1,0,0.2c0,0.1,0,0.2,0,0.3C845.9,246.3,845.9,246.4,845.9,246.4z"/>
			<path id="路径_16677" class="st17" d="M845.8,247.2c0,0.1,0,0.1,0,0.2c0,0.1,0,0.3,0.1,0.4c0.1,0.5,0.1,0.9,0,1.4
				c-0.1,0-0.2-0.1-0.3-0.1c0,0,0,0,0,0c0,0,0,0,0-0.1c0-0.1,0.1-0.2,0.1-0.2c0-0.1,0-0.2,0-0.2l0-0.8c0-0.1,0-0.2,0-0.2
				c0-0.1-0.1-0.3-0.1-0.4s0-0.3-0.1-0.4c0-0.3,0-0.6,0-0.8c0-0.2,0-0.4,0.1-0.6l0-0.1c0,0,0.1,0,0.1,0c0.1,0,0.1,0.1,0.2,0.2
				c0,0.1,0,0.1,0,0.2c0,0.1,0,0.1,0,0.2c0,0.2,0,0.3,0,0.5c0,0.3,0,0.6,0,0.8C845.8,247.1,845.8,247.1,845.8,247.2z"/>
			<path id="路径_16678" class="st18" d="M844.9,249c0-0.2,0-0.4,0.2-0.6c0,0.1,0.1,0.2,0.2,0.3c0.1,0.1,0.2,0.1,0.3,0.1
				c0.1,0,0.3,0,0.4-0.1c0.1,0,0.2-0.1,0.2-0.2c0,0,0-0.1,0.1-0.1c0.1,0.1,0.1,0.2,0.1,0.3c0,0.1,0,0.2-0.1,0.4c0,0,0,0.1-0.1,0.1
				c-0.1,0.1-0.1,0.1-0.2,0.1c-0.2,0-0.3,0-0.5,0c-0.2,0-0.3-0.1-0.5-0.2c0,0-0.1-0.1-0.1-0.1C844.9,249.1,844.9,249.1,844.9,249z"
				/>
			<path id="路径_16679" class="st14" d="M849.1,251.3L849.1,251.3c-0.6,0.2-1.1,0.2-1.7,0.2c-0.3,0-0.6-0.1-0.9-0.2
				c0,0,0,0-0.1,0c-0.1,0-0.3-0.1-0.4-0.1c-0.1,0-0.2-0.1-0.2-0.2l0,0c0-0.1,0-0.2,0-0.3c0,0,0,0,0,0c0.1,0,0.1,0,0.2,0
				c0.1,0,0.3,0,0.4,0.1c0.3,0,0.5,0.1,0.8,0.1c0.3,0,0.7,0,1,0c0.2,0,0.3-0.1,0.5-0.1c0.1,0,0.2,0,0.3,0.1c0,0,0,0,0,0
				C849,250.9,849,251.2,849.1,251.3z"/>
			<path id="路径_16680" class="st18" d="M845.5,246.3c0.1,0.4,0.1,0.8,0.1,1.1c0,0.4,0,0.8,0.1,1.1c0,0.6,0,1.2,0,1.9
				c0,0,0,0.1,0,0.1c0,0.1,0,0.2,0.1,0.2c0,0.1,0.1,0.1,0.1,0.1c0,0,0.1,0,0.1,0.1c0.2,0.1,0.4,0.2,0.6,0.3c0,0,0.1,0,0.1,0
				s0.1,0,0.1,0l0,0c0.3,0.1,0.5,0.1,0.8,0.1c0.3,0,0.5,0,0.8-0.1c0.1,0,0.2,0,0.3-0.1c0.1,0,0.1-0.1,0.2-0.2
				c0.1-0.2,0.2-0.4,0.2-0.6c0.1-0.3,0.1-0.5,0.1-0.8c0-0.2,0-0.4,0-0.6c0,0,0-0.1,0-0.1c0-0.4,0.1-0.8,0.1-1.3c0-0.1,0-0.2,0-0.3
				c0-0.4,0-0.7,0-1.1c0-0.2,0-0.4,0-0.6c0-0.1,0.1-0.2,0.1-0.3c0.1-0.1,0.2-0.2,0.2-0.2c0,0,0.1-0.1,0.1-0.1c0,0,0-0.1,0-0.1
				c0-0.1-0.1-0.1-0.1-0.2c-0.2-0.1-0.4-0.2-0.6-0.3c-0.1-0.1-0.2-0.1-0.4-0.1c-0.1,0-0.1,0-0.2-0.1c0,0-0.1,0-0.1,0
				c0,0-0.1,0-0.1,0c0,0,0,0-0.1,0c-0.1,0-0.1,0-0.2,0c0,0,0,0-0.1,0c-0.1,0-0.2,0.1-0.3,0.1c-0.3,0-0.5,0-0.8,0.1
				c-0.1,0-0.3,0-0.4,0c-0.1,0-0.1,0-0.1,0h0c0,0,0,0,0,0c-0.2,0.1-0.3,0.1-0.4,0.2c-0.1,0.2-0.2,0.3-0.2,0.5
				C845.4,245.5,845.4,245.9,845.5,246.3z"/>
			<g id="组_5872">
				<path id="路径_16681" class="st17" d="M846.5,249.3c0,0.3,0,0.6,0,0.8c0,0.2,0,0.5,0,0.7c0,0.1,0,0.1,0,0.2c0,0.1,0,0.1,0,0.2
					c0,0,0.1,0,0.1,0c0,0,0,0,0.1,0c0,0,0-0.3,0-0.3c0-0.2,0-0.4-0.1-0.7c0-0.3,0-0.5,0-0.8c0-0.3,0-0.6,0-0.9c0-0.3,0-0.6,0-0.9
					c0-0.3,0-0.5,0-0.8c0-0.2,0-0.4,0-0.7c0-0.2,0-0.3,0-0.5c0-0.2,0-0.3,0.1-0.4c0,0.1-0.1,0.1-0.1,0.2c-0.1,0.2-0.1,0.4-0.1,0.6
					c0,0.2,0,0.4,0,0.6c0,0.3,0,0.5,0,0.8c0,0.3,0,0.6,0,0.9C846.5,248.7,846.5,249,846.5,249.3z"/>
			</g>
			<path id="路径_16682" class="st19" d="M845.5,248.7c0,0.2,0,0.4,0,0.5c0,0.2,0,0.4,0,0.7c0,0.2,0,0.5,0,0.7
				c0,0.2,0,0.6,0.2,0.7c0,0,0,0,0,0c0.1,0,0.1,0,0.2,0c0.1,0,0.1,0,0.2,0c0.1,0,0.2,0,0.3,0c0-0.3-0.1-0.6-0.1-0.8
				c0-0.1,0-0.2,0-0.3c0-0.1,0-0.2,0-0.3c0-0.1,0-0.1,0-0.2c0-0.3,0-0.5,0-0.8c0-0.2,0-0.3,0-0.5c0,0,0,0,0-0.1
				c-0.1-1.2-0.1-2.4,0.3-3.5l0-0.2l-0.1-0.5c0,0,0-0.1-0.1-0.1c-0.1,0-0.1,0-0.2,0c-0.1,0-0.1,0-0.2,0c-0.1,0-0.1,0-0.2,0.1
				c-0.1,0.1-0.2,0.1-0.2,0.2c0,0,0,0,0,0.1c-0.1,0.1-0.1,0.2-0.1,0.3c0,0.1,0,0.2,0,0.3c0,0.2,0,0.4,0,0.6c0.1,0.7,0.1,1.5,0.1,2.2
				C845.5,248.2,845.5,248.5,845.5,248.7z"/>
			<path id="路径_16683" class="st20" d="M845.4,245.8c0.1,1.6,0.2,3.2,0.1,4.7c0,0.2,0,0.6,0.2,0.7c0,0,0,0,0,0
				c0-0.3-0.1-0.7-0.1-1c0-0.4,0-0.8,0-1.2c0-0.6,0-1.2,0-1.9c0-0.1,0-0.2,0.1-0.2c0.1,0,0.2,0,0.2-0.1c-0.2,0-0.3-0.2-0.4-0.3
				c0-0.2-0.1-0.3,0-0.5c0-0.2,0-0.4,0-0.5c0-0.3,0-0.5,0.1-0.7c0.1-0.2,0.3-0.4,0.5-0.5c0,0-0.1,0-0.1-0.1c-0.1,0-0.1,0-0.2,0.1
				c-0.1,0.1-0.2,0.1-0.2,0.2c0,0,0,0,0,0.1c-0.1,0.1-0.1,0.2-0.1,0.3c0,0.1,0,0.2,0,0.3C845.4,245.4,845.4,245.6,845.4,245.8z"/>
			<path id="路径_16684" class="st19" d="M846.9,248.8c0,0.1,0,0.3,0,0.4c0,0.3,0,0.5,0,0.8c0,0.1,0,0.3,0,0.4
				c0,0.4,0,0.7,0.1,1.1c0,0,0,0.1,0,0.1c0,0,0,0,0,0c0,0,0.1,0,0.1,0c0.2,0.1,0.5,0.1,0.7,0.1c0,0,0.1,0,0.1,0c0,0,0,0,0,0
				c0,0,0.1,0,0.1,0c0,0,0.1,0,0.1,0c0,0,0.1,0,0.1,0c0.1,0,0.2,0,0.3-0.1c0.2-0.1,0.4-0.3,0.4-0.5l0.2-1.8c0-0.5,0.1-1,0.1-1.4
				c0-0.2,0-0.5,0-0.7c0-0.3,0-0.5,0-0.8c0-0.1,0-0.2,0-0.2c0-0.1,0-0.3,0-0.4c0-0.1,0-0.3,0-0.4c0,0,0,0,0,0c0-0.1,0-0.3,0.1-0.4
				c0,0,0.1,0,0.1-0.1c0,0,0,0,0,0c-0.3-0.2-0.6-0.4-0.9-0.5c-0.1,0-0.2,0-0.3,0c-0.1,0.1-0.2,0.2-0.3,0.4c-0.1,0.2-0.3,0.4-0.4,0.6
				c-0.2,0.4-0.4,0.9-0.5,1.3c-0.1,0.3-0.1,0.6-0.1,1C846.9,248,846.9,248.4,846.9,248.8z"/>
			<path id="路径_16685" class="st20" d="M847.1,251.6C847.1,251.6,847.1,251.6,847.1,251.6c0,0,0.1,0.1,0.1,0.1
				c0.2,0.1,0.5,0.1,0.7,0.1c0,0,0.1,0,0.1,0c0,0,0,0,0,0c0,0,0.1,0,0.1,0c0,0,0.1,0,0.1,0c0,0,0.1,0,0.1,0c0.1,0,0.2,0,0.3-0.1
				c0.2,0,0.4-0.3,0.4-0.5c0-0.3,0.1-0.7,0.1-1c0-0.2,0-0.3,0-0.5c0-0.1,0-0.2,0-0.3c0-0.2,0-0.3,0-0.5c0-0.2,0-0.3,0-0.5
				c0-0.1,0-0.3,0-0.4c0-0.2,0-0.5,0-0.7c0-0.3,0-0.5,0-0.8c0-0.1-0.1-0.2-0.1-0.3c-0.1-0.2-0.2-0.5,0-0.7c0,0,0.1-0.1,0.1-0.1
				c0,0,0.1-0.1,0.1-0.1c0,0,0.1-0.1,0.1-0.1v0c0,0,0-0.1,0-0.1c0,0,0-0.1,0-0.1c0,0,0,0,0,0c-0.1-0.1-0.2-0.2-0.4-0.3
				c-0.1-0.1-0.3-0.1-0.4-0.2c-0.1,0-0.3-0.1-0.4-0.1l-0.1,0.1c0,0,0,0,0.1,0c0.1,0.1,0.3,0.2,0.4,0.2c0.1,0,0.1,0.1,0.1,0.1
				c0.1,0.2,0,0.4-0.1,0.6c-0.2,0.4-0.2,0.8-0.1,1.3c0,0.2,0,0.4-0.1,0.5c-0.1,0.2-0.2,0.3-0.4,0.3c-0.2,0-0.4,0-0.6-0.1
				c0.2,0.1,0.4,0.2,0.7,0.2c0.2,0,0.4,0.1,0.5,0.3c0.1,0.2,0.1,0.4,0.1,0.6c0,0.1,0,0.2,0,0.3c0,0.2,0,0.3,0,0.5
				c0,0.2-0.1,0.5-0.1,0.7c0,0,0,0,0,0.1c0,0.1,0,0.1,0,0.2c0,0.1,0,0.2,0,0.3c0,0.1,0,0.2-0.1,0.4c-0.1,0.2-0.2,0.5-0.3,0.6
				c-0.2,0.2-0.4,0.3-0.7,0.3C847.4,251.6,847.2,251.6,847.1,251.6z"/>
			<path id="路径_16686" class="st21" d="M846.9,250c0,0.1,0,0.3,0,0.4c0.1,0,0.3,0,0.4,0h0c0.4,0,0.8,0,1.2-0.1l0.1,0
				c0.2,0,0.4-0.1,0.6-0.2c0-0.2,0-0.3,0-0.5c-0.2,0.1-0.4,0.2-0.7,0.2C848.1,250,847.5,250,846.9,250z"/>
			<path id="路径_16687" class="st21" d="M846.9,248.8c0,0.1,0,0.3,0,0.4c0.2,0,0.3,0,0.5,0c0.3,0,0.6,0,0.8-0.1
				c0.2,0,0.4,0,0.5-0.1c0.1,0,0.1,0,0.2,0c0.1,0,0.2-0.1,0.3-0.1c0,0,0.1-0.1,0.1-0.1c0-0.2,0-0.3,0-0.5c-0.1,0.1-0.3,0.2-0.4,0.2
				c-0.2,0.1-0.4,0.1-0.7,0.2c-0.2,0-0.5,0.1-0.7,0.1c-0.1,0-0.2,0-0.2,0C847.3,248.8,847.1,248.8,846.9,248.8z"/>
			<path id="路径_16688" class="st12" d="M848,244.6C847.9,244.6,847.9,244.6,848,244.6c-0.1,0.1-0.1,0.1-0.1,0.1
				c-0.1,0.1-0.2,0.1-0.3,0.2c-0.1,0.1-0.2,0.1-0.4,0.2c-0.1,0.1-0.2,0.1-0.4,0c-0.2,0-0.3-0.2-0.3-0.4c0-0.1,0-0.1,0-0.2
				c0,0,0-0.1,0-0.1c0-0.1,0-0.2,0-0.3c0,0,0,0,0,0l1.5-1.1c0,0-0.3,0.9-0.2,1.1c0.1,0.1,0.2,0.2,0.4,0.2
				C848.2,244.2,848.3,244.3,848,244.6z"/>
			<path id="路径_16689" class="st22" d="M846.1,243.9c0.1,0.1,0.3,0.2,0.4,0.3c0,0.1-0.1,0.3-0.1,0.5c0,0.1,0,0.2,0.1,0.3
				c0.1,0.1,0.2,0.2,0.3,0.2c0,0.1-0.1,0.2-0.1,0.3c0,0,0,0.1,0,0.1c0,0.1-0.1,0.2-0.2,0.2s-0.2-0.1-0.2-0.2c0-0.1,0.1-0.2,0.2-0.2
				c0,0,0,0,0,0c-0.1-0.1-0.2-0.2-0.3-0.3C846,244.7,846,244.3,846.1,243.9z"/>
			<path id="路径_16690" class="st23" d="M848,244.6C847.9,244.6,847.9,244.6,848,244.6c-0.1,0.1-0.1,0.1-0.1,0.1c0,0,0,0,0-0.1
				c0-0.1,0-0.2-0.1-0.3c0-0.1,0-0.1,0-0.2c0-0.1,0-0.1-0.1-0.1c-0.1,0-0.2,0-0.3,0.1c-0.1,0.1-0.2,0.2-0.3,0.2
				c-0.1,0.1-0.2,0.1-0.4,0.1c-0.1,0-0.1,0-0.2,0c0,0,0-0.1,0-0.1c0-0.1,0-0.2,0-0.3c0,0,0,0,0,0l1.5-1.1c0,0-0.3,0.9-0.2,1.1
				c0.1,0.1,0.2,0.2,0.4,0.2C848.2,244.2,848.3,244.3,848,244.6z"/>
			<path id="路径_16691" class="st12" d="M848.1,243.1C848.1,243.1,848.1,243.1,848.1,243.1c0,0.1,0,0.1,0,0.2
				c0,0.1-0.1,0.2-0.2,0.3h0c0,0-0.1,0.1-0.1,0.1c0,0.1-0.1,0.1-0.1,0.1c0,0,0,0.1-0.1,0.1c-0.1,0.2-0.3,0.3-0.6,0.4l0,0
				c0,0,0,0-0.1,0c0,0,0,0,0,0c0,0,0,0,0,0c0,0,0,0,0,0c0,0,0,0,0,0c-0.3,0.2-0.6,0.1-0.7,0c-0.1-0.1-0.2-0.7-0.2-0.7
				c0-0.1,0-0.2-0.1-0.3c0,0,0,0,0,0c0-0.1,0-0.2,0-0.4c0-0.1,0-0.1,0-0.2c0-0.1,0-0.2,0-0.3c0-0.1,0.1-0.3,0.1-0.4
				c0-0.1,0-0.2,0.1-0.2c0-0.2,0.1-0.3,0.3-0.5c0.2-0.1,0.4-0.2,0.6-0.2c0,0,0.7,0.5,0.7,0.5c0.3,0.2,0.5,0.6,0.5,0.9
				C848.1,242.8,848.1,242.9,848.1,243.1C848.1,243.1,848.1,243.1,848.1,243.1C848.1,243.1,848.1,243.1,848.1,243.1z"/>
			<path id="路径_16692" class="st23" d="M846,242.1c0.3-0.1,0.7-0.2,1-0.2c0.1,0,0.2,0,0.3,0c0.1,0,0.2,0.1,0.3,0.2
				c0.1,0.1,0.1,0.2,0.1,0.3c0,0.1,0,0.3-0.1,0.4c-0.1,0.3-0.2,0.5-0.2,0.8c0-0.1-0.1-0.1-0.1-0.2c0-0.1-0.1-0.3-0.1-0.5
				c0-0.1,0-0.1,0-0.2c0-0.1,0-0.2,0-0.3c0-0.1,0-0.1-0.1-0.1c-0.1,0-0.1,0-0.2,0c-0.3,0-0.6,0-0.9,0
				C846.2,242.2,846.1,242.2,846,242.1L846,242.1z"/>
			<path id="路径_16693" class="st24" d="M848.4,242.3c0,0.3-0.1,0.5-0.2,0.7c0,0,0,0.1,0,0.1c0,0,0,0.1,0,0.1c0,0,0,0,0,0
				c0,0.1-0.1,0.2-0.2,0.3c0,0,0,0,0,0c0,0,0,0,0,0c0-0.1,0-0.1,0.1-0.2c0,0,0-0.1,0-0.1c0,0,0,0,0-0.1c0,0,0,0,0-0.1
				c-0.1-0.1-0.2-0.1-0.2,0c-0.1,0-0.1,0.1-0.2,0.2c0,0,0,0.1,0,0.1c0,0,0,0,0,0.1c0,0,0,0,0,0.1c0,0,0,0,0,0c0,0,0,0,0-0.1
				c0-0.1,0-0.2,0-0.3c0-0.1,0-0.2,0-0.3c0-0.1,0-0.2,0.1-0.2c0-0.1,0-0.2-0.1-0.3c-0.1-0.1-0.2-0.1-0.2-0.1c-0.2,0-0.5-0.1-0.7,0
				c-0.1,0-0.3,0-0.4,0c0,0-0.1,0-0.1,0c0,0,0-0.1-0.1-0.1c0-0.1,0-0.2,0-0.3c0-0.1,0.1-0.2,0.1-0.3c0-0.1,0.1-0.1,0.2-0.1
				c0.1,0,0.2-0.1,0.3-0.1c0.2,0,0.3,0,0.5,0c0.3,0,0.7,0,1,0.3c0.1,0.1,0.2,0.1,0.2,0.2c0,0,0,0,0.1,0.1
				C848.4,241.9,848.4,242.1,848.4,242.3z"/>
			<path id="路径_16694" class="st25" d="M848.4,242.3c0,0.3-0.1,0.5-0.2,0.7c0,0,0,0.1,0,0.1c0,0,0,0.1,0,0.1c0,0,0,0,0,0
				c0,0.1-0.1,0.2-0.2,0.3h0c0,0,0,0,0,0c0,0,0,0,0,0c0-0.1,0-0.1,0.1-0.2c0,0,0-0.1,0-0.1c0,0,0,0,0-0.1c0,0,0,0,0-0.1
				c-0.1-0.1-0.2-0.1-0.2,0c-0.1,0-0.1,0.1-0.2,0.2c0,0,0,0.1,0,0.1c0,0,0,0,0,0.1c0,0,0,0,0,0.1c0,0,0,0,0,0c0,0,0,0,0-0.1
				c0-0.1,0-0.2,0-0.3c0-0.1,0-0.2,0-0.3c0-0.1,0-0.2,0.1-0.2c0,0.2,0,0.4,0,0.6c0,0,0,0.1,0,0.1c0,0,0,0,0,0
				c0.1-0.1,0.1-0.1,0.1-0.2c0-0.1,0.1-0.1,0.2-0.1c0.1,0,0.1,0,0.2,0.1c0,0,0,0,0,0c0,0,0.1,0,0.1-0.1c0.1-0.3,0.2-0.6,0.1-0.8
				c0-0.1-0.1-0.2-0.1-0.3C848.4,241.9,848.4,242.1,848.4,242.3z"/>
			<path id="路径_16695" class="st26" d="M848.2,241.7c0.1,0.1,0.1,0.1,0.1,0.2c0,0.1,0,0.2-0.1,0.3c-0.1,0.1-0.2,0.1-0.3,0.1
				c-0.1,0-0.2-0.1-0.3-0.2c-0.1-0.1-0.3-0.2-0.5-0.2l-0.7,0c-0.1,0-0.2,0-0.3-0.1c-0.1-0.1-0.2-0.3-0.1-0.4c0,0,0-0.1,0.1-0.1
				c0.3-0.1,0.6-0.2,0.9-0.2c0.3,0,0.7,0,1,0.3C848,241.5,848.1,241.6,848.2,241.7z"/>
			<path id="路径_16696" class="st23" d="M845.4,250.9c0,0,0,0.1,0,0.2c0,0,0,0.1,0,0.1l0.1,0.2c0,0,0.1,0.1,0.1,0.1
				s0.1,0.1,0.1,0.1s-0.1-0.1-0.1-0.2s0-0.1,0-0.1c0-0.1,0-0.1,0-0.2C845.5,251,845.5,251,845.4,250.9L845.4,250.9z"/>
			<path id="路径_16697" class="st27" d="M846.9,241.2c-0.1,0-0.2,0-0.2,0c-0.1,0-0.2,0-0.2,0.1c-0.1,0-0.1,0.1-0.2,0.1
				c0,0,0,0,0,0c0,0.1,0,0.1,0.1,0.1c0.2,0.1,0.4,0,0.6,0c0.3,0,0.5,0.2,0.8,0.2c0,0,0.1,0,0.1,0c0,0,0-0.1,0-0.1c0,0,0-0.1,0-0.1
				c-0.1-0.1-0.1-0.1-0.2-0.2c-0.1-0.1-0.2-0.1-0.4-0.1c-0.1,0-0.1,0-0.2,0C847.1,241.3,847,241.2,846.9,241.2L846.9,241.2z"/>
			<path id="路径_16698" class="st22" d="M846.9,245.1c0,0,0.1,0,0.1,0c0,0,0.1,0,0.1,0c0,0,0.1,0,0.1,0c0.1,0,0.1-0.1,0.2-0.1
				c0.2-0.1,0.6-0.3,0.6-0.6c0,0,0-0.2,0-0.2c0.1,0,0.2,0,0.3,0.1c0,0,0.1,0,0.1,0c0.1,0,0.1,0,0.1,0.1c0,0,0,0,0,0.1c0,0,0,0,0,0.1
				c0,0,0,0.1-0.1,0.1c0,0.1-0.1,0.2-0.2,0.2c-0.1,0.1-0.3,0.3-0.4,0.4c-0.1,0.1-0.2,0.1-0.3,0.1c-0.1,0-0.2,0.1-0.3,0.1
				c-0.1,0.1-0.2,0.1-0.3,0.1c0,0-0.1,0-0.1,0.1c0,0-0.1,0.1-0.1,0.1c0,0,0,0.1,0,0.1C846.7,245.5,846.7,245.3,846.9,245.1
				C846.8,245.1,846.8,245.1,846.9,245.1C846.8,245.1,846.8,245.1,846.9,245.1L846.9,245.1z"/>
			<g id="组_5875">
				<g id="组_5874">
					<path id="路径_16699" class="st28" d="M845.3,242.2c0,0,0-0.1,0.1-0.1c0.1-0.2,0.3-0.3,0.5-0.4c0.2-0.1,0.3-0.2,0.5-0.3
						c0.4-0.1,0.8-0.2,1.2-0.2c0.1,0,0.1,0,0.2,0c0.1,0,0.2,0,0.2,0.1c0.1,0,0.2,0.1,0.3,0.2c0,0,0,0,0-0.1c0.1,0.2,0.2,0.4,0.2,0.5
						c0,0.1,0,0.2-0.1,0.3c-0.1,0.1-0.1,0.2-0.2,0.2c-0.1,0-0.1,0.1-0.2,0.1c-0.1,0.1-0.3,0.1-0.4,0.1c0,0-0.1,0-0.1,0
						c-0.2,0.1-0.3,0.2-0.5,0.2c-0.2,0-0.4,0.1-0.6,0.1c-0.3,0-0.5,0-0.8-0.2c-0.1,0-0.1-0.1-0.2-0.1
						C845.3,242.7,845.2,242.4,845.3,242.2z"/>
					<path id="路径_16700" class="st29" d="M848.3,241.6C848.3,241.6,848.3,241.6,848.3,241.6c-0.1,0-0.2-0.1-0.3-0.2
						c-0.1,0-0.2-0.1-0.2-0.1c-0.1,0-0.1,0-0.2,0c-0.4,0-0.8,0-1.2,0.2c-0.2,0.1-0.4,0.2-0.5,0.3c-0.2,0.1-0.3,0.2-0.5,0.4
						c0,0-0.1,0.1-0.1,0.1c0,0,0,0.1,0,0.2c0-0.1,0-0.1,0-0.2c0,0,0-0.1,0.1-0.1c0.1-0.2,0.3-0.3,0.5-0.4c0.2-0.1,0.3-0.2,0.5-0.3
						c0.4-0.1,0.8-0.2,1.2-0.2c0.1,0,0.1,0,0.2,0c0.1,0,0.2,0,0.2,0.1C848.1,241.4,848.2,241.5,848.3,241.6
						C848.3,241.6,848.3,241.6,848.3,241.6c0.1,0.1,0.2,0.3,0.2,0.5C848.5,241.9,848.4,241.7,848.3,241.6z"/>
					<path id="路径_16701" class="st29" d="M845.4,242.8c0.1,0.1,0.1,0.1,0.2,0.1c0.2,0.1,0.5,0.2,0.8,0.2c0.2,0,0.4,0,0.6-0.1
						c0.2-0.1,0.3-0.2,0.5-0.2c0,0,0.1,0,0.1,0c0.2,0,0.3,0,0.4-0.1c0.1,0,0.1-0.1,0.2-0.1c0.1-0.1,0.2-0.1,0.2-0.2
						c0.1-0.1,0.1-0.2,0.1-0.3c0,0,0,0,0,0c0,0,0,0.1,0,0.1c0,0.1,0,0.2-0.1,0.3c-0.1,0.1-0.1,0.2-0.2,0.2c-0.1,0-0.1,0.1-0.2,0.1
						c-0.1,0.1-0.3,0.1-0.4,0.1c0,0-0.1,0-0.1,0c-0.2,0.1-0.3,0.2-0.5,0.2c-0.2,0-0.4,0.1-0.6,0.1c-0.3,0-0.5,0-0.8-0.2
						C845.6,242.9,845.5,242.9,845.4,242.8c-0.1-0.1-0.2-0.2-0.2-0.4C845.2,242.5,845.3,242.6,845.4,242.8z"/>
					
						<linearGradient id="路径_16702_00000070112234035394536130000012265132281933232048_" gradientUnits="userSpaceOnUse" x1="345.7334" y1="577.0536" x2="345.6982" y2="576.8168" gradientTransform="matrix(11.03 0 0 -8.8712 -3007.6592 5584.9546)">
						<stop  offset="0" style="stop-color:#E1740D"/>
						<stop  offset="1" style="stop-color:#C86917"/>
					</linearGradient>
					<path id="路径_16702" style="fill:url(#路径_16702_00000070112234035394536130000012265132281933232048_);" d="
						M845.9,241.5c0.1-0.1,0.1-0.2,0.2-0.3c0.1-0.1,0.2-0.2,0.3-0.3c0.1-0.1,0.2-0.2,0.4-0.2c0.3-0.1,0.5-0.1,0.8,0
						c0.2,0.1,0.4,0.2,0.6,0.4c0.2,0.3,0.3,0.6,0.3,1c0,0.2-0.1,0.4-0.2,0.5c-0.5,0.3-1.2,0.4-1.7,0.2c-0.2-0.1-0.6-0.2-0.7-0.5
						c0-0.1,0-0.1,0-0.2C845.8,241.8,845.8,241.7,845.9,241.5z"/>
					<path id="路径_16703" class="st19" d="M845.7,242.2C845.7,242.2,845.7,242.2,845.7,242.2c0,0.1,0,0.1,0,0.1
						c0.1,0.1,0.1,0.1,0.2,0.2c0,0,0.1,0,0.1,0c0,0,0,0,0,0c0,0,0,0,0,0c0,0,0,0,0,0c0,0,0,0,0,0l0-0.1l0.1-0.2l0.2-0.3l0.2-0.3
						l0.3-0.3l0.2-0.2l0.4-0.1l0.5,0.1c-0.1-0.1-0.3-0.3-0.5-0.3l0,0c0,0,0,0-0.1,0c-0.1,0-0.2-0.1-0.3-0.1c-0.1,0-0.2,0-0.3,0
						c0,0-0.1,0-0.1,0c-0.1,0-0.1,0.1-0.2,0.1c-0.1,0-0.1,0.1-0.2,0.2c-0.1,0.1-0.1,0.1-0.2,0.2c-0.1,0.1-0.1,0.1-0.1,0.2
						c0,0.1-0.1,0.1-0.1,0.2c0,0.1-0.1,0.1-0.1,0.2c0,0.1-0.1,0.1-0.1,0.2c0,0,0,0.1-0.1,0.1C845.8,242.1,845.7,242.2,845.7,242.2z"
						/>
					<g id="组_5873">
						<path id="路径_16704" class="st29" d="M846.2,242.5C846.2,242.5,846.2,242.5,846.2,242.5
							C846.2,242.5,846.2,242.5,846.2,242.5c0-0.1,0.1-0.1,0.1-0.2c0-0.1,0-0.1,0.1-0.2c0-0.1,0.1-0.1,0.1-0.2
							c0-0.1,0.1-0.1,0.1-0.2c0-0.1,0.1-0.1,0.1-0.2c0-0.1,0.1-0.1,0.1-0.2c0.1-0.1,0.1-0.1,0.2-0.2c0.1-0.1,0.1-0.1,0.2-0.1
							c0.1,0,0.1-0.1,0.2-0.1c0,0,0.1,0,0.1,0c0,0,0.1,0,0.1,0c0.2,0,0.5,0.1,0.7,0.2c0,0,0,0,0,0c0,0,0-0.1,0-0.1
							c0-0.1-0.1-0.1-0.1-0.1c0,0-0.1,0-0.1-0.1c-0.1,0-0.2-0.1-0.3-0.1c-0.1,0-0.2,0-0.3,0c0,0-0.1,0-0.1,0c-0.1,0-0.1,0.1-0.2,0.1
							c-0.1,0-0.1,0.1-0.2,0.2c-0.1,0.1-0.1,0.1-0.2,0.2c-0.1,0.1-0.1,0.1-0.1,0.2c0,0.1-0.1,0.1-0.1,0.2c0,0.1-0.1,0.1-0.1,0.2
							c0,0.1-0.1,0.1-0.1,0.2c0,0,0,0.1-0.1,0.1C846.2,242.4,846.1,242.4,846.2,242.5c-0.1-0.1-0.1-0.1-0.1,0c0,0,0,0,0,0
							C846.1,242.5,846.1,242.6,846.2,242.5C846.2,242.6,846.2,242.6,846.2,242.5C846.2,242.5,846.2,242.5,846.2,242.5z"/>
					</g>
				</g>
			</g>
			<g id="组_5876">
				<path id="路径_16705" class="st21" d="M845.5,248c0,0.2,0,0.4,0,0.7c0.2,0.2,0.5,0.3,0.7,0.4c0-0.2,0-0.3,0-0.5
					C845.9,248.5,845.7,248.3,845.5,248L845.5,248z"/>
			</g>
			<g id="组_5877">
				<path id="路径_16706" class="st21" d="M845.5,249.9c0.2,0.2,0.5,0.3,0.8,0.4c0-0.1,0-0.2,0-0.3c0-0.1,0-0.1,0-0.2
					c-0.3-0.1-0.6-0.3-0.8-0.6l0,0C845.5,249.4,845.5,249.6,845.5,249.9z"/>
			</g>
			<path id="路径_16707" class="st21" d="M847.2,246.6c0-0.1,0-0.2,0.1-0.2c0,0,0.1,0,0.1,0c0.2,0.1,0.4,0.1,0.6,0.1
				c0.1,0,0.2,0,0.3,0c0,0,0.1,0,0.2,0c0,0.1,0,0.1,0,0.2l0,0.5c0,0.1,0,0.1,0,0.1c0,0-0.1,0.1-0.1,0.1c-0.2,0.1-0.3,0.2-0.5,0.2
				c0,0,0,0-0.1,0c-0.1,0-0.2-0.1-0.3-0.2c0,0-0.1-0.1-0.1-0.1c0,0-0.1-0.1-0.1-0.1c0,0,0-0.1,0-0.1
				C847.2,246.9,847.2,246.8,847.2,246.6z"/>
			<g id="组_5882">
				<g id="组_5878">
					<path id="路径_16708" class="st31" d="M846.1,244.3v1.4l-0.2,0.1v-1.4L846.1,244.3z"/>
					<path id="路径_16709" class="st32" d="M846,244.2l0.2,0.1l-0.2,0.1l-0.2-0.1L846,244.2z"/>
					<path id="路径_16710" class="st33" d="M845.8,244.3v1.4l0.2,0.1v-1.4L845.8,244.3z"/>
				</g>
				<g id="组_5879">
					
						<linearGradient id="路径_16711_00000067926206728609643700000008014786823211862436_" gradientUnits="userSpaceOnUse" x1="193.0969" y1="239.4541" x2="192.9446" y2="239.2425" gradientTransform="matrix(2.7565 0 0 -4.0228 -344.6649 2541.8506)">
						<stop  offset="0" style="stop-color:#4D4D4D"/>
						<stop  offset="1" style="stop-color:#1D1E1E"/>
					</linearGradient>
					<path id="路径_16711" style="fill:url(#路径_16711_00000067926206728609643700000008014786823211862436_);" d="
						M845.7,243.8l-0.1-0.2c0,0,0.1-0.1,0.2-0.1l0,0c0.1,0,0.1,0,0.2,0c0.2,0.1,0.3,0.4,0.3,0.6c0,0.1,0,0.2-0.1,0.3l-0.1,0.1
						l-0.1-0.2C845.8,244.2,845.7,244,845.7,243.8z"/>
				</g>
				<g id="组_5880">
					
						<linearGradient id="路径_16712_00000103264466618402311880000001201971591803016639_" gradientUnits="userSpaceOnUse" x1="227.2823" y1="328.0618" x2="227.1322" y2="327.8491" gradientTransform="matrix(3.555 0 0 -5.0898 -603.1256 3214.1938)">
						<stop  offset="0" style="stop-color:#D8D8D8"/>
						<stop  offset="1" style="stop-color:#666666"/>
					</linearGradient>
					<path id="路径_16712" style="fill:url(#路径_16712_00000103264466618402311880000001201971591803016639_);" d="
						M845.3,243.6l0.1,0.2c0,0.3,0.1,0.5,0.3,0.7l0.1,0.2l0.1-0.1c0.1-0.1,0.2-0.2,0.1-0.3c0-0.3-0.2-0.6-0.4-0.8l0,0
						c0,0-0.1,0-0.2,0L845.3,243.6L845.3,243.6L845.3,243.6z"/>
					<path id="路径_16713" class="st36" d="M845.1,244c0,0.3,0.2,0.6,0.4,0.8c0.2,0.1,0.4,0,0.4-0.3c0-0.3-0.2-0.6-0.4-0.8
						C845.3,243.5,845.1,243.7,845.1,244z"/>
					
						<linearGradient id="路径_16714_00000057129064388027101650000002639663805484503454_" gradientUnits="userSpaceOnUse" x1="310.6595" y1="504.7082" x2="310.58" y2="504.5533" gradientTransform="matrix(8.1317 0 0 -8.0516 -2081.9016 5080.9268)">
						<stop  offset="0" style="stop-color:#257FC2"/>
						<stop  offset="1" style="stop-color:#1E426F"/>
					</linearGradient>
					<path id="路径_16714" style="fill:url(#路径_16714_00000057129064388027101650000002639663805484503454_);" d="
						M844.6,245.6l-0.6-1.7l1.4-0.2c0.1,0,0.1,0,0.2,0c0.3,0.2,0.4,0.5,0.4,0.8c0,0.1,0,0.2-0.1,0.3l0,0l0,0
						C845.8,244.8,844.6,245.6,844.6,245.6z"/>
				</g>
				<g id="组_5881">
					
						<linearGradient id="路径_16715_00000140718391939909801270000013374752642857419434_" gradientUnits="userSpaceOnUse" x1="186.5295" y1="414.2058" x2="186.3255" y2="414.0112" gradientTransform="matrix(5.157 0 0 -8.0234 -1125.4767 5063.7588)">
						<stop  offset="0" style="stop-color:#4D4D4D"/>
						<stop  offset="1" style="stop-color:#1D1E1E"/>
					</linearGradient>
					<path id="路径_16715" style="fill:url(#路径_16715_00000140718391939909801270000013374752642857419434_);" d="
						M843.9,244.3l-0.2-0.4c0,0,0.2-0.1,0.2-0.1l0,0c0.1,0,0.3,0,0.4,0.1c0.4,0.3,0.7,0.8,0.7,1.3c0,0.2-0.1,0.4-0.2,0.5l-0.1,0.1
						l-0.2-0.3C844.1,245.1,843.9,244.7,843.9,244.3z"/>
					<path id="路径_16716" class="st39" d="M843.5,244.4c0,0.5,0.3,1,0.7,1.3c0.4,0.2,0.7,0,0.7-0.5c0-0.5-0.3-1-0.7-1.3
						C843.8,243.7,843.5,243.9,843.5,244.4z"/>
					
						<linearGradient id="路径_16717_00000132049776792862040470000016415443574390169990_" gradientUnits="userSpaceOnUse" x1="258.7529" y1="416.9178" x2="258.6004" y2="416.6979" gradientTransform="matrix(4.951 0 0 -7.437 -1059.8689 4694.8535)">
						<stop  offset="0" style="stop-color:#666666"/>
						<stop  offset="1" style="stop-color:#D8D8D8"/>
					</linearGradient>
					<path id="路径_16717" style="fill:url(#路径_16717_00000132049776792862040470000016415443574390169990_);" d="
						M843.5,244.4c0,0.5,0.2,0.9,0.6,1.2c0.1,0,0.1,0.1,0.2,0.1c0.2,0,0.3-0.2,0.3-0.5c0-0.1,0-0.1,0-0.2c0-0.3-0.1-0.5-0.3-0.7
						c-0.1-0.1-0.2-0.2-0.3-0.3c-0.1,0-0.1-0.1-0.2-0.1C843.7,243.9,843.5,244.1,843.5,244.4z"/>
					
						<linearGradient id="路径_16718_00000036229022924024314870000008800836203942811291_" gradientUnits="userSpaceOnUse" x1="-51.5222" y1="598.3671" x2="-51.2813" y2="598.3671" gradientTransform="matrix(4.311 0 0 -7.438 -853.817 4695.4863)">
						<stop  offset="0" style="stop-color:#4D4D4D"/>
						<stop  offset="1" style="stop-color:#1D1E1E"/>
					</linearGradient>
					<path id="路径_16718" style="fill:url(#路径_16718_00000036229022924024314870000008800836203942811291_);" d="
						M843.9,243.9C843.9,243.9,843.9,243.9,843.9,243.9c-0.1,0.1-0.1,0.3-0.1,0.5c0,0.5,0.2,0.9,0.6,1.2c0.1,0,0.1,0.1,0.2,0.1
						c0,0-0.1,0.1-0.2,0.1c-0.1,0-0.2,0-0.2-0.1c-0.4-0.3-0.6-0.7-0.6-1.2C843.5,244.1,843.7,243.9,843.9,243.9z"/>
				</g>
				
					<linearGradient id="路径_16719_00000083776822224736126190000000879610526325010316_" gradientUnits="userSpaceOnUse" x1="287.8938" y1="250.1632" x2="287.8083" y2="249.9946" gradientTransform="matrix(2.501 0 0 -3.343 -268.7094 2116.47)">
					<stop  offset="0" style="stop-color:#D8D8D8"/>
					<stop  offset="1" style="stop-color:#666666"/>
				</linearGradient>
				<path id="路径_16719" style="fill:url(#路径_16719_00000083776822224736126190000000879610526325010316_);" d="M844.1,244.5
					l0.3,0.5l0.3-0.1c0-0.3-0.1-0.5-0.3-0.7L844.1,244.5z"/>
				<path id="路径_16720" class="st43" d="M844,244.7c0,0.1,0.1,0.3,0.2,0.4c0.1,0.1,0.2,0,0.2-0.1c0-0.1-0.1-0.3-0.2-0.4
					C844.1,244.5,844,244.5,844,244.7z"/>
				<path id="路径_16721" class="st44" d="M844.3,245c0,0,0.1-0.1,0.1-0.1c0-0.1-0.1-0.2-0.2-0.3c0,0,0,0,0,0c0,0-0.1,0.1-0.1,0.1
					C844.1,244.8,844.2,244.9,844.3,245C844.3,245,844.3,245,844.3,245z"/>
			</g>
			<path id="路径_16722" class="st12" d="M848.5,248c0,0.1,0,0.2,0,0.2c0,0.2-0.2,0.4-0.3,0.5c-0.5,0.2-1-0.3-1.4-0.6
				c-0.2-0.2-0.5-0.4-0.7-0.6c-0.3-0.3-0.5-0.6-0.7-0.8c-0.1-0.1-0.1-0.1-0.2-0.2l-0.2-0.2c-0.1-0.1-0.1-0.2-0.2-0.3
				c0-0.1-0.1-0.2,0-0.3c0-0.2,0.1-0.3,0.2-0.4c0.1-0.1,0.2-0.2,0.4-0.3c0.1,0,0.1-0.1,0.1-0.1c0,0,0.1-0.1,0.2-0.1
				c0.1,0,0.1,0.1,0.1,0.1c0,0.2,0,0.3,0,0.5c0.1,0,0.1,0,0.2-0.1c0,0,0.1-0.1,0.1-0.1c0,0,0.1,0,0.1,0c0,0,0,0.1,0,0.1
				c0,0.2-0.4,0.5-0.3,0.7c0.1,0.1,0.1,0.1,0.2,0.2c0.4,0.2,0.7,0.4,1.1,0.5c0.1,0,0.2,0.1,0.3,0.1c0.1,0,0.2,0.1,0.2,0.2
				c0.2,0.2,0.3,0.3,0.5,0.5C848.3,247.8,848.4,247.9,848.5,248z"/>
			<path id="路径_16723" class="st18" d="M847.3,248.3c0,0,0,0.1,0,0.1c0,0,0,0.1,0,0.1c0,0,0.1,0,0.1,0.1c0.1,0,0.2,0.1,0.3,0.1
				l0,0c0.1,0,0.2,0,0.3,0c0.1,0,0.2,0,0.2-0.1c0,0,0.1-0.1,0.1-0.1c0,0,0,0,0,0l0,0c0,0,0,0,0,0c0,0,0,0,0.1,0l0,0c0,0,0,0,0,0l0,0
				c0,0,0.1-0.1,0.1-0.1c0,0,0.1-0.1,0.1-0.1c0-0.1,0.1-0.1,0.1-0.2c0,0,0,0,0,0c0-0.1,0.1-0.1,0.1-0.2c0.2-0.4,0.4-0.9,0.5-1.4
				c0-0.1,0-0.1,0.1-0.2c0,0,0-0.1,0-0.1c0-0.1,0.1-0.2,0.1-0.4c0,0,0-0.1,0-0.1c0,0,0,0,0,0c0,0,0-0.1,0-0.1c0,0,0-0.1,0-0.1
				c0,0,0,0,0-0.1c0-0.1,0-0.1,0-0.1c0,0,0-0.1,0-0.1c0,0,0,0,0-0.1c0-0.1-0.1-0.1-0.2-0.2c-0.1,0-0.1-0.1-0.2-0.1
				c-0.2,0-0.4,0-0.5,0.2c-0.4,0.6-0.7,1.2-0.8,1.9c0,0.2-0.1,0.4-0.1,0.6c0,0,0,0,0,0c0,0-0.1,0-0.1,0c0,0-0.1,0-0.1,0.1
				c-0.1,0.1-0.1,0.1-0.1,0.2c-0.1,0.1-0.1,0.3-0.2,0.4C847.3,248,847.3,248.1,847.3,248.3C847.3,248.2,847.3,248.3,847.3,248.3z"/>
			<path id="路径_16724" class="st17" d="M847.3,248.3c0,0,0,0.1,0,0.1c0,0,0,0.1,0,0.1c0,0,0.1,0,0.1,0.1c0.1,0,0.2,0.1,0.3,0.1
				l0,0c0.1,0,0.2,0,0.3,0c0.1,0,0.2,0,0.2-0.1c0.1-0.1,0.2-0.1,0.2-0.2l0,0c0,0,0,0,0,0l0,0c0,0,0.1-0.1,0.1-0.1
				c0,0,0.1-0.1,0.1-0.1c0-0.1,0.1-0.1,0.1-0.2c0,0,0,0,0,0c0-0.1,0.1-0.1,0.1-0.2c0.2-0.4,0.4-0.9,0.5-1.4c0-0.1,0-0.1,0.1-0.2
				c0,0,0-0.1,0-0.1c0-0.1,0.1-0.2,0.1-0.4c0,0,0-0.1,0-0.1c0,0,0,0,0,0c0,0,0-0.1,0-0.1c0,0,0-0.1,0-0.1c0,0,0,0,0-0.1
				c0-0.1,0-0.1,0-0.1c0,0,0-0.1,0-0.1c0,0.2,0,0.3-0.1,0.5c0,0.2-0.1,0.3-0.1,0.5c-0.1,0.2-0.1,0.4-0.2,0.6c0,0.2-0.1,0.4-0.2,0.6
				c-0.1,0.1-0.2,0.1-0.4,0.1c0.1,0.1,0.1,0.1,0.1,0.2c0,0,0,0-0.1,0c0,0-0.1,0-0.1-0.1c-0.1-0.1-0.2-0.1-0.3-0.1
				c0.1,0.1,0.2,0.2,0.3,0.3c0,0,0.1,0.1,0,0.1c0,0-0.1,0.1-0.1,0.1c-0.1,0-0.2,0-0.3,0c0,0.1,0.1,0.1,0.1,0.2c0,0,0,0-0.1,0
				c0,0-0.1,0-0.1,0L848,248c0.1,0.1,0.1,0.3,0,0.4c0,0.1-0.2,0.2-0.3,0.2c-0.1,0-0.2-0.1-0.2-0.1L847.3,248.3
				C847.3,248.2,847.3,248.3,847.3,248.3z"/>
			<path id="路径_16725" class="st22" d="M847.7,247C847.7,247.1,847.7,247.1,847.7,247c0.1,0.1,0.2,0.1,0.2,0.2c0,0,0,0,0,0
				c-0.2,0.2-0.4,0.5-0.4,0.8c0,0.1,0,0.2,0,0.3c0,0,0,0.4,0.1,0.3c-0.1,0-0.3,0-0.4-0.1c-0.1,0-0.1-0.1-0.2-0.1
				c0,0-0.1-0.1-0.1-0.1c0-0.1,0-0.1-0.1-0.2c0-0.1,0-0.2,0.1-0.4c0-0.1,0.1-0.3,0.2-0.4c0-0.1,0.1-0.1,0.1-0.1
				c0.1-0.1,0.2-0.2,0.3-0.3C847.5,246.9,847.6,247,847.7,247C847.6,247,847.7,247,847.7,247z"/>
		</g>
		<g id="组_5887" transform="translate(-27.072 -27.876)">
			<path id="路径_16729" class="st11" d="M865.2,283.1c0.3-0.6,0.7-1.1,1.2-1.5c0.2-0.2,0.5-0.3,0.7-0.4c0.2,0,0.4-0.1,0.6-0.1
				c0.6,0,1.2,0.1,1.6,0.4c0.1,0.1,0.2,0.2,0.3,0.4c0,0.1,0,0.3,0,0.4c-0.1,0.5-0.6,0.8-1.1,1.1c-0.8,0.4-1.7,0.7-2.6,0.6
				c-0.2,0-0.4-0.1-0.6-0.1c-0.1,0-0.2-0.1-0.3-0.1C864.8,283.6,865,283.3,865.2,283.1z"/>
			<g id="组_5886">
				<path id="路径_16730" class="st0" d="M864.1,283.5c0.3,0.2,0.6,0.4,0.9,0.5c0.4,0.1,0.7,0.1,1.1,0.1c1,0,2.2-0.2,2.3-0.9
					c0.1-0.5-0.8-1.8-1-2.3c-0.1-0.3-0.3-0.5-0.5-0.7c-0.2-0.1-0.4-0.2-0.7-0.2c-0.3,0-0.6,0.2-0.9,0.4c-0.4,0.4-0.7,0.9-0.9,1.4
					c-0.1,0.3-0.3,0.6-0.4,0.9C863.9,283.1,863.8,283.3,864.1,283.5z"/>
				<path id="路径_16731" class="st2" d="M866.1,284.1c1,0,2.2-0.2,2.3-0.9c0.1-0.5-0.8-1.8-1-2.3c-0.1-0.3-0.3-0.5-0.5-0.7
					c-0.2-0.1-0.4-0.2-0.7-0.2c0.4,0.3,0.6,0.8,0.7,1.3c0.1,0.6,0.2,1.3-0.1,1.9C866.5,283.5,866.3,283.8,866.1,284.1z"/>
			</g>
		</g>
		<g id="组_5888" transform="translate(-12 -10.767)">
			<path id="路径_16732" class="st0" d="M848,274c-0.4,0.1-0.9,0.4-1.3,0.5c-0.4,0.1-0.8,0.1-1.2,0.1c-0.6,0-1.2,0-1.7-0.4
				c-0.2-0.1-0.4-0.2-0.6-0.3c-0.8-0.3-1.1-1.3-0.6-2c0.1-0.1,0.1-0.2,0.2-0.2c0.1,0,0.2-0.1,0.2-0.1c0.4-0.1,0.7-0.5,1.1-0.6
				c0.4-0.1,0.8-0.2,1.2-0.2c0.5,0,0.9-0.1,1.4,0c0.5,0.1,1,0.3,1.4,0.7c0.3,0.2,0.5,0.4,0.7,0.7C849.3,272.9,848.7,273.8,848,274z"
				/>
			<path id="路径_16733" class="st1" d="M845.5,274.5L845.5,274.5h-0.2c-0.6,0-1,0-1.5-0.3c-0.2-0.1-0.4-0.2-0.6-0.3l-0.1,0
				c-0.3-0.1-0.6-0.4-0.7-0.8c-0.1-0.3,0-0.6,0.2-0.9c0.1-0.1,0.2-0.2,0.3-0.2l0.1,0c0.2-0.1,0.5-0.2,0.7-0.4
				c0.1-0.1,0.3-0.2,0.5-0.3c0.4-0.1,0.8-0.2,1.2-0.2c0.1,0,0.3,0,0.4,0c0.2,0,0.4,0,0.6,0c0.1,0,0.2,0,0.3,0
				c0.5,0.1,0.9,0.3,1.3,0.6c0.3,0.2,0.5,0.4,0.7,0.6c0.2,0.2,0.2,0.5,0.1,0.8c-0.1,0.4-0.4,0.6-0.8,0.7c-0.2,0.1-0.4,0.1-0.6,0.2
				c-0.2,0.1-0.4,0.2-0.7,0.2C846.3,274.4,845.9,274.5,845.5,274.5z"/>
			<path id="路径_16734" class="st2" d="M845.5,274.3L845.5,274.3h-0.2c-0.6,0-1,0-1.4-0.3c-0.2-0.1-0.4-0.2-0.6-0.3l-0.1,0
				c-0.3-0.1-0.5-0.3-0.5-0.6c-0.1-0.2,0-0.5,0.1-0.7c0,0,0.1-0.1,0.1-0.1c0,0,0.1,0,0.1,0c0,0,0,0,0.1,0c0.3-0.1,0.5-0.2,0.7-0.4
				c0.1-0.1,0.3-0.2,0.4-0.3c0.3-0.1,0.7-0.2,1.1-0.2c0.1,0,0.3,0,0.4,0c0.2,0,0.4,0,0.6,0c0.1,0,0.2,0,0.3,0
				c0.4,0.1,0.8,0.3,1.2,0.6c0.2,0.2,0.4,0.3,0.6,0.6c0.1,0.2,0.1,0.4,0.1,0.6c-0.1,0.3-0.4,0.5-0.7,0.6c-0.2,0.1-0.4,0.1-0.6,0.2
				c-0.2,0.1-0.4,0.2-0.6,0.2C846.2,274.2,845.9,274.3,845.5,274.3z"/>
			<path id="路径_16735" class="st3" d="M842.8,273.1c0-0.1,0.1-0.1,0.1-0.2c0,0,0.1-0.1,0.1-0.1c0,0,0.1,0,0.1,0c0,0,0,0,0.1,0
				c0.3-0.1,0.5-0.2,0.7-0.4c0.1-0.1,0.3-0.2,0.4-0.3c0.3-0.1,0.7-0.2,1.1-0.2c0.1,0,0.3,0,0.4,0c0.2,0,0.4,0,0.6,0
				c0.1,0,0.2,0,0.3,0c0.4,0.1,0.8,0.3,1.2,0.6c0.2,0.2,0.4,0.3,0.6,0.6c0,0,0,0,0,0.1c0,0,0,0,0,0c0.1-0.2,0.1-0.4-0.1-0.6
				c-0.2-0.2-0.4-0.4-0.6-0.6c-0.3-0.3-0.7-0.5-1.2-0.6c-0.1,0-0.2,0-0.3,0c-0.2,0-0.4,0-0.6,0c-0.1,0-0.3,0-0.4,0
				c-0.4,0-0.7,0-1.1,0.2c-0.1,0.1-0.3,0.2-0.4,0.3c-0.2,0.2-0.5,0.3-0.7,0.4c0,0,0,0-0.1,0c0,0-0.1,0-0.1,0c0,0-0.1,0.1-0.1,0.1
				C842.7,272.5,842.7,272.8,842.8,273.1C842.7,273,842.8,273.1,842.8,273.1z"/>
			<path id="路径_16736" class="st4" d="M842.9,272.6c0,0,0.1-0.1,0.1-0.1c0,0,0.1,0,0.1,0c0,0,0,0,0.1,0c0.3-0.1,0.5-0.2,0.7-0.4
				c0.1-0.1,0.3-0.2,0.4-0.3c0.3-0.1,0.7-0.2,1.1-0.2c0.1,0,0.3,0,0.4,0c0.2,0,0.4,0,0.6,0c0.1,0,0.2,0,0.3,0
				c0.4,0.1,0.8,0.3,1.2,0.6c0.2,0.2,0.4,0.3,0.6,0.6c0,0.1,0.1,0.1,0.1,0.2c0-0.2,0-0.3-0.1-0.5c-0.2-0.2-0.4-0.4-0.6-0.6
				c-0.3-0.3-0.7-0.5-1.2-0.6c-0.1,0-0.2,0-0.3,0c-0.2,0-0.4,0-0.6,0c-0.1,0-0.3,0-0.4,0c-0.4,0-0.7,0-1.1,0.2
				c-0.2,0.1-0.3,0.2-0.4,0.3c-0.2,0.2-0.5,0.3-0.7,0.4c0,0,0,0-0.1,0c0,0-0.1,0-0.1,0c0,0-0.1,0.1-0.1,0.1
				c-0.1,0.2-0.2,0.4-0.1,0.6C842.7,272.8,842.8,272.7,842.9,272.6z"/>
			<path id="路径_16737" class="st5" d="M845.6,274.3L845.6,274.3c-0.5,0-0.7,0-0.9-0.2c-0.2-0.1-0.3-0.2-0.5-0.2l0,0
				c-0.1-0.1-0.2-0.2-0.2-0.3c0-0.1,0-0.2,0.1-0.3c0,0,0,0,0,0h0l0,0c0.2-0.1,0.4-0.2,0.6-0.3c0.1-0.1,0.2-0.1,0.3-0.2
				c0.2-0.1,0.4-0.1,0.7-0.1c0.1,0,0.2,0,0.3,0c0.1,0,0.3,0,0.4,0c0.1,0,0.1,0,0.2,0c0.3,0.1,0.5,0.2,0.7,0.4
				c0.1,0.1,0.3,0.2,0.4,0.3c0,0.1,0.1,0.2,0,0.2c-0.1,0.1-0.2,0.2-0.3,0.3c-0.2,0-0.3,0.1-0.5,0.2c-0.1,0.1-0.3,0.1-0.4,0.1
				C846.1,274.2,845.8,274.3,845.6,274.3L845.6,274.3z"/>
			<path id="路径_16738" class="st6" d="M845.6,274.2L845.6,274.2c-0.2,0-0.4,0-0.5-0.1c-0.1-0.1-0.2-0.1-0.3-0.1l0,0
				c-0.1,0-0.1-0.1-0.1-0.2c0-0.1,0-0.1,0-0.2l0,0l0,0l0,0c0.1,0,0.2-0.1,0.3-0.2c0,0,0.1-0.1,0.2-0.1c0.1,0,0.3-0.1,0.4-0.1
				c0.1,0,0.1,0,0.2,0c0.1,0,0.2,0,0.2,0c0,0,0.1,0,0.1,0c0.2,0,0.3,0.1,0.4,0.2c0.1,0.1,0.2,0.1,0.2,0.2c0,0,0,0.1,0,0.1
				c0,0.1-0.1,0.1-0.2,0.2c-0.1,0-0.2,0.1-0.3,0.1c-0.1,0-0.2,0.1-0.2,0.1C845.9,274.2,845.8,274.2,845.6,274.2L845.6,274.2z"/>
		</g>
		<g id="组_5898" transform="translate(2.924 6)">
			<g id="组_5891">
				<g>
					<defs>
						<path id="SVGID_1_" d="M829.1,227.7L829.1,227.7c-0.5,0-0.9,0.1-1.2,0.4c-0.4,0.2-0.7,0.6-1,0.9c-0.3,0.4-0.5,0.9-0.6,1.4
							c-0.3,1.1-0.3,2.2,0,3.3c0.1,0.5,0.4,0.9,0.6,1.4c0.3,0.4,0.6,0.7,1,0.9c0.4,0.2,0.8,0.3,1.2,0.3l3,0c-0.4,0-0.8-0.1-1.2-0.3
							c-0.4-0.2-0.7-0.5-1-0.9c-0.3-0.4-0.5-0.9-0.6-1.3c-0.3-1.1-0.3-2.2,0-3.3c0.1-0.5,0.4-0.9,0.6-1.4c0.3-0.4,0.6-0.7,1-0.9
							c0.4-0.2,0.8-0.3,1.2-0.4h0.1L829.1,227.7L829.1,227.7z"/>
					</defs>
					<clipPath id="SVGID_00000004522578403440371410000006107535907369896126_">
						<use xlink:href="#SVGID_1_"  style="overflow:visible;"/>
					</clipPath>
					<g id="组_5890" style="clip-path:url(#SVGID_00000004522578403440371410000006107535907369896126_);">
						<g id="组_5889">
							
								<image style="overflow:visible;enable-background:new    ;" width="105" height="247" id="矩形_5" xlink:href="440097D4.png"  transform="matrix(5.781977e-02 0 0 5.781977e-02 825.9576 225.8988)">
							</image>
						</g>
					</g>
				</g>
			</g>
			<g id="组_5894">
				<g>
					<defs>
						<path id="SVGID_00000162319160537928187980000015317042387744470949_" d="M836.3,229.5c-0.2-0.7-0.6-1.4-1-2.1
							c-0.4-0.6-0.9-1-1.4-1.4c-0.5-0.3-1.1-0.5-1.8-0.5l-3-0.1c0.6,0,1.2,0.2,1.8,0.5c0.6,0.4,1.1,0.9,1.4,1.4
							c0.4,0.6,0.8,1.3,1,2.1c0.3,0.8,0.4,1.7,0.4,2.6c0,1.2-0.2,2.6-0.6,4c-0.4,1.4-1,2.9-1.6,4.2c-0.6,1.3-1.2,2.5-1.7,3.4
							c-0.5,0.9-0.8,1.5-0.9,1.6l3-0.1c0.1-0.1,0.4-0.7,0.9-1.5c0.5-0.9,1.1-2.1,1.7-3.4c0.6-1.4,1.1-2.8,1.6-4.2
							c0.4-1.4,0.7-2.8,0.6-4C836.7,231.1,836.6,230.3,836.3,229.5z"/>
					</defs>
					<clipPath id="SVGID_00000172433670204663231640000011011970113325603478_">
						<use xlink:href="#SVGID_00000162319160537928187980000015317042387744470949_"  style="overflow:visible;"/>
					</clipPath>
					<g id="组_5893" style="clip-path:url(#SVGID_00000172433670204663231640000011011970113325603478_);">
						<g id="组_5892">
							
								<image style="overflow:visible;enable-background:new    ;" width="154" height="444" id="矩形_6" xlink:href="440097D5.png"  transform="matrix(5.781977e-02 0 0 5.781977e-02 827.9813 222.6609)">
							</image>
						</g>
					</g>
				</g>
			</g>
			<g id="组_5896">
				
					<linearGradient id="路径_16741_00000080916949544099085760000010897697454081687951_" gradientUnits="userSpaceOnUse" x1="328.5426" y1="620.7372" x2="328.2058" y2="620.6451" gradientTransform="matrix(38.9008 0 0 -82.3229 -11946.1973 51332.875)">
					<stop  offset="0" style="stop-color:#DF4343"/>
					<stop  offset="0.17" style="stop-color:#D73F40"/>
					<stop  offset="0.428" style="stop-color:#C23638"/>
					<stop  offset="0.739" style="stop-color:#A0272B"/>
					<stop  offset="1" style="stop-color:#7F191E"/>
				</linearGradient>
				<path id="路径_16741" style="fill:url(#路径_16741_00000080916949544099085760000010897697454081687951_);" d="M833.8,232
					c0-0.9-0.2-1.8-0.4-2.6c-0.2-0.8-0.6-1.5-1-2.1c-0.4-0.6-0.9-1-1.5-1.4c-0.5-0.3-1.2-0.5-1.8-0.5c-0.6,0-1.3,0.2-1.8,0.6
					c-0.6,0.4-1.1,0.9-1.5,1.4c-0.4,0.6-0.8,1.4-1,2.1c-0.2,0.8-0.4,1.7-0.4,2.6c0,1.4,0.3,2.9,0.7,4.2c0.4,1.4,0.9,2.8,1.5,4.2
					c0.6,1.3,1.1,2.4,1.6,3.3c0.4,0.8,0.8,1.4,0.8,1.5c0.1-0.1,0.4-0.7,0.9-1.6s1.1-2.1,1.7-3.4c0.6-1.4,1.1-2.8,1.6-4.2
					C833.6,234.6,833.8,233.2,833.8,232z M831.8,233.7c-0.1,0.5-0.4,1-0.7,1.4c-0.3,0.4-0.6,0.7-1,0.9c-0.7,0.4-1.6,0.4-2.4,0
					c-0.4-0.2-0.7-0.5-1-0.9c-0.3-0.4-0.5-0.9-0.6-1.4c-0.3-1.1-0.3-2.2,0-3.3c0.1-0.5,0.4-0.9,0.6-1.4c0.3-0.4,0.6-0.7,1-0.9
					c0.4-0.2,0.8-0.3,1.2-0.4c0.4,0,0.8,0.1,1.2,0.3c0.4,0.2,0.7,0.5,1,0.9c0.3,0.4,0.5,0.9,0.7,1.4
					C832.2,231.4,832.2,232.6,831.8,233.7L831.8,233.7z"/>
				<g>
					<defs>
						<path id="SVGID_00000032638702555359605480000014233932436437030074_" d="M833.8,232c0-0.9-0.2-1.8-0.4-2.6
							c-0.2-0.8-0.6-1.5-1-2.1c-0.4-0.6-0.9-1-1.5-1.4c-0.5-0.3-1.2-0.5-1.8-0.5c-0.6,0-1.3,0.2-1.8,0.6c-0.6,0.4-1.1,0.9-1.5,1.4
							c-0.4,0.6-0.8,1.4-1,2.1c-0.2,0.8-0.4,1.7-0.4,2.6c0,1.4,0.3,2.9,0.7,4.2c0.4,1.4,0.9,2.8,1.5,4.2c0.6,1.3,1.1,2.4,1.6,3.3
							c0.4,0.8,0.8,1.4,0.8,1.5c0.1-0.1,0.4-0.7,0.9-1.6s1.1-2.1,1.7-3.4c0.6-1.4,1.1-2.8,1.6-4.2
							C833.6,234.6,833.8,233.2,833.8,232z M831.8,233.7c-0.1,0.5-0.4,1-0.7,1.4c-0.3,0.4-0.6,0.7-1,0.9c-0.7,0.4-1.6,0.4-2.4,0
							c-0.4-0.2-0.7-0.5-1-0.9c-0.3-0.4-0.5-0.9-0.6-1.4c-0.3-1.1-0.3-2.2,0-3.3c0.1-0.5,0.4-0.9,0.6-1.4c0.3-0.4,0.6-0.7,1-0.9
							c0.4-0.2,0.8-0.3,1.2-0.4c0.4,0,0.8,0.1,1.2,0.3c0.4,0.2,0.7,0.5,1,0.9c0.3,0.4,0.5,0.9,0.7,1.4
							C832.2,231.4,832.2,232.6,831.8,233.7L831.8,233.7z"/>
					</defs>
					<clipPath id="SVGID_00000170250284059321842820000011489554517777325975_">
						<use xlink:href="#SVGID_00000032638702555359605480000014233932436437030074_"  style="overflow:visible;"/>
					</clipPath>
					<g id="组_5895" style="clip-path:url(#SVGID_00000170250284059321842820000011489554517777325975_);">
						
							<linearGradient id="路径_16742_00000046325357357676902430000015992223954175253412_" gradientUnits="userSpaceOnUse" x1="325.5012" y1="620.9762" x2="325.6764" y2="620.8574" gradientTransform="matrix(57.035 0 0 -90.5861 -17741.4199 56477.5547)">
							<stop  offset="0" style="stop-color:#FFFFFF"/>
							<stop  offset="1" style="stop-color:#040000"/>
						</linearGradient>
						
							<path id="路径_16742" style="opacity:0.5;fill:url(#路径_16742_00000046325357357676902430000015992223954175253412_);enable-background:new    ;" d="
							M835.7,222.3c0,0-10.3,22.1-10.5,21.8s-3.2-16.2-3.2-16.2l5-5.2L835.7,222.3z"/>
					</g>
				</g>
			</g>
			<g id="组_5897">
				
					<linearGradient id="路径_16744_00000119835449544078814060000005253181369646027437_" gradientUnits="userSpaceOnUse" x1="331.6527" y1="620.8359" x2="331.6488" y2="620.5717" gradientTransform="matrix(28.1597 0 0 -82.3289 -8508.8145 51336.6094)">
					<stop  offset="0.106" style="stop-color:#040000"/>
					<stop  offset="0.15" style="stop-color:#443131"/>
					<stop  offset="0.203" style="stop-color:#896767"/>
					<stop  offset="0.247" style="stop-color:#BC8F8E"/>
					<stop  offset="0.281" style="stop-color:#DCA7A6"/>
					<stop  offset="0.299" style="stop-color:#E8B1B0"/>
					<stop  offset="0.349" style="stop-color:#B28786"/>
					<stop  offset="0.404" style="stop-color:#7D5E5D"/>
					<stop  offset="0.458" style="stop-color:#513C3C"/>
					<stop  offset="0.511" style="stop-color:#302221"/>
					<stop  offset="0.56" style="stop-color:#170F0F"/>
					<stop  offset="0.605" style="stop-color:#090303"/>
					<stop  offset="0.643" style="stop-color:#040000"/>
					<stop  offset="1" style="stop-color:#040000"/>
				</linearGradient>
				<path id="路径_16744" style="fill:url(#路径_16744_00000119835449544078814060000005253181369646027437_);" d="M833.8,232
					c0-0.9-0.2-1.8-0.4-2.6c-0.2-0.8-0.6-1.5-1-2.1c-0.4-0.6-0.9-1-1.5-1.4c-0.5-0.3-1.2-0.5-1.8-0.5c-0.6,0-1.3,0.2-1.8,0.6
					c-0.1,0-0.2,0.1-0.2,0.2c0.5-0.3,1.2-0.5,1.8-0.5c0.6,0,1.3,0.2,1.8,0.5c0.6,0.4,1.1,0.8,1.5,1.4c0.4,0.6,0.8,1.4,1,2.1
					c0.3,0.8,0.4,1.7,0.4,2.6c0,1.2-0.2,2.6-0.6,4c-0.4,1.4-1,2.9-1.6,4.2c-0.6,1.3-1.2,2.5-1.7,3.4c-0.3,0.6-0.5,1-0.7,1.3
					c0,0.1,0.1,0.1,0.1,0.1c0.1-0.1,0.4-0.7,0.9-1.6c0.5-0.9,1.1-2.1,1.7-3.4c0.6-1.4,1.1-2.8,1.6-4.2
					C833.6,234.6,833.8,233.2,833.8,232z"/>
				
					<linearGradient id="路径_16745_00000115484880524669097390000005252048524426596533_" gradientUnits="userSpaceOnUse" x1="338.4771" y1="616.3646" x2="338.6192" y2="616.1299" gradientTransform="matrix(18.317 0 0 -34.197 -5373.7676 21306.5)">
					<stop  offset="0.153" style="stop-color:#040000"/>
					<stop  offset="0.261" style="stop-color:#3D1E1E"/>
					<stop  offset="0.405" style="stop-color:#824444"/>
					<stop  offset="0.526" style="stop-color:#B5605F"/>
					<stop  offset="0.616" style="stop-color:#D57170"/>
					<stop  offset="0.666" style="stop-color:#E17877"/>
					<stop  offset="0.7" style="stop-color:#D16F6E"/>
					<stop  offset="0.766" style="stop-color:#A75857"/>
					<stop  offset="0.858" style="stop-color:#633333"/>
					<stop  offset="0.971" style="stop-color:#070101"/>
					<stop  offset="0.975" style="stop-color:#040000"/>
				</linearGradient>
				<path id="路径_16745" style="fill:url(#路径_16745_00000115484880524669097390000005252048524426596533_);" d="M826.9,229
					c0.2-0.3,0.5-0.6,0.8-0.8c0,0,0,0,0,0c-0.4,0.2-0.7,0.6-1,0.9c-0.3,0.4-0.5,0.9-0.6,1.4c-0.3,1.1-0.3,2.2,0,3.3
					c0.1,0.5,0.4,0.9,0.6,1.4c0.3,0.4,0.6,0.7,1,0.9c0.7,0.4,1.6,0.5,2.4,0c0.1,0,0.2-0.1,0.2-0.2c-0.7,0.4-1.6,0.4-2.3,0
					c-0.4-0.2-0.7-0.5-1-0.9c-0.3-0.4-0.5-0.9-0.6-1.4c-0.3-1.1-0.3-2.2,0-3.3C826.4,229.9,826.6,229.4,826.9,229z"/>
			</g>
		</g>
	</g>
	<g id="组_5917" transform="translate(-628.966 -80.755)">
		<g id="组_5900" transform="translate(834.508 441.362)">
			<path id="路径_16746" class="st52" d="M-32.3-94.5c-0.1,0.2-0.2,0.4-0.3,0.6c-0.1,0.2-0.1,0.3,0.1,0.3h0.8
				c0.2,0,0.2-0.1,0.2-0.2c0-0.2,0-0.3,0-0.5c0-0.2,0-0.3,0-0.4C-31.6-95.1-32.2-95.1-32.3-94.5z"/>
		</g>
		<g id="组_5901" transform="translate(843.479 442.163)">
			<path id="路径_16747" class="st52" d="M-39.5-94.5h0.7c0-0.1,0-0.1,0-0.1c0.3,0,0.5,0.1,1,0.1h0.9c0.1,0,0.1,0,0.1,0
				c0-0.1-0.1-0.2-0.3-0.3c-0.3-0.1-0.5-0.1-0.7-0.2c-0.3-0.2-0.4-0.5-0.6-0.6c-0.1-0.1-0.2,0.2-0.6,0.2c-0.3,0-0.3-0.2-0.4-0.1
				C-39.5-95.3-39.5-94.7-39.5-94.5z"/>
		</g>
		<g id="组_5902" transform="translate(841.512 405.48)">
			<path id="路径_16748" class="st52" d="M-35.7-66.2c0-0.5,0-1-0.1-1.5h-1.9c-0.1,0.2-0.2,0.5-0.2,0.8c-0.1,1.1,0.4,3.2,0.4,4.4
				c-0.1,1.2,0,2.5,0.2,3.7c0,0.1,0.1,0.2,0.4,0.2c0.2,0,0.6-0.1,0.7-0.3c0.2-0.6,0-2.2,0.2-3.5C-36-63.7-35.8-65-35.7-66.2z"/>
		</g>
		<g id="组_5903" transform="translate(833.866 405.48)">
			<path id="路径_16749" class="st52" d="M-29.8-67.8h-2.4c0,0,0,0.4,0,1c0,1,0.3,3.5,0.2,4.1c-0.1,1.3,0,2.5,0.2,3.8
				c0.1,0.4,0.8,0.2,0.9,0c0.1-0.3,0.1-2.3,0.2-3.6c0.1-2,0.9-3.7,0.8-4.9C-29.8-67.6-29.8-67.7-29.8-67.8z"/>
		</g>
		<g id="组_5904" transform="translate(838.327 370.466)">
			<path id="路径_16750" class="st53" d="M-33.9-40c0,0.2-0.1,0.4-0.2,0.6c-0.1,0.2-0.1,0.7-0.4,0.8c-0.3,0.1-0.6,0-0.7-0.3
				c0,0,0-0.1,0-0.1c-0.1-0.3-0.2-0.6-0.3-0.8c-0.1-0.2-0.1-0.5-0.1-0.8c0.1-0.3,0.3-0.5,0.7-0.6c0.4-0.1,0.9,0.1,1,0.5
				C-33.8-40.4-33.8-40.2-33.9-40z"/>
		</g>
		<g id="组_5905" transform="translate(838.248 370.104)">
			<path id="路径_16751" class="st52" d="M-34-39.4c0,0.4-0.4,0.5-0.9,0.5c-0.4,0-0.6-0.3-0.6-0.7c0-0.1-0.2-0.7,0.1-1
				c0.3-0.3,0.8-0.4,1.2-0.1c0.1,0,0.1,0.1,0.2,0.2C-33.8-40.2-33.9-39.8-34-39.4z"/>
		</g>
		<g id="组_5906" transform="translate(845.351 372.984)">
			<path id="路径_16752" class="st52" d="M-40.8-42.8c0,0.2,0,0.3-0.1,0.3S-40.9-42.6-40.8-42.8c-0.1-0.2-0.1-0.3,0-0.3
				C-40.8-43.1-40.8-43-40.8-42.8z"/>
		</g>
		<g id="组_5907" transform="translate(838.394 373.407)">
			<path id="路径_16753" class="st54" d="M-34.2-42.9c0,0.2-0.2,0.4-0.4,0.4c-0.2,0-0.4,0-0.6,0c-0.2,0-0.3-0.1-0.3-0.2
				c0-0.1,0-0.1,0-0.2c0,0,0-0.1,0-0.1c0,0,0.1,0.2,0.3,0.3c0.2,0,0.5,0,0.7,0c0.2,0,0.2-0.3,0.3-0.5c0.1-0.1,0.1-0.1,0.2-0.2
				C-34-43.5-34.2-43-34.2-42.9z"/>
		</g>
		<g id="组_5908" transform="translate(839.985 384.68)">
			<path id="路径_16754" class="st55" d="M-31.7-49.1c-1.1,0.6-4.3,0.3-5.1-0.6c0.3-0.6,0.8-1.8,1.1-2.3c1.5,1.3,4.7,0.5,5.8,0
				C-30.3-51.4-31.4-49.6-31.7-49.1z"/>
		</g>
		<g id="组_5909" transform="translate(862.348 390.054)">
			<path id="路径_16755" class="st53" d="M-52.9-55.4c0,0.1,0,0.2-0.1,0.3c-0.1,0.1-0.2,0.3-0.3,0.3c-0.2,0-0.5-0.2-0.5-0.4
				c0-0.2,0.4-0.8,0.8-0.7c0.1,0,0.1,0.1,0.1,0.2c0,0.1,0.1,0.1,0.1,0.1c0,0.1,0,0.2,0,0.2C-52.9-55.5-52.9-55.5-52.9-55.4z"/>
		</g>
		<g id="组_5910" transform="translate(837.416 378.404)">
			<path id="路径_16756" class="st56" d="M-33.1-46.9c0.1,0.1,0.1,0.2,0,0.3c-0.2,0.1-1.5,0.1-1.7,0.1c-0.2,0-0.1-0.2,0-0.4
				c0.1-0.2,0.5-0.3,0.9-0.3S-33.2-47.1-33.1-46.9z"/>
		</g>
		<g id="组_5911" transform="translate(828.666 381.917)">
			<path id="路径_16757" class="st56" d="M-26.6-45.5c-0.7,0.2-1.5,0.4-1.6-0.4c-0.1-0.9,0.3-2.3,0.4-2.7c0.2-0.6,0.5-1.2,0.8-1.2
				c0.4,0,0.4,0.3,0.3,1.3C-26.7-47.4-25.8-45.8-26.6-45.5z"/>
		</g>
		<g id="组_5912" transform="translate(845.593 381.502)">
			<path id="路径_16758" class="st56" d="M-36.9-46.9c0.2,0,0.4,0.1,0.4,0.2c0.1,0.2,0,0.5-0.2,0.7c-0.4,0.2-1.8,1-2.5,0.3
				c-0.2-0.2-0.5-0.5-0.7-0.8c-0.1-0.1-0.2,0.1-0.4,0.1c-0.5-0.2-1.2-2.6-0.6-3c0.3-0.3,0.9,0,1.5,0.8c0.4,0.6,0.9,1.5,1.2,1.9
				C-37.9-46.5-37.4-46.9-36.9-46.9z"/>
		</g>
		<g id="组_5913" transform="translate(832.108 380.343)">
			<path id="路径_16759" class="st57" d="M-26.4-42.5h-4.2c-0.1,0-0.2,0-0.2-0.2c0-0.3,0.1-1,0.1-1.7c0-1.1-0.2-2-0.2-2.6
				c0-0.5,0-1,0.3-1.2c0.4-0.3,1.1-0.4,2.2-0.4c0.6,0,1.2,0.1,1.7,0.4c-0.2,0-0.3,0.5-0.3,1.2c0,0.6,0.1,1.1,0.3,1.7
				c0.2,0.4,0.4-0.2,0.4,0.2c0,0.9,0.1,1.9,0.1,2.5C-26.2-42.6-26.3-42.5-26.4-42.5z"/>
		</g>
		<g id="组_5914" transform="translate(832.963 395.75)">
			<path id="路径_16760" class="st54" d="M-27.2-60h-4.3l0-0.4h4.3L-27.2-60z"/>
		</g>
		<g id="组_5915" transform="translate(832.759 400.599)">
			<path id="路径_16761" class="st54" d="M-26.9-63.6h-4.5l0-0.4h4.4L-26.9-63.6z"/>
		</g>
		<g id="组_5916" transform="translate(836.908 368.096)">
			<path id="路径_16762" class="st58" d="M-32.2-38.5c0,0-0.1-0.1-0.1-0.1c-0.2-0.6-0.8-0.9-1.4-0.7c0,0-0.1,0-0.1,0
				c-0.6,0.3-0.7,1-0.6,1.3c0,0.1,0,0.2,0.1,0.3c0,0.1,0.3,0.2,0.7,0.2c0.3,0,0.7-0.1,0.9-0.2c0,0,0-0.1,0.1-0.2
				c0-0.1,0.1-0.1,0.1-0.2c0.1-0.1,0.2-0.1,0.3-0.2C-32.1-38.5-32.2-38.5-32.2-38.5z"/>
		</g>
	</g>
</g>
</svg>
