<svg xmlns="http://www.w3.org/2000/svg" xmlns:xlink="http://www.w3.org/1999/xlink" width="32.03" height="41" viewBox="0 0 32.03 41">
  <defs>
    <radialGradient id="radial-gradient" cx="0.5" cy="0.5" r="0.5" gradientTransform="translate(0)" gradientUnits="objectBoundingBox">
      <stop offset="0" stop-color="#26b7c6"/>
      <stop offset="1" stop-color="#0c5971"/>
    </radialGradient>
    <radialGradient id="radial-gradient-2" cx="0.479" cy="-0.205" r="3.551" gradientTransform="translate(-0.037) scale(1.073 1)" gradientUnits="objectBoundingBox">
      <stop offset="0" stop-color="#cfc54c"/>
      <stop offset="1" stop-color="#8a8d29"/>
    </radialGradient>
    <radialGradient id="radial-gradient-3" cx="1.23" cy="1.126" r="3.078" gradientTransform="translate(-0.134) scale(1.267 1)" xlink:href="#radial-gradient-2"/>
    <radialGradient id="radial-gradient-4" cx="1.651" cy="0.352" r="1.789" gradientTransform="translate(-0.625) scale(2.25 1)" xlink:href="#radial-gradient-2"/>
    <radialGradient id="radial-gradient-5" cx="0.168" cy="0.493" r="2.227" gradientTransform="translate(0.057) scale(0.886 1)" xlink:href="#radial-gradient-2"/>
    <radialGradient id="radial-gradient-6" cx="-2.366" cy="-1.727" r="7.849" gradientTransform="translate(-0.059) scale(1.117 1)" xlink:href="#radial-gradient-2"/>
    <clipPath id="clip-path">
      <path id="路径_7217" data-name="路径 7217" d="M2692.264-48.355a1.572,1.572,0,0,1-1.51-.029,50.135,50.135,0,0,1,.429-7.443c.091-.855-.558-1.954-.061-2.78l1.8.015a11.656,11.656,0,0,1-.463,5.659c-.234,1.523.011,3.095-.2,4.578Z" fill="#05243d" clip-rule="evenodd"/>
    </clipPath>
    <clipPath id="clip-path-2">
      <path id="路径_7220" data-name="路径 7220" d="M2689.8-46.838a1.454,1.454,0,0,1-1.448-.065,45.585,45.585,0,0,1,.7-7.408c.153-.89-.61-2.018.021-2.842l2.416.106c.435,1.441-.432,3.207-.757,4.537-.756,1.832-.535,3.816-.933,5.672Z" fill="#05243d" clip-rule="evenodd"/>
    </clipPath>
    <clipPath id="clip-path-3">
      <path id="路径_7225" data-name="路径 7225" d="M2693.9-62.154c.3-.2.621-1.12,1.326-1.9l.716.453c-1.773,4.247-2.049,3.791-3.808.734-.152-.34-.315-1.76.728-1.017a16.644,16.644,0,0,0,1.038,1.733Z" fill="#def1f9" clip-rule="evenodd"/>
    </clipPath>
    <clipPath id="clip-path-4">
      <path id="路径_7228" data-name="路径 7228" d="M2692.867-63.876c-.642-1.043-3.73-.483-4.55,1.073a7.819,7.819,0,0,1,.428,6.047c.942.831,4.131-.121,4.595-.2-.032-.756-.238-2.074-.282-2.984a8.332,8.332,0,0,0-.021-3.2,1.247,1.247,0,0,0-.17-.734Z" fill="#def1f9" clip-rule="evenodd"/>
    </clipPath>
    <clipPath id="clip-path-5">
      <path id="路径_7232" data-name="路径 7232" d="M2690.173-66.516a1.285,1.285,0,0,0,.176,1.295l.017.97s.892.928,1.279.061l-.025-.515.433-.436c.075-.485.505-2.43-.905-2.232-.048,0-.693.295-.693.295l-.282.562Z" fill="#eec1a8" clip-rule="evenodd"/>
    </clipPath>
    <clipPath id="clip-path-6">
      <path id="路径_7243" data-name="路径 7243" d="M2690.1-56.478l-.834.664a31.109,31.109,0,0,1-2.009-3.305.384.384,0,0,1-.054-.322l.881-3.1c.164-.513.792-1.108,1.271-.627a.764.764,0,0,1,.183,1.024,24.863,24.863,0,0,0-1.089,2.841c.341.561,1.383,2.548,1.651,2.825Z" fill="#def1f9" clip-rule="evenodd"/>
    </clipPath>
    <clipPath id="clip-path-7">
      <path id="路径_7251" data-name="路径 7251" d="M2707.757-60.616c-.409,1.739-.017,3.653-.073,5.6a5.611,5.611,0,0,0,4.649.344,19.5,19.5,0,0,0-.878-5.55l-3.7-.391Z" fill="#e75740" clip-rule="evenodd"/>
    </clipPath>
    <clipPath id="clip-path-8">
      <path id="路径_7261" data-name="路径 7261" d="M2710.127-59.64a1.8,1.8,0,0,0,1.739-.549,6.243,6.243,0,0,1-.55-3.154,3.173,3.173,0,0,0-.167-2.9c-1.1-.229-.764.028-.823.608l.185,2.733-.384,3.261Z" fill="#67b1bf" clip-rule="evenodd"/>
    </clipPath>
    <clipPath id="clip-path-9">
      <path id="路径_7264" data-name="路径 7264" d="M2709.126-66.081s-.145-.087-.77.167c-.669.4-.178,2.412-.155,3.215a4.667,4.667,0,0,1-.9,2.3,9.616,9.616,0,0,0,2,.635,26.7,26.7,0,0,1-.175-6.32Z" fill="#67b1bf" clip-rule="evenodd"/>
    </clipPath>
    <clipPath id="clip-path-10">
      <path id="路径_7267" data-name="路径 7267" d="M2710.338-65.826l.081-.629h0c.7-.164.753-1.53.583-2.081-.055-.3-.5-.1-.714-.043a1.458,1.458,0,0,1-.546.412,1.09,1.09,0,0,0-.122.415c-.134.168-.122.588-.17.785a1.621,1.621,0,0,0-.115-.6,3.039,3.039,0,0,1-.209,1.486c.43.581.79.592,1.212.255Z" fill="#f3adae" clip-rule="evenodd"/>
    </clipPath>
    <clipPath id="clip-path-11">
      <path id="路径_7270" data-name="路径 7270" d="M2709.4-66.887c.164-.039.051-.364.25-.538a2.733,2.733,0,0,0,1.178-.915,1.584,1.584,0,0,1,.231.827c.872-.856-.385-1.944-1.343-1.658a1.265,1.265,0,0,0-.316,2.284Z" fill="#825846" clip-rule="evenodd"/>
    </clipPath>
  </defs>
  <g id="mo_btn3-1" transform="translate(-2681.206 85.559)">
    <g id="组_9266" data-name="组 9266">
      <g id="组_9222" data-name="组 9222" opacity="0.2">
        <path id="路径_7174" data-name="路径 7174" d="M2690.238-53.753c0-.03.075-.053.169-.053h3.255c.094,0,.169.023.169.053s-.075.053-.169.053h-3.255C2690.313-53.7,2690.238-53.724,2690.238-53.753Z" fill="#fcfbe9" opacity="0.6"/>
      </g>
      <g id="组_9225" data-name="组 9225" opacity="0.2">
        <g id="组_9223" data-name="组 9223">
          <path id="路径_7175" data-name="路径 7175" d="M2711.356-52.779a.31.31,0,0,1-.31-.309v-1.23a.31.31,0,0,1,.31-.31.31.31,0,0,1,.31.31v1.23A.31.31,0,0,1,2711.356-52.779Zm0-1.726a.187.187,0,0,0-.186.187v1.23a.185.185,0,0,0,.186.185.185.185,0,0,0,.186-.185v-1.23A.187.187,0,0,0,2711.356-54.505Z" fill="#fcfbe9" opacity="0.6"/>
        </g>
        <g id="组_9224" data-name="组 9224">
          <path id="路径_7176" data-name="路径 7176" d="M2711.356-53.044a.062.062,0,0,1-.062-.062v-1.2a.062.062,0,0,1,.062-.062.062.062,0,0,1,.062.062v1.2A.062.062,0,0,1,2711.356-53.044Z" fill="#fcfbe9" opacity="0.6"/>
        </g>
      </g>
      <g id="组_9252" data-name="组 9252">
        <g id="组_9248" data-name="组 9248">
          <g id="组_9247" data-name="组 9247" style="isolation: isolate">
            <g id="组_9227" data-name="组 9227">
              <g id="组_9226" data-name="组 9226">
                <path id="路径_7177" data-name="路径 7177" d="M2704.758-63.572l-.028,4.37-.97,1.947.027-4.37Z" fill="#ce4120"/>
              </g>
            </g>
            <g id="组_9229" data-name="组 9229">
              <g id="组_9228" data-name="组 9228">
                <path id="路径_7178" data-name="路径 7178" d="M2686.487-60.1l-.028,4.371-1.971-1.682.029-4.373Z" fill="#ce4120"/>
              </g>
            </g>
            <g id="组_9231" data-name="组 9231">
              <g id="组_9230" data-name="组 9230">
                <path id="路径_7179" data-name="路径 7179" d="M2707.436-59.6l-.027,2.948-2.746,1.232.026-2.95Z" fill="#ce4120"/>
              </g>
            </g>
            <g id="组_9232" data-name="组 9232">
              <path id="路径_7180" data-name="路径 7180" d="M2684.1-57.537l-.022,2.947a4.087,4.087,0,0,1-.373-1.328l.026-2.945A4.178,4.178,0,0,0,2684.1-57.537Z" fill="#df4f26"/>
            </g>
            <g id="组_9234" data-name="组 9234">
              <g id="组_9233" data-name="组 9233">
                <path id="路径_7181" data-name="路径 7181" d="M2687.388-56.832l-.027,2.951-3.282-.708.022-2.947Z" fill="#ce4120"/>
              </g>
            </g>
            <g id="组_9235" data-name="组 9235">
              <path id="路径_7182" data-name="路径 7182" d="M2706.658-56.679l-.027,2.95a6.748,6.748,0,0,1-1.046,1.188l.026-2.946A6.6,6.6,0,0,0,2706.658-56.679Z" fill="#df4f26"/>
            </g>
            <g id="组_9237" data-name="组 9237">
              <g id="组_9236" data-name="组 9236">
                <path id="路径_7183" data-name="路径 7183" d="M2705.611-55.487l-.026,2.947-3.5.051.03-2.946Z" fill="#ce4120"/>
              </g>
            </g>
            <g id="组_9238" data-name="组 9238">
              <path id="路径_7184" data-name="路径 7184" d="M2688.051-53.935l-.026,2.946c-.295-.138-.583-.29-.863-.453s-.532-.326-.772-.5l.027-2.945c.24.169.5.336.772.5S2687.758-54.077,2688.051-53.935Z" fill="#df4f26"/>
            </g>
            <g id="组_9239" data-name="组 9239">
              <path id="路径_7185" data-name="路径 7185" d="M2691.414-54.491l-.025,2.947-3.364.555.025-2.946Z" fill="#ce4120"/>
            </g>
            <g id="组_9240" data-name="组 9240">
              <path id="路径_7186" data-name="路径 7186" d="M2702.118-55.436l-.03,2.946-.109,2.029.028-2.948Z" fill="#ce4120"/>
            </g>
            <g id="组_9241" data-name="组 9241">
              <path id="路径_7187" data-name="路径 7187" d="M2702.006-53.409l-.028,2.948a16.756,16.756,0,0,1-2.059.6l.023-2.949A16.158,16.158,0,0,0,2702.006-53.409Z" fill="#df4f26"/>
            </g>
            <g id="组_9242" data-name="组 9242">
              <path id="路径_7188" data-name="路径 7188" d="M2699.942-52.807l-.024,2.949-2.9-1.154.025-2.944Z" fill="#ce4120"/>
            </g>
            <g id="组_9243" data-name="组 9243">
              <path id="路径_7189" data-name="路径 7189" d="M2692.613-52.584l-.027,2.949-1.2-1.909.025-2.947Z" fill="#ce4120"/>
            </g>
            <g id="组_9245" data-name="组 9245">
              <g id="组_9244" data-name="组 9244">
                <path id="路径_7190" data-name="路径 7190" d="M2697.04-53.956l-.025,2.944-2.142,1.591.029-2.946Z" fill="#ce4120"/>
              </g>
            </g>
            <g id="组_9246" data-name="组 9246">
              <path id="路径_7191" data-name="路径 7191" d="M2694.9-52.367l-.029,2.946a20,20,0,0,1-2.285-.214l.026-2.949A20.279,20.279,0,0,0,2694.9-52.367Z" fill="#df4f26"/>
            </g>
          </g>
        </g>
        <g id="组_9249" data-name="组 9249">
          <path id="路径_7192" data-name="路径 7192" d="M2685.565-62.971l3.5-.056.105-2.025a15.545,15.545,0,0,1,2.06-.6l2.9,1.143,2.132-1.587a19.352,19.352,0,0,1,2.3.22l1.19,1.908,3.366-.554c.292.139.578.292.853.449a9.191,9.191,0,0,1,.779.5l-.97,1.947,3.292.7a3.9,3.9,0,0,1,.356,1.328l-2.747,1.23,1.969,1.69a6.6,6.6,0,0,1-1.047,1.192l-3.493.051-.112,2.027a16.158,16.158,0,0,1-2.064.6l-2.9-1.149-2.139,1.589a20.279,20.279,0,0,1-2.288-.217l-1.2-1.907-3.363.556c-.293-.142-.583-.29-.862-.453s-.532-.328-.772-.5l.971-1.947-3.288-.7a4.178,4.178,0,0,1-.369-1.326l2.756-1.234-1.97-1.684A6.468,6.468,0,0,1,2685.565-62.971Zm15.722.452a12.579,12.579,0,0,0-11.414-.038c-3.15,1.815-3.141,4.781.009,6.616a12.6,12.6,0,0,0,11.428.037c3.149-1.818,3.136-4.782-.023-6.615Z" fill="#ea5f30"/>
        </g>
        <g id="组_9250" data-name="组 9250">
          <path id="路径_7193" data-name="路径 7193" d="M2689.882-55.941c-3.15-1.835-3.159-4.8-.009-6.616a12.579,12.579,0,0,1,11.414.038c3.159,1.833,3.172,4.8.023,6.615A12.6,12.6,0,0,1,2689.882-55.941Z" fill="#ce4120"/>
        </g>
        <g id="组_9251" data-name="组 9251">
          <path id="路径_7194" data-name="路径 7194" d="M2693.491-58.022a1.286,1.286,0,0,1,0-2.432,4.627,4.627,0,0,1,4.194.017,1.282,1.282,0,0,1,.01,2.428A4.626,4.626,0,0,1,2693.491-58.022Z" fill="#1b5a8a"/>
        </g>
      </g>
      <g id="组_9265" data-name="组 9265">
        <g id="组_9264" data-name="组 9264">
          <g id="组_9255" data-name="组 9255">
            <g id="组_9254" data-name="组 9254">
              <g id="组_9253" data-name="组 9253">
                <path id="路径_7195" data-name="路径 7195" d="M2695.69-56.572a14.506,14.506,0,0,1-14.484-14.494,14.5,14.5,0,0,1,14.484-14.491,14.505,14.505,0,0,1,14.484,14.491A14.506,14.506,0,0,1,2695.69-56.572Z" fill="url(#radial-gradient)"/>
              </g>
            </g>
          </g>
          <g id="组_9256" data-name="组 9256">
            <path id="路径_7196" data-name="路径 7196" d="M2681.206-71.066a14.467,14.467,0,0,0,.644,4.279c.02.007.041.017.06.022q.338.126.68.244a3.719,3.719,0,0,1,.53.241c.131.069.266.139.447.215.607.259.608.29.633,1.051V-65a.65.65,0,0,0,.17.384.352.352,0,0,1,.1.182,14.049,14.049,0,0,1,.021,1.643,4.266,4.266,0,0,1-.133.741,14.6,14.6,0,0,0,2.521,2.478l.036-.059c.073-.123.144-.245.21-.357l.006-.01c.115-.2.216-.373.29-.483.107-.157.211-.318.316-.48a10.7,10.7,0,0,1,.964-1.192l.068-.076c.1-.112.219-.235.346-.362.09-.091.19-.186.3-.285.522-.491,1.171-1.1,1.105-1.831-.075-.85-1.466-1.279-2.481-1.591l-.325-.1c-.252-.081-.469-.15-.606-.211a17.621,17.621,0,0,1-2.26-1.209l-.054-.033c-.047-.028-.109-.062-.18-.1a3.272,3.272,0,0,1-.6-.388,2.932,2.932,0,0,1,.841-.3c.088-.022.162-.042.221-.06l.178-.055c.1-.029.192-.048.284-.068a1.493,1.493,0,0,0,.8-.358.821.821,0,0,0,.235-.422.637.637,0,0,1,.1-.234,3.78,3.78,0,0,1,.548-.615.477.477,0,0,1,.223-.036.807.807,0,0,0,.426-.1,2.4,2.4,0,0,0,.946-1.549,1.255,1.255,0,0,0-.463-1.013c-.089-.09-.176-.183-.267-.279-.111-.118-.224-.236-.343-.352l.047.037a2.762,2.762,0,0,0,1.463.35,1.793,1.793,0,0,0,.968-.211,2.04,2.04,0,0,0,.643-1.313c.025-.113.048-.219.072-.3a5.327,5.327,0,0,1,.493-1.237,2.928,2.928,0,0,1,.432-.528,1.959,1.959,0,0,1,.268-.2,1.549,1.549,0,0,0,.485-.434,2.851,2.851,0,0,0,.226-1.806,2.22,2.22,0,0,1,.12-1.319.539.539,0,0,0,.056-.357c-.008-.07-.008-.093,0-.112a3.3,3.3,0,0,0,.7-1.793,2.239,2.239,0,0,0-1.485-2.131A14.516,14.516,0,0,0,2681.206-71.066Zm4.712-3.909c-.539,0-.726.51-.849.849a1.447,1.447,0,0,1-.185.393.841.841,0,0,1-.577.24.411.411,0,0,1-.337-.128.438.438,0,0,1,0-.363c.227-.662.535-1.342,1.093-1.371.041,0,.092-.007.151-.011.094-.008.213-.019.315-.019a.554.554,0,0,1,.111.008.687.687,0,0,1,.043.074.635.635,0,0,0,.26.3.7.7,0,0,0,.068.032C2685.979-74.973,2685.948-74.975,2685.918-74.975Zm1.341.785c-.084-.058-.19-.147-.293-.232a3.3,3.3,0,0,0-.654-.461.167.167,0,0,0-.033-.015.514.514,0,0,0,.055,0,.643.643,0,0,0,.581-.366,4.09,4.09,0,0,0,.731,1.389A3.551,3.551,0,0,0,2687.259-74.19ZM2686-79.521c.533.263,1.136.559,1.163,1.062a1.614,1.614,0,0,1-.237.781,2.714,2.714,0,0,0-.313.948,6.9,6.9,0,0,0-.838-.7c-.087-.064-.168-.125-.237-.18-.154-.119-.332-.232-.521-.35-.547-.346-1.064-.672-.981-1.118l.119-.632.487-.212a.938.938,0,0,1,.865.14C2685.657-79.692,2685.824-79.608,2686-79.521Z" fill="#26b7c6"/>
            <path id="路径_7197" data-name="路径 7197" d="M2707.609-79.29a.954.954,0,0,0-.425-.125h-.038a2.686,2.686,0,0,0-.4.065,1.978,1.978,0,0,1-.372.053.352.352,0,0,1-.076-.006.807.807,0,0,1-.248-.175,2.42,2.42,0,0,0-.205-.171l-.194-.393-.3.106a2.92,2.92,0,0,1-.892.1,2.606,2.606,0,0,0-.962.279c-.109.048-.211.091-.313.13a5.51,5.51,0,0,0-1,.478,5.01,5.01,0,0,0-.827.6,1.81,1.81,0,0,0-.274.377,1.383,1.383,0,0,1-.182.257c-.205.121-.407.109-.469-.019a.368.368,0,0,1,.095-.364,2.737,2.737,0,0,1,.383-.357c.392-.327.928-.772.814-1.437l-.036-.206-.2-.069a4.079,4.079,0,0,0-1.261-.278,1.134,1.134,0,0,0-.837.312,2.359,2.359,0,0,0-.459,1.5,9.507,9.507,0,0,1-.07,1.051,10.388,10.388,0,0,0-.074,1.11c0,.085,0,.166.008.241.016.3.016.3-.087.334-.2.065-.266.019-.509-.35l-.041-.064c-.054-.083-.109-.178-.158-.263-.233-.4-.522-.905-1.154-.905a1.292,1.292,0,0,0-.27.031,2.226,2.226,0,0,0-1.586,1.112,1.678,1.678,0,0,0-.135.536,1.592,1.592,0,0,1-.085.378c-.092.124-.2.248-.306.37a3.635,3.635,0,0,0-.6.847,1.414,1.414,0,0,0-.09.289c-.006.022-.015.064-.026.1l-.036-.037a.907.907,0,0,0-.486-.312.832.832,0,0,0-.805.272,2.194,2.194,0,0,0-.532,1.39,2.808,2.808,0,0,0,.984,1.819c-.026,0-.051-.006-.079-.006a1.431,1.431,0,0,0-1.158.59,5.417,5.417,0,0,0-.419,1.137,7.117,7.117,0,0,1-.243.746c-.586,1.382-.351,2.342.718,2.936a2.148,2.148,0,0,0,1.02.215c.161,0,.314-.009.463-.019a3.642,3.642,0,0,1,.507,0c.565.066.825.2.96.519a2.633,2.633,0,0,1-.069,1.494,5.013,5.013,0,0,0-.161,1.043,1.849,1.849,0,0,0,.422,1.4l.018.019a1.63,1.63,0,0,0,1.127.612,5.91,5.91,0,0,0,.663-.039c1.307-.169,1.446-1.414,1.538-2.24l.006-.053a3.365,3.365,0,0,1,.23-1.062,2.242,2.242,0,0,0,.16-.494,2.512,2.512,0,0,1,.117-.384,8.984,8.984,0,0,1,.807-1.593,2.314,2.314,0,0,1,.328-.345,1.516,1.516,0,0,0,.649-1.242,1.746,1.746,0,0,1,.24.253,1.446,1.446,0,0,1,.063.45c.02.427.058,1.221,1.111,1.221h.038c.953-.018,1.075-.835,1.157-1.377a1.376,1.376,0,0,1,.206-.682c.042-.042.069-.052.078-.052s.114.009.361.333c.168.226.168.226.115.58l0,.032a2.381,2.381,0,0,0,.654,2.151,2.83,2.83,0,0,1,.3.357c.177.238.33.443.539.443.194,0,.287-.208.376-.411.024-.051.058-.128.072-.148.342-.385.265-1.239.121-2.4a6.409,6.409,0,0,1-.073-.792,1.815,1.815,0,0,1,.536-.824c.115-.124.234-.254.351-.4a1.336,1.336,0,0,1,.266-.2,1.263,1.263,0,0,0,.335-.269,2.661,2.661,0,0,1,.7-.639c.11-.078.223-.16.345-.256a3.686,3.686,0,0,0,.837-1.08,2.772,2.772,0,0,1,.44-.548l.08-.083a.936.936,0,0,0,.149-.371c.02-.071.049-.174.065-.21a.925.925,0,0,0,.16-.235A14.418,14.418,0,0,0,2707.609-79.29ZM2695.766-69.3a5.138,5.138,0,0,0-.765.08,4.932,4.932,0,0,1-.716.078c-.4,0-.578-.121-.675-.448a.788.788,0,0,1,0-.157,1.135,1.135,0,0,0-.032-.448,11.536,11.536,0,0,0,1.8.738l.388.134.074.025Z" fill="#26b7c6"/>
            <path id="路径_7198" data-name="路径 7198" d="M2708.863-65.042l-.118-.022a1.146,1.146,0,0,0-.209-.019,2.767,2.767,0,0,1-.344-.029,3.679,3.679,0,0,0-.387-.03.94.94,0,0,0-.3.041l-.142.043a3.609,3.609,0,0,0-2.119,2.093,4.44,4.44,0,0,1-.287.426c-.462.644-1.094,1.526-.691,2.152a1.251,1.251,0,0,0,.773.378A14.59,14.59,0,0,0,2708.863-65.042Z" fill="#26b7c6"/>
          </g>
          <g id="组_9257" data-name="组 9257">
            <path id="路径_7199" data-name="路径 7199" d="M2684.5-61.876a14.58,14.58,0,0,0,2.24,2.195l.024-.041c.075-.126.147-.249.214-.365.118-.2.219-.377.3-.492.107-.157.21-.316.315-.478a11.559,11.559,0,0,1,1.047-1.29c.1-.115.224-.237.353-.368.527-.535,1.42-1.2,1.351-1.977-.073-.815-1.731-1.233-2.682-1.537-.256-.082-.478-.153-.624-.217A18.426,18.426,0,0,1,2684.7-67.7c-.043-.029-.1-.061-.172-.1-.174-.1-.7-.393-.714-.54s.325-.3,1-.475c.084-.022.157-.04.211-.057s.123-.038.182-.054a2.1,2.1,0,0,0,1.014-.388c.211-.192.146-.416.313-.632a3.81,3.81,0,0,1,.575-.644c.16-.134.476-.024.666-.147a2.2,2.2,0,0,0,.866-1.42,1.1,1.1,0,0,0-.412-.868c-.092-.092-.181-.188-.27-.282a5.172,5.172,0,0,0-.8-.736c-.088-.063-.193-.148-.3-.242a3.152,3.152,0,0,0-.612-.435.79.79,0,0,0-.323-.076c-.414,0-.563.4-.682.729a1.4,1.4,0,0,1-.226.459,1.013,1.013,0,0,1-.7.292.571.571,0,0,1-.481-.2.584.584,0,0,1-.026-.522c.247-.718.589-1.456,1.254-1.492.039,0,.087-.006.143-.01.1-.009.221-.019.331-.019a.536.536,0,0,1,.215.026.723.723,0,0,1,.095.147.48.48,0,0,0,.187.228.674.674,0,0,0,.309.087c.265,0,.447-.2.542-.586.154-.615-.63-1.195-1.2-1.621-.09-.067-.174-.129-.247-.186-.146-.114-.32-.225-.5-.342-.574-.362-1.167-.736-1.062-1.3l.079-.422a14.416,14.416,0,0,0-2.735,8.464,14.414,14.414,0,0,0,.579,4.056,1.579,1.579,0,0,0,.187.078c.224.084.451.164.677.243.4.143.584.29.987.46.716.306.716.426.743,1.223.007.227.257.337.268.564a14,14,0,0,1,.022,1.666A4.973,4.973,0,0,1,2684.5-61.876Z" fill="#7f7f3e"/>
            <path id="路径_7200" data-name="路径 7200" d="M2695.149-76.252c-.12.217-.115.776-.234.935-.095.129-.206.256-.314.379a3.563,3.563,0,0,0-.577.808,1.282,1.282,0,0,0-.077.252c-.036.157-.067.269-.133.285a.154.154,0,0,1-.035.005c-.058,0-.112-.055-.2-.144a.756.756,0,0,0-.388-.26.66.66,0,0,0-.639.215,2.049,2.049,0,0,0-.491,1.25c.264,1.9,1.993,2.419,3.574,2.967l.189.066a9.587,9.587,0,0,0,1.419.343,7.058,7.058,0,0,1,1.806.51,4.135,4.135,0,0,1,1.266.789c.048.05.113.109.189.179a2.039,2.039,0,0,1,.373.4,1.555,1.555,0,0,1,.076.509c.022.444.051,1.052.932,1.052h.037c.8-.015.9-.686.984-1.224a1.43,1.43,0,0,1,.26-.788.3.3,0,0,1,.2-.1c.195,0,.428.307.5.4.212.286.2.343.148.713l0,.03a2.211,2.211,0,0,0,.6,2c.288.27.515.752.714.752.123,0,.232-.405.315-.5.291-.33.212-1.183.078-2.263a5.149,5.149,0,0,1-.071-.845c.089-.494.53-.813.921-1.3.131-.164.491-.319.595-.465a2.878,2.878,0,0,1,.742-.679c.109-.077.222-.157.337-.25a3.554,3.554,0,0,0,.8-1.032,3.457,3.457,0,0,1,.543-.663c.072-.075.141-.5.207-.573a1.343,1.343,0,0,0,.252-.5,14.405,14.405,0,0,0-2.224-5.977,1.491,1.491,0,0,0-.666-.265,2.609,2.609,0,0,0-.373.061,1.314,1.314,0,0,1-.528.046.866.866,0,0,1-.322-.214,1.9,1.9,0,0,0-.229-.183l-.143-.293-.15.052a3.016,3.016,0,0,1-.949.108,3.893,3.893,0,0,0-1.215.4,5.321,5.321,0,0,0-.97.464,4.763,4.763,0,0,0-.8.576,1.813,1.813,0,0,0-.246.341,1.082,1.082,0,0,1-.244.319.735.735,0,0,1-.363.113.382.382,0,0,1-.356-.207.531.531,0,0,1,.115-.553,2.934,2.934,0,0,1,.41-.383c.377-.315.848-.706.751-1.27l-.018-.1-.1-.036c-.784-.274-1.5-.425-1.913-.007a2.212,2.212,0,0,0-.406,1.372,9.634,9.634,0,0,1-.072,1.068,10.453,10.453,0,0,0-.073,1.1c0,.081,0,.159.008.233.018.345.014.439-.211.513a.664.664,0,0,1-.189.033c-.212,0-.337-.172-.523-.457l-.04-.062c-.057-.084-.112-.179-.164-.271-.221-.383-.471-.817-1-.817a1.186,1.186,0,0,0-.231.026A2.045,2.045,0,0,0,2695.149-76.252Z" fill="#7f7f3e"/>
            <path id="路径_7201" data-name="路径 7201" d="M2708.784-64.875l-.073-.015a.95.95,0,0,0-.175-.015,3.915,3.915,0,0,0-.97-.029c-.057.02-.109.035-.149.047a3.439,3.439,0,0,0-2.01,2,4.517,4.517,0,0,1-.3.452c-.432.6-1.023,1.426-.686,1.951a1.341,1.341,0,0,0,.8.324A14.57,14.57,0,0,0,2708.784-64.875Z" fill="#7f7f3e"/>
            <path id="路径_7202" data-name="路径 7202" d="M2696.619-60.221c1.194-.154,1.3-1.318,1.39-2.136a3.446,3.446,0,0,1,.247-1.121c.138-.279.148-.579.273-.87a9.161,9.161,0,0,1,.825-1.625,2.447,2.447,0,0,1,.353-.374,1.324,1.324,0,0,0,.588-1.159c-.108-.87-1.357-1.047-2.183-1.165-.143-.019-.278-.038-.386-.059-.17-.031-.342-.075-.524-.122a6.468,6.468,0,0,0-.846-.172l-.176-.044a1.308,1.308,0,0,0-.414-.058,4.971,4.971,0,0,0-.737.079,5.078,5.078,0,0,1-.744.079.751.751,0,0,1-.845-.575.7.7,0,0,1,0-.223.645.645,0,0,0-.16-.584.718.718,0,0,0-.482-.161,1.255,1.255,0,0,0-1,.5,5.307,5.307,0,0,0-.4,1.1,6.988,6.988,0,0,1-.251.765c-.419.991-.549,2.051.64,2.71.626.34,1.447.118,1.925.17.527.061.916.192,1.1.627a2.754,2.754,0,0,1-.059,1.6,4.916,4.916,0,0,0-.157,1.007,1.7,1.7,0,0,0,.37,1.271,1.509,1.509,0,0,0,1.019.578A6.007,6.007,0,0,0,2696.619-60.221Z" fill="#7f7f3e"/>
            <path id="路径_7203" data-name="路径 7203" d="M2684.25-79.943l.322-.139a1.1,1.1,0,0,1,1.027.149c.144.086.308.167.481.252.577.285,1.229.605,1.262,1.212a1.768,1.768,0,0,1-.254.869,2.021,2.021,0,0,0-.285,1.249,5.11,5.11,0,0,0,1.094,2.465,2.608,2.608,0,0,0,1.356.313,1.71,1.71,0,0,0,.869-.18,1.914,1.914,0,0,0,.567-1.2c.026-.116.05-.225.076-.312a5.389,5.389,0,0,1,.511-1.276,2.909,2.909,0,0,1,.456-.562c.176-.183.594-.372.728-.6a2.708,2.708,0,0,0,.2-1.7,2.33,2.33,0,0,1,.143-1.426c.1-.171-.034-.327.066-.477a3.118,3.118,0,0,0,.666-1.7c.039-.881-.492-1.571-1.578-2.053A14.514,14.514,0,0,0,2684.25-79.943Z" fill="#7f7f3e"/>
          </g>
          <g id="组_9258" data-name="组 9258">
            <path id="路径_7204" data-name="路径 7204" d="M2697.693-68.554c-.448-.085-.916-.249-1.368-.295l-.2-.048c-.807-.278-2.47.727-2.861-.6-.068-.226.095-.538-.11-.722-.32-.282-1.047-.008-1.212.29-.291.518-.409,1.286-.646,1.845-.415.981-.375,1.543.68,2.129a4.785,4.785,0,0,0,1.742.507,1.348,1.348,0,0,1,1.245.732c.348.81-.193,1.864-.2,2.682-.011,1.192.476,1.559,1.711,1.4,1.586-.205.987-1.882,1.5-2.923a19.258,19.258,0,0,1,1.23-2.517c.32-.462.995-.736.91-1.41C2700.009-68.357,2698.4-68.424,2697.693-68.554Z" fill="url(#radial-gradient-2)"/>
            <path id="路径_7205" data-name="路径 7205" d="M2692.07-77.8c.56-.956-.2-2.206.346-3.125a4.2,4.2,0,0,0,.945-2.1c.044-.994-.717-1.584-1.649-1.958a14.131,14.131,0,0,0-2.236.843,14.482,14.482,0,0,0-4.975,3.892,1.272,1.272,0,0,1,1.189.16c.638.381,1.781.7,1.83,1.608.043.759-.673,1.263-.542,2.1a5,5,0,0,0,1.026,2.35,2.583,2.583,0,0,0,2.019.127c.382-.253.453-1.013.571-1.416a5.627,5.627,0,0,1,.526-1.315C2691.376-77.08,2691.818-77.368,2692.07-77.8Z" fill="url(#radial-gradient-3)"/>
            <path id="路径_7206" data-name="路径 7206" d="M2686.962-66.282a21.893,21.893,0,0,1-2.6-1.268c-.235-.143-.946-.48-.971-.775-.036-.433,1.018-.618,1.339-.717a2.569,2.569,0,0,0,1.129-.523c.422-.383.688-.912,1.131-1.28.752-.627,2.13-1.036,1.108-2.054a8.121,8.121,0,0,0-1.047-1,8.292,8.292,0,0,0-.884-.659c-.737-.322-.676.712-1.034,1.076-.627.627-1.846.386-1.5-.618.248-.722.629-1.57,1.413-1.61a2.016,2.016,0,0,1,.787.02c.117.064.194.334.276.372.281.147.486.062.595-.383.147-.589-.894-1.24-1.385-1.627-.6-.467-1.8-.924-1.632-1.813a14.643,14.643,0,0,0-1.139,2.01v0a14.493,14.493,0,0,0-.826,9.819.77.77,0,0,1,.022.077,1.556,1.556,0,0,0,.292.134c.635.237,1.279.44,1.91.707.819.351.822.388.85,1.261.026.784.1,1.581.053,2.368a5.614,5.614,0,0,1-.2,1.037,14.457,14.457,0,0,0,1.967,1.912c.2-.344.389-.678.516-.864a16.512,16.512,0,0,1,1.257-1.786c.51-.578,1.5-1.336,1.423-2.21C2689.725-65.58,2687.638-65.99,2686.962-66.282Z" fill="url(#radial-gradient-4)"/>
            <path id="路径_7207" data-name="路径 7207" d="M2709.661-74.838v0a14.589,14.589,0,0,0-1.682-3.869,2.1,2.1,0,0,0-.813-.11,3.528,3.528,0,0,1-.955.1c-.254-.066-.42-.318-.644-.447l-.095-.2c-.638.226-1.454,0-2.161.264a5.012,5.012,0,0,0-.941.45,4.668,4.668,0,0,0-.764.551c-.179.175-.324.572-.523.687-.745.44-1.348-.266-.835-.912.354-.446,1.241-.843,1.126-1.512-1.152-.4-2.086,0-2.083,1.2,0,.736-.148,1.429-.144,2.163,0,.447.114.769-.327.915-.517.166-.713-.189-.955-.556-.32-.484-.52-1.137-1.208-.987-.825.184-1.157,1.3-1.6,1.892a7.274,7.274,0,0,0-.873,1.157c-.092.193-.072.572-.328.634-.321.079-.415-.339-.694-.4-.654-.118-.753.784-.684,1.264.259,1.866,1.8,2.328,3.408,2.888a28.965,28.965,0,0,1,3.241.86,4.333,4.333,0,0,1,1.321.829c.143.151.522.449.6.632.233.553-.193,1.471.877,1.452s.593-1.454,1.125-1.964c.36-.339.69-.037.971.329a.872.872,0,0,1,.176.875,2.046,2.046,0,0,0,.545,1.842c1.58,1.48.641-2.207.739-2.757a6.456,6.456,0,0,1,1.308-2.077,4.817,4.817,0,0,1,1.114-.965c.585-.469.806-1.254,1.321-1.8.3-.319.558-.571.763-.826A14.226,14.226,0,0,0,2709.661-74.838Z" fill="url(#radial-gradient-5)"/>
            <path id="路径_7208" data-name="路径 7208" d="M2707.468-64.478c-.96.283-1.218.8-1.665,1.674-.227.447-1.363,1.654-1,2.224a.7.7,0,0,0,.542.258,14.3,14.3,0,0,0,3.328-4.393A3.244,3.244,0,0,0,2707.468-64.478Z" fill="url(#radial-gradient-6)"/>
          </g>
          <g id="组_9260" data-name="组 9260" opacity="0.2">
            <g id="组_9259" data-name="组 9259">
              <path id="路径_7209" data-name="路径 7209" d="M2690.829-78.69c-2.73-1.7-2.67-4.3.149-5.821a11.086,11.086,0,0,1,10.056.331c2.731,1.7,2.65,4.3-.167,5.82A11.06,11.06,0,0,1,2690.829-78.69Z" fill="#fff"/>
            </g>
          </g>
          <g id="组_9263" data-name="组 9263" opacity="0.3">
            <g id="组_9262" data-name="组 9262">
              <g id="组_9261" data-name="组 9261">
                <path id="路径_7210" data-name="路径 7210" d="M2705.8-66.826c-5.71,3.073-14.8,2.775-20.337-.666-2.742-1.705-4.091-3.863-4.062-5.977a14.463,14.463,0,0,0-.175,3.248,14.618,14.618,0,0,0,5.866,10.81,14.56,14.56,0,0,0,9.466,2.814h.006a14.522,14.522,0,0,0,9.071-3.909,14.475,14.475,0,0,0,4.55-11.427l0,0c-.008-.106-.026-.206-.035-.311C2709.954-70.232,2708.509-68.281,2705.8-66.826Z" fill="#184d6b"/>
              </g>
            </g>
          </g>
        </g>
      </g>
    </g>
    <g id="组_9279" data-name="组 9279">
      <path id="路径_7211" data-name="路径 7211" d="M2690.837-48.081a.72.72,0,0,0-.05.467,1.584,1.584,0,0,0,.876.156v-.078c.4-.048.767.253,1.138.281.592.062.708-.1.723-.281-.606-.534-1.731-.405-2.687-.545Z" fill="#240f0a" fill-rule="evenodd"/>
      <path id="路径_7212" data-name="路径 7212" d="M2690.962-48.6a.807.807,0,0,0-.125.78,2.473,2.473,0,0,0,.982.171c.42.144,1.359.579,1.683.172.215-.55-1.337-.747-1.745-1.029l-.8-.094Z" fill="#442a18" fill-rule="evenodd"/>
      <path id="路径_7213" data-name="路径 7213" d="M2688.661-46.871l-.125.234c.14.891.157,2.326,1.449,2.041.927-.247-1.368-2.2-1.324-2.275Z" fill="#240f0a" fill-rule="evenodd"/>
      <path id="路径_7214" data-name="路径 7214" d="M2689.564-46.918a11.358,11.358,0,0,1,.595,1.221c.109.284.335.887-.124,1.02a.643.643,0,0,1-.623-.046c-.642-.274-.616-1-.736-1.571-.038-.223-.274-.584-.078-.764a2.188,2.188,0,0,1,.982-.062c.067.009.011.14-.016.2Z" fill="#442a18" fill-rule="evenodd"/>
      <g id="组_9268" data-name="组 9268">
        <path id="路径_7215" data-name="路径 7215" d="M2692.264-48.355a1.572,1.572,0,0,1-1.51-.029,50.135,50.135,0,0,1,.429-7.443c.091-.855-.558-1.954-.061-2.78l1.8.015a11.656,11.656,0,0,1-.463,5.659c-.234,1.523.011,3.095-.2,4.578Z" fill="#05243d" fill-rule="evenodd"/>
        <g id="组_9267" data-name="组 9267" clip-path="url(#clip-path)">
          <path id="路径_7216" data-name="路径 7216" d="M2691.782-58.913a32.892,32.892,0,0,1-.5,6.9,44.062,44.062,0,0,0,.1,5.838l-1.12-1.533c-.193-3.195-.012-8.076-.241-11.238Z" fill="#001721" fill-rule="evenodd"/>
        </g>
      </g>
      <g id="组_9270" data-name="组 9270">
        <path id="路径_7218" data-name="路径 7218" d="M2689.8-46.838a1.454,1.454,0,0,1-1.448-.065,45.585,45.585,0,0,1,.7-7.408c.153-.89-.61-2.018.021-2.842l2.416.106c.435,1.441-.432,3.207-.757,4.537-.756,1.832-.535,3.816-.933,5.672Z" fill="#05243d" fill-rule="evenodd"/>
        <g id="组_9269" data-name="组 9269" clip-path="url(#clip-path-2)">
          <path id="路径_7219" data-name="路径 7219" d="M2689.793-57.394a24.634,24.634,0,0,1-.679,6.186,57.574,57.574,0,0,0-.178,5.8l-1.365-.825c-.129-3.2.254-8.075.081-11.24Z" fill="#001721" fill-rule="evenodd"/>
        </g>
      </g>
      <path id="路径_7221" data-name="路径 7221" d="M2695.2-63.745l.207-.374c.012-.229,0-.626.037-.849l-.072-.139c-.036-.094.112-.112.15-.039.071.042.109.23.107.338.02.05.062.032.107.01.209-.131.346-.328.574-.46,0,0,.273-.148.16.034.121-.073.331-.3.283,0,0-.021.112-.012.049.128l-.068.1c0-.013.128-.054.066.095a.792.792,0,0,1-.25.322c-.1.114-.294.368-.384.492a.38.38,0,0,1-.173.107,4.893,4.893,0,0,0-.329.486l-.464-.255Z" fill="#f7cab1" fill-rule="evenodd"/>
      <path id="路径_7222" data-name="路径 7222" d="M2695.228-64.016l.082-.13.64.432-.081.158-.641-.46Z" fill="#fff" fill-rule="evenodd"/>
      <g id="组_9272" data-name="组 9272">
        <path id="路径_7223" data-name="路径 7223" d="M2693.9-62.154c.3-.2.621-1.12,1.326-1.9l.716.453c-1.773,4.247-2.049,3.791-3.808.734-.152-.34-.315-1.76.728-1.017a16.644,16.644,0,0,0,1.038,1.733Z" fill="#def1f9" fill-rule="evenodd"/>
        <g id="组_9271" data-name="组 9271" clip-path="url(#clip-path-3)">
          <path id="路径_7224" data-name="路径 7224" d="M2694.944-59.705c1.8-1.844,1.63-3.409,1.118-4.28-.751,1.066-1.133,2.576-1.885,3.294-1.525-.354-2.113-3.35-2.233-3.686l.131,3.6Z" fill="#bdd8e6" fill-rule="evenodd"/>
        </g>
      </g>
      <g id="组_9274" data-name="组 9274">
        <path id="路径_7226" data-name="路径 7226" d="M2692.867-63.876c-.642-1.043-3.73-.483-4.55,1.073a7.819,7.819,0,0,1,.428,6.047c.942.831,4.131-.121,4.595-.2-.032-.756-.238-2.074-.282-2.984a8.332,8.332,0,0,0-.021-3.2,1.247,1.247,0,0,0-.17-.734Z" fill="#def1f9" fill-rule="evenodd"/>
        <g id="组_9273" data-name="组 9273" clip-path="url(#clip-path-4)">
          <path id="路径_7227" data-name="路径 7227" d="M2690.466-55.571c-.259-.281.192-7.587-2.355-7.469-.807.123-1.146,3.417-1.146,3.417l.584,3.164Z" fill="#bdd8e6" fill-rule="evenodd"/>
        </g>
      </g>
      <path id="路径_7229" data-name="路径 7229" d="M2691.664-63.587l-.254.033.108,5.613.526.657.362-.747-.743-5.556Z" fill="#da2b25" fill-rule="evenodd"/>
      <g id="组_9276" data-name="组 9276">
        <path id="路径_7230" data-name="路径 7230" d="M2690.173-66.516a1.285,1.285,0,0,0,.176,1.295l.017.97s.892.928,1.279.061l-.025-.515.433-.436c.075-.485.505-2.43-.905-2.232-.048,0-.693.295-.693.295l-.282.562Z" fill="#eec1a8" fill-rule="evenodd"/>
        <g id="组_9275" data-name="组 9275" clip-path="url(#clip-path-5)">
          <path id="路径_7231" data-name="路径 7231" d="M2692-64.4l-.4-.1s-.762.271-1.255-.722l-.722.108.053,1.019s1.433.612,1.4.639.907-.408.907-.408L2692-64.4Z" fill="#dcb29b" fill-rule="evenodd"/>
        </g>
      </g>
      <path id="路径_7233" data-name="路径 7233" d="M2690.049-66.98a1.309,1.309,0,0,1,2.286.075c-.034.206-.166.267-.352.4a2.389,2.389,0,0,0-.975-.319c-.612.043-.643.854-.206,1.147-.124.45-.017.812.44.744a.8.8,0,0,1,.854-.465c.109.821-.356.975-.923.9-.6-.1-.625-.656-.515-1.167-.065-.25-.473-.618-.575-.219a1.128,1.128,0,0,1-.034-1.1Z" fill="#040000" fill-rule="evenodd"/>
      <path id="路径_7234" data-name="路径 7234" d="M2691.378-64.917a.479.479,0,0,1,.518-.3c.049.291-.308.411-.518.3Z" fill="#ecc4ac" fill-rule="evenodd"/>
      <path id="路径_7235" data-name="路径 7235" d="M2690.394-65.886c-.248-.011-.234.207.032.438" fill="#040000" fill-rule="evenodd"/>
      <path id="路径_7236" data-name="路径 7236" d="M2691.485-63.944l-.242.1-.033.431.587-.194-.312-.339Z" fill="#da2b25" fill-rule="evenodd"/>
      <path id="路径_7237" data-name="路径 7237" d="M2691.4-63.909l.454.363a1.447,1.447,0,0,0-.219-.924,2.6,2.6,0,0,1-.235.561Z" fill="#fff" fill-rule="evenodd"/>
      <path id="路径_7238" data-name="路径 7238" d="M2691.4-63.909l-.128.6a2.327,2.327,0,0,1-1.119-.832l.212-.374A2.609,2.609,0,0,0,2691.4-63.909Z" fill="#fff" fill-rule="evenodd"/>
      <path id="路径_7239" data-name="路径 7239" d="M2689.11-56.031l.281.189.391.515.526-.666a7.135,7.135,0,0,1-.508-.795,1.663,1.663,0,0,0-.69.757Z" fill="#f7cab1" fill-rule="evenodd"/>
      <path id="路径_7240" data-name="路径 7240" d="M2690.016-56.553l-.8.641.127.158.8-.641-.127-.158Z" fill="#fff" fill-rule="evenodd"/>
      <g id="组_9278" data-name="组 9278">
        <path id="路径_7241" data-name="路径 7241" d="M2690.1-56.478l-.834.664a31.109,31.109,0,0,1-2.009-3.305.384.384,0,0,1-.054-.322l.881-3.1c.164-.513.792-1.108,1.271-.627a.764.764,0,0,1,.183,1.024,24.863,24.863,0,0,0-1.089,2.841c.341.561,1.383,2.548,1.651,2.825Z" fill="#def1f9" fill-rule="evenodd"/>
        <g id="组_9277" data-name="组 9277" clip-path="url(#clip-path-6)">
          <path id="路径_7242" data-name="路径 7242" d="M2689.476-56.062l-1.527-2.339a2.571,2.571,0,0,1-.561-.959c-.015-.08.21-.154.21-.154l-.09-.181a.35.35,0,0,1,.3-.157c-.371-.595.707-3.79.966-3.76l-2.834,2.91.043,2.479,2.034,2.246Z" fill="#bdd8e6" fill-rule="evenodd"/>
        </g>
      </g>
      <path id="路径_7244" data-name="路径 7244" d="M2689.413-55.21h0c.483.166.994-.59,1.072-1.06-.275.292-.7,1.069-1.071,1.061Z" fill="#0d2a3b" fill-rule="evenodd"/>
    </g>
    <g id="组_9290" data-name="组 9290">
      <path id="路径_7245" data-name="路径 7245" d="M2712.779-49.652l-.031-.155c-.482-.319-.4-1.6-.5-1.925-.1-.583-.013-2.087-.084-2.663s-.3-2.38-.3-2.38l-1.051.307a41.76,41.76,0,0,0,.569,4.247,8.344,8.344,0,0,1,.142.835l-.106.278a8.744,8.744,0,0,0,.636,1.619s.628.112.6.11a1.447,1.447,0,0,1,.125-.273Z" fill="#f4b4a0" fill-rule="evenodd"/>
      <path id="路径_7246" data-name="路径 7246" d="M2711.519-51.386a.571.571,0,0,0-.155.591c.05.408.119,1.028.119,1.028.031.041.079.041.149-.017l-.075-.507c.211.415.184,1.3.9,1.289,1.064-.009.561-.46.288-.805-.371.548-.783.172-.978-.433-.2-.542-.373-.57-.251-1.146Z" fill="#e75740" fill-rule="evenodd"/>
      <path id="路径_7247" data-name="路径 7247" d="M2709.02-49.865l-.014-.158c-.521-.5-.031-1.545-.114-1.968a23.64,23.64,0,0,1,.5-4.741l-1.545-.1a21.036,21.036,0,0,0,.115,4.352,6.332,6.332,0,0,1,0,.745l-.137.264a8.752,8.752,0,0,0,.448,1.68s.611.183.589.179.155-.257.155-.257Z" fill="#f7c4b3" fill-rule="evenodd"/>
      <path id="路径_7248" data-name="路径 7248" d="M2707.965-51.731a.567.567,0,0,0-.221.568c0,.412,0,1.036,0,1.036.026.044.073.049.15,0l-.017-.512c.162.436.035,1.313.75,1.383,1.058.112.61-.393.378-.767-.43.5-.8.082-.922-.541-.141-.562-.3-.609-.119-1.167Z" fill="#e75740" fill-rule="evenodd"/>
      <g id="组_9281" data-name="组 9281">
        <path id="路径_7249" data-name="路径 7249" d="M2707.757-60.616c-.409,1.739-.017,3.653-.073,5.6a5.611,5.611,0,0,0,4.649.344,19.5,19.5,0,0,0-.878-5.55l-3.7-.391Z" fill="#e75740" fill-rule="evenodd"/>
        <g id="组_9280" data-name="组 9280" clip-path="url(#clip-path-7)">
          <path id="路径_7250" data-name="路径 7250" d="M2709.163-60.549a6.856,6.856,0,0,1,2.068,2.751c.047.217-.053.462-.362.743a.739.739,0,0,1,.662.248c1.694,1.571-2.143,4.766,2.284,2.77l.693-4.56-1.518-2.932-3.827.98Z" fill="#d04e3a" fill-rule="evenodd"/>
        </g>
      </g>
      <path id="路径_7252" data-name="路径 7252" d="M2710.03-68.948c-1.313-.155-.8,1.428-.818,2.191a3.081,3.081,0,0,1-.494,1.315l-.35-.153a2.532,2.532,0,0,0,.428-1.54c-.1-.865.093-2.27,1.3-1.921l-.064.108Z" fill="#59331b" fill-rule="evenodd"/>
      <path id="路径_7253" data-name="路径 7253" d="M2712.494-60.3l.015.312-.044.217a3.606,3.606,0,0,0,.04.759c.176.062.107-.379.132-.465a3.06,3.06,0,0,1,.118.8c0,.048.041.147.052.1.012.066.075.029.083-.051,0-.028.022.112.022.112.156.193.1-.3.117-.35l.032.187c.164.164.038-.541.056-.578s0,.343.1.277h0c.061-.075-.071-.441-.073-.535a3.626,3.626,0,0,1-.274-.853l-.379.075Z" fill="#f3aaa9" fill-rule="evenodd"/>
      <path id="路径_7254" data-name="路径 7254" d="M2710.948-65.335l-.184-.909c1.354-.463,2.037,2.72,2,3.255.136,1.242.246,2.746.246,2.746l-.633.142s-.368-1.619-.489-2.538l-.935-2.7Z" fill="#409bb7" fill-rule="evenodd"/>
      <path id="路径_7255" data-name="路径 7255" d="M2709.083-66.079l-.449,5.733c.3.742,1.7.523,2.643.06-.052-.859-.02-4.893-.443-5.611-.415-.046-1.343-.145-1.751-.182Z" fill="#fff" fill-rule="evenodd"/>
      <path id="路径_7256" data-name="路径 7256" d="M2708.937-64.979c.2-.164.04-1.264-.609-.921a8.661,8.661,0,0,0-1.506,1.008c-.369.379-1.067.538-1.329,1.006,0,0,.352.681.681.688a9.5,9.5,0,0,0,2.763-1.781Z" fill="#409bb7" fill-rule="evenodd"/>
      <path id="路径_7257" data-name="路径 7257" d="M2704.246-64.439l-.47-.29-.147-.21a1.047,1.047,0,0,0-.57-.409c-.116-.026-.263-.2-.317-.1a.16.16,0,0,0,.033.162c-.073-.04-.316-.193-.368-.162-.066.086.069.238.2.321-.052,0-.214-.13-.255-.073-.035.142.2.252.279.331-.074-.021-.231-.173-.261-.086-.049.066.283.286.329.329-.049-.043-.24-.182-.292-.124-.029.114.159.18.208.2l.209.16a1.71,1.71,0,0,0,.663.215l.65.242a.4.4,0,0,0,.109-.51Z" fill="#f2a7a7" fill-rule="evenodd"/>
      <path id="路径_7258" data-name="路径 7258" d="M2704.164-64.559c.06.029-.114.59-.185.65a4.316,4.316,0,0,0,2.2.711.5.5,0,0,0,.065-1,17.787,17.787,0,0,1-2.075-.363Z" fill="#57a0b8" fill-rule="evenodd"/>
      <g id="组_9283" data-name="组 9283">
        <path id="路径_7259" data-name="路径 7259" d="M2710.127-59.64a1.8,1.8,0,0,0,1.739-.549,6.243,6.243,0,0,1-.55-3.154,3.173,3.173,0,0,0-.167-2.9c-1.1-.229-.764.028-.823.608l.185,2.733-.384,3.261Z" fill="#67b1bf" fill-rule="evenodd"/>
        <g id="组_9282" data-name="组 9282" clip-path="url(#clip-path-8)">
          <path id="路径_7260" data-name="路径 7260" d="M2710.554-66.5a.992.992,0,0,1,.445.813l-.492.288.278.3-.371,2.33L2709.9-64.2,2710-66.21Z" fill="#409bb7" fill-rule="evenodd"/>
        </g>
      </g>
      <g id="组_9285" data-name="组 9285">
        <path id="路径_7262" data-name="路径 7262" d="M2709.126-66.081s-.145-.087-.77.167c-.669.4-.178,2.412-.155,3.215a4.667,4.667,0,0,1-.9,2.3,9.616,9.616,0,0,0,2,.635,26.7,26.7,0,0,1-.175-6.32Z" fill="#67b1bf" fill-rule="evenodd"/>
        <g id="组_9284" data-name="组 9284" clip-path="url(#clip-path-9)">
          <path id="路径_7263" data-name="路径 7263" d="M2708.949-66.61l-.373.765.3.366-.278.127.444,2.2.314-1.038.108-2.064-.516-.356Z" fill="#409bb7" fill-rule="evenodd"/>
        </g>
      </g>
      <g id="组_9287" data-name="组 9287">
        <path id="路径_7265" data-name="路径 7265" d="M2710.338-65.826l.081-.629h0c.7-.164.753-1.53.583-2.081-.055-.3-.5-.1-.714-.043a1.458,1.458,0,0,1-.546.412,1.09,1.09,0,0,0-.122.415c-.134.168-.122.588-.17.785a1.621,1.621,0,0,0-.115-.6,3.039,3.039,0,0,1-.209,1.486c.43.581.79.592,1.212.255Z" fill="#f3adae" fill-rule="evenodd"/>
        <g id="组_9286" data-name="组 9286" clip-path="url(#clip-path-10)">
          <path id="路径_7266" data-name="路径 7266" d="M2709.922-66.155c.307.24.763.475.515-.3,0,0-.671.028-.906-.246a1.089,1.089,0,0,0,.391.549Z" fill="#db9898" fill-rule="evenodd"/>
        </g>
      </g>
      <g id="组_9289" data-name="组 9289">
        <path id="路径_7268" data-name="路径 7268" d="M2709.4-66.887c.164-.039.051-.364.25-.538a2.733,2.733,0,0,0,1.178-.915,1.584,1.584,0,0,1,.231.827c.872-.856-.385-1.944-1.343-1.658a1.265,1.265,0,0,0-.316,2.284Z" fill="#825846" fill-rule="evenodd"/>
        <g id="组_9288" data-name="组 9288" clip-path="url(#clip-path-11)">
          <path id="路径_7269" data-name="路径 7269" d="M2711.056-67.513s.317-.768-.124-1.142a1,1,0,0,1-.326.573l.45.569Z" fill="#59331b" fill-rule="evenodd"/>
        </g>
      </g>
      <path id="路径_7271" data-name="路径 7271" d="M2709.493-67.027c.027-.156.014-.47-.213-.368-.169.072-.145.416-.019.5.148.151.334.084.232-.131Z" fill="#f3adae" fill-rule="evenodd"/>
    </g>
  </g>
</svg>
