<?xml version="1.0" encoding="utf-8"?>
<!-- Generator: Adobe Illustrator 27.3.1, SVG Export Plug-In . SVG Version: 6.00 Build 0)  -->
<svg version="1.1" id="圖層_1" xmlns="http://www.w3.org/2000/svg" xmlns:xlink="http://www.w3.org/1999/xlink" x="0px" y="0px"
	 viewBox="0 0 46.2 42" style="enable-background:new 0 0 46.2 42;" xml:space="preserve">
<style type="text/css">
	.st0{fill:none;stroke:#FFFFFF;stroke-width:0.288;}
	.st1{clip-path:url(#SVGID_00000095300174404564004330000000997894276040685964_);}
	.st2{clip-path:url(#SVGID_00000042715963196826347020000012394414358752091025_);}
	.st3{clip-path:url(#SVGID_00000131347487656246232990000002688745424651510414_);}
	.st4{opacity:0.5;fill:none;stroke:#FFFFFF;stroke-width:0.288;enable-background:new    ;}
	.st5{fill:none;stroke:#FFFFFF;stroke-width:0.288;stroke-miterlimit:3.9999;}
</style>
<g id="组_4274" transform="translate(-162.643 -228.968)">
	<g id="pc2-2_00000035524405879461290880000010300465574233484460_">
		<g id="组_5899_00000032648175371098146360000006461400973469192576_" transform="translate(-651.648 4.587)">
			<g id="组_5871_00000150089834185583632990000016380007015879198648_">
				<path id="路径_16656_00000158723624842900622580000011545550585595868093_" class="st0" d="M844,258.8c-1.9,0.5-3.8,1.6-5.7,2
					c-1.8,0.4-3.5,0.6-5.3,0.5c-2.8,0-5.1,0-7.5-1.6c-0.9-0.5-1.8-1-2.7-1.3c-3.3-1.3-5-5.7-2.6-8.7c0.3-0.4,0.6-0.7,1-0.9
					c0.3-0.2,0.7-0.3,1-0.4c1.9-0.6,3.2-2.1,5-2.8c1.6-0.7,3.6-0.8,5.4-0.8c1.9-0.1,4.1-0.4,6-0.1c2.3,0.2,4.2,1.5,6.1,2.9
					c1.2,0.9,2.4,1.8,3.2,3C849.9,253.9,847.4,257.8,844,258.8z"/>
				<path id="路径_16657_00000139269731420095675440000009339302932620000413_" class="st0" d="M833.3,261c-0.1,0-0.2,0-0.3,0
					l-0.4,0c-2.6,0-4.5-0.1-6.6-1.4c-0.8-0.5-1.7-0.9-2.6-1.3l-0.3-0.1c-1.5-0.6-2.6-1.9-3-3.4c-0.4-1.3-0.1-2.7,0.8-3.8
					c0.3-0.5,0.7-0.8,1.3-0.9c0.1,0,0.2,0,0.3-0.1c1.2-0.3,2.1-1,3-1.6c0.6-0.5,1.3-0.9,2-1.2c1.4-0.6,3.3-0.7,5-0.8
					c0.6,0,1.2-0.1,1.7-0.1c0.9-0.1,1.8-0.1,2.7-0.1c0.5,0,1,0,1.5,0.1c2.1,0.2,4,1.5,5.6,2.7c1.2,0.8,2.2,1.7,2.9,2.8
					c0.7,1.1,0.8,2.4,0.3,3.5c-0.6,1.5-1.9,2.7-3.5,3.2c-0.9,0.3-1.8,0.6-2.7,1c-1,0.4-1.9,0.8-3,1
					C836.5,260.9,834.9,261.1,833.3,261z"/>
				<path id="路径_16658_00000169536722917624707930000008152126762809709987_" class="st0" d="M833.3,260.1c-0.1,0-0.2,0-0.3,0
					l-0.4,0c-2.6,0-4.3,0-6.1-1.3c-0.9-0.6-1.8-1-2.8-1.4l-0.3-0.1c-1.2-0.5-2.1-1.5-2.4-2.8c-0.3-1-0.1-2.1,0.6-2.9
					c0.1-0.2,0.3-0.3,0.4-0.5c0.1,0,0.3-0.1,0.4-0.1c0.1,0,0.2-0.1,0.3-0.1c1.3-0.4,2.4-1.1,3.3-1.7c0.6-0.4,1.2-0.8,1.9-1.1
					c1.3-0.5,3-0.6,4.7-0.7c0.6,0,1.2-0.1,1.8-0.1c0.9-0.1,1.8-0.1,2.6-0.1c0.5,0,0.9,0,1.4,0.1c1.8,0.2,3.6,1.4,5.2,2.5
					c1.1,0.8,2.1,1.6,2.7,2.5c0.5,0.8,0.6,1.8,0.2,2.7c-0.5,1.3-1.6,2.2-2.9,2.6c-1,0.3-1.9,0.6-2.8,1c-0.9,0.4-1.8,0.7-2.8,1
					C836.4,259.9,834.9,260.1,833.3,260.1z"/>
				<path id="路径_16659_00000070095169610450549570000013465331578116825768_" class="st0" d="M821.2,254.9
					c0.1-0.3,0.3-0.5,0.5-0.8c0.1-0.2,0.3-0.3,0.4-0.5c0.1,0,0.3-0.1,0.4-0.1c0.1,0,0.2-0.1,0.3-0.1c1.3-0.4,2.4-1.1,3.3-1.7
					c0.6-0.4,1.2-0.8,1.9-1.1c1.3-0.5,3-0.6,4.7-0.7c0.6,0,1.2-0.1,1.8-0.1c0.9-0.1,1.8-0.1,2.6-0.1c0.5,0,0.9,0,1.4,0.1
					c1.8,0.2,3.6,1.4,5.2,2.5c1.1,0.8,2.1,1.6,2.7,2.5c0.1,0.1,0.1,0.2,0.2,0.3c0,0,0-0.1,0.1-0.1c0.4-0.9,0.3-1.9-0.2-2.7
					c-0.6-1-1.6-1.7-2.7-2.5c-1.5-1.1-3.3-2.3-5.2-2.5c-0.4,0-0.9-0.1-1.4-0.1c-0.8,0-1.8,0.1-2.6,0.1c-0.6,0-1.2,0.1-1.8,0.1
					c-1.7,0.1-3.4,0.2-4.7,0.7c-0.7,0.3-1.3,0.7-1.9,1.1c-0.9,0.6-2,1.3-3.3,1.7c-0.1,0-0.2,0.1-0.3,0.1c-0.1,0-0.3,0.1-0.4,0.1
					c-0.2,0.1-0.3,0.3-0.4,0.5c-0.7,0.8-0.9,1.9-0.6,2.9C821.1,254.7,821.1,254.8,821.2,254.9z"/>
				<path id="路径_16660_00000168823701591421083570000015930679579972398779_" class="st0" d="M821.6,252.8
					c0.1-0.2,0.3-0.3,0.4-0.5c0.1,0,0.3-0.1,0.4-0.1c0.1,0,0.2-0.1,0.3-0.1c1.3-0.4,2.4-1.1,3.3-1.7c0.6-0.4,1.2-0.8,1.9-1.1
					c1.3-0.5,3-0.6,4.7-0.7c0.6,0,1.2-0.1,1.8-0.1c0.9-0.1,1.8-0.1,2.6-0.1c0.5,0,0.9,0,1.4,0.1c1.8,0.2,3.6,1.4,5.2,2.5
					c1.1,0.8,2.1,1.6,2.7,2.5c0.2,0.3,0.3,0.6,0.4,1c0.1-0.7,0-1.5-0.4-2.1c-0.6-1-1.6-1.7-2.7-2.5c-1.5-1.1-3.3-2.3-5.2-2.5
					c-0.4,0-0.9-0.1-1.4-0.1c-0.8,0-1.8,0.1-2.6,0.1c-0.6,0-1.2,0.1-1.8,0.1c-1.7,0.1-3.4,0.2-4.7,0.7c-0.7,0.3-1.3,0.7-1.9,1.1
					c-0.9,0.6-2,1.3-3.3,1.7c-0.1,0-0.2,0.1-0.3,0.1c-0.1,0-0.3,0.1-0.4,0.1c-0.2,0.1-0.3,0.3-0.4,0.5c-0.6,0.7-0.8,1.7-0.6,2.6
					C821.1,253.7,821.3,253.2,821.6,252.8z"/>
				<path id="路径_16661_00000014628795501760884790000002286284794585716913_" class="st0" d="M833.4,260l-0.3,0
					c-1.7,0-2.7,0-3.7-0.7c-0.7-0.4-1.4-0.8-2.1-1l-0.2-0.1c-0.5-0.2-0.9-0.7-1.1-1.3c-0.1-0.4,0-0.9,0.2-1.2c0,0,0-0.1,0.1-0.1l0,0
					c0.1,0,0.1,0,0.2-0.1c0.9-0.3,1.8-0.7,2.5-1.3c0.3-0.3,0.7-0.5,1.1-0.7c0.8-0.3,1.9-0.4,3-0.4c0.4,0,0.8,0,1.2-0.1
					c0.6,0,1.2-0.1,1.8-0.1c0.3,0,0.6,0,0.8,0c1,0.1,2.2,0.9,3.1,1.6c0.7,0.5,1.3,1,1.6,1.5c0.2,0.3,0.2,0.7,0.1,1
					c-0.3,0.6-0.8,1-1.4,1.2c-0.7,0.2-1.4,0.5-2.1,0.7c-0.6,0.3-1.2,0.5-1.8,0.6c-1,0.2-2,0.3-3,0.3C833.5,260,833.5,260,833.4,260z
					"/>
				<path id="路径_16662_00000139287233236533790090000004894903841826296973_" class="st0" d="M833.6,259.6l-0.2,0
					c-1,0-1.6,0-2.2-0.4c-0.4-0.2-0.8-0.5-1.3-0.6l-0.1,0c-0.3-0.1-0.6-0.4-0.7-0.8c-0.1-0.2,0-0.5,0.1-0.7c0,0,0,0,0-0.1l0,0
					c0,0,0.1,0,0.1,0c0.5-0.2,1-0.4,1.5-0.8c0.2-0.2,0.4-0.3,0.7-0.4c0.6-0.2,1.2-0.3,1.8-0.2c0.2,0,0.5,0,0.7,0c0.4,0,0.7,0,1,0
					c0.2,0,0.3,0,0.5,0c0.6,0.1,1.3,0.5,1.9,0.9c0.4,0.2,0.7,0.5,1,0.9c0.1,0.2,0.1,0.4,0,0.6c-0.1,0.4-0.4,0.6-0.8,0.7
					c-0.4,0.1-0.8,0.3-1.2,0.4c-0.3,0.2-0.7,0.3-1.1,0.4c-0.6,0.1-1.2,0.2-1.8,0.2C833.7,259.7,833.7,259.7,833.6,259.6z"/>
				<g id="组_5931_00000041977337043334625410000006044047292641991587_" transform="translate(13.386 295.671) rotate(-11)">
					<path id="矩形_7_00000070099128408425667160000017664251146769521280_" class="st0" d="M814.1,86.1l-1,19.4l-15.4,6l0.9-20.7
						L814.1,86.1z"/>
					<path id="矩形_8_00000134945452955864322290000001538993060133780869_" class="st0" d="M799.6,91.6l13.6-4.2l-0.9,17.6
						l-13.5,5.3L799.6,91.6z"/>
					<g id="组_5926_00000132789122655208928170000012269558458195976109_" transform="translate(813.081 119.249)">
						<g id="组_5918_00000085968720618444328980000012865239494727752091_" transform="translate(4.086)">
							<path id="路径_16763_00000119809590613419247430000000538268593752874381_" class="st0" d="M-13.8-25.4
								c-0.1,0-0.2,0-0.2-0.1c0,0,0-0.1,0-0.1c0-0.2,0.2-0.3,0.3-0.4c0.1,0,0.2,0,0.2,0.1c0,0,0,0.1,0,0.1
								C-13.5-25.6-13.6-25.4-13.8-25.4z M-13.7-25.9c-0.1,0.1-0.2,0.2-0.2,0.3c0,0.1,0.1,0.2,0.3,0.1c0.1-0.1,0.2-0.2,0.2-0.3
								C-13.5-25.9-13.6-25.9-13.7-25.9L-13.7-25.9z"/>
						</g>
						<path id="矩形_9_00000181077843587905688070000003589486166258785461_" class="st0" d="M-9.7-25.5L-9.7-25.5
							C-9.6-25.5-9.6-25.5-9.7-25.5C-9.6-25.5-9.6-25.5-9.7-25.5l0.1,0.2c0,0,0,0.1-0.1,0.1l0,0c0,0-0.1,0-0.1,0c0,0,0,0,0,0l0-0.1
							C-9.8-25.5-9.7-25.5-9.7-25.5z"/>
						<path id="路径_16764_00000078010106250991262180000007831177683676844730_" class="st0" d="M-9.7-25.3
							c-0.8,0.3-1.3,1-1.4,1.8c0,0.7,0.5,1.1,1.3,0.9c0.8-0.3,1.3-1,1.4-1.8C-8.4-25.1-8.9-25.5-9.7-25.3L-9.7-25.3z M-9.7-22.9
							C-9.7-22.9-9.8-22.9-9.7-22.9c-0.1,0-0.2,0.1-0.2,0.1c-0.5,0.1-1-0.1-1-0.7c0,0,0-0.1,0-0.1c0,0,0-0.1,0-0.1
							c0.1-0.6,0.5-1.1,1.1-1.4c0,0,0.1,0,0.1,0c0,0,0.1,0,0.1,0c0.4-0.1,0.8,0.1,0.9,0.4c0,0.1,0,0.2,0,0.3c0,0,0,0.1,0,0.1
							c0,0,0,0.1,0,0.1C-8.7-23.6-9.1-23.1-9.7-22.9L-9.7-22.9z"/>
						<path id="路径_16765_00000152240391320464979170000008648954900825614242_" class="st0" d="M-9.7-24.7l0,0.5l0,0L-9.7-24.7
							C-9.7-24.7-9.7-24.7-9.7-24.7C-9.7-24.7-9.7-24.7-9.7-24.7L-9.7-24.7L-9.7-24.7z"/>
						<path id="路径_16766_00000014630628661296015580000017161100221680488345_" class="st0" d="M-9.8-23.8L-9.8-23.8l0,0.5
							c0,0,0,0,0,0c0,0,0,0,0,0c0,0,0,0,0,0L-9.8-23.8L-9.8-23.8z"/>
						<path id="路径_16767_00000060735856193072137930000002567772126253098386_" class="st0" d="M-9.9-23.9
							C-9.9-23.9-9.9-23.9-9.9-23.9L-9.9-23.9l-0.6,0.2c0,0,0,0,0,0c0,0,0,0,0,0L-9.9-23.9z"/>
						<path id="路径_16768_00000146498943611798309980000000075498420065093282_" class="st0" d="M-9-24.2C-9-24.2-9-24.2-9-24.2
							L-9-24.2L-9.6-24c0,0,0,0,0,0v0L-9-24.2C-9-24.2-9-24.2-9-24.2L-9-24.2z"/>
						<path id="路径_16769_00000011009004427955453240000002239152907241800372_" class="st0" d="M-9.9-24.1L-9.9-24.1
							C-9.8-24-9.8-24-9.9-24.1l-0.3-0.2c0,0,0,0,0,0s0,0,0,0l0,0L-9.9-24.1z"/>
						<path id="路径_16770_00000177471163444651260110000011546101481768547729_" class="st0" d="M-9.3-23.6
							C-9.3-23.6-9.3-23.6-9.3-23.6L-9.3-23.6l-0.3-0.2l-0.1-0.1c0,0,0,0,0,0L-9.3-23.6C-9.3-23.6-9.3-23.6-9.3-23.6z"/>
						<g id="组_5919_00000075877258036678069760000009852646424258091655_" transform="translate(2.296 3.417)">
							<path id="路径_16771_00000181047853966676514440000013923639088995617213_" class="st0" d="M-11.3-28.4l-0.4,0.9l0,0
								l-0.1,0.2l-0.1,0c0,0,0-0.1,0-0.1v0v0c0-0.1,0-0.1-0.1-0.1c0,0,0,0,0,0l0,0l0,0c0,0-0.1,0-0.1,0.1c0,0,0,0,0,0l0,0l-0.1,0
								l0,0l0,0l0.2-0.2l0,0L-11.3-28.4z"/>
							<path id="路径_16772_00000006707348734206360680000014892626034921650336_" class="st0" d="M-11.8-27.3L-11.8-27.3
								L-11.8-27.3l-0.2,0.2l0,0l-0.7,0.7l0.4-0.9l0,0l0.1-0.2l0.1,0c0,0,0,0.1,0,0.1c0,0,0,0,0,0v0c0,0.1,0,0.1,0.1,0.1
								c0,0,0,0,0,0l0,0c0,0,0.1,0,0.1-0.1C-11.9-27.3-11.9-27.3-11.8-27.3L-11.8-27.3L-11.8-27.3z"/>
						</g>
						<g id="组_5920_00000021808090708810130780000009387790392999352506_" transform="translate(4.191 2.969)">
							<path id="路径_16773_00000066486652238383160420000014723634935262462625_" class="st0" d="M-13.8-28.1l-0.1,0.2L-14-28
								C-14-28-13.9-28-13.8-28.1C-13.9-28.1-13.8-28.1-13.8-28.1z"/>
							<path id="路径_16774_00000072281435170174368970000005525966103390860438_" class="st0" d="M-13.9-25.8
								C-13.9-25.8-14-25.8-13.9-25.8c-0.1,0-0.2,0.1-0.2,0.1L-14-26L-13.9-25.8z"/>
						</g>
						<g id="组_5921_00000061458775580817240600000013558484771183593101_" transform="translate(0.799 5.333)">
							<path id="路径_16775_00000080170106345305831060000001035924822985634184_" class="st0" d="M-9.4-29.7
								C-9.4-29.6-9.4-29.6-9.4-29.7l-0.2,0.1L-9.4-29.7C-9.4-29.7-9.4-29.7-9.4-29.7z"/>
							<path id="路径_16776_00000080897079048286780440000004588365481732198834_" class="st0" d="M-11.5-29l-0.2,0.2
								c0,0,0-0.1,0-0.1c0,0,0-0.1,0-0.1L-11.5-29z"/>
						</g>
						<g id="组_5922_00000170961995829369902460000001582840246412622476_" transform="translate(4.694 2.356)">
							<path id="路径_16777_00000057143160442436063490000001706027024030431109_" class="st0" d="M-14.4-27.6L-14.4-27.6
								L-14.4-27.6L-14.4-27.6L-14.4-27.6l0.1,0l0,0.1l0,0L-14.4-27.6L-14.4-27.6l0,0.1l0,0L-14.4-27.6z"/>
						</g>
						<g id="组_5923_00000173136208997081833160000009037175008694484114_" transform="translate(8.746 5.285)">
							<path id="路径_16778_00000009589084171665098890000011906134535288128957_" class="st0" d="M-17.2-29.7L-17.2-29.7l0,0.1
								L-17.2-29.7L-17.2-29.7l-0.1,0.1l0,0L-17.2-29.7l-0.1,0.1l0,0.1l0,0l0-0.1L-17.2-29.7z"/>
						</g>
						<g id="组_5924_00000142893224971238683130000015951856793106376591_" transform="translate(0.168 8.099)">
							<path id="路径_16779_00000104694668441494182050000011087428761534621879_" class="st0" d="M-11.2-31.5L-11.2-31.5
								L-11.2-31.5L-11.2-31.5L-11.2-31.5l0-0.1l0.1-0.1l0,0l-0.1,0l0,0l0.1,0v0l-0.1,0.1h0.1v0L-11.2-31.5z"/>
						</g>
						<g id="组_5925_00000093137432994313804280000012845402189109077173_" transform="translate(4.337 10.952)">
							<path id="路径_16780_00000124855182270723786730000011303011164665378957_" class="st0" d="M-14.1-33.7
								C-14.1-33.7-14.1-33.7-14.1-33.7C-14.1-33.7-14.1-33.7-14.1-33.7L-14.1-33.7C-14.1-33.7-14.1-33.7-14.1-33.7
								C-14.1-33.7-14.1-33.7-14.1-33.7C-14.2-33.7-14.2-33.7-14.1-33.7C-14.1-33.7-14.1-33.7-14.1-33.7L-14.1-33.7
								C-14.1-33.7-14.1-33.7-14.1-33.7C-14.1-33.7-14.1-33.7-14.1-33.7C-14.1-33.7-14.1-33.7-14.1-33.7
								C-14.1-33.7-14.1-33.7-14.1-33.7C-14.1-33.6-14.1-33.6-14.1-33.7c0,0.1,0,0.1,0,0.1c0,0,0,0,0,0c0,0,0,0,0,0c0,0,0,0,0,0
								L-14.1-33.7C-14.2-33.6-14.2-33.6-14.1-33.7C-14.2-33.6-14.1-33.6-14.1-33.7L-14.1-33.7C-14.1-33.6-14.1-33.6-14.1-33.7
								C-14.1-33.6-14.1-33.6-14.1-33.7C-14.1-33.6-14.1-33.7-14.1-33.7C-14.1-33.7-14.1-33.7-14.1-33.7
								C-14.1-33.7-14.1-33.7-14.1-33.7L-14.1-33.7C-14.2-33.7-14.2-33.7-14.1-33.7C-14.2-33.7-14.2-33.7-14.1-33.7
								C-14.2-33.7-14.2-33.7-14.1-33.7C-14.2-33.7-14.2-33.7-14.1-33.7C-14.2-33.7-14.2-33.7-14.1-33.7
								C-14.2-33.7-14.2-33.7-14.1-33.7C-14.1-33.7-14.1-33.7-14.1-33.7C-14.1-33.8-14.1-33.8-14.1-33.7
								C-14.1-33.8-14.1-33.8-14.1-33.7L-14.1-33.7z"/>
						</g>
					</g>
					<g id="组_5927_00000059992919746342602110000000030430833246887605_" transform="translate(817.714 95.36)">
						<path id="矩形_10_00000139989562862302612140000009619012809244399492_" class="st0" d="M-14.3-6.8L-8-8.7l-0.1,2.3l-6.3,2
							L-14.3-6.8z"/>
						<path id="路径_16781_00000163753679334015373230000003545061304993919898_" class="st0" d="M-11-8.9
							c-0.6,0.2-1.1,0.8-1.2,1.5c0,0.6,0.4,1,1.1,0.8c0.6-0.2,1.1-0.8,1.2-1.5l0,0c0.1-0.4-0.2-0.8-0.6-0.9C-10.7-9-10.9-9-11-8.9
							L-11-8.9z M-11.1-7.3c-0.2,0.1-0.4,0-0.5-0.2c0-0.1,0-0.1,0-0.2c0-0.3,0.2-0.6,0.5-0.7c0.2-0.1,0.4,0,0.5,0.2
							c0,0.1,0,0.1,0,0.2v0C-10.6-7.6-10.8-7.4-11.1-7.3z"/>
					</g>
					<g id="组_5928_00000042738054959887547680000002335872090668557440_" transform="translate(827.243 111.114)">
						<path id="矩形_11_00000052826884249440108210000009420032745111734712_" class="st0" d="M-21-17.6l2.6-0.9
							c0.1,0,0.1,0,0.1,0c0,0,0,0,0,0.1l0,0c0,0.1-0.1,0.2-0.2,0.2l-2.6,0.9c-0.1,0-0.1,0-0.1,0c0,0,0,0,0-0.1l0,0
							C-21.2-17.5-21.1-17.6-21-17.6z"/>
						<path id="矩形_12_00000075862259143463426140000006609597352120094106_" class="st0" d="M-21-18.6l5-1.6c0.1,0,0.1,0,0.1,0
							c0,0,0,0,0,0.1l0,0c0,0.1-0.1,0.2-0.2,0.2l-5,1.6c-0.1,0-0.1,0-0.1,0c0,0,0,0,0-0.1l0,0C-21.1-18.4-21.1-18.5-21-18.6z"/>
					</g>
					<g id="组_5929_00000066488445331898875420000014627432043561916345_" transform="translate(808.38 125.986)">
						<path id="矩形_13_00000016039519905435191430000009199240933573548716_" class="st0" d="M-7.3-27.3l10-3.4c0,0,0.1,0,0.1,0
							c0,0,0,0,0,0l0,0c0,0.1,0,0.1-0.1,0.1l-10,3.4c-0.1,0-0.1,0-0.1-0.1l0,0C-7.4-27.2-7.3-27.3-7.3-27.3z"/>
						<path id="矩形_14_00000121263939448296699980000002837375749129505699_" class="st0" d="M-7.3-26.4l10-3.5c0,0,0.1,0,0.1,0
							c0,0,0,0,0,0l0,0c0,0.1,0,0.1-0.1,0.1l-10,3.5c-0.1,0-0.1,0-0.1-0.1l0,0C-7.4-26.4-7.4-26.4-7.3-26.4z"/>
						<path id="矩形_15_00000077303194423570811470000004452585900531393179_" class="st0" d="M-7.4-25.5l10-3.5c0,0,0.1,0,0.1,0
							c0,0,0,0,0,0l0,0c0,0.1,0,0.1-0.1,0.1l-10,3.5c-0.1,0-0.1,0-0.1-0.1l0,0C-7.5-25.5-7.4-25.5-7.4-25.5z"/>
						<path id="矩形_16_00000083785025228449159060000005746410887181931431_" class="st0" d="M-7.4-24.6l10-3.5c0,0,0.1,0,0.1,0
							c0,0,0,0,0,0l0,0c0,0.1,0,0.1-0.1,0.1l-10,3.5c-0.1,0-0.1,0-0.1-0.1l0,0C-7.5-24.6-7.5-24.6-7.4-24.6z"/>
						<path id="矩形_17_00000096772865956604178020000011758775184775703450_" class="st0" d="M-7.4-23.7l10-3.6c0,0,0.1,0,0.1,0
							c0,0,0,0,0,0l0,0c0,0.1,0,0.1-0.1,0.1l-10,3.6c-0.1,0-0.1,0-0.1-0.1l0,0C-7.5-23.7-7.5-23.7-7.4-23.7z"/>
						<path id="矩形_18_00000070807292018263635290000017979602670382277273_" class="st0" d="M-7.5-22.8l10-3.6c0,0,0.1,0,0.1,0
							c0,0,0,0,0,0l0,0c0,0.1,0,0.1-0.1,0.1l-10,3.6c-0.1,0-0.1,0-0.1-0.1l0,0C-7.6-22.8-7.5-22.8-7.5-22.8z"/>
						<path id="矩形_19_00000083062149472424196910000017185024539015502729_" class="st0" d="M-7.5-22l9.9-3.6c0,0,0.1,0,0.1,0
							c0,0,0,0,0,0l0,0c0,0.1,0,0.1-0.1,0.1l-9.9,3.7c-0.1,0-0.1,0-0.1-0.1l0,0C-7.6-21.9-7.6-21.9-7.5-22z"/>
						<path id="矩形_20_00000021813403973486308700000009406479776297096127_" class="st0" d="M-7.6-21.1l9.9-3.7c0,0,0.1,0,0.1,0
							c0,0,0,0,0,0l0,0c0,0.1,0,0.1-0.1,0.1l-9.9,3.7c-0.1,0-0.1,0-0.1-0.1l0,0C-7.7-21-7.6-21-7.6-21.1z"/>
						<path id="矩形_21_00000057139707709663659170000008287007933998803870_" class="st0" d="M-7.6-20.2l9.9-3.7c0,0,0.1,0,0.1,0
							c0,0,0,0,0,0l0,0c0,0.1,0,0.1-0.1,0.1L-7.6-20c-0.1,0-0.1,0-0.1-0.1l0,0C-7.7-20.1-7.7-20.1-7.6-20.2z"/>
						<path id="矩形_22_00000060030943431476580050000012375638280132361097_" class="st0" d="M-7.6-19.3l4.6-1.7
							C-3-21-3-21-3-20.9l0,0c0,0.1,0,0.1-0.1,0.1l-4.6,1.7c-0.1,0-0.1,0-0.1-0.1l0,0C-7.7-19.2-7.7-19.3-7.6-19.3z"/>
					</g>
					<g id="组_5930_00000110464401857290444670000002839200977721303974_" transform="translate(809.61 115.893)">
						<path id="路径_16782_00000144324075976226436650000016908135027266941080_" class="st0" d="M-4.1-19.7l-4.5,1.5l0.2-3.9
							l4.5-1.5L-4.1-19.7z M-8.5-18.4l4.3-1.5l0.2-3.6L-8.4-22L-8.5-18.4z"/>
					</g>
				</g>
			</g>
			<g id="组_5883_00000065766262939882040380000010989407902030047915_">
				<path id="路径_16663_00000000924333886794991250000016514922313571867804_" class="st0" d="M860.1,254c0-0.1-0.1-0.1-0.1-0.1
					c-0.1-0.2-0.5-0.3-0.9-0.4c-0.3-0.1-0.7-0.2-1-0.2c-0.1,0-0.2,0-0.2,0c-0.4,0-0.7,0.1-0.3,0.3l-0.4,0.1c-0.1,0-0.2,0.1-0.3,0.1
					c0,0,0,0-0.1,0.1c-0.1,0.1-0.2,0.1-0.2,0.1c0,0,0,0,0,0c0,0-0.1,0.1-0.1,0.1c-0.1,0.1-0.2,0.1-0.2,0.2l0,0c-0.3,0-0.5,0-0.8,0
					c-0.1,0-0.1,0-0.2,0c-0.2,0-0.4,0.1-0.6,0.2c-0.2,0.1-0.4,0.2-0.5,0.2c-0.2,0.1-0.7,0.2-0.6,0.4c0,0,0.1,0.1,0.1,0.1
					c0,0-0.1,0-0.1,0c-0.1,0-0.3,0.1-0.5,0.2c-0.2,0.1-0.4,0.1-0.5,0.2c-0.5,0.3-1.2,0.5-1.2,1.1c0,0.5,0.7,0.1,0.9-0.1
					c0.1-0.1,0.1-0.1,0.2-0.1c0.2,0,0.4,0.1,0.4,0.2c0,0.2,0,0.4,0,0.5c-0.1,0.2-0.1,0.4-0.2,0.6c-0.1,0.1-0.1,0.2-0.2,0.4
					c0,0.2,0,0.3,0,0.5c0,0.2,0.1,0.3,0.3,0.2c0.2-0.1,0.3-0.2,0.5-0.3c0.4-0.2,0.9-0.4,1.3-0.6l0.1,0c0.2,0,0.5-0.1,0.7-0.2
					c0.1,0,0.1,0,0.2-0.1c0,0,0.1,0,0.1,0s0.1,0,0.1,0c0,0,0,0,0.1,0c0.2-0.1,1-0.3,1.4-0.5c0.3-0.1,0.6-0.2,0.9-0.4
					c0.1-0.1,0.2-0.1,0.2-0.2l0,0c0,0,0.1,0,0.1,0c0.1,0,0.2-0.1,0.3-0.1c0.1,0,0.1-0.1,0.2-0.1c0,0,0.1-0.1,0.1-0.1
					c0.1-0.1,0.2-0.2,0.3-0.3c0,0,0.1-0.1,0.1-0.1c0,0,0,0,0-0.1c0-0.1,0.1-0.1,0.1-0.2c0,0,0-0.1,0-0.1c0,0,0,0,0,0c0,0,0,0,0,0
					c0,0-0.1,0-0.1-0.1c-0.2-0.1-0.3-0.2-0.5-0.3c-0.1-0.1-0.2-0.1-0.3-0.2c0,0,0,0,0,0c0,0,0,0,0,0c0,0,0,0,0,0l-0.3-0.2
					c0,0,0,0,0,0c0,0,0,0,0,0c0,0,0-0.1,0-0.1c0,0,0.1,0,0.1-0.1l0,0c0,0,0.1,0,0.1,0c0.1,0,0.3,0,0.4-0.1l0,0c0,0,0.1,0,0.1,0
					l0.1,0c0.2-0.1,0.5-0.1,0.7-0.2C860.2,254.2,860.2,254.1,860.1,254z M851.7,256.7c0,0,0-0.1,0-0.1l0,0c0,0,0,0,0,0c0,0,0,0,0,0
					c0,0,0,0,0,0c0,0,0,0,0,0c0,0,0,0,0,0c0,0,0,0,0,0c0.1,0,0.1-0.1,0.2-0.1c0.1,0,0.1,0,0.2-0.1
					C852.1,256.5,852,256.5,851.7,256.7C851.8,256.6,851.8,256.7,851.7,256.7C851.8,256.7,851.7,256.7,851.7,256.7L851.7,256.7z"/>
				<path id="路径_16664_00000151543144103451083450000006076965768938284219_" class="st0" d="M851.1,246.3
					c-0.1,0.3-0.1,0.5-0.2,0.8c-0.1,0.4-0.2,0.8-0.3,0.9s-0.2,0.5-0.3,0.9c0,0.1-0.1,0.3-0.1,0.4c0,0.1-0.1,0.2-0.1,0.3c0,0,0,0,0,0
					c0,0.2,0.1,0.3,0.2,0.4c0,0.2,0.1,0.3,0.1,0.5c0,0.1,0.1,0.5,0.1,0.5l0,0.1l0,0.1l0,0.1l-0.1,0l0,0.1l-0.2,0
					c-0.1-0.1-0.2-0.1-0.3-0.2c-0.1-0.2-0.2-0.4-0.3-0.6c0,0,0.1-0.6,0.1-0.8c0-0.1,0-0.2,0-0.4c0-0.6,0-1.5,0-1.9
					c0-0.3,0-0.6,0.1-0.8c0.1-0.3,0.1-0.5,0.2-0.6c0.1-0.3,0.1-0.7,0.1-1c0,0,1.1-0.3,1.2-0.1C851.5,245,851.1,246.1,851.1,246.3z"
					/>
				<path id="路径_16665_00000056401566943193693350000014522931488092041643_" class="st0" d="M850.9,247.2
					c-0.1,0.4-0.2,0.8-0.3,0.9s-0.2,0.5-0.3,0.9c0,0.1-0.1,0.3-0.1,0.4c0,0.1-0.1,0.2-0.1,0.3c0,0,0,0,0,0c0,0,0,0,0,0c0,0,0,0,0,0
					c0,0-0.1,0-0.1-0.1c0-0.2,0-0.3,0-0.5c0.1-1.1,0.1-2.1,0-3.2l0-0.2c0.1-0.1,0.2-0.1,0.3-0.1c0,0,0,0,0,0
					c0.1,0.1,0.2,0.2,0.2,0.3c0.1,0.3,0.2,0.5,0.3,0.8C850.9,246.9,850.9,247,850.9,247.2z"/>
				<path id="路径_16666_00000051361410032068654410000001855465045207511424_" class="st0" d="M851.4,256.3
					c0,0.2-0.1,0.4-0.3,0.6c-0.3,0.2-0.8,0.6-0.8,0.6c-0.1,0.2-0.1,0.3-0.1,0.5c0,0.1,0.1,0.2,0.2,0.2c0.2,0.2,0.7,0,0.9-0.2
					c0.1-0.2,0.3-0.3,0.5-0.4c0.2-0.1,0.4-0.2,0.6-0.2c0.1,0,0.2-0.1,0.2-0.3c0-0.1,0-0.2,0-0.3c0-0.1-0.1-0.1-0.1-0.2l-0.2-0.1
					l-0.3-0.2L851.4,256.3z"/>
				<path id="路径_16667_00000175321576009341198140000008631807629872889248_" class="st0" d="M853.9,256.9c0,0,0,0.1,0.1,0.1
					c0,0.1,0,0.1,0.1,0.2c0,0.1,0,0.3,0,0.4c-0.1,0.2-0.2,0.3-0.3,0.4c-0.2,0.3-0.4,0.5-0.6,0.8c-0.2,0.2-0.5,0.3-0.8,0.4
					c-0.5,0-0.4-0.1-0.4-0.4c0-0.3,0.5-0.7,0.5-0.9c0.1-0.2,0.4-0.7,0.4-0.7l0.4-0.2L853.9,256.9z"/>
				<path id="路径_16668_00000059995501303355563280000014054234388528824997_" class="st0" d="M852.4,257.1
					c0,0.1-0.3,0.2-0.4,0.2c-0.1,0-0.1,0-0.2,0.1c-0.1,0-0.2,0.1-0.3,0.2c-0.1,0.1-0.2,0.2-0.3,0.3c-0.2,0.1-0.4,0.2-0.6,0.2
					c-0.1,0-0.2,0-0.3,0c-0.1-0.1-0.2-0.2-0.2-0.3c0,0,0-0.1,0-0.1c0,0,0-0.1,0-0.1c0-0.2,0.1-0.3,0.3-0.4c0.2-0.1,0.5-0.4,0.7-0.5
					c0.2-0.1,0.3-0.3,0.3-0.6l0.5,0.1l0.4,0.3l0.2,0.1C852.4,256.7,852.4,256.9,852.4,257.1z"/>
				<path id="路径_16669_00000114754970304163260390000003538744956092543889_" class="st0" d="M852.4,257.1
					c0,0.1-0.3,0.2-0.4,0.2c-0.1,0-0.1,0-0.2,0.1c-0.1,0-0.2,0.1-0.3,0.2c-0.1,0.1-0.2,0.2-0.3,0.3c-0.2,0.1-0.4,0.2-0.6,0.2
					c-0.1,0-0.2,0-0.3,0c-0.1-0.1-0.2-0.2-0.2-0.3c0,0,0-0.1,0-0.1c0.1,0,0.2,0.1,0.3,0.1c0.2,0,0.5,0,0.6-0.1
					c0.1-0.1,0.1-0.1,0.2-0.2c0.1-0.1,0.2-0.1,0.4-0.2c0.1-0.1,0.3-0.1,0.4-0.2c0.1-0.1,0.1-0.3,0.1-0.4c0-0.1,0-0.2,0.1-0.2
					l0.2,0.1C852.4,256.7,852.4,256.9,852.4,257.1z"/>
				<path id="路径_16670_00000091733700555399258520000007937709904749270965_" class="st0" d="M853.9,257.4
					c-0.1,0.3-0.2,0.6-0.4,0.9c-0.3,0.4-0.7,0.7-1.2,0.7c-0.5,0-0.4-0.1-0.4-0.4c0,0,0,0,0,0c0-0.3,0.5-0.7,0.5-0.9s0.4-0.7,0.4-0.7
					l0.4-0.2l0.8,0c0,0,0,0,0,0C854,257,854,257.2,853.9,257.4z"/>
				<path id="路径_16671_00000040560793965895997430000000670620292046427839_" class="st0" d="M853.9,257.4
					c-0.1,0.3-0.2,0.6-0.4,0.9c-0.3,0.4-0.7,0.7-1.2,0.7c-0.5,0-0.4-0.1-0.4-0.4c0,0,0,0,0,0c0,0,0,0,0,0c0.2,0.1,0.4,0.1,0.5,0.1
					c0.2,0,0.4,0,0.5-0.1c0.1-0.1,0.2-0.2,0.3-0.3c0.1-0.1,0.2-0.2,0.3-0.3c0.1-0.1,0.1-0.2,0.2-0.4c0.1-0.2,0.1-0.4,0.1-0.6l0-0.1
					c0-0.1,0.1-0.1,0.2-0.2C854,257,854,257.2,853.9,257.4z"/>
				<path id="路径_16672_00000174560678765642063500000010891254974877302181_" class="st0" d="M852.9,254.7
					c0,0.6-0.2,1.8-0.2,1.8s0,0,0,0c-0.1,0-0.2,0.1-0.3,0.1c-0.1,0-0.2,0-0.4,0c-0.3,0-0.7-0.1-0.7-0.5c0-0.1,0-0.3,0-0.4
					c0-0.4,0-0.7-0.1-1.1c-0.1-0.4-0.2-0.8-0.3-1.2c-0.1-0.9-0.2-1.8-0.3-2.7c0-0.1,0-0.1,0-0.2c0-0.1,0-0.3,0-0.4
					c0-0.4,0-0.7,0.1-1.1c0.1-0.5,0.7-0.2,1-0.1c0.1,0,0.3,0.3,0.4,0.7c0.1,0.2,0.1,0.4,0.2,0.7c0.1,0.3,0.1,0.5,0.2,0.8
					c0.1,0.7,0.3,1.5,0.4,2.2c0.1,0.5,0.1,0.9,0.2,1c0,0,0,0.1,0,0.1C852.9,254.5,852.9,254.6,852.9,254.7z"/>
				<path id="路径_16673_00000145036645913618571440000012100227208264062344_" class="st0" d="M852.9,254.3c0,0.1,0,0.2,0,0.4
					c0,0.5-0.1,0.9-0.2,1.3c0,0.2,0,0.3-0.1,0.4c-0.1,0.2-0.2-0.1-0.2-0.2c0-0.4-0.1-0.9-0.2-1.3c0-0.3,0-0.8-0.4-0.9
					c-0.1,0-0.3,0-0.4,0c-0.1,0-0.3,0-0.4,0c0.2,0,0.4-0.1,0.5-0.2c0.1-0.1,0.2-0.2,0.2-0.3c0.1-0.4-0.1-0.7-0.2-1
					c-0.1-0.3-0.2-0.7-0.3-1c-0.1-0.2-0.1-0.5-0.1-0.7c0.8-0.2,1,0.7,1.4,2.5l0,0C852.8,253.7,852.8,254,852.9,254.3z"/>
				<path id="路径_16674_00000039850091807852549730000011872441819579854008_" class="st0" d="M851.1,249.9c0,0,0,0.1,0,0.3
					c0,0.2,0.1,0.5,0.1,0.7c0,0.1,0.1,0.3,0.2,0.4c0.1,0.1,0.1,0.1,0.2,0.2c0.2,0.1,0.3,0.3,0.3,0.5c0.2,0.8,0.3,1.5,0.4,2.3
					c0,0.7,0.2,1.4,0.1,2c0,0.1,0,0.2,0,0.2c0,0.2,0,0.4,0.1,0.5c0,0.1,0.1,0.1,0.2,0.2c0.3,0.1,0.6,0.1,0.8,0h0
					c0.4-0.1,0.7-0.4,0.7-0.9c0-0.2-0.1-0.4-0.1-0.6c0-0.2,0-0.4,0-0.6c0,0,0-0.1,0-0.1c0-0.1,0-0.2,0-0.3c0-0.2,0-0.3,0-0.5
					c0-0.1,0-0.2,0-0.3c0-0.1,0-0.2,0-0.3c0.1-1.1,0.3-2.2,0.2-2.8c0-0.2,0-0.4-0.1-0.7c-0.1-0.6-0.2-1.2-0.2-1.2l-0.4,0.1l-1.8,0.5
					L851.1,249.9z"/>
				<path id="路径_16675_00000072964493502605500840000006718148734002907831_" class="st0" d="M853,257.3c0,0-0.1,0-0.1,0
					c0,0,0,0,0,0c0.1,0,0.3,0,0.4,0c0.1,0,0.1,0,0.2,0h0c0.4-0.1,0.7-0.4,0.7-0.9c0-0.2-0.1-0.4-0.1-0.6c0-0.2,0-0.4,0-0.6
					c0,0,0-0.1,0-0.1c0-0.3,0-0.5,0-0.8c0-0.1,0-0.2,0-0.3c0-0.1,0-0.2,0-0.3c0.1-1.1,0.3-2.2,0.2-2.8c0-0.2,0-0.4-0.1-0.7
					c-0.1-0.6-0.2-1.2-0.2-1.2l-0.4,0.1c0,0.2,0.1,0.6,0.1,1.1c0,0.3,0.1,0.5,0.1,0.7c0,0.5,0,1.1,0,1.6c0,0.2,0,0.4-0.1,0.7
					c0,0.2-0.2,0.4-0.3,0.6c-0.3,0.2-0.6,0.2-0.9,0.2c0.2,0.1,0.4,0.1,0.6,0.1c0.1,0,0.3,0,0.4,0.1c0.1,0.1,0.1,0.2,0,0.4
					c0,0.3,0,0.7,0,1c0,0.4,0,0.8,0,1.2C853.6,256.8,853.7,257.2,853,257.3z"/>
				<path id="路径_16676_00000017494069123557310850000010198416209716559522_" class="st0" d="M850.6,245.1
					c0.1,0.2,0.1,0.5,0.1,0.7c-0.1,0.3-0.1,0.5-0.1,0.8c-0.1,0.6-0.2,1.2-0.1,1.9c-0.2,0-0.4,0-0.7-0.1c-0.2-0.2-0.3-0.5-0.2-0.7
					c0-0.3,0.1-0.7,0.2-1c0.1-0.2,0.1-0.5,0.1-0.7c0-0.1,0-0.3-0.1-0.4c-0.1-0.5,0-1.1,0.1-1.6c0-0.3,0.1-0.5,0.2-0.8
					c0-0.1,0.1-0.1,0.1-0.2c0.2-0.2,0.5-0.4,0.9-0.4c-0.3,0.4-0.5,0.9-0.5,1.4c0,0.1-0.1,0.3-0.1,0.4c0,0.1,0,0.2,0,0.3
					c0,0.1,0,0.2,0.1,0.3C850.5,245,850.5,245,850.6,245.1z"/>
				<path id="路径_16677_00000047756095093041372800000013938526520427833992_" class="st0" d="M850.5,246c0,0.1,0,0.2,0,0.2
					c0,0.2,0,0.3,0.1,0.5c0.1,0.6,0.1,1.1,0,1.7c-0.1,0-0.3-0.1-0.4-0.2c0,0,0,0,0,0c0,0,0,0,0-0.1c0-0.1,0.1-0.2,0.1-0.3
					c0-0.1,0-0.2,0-0.3l0-1c0-0.1,0-0.2,0-0.3c0-0.2-0.1-0.3-0.1-0.5c0-0.2-0.1-0.3-0.1-0.5c0-0.3-0.1-0.7-0.1-1
					c0-0.3,0-0.5,0.1-0.8l0-0.1c0-0.1,0.1,0,0.1,0c0.1,0.1,0.2,0.1,0.2,0.2c0,0.1,0,0.2,0,0.2c0,0.1,0,0.2,0,0.3c0,0.2,0,0.4,0,0.6
					c0,0.3,0,0.7,0,1C850.5,245.9,850.5,246,850.5,246z"/>
				<path id="路径_16678_00000174593280690969938480000009376235932689463458_" class="st0" d="M849.4,248.2
					c0-0.2,0.1-0.5,0.2-0.7c0,0.1,0.1,0.2,0.2,0.3c0.1,0.1,0.2,0.1,0.3,0.2c0.2,0,0.3,0,0.5-0.1c0.1-0.1,0.2-0.1,0.2-0.2
					c0,0,0.1-0.1,0.1-0.2c0.1,0.1,0.1,0.3,0.1,0.4c0,0.1,0,0.3-0.1,0.4c0,0.1,0,0.1-0.1,0.2c-0.1,0.1-0.2,0.1-0.3,0.1
					c-0.2,0-0.4,0-0.6,0c-0.2,0-0.4-0.1-0.6-0.2c0,0-0.1-0.1-0.1-0.1C849.4,248.4,849.4,248.3,849.4,248.2z"/>
				<path id="路径_16679_00000019673811742859491550000013961234925323496586_" class="st0" d="M854.4,251L854.4,251
					c-0.7,0.2-1.4,0.3-2,0.2c-0.3-0.1-0.7-0.1-1-0.2c0,0,0,0-0.1,0c-0.2,0-0.3-0.1-0.5-0.2c-0.1-0.1-0.2-0.1-0.3-0.2l0,0
					c0-0.1,0-0.3,0-0.4c0,0,0,0,0,0c0.1,0,0.1,0,0.2,0c0.2,0,0.3,0,0.5,0.1c0.3,0.1,0.7,0.1,1,0.1c0.4,0,0.8,0,1.2,0
					c0.2,0,0.4-0.1,0.6-0.1c0.1,0,0.3,0,0.4,0.1c0,0,0,0,0,0C854.3,250.5,854.3,250.8,854.4,251z"/>
				<path id="路径_16680_00000009585585865247610070000000586973297969428665_" class="st0" d="M850.1,244.9
					c0.1,0.5,0.1,0.9,0.1,1.4c0,0.5,0,0.9,0.1,1.4c0,0.7,0.1,1.5,0,2.2c0,0,0,0.1,0,0.1c0,0.1,0,0.2,0.1,0.3c0,0.1,0.1,0.1,0.2,0.2
					c0,0,0.1,0.1,0.1,0.1c0.2,0.1,0.5,0.2,0.7,0.3c0,0,0.1,0,0.1,0s0.1,0,0.1,0l0,0c0.3,0.1,0.6,0.1,0.9,0.1c0.3,0,0.6,0,0.9-0.1
					c0.1,0,0.2,0,0.3-0.1c0.1,0,0.2-0.1,0.2-0.2c0.1-0.2,0.2-0.5,0.3-0.8c0.1-0.3,0.1-0.6,0.1-1c0-0.2,0-0.5,0-0.7c0,0,0-0.1,0-0.1
					c0-0.5,0.1-1,0.1-1.5c0-0.1,0-0.3,0-0.4c0-0.4,0-0.9,0-1.3c0-0.2,0-0.5,0-0.7c0-0.1,0.1-0.3,0.1-0.4c0.1-0.1,0.2-0.2,0.3-0.3
					c0,0,0.1-0.1,0.1-0.2c0,0,0-0.1,0-0.1c0-0.1-0.1-0.2-0.2-0.2c-0.3-0.1-0.5-0.3-0.8-0.4c-0.1-0.1-0.3-0.1-0.4-0.2
					c-0.1,0-0.1,0-0.2-0.1c0,0-0.1,0-0.1,0c-0.1,0-0.1,0-0.2,0c0,0,0,0-0.1,0c-0.1,0-0.2,0-0.2,0c0,0,0,0-0.1,0
					c-0.1,0.1-0.3,0.1-0.4,0.1c-0.3,0-0.6,0-0.9,0.1c-0.2,0-0.3,0-0.5,0.1c-0.1,0-0.1,0-0.2,0h0c0,0,0,0,0,0
					c-0.2,0.1-0.4,0.2-0.5,0.3c-0.1,0.2-0.2,0.4-0.2,0.6C850,244,850,244.5,850.1,244.9z"/>
				<g id="组_5872_00000121264562146270385840000016429258837908044440_">
					<path id="路径_16681_00000127010789711306714900000015475598497634393526_" class="st0" d="M851.3,248.6c0,0.3,0,0.7,0,1
						c0,0.3,0,0.6,0.1,0.8c0,0.1,0,0.2,0,0.2c0,0.1,0,0.1,0,0.2c0,0,0.1,0,0.1,0c0,0,0.1,0,0.1,0c0,0,0-0.3,0-0.4
						c0-0.3-0.1-0.5-0.1-0.8c0-0.3,0-0.6,0-1c0-0.3,0-0.7,0-1s0-0.7,0-1c0-0.3,0-0.6,0-1c0-0.3,0-0.5,0-0.8c0-0.2,0-0.4,0-0.6
						c0-0.2,0-0.4,0.1-0.5c0,0.1-0.1,0.1-0.1,0.2c-0.1,0.2-0.2,0.5-0.1,0.7c0,0.2,0,0.5,0,0.7c0,0.3,0,0.6,0,0.9c0,0.3,0,0.7,0,1
						C851.3,247.9,851.3,248.2,851.3,248.6z"/>
				</g>
				<path id="路径_16682_00000021091168777114087990000012961033342089930426_" class="st0" d="M850.1,247.8c0,0.2,0,0.4,0,0.6
					c0,0.3,0,0.5,0,0.8c0,0.3,0,0.5,0,0.8c0,0.3,0,0.7,0.3,0.8c0,0,0,0,0,0c0.1,0,0.1,0,0.2,0.1c0.1,0,0.2,0,0.3,0.1
					c0.1,0,0.2,0.1,0.3,0.1c0-0.3-0.1-0.7-0.1-1c0-0.1,0-0.2,0-0.3c0-0.1,0-0.2,0-0.3c0-0.1,0-0.1,0-0.2c0-0.3,0-0.6,0-0.9
					c0-0.2,0-0.4,0-0.5c0,0,0,0,0-0.1c-0.1-1.4-0.2-2.9,0.4-4.2l0-0.2l-0.1-0.6c0-0.1,0-0.1-0.1-0.1c-0.1,0-0.1,0-0.2,0
					c-0.1,0-0.1,0-0.2,0c-0.1,0-0.2,0-0.2,0.1c-0.1,0.1-0.2,0.2-0.3,0.3c0,0,0,0,0,0.1c-0.1,0.1-0.1,0.3-0.2,0.4
					c0,0.1,0,0.2-0.1,0.3c0,0.2,0,0.5,0,0.7c0.1,0.9,0.1,1.8,0.1,2.6C850.1,247.3,850.1,247.6,850.1,247.8z"/>
				<path id="路径_16683_00000072274672959449139700000013817411696559730342_" class="st0" d="M850,244.4
					c0.2,1.9,0.2,3.8,0.1,5.7c0,0.3,0,0.7,0.3,0.8c0,0,0,0,0,0c0-0.4-0.1-0.8-0.1-1.2c0-0.5,0-0.9,0-1.4c0-0.7,0-1.5,0-2.2
					c0-0.1,0-0.2,0.1-0.3c0.1,0,0.2,0,0.2-0.1c-0.2,0-0.4-0.2-0.4-0.4c-0.1-0.2-0.1-0.4-0.1-0.6c0-0.2,0-0.4,0-0.6
					c0-0.3,0-0.6,0.1-0.9c0.1-0.3,0.3-0.5,0.6-0.6c-0.1,0-0.1,0-0.2-0.1c-0.1,0-0.2,0-0.2,0.1c-0.1,0.1-0.2,0.2-0.3,0.3
					c0,0,0,0,0,0.1c-0.1,0.1-0.1,0.3-0.2,0.4c0,0.1,0,0.2-0.1,0.3C849.9,243.9,849.9,244.2,850,244.4z"/>
				<path id="路径_16684_00000052797046034697894400000014813920391984845982_" class="st0" d="M851.8,247.9c0,0.2,0,0.3,0,0.5
					c0,0.3,0,0.6,0,0.9c0,0.2,0,0.3,0,0.5c0,0.4,0,0.9,0.1,1.3c0,0,0,0.1,0,0.1c0,0,0,0,0,0c0,0,0.1,0,0.1,0.1
					c0.3,0.1,0.6,0.1,0.8,0.1c0.1,0,0.1,0,0.2,0c0,0,0,0,0.1,0c0,0,0.1,0,0.1,0c0.1,0,0.1,0,0.2,0c0.1,0,0.1,0,0.2,0
					c0.1,0,0.3-0.1,0.4-0.1c0.3-0.1,0.5-0.3,0.5-0.6l0.2-2.1c0.1-0.6,0.1-1.1,0.1-1.7c0-0.3,0-0.6,0-0.9c0-0.3,0-0.6-0.1-1
					c0-0.1,0-0.2,0-0.3c0-0.2,0-0.3,0-0.5c0-0.2,0-0.3,0-0.5c0,0,0,0,0,0c0-0.2,0-0.3,0.1-0.4c0,0,0.1-0.1,0.1-0.1c0,0,0,0,0,0
					c-0.3-0.3-0.7-0.5-1.1-0.6c-0.1,0-0.3,0-0.4,0c-0.1,0.1-0.3,0.3-0.4,0.4c-0.2,0.2-0.3,0.5-0.5,0.7c-0.3,0.5-0.5,1-0.6,1.6
					c-0.1,0.4-0.1,0.8-0.1,1.1C851.8,247,851.8,247.5,851.8,247.9z"/>
				<path id="路径_16685_00000121242118014579983340000004052022354586141830_" class="st0" d="M852,251.3
					C852,251.3,852,251.3,852,251.3c0,0,0.1,0.1,0.1,0.1c0.3,0.1,0.6,0.1,0.8,0.1c0.1,0,0.1,0,0.2,0c0,0,0,0,0.1,0c0,0,0.1,0,0.1,0
					c0.1,0,0.1,0,0.2,0c0.1,0,0.1,0,0.2,0c0.1,0,0.3-0.1,0.4-0.1c0.3-0.1,0.5-0.3,0.5-0.6c0-0.4,0.1-0.8,0.1-1.2
					c0-0.2,0-0.4,0.1-0.6c0-0.1,0-0.2,0-0.3c0-0.2,0-0.4,0.1-0.6c0-0.2,0-0.4,0-0.6c0-0.2,0-0.3,0-0.5c0-0.3,0-0.6,0-0.9
					c0-0.3,0-0.6-0.1-1c0-0.1-0.1-0.2-0.1-0.4c-0.1-0.3-0.2-0.6,0-0.8c0,0,0.1-0.1,0.1-0.1c0.1,0,0.1-0.1,0.2-0.1
					c0,0,0.1-0.1,0.1-0.1v0c0-0.1,0-0.1,0-0.2c0,0,0-0.1,0-0.1c0,0,0,0-0.1,0c-0.1-0.1-0.3-0.2-0.4-0.3c-0.2-0.1-0.3-0.2-0.5-0.2
					c-0.2-0.1-0.3-0.1-0.5-0.1l-0.1,0.1c0,0,0,0,0.1,0c0.2,0.1,0.3,0.2,0.5,0.3c0.1,0,0.1,0.1,0.2,0.1c0.2,0.2,0,0.5-0.1,0.7
					c-0.2,0.5-0.2,1-0.1,1.5c0.1,0.2,0,0.4-0.1,0.6c-0.1,0.2-0.3,0.3-0.5,0.4c-0.2,0.1-0.5,0-0.7-0.1c0.2,0.1,0.5,0.2,0.8,0.3
					c0.2,0,0.5,0.1,0.6,0.3c0.1,0.2,0.1,0.5,0.1,0.7c0,0.1,0,0.2,0,0.3c0,0.2,0,0.4,0,0.5c0,0.3-0.1,0.6-0.1,0.9c0,0,0,0,0,0.1
					c0,0.1,0,0.2,0,0.2c0,0.1,0,0.2-0.1,0.3c0,0.1-0.1,0.3-0.1,0.4c-0.1,0.3-0.2,0.6-0.4,0.8c-0.2,0.2-0.5,0.3-0.8,0.4
					C852.3,251.3,852.2,251.3,852,251.3z"/>
				<path id="路径_16686_00000179618188825780948850000000390566615304151485_" class="st0" d="M851.8,249.4c0,0.2,0,0.3,0,0.5
					c0.2,0,0.3,0,0.5,0h0c0.5,0,0.9,0,1.4-0.1l0.1,0c0.3-0.1,0.5-0.1,0.7-0.2c0-0.2,0-0.4,0.1-0.6c-0.3,0.1-0.5,0.2-0.8,0.3
					C853.2,249.4,852.5,249.4,851.8,249.4z"/>
				<path id="路径_16687_00000090293254520512544970000013530241004891843238_" class="st0" d="M851.8,247.9c0,0.2,0,0.3,0,0.5
					c0.2,0,0.4,0,0.6,0c0.3,0,0.7,0,1-0.1c0.2,0,0.4,0,0.7-0.1c0.1,0,0.2,0,0.2-0.1c0.1,0,0.3-0.1,0.4-0.2c0.1,0,0.1-0.1,0.2-0.1
					c0-0.2,0-0.4,0-0.6c-0.1,0.1-0.3,0.2-0.5,0.3c-0.3,0.1-0.5,0.2-0.8,0.2c-0.3,0-0.6,0.1-0.9,0.1c-0.1,0-0.2,0-0.3,0
					C852.2,248,852,248,851.8,247.9z"/>
				<path id="路径_16688_00000106124909204298477590000001265742480494012351_" class="st0" d="M853.1,242.9c0,0-0.1,0.1-0.1,0.1
					c0,0,0,0,0,0c-0.1,0.1-0.2,0.2-0.4,0.2c-0.1,0.1-0.3,0.2-0.4,0.2c-0.1,0.1-0.3,0.1-0.4,0.1c-0.3-0.1-0.3-0.3-0.4-0.5
					c0-0.1,0-0.1,0-0.2c0,0,0-0.1,0-0.1c0-0.1,0-0.3,0-0.4c0,0,0,0,0,0l1.8-1.3c0,0-0.4,1.1-0.2,1.3c0.1,0.1,0.3,0.2,0.5,0.3
					C853.4,242.4,853.4,242.6,853.1,242.9z"/>
				<path id="路径_16689_00000023250220506504815280000018390781444107178133_" class="st0" d="M850.9,242.1
					c0.2,0.1,0.3,0.2,0.5,0.3c0,0.2-0.1,0.4-0.1,0.5c0,0.1,0,0.2,0.1,0.3c0.1,0.1,0.2,0.2,0.3,0.2c-0.1,0.1-0.1,0.2-0.1,0.4
					c0,0.1,0,0.1,0,0.2c0,0.1-0.1,0.2-0.2,0.3c-0.1,0-0.2-0.1-0.3-0.2c0-0.1,0.1-0.2,0.2-0.3c0,0,0,0,0,0c-0.1-0.1-0.2-0.2-0.3-0.4
					C850.7,243.1,850.7,242.6,850.9,242.1z"/>
				<path id="路径_16690_00000086672476137810015790000009554115573537286824_" class="st0" d="M853.1,242.9c0,0-0.1,0.1-0.1,0.1
					c0,0,0,0,0,0c0,0,0,0,0-0.1c0-0.1-0.1-0.2-0.1-0.3c0-0.1,0-0.1,0-0.2c0-0.1-0.1-0.1-0.1-0.2c-0.1,0-0.2,0-0.3,0.1
					c-0.1,0.1-0.2,0.2-0.4,0.3c-0.1,0.1-0.3,0.2-0.4,0.2c-0.1,0-0.1,0-0.2,0c0,0,0-0.1,0-0.1c0-0.1,0-0.3,0-0.4c0,0,0,0,0,0l1.8-1.3
					c0,0-0.4,1.1-0.2,1.3c0.1,0.1,0.3,0.2,0.5,0.3C853.4,242.5,853.4,242.6,853.1,242.9z"/>
				<path id="路径_16691_00000044884172684203850160000016097411948138301877_" class="st0" d="M853.2,241.1
					C853.2,241.2,853.2,241.2,853.2,241.1c0,0.1,0,0.1,0,0.2c-0.1,0.1-0.1,0.2-0.2,0.3h0c0,0-0.1,0.1-0.1,0.1c0,0.1-0.1,0.1-0.1,0.2
					c0,0,0,0.1-0.1,0.1c-0.2,0.2-0.4,0.4-0.7,0.5l0,0c0,0-0.1,0-0.1,0c0,0,0,0,0,0c0,0,0,0,0,0c0,0,0,0,0,0c0,0,0,0,0,0
					c-0.4,0.2-0.7,0.2-0.9,0c-0.2-0.2-0.2-0.8-0.2-0.8c0-0.1,0-0.3-0.1-0.4c0,0,0,0,0,0c0-0.1,0-0.3,0-0.4c0-0.1,0-0.1,0-0.2
					c0-0.1,0-0.3,0-0.4c0-0.2,0.1-0.3,0.1-0.5c0-0.1,0.1-0.2,0.1-0.3c0-0.2,0.1-0.4,0.3-0.5c0.2-0.1,0.4-0.2,0.7-0.2
					c0,0,0.8,0.6,0.9,0.6c0.4,0.2,0.6,0.7,0.6,1.1C853.2,240.8,853.2,241,853.2,241.1C853.2,241.1,853.2,241.1,853.2,241.1
					C853.2,241.1,853.2,241.1,853.2,241.1z"/>
				<path id="路径_16692_00000011721924855247752780000009924280844053411480_" class="st0" d="M850.7,240
					c0.4-0.2,0.8-0.3,1.2-0.3c0.1,0,0.2,0,0.4,0c0.1,0,0.2,0.1,0.3,0.2c0.1,0.1,0.1,0.3,0.1,0.4c0,0.2,0,0.3-0.1,0.5
					c-0.1,0.3-0.2,0.6-0.2,1c0-0.1-0.1-0.2-0.1-0.2c-0.1-0.2-0.1-0.4-0.1-0.5c0-0.1,0-0.1,0-0.2c0-0.1,0-0.3,0-0.4
					c0-0.1,0-0.1-0.1-0.2c-0.1,0-0.2-0.1-0.2-0.1c-0.3,0-0.7-0.1-1-0.1C850.9,240.1,850.8,240.1,850.7,240L850.7,240z"/>
				<path id="路径_16693_00000025426858261447175080000000986917577648413606_" class="st0" d="M853.6,240.2
					c-0.1,0.3-0.1,0.6-0.2,0.9c0,0,0,0.1,0,0.1c0,0,0,0.1,0,0.1c0,0,0,0,0,0c-0.1,0.1-0.2,0.3-0.3,0.4c0,0,0,0,0,0c0,0,0,0,0,0
					c0-0.1,0-0.2,0.1-0.2c0,0,0-0.1,0-0.1c0,0,0,0,0-0.1c0,0,0-0.1,0-0.1c-0.1-0.1-0.2-0.1-0.3-0.1c-0.1,0.1-0.2,0.1-0.2,0.2
					c0,0,0,0.1-0.1,0.1c0,0,0,0.1,0,0.1c0,0,0,0,0,0.1c0,0,0,0,0-0.1c0,0,0,0,0-0.1c0-0.1,0-0.2,0-0.3c0-0.1,0-0.3,0-0.4
					c0-0.1,0-0.2,0.1-0.3c0-0.1,0-0.2-0.1-0.3c-0.1-0.1-0.2-0.1-0.3-0.2c-0.3-0.1-0.6-0.1-0.9,0c-0.2,0-0.3,0-0.5,0c0,0-0.1,0-0.1,0
					c0,0-0.1-0.1-0.1-0.1c0-0.1,0-0.3,0-0.4c0-0.1,0.1-0.2,0.1-0.3c0-0.1,0.1-0.1,0.2-0.2c0.1-0.1,0.2-0.1,0.3-0.1
					c0.2,0,0.4,0,0.6,0c0.4,0,0.8,0,1.2,0.3c0.1,0.1,0.2,0.2,0.3,0.3c0,0,0,0,0.1,0.1C853.5,239.7,853.6,239.9,853.6,240.2z"/>
				<path id="路径_16694_00000096028106020204125550000006049925919779174047_" class="st0" d="M853.6,240.2
					c-0.1,0.3-0.1,0.6-0.2,0.9c0,0,0,0.1,0,0.1c0,0,0,0.1,0,0.1c0,0,0,0,0,0c-0.1,0.1-0.1,0.3-0.3,0.4h0c0,0,0,0,0,0c0,0,0,0,0,0
					c0-0.1,0-0.2,0.1-0.2c0,0,0-0.1,0-0.1c0,0,0,0,0-0.1c0,0,0-0.1,0-0.1c-0.1-0.1-0.2-0.1-0.3-0.1c-0.1,0.1-0.2,0.1-0.2,0.2
					c0,0,0,0.1-0.1,0.1c0,0,0,0.1,0,0.1c0,0,0,0,0,0.1c0,0,0,0,0-0.1c0,0,0,0,0-0.1c0-0.1,0-0.2,0-0.3c0-0.1,0-0.3,0-0.4
					c0-0.1,0-0.2,0.1-0.3c0,0.2,0,0.5-0.1,0.7c0,0,0,0.1,0.1,0.1c0,0,0,0,0,0c0.1-0.1,0.1-0.2,0.2-0.2c0.1-0.1,0.1-0.1,0.2-0.1
					c0.1,0,0.2,0,0.2,0.1c0,0,0,0,0,0c0,0,0.1,0,0.1-0.1c0.2-0.3,0.2-0.7,0.2-1c0-0.1-0.1-0.3-0.1-0.4
					C853.5,239.7,853.6,239.9,853.6,240.2z"/>
				<path id="路径_16695_00000177450100012285444600000011418989522880045953_" class="st0" d="M853.3,239.4
					c0.1,0.1,0.1,0.2,0.2,0.3c0,0.1,0,0.2-0.1,0.3c-0.1,0.1-0.2,0.1-0.4,0.1c-0.1,0-0.2-0.1-0.4-0.2c-0.2-0.2-0.4-0.2-0.7-0.2
					l-0.8,0c-0.1,0-0.3,0-0.4-0.1c-0.2-0.1-0.2-0.3-0.1-0.5c0,0,0-0.1,0.1-0.1c0.3-0.2,0.7-0.2,1.1-0.2c0.4,0,0.8,0,1.2,0.3
					C853.1,239.3,853.2,239.3,853.3,239.4z"/>
				<path id="路径_16696_00000053541094857734358200000016504037366551899548_" class="st0" d="M849.9,250.5c0,0,0,0.1,0,0.2
					c0,0.1,0,0.1,0,0.2l0.1,0.2c0,0,0.1,0.1,0.1,0.1s0.1,0.1,0.1,0.1s-0.1-0.1-0.1-0.2s0-0.2,0-0.2c0-0.1,0-0.2,0-0.3c0,0,0,0,0-0.1
					L849.9,250.5z"/>
				<path id="路径_16697_00000085208494337252184260000014497663439381068431_" class="st0" d="M851.8,238.9c-0.1,0-0.2,0-0.3,0
					c-0.1,0-0.2,0-0.3,0.1c-0.1,0-0.1,0.1-0.2,0.1c0,0,0,0,0,0c0,0.1,0,0.2,0.1,0.2c0.2,0.1,0.5,0,0.8,0c0.3,0,0.6,0.2,1,0.3
					c0.1,0,0.1,0,0.2,0c0,0,0-0.1,0-0.1c0,0,0-0.1-0.1-0.1c-0.1-0.1-0.1-0.2-0.2-0.2c-0.1-0.1-0.3-0.1-0.4-0.2c-0.1,0-0.2,0-0.2,0
					C852,239,851.9,238.9,851.8,238.9L851.8,238.9z"/>
				<path id="路径_16698_00000159441603614571347920000014064245124688240779_" class="st0" d="M851.7,243.6c0.1,0,0.1,0,0.2,0
					c0,0,0.1,0,0.1,0c0,0,0.1,0,0.1-0.1c0.1,0,0.2-0.1,0.3-0.2c0.3-0.2,0.7-0.4,0.7-0.8c0-0.1,0-0.2-0.1-0.2c0.1,0,0.2,0,0.4,0.1
					c0.1,0,0.1,0,0.2,0.1c0.1,0,0.1,0,0.2,0.1c0,0,0,0,0,0.1c0,0,0,0.1,0,0.1c0,0.1,0,0.1-0.1,0.2c-0.1,0.1-0.1,0.2-0.2,0.3
					c-0.1,0.2-0.3,0.3-0.5,0.5c-0.1,0.1-0.2,0.1-0.3,0.2c-0.1,0-0.2,0.1-0.3,0.1c-0.1,0.1-0.3,0.1-0.4,0.1c-0.1,0-0.1,0.1-0.2,0.1
					c-0.1,0.1-0.1,0.1-0.2,0.2c0,0,0,0.1-0.1,0.1C851.5,244.1,851.6,243.8,851.7,243.6C851.7,243.6,851.7,243.6,851.7,243.6
					C851.7,243.6,851.7,243.6,851.7,243.6L851.7,243.6z"/>
				<g id="组_5875_00000121961341752158531700000000097223977462166914_">
					<g id="组_5874_00000018936357186028154090000006794187373163430545_">
						<path id="路径_16699_00000045605022321308439390000005232230635777960115_" class="st0" d="M849.8,240.1
							c0,0,0.1-0.1,0.1-0.1c0.2-0.2,0.3-0.3,0.6-0.5c0.2-0.1,0.4-0.2,0.6-0.3c0.5-0.2,0.9-0.2,1.4-0.2c0.1,0,0.2,0,0.3,0
							c0.1,0,0.2,0.1,0.3,0.1c0.2,0.1,0.3,0.2,0.4,0.3c0,0,0,0,0-0.1c0.1,0.2,0.2,0.4,0.2,0.7c0,0.1-0.1,0.2-0.1,0.3
							c-0.1,0.1-0.2,0.2-0.3,0.3c-0.1,0.1-0.1,0.1-0.2,0.1c-0.2,0.1-0.3,0.1-0.5,0.1c0,0-0.1,0-0.1,0c-0.2,0.1-0.4,0.2-0.6,0.3
							c-0.2,0.1-0.4,0.1-0.7,0.1c-0.3,0-0.7-0.1-1-0.2c-0.1,0-0.2-0.1-0.2-0.2C849.8,240.6,849.7,240.3,849.8,240.1z"/>
						<path id="路径_16700_00000056385587141431802030000000315398088761990063_" class="st0" d="M853.5,239.4
							C853.5,239.4,853.5,239.4,853.5,239.4c-0.1-0.1-0.3-0.1-0.4-0.2c-0.1,0-0.2-0.1-0.3-0.1c-0.1,0-0.2,0-0.3,0
							c-0.5,0-1,0-1.4,0.2c-0.2,0.1-0.4,0.2-0.6,0.3c-0.2,0.1-0.4,0.3-0.6,0.5c0,0-0.1,0.1-0.1,0.1c0,0.1,0,0.1-0.1,0.2
							c0-0.1,0-0.2,0.1-0.3c0,0,0.1-0.1,0.1-0.1c0.2-0.2,0.3-0.3,0.6-0.5c0.2-0.1,0.4-0.2,0.6-0.3c0.5-0.2,0.9-0.2,1.4-0.2
							c0.1,0,0.2,0,0.3,0c0.1,0,0.2,0.1,0.3,0.1C853.2,239.1,853.4,239.2,853.5,239.4C853.5,239.3,853.5,239.3,853.5,239.4
							c0.1,0.1,0.2,0.3,0.2,0.6C853.7,239.7,853.6,239.5,853.5,239.4z"/>
						<path id="路径_16701_00000014634238924219724690000016759464426758004644_" class="st0" d="M850,240.8
							c0.1,0.1,0.2,0.1,0.2,0.2c0.3,0.1,0.6,0.2,1,0.2c0.2,0,0.4,0,0.7-0.1c0.2-0.1,0.4-0.2,0.6-0.3c0,0,0.1,0,0.1,0
							c0.2,0,0.4-0.1,0.5-0.1c0.1,0,0.2-0.1,0.2-0.1c0.1-0.1,0.2-0.2,0.3-0.3c0.1-0.1,0.1-0.2,0.1-0.3c0,0,0,0,0,0c0,0,0,0.1,0,0.1
							c0,0.1-0.1,0.2-0.1,0.3c-0.1,0.1-0.2,0.2-0.3,0.3c-0.1,0.1-0.1,0.1-0.2,0.1c-0.2,0.1-0.3,0.1-0.5,0.1c0,0-0.1,0-0.1,0
							c-0.2,0.1-0.4,0.2-0.6,0.3c-0.2,0.1-0.4,0.1-0.7,0.1c-0.3,0-0.7-0.1-1-0.2C850.2,241,850.1,240.9,850,240.8
							c-0.1-0.1-0.2-0.3-0.2-0.5C849.8,240.4,849.9,240.6,850,240.8z"/>
						<path id="路径_16702_00000109012705851758089410000011432061676725331879_" class="st0" d="M850.6,239.3
							c0.1-0.1,0.2-0.3,0.2-0.4c0.1-0.1,0.2-0.3,0.3-0.4c0.1-0.1,0.3-0.2,0.5-0.2c0.3-0.1,0.6-0.1,0.9,0c0.3,0.1,0.5,0.2,0.7,0.4
							c0.3,0.3,0.4,0.7,0.4,1.1c0,0.2-0.1,0.4-0.3,0.6c-0.6,0.4-1.4,0.4-2,0.2c-0.3-0.1-0.7-0.3-0.8-0.6c0-0.1,0-0.1,0-0.2
							C850.4,239.6,850.5,239.5,850.6,239.3z"/>
						<path id="路径_16703_00000083065530958279028550000007809542762734546868_" class="st0" d="M850.4,240.1
							C850.4,240.1,850.4,240.1,850.4,240.1c0,0.1,0,0.1,0,0.2c0.1,0.1,0.2,0.1,0.2,0.2c0,0,0.1,0,0.1,0.1c0,0,0,0,0,0
							c0,0,0,0,0.1,0c0,0,0,0,0,0c0,0,0,0,0-0.1l0-0.1l0.1-0.3l0.2-0.4l0.2-0.3l0.4-0.4l0.3-0.3l0.5-0.1l0.6,0.1
							c-0.2-0.2-0.3-0.3-0.6-0.4l0,0c0,0,0,0-0.1,0c-0.1-0.1-0.3-0.1-0.4-0.1c-0.1,0-0.3,0-0.4,0.1c0,0-0.1,0-0.1,0.1
							c-0.1,0-0.2,0.1-0.2,0.1c-0.1,0.1-0.2,0.1-0.2,0.2c-0.1,0.1-0.1,0.1-0.2,0.2c-0.1,0.1-0.1,0.2-0.2,0.2s-0.1,0.2-0.2,0.2
							c0,0.1-0.1,0.2-0.1,0.2c0,0.1-0.1,0.1-0.1,0.2c0,0.1-0.1,0.1-0.1,0.2C850.4,239.9,850.4,240.1,850.4,240.1z"/>
						<g id="组_5873_00000147935474493320439870000001761402507212559010_">
							<path id="路径_16704_00000053528365002109064590000013678789860175074731_" class="st0" d="M851,240.5
								C851,240.5,851,240.5,851,240.5C851,240.4,851,240.4,851,240.5c0-0.1,0.1-0.2,0.1-0.2c0-0.1,0.1-0.1,0.1-0.2
								c0-0.1,0.1-0.1,0.1-0.2c0-0.1,0.1-0.2,0.1-0.2c0-0.1,0.1-0.2,0.2-0.2c0.1-0.1,0.1-0.2,0.2-0.2c0.1-0.1,0.1-0.1,0.2-0.2
								c0.1-0.1,0.1-0.1,0.2-0.2c0.1,0,0.2-0.1,0.2-0.1c0,0,0.1,0,0.1,0c0,0,0.1,0,0.1,0c0.3,0,0.6,0.1,0.8,0.3c0,0,0,0,0.1,0.1
								c0,0,0-0.1,0-0.1c0-0.1-0.1-0.1-0.1-0.2c0,0-0.1-0.1-0.1-0.1c-0.1-0.1-0.3-0.1-0.4-0.1c-0.1,0-0.3,0-0.4,0.1
								c0,0-0.1,0-0.1,0.1c-0.1,0-0.2,0.1-0.2,0.1c-0.1,0.1-0.1,0.1-0.2,0.2c-0.1,0.1-0.1,0.1-0.2,0.2c-0.1,0.1-0.1,0.2-0.2,0.2
								c-0.1,0.1-0.1,0.2-0.2,0.2c0,0.1-0.1,0.2-0.1,0.2c0,0.1-0.1,0.1-0.1,0.2c0,0.1-0.1,0.1-0.1,0.2c0,0,0,0.1-0.1,0.1
								c0,0,0,0,0,0.1c0,0,0,0,0,0.1C850.8,240.5,850.9,240.5,851,240.5C850.9,240.5,850.9,240.5,851,240.5
								C850.9,240.5,851,240.5,851,240.5z"/>
						</g>
					</g>
				</g>
				<g id="组_5876_00000089538948635538664330000005462050838944611735_">
					<path id="路径_16705_00000020372477962681623170000012546465371435965586_" class="st0" d="M850.1,247c0,0.3,0,0.5,0,0.8
						c0.3,0.2,0.6,0.4,0.9,0.5c0-0.2,0-0.4,0-0.5C850.6,247.6,850.3,247.4,850.1,247L850.1,247z"/>
				</g>
				<g id="组_5877_00000033340679196509946980000005436268459815268771_">
					<path id="路径_16706_00000093144371268441908160000008286359020090818987_" class="st0" d="M850.1,249.2
						c0.3,0.2,0.6,0.4,0.9,0.5c0-0.1,0-0.2,0-0.3c0-0.1,0-0.1,0-0.2c-0.4-0.1-0.7-0.4-0.9-0.7l0,0
						C850.1,248.7,850.1,249,850.1,249.2z"/>
				</g>
				<path id="路径_16707_00000041283182268906317490000013713303369415319714_" class="st0" d="M852.2,245.3c0-0.1,0-0.3,0.1-0.3
					c0,0,0.1,0,0.1,0c0.2,0.1,0.5,0.1,0.7,0.1c0.1,0,0.2,0,0.3,0c0.1,0,0.2,0,0.2,0c0,0.1,0,0.2,0,0.3l0,0.6c0,0.1,0,0.1,0,0.2
					c0,0-0.1,0.1-0.1,0.1c-0.2,0.1-0.4,0.2-0.6,0.3c0,0,0,0-0.1,0c-0.1,0-0.2-0.1-0.3-0.3c0-0.1-0.1-0.1-0.1-0.2
					c0,0-0.1-0.1-0.1-0.2c0,0,0-0.1,0-0.1C852.2,245.7,852.2,245.5,852.2,245.3z"/>
				<g id="组_5882_00000038381588438734785940000015248725649478566816_">
					<g id="组_5878_00000133500454669486615080000006943625927308773792_">
						<path id="路径_16708_00000163058312974382980550000012767077129988036491_" class="st0" d="M850.9,242.5v1.7l-0.2,0.1v-1.7
							L850.9,242.5z"/>
						<path id="路径_16709_00000109019860819976017360000000671228529253435326_" class="st0" d="M850.7,242.4l0.2,0.1l-0.2,0.1
							l-0.2-0.1L850.7,242.4z"/>
						<path id="路径_16710_00000152230276079640199030000006193355903815445379_" class="st0" d="M850.4,242.6v1.7l0.2,0.1v-1.7
							L850.4,242.6z"/>
					</g>
					<g id="组_5879_00000168094000378152812320000015102331203624890302_">
						<path id="路径_16711_00000179637816222563515230000004978546106181294515_" class="st0" d="M850.4,242l-0.1-0.2
							c0,0,0.2-0.1,0.2-0.1l0,0c0.1,0,0.2,0,0.2,0c0.2,0.2,0.4,0.4,0.4,0.7c0,0.1,0,0.2-0.1,0.3l-0.1,0.1l-0.1-0.2
							C850.5,242.5,850.4,242.3,850.4,242z"/>
					</g>
					<g id="组_5880_00000088110401470228646180000002355672877001661858_">
						<path id="路径_16712_00000129925191338366377910000014159474176000268474_" class="st0" d="M849.8,241.8l0.1,0.3
							c0,0.3,0.2,0.6,0.4,0.8l0.1,0.3l0.2-0.1c0.1-0.1,0.2-0.2,0.2-0.4c0-0.4-0.2-0.7-0.5-0.9l0,0c-0.1,0-0.1,0-0.2,0L849.8,241.8
							L849.8,241.8L849.8,241.8z"/>
						<path id="路径_16713_00000133512311091102276610000008565332115956262795_" class="st0" d="M849.7,242.2
							c0,0.4,0.2,0.7,0.5,0.9c0.3,0.2,0.5,0,0.5-0.4c0-0.4-0.2-0.7-0.5-0.9C849.9,241.7,849.7,241.8,849.7,242.2z"/>
						<path id="路径_16714_00000073684175162463134000000010024541883264281783_" class="st0" d="M849.1,244.1l-0.8-2l1.6-0.3
							c0.1,0,0.2,0,0.2,0.1c0.3,0.2,0.5,0.6,0.5,0.9c0,0.1,0,0.3-0.1,0.4l0,0l0,0C850.5,243.2,849.1,244.1,849.1,244.1z"/>
					</g>
					<g id="组_5881_00000146482725033650878090000014393510062088694968_">
						<path id="路径_16715_00000071519328464919170660000014329172203463791498_" class="st0" d="M848.2,242.6l-0.2-0.5
							c0,0,0.2-0.1,0.2-0.1l0,0c0.2-0.1,0.3,0,0.5,0.1c0.5,0.3,0.8,0.9,0.8,1.5c0,0.3-0.1,0.5-0.3,0.6l-0.1,0.1l-0.2-0.4
							C848.5,243.5,848.2,243.1,848.2,242.6z"/>
						<path id="路径_16716_00000057128401543949379650000011914998227816732570_" class="st0" d="M847.7,242.7
							c0,0.6,0.3,1.2,0.8,1.5c0.4,0.3,0.8,0,0.8-0.6c0-0.6-0.3-1.2-0.8-1.5C848,241.9,847.7,242.2,847.7,242.7z"/>
						<path id="路径_16717_00000168090374712818396930000012242337789032997562_" class="st0" d="M847.7,242.7
							c0,0.6,0.3,1.1,0.8,1.4c0.1,0.1,0.2,0.1,0.3,0.1c0.2,0,0.4-0.2,0.4-0.6c0-0.1,0-0.2,0-0.3c-0.1-0.3-0.2-0.6-0.4-0.8
							c-0.1-0.1-0.2-0.3-0.4-0.4c-0.1-0.1-0.2-0.1-0.3-0.1C847.9,242.1,847.7,242.4,847.7,242.7z"/>
						<path id="路径_16718_00000009549639444260740370000012765225044261820825_" class="st0" d="M848.1,242.1
							C848.2,242.1,848.2,242.1,848.1,242.1c-0.1,0.1-0.2,0.3-0.1,0.5c0,0.6,0.3,1.1,0.8,1.4c0.1,0,0.1,0.1,0.2,0.1
							c-0.1,0.1-0.1,0.1-0.2,0.1c-0.1,0-0.2,0-0.3-0.1c-0.5-0.3-0.7-0.9-0.8-1.4C847.7,242.4,847.9,242.1,848.1,242.1z"/>
					</g>
					<path id="路径_16719_00000148634864559351819770000009600568671530211735_" class="st0" d="M848.4,242.9l0.3,0.6l0.4-0.1
						c-0.1-0.3-0.2-0.6-0.4-0.8L848.4,242.9z"/>
					<path id="路径_16720_00000173847591492086217220000013347097632761725831_" class="st0" d="M848.4,243.1
						c0,0.2,0.1,0.3,0.2,0.4c0.1,0.1,0.2,0,0.2-0.2c0-0.2-0.1-0.3-0.2-0.4C848.5,242.8,848.4,242.9,848.4,243.1z"/>
					<path id="路径_16721_00000173867222643043672970000010936043701449884317_" class="st0" d="M848.7,243.5
						c0.1,0,0.1-0.1,0.1-0.1c0-0.2-0.1-0.3-0.2-0.4c0,0,0,0-0.1,0c-0.1,0-0.1,0.1-0.1,0.1C848.4,243.2,848.5,243.3,848.7,243.5
						C848.6,243.5,848.7,243.5,848.7,243.5z"/>
				</g>
				<path id="路径_16722_00000008870510809894410330000011063057808686370751_" class="st0" d="M853.6,247c0,0.1,0.1,0.2,0,0.3
					c0,0.2-0.2,0.4-0.4,0.5c-0.6,0.2-1.2-0.3-1.6-0.7c-0.3-0.3-0.6-0.5-0.9-0.7c-0.3-0.3-0.6-0.7-0.9-1c-0.1-0.1-0.1-0.1-0.2-0.2
					l-0.2-0.3c-0.1-0.1-0.2-0.2-0.2-0.3c-0.1-0.1-0.1-0.2,0-0.4c0.1-0.2,0.2-0.4,0.3-0.5c0.1-0.1,0.3-0.2,0.4-0.3
					c0.1,0,0.1-0.1,0.2-0.1c0.1,0,0.1-0.1,0.2-0.1c0.1,0,0.1,0.1,0.1,0.2c0,0.2,0,0.4,0,0.6c0.1,0,0.1,0,0.2-0.1
					c0,0,0.1-0.1,0.1-0.1c0,0,0.1,0,0.1,0c0,0,0,0.1,0,0.2c-0.1,0.2-0.5,0.6-0.3,0.8c0.1,0.1,0.2,0.2,0.3,0.2
					c0.4,0.2,0.9,0.5,1.3,0.6c0.1,0.1,0.3,0.1,0.4,0.2c0.1,0.1,0.2,0.1,0.3,0.2c0.2,0.2,0.4,0.4,0.5,0.6
					C853.5,246.8,853.6,246.9,853.6,247z"/>
				<path id="路径_16723_00000097497371903066477530000016187744470771200179_" class="st0" d="M852.2,247.3c0,0,0,0.1,0,0.1
					c0,0.1,0,0.1,0,0.2c0,0,0.1,0.1,0.1,0.1c0.1,0.1,0.3,0.1,0.4,0.2l0,0c0.1,0,0.2,0,0.3,0c0.1,0,0.2,0,0.3-0.1
					c0-0.1,0.1-0.1,0.1-0.1c0,0,0,0,0,0l0,0c0,0,0,0,0,0c0,0,0,0,0.1-0.1l0,0c0,0,0,0,0,0l0,0c0,0,0.1-0.1,0.1-0.1
					c0-0.1,0.1-0.1,0.1-0.2c0.1-0.1,0.1-0.2,0.1-0.2c0,0,0,0,0-0.1c0-0.1,0.1-0.2,0.1-0.3c0.2-0.5,0.5-1.1,0.6-1.6
					c0-0.1,0-0.1,0.1-0.2c0,0,0-0.1,0-0.1c0-0.1,0.1-0.3,0.1-0.4c0,0,0-0.1,0-0.1c0,0,0,0,0,0c0,0,0-0.1,0-0.1c0-0.1,0-0.1,0-0.2
					c0,0,0,0,0-0.1c0-0.1,0-0.1,0-0.2c0-0.1,0-0.1-0.1-0.2c0,0,0,0,0-0.1c-0.1-0.1-0.1-0.2-0.2-0.2c-0.1,0-0.1-0.1-0.2-0.1
					c-0.2,0-0.4,0-0.6,0.2c-0.5,0.7-0.9,1.4-1,2.2c0,0.2-0.1,0.4-0.1,0.7c0,0,0,0-0.1,0c0,0-0.1,0-0.1,0c0,0-0.1,0-0.1,0.1
					c-0.1,0.1-0.1,0.2-0.2,0.3c-0.1,0.2-0.2,0.3-0.2,0.5c0,0.1,0,0.2,0,0.3C852.2,247.3,852.2,247.3,852.2,247.3z"/>
				<path id="路径_16724_00000163051506290435630710000014450920663321001867_" class="st0" d="M852.2,247.3c0,0,0,0.1,0,0.1
					c0,0.1,0,0.1,0,0.2c0,0,0.1,0.1,0.1,0.1c0.1,0.1,0.3,0.1,0.4,0.2l0,0c0.1,0,0.2,0,0.3,0c0.1,0,0.2,0,0.3-0.1
					c0.1-0.1,0.2-0.2,0.3-0.3l0,0c0,0,0,0,0,0l0,0c0,0,0.1-0.1,0.1-0.1c0-0.1,0.1-0.1,0.1-0.2c0.1-0.1,0.1-0.2,0.1-0.2
					c0,0,0,0,0-0.1c0-0.1,0.1-0.2,0.1-0.3c0.2-0.5,0.5-1.1,0.6-1.6c0-0.1,0-0.1,0.1-0.2c0,0,0-0.1,0-0.1c0-0.1,0.1-0.3,0.1-0.4
					c0,0,0-0.1,0-0.1c0,0,0,0,0,0c0,0,0-0.1,0-0.1c0-0.1,0-0.1,0-0.2c0,0,0,0,0-0.1c0-0.1,0-0.1,0-0.2c0-0.1,0-0.1-0.1-0.2
					c0,0.2,0,0.4-0.1,0.6c0,0.2-0.1,0.4-0.1,0.6c-0.1,0.2-0.1,0.4-0.2,0.7c0,0.2-0.1,0.5-0.3,0.7c-0.1,0.1-0.3,0.2-0.4,0.1
					c0.1,0.1,0.1,0.1,0.1,0.2c0,0.1,0,0.1-0.1,0c-0.1,0-0.1,0-0.2-0.1c-0.1-0.1-0.3-0.1-0.4-0.1c0.1,0.1,0.2,0.3,0.4,0.4
					c0,0,0.1,0.1,0.1,0.1s-0.1,0.1-0.1,0.1c-0.1,0-0.2,0-0.3,0c0,0.1,0.1,0.1,0.1,0.2c0,0,0,0.1-0.1,0.1c0,0-0.1,0-0.1,0l-0.2-0.1
					c0.1,0.1,0.1,0.3,0,0.4c-0.1,0.1-0.2,0.2-0.4,0.2c-0.1,0-0.2-0.1-0.3-0.2l-0.3-0.2C852.2,247.3,852.2,247.3,852.2,247.3z"/>
				<path id="路径_16725_00000030481305780872765730000000910132038011400853_" class="st0" d="M852.7,245.9
					C852.7,245.9,852.8,245.9,852.7,245.9c0.1,0.1,0.2,0.2,0.2,0.2c0,0,0,0,0,0c-0.3,0.2-0.5,0.6-0.5,0.9c0,0.1,0,0.2,0,0.3
					c0,0,0.1,0.4,0.2,0.4c-0.1,0.1-0.3,0-0.4-0.1c-0.1,0-0.1-0.1-0.2-0.2c0,0-0.1-0.1-0.1-0.2c0-0.1,0-0.1-0.1-0.2
					c0-0.1,0-0.3,0.1-0.4c0-0.2,0.1-0.3,0.2-0.5c0-0.1,0.1-0.1,0.1-0.2c0.1-0.1,0.2-0.2,0.3-0.3
					C852.5,245.7,852.6,245.8,852.7,245.9C852.7,245.8,852.7,245.8,852.7,245.9z"/>
			</g>
			<g id="组_5887_00000173873076228809075460000010817568848686367155_" transform="translate(-27.072 -27.876)">
				<path id="路径_16729_00000165926557178394861840000011270755722421282462_" class="st0" d="M868.3,283.6
					c0.3-0.7,0.8-1.3,1.4-1.7c0.3-0.2,0.5-0.4,0.9-0.5c0.2-0.1,0.5-0.1,0.7-0.1c0.7,0,1.4,0.1,2,0.5c0.2,0.1,0.3,0.3,0.4,0.4
					c0.1,0.2,0.1,0.3,0,0.5c-0.2,0.6-0.7,1-1.3,1.3c-0.9,0.5-2,0.9-3.1,0.7c-0.3,0-0.5-0.1-0.7-0.2c-0.1,0-0.3-0.1-0.4-0.2
					C867.8,284.1,868.1,283.8,868.3,283.6z"/>
				<g id="组_5886_00000128482579469383572610000015212286361012402581_">
					<path id="路径_16730_00000132783079763625857740000002353588191523547809_" class="st0" d="M867,284c0.3,0.3,0.7,0.5,1.1,0.6
						c0.4,0.1,0.9,0.1,1.3,0.1c1.2,0,2.6-0.2,2.8-1c0.1-0.6-0.9-2.1-1.2-2.7c-0.1-0.3-0.3-0.6-0.6-0.8c-0.2-0.2-0.5-0.2-0.8-0.2
						c-0.4,0-0.8,0.2-1,0.5c-0.5,0.5-0.9,1.1-1.1,1.7c-0.2,0.3-0.3,0.7-0.4,1.1C866.8,283.5,866.6,283.7,867,284z"/>
					<path id="路径_16731_00000126290911746721561720000013080978427333026972_" class="st0" d="M869.4,284.7c1.2,0,2.6-0.2,2.8-1
						c0.1-0.6-0.9-2.2-1.2-2.7c-0.1-0.3-0.3-0.6-0.6-0.8c-0.2-0.2-0.5-0.2-0.8-0.2c0.5,0.4,0.7,1,0.8,1.6c0.2,0.7,0.2,1.6-0.2,2.2
						C870,284,869.7,284.4,869.4,284.7z"/>
				</g>
			</g>
			<g id="组_5888_00000113327478689310437880000004400887983935389076_" transform="translate(-12 -10.767)">
				<path id="路径_16732_00000019677427760284887050000004334995047171479438_" class="st0" d="M850.7,275.9
					c-0.5,0.1-1,0.4-1.6,0.6c-0.5,0.1-1,0.2-1.5,0.1c-0.8,0-1.4,0-2.1-0.4c-0.2-0.1-0.5-0.3-0.7-0.3c-0.9-0.4-1.4-1.6-0.7-2.4
					c0.1-0.1,0.2-0.2,0.3-0.3c0.1,0,0.2-0.1,0.3-0.1c0.5-0.2,0.9-0.6,1.4-0.8c0.5-0.2,1-0.2,1.5-0.2c0.5-0.1,1.1-0.1,1.6,0
					c0.6,0.1,1.2,0.4,1.7,0.8c0.3,0.2,0.6,0.5,0.9,0.8C852.3,274.6,851.6,275.7,850.7,275.9z"/>
				<path id="路径_16733_00000077316372241974056980000008668888437889617303_" class="st0" d="M847.8,276.6L847.8,276.6h-0.2
					c-0.7,0-1.2,0-1.8-0.4c-0.2-0.1-0.5-0.3-0.7-0.3l-0.1,0c-0.4-0.2-0.7-0.5-0.8-0.9c-0.1-0.4,0-0.7,0.2-1c0.1-0.1,0.2-0.2,0.4-0.2
					l0.1,0c0.3-0.1,0.6-0.2,0.8-0.4c0.2-0.1,0.4-0.2,0.6-0.3c0.4-0.1,0.9-0.2,1.4-0.2c0.2,0,0.3,0,0.5,0c0.2,0,0.5,0,0.7,0
					c0.1,0,0.3,0,0.4,0c0.6,0.1,1.1,0.4,1.5,0.7c0.3,0.2,0.6,0.5,0.8,0.8c0.2,0.3,0.2,0.6,0.1,1c-0.2,0.4-0.5,0.7-1,0.9
					c-0.3,0.1-0.5,0.2-0.7,0.3c-0.3,0.1-0.5,0.2-0.8,0.3C848.7,276.5,848.2,276.6,847.8,276.6z"/>
				<path id="路径_16734_00000027562732889435426040000005987853003581327507_" class="st0" d="M847.8,276.3L847.8,276.3h-0.2
					c-0.7,0-1.2,0-1.7-0.3c-0.2-0.2-0.5-0.3-0.8-0.4l-0.1,0c-0.3-0.1-0.6-0.4-0.7-0.8c-0.1-0.3,0-0.6,0.2-0.8c0,0,0.1-0.1,0.1-0.1
					c0,0,0.1,0,0.1,0c0,0,0,0,0.1,0c0.3-0.1,0.6-0.3,0.9-0.5c0.2-0.1,0.3-0.2,0.5-0.3c0.4-0.1,0.9-0.2,1.3-0.2c0.2,0,0.3,0,0.5,0
					c0.2,0,0.5,0,0.7,0c0.1,0,0.2,0,0.4,0c0.5,0.1,1,0.3,1.4,0.7c0.3,0.2,0.5,0.4,0.7,0.7c0.1,0.2,0.2,0.5,0.1,0.7
					c-0.1,0.3-0.4,0.6-0.8,0.7c-0.3,0.1-0.5,0.2-0.8,0.3c-0.2,0.1-0.5,0.2-0.8,0.3C848.6,276.3,848.2,276.3,847.8,276.3z"/>
				<path id="路径_16735_00000151525794652233995630000006425986820458171274_" class="st0" d="M844.5,274.9
					c0-0.1,0.1-0.1,0.1-0.2c0,0,0.1-0.1,0.1-0.1c0,0,0.1,0,0.1,0c0,0,0,0,0.1,0c0.3-0.1,0.6-0.3,0.9-0.5c0.2-0.1,0.3-0.2,0.5-0.3
					c0.4-0.1,0.9-0.2,1.3-0.2c0.2,0,0.3,0,0.5,0c0.2,0,0.5,0,0.7,0c0.1,0,0.2,0,0.4,0c0.5,0.1,1,0.3,1.4,0.7
					c0.3,0.2,0.5,0.4,0.7,0.7c0,0,0,0.1,0,0.1c0,0,0,0,0,0c0.1-0.2,0.1-0.5-0.1-0.7c-0.2-0.3-0.4-0.5-0.7-0.7
					c-0.4-0.3-0.9-0.6-1.4-0.7c-0.1,0-0.2,0-0.4,0c-0.2,0-0.5,0-0.7,0c-0.2,0-0.3,0-0.5,0c-0.4,0-0.9,0.1-1.3,0.2
					c-0.2,0.1-0.3,0.2-0.5,0.3c-0.3,0.2-0.6,0.4-0.9,0.5c0,0,0,0-0.1,0c0,0-0.1,0-0.1,0c0,0-0.1,0.1-0.1,0.1
					C844.4,274.2,844.4,274.5,844.5,274.9C844.5,274.8,844.5,274.9,844.5,274.9z"/>
				<path id="路径_16736_00000153667482465402885230000008484179468754096040_" class="st0" d="M844.6,274.3c0,0,0.1-0.1,0.1-0.1
					c0,0,0.1,0,0.1,0c0,0,0,0,0.1,0c0.3-0.1,0.6-0.3,0.9-0.5c0.2-0.1,0.3-0.2,0.5-0.3c0.4-0.1,0.9-0.2,1.3-0.2c0.2,0,0.3,0,0.5,0
					c0.2,0,0.5,0,0.7,0c0.1,0,0.2,0,0.4,0c0.5,0.1,1,0.3,1.4,0.7c0.3,0.2,0.5,0.4,0.7,0.7c0.1,0.1,0.1,0.2,0.1,0.3
					c0-0.2,0-0.4-0.1-0.6c-0.2-0.3-0.4-0.5-0.7-0.7c-0.4-0.3-0.9-0.6-1.4-0.7c-0.1,0-0.2,0-0.4,0c-0.2,0-0.5,0-0.7,0
					c-0.2,0-0.3,0-0.5,0c-0.4,0-0.9,0.1-1.3,0.2c-0.2,0.1-0.3,0.2-0.5,0.3c-0.3,0.2-0.6,0.4-0.9,0.5c0,0,0,0-0.1,0c0,0-0.1,0-0.1,0
					c0,0-0.1,0.1-0.1,0.1c-0.2,0.2-0.2,0.5-0.2,0.7C844.5,274.6,844.5,274.4,844.6,274.3z"/>
				<path id="路径_16737_00000097480402641360352640000007511078156331892869_" class="st0" d="M847.8,276.3L847.8,276.3
					c-0.5,0-0.8,0-1.1-0.2c-0.2-0.1-0.4-0.2-0.6-0.3l0,0c-0.1-0.1-0.3-0.2-0.3-0.3c0-0.1,0-0.2,0.1-0.3c0,0,0,0,0,0h0l0.1,0
					c0.2-0.1,0.5-0.2,0.7-0.4c0.1-0.1,0.2-0.1,0.3-0.2c0.3-0.1,0.5-0.1,0.8-0.1c0.1,0,0.2,0,0.3,0c0.2,0,0.3,0,0.5,0
					c0.1,0,0.2,0,0.2,0c0.3,0.1,0.6,0.2,0.9,0.4c0.2,0.1,0.3,0.2,0.4,0.4c0.1,0.1,0.1,0.2,0,0.3c-0.1,0.2-0.2,0.3-0.4,0.3
					c-0.2,0.1-0.4,0.1-0.6,0.2c-0.2,0.1-0.3,0.1-0.5,0.2C848.4,276.3,848.1,276.3,847.8,276.3L847.8,276.3z"/>
				<path id="路径_16738_00000015334313513239089430000006339153506084101007_" class="st0" d="M847.9,276.2L847.9,276.2
					c-0.3,0-0.5,0-0.6-0.1c-0.1-0.1-0.2-0.1-0.3-0.2l0,0c-0.1,0-0.2-0.1-0.2-0.2c0-0.1,0-0.1,0-0.2l0,0l0,0l0,0
					c0.1,0,0.3-0.1,0.4-0.2c0.1,0,0.1-0.1,0.2-0.1c0.2,0,0.3-0.1,0.5-0.1c0.1,0,0.1,0,0.2,0c0.1,0,0.2,0,0.3,0c0,0,0.1,0,0.1,0
					c0.2,0,0.4,0.1,0.5,0.3c0.1,0.1,0.2,0.1,0.3,0.2c0,0,0,0.1,0,0.2c0,0.1-0.1,0.2-0.2,0.2c-0.1,0-0.2,0.1-0.3,0.1
					c-0.1,0-0.2,0.1-0.3,0.1C848.2,276.2,848.1,276.2,847.9,276.2L847.9,276.2z"/>
			</g>
			<g id="组_5898_00000037666055160156372220000011253577423877449648_" transform="translate(2.924 6)">
				<g id="组_5891_00000111189814467600410570000009849935010712577953_">
					<g>
						<defs>
							<path id="SVGID_1_" d="M831.1,224L831.1,224c-0.6,0-1,0.2-1.5,0.4c-0.5,0.3-0.8,0.7-1.1,1.1c-0.3,0.5-0.6,1-0.8,1.6
								c-0.4,1.3-0.4,2.7,0,4c0.2,0.6,0.4,1.1,0.8,1.6c0.3,0.4,0.7,0.8,1.1,1.1c0.4,0.3,0.9,0.4,1.4,0.4l3.6,0c-0.5,0-1-0.1-1.4-0.4
								c-0.5-0.3-0.8-0.7-1.1-1.1c-0.3-0.5-0.6-1-0.8-1.6c-0.4-1.3-0.4-2.7,0-3.9c0.2-0.6,0.4-1.1,0.8-1.6c0.3-0.4,0.7-0.8,1.1-1.1
								c0.4-0.3,0.9-0.4,1.4-0.4h0.1L831.1,224L831.1,224z"/>
						</defs>
						<clipPath id="SVGID_00000034809419069909087670000002184204023827244465_">
							<use xlink:href="#SVGID_1_"  style="overflow:visible;"/>
						</clipPath>
						
							<g id="组_5890_00000127022162725510823780000002818020210577410996_" style="clip-path:url(#SVGID_00000034809419069909087670000002184204023827244465_);">
							<g id="组_5889_00000119828807951674680750000002609905897400199861_">
								
									<rect id="矩形_5_00000016059650168161498390000001756973361387404941_" x="827.3" y="221.8" class="st0" width="7.3" height="17.1"/>
							</g>
						</g>
					</g>
				</g>
				<g id="组_5894_00000053546597306519499450000015324920929286631824_">
					<g>
						<defs>
							<path id="SVGID_00000044156634721178888100000012059420932692119451_" d="M839.7,226c-0.3-0.9-0.7-1.7-1.2-2.5
								c-0.4-0.7-1-1.2-1.7-1.7c-0.6-0.4-1.4-0.6-2.1-0.6l-3.6-0.1c0.7,0,1.5,0.2,2.1,0.6c0.7,0.4,1.3,1,1.7,1.7
								c0.5,0.8,0.9,1.6,1.2,2.5c0.3,1,0.5,2,0.5,3.1c0.1,1.4-0.3,3.1-0.8,4.8c-0.5,1.7-1.1,3.4-1.9,5.1c-0.7,1.6-1.4,3-2,4.1
								s-1,1.7-1,1.9l3.6-0.1c0.1-0.1,0.5-0.8,1-1.8c0.6-1,1.3-2.5,2-4c0.7-1.6,1.4-3.3,1.9-5c0.5-1.7,0.8-3.4,0.8-4.8
								C840.2,228,840,227,839.7,226z"/>
						</defs>
						<clipPath id="SVGID_00000056402552729283925600000011597277907389375410_">
							<use xlink:href="#SVGID_00000044156634721178888100000012059420932692119451_"  style="overflow:visible;"/>
						</clipPath>
						
							<g id="组_5893_00000147899715210453867950000008692139618180224695_" style="clip-path:url(#SVGID_00000056402552729283925600000011597277907389375410_);">
							<g id="组_5892_00000183962783963666748220000007060128890294712704_">
								
									<rect id="矩形_6_00000137112431456496518220000016039365345233211324_" x="829.7" y="217.9" class="st0" width="10.6" height="30.7"/>
							</g>
						</g>
					</g>
				</g>
				<g id="组_5896_00000076594927477609680770000017842717694285816211_">
					<path id="路径_16741_00000044173667807315563920000011140203434243690649_" class="st0" d="M836.7,229c0-1.1-0.2-2.1-0.5-3.1
						c-0.3-0.9-0.7-1.8-1.2-2.5c-0.5-0.7-1.1-1.3-1.8-1.7c-0.7-0.4-1.4-0.6-2.2-0.6c-0.8,0-1.5,0.3-2.2,0.7c-0.7,0.4-1.3,1-1.8,1.7
						c-0.5,0.8-0.9,1.6-1.2,2.5c-0.3,1-0.4,2-0.4,3.1c0,1.7,0.3,3.4,0.8,5.1c0.5,1.7,1.1,3.4,1.8,5c0.7,1.5,1.4,2.9,1.9,3.9
						c0.5,1,0.9,1.7,1,1.8c0.1-0.1,0.5-0.8,1-1.9c0.6-1,1.3-2.5,2-4.1c0.7-1.6,1.4-3.3,1.9-5.1C836.4,232.2,836.7,230.5,836.7,229z
						 M834.3,231.1c-0.2,0.6-0.4,1.1-0.8,1.6c-0.3,0.4-0.7,0.8-1.2,1.1c-0.9,0.5-2,0.5-2.8,0c-0.5-0.3-0.8-0.7-1.1-1.1
						c-0.3-0.5-0.6-1-0.8-1.6c-0.4-1.3-0.4-2.7,0-4c0.2-0.6,0.4-1.1,0.8-1.6c0.3-0.4,0.7-0.8,1.1-1.1c0.4-0.3,0.9-0.4,1.4-0.4
						c0.5,0,1,0.1,1.4,0.4c0.5,0.3,0.9,0.6,1.2,1.1c0.3,0.5,0.6,1,0.8,1.6C834.7,228.4,834.7,229.8,834.3,231.1L834.3,231.1z"/>
					<g>
						<defs>
							<path id="SVGID_00000153688059631992879270000008594695821281952426_" d="M836.7,229c0-1.1-0.2-2.1-0.5-3.1
								c-0.3-0.9-0.7-1.8-1.2-2.5c-0.5-0.7-1.1-1.3-1.8-1.7c-0.7-0.4-1.4-0.6-2.2-0.6c-0.8,0-1.5,0.3-2.2,0.7
								c-0.7,0.4-1.3,1-1.8,1.7c-0.5,0.8-0.9,1.6-1.2,2.5c-0.3,1-0.4,2-0.4,3.1c0,1.7,0.3,3.4,0.8,5.1c0.5,1.7,1.1,3.4,1.8,5
								c0.7,1.5,1.4,2.9,1.9,3.9c0.5,1,0.9,1.7,1,1.8c0.1-0.1,0.5-0.8,1-1.9c0.6-1,1.3-2.5,2-4.1c0.7-1.6,1.4-3.3,1.9-5.1
								C836.4,232.2,836.7,230.5,836.7,229z M834.3,231.1c-0.2,0.6-0.4,1.1-0.8,1.6c-0.3,0.4-0.7,0.8-1.2,1.1c-0.9,0.5-2,0.5-2.8,0
								c-0.5-0.3-0.8-0.7-1.1-1.1c-0.3-0.5-0.6-1-0.8-1.6c-0.4-1.3-0.4-2.7,0-4c0.2-0.6,0.4-1.1,0.8-1.6c0.3-0.4,0.7-0.8,1.1-1.1
								c0.4-0.3,0.9-0.4,1.4-0.4c0.5,0,1,0.1,1.4,0.4c0.5,0.3,0.9,0.6,1.2,1.1c0.3,0.5,0.6,1,0.8,1.6
								C834.7,228.4,834.7,229.8,834.3,231.1L834.3,231.1z"/>
						</defs>
						<clipPath id="SVGID_00000181067676967698952310000004591539405543061897_">
							<use xlink:href="#SVGID_00000153688059631992879270000008594695821281952426_"  style="overflow:visible;"/>
						</clipPath>
						
							<g id="组_5895_00000117634132531122367530000012286782447266318728_" style="clip-path:url(#SVGID_00000181067676967698952310000004591539405543061897_);">
							<path id="路径_16742_00000140692652860636999980000013490853098187360940_" class="st4" d="M839,217.4
								c0,0-12.4,26.5-12.6,26.1c-0.2-0.4-3.9-19.4-3.9-19.4l6-6.2L839,217.4z"/>
						</g>
					</g>
				</g>
				<g id="组_5897_00000002377932849379876730000014342954483183988137_">
					<path id="路径_16744_00000170957022821907048710000007934009403706537657_" class="st0" d="M836.7,229c0-1.1-0.2-2.1-0.5-3.1
						c-0.3-0.9-0.7-1.8-1.2-2.5c-0.5-0.7-1.1-1.3-1.8-1.7c-0.7-0.4-1.4-0.6-2.2-0.6c-0.8,0-1.5,0.3-2.2,0.7
						c-0.1,0.1-0.2,0.1-0.3,0.2c0.6-0.4,1.4-0.6,2.2-0.7c0.8,0,1.5,0.2,2.2,0.6c0.7,0.4,1.3,1,1.8,1.7c0.5,0.8,0.9,1.6,1.2,2.5
						c0.3,1,0.5,2.1,0.5,3.1c0.1,1.4-0.3,3.1-0.8,4.8c-0.5,1.7-1.2,3.4-1.9,5.1c-0.7,1.6-1.4,3-2,4.1c-0.4,0.7-0.6,1.2-0.8,1.5
						c0,0.1,0.1,0.1,0.1,0.2c0.1-0.1,0.5-0.8,1-1.9c0.6-1,1.3-2.5,2-4.1c0.7-1.6,1.4-3.3,1.9-5.1C836.4,232.2,836.7,230.5,836.7,229
						z"/>
					<path id="路径_16745_00000019662566972696751200000008180201084365585824_" class="st0" d="M828.5,225.5
						c0.2-0.4,0.5-0.7,0.9-0.9c0,0,0,0-0.1,0c-0.5,0.3-0.8,0.7-1.1,1.1c-0.3,0.5-0.6,1-0.8,1.6c-0.4,1.3-0.4,2.7,0,4
						c0.2,0.6,0.4,1.1,0.8,1.6c0.3,0.4,0.7,0.8,1.1,1.1c0.9,0.5,2,0.5,2.8,0c0.1-0.1,0.2-0.1,0.3-0.2c-0.9,0.5-1.9,0.5-2.8,0
						c-0.5-0.3-0.8-0.7-1.1-1.1c-0.3-0.5-0.6-1-0.8-1.6c-0.4-1.3-0.4-2.7,0-4C827.9,226.5,828.1,226,828.5,225.5z"/>
				</g>
				
					<ellipse id="椭圆_351" transform="matrix(0.866 -0.5 0.5 0.866 -5.1372 445.1125)" class="st5" cx="828" cy="232.1" rx="1.6" ry="5"/>
			</g>
		</g>
		<g id="组_5917_00000139269115452155566400000015965738973584908461_" transform="translate(-628.966 -80.755)">
			<g id="组_5900_00000138558809415537086210000005505277664991667367_" transform="translate(834.508 441.362)">
				<path id="路径_16746_00000070095001019948060980000001709383440907443894_" class="st0" d="M-31.8-92.9
					c-0.1,0.2-0.2,0.5-0.3,0.7c-0.1,0.2-0.1,0.4,0.1,0.4h0.9c0.2,0,0.3-0.1,0.3-0.2c0-0.2-0.1-0.4-0.1-0.6c0-0.2,0-0.4,0-0.5
					C-30.9-93.6-31.7-93.6-31.8-92.9z"/>
			</g>
			<g id="组_5901_00000084529551859588350400000000791052263270783876_" transform="translate(843.479 442.163)">
				<path id="路径_16747_00000119798229659817418650000010643161316558462852_" class="st0" d="M-38.5-92.7h0.9c0-0.1,0-0.1,0-0.2
					c0.4,0,0.6,0.2,1.2,0.2h1.1c0.1,0,0.1,0,0.2-0.1c0-0.1-0.1-0.2-0.4-0.3c-0.3-0.1-0.6-0.2-0.8-0.3c-0.4-0.2-0.4-0.6-0.7-0.7
					c-0.2-0.1-0.3,0.3-0.7,0.3c-0.3,0-0.4-0.2-0.5-0.1C-38.5-93.6-38.6-92.9-38.5-92.7z"/>
			</g>
			<g id="组_5902_00000055674464480269055470000008615601016771816080_" transform="translate(841.512 405.48)">
				<path id="路径_16748_00000030469513541617167140000004893328688010683777_" class="st0" d="M-34.5-66.1c0-0.6,0-1.2-0.1-1.8
					h-2.3c-0.2,0.3-0.2,0.6-0.3,0.9c-0.1,1.3,0.5,3.9,0.5,5.3c-0.1,1.5,0,2.9,0.2,4.4c0,0.1,0.1,0.2,0.4,0.3c0.3,0,0.7-0.1,0.8-0.4
					c0.2-0.7,0-2.6,0.2-4.2C-34.7-63.1-34.6-64.6-34.5-66.1z"/>
			</g>
			<g id="组_5903_00000153671564247450905810000002944333281836681607_" transform="translate(833.866 405.48)">
				<path id="路径_16749_00000127025592645273334990000012541890195916096406_" class="st0" d="M-28.9-67.9h-2.8c0,0,0,0.4,0,1.2
					c0,1.2,0.3,4.2,0.3,4.9c-0.1,1.5,0,3,0.2,4.5c0.1,0.4,1,0.3,1.1-0.1c0.1-0.3,0.2-2.8,0.3-4.3c0.2-2.4,1.1-4.4,1-5.9
					C-28.8-67.7-28.9-67.8-28.9-67.9z"/>
			</g>
			<g id="组_5904_00000024713256686826483310000000777766445225515919_" transform="translate(838.327 370.466)">
				<path id="路径_16750_00000142145430166179349310000018357750684897571504_" class="st0" d="M-32.9-41.5c0,0.2-0.1,0.5-0.2,0.7
					c-0.2,0.2-0.1,0.8-0.4,1c-0.3,0.1-0.7,0-0.9-0.4c0,0,0-0.1,0-0.1c-0.1-0.3-0.2-0.7-0.4-1c-0.1-0.3-0.1-0.6-0.1-0.9
					c0.1-0.4,0.4-0.7,0.8-0.7c0.5-0.1,1,0.1,1.2,0.6C-32.8-42.1-32.8-41.8-32.9-41.5z"/>
			</g>
			<g id="组_5905_00000112604616620821411890000008651242285620123559_" transform="translate(838.248 370.104)">
				<path id="路径_16751_00000102543875911988429970000002969185884524364947_" class="st0" d="M-33-40.9c0,0.5-0.5,0.6-1,0.6
					s-0.7-0.3-0.8-0.8c0-0.2-0.2-0.8,0.1-1.2c0.3-0.4,1-0.5,1.4-0.1c0.1,0.1,0.1,0.1,0.2,0.2C-32.8-41.9-32.9-41.4-33-40.9z"/>
			</g>
			<g id="组_5906_00000116211494787656441860000018354249754720784562_" transform="translate(845.351 372.984)">
				<path id="路径_16752_00000002376183344411909810000011123920635664279172_" class="st0" d="M-39.8-44.4c0,0.2-0.1,0.4-0.1,0.4
					S-39.9-44.2-39.8-44.4c-0.1-0.2-0.1-0.3-0.1-0.4C-39.8-44.8-39.8-44.6-39.8-44.4z"/>
			</g>
			<g id="组_5907_00000029006259984346192670000007044163099947850660_" transform="translate(838.394 373.407)">
				<path id="路径_16753_00000161615027976759026020000017804577554468281750_" class="st0" d="M-33.3-44.4c0,0.2-0.2,0.4-0.5,0.4
					c-0.2,0-0.5,0-0.8,0c-0.3,0-0.4-0.2-0.4-0.2c0-0.1,0-0.1-0.1-0.2c0,0,0-0.1,0-0.1c0,0,0.2,0.3,0.4,0.3c0.3,0,0.6,0,0.9,0
					c0.3,0,0.2-0.3,0.4-0.6c0.1-0.2,0.1-0.2,0.2-0.2C-33-45.1-33.2-44.6-33.3-44.4z"/>
			</g>
			<g id="组_5908_00000132806424607671375740000003636908057438567862_" transform="translate(839.985 384.68)">
				<path id="路径_16754_00000066517947771214909990000007599809327807484576_" class="st0" d="M-29.9-49.6
					c-1.3,0.7-5.1,0.4-6.1-0.7c0.3-0.8,1-2.1,1.3-2.8c1.8,1.5,5.6,0.6,6.9,0C-28.3-52.4-29.5-50.3-29.9-49.6z"/>
			</g>
			<g id="组_5909_00000101077360978541122290000003101558801460299455_" transform="translate(862.348 390.054)">
				<path id="路径_16755_00000119104681128982597700000010371713340226847401_" class="st0" d="M-50.9-56.2c0,0.1,0,0.2-0.1,0.3
					c-0.1,0.2-0.3,0.3-0.4,0.3c-0.2,0-0.7-0.2-0.6-0.5c0-0.3,0.5-0.9,0.9-0.9c0.1,0,0.1,0.1,0.1,0.2s0.1,0.1,0.1,0.2
					c0,0.1,0,0.2,0,0.2C-50.9-56.3-50.9-56.2-50.9-56.2z"/>
			</g>
			<g id="组_5910_00000173845284018098851780000011753838524210858374_" transform="translate(837.416 378.404)">
				<path id="路径_16756_00000017494873890376995550000004790791065162020768_" class="st0" d="M-32.1-48.3c0.1,0.1,0.1,0.3,0,0.4
					c-0.2,0.1-1.8,0.2-2,0.1c-0.2,0-0.1-0.3,0-0.4c0.1-0.2,0.5-0.4,1.1-0.4C-32.6-48.6-32.2-48.5-32.1-48.3z"/>
			</g>
			<g id="组_5911_00000089558873504132862280000016494993293578363800_" transform="translate(828.666 381.917)">
				<path id="路径_16757_00000162330548583061841240000002147265293224057004_" class="st0" d="M-26.1-45.9
					c-0.8,0.3-1.8,0.5-1.9-0.5c-0.1-1,0.3-2.7,0.5-3.3c0.2-0.7,0.6-1.4,1-1.4c0.5,0,0.5,0.4,0.4,1.6C-26.2-48.2-25.1-46.2-26.1-45.9
					z"/>
			</g>
			<g id="组_5912_00000086686747654782998350000017449250829080948368_" transform="translate(845.593 381.502)">
				<path id="路径_16758_00000107574808437108290700000010259901446187723663_" class="st0" d="M-35.1-47.7c0.3,0,0.4,0.1,0.5,0.3
					c0.1,0.3,0,0.6-0.2,0.8c-0.4,0.3-2.1,1.3-3,0.4c-0.3-0.3-0.6-0.7-0.8-0.9c-0.1-0.1-0.2,0.2-0.5,0.1c-0.6-0.2-1.4-3.1-0.7-3.6
					c0.4-0.3,1.1,0,1.8,0.9c0.5,0.7,1,1.8,1.4,2.2C-36.2-47.2-35.7-47.7-35.1-47.7z"/>
			</g>
			<g id="组_5913_00000098907842127897280280000002870469463885200535_" transform="translate(832.108 380.343)">
				<path id="路径_16759_00000023266887751682303710000016398537053349002644_" class="st0" d="M-25.1-42.7h-5
					c-0.1,0-0.2,0-0.2-0.3c0-0.4,0.1-1.2,0.1-2.1c0-1.3-0.3-2.4-0.3-3.1c0-0.6,0-1.2,0.4-1.5c0.5-0.3,1.3-0.5,2.6-0.5
					c0.7,0,1.4,0.2,2,0.5c-0.2,0-0.4,0.6-0.4,1.4c0,0.7,0.1,1.4,0.3,2c0.2,0.5,0.5-0.2,0.4,0.3c0,1.1,0.1,2.3,0.1,3
					C-24.9-42.7-25-42.7-25.1-42.7z"/>
			</g>
			<g id="组_5914_00000172440563493414162330000010942117860231291282_" transform="translate(832.963 395.75)">
				<path id="路径_16760_00000078013909600166441520000011975552698684726913_" class="st0" d="M-25.9-60.5H-31l0-0.5h5.2
					L-25.9-60.5z"/>
			</g>
			<g id="组_5915_00000117659320089901428840000015132694720609474442_" transform="translate(832.759 400.599)">
				<path id="路径_16761_00000022537246883805033690000001908178020729328544_" class="st0" d="M-25.6-63.9h-5.3l0-0.5h5.2
					L-25.6-63.9z"/>
			</g>
			<g id="组_5916_00000007408204172406799560000005172907981958809781_" transform="translate(836.908 368.096)">
				<path id="路径_16762_00000115483136711732212530000003666933903919105971_" class="st0" d="M-31.2-40.2
					c-0.1,0-0.1-0.1-0.1-0.1c-0.2-0.7-1-1.1-1.7-0.8c0,0-0.1,0-0.1,0c-0.8,0.3-0.8,1.2-0.7,1.6c0,0.1,0.1,0.2,0.1,0.3
					c0.1,0.1,0.4,0.3,0.9,0.3c0.4,0,0.8-0.1,1.1-0.3c0,0,0-0.1,0.1-0.2c0-0.1,0.1-0.1,0.1-0.2c0.1-0.1,0.2-0.2,0.3-0.3
					C-31-40.2-31.1-40.2-31.2-40.2z"/>
			</g>
		</g>
	</g>
</g>
</svg>
