<svg xmlns="http://www.w3.org/2000/svg" width="59.101" height="42.748" viewBox="0 0 59.101 42.748">
  <g id="mo_btn4-2_line" transform="translate(-2837.245 -9.039)">
    <g id="组_8789" data-name="组 8789">
      <path id="路径_6375" data-name="路径 6375" d="M2883.332,19.89V33.926a.534.534,0,0,1-.079.287.561.561,0,0,1-.764.2l-14.185-8.2a1.267,1.267,0,0,1-.632-1.1V10.948a.505.505,0,0,1,.575-.5.515.515,0,0,1,.185.064l14.24,8.234A1.323,1.323,0,0,1,2883.332,19.89Z" fill="none" stroke="#fff" stroke-width="1"/>
      <path id="路径_6376" data-name="路径 6376" d="M2883.855,19.89V33.926a.56.56,0,0,1-.6.56.526.526,0,0,0,.08-.287V20.163a1.322,1.322,0,0,0-.661-1.146l-14.24-8.234a.507.507,0,0,0-.184-.064.506.506,0,0,1,.705-.209l14.24,8.236A1.323,1.323,0,0,1,2883.855,19.89Z" fill="none" stroke="#fff" stroke-width="1"/>
      <path id="路径_6377" data-name="路径 6377" d="M2882.769,33.957a.02.02,0,0,1-.012-.005l-6.888-3.943a.739.739,0,0,1-.367-.637V15.247l6.9,3.957a.8.8,0,0,1,.4.686V33.926C2882.791,33.949,2882.779,33.957,2882.769,33.957Z" fill="none" stroke="#fff" stroke-width="1"/>
      <path id="路径_6378" data-name="路径 6378" d="M2874.293,28.775l-.006,0-3.489-2a.374.374,0,0,1-.185-.322V19.3l3.5,2a.4.4,0,0,1,.2.348v7.11C2874.3,28.771,2874.3,28.775,2874.293,28.775Z" fill="none" stroke="#fff" stroke-width="1"/>
      <path id="路径_6379" data-name="路径 6379" d="M2870.081,26.249l-.006,0-3.489-2a.376.376,0,0,1-.186-.323V16.773l3.5,2a.4.4,0,0,1,.2.347v7.11C2870.092,26.246,2870.086,26.249,2870.081,26.249Z" fill="none" stroke="#fff" stroke-width="1"/>
      <path id="路径_6380" data-name="路径 6380" d="M2874.293,19.947l-.006,0-3.489-2a.374.374,0,0,1-.185-.322V13.412l3.5,2a.4.4,0,0,1,.2.348v4.168C2874.3,19.943,2874.3,19.947,2874.293,19.947Z" fill="none" stroke="#fff" stroke-width="1"/>
      <g id="组_8769" data-name="组 8769">
        <path id="路径_6381" data-name="路径 6381" d="M2862.962,19.276l6.088,3.479V13.379L2862.962,9.9Z" fill="none" stroke="#fff" stroke-width="1"/>
        <path id="路径_6382" data-name="路径 6382" d="M2865.624,11.421V20.8l-2.661-1.521V9.9Z" fill="none" stroke="#fff" stroke-width="1"/>
        <path id="路径_6383" data-name="路径 6383" d="M2862.962,11.041l6.088,3.479v-1.14L2862.962,9.9Z" fill="none" stroke="#fff" stroke-width="1"/>
        <g id="组_8766" data-name="组 8766">
          <path id="路径_6384" data-name="路径 6384" d="M2863.122,11.835l2.224,1.271v-.26l-2.224-1.271Z" fill="none" stroke="#fff" stroke-width="1"/>
          <path id="路径_6385" data-name="路径 6385" d="M2863.122,12.47l2.224,1.271v-.26l-2.224-1.271Z" fill="none" stroke="#fff" stroke-width="1"/>
          <path id="路径_6386" data-name="路径 6386" d="M2863.122,13.106l2.224,1.271v-.26l-2.224-1.271Z" fill="none" stroke="#fff" stroke-width="1"/>
          <path id="路径_6387" data-name="路径 6387" d="M2863.122,13.741l2.224,1.271v-.26l-2.224-1.271Z" fill="none" stroke="#fff" stroke-width="1"/>
          <path id="路径_6388" data-name="路径 6388" d="M2863.122,14.377l1.52.9v-.26l-1.52-.9Z" fill="none" stroke="#fff" stroke-width="1"/>
          <path id="路径_6389" data-name="路径 6389" d="M2863.122,15.608l2.224,1.271v-.26l-2.224-1.271Z" fill="none" stroke="#fff" stroke-width="1"/>
          <path id="路径_6390" data-name="路径 6390" d="M2863.122,16.244l2.224,1.271v-.26l-2.224-1.271Z" fill="none" stroke="#fff" stroke-width="1"/>
          <path id="路径_6391" data-name="路径 6391" d="M2863.122,16.879l2.224,1.271v-.26l-2.224-1.271Z" fill="none" stroke="#fff" stroke-width="1"/>
          <path id="路径_6392" data-name="路径 6392" d="M2863.122,17.515l2.224,1.271v-.26l-2.224-1.271Z" fill="none" stroke="#fff" stroke-width="1"/>
          <path id="路径_6393" data-name="路径 6393" d="M2863.122,18.15l1.52.9v-.26l-1.52-.9Z" fill="none" stroke="#fff" stroke-width="1"/>
        </g>
        <g id="组_8767" data-name="组 8767">
          <path id="路径_6394" data-name="路径 6394" d="M2866.111,13.577l2.224,1.271v-.26l-2.224-1.271Z" fill="none" stroke="#fff" stroke-width="1"/>
          <path id="路径_6395" data-name="路径 6395" d="M2866.111,14.212l2.224,1.271v-.26l-2.224-1.271Z" fill="none" stroke="#fff" stroke-width="1"/>
          <path id="路径_6396" data-name="路径 6396" d="M2866.111,14.848l2.224,1.271v-.26l-2.224-1.271Z" fill="none" stroke="#fff" stroke-width="1"/>
          <path id="路径_6397" data-name="路径 6397" d="M2866.111,15.483l2.224,1.271v-.26l-2.224-1.271Z" fill="none" stroke="#fff" stroke-width="1"/>
          <path id="路径_6398" data-name="路径 6398" d="M2866.111,16.119l1.52.9v-.26l-1.52-.9Z" fill="none" stroke="#fff" stroke-width="1"/>
          <path id="路径_6399" data-name="路径 6399" d="M2866.111,17.35l2.224,1.271v-.26l-2.224-1.271Z" fill="none" stroke="#fff" stroke-width="1"/>
          <path id="路径_6400" data-name="路径 6400" d="M2866.111,17.986l2.224,1.271V19l-2.224-1.271Z" fill="none" stroke="#fff" stroke-width="1"/>
          <path id="路径_6401" data-name="路径 6401" d="M2866.111,18.621l2.224,1.271v-.26l-2.224-1.271Z" fill="none" stroke="#fff" stroke-width="1"/>
          <path id="路径_6402" data-name="路径 6402" d="M2866.111,19.257l2.224,1.271v-.26L2866.111,19Z" fill="none" stroke="#fff" stroke-width="1"/>
          <path id="路径_6403" data-name="路径 6403" d="M2866.111,19.893l1.52.9v-.26l-1.52-.9Z" fill="none" stroke="#fff" stroke-width="1"/>
        </g>
        <g id="组_8768" data-name="组 8768">
          <path id="路径_6404" data-name="路径 6404" d="M2863.9,37.549l-.037.444s.525.455.895.314.983-.312.888-.5-.823-.067-.845-.387S2863.9,37.549,2863.9,37.549Z" fill="none" stroke="#fff" stroke-width="1"/>
          <path id="路径_6405" data-name="路径 6405" d="M2863.817,37.982a1.027,1.027,0,0,0,.537.209c.28,0,.739-.16.769-.292a.443.443,0,0,0-.1-.3s.331-.039.535-.041.392-.19.608-.114.768.287.563.425a7.8,7.8,0,0,1-2.357.912c-.419-.074-.574-.164-.594-.34A1.95,1.95,0,0,1,2863.817,37.982Z" fill="none" stroke="#fff" stroke-width="1"/>
          <path id="路径_6406" data-name="路径 6406" d="M2860.955,36.238a5.984,5.984,0,0,0-.054.65,1.548,1.548,0,0,0,1.1-.117.662.662,0,0,0,.042-.5Z" fill="none" stroke="#fff" stroke-width="1"/>
          <path id="路径_6407" data-name="路径 6407" d="M2860.765,36.628s.643.45,1.1.141.21-.5.5-.547a1.73,1.73,0,0,1,.975-.026c.361.139.24.427-.022.551a8.675,8.675,0,0,1-1.8.749c-.411.025-.787-.127-.8-.32A3.358,3.358,0,0,1,2860.765,36.628Z" fill="none" stroke="#fff" stroke-width="1"/>
          <path id="路径_6408" data-name="路径 6408" d="M2860.273,25.2a3.375,3.375,0,0,0,.086,1.868l.351.835.367,3.638a18.681,18.681,0,0,0-.2,2.708c.032,1.164,0,2.1,0,2.1s.086.284.636.241.56-.151.56-.151.545-4.23.63-4.834-.091-5.673-.091-5.673Z" fill="none" stroke="#fff" stroke-width="1"/>
          <path id="路径_6409" data-name="路径 6409" d="M2862.024,25.9a4.141,4.141,0,0,0,.246,2.081,6.389,6.389,0,0,0,1.052,1.262l.372,2.7a22.1,22.1,0,0,0-.1,3.2c.112,1.055.2,2.357.2,2.357a.967.967,0,0,0,.86.062c.356-.222.514-.02.514-.02l.394-6.447-.764-5.982A4.665,4.665,0,0,1,2862.024,25.9Z" fill="none" stroke="#fff" stroke-width="1"/>
          <path id="路径_6410" data-name="路径 6410" d="M2864.351,14.983s.182.607.048.733-.166.134-.1.26a.654.654,0,0,1,.1.543c-.087.213-.1,1.073-.369,1.191s-.411.023-.553.086-.194.364-.194.364l-1.216-.289-.21,0a2.748,2.748,0,0,0,.131-.607c-.016-.142,0-1.592.5-1.993A3.625,3.625,0,0,1,2864.351,14.983Z" fill="none" stroke="#fff" stroke-width="1"/>
          <path id="路径_6411" data-name="路径 6411" d="M2864.525,14.637c.1.179-.166.583-.386.638s-.4.386-.394.835-.032.606-.1.606-.055-.59-.252-.59-.283.322-.173.527-.116.649-.257.72a1.236,1.236,0,0,1-.988-.1c-.3-.221-.949-2.12-.366-2.75s1.649-.4,1.893-.4A2.029,2.029,0,0,1,2864.525,14.637Z" fill="none" stroke="#fff" stroke-width="1"/>
          <path id="路径_6412" data-name="路径 6412" d="M2868.373,17.759a3.1,3.1,0,0,1,0-.95c.087-.441.153-.882.164-.938s.243-.022.243.188-.1.915.064.816.068-.4.2-.386.353.419.221.816-.421,1.091-.421,1.091A.671.671,0,0,0,2868.373,17.759Z" fill="none" stroke="#fff" stroke-width="1"/>
          <path id="路径_6413" data-name="路径 6413" d="M2861.717,17.625s.254-.129.917.174a2.407,2.407,0,0,1,.922.663l.084.324a5.958,5.958,0,0,1,1.158.488,3.255,3.255,0,0,0,1.932,0,13.662,13.662,0,0,0,1.528-1.528s.461.014.547.288a1.4,1.4,0,0,1,0,.634s-1.6,1.932-2.162,2.061-1.847.26-1.847.26v4.122s-.459.778-2.188.821a2.835,2.835,0,0,1-2.335-.735s.014-3.228-.072-3.286-.606-.115-.678-1.369a4.025,4.025,0,0,1,.536-2.521C2860.347,17.646,2861.572,17.87,2861.717,17.625Z" fill="none" stroke="#fff" stroke-width="1"/>
        </g>
      </g>
      <g id="组_8770" data-name="组 8770">
        <path id="路径_6414" data-name="路径 6414" d="M2883.472,30.137l-8.447-4.926a.761.761,0,0,1-.378-.658V18.526a.4.4,0,0,1,.595-.342l8.433,4.917a.668.668,0,0,1,.331.576V29.83A.356.356,0,0,1,2883.472,30.137Z" fill="none" stroke="#fff" stroke-width="1"/>
        <path id="路径_6415" data-name="路径 6415" d="M2883.22,30.231l-8.447-4.925a.763.763,0,0,1-.378-.658V18.62a.4.4,0,0,1,.595-.341l8.433,4.917a.668.668,0,0,1,.33.576v6.152A.355.355,0,0,1,2883.22,30.231Z" fill="none" stroke="#fff" stroke-width="1"/>
        <path id="路径_6416" data-name="路径 6416" d="M2874.956,22.744s.695-1.381,1.677-.607,1.216,2.559,2.441,2.937,2.729-1.144,4.172,0" fill="none" stroke="#fff" stroke-width="1"/>
        <path id="路径_6417" data-name="路径 6417" d="M2874.862,19.4l2.21,1.263V20.4l-2.21-1.263Z" fill="none" stroke="#fff" stroke-width="1"/>
        <path id="路径_6418" data-name="路径 6418" d="M2874.862,20.061l3.664,2.1V21.9l-3.664-2.1Z" fill="none" stroke="#fff" stroke-width="1"/>
        <path id="路径_6419" data-name="路径 6419" d="M2879.259,26.475l2.21,1.263V27.48l-2.21-1.263Z" fill="none" stroke="#fff" stroke-width="1"/>
        <path id="路径_6420" data-name="路径 6420" d="M2879.259,27.14l3.665,2.1V28.98l-3.665-2.1Z" fill="none" stroke="#fff" stroke-width="1"/>
      </g>
      <path id="路径_6421" data-name="路径 6421" d="M2877.242,27.422l2.21,1.263v-.258l-2.21-1.263Z" fill="none" stroke="#fff" stroke-width="1"/>
      <path id="路径_6422" data-name="路径 6422" d="M2877.242,28.087l3.664,2.1v-.258l-3.664-2.1Z" fill="none" stroke="#fff" stroke-width="1"/>
      <path id="路径_6423" data-name="路径 6423" d="M2877.242,29.265l2.21,1.263V30.27l-2.21-1.263Z" fill="none" stroke="#fff" stroke-width="1"/>
      <path id="路径_6424" data-name="路径 6424" d="M2877.242,29.93l3.664,2.1V31.77l-3.664-2.1Z" fill="none" stroke="#fff" stroke-width="1"/>
      <g id="组_8772" data-name="组 8772">
        <path id="路径_6425" data-name="路径 6425" d="M2890.31,33.653a1.212,1.212,0,0,1-1.411,1.34,2.315,2.315,0,0,1-.7-.208,3.741,3.741,0,0,1-1.382-1.162,3.359,3.359,0,0,1-.734-1.939c0-1.168.948-1.674,2.116-1.131a3.985,3.985,0,0,1,1.986,2.313A2.658,2.658,0,0,1,2890.31,33.653Z" fill="none" stroke="#fff" stroke-width="1"/>
        <path id="路径_6426" data-name="路径 6426" d="M2889.919,33.916a1.212,1.212,0,0,1-1.41,1.34,2.314,2.314,0,0,1-.7-.208,3.739,3.739,0,0,1-1.382-1.162,3.358,3.358,0,0,1-.734-1.938c0-1.169.948-1.675,2.116-1.132a3.986,3.986,0,0,1,1.987,2.313A2.687,2.687,0,0,1,2889.919,33.916Z" fill="none" stroke="#fff" stroke-width="1"/>
        <g id="组_8771" data-name="组 8771">
          <path id="路径_6427" data-name="路径 6427" d="M2886.979,31.576a1.219,1.219,0,0,0-.567.607,2.206,2.206,0,0,0-.116.674l.737.579a8.369,8.369,0,0,1,.371-.833c.158-.281.262-.457.262-.457Z" fill="none" stroke="#fff" stroke-width="1"/>
          <path id="路径_6428" data-name="路径 6428" d="M2888.365,33.887c-.391.3-1.128-.4-1.128-.4a3.251,3.251,0,0,1,.178-.56.858.858,0,0,1,.346-.441,2.479,2.479,0,0,0,.549-.06,1.408,1.408,0,0,0,.534-.341.21.21,0,0,1,.073.261,2.009,2.009,0,0,1-.433.412s.29.13.487.23c.011.006.149.073.158.08C2889.274,33.195,2888.741,33.6,2888.365,33.887Z" fill="none" stroke="#fff" stroke-width="1"/>
        </g>
      </g>
      <g id="组_8773" data-name="组 8773">
        <path id="路径_6429" data-name="路径 6429" d="M2889.625,27.735a1.212,1.212,0,0,1-1.411,1.339,2.314,2.314,0,0,1-.7-.208,3.732,3.732,0,0,1-1.382-1.162,3.359,3.359,0,0,1-.734-1.938c0-1.169.948-1.675,2.116-1.132a3.99,3.99,0,0,1,1.987,2.313A2.688,2.688,0,0,1,2889.625,27.735Z" fill="none" stroke="#fff" stroke-width="1"/>
        <path id="路径_6430" data-name="路径 6430" d="M2889.234,28a1.212,1.212,0,0,1-1.41,1.339,2.3,2.3,0,0,1-.7-.208,3.725,3.725,0,0,1-1.383-1.162,3.359,3.359,0,0,1-.734-1.938c0-1.169.948-1.675,2.117-1.132a3.991,3.991,0,0,1,1.986,2.313A2.688,2.688,0,0,1,2889.234,28Z" fill="none" stroke="#fff" stroke-width="1"/>
        <path id="路径_6431" data-name="路径 6431" d="M2887.853,26.6c-.444-.236-.615.02-.659.11a1.517,1.517,0,0,0-.659-.837c-.531-.3-.455.474-.1,1.148a7.04,7.04,0,0,0,.743,1.12v.016h.013l.013.015v-.016a1.533,1.533,0,0,0,.744-.3A.763.763,0,0,0,2887.853,26.6Z" fill="none" stroke="#fff" stroke-width="1"/>
      </g>
      <g id="组_8774" data-name="组 8774">
        <path id="路径_6432" data-name="路径 6432" d="M2891.78,39.732a1.212,1.212,0,0,1-1.411,1.339,2.315,2.315,0,0,1-.7-.208,3.729,3.729,0,0,1-1.382-1.161,3.362,3.362,0,0,1-.734-1.939c0-1.168.948-1.675,2.116-1.132a3.991,3.991,0,0,1,1.986,2.313A2.663,2.663,0,0,1,2891.78,39.732Z" fill="none" stroke="#fff" stroke-width="1"/>
        <path id="路径_6433" data-name="路径 6433" d="M2891.389,39.995a1.211,1.211,0,0,1-1.41,1.339,2.338,2.338,0,0,1-.7-.207,3.75,3.75,0,0,1-1.382-1.162,3.362,3.362,0,0,1-.734-1.939c0-1.168.948-1.675,2.116-1.132a4,4,0,0,1,1.987,2.313A2.7,2.7,0,0,1,2891.389,39.995Z" fill="none" stroke="#fff" stroke-width="1"/>
        <path id="路径_6434" data-name="路径 6434" d="M2888.367,38.118a.123.123,0,0,1-.143.135.22.22,0,0,1-.07-.021.376.376,0,0,1-.14-.117.341.341,0,0,1-.074-.2c0-.118.1-.169.214-.114a.4.4,0,0,1,.2.233A.27.27,0,0,1,2888.367,38.118Z" fill="none" stroke="#fff" stroke-width="1"/>
        <path id="路径_6435" data-name="路径 6435" d="M2890.328,39.008a.122.122,0,0,1-.142.135.235.235,0,0,1-.071-.021.378.378,0,0,1-.139-.117.34.34,0,0,1-.074-.195c0-.118.095-.169.213-.114a.4.4,0,0,1,.2.233A.241.241,0,0,1,2890.328,39.008Z" fill="none" stroke="#fff" stroke-width="1"/>
        <path id="路径_6436" data-name="路径 6436" d="M2887.991,38.84a3.442,3.442,0,0,0,1.153.936,1.72,1.72,0,0,0,1.381.09.885.885,0,0,1-1.108.691A2.1,2.1,0,0,1,2887.991,38.84Z" fill="none" stroke="#fff" stroke-width="1"/>
      </g>
      <g id="组_8775" data-name="组 8775">
        <path id="路径_6437" data-name="路径 6437" d="M2895.846,37.529a1.212,1.212,0,0,1-1.411,1.339,2.325,2.325,0,0,1-.7-.207,3.751,3.751,0,0,1-1.383-1.162,3.359,3.359,0,0,1-.733-1.939c0-1.168.947-1.675,2.116-1.131a3.985,3.985,0,0,1,1.986,2.312A2.7,2.7,0,0,1,2895.846,37.529Z" fill="none" stroke="#fff" stroke-width="1"/>
        <path id="路径_6438" data-name="路径 6438" d="M2895.455,37.792a1.213,1.213,0,0,1-1.411,1.34,2.333,2.333,0,0,1-.7-.208,3.752,3.752,0,0,1-1.383-1.162,3.358,3.358,0,0,1-.733-1.939c0-1.168.948-1.674,2.116-1.131a3.985,3.985,0,0,1,1.986,2.313A2.69,2.69,0,0,1,2895.455,37.792Z" fill="none" stroke="#fff" stroke-width="1"/>
        <path id="路径_6439" data-name="路径 6439" d="M2892.141,36.05l.355,1.663,2.417-.583-.156-.512-1.848.441Z" fill="none" stroke="#fff" stroke-width="1"/>
      </g>
      <g id="组_8778" data-name="组 8778">
        <g id="组_8776" data-name="组 8776">
          <path id="路径_6440" data-name="路径 6440" d="M2843.417,38.651l-1.265-.132v1.728a10.829,10.829,0,0,0,2.794.353c3.507,0,6.352-1.553,6.352-3.464,0-4.98-2.845-3.464-6.352-3.464-2.91,0-5.364,1.067-6.118,2.521-.021.041-.041.081-.059.122l4.875.324,1.3.086Z" fill="none" stroke="#fff" stroke-width="1"/>
          <path id="路径_6441" data-name="路径 6441" d="M2843.738,36.518l-1.586,2c.117.031.235.061.355.088a11.1,11.1,0,0,0,2.439.265c3.507,0,6.352-1.553,6.352-3.464s-2.845-3.465-6.352-3.465c-2.991,0-5.5,1.127-6.177,2.644l6.177.41Z" fill="none" stroke="#fff" stroke-width="1"/>
          <path id="路径_6442" data-name="路径 6442" d="M2838.769,34.587v1.727l4.875.324,1.3-1.641Z" fill="none" stroke="#fff" stroke-width="1"/>
          <path id="路径_6443" data-name="路径 6443" d="M2837.789,36.956c0,1.365,1.452,2.549,3.56,3.111l.8-1.012v-.536l1.492-1.88-4.875-.324c.018-.041.038-.081.059-.122l-1.04-1.412A13.62,13.62,0,0,0,2837.789,36.956Z" fill="none" stroke="#fff" stroke-width="1"/>
          <path id="路径_6444" data-name="路径 6444" d="M2838.769,36.315l4.875.324.094-.121-4.91-.325C2838.807,36.234,2838.787,36.274,2838.769,36.315Z" fill="none" stroke="#fff" stroke-width="1"/>
          <path id="路径_6445" data-name="路径 6445" d="M2837.788,34.781c0,1.365,1.452,2.549,3.561,3.111l2.794-3.521-6.177-.411A2.026,2.026,0,0,0,2837.788,34.781Z" fill="none" stroke="#fff" stroke-width="1"/>
          <path id="路径_6446" data-name="路径 6446" d="M2844.143,34.371v1.765l-1.99,2.383v.537l-.8,1.012V37.892Z" fill="none" stroke="#fff" stroke-width="1"/>
        </g>
        <g id="组_8777" data-name="组 8777">
          <path id="路径_6447" data-name="路径 6447" d="M2852.919,37.31s0,.974.16,1.027,1.522-.465,1.433-.728a2.157,2.157,0,0,0-.371-.582Z" fill="none" stroke="#fff" stroke-width="1"/>
          <path id="路径_6448" data-name="路径 6448" d="M2843.644,32.34s-.687,1.738.273,2.031,1.744,1.485,2.449,1.241,5.289-3.2,5.642-3.084.7,4.9.7,4.9-.079.3.705.139.862-.431.862-.431-.176-6.974-.509-7.523-1.137-.489-1.489-.43-.216-.98-.862-1.1-4.388,2.624-4.388,2.624Z" fill="none" stroke="#fff" stroke-width="1"/>
          <path id="路径_6449" data-name="路径 6449" d="M2852.866,37.77a.7.7,0,0,0,.9.122c.425-.246.514-.317.511-.6s-.139-.389.232-.46.921-.549,1.133-.531,1.115.354.814.637a17.044,17.044,0,0,1-2.726,2.107c-.336.017-1.062-.036-1.044-.407A4.184,4.184,0,0,1,2852.866,37.77Z" fill="none" stroke="#fff" stroke-width="1"/>
          <path id="路径_6450" data-name="路径 6450" d="M2849.1,25.53l5.445,3.078v.2l-2.781,1.631a.4.4,0,0,1-.4,0l-5.246-3.154Z" fill="none" stroke="#fff" stroke-width="1"/>
          <path id="路径_6451" data-name="路径 6451" d="M2849.1,25.334l5.445,3.274-2.781,1.63a.392.392,0,0,1-.4,0l-5.246-3.154Z" fill="none" stroke="#fff" stroke-width="1"/>
          <path id="路径_6452" data-name="路径 6452" d="M2855.641,24.5l-.091.338-1,3.766-5.439-3.273,1.006-3.778.077-.288a.258.258,0,0,1,.383-.154l4.884,2.94A.4.4,0,0,1,2855.641,24.5Z" fill="none" stroke="#fff" stroke-width="1"/>
          <path id="路径_6453" data-name="路径 6453" d="M2847.714,20.833s.1.772-.047.953-.167.329-.074.441.186.39.009.919-.176.833-.39.907a.928.928,0,0,1-.362.059l-.1.446s-1.9-.343-1.821-.576a1.628,1.628,0,0,0,.2-.892,5.374,5.374,0,0,1,1.357-2.257A8.865,8.865,0,0,0,2847.714,20.833Z" fill="none" stroke="#fff" stroke-width="1"/>
          <path id="路径_6454" data-name="路径 6454" d="M2847.6,21.051a1.423,1.423,0,0,0-.557.8c-.058.325.015.885-.132.949s-.014-.735-.292-.753-.239.215-.308.757-.321.75-1.068.809-1.2-1.5-1.114-2.192c.1-.839.816-1.459,2.163-1.46S2848.2,20.587,2847.6,21.051Z" fill="none" stroke="#fff" stroke-width="1"/>
          <path id="路径_6455" data-name="路径 6455" d="M2849.62,26.156l3.657,2.2-1.544.8-3.51-2.178Z" fill="none" stroke="#fff" stroke-width="1"/>
          <path id="路径_6456" data-name="路径 6456" d="M2850.867,29.817s.316.1.575-.438.865-.394.91-.6-.438-.338-.82-.3-.91.738-.91.738A1.075,1.075,0,0,1,2850.867,29.817Z" fill="none" stroke="#fff" stroke-width="1"/>
          <path id="路径_6457" data-name="路径 6457" d="M2844.978,23.748s.785.214,1.383.429.674.381.674.381v.492s1.442.741,1.55,1.43.245,3.34.505,3.34a7.131,7.131,0,0,0,1.394-.644s.184-.03.306.307a1.194,1.194,0,0,1,.062.612,12.1,12.1,0,0,1-2.084,1.119,2.162,2.162,0,0,1-.8-.184l.245,1.425s.184.72-1.823.765a3.653,3.653,0,0,1-2.88-1.011l.04-2.374s-.974.123-1.036-.8-.138-4.427.291-4.794a3.911,3.911,0,0,1,1.883-.389A.521.521,0,0,0,2844.978,23.748Z" fill="none" stroke="#fff" stroke-width="1"/>
          <path id="路径_6458" data-name="路径 6458" d="M2855.349,24.509l-.083.308-4.952-2.993.07-.262a.235.235,0,0,1,.349-.141l4.45,2.679A.369.369,0,0,1,2855.349,24.509Z" fill="none" stroke="#fff" stroke-width="1"/>
          <path id="路径_6459" data-name="路径 6459" d="M2850.314,21.824l-.947,3.355,4.993,3.041.906-3.4Z" fill="none" stroke="#fff" stroke-width="1"/>
          <path id="路径_6460" data-name="路径 6460" d="M2851.617,22.612,2850.706,26l-1.339-.816.947-3.355Z" fill="none" stroke="#fff" stroke-width="1"/>
          <path id="路径_6461" data-name="路径 6461" d="M2851.654,23.763l2.849,1.722.045-.135-2.849-1.722Z" fill="none" stroke="#fff" stroke-width="1"/>
          <path id="路径_6462" data-name="路径 6462" d="M2851.831,23.375l1.385.833.051-.152-1.385-.833Z" fill="none" stroke="#fff" stroke-width="1"/>
          <path id="路径_6463" data-name="路径 6463" d="M2851.537,24.179l2.849,1.722.045-.135-2.849-1.722Z" fill="none" stroke="#fff" stroke-width="1"/>
          <path id="路径_6464" data-name="路径 6464" d="M2851.42,24.6l1.542.928.045-.135-1.541-.928Z" fill="none" stroke="#fff" stroke-width="1"/>
          <path id="路径_6465" data-name="路径 6465" d="M2851.087,25.454l2.849,1.722.045-.135-2.849-1.722Z" fill="none" stroke="#fff" stroke-width="1"/>
          <path id="路径_6466" data-name="路径 6466" d="M2851.263,25.065l1.385.833.051-.152-1.385-.833Z" fill="none" stroke="#fff" stroke-width="1"/>
          <path id="路径_6467" data-name="路径 6467" d="M2850.97,25.87l2.849,1.722.045-.135-2.849-1.722Z" fill="none" stroke="#fff" stroke-width="1"/>
        </g>
      </g>
      <g id="组_8783" data-name="组 8783">
        <g id="组_8779" data-name="组 8779">
          <path id="路径_6468" data-name="路径 6468" d="M2857.4,44.942l-1.789,1.081v-1.94L2857.4,43Z" fill="none" stroke="#fff" stroke-width="1"/>
          <path id="路径_6469" data-name="路径 6469" d="M2855.608,44.083l-1.969-1.187v2.046l1.969,1.081Z" fill="none" stroke="#fff" stroke-width="1"/>
          <path id="路径_6470" data-name="路径 6470" d="M2857.4,43l-1.879-1.105-1.879,1,1.969,1.187Z" fill="none" stroke="#fff" stroke-width="1"/>
        </g>
        <g id="组_8780" data-name="组 8780">
          <path id="路径_6471" data-name="路径 6471" d="M2860.312,46.409l-1.789,1.081V44.083L2860.312,43Z" fill="none" stroke="#fff" stroke-width="1"/>
          <path id="路径_6472" data-name="路径 6472" d="M2858.523,44.083l-1.969-1.187v3.512l1.969,1.081Z" fill="none" stroke="#fff" stroke-width="1"/>
          <path id="路径_6473" data-name="路径 6473" d="M2860.312,43l-1.879-1.105-1.879,1,1.969,1.187Z" fill="none" stroke="#fff" stroke-width="1"/>
        </g>
        <g id="组_8781" data-name="组 8781">
          <path id="路径_6474" data-name="路径 6474" d="M2863.175,48.04l-1.789,1.081v-6.9l1.789-1.081Z" fill="none" stroke="#fff" stroke-width="1"/>
          <path id="路径_6475" data-name="路径 6475" d="M2861.386,42.217l-1.969-1.187v7.01l1.969,1.081Z" fill="none" stroke="#fff" stroke-width="1"/>
          <path id="路径_6476" data-name="路径 6476" d="M2863.175,41.136l-1.879-1.105-1.879,1,1.969,1.187Z" fill="none" stroke="#fff" stroke-width="1"/>
        </g>
        <g id="组_8782" data-name="组 8782">
          <path id="路径_6477" data-name="路径 6477" d="M2866.222,49.82l-1.789,1.081V42.069l1.789-1.081Z" fill="none" stroke="#fff" stroke-width="1"/>
          <path id="路径_6478" data-name="路径 6478" d="M2864.433,42.069l-1.969-1.187V49.82l1.969,1.081Z" fill="none" stroke="#fff" stroke-width="1"/>
          <path id="路径_6479" data-name="路径 6479" d="M2866.222,40.988l-1.879-1.105-1.879,1,1.969,1.187Z" fill="none" stroke="#fff" stroke-width="1"/>
        </g>
      </g>
      <g id="组_8785" data-name="组 8785">
        <g id="组_8784" data-name="组 8784">
          <path id="路径_6480" data-name="路径 6480" d="M2886.561,37.972a1.212,1.212,0,0,1-1.41,1.34,2.341,2.341,0,0,1-.7-.208,3.751,3.751,0,0,1-1.382-1.162,3.359,3.359,0,0,1-.734-1.939c0-1.168.948-1.674,2.116-1.131a3.99,3.99,0,0,1,1.987,2.313A2.687,2.687,0,0,1,2886.561,37.972Z" fill="none" stroke="#fff" stroke-width="1"/>
          <path id="路径_6481" data-name="路径 6481" d="M2886.171,38.235a1.213,1.213,0,0,1-1.411,1.34,2.3,2.3,0,0,1-.7-.208,3.744,3.744,0,0,1-1.383-1.162,3.358,3.358,0,0,1-.733-1.939c0-1.168.947-1.674,2.116-1.131a3.988,3.988,0,0,1,1.986,2.313A2.689,2.689,0,0,1,2886.171,38.235Z" fill="none" stroke="#fff" stroke-width="1"/>
        </g>
        <path id="路径_6482" data-name="路径 6482" d="M2884.464,37.082a.355.355,0,0,0,.13-.3,1.135,1.135,0,0,0-.588-.893c-.325-.168-.588-.041-.588.283a.9.9,0,0,0,.129.435.559.559,0,0,0-.584.633,1.261,1.261,0,0,0,.018.2l2.049,1.063a.953.953,0,0,0,.018-.182A1.9,1.9,0,0,0,2884.464,37.082Z" fill="none" stroke="#fff" stroke-width="1"/>
      </g>
      <g id="组_8788" data-name="组 8788">
        <g id="组_8786" data-name="组 8786">
          <path id="路径_6483" data-name="路径 6483" d="M2895.65,30.524a1.212,1.212,0,0,1-1.411,1.34,2.316,2.316,0,0,1-.7-.208,3.741,3.741,0,0,1-1.382-1.162,3.359,3.359,0,0,1-.734-1.938c0-1.169.948-1.675,2.116-1.132a3.989,3.989,0,0,1,1.987,2.313A2.687,2.687,0,0,1,2895.65,30.524Z" fill="none" stroke="#fff" stroke-width="1"/>
          <path id="路径_6484" data-name="路径 6484" d="M2895.259,30.788a1.212,1.212,0,0,1-1.41,1.339,2.3,2.3,0,0,1-.7-.208,3.727,3.727,0,0,1-1.383-1.162,3.359,3.359,0,0,1-.734-1.938c0-1.169.948-1.675,2.117-1.132A3.989,3.989,0,0,1,2895.132,30,2.688,2.688,0,0,1,2895.259,30.788Z" fill="none" stroke="#fff" stroke-width="1"/>
        </g>
        <g id="组_8787" data-name="组 8787">
          <path id="路径_6485" data-name="路径 6485" d="M2892.186,28.39l.806,1.64,1.106-.526Z" fill="none" stroke="#fff" stroke-width="1"/>
          <path id="路径_6486" data-name="路径 6486" d="M2894.14,31.3V29.653l-1.215.543-.89-1.744V30.2Z" fill="none" stroke="#fff" stroke-width="1"/>
        </g>
      </g>
    </g>
    <g id="组_8813" data-name="组 8813">
      <path id="路径_6487" data-name="路径 6487" d="M2883.332,19.89V33.926a.534.534,0,0,1-.079.287.561.561,0,0,1-.764.2l-14.185-8.2a1.267,1.267,0,0,1-.632-1.1V10.948a.505.505,0,0,1,.575-.5.515.515,0,0,1,.185.064l14.24,8.234A1.323,1.323,0,0,1,2883.332,19.89Z" fill="none" stroke="#fff" stroke-width="1"/>
      <path id="路径_6488" data-name="路径 6488" d="M2883.855,19.89V33.926a.56.56,0,0,1-.6.56.526.526,0,0,0,.08-.287V20.163a1.322,1.322,0,0,0-.661-1.146l-14.24-8.234a.507.507,0,0,0-.184-.064.506.506,0,0,1,.705-.209l14.24,8.236A1.323,1.323,0,0,1,2883.855,19.89Z" fill="none" stroke="#fff" stroke-width="1"/>
      <path id="路径_6489" data-name="路径 6489" d="M2882.769,33.957a.02.02,0,0,1-.012-.005l-6.888-3.943a.739.739,0,0,1-.367-.637V15.247l6.9,3.957a.8.8,0,0,1,.4.686V33.926C2882.791,33.949,2882.779,33.957,2882.769,33.957Z" fill="none" stroke="#fff" stroke-width="1"/>
      <path id="路径_6490" data-name="路径 6490" d="M2874.293,28.775l-.006,0-3.489-2a.374.374,0,0,1-.185-.322V19.3l3.5,2a.4.4,0,0,1,.2.348v7.11C2874.3,28.771,2874.3,28.775,2874.293,28.775Z" fill="none" stroke="#fff" stroke-width="1"/>
      <path id="路径_6491" data-name="路径 6491" d="M2870.081,26.249l-.006,0-3.489-2a.376.376,0,0,1-.186-.323V16.773l3.5,2a.4.4,0,0,1,.2.347v7.11C2870.092,26.246,2870.086,26.249,2870.081,26.249Z" fill="none" stroke="#fff" stroke-width="1" opacity="0.7"/>
      <path id="路径_6492" data-name="路径 6492" d="M2874.293,19.947l-.006,0-3.489-2a.374.374,0,0,1-.185-.322V13.412l3.5,2a.4.4,0,0,1,.2.348v4.168C2874.3,19.943,2874.3,19.947,2874.293,19.947Z" fill="none" stroke="#fff" stroke-width="1"/>
      <g id="组_8793" data-name="组 8793">
        <path id="路径_6493" data-name="路径 6493" d="M2862.962,19.276l6.088,3.479V13.379L2862.962,9.9Z" fill="none" stroke="#fff" stroke-width="1"/>
        <path id="路径_6494" data-name="路径 6494" d="M2865.624,11.421V20.8l-2.661-1.521V9.9Z" fill="none" stroke="#fff" stroke-width="1"/>
        <path id="路径_6495" data-name="路径 6495" d="M2862.962,11.041l6.088,3.479v-1.14L2862.962,9.9Z" fill="none" stroke="#fff" stroke-width="1"/>
        <g id="组_8790" data-name="组 8790">
          <path id="路径_6496" data-name="路径 6496" d="M2863.122,11.835l2.224,1.271v-.26l-2.224-1.271Z" fill="none" stroke="#fff" stroke-width="1"/>
          <path id="路径_6497" data-name="路径 6497" d="M2863.122,12.47l2.224,1.271v-.26l-2.224-1.271Z" fill="none" stroke="#fff" stroke-width="1"/>
          <path id="路径_6498" data-name="路径 6498" d="M2863.122,13.106l2.224,1.271v-.26l-2.224-1.271Z" fill="none" stroke="#fff" stroke-width="1"/>
          <path id="路径_6499" data-name="路径 6499" d="M2863.122,13.741l2.224,1.271v-.26l-2.224-1.271Z" fill="none" stroke="#fff" stroke-width="1"/>
          <path id="路径_6500" data-name="路径 6500" d="M2863.122,14.377l1.52.9v-.26l-1.52-.9Z" fill="none" stroke="#fff" stroke-width="1"/>
          <path id="路径_6501" data-name="路径 6501" d="M2863.122,15.608l2.224,1.271v-.26l-2.224-1.271Z" fill="none" stroke="#fff" stroke-width="1"/>
          <path id="路径_6502" data-name="路径 6502" d="M2863.122,16.244l2.224,1.271v-.26l-2.224-1.271Z" fill="none" stroke="#fff" stroke-width="1"/>
          <path id="路径_6503" data-name="路径 6503" d="M2863.122,16.879l2.224,1.271v-.26l-2.224-1.271Z" fill="none" stroke="#fff" stroke-width="1"/>
          <path id="路径_6504" data-name="路径 6504" d="M2863.122,17.515l2.224,1.271v-.26l-2.224-1.271Z" fill="none" stroke="#fff" stroke-width="1"/>
          <path id="路径_6505" data-name="路径 6505" d="M2863.122,18.15l1.52.9v-.26l-1.52-.9Z" fill="none" stroke="#fff" stroke-width="1"/>
        </g>
        <g id="组_8791" data-name="组 8791">
          <path id="路径_6506" data-name="路径 6506" d="M2866.111,13.577l2.224,1.271v-.26l-2.224-1.271Z" fill="none" stroke="#fff" stroke-width="1"/>
          <path id="路径_6507" data-name="路径 6507" d="M2866.111,14.212l2.224,1.271v-.26l-2.224-1.271Z" fill="none" stroke="#fff" stroke-width="1"/>
          <path id="路径_6508" data-name="路径 6508" d="M2866.111,14.848l2.224,1.271v-.26l-2.224-1.271Z" fill="none" stroke="#fff" stroke-width="1"/>
          <path id="路径_6509" data-name="路径 6509" d="M2866.111,15.483l2.224,1.271v-.26l-2.224-1.271Z" fill="none" stroke="#fff" stroke-width="1"/>
          <path id="路径_6510" data-name="路径 6510" d="M2866.111,16.119l1.52.9v-.26l-1.52-.9Z" fill="none" stroke="#fff" stroke-width="1"/>
          <path id="路径_6511" data-name="路径 6511" d="M2866.111,17.35l2.224,1.271v-.26l-2.224-1.271Z" fill="none" stroke="#fff" stroke-width="1"/>
          <path id="路径_6512" data-name="路径 6512" d="M2866.111,17.986l2.224,1.271V19l-2.224-1.271Z" fill="none" stroke="#fff" stroke-width="1"/>
          <path id="路径_6513" data-name="路径 6513" d="M2866.111,18.621l2.224,1.271v-.26l-2.224-1.271Z" fill="none" stroke="#fff" stroke-width="1"/>
          <path id="路径_6514" data-name="路径 6514" d="M2866.111,19.257l2.224,1.271v-.26L2866.111,19Z" fill="none" stroke="#fff" stroke-width="1"/>
          <path id="路径_6515" data-name="路径 6515" d="M2866.111,19.893l1.52.9v-.26l-1.52-.9Z" fill="none" stroke="#fff" stroke-width="1"/>
        </g>
        <g id="组_8792" data-name="组 8792">
          <path id="路径_6516" data-name="路径 6516" d="M2863.9,37.549l-.037.444s.525.455.895.314.983-.312.888-.5-.823-.067-.845-.387S2863.9,37.549,2863.9,37.549Z" fill="none" stroke="#fff" stroke-width="1"/>
          <path id="路径_6517" data-name="路径 6517" d="M2863.817,37.982a1.027,1.027,0,0,0,.537.209c.28,0,.739-.16.769-.292a.443.443,0,0,0-.1-.3s.331-.039.535-.041.392-.19.608-.114.768.287.563.425a7.8,7.8,0,0,1-2.357.912c-.419-.074-.574-.164-.594-.34A1.95,1.95,0,0,1,2863.817,37.982Z" fill="none" stroke="#fff" stroke-width="1"/>
          <path id="路径_6518" data-name="路径 6518" d="M2860.955,36.238a5.984,5.984,0,0,0-.054.65,1.548,1.548,0,0,0,1.1-.117.662.662,0,0,0,.042-.5Z" fill="none" stroke="#fff" stroke-width="1"/>
          <path id="路径_6519" data-name="路径 6519" d="M2860.765,36.628s.643.45,1.1.141.21-.5.5-.547a1.73,1.73,0,0,1,.975-.026c.361.139.24.427-.022.551a8.675,8.675,0,0,1-1.8.749c-.411.025-.787-.127-.8-.32A3.358,3.358,0,0,1,2860.765,36.628Z" fill="none" stroke="#fff" stroke-width="1"/>
          <path id="路径_6520" data-name="路径 6520" d="M2860.273,25.2a3.375,3.375,0,0,0,.086,1.868l.351.835.367,3.638a18.681,18.681,0,0,0-.2,2.708c.032,1.164,0,2.1,0,2.1s.086.284.636.241.56-.151.56-.151.545-4.23.63-4.834-.091-5.673-.091-5.673Z" fill="none" stroke="#fff" stroke-width="1"/>
          <path id="路径_6521" data-name="路径 6521" d="M2862.024,25.9a4.141,4.141,0,0,0,.246,2.081,6.389,6.389,0,0,0,1.052,1.262l.372,2.7a22.1,22.1,0,0,0-.1,3.2c.112,1.055.2,2.357.2,2.357a.967.967,0,0,0,.86.062c.356-.222.514-.02.514-.02l.394-6.447-.764-5.982A4.665,4.665,0,0,1,2862.024,25.9Z" fill="none" stroke="#fff" stroke-width="1"/>
          <path id="路径_6522" data-name="路径 6522" d="M2864.351,14.983s.182.607.048.733-.166.134-.1.26a.654.654,0,0,1,.1.543c-.087.213-.1,1.073-.369,1.191s-.411.023-.553.086-.194.364-.194.364l-1.216-.289-.21,0a2.748,2.748,0,0,0,.131-.607c-.016-.142,0-1.592.5-1.993A3.625,3.625,0,0,1,2864.351,14.983Z" fill="none" stroke="#fff" stroke-width="1"/>
          <path id="路径_6523" data-name="路径 6523" d="M2864.525,14.637c.1.179-.166.583-.386.638s-.4.386-.394.835-.032.606-.1.606-.055-.59-.252-.59-.283.322-.173.527-.116.649-.257.72a1.236,1.236,0,0,1-.988-.1c-.3-.221-.949-2.12-.366-2.75s1.649-.4,1.893-.4A2.029,2.029,0,0,1,2864.525,14.637Z" fill="none" stroke="#fff" stroke-width="1"/>
          <path id="路径_6524" data-name="路径 6524" d="M2868.373,17.759a3.1,3.1,0,0,1,0-.95c.087-.441.153-.882.164-.938s.243-.022.243.188-.1.915.064.816.068-.4.2-.386.353.419.221.816-.421,1.091-.421,1.091A.671.671,0,0,0,2868.373,17.759Z" fill="none" stroke="#fff" stroke-width="1"/>
          <path id="路径_6525" data-name="路径 6525" d="M2861.717,17.625s.254-.129.917.174a2.407,2.407,0,0,1,.922.663l.084.324a5.958,5.958,0,0,1,1.158.488,3.255,3.255,0,0,0,1.932,0,13.662,13.662,0,0,0,1.528-1.528s.461.014.547.288a1.4,1.4,0,0,1,0,.634s-1.6,1.932-2.162,2.061-1.847.26-1.847.26v4.122s-.459.778-2.188.821a2.835,2.835,0,0,1-2.335-.735s.014-3.228-.072-3.286-.606-.115-.678-1.369a4.025,4.025,0,0,1,.536-2.521C2860.347,17.646,2861.572,17.87,2861.717,17.625Z" fill="none" stroke="#fff" stroke-width="1"/>
        </g>
      </g>
      <g id="组_8794" data-name="组 8794">
        <path id="路径_6526" data-name="路径 6526" d="M2883.472,30.137l-8.447-4.926a.761.761,0,0,1-.378-.658V18.526a.4.4,0,0,1,.595-.342l8.433,4.917a.668.668,0,0,1,.331.576V29.83A.356.356,0,0,1,2883.472,30.137Z" fill="none" stroke="#fff" stroke-width="1"/>
        <path id="路径_6527" data-name="路径 6527" d="M2883.22,30.231l-8.447-4.925a.763.763,0,0,1-.378-.658V18.62a.4.4,0,0,1,.595-.341l8.433,4.917a.668.668,0,0,1,.33.576v6.152A.355.355,0,0,1,2883.22,30.231Z" fill="none" stroke="#fff" stroke-width="1"/>
        <path id="路径_6528" data-name="路径 6528" d="M2874.956,22.744s.695-1.381,1.677-.607,1.216,2.559,2.441,2.937,2.729-1.144,4.172,0" fill="none" stroke="#fff" stroke-miterlimit="10" stroke-width="0.343"/>
        <path id="路径_6529" data-name="路径 6529" d="M2874.862,19.4l2.21,1.263V20.4l-2.21-1.263Z" fill="none" stroke="#fff" stroke-width="1"/>
        <path id="路径_6530" data-name="路径 6530" d="M2874.862,20.061l3.664,2.1V21.9l-3.664-2.1Z" fill="none" stroke="#fff" stroke-width="1"/>
        <path id="路径_6531" data-name="路径 6531" d="M2879.259,26.475l2.21,1.263V27.48l-2.21-1.263Z" fill="none" stroke="#fff" stroke-width="1"/>
        <path id="路径_6532" data-name="路径 6532" d="M2879.259,27.14l3.665,2.1V28.98l-3.665-2.1Z" fill="none" stroke="#fff" stroke-width="1"/>
      </g>
      <path id="路径_6533" data-name="路径 6533" d="M2877.242,27.422l2.21,1.263v-.258l-2.21-1.263Z" fill="none" stroke="#fff" stroke-width="1"/>
      <path id="路径_6534" data-name="路径 6534" d="M2877.242,28.087l3.664,2.1v-.258l-3.664-2.1Z" fill="none" stroke="#fff" stroke-width="1"/>
      <path id="路径_6535" data-name="路径 6535" d="M2877.242,29.265l2.21,1.263V30.27l-2.21-1.263Z" fill="none" stroke="#fff" stroke-width="1"/>
      <path id="路径_6536" data-name="路径 6536" d="M2877.242,29.93l3.664,2.1V31.77l-3.664-2.1Z" fill="none" stroke="#fff" stroke-width="1"/>
      <g id="组_8796" data-name="组 8796">
        <path id="路径_6537" data-name="路径 6537" d="M2890.31,33.653a1.212,1.212,0,0,1-1.411,1.34,2.315,2.315,0,0,1-.7-.208,3.741,3.741,0,0,1-1.382-1.162,3.359,3.359,0,0,1-.734-1.939c0-1.168.948-1.674,2.116-1.131a3.985,3.985,0,0,1,1.986,2.313A2.658,2.658,0,0,1,2890.31,33.653Z" fill="none" stroke="#fff" stroke-width="1"/>
        <path id="路径_6538" data-name="路径 6538" d="M2889.919,33.916a1.212,1.212,0,0,1-1.41,1.34,2.314,2.314,0,0,1-.7-.208,3.739,3.739,0,0,1-1.382-1.162,3.358,3.358,0,0,1-.734-1.938c0-1.169.948-1.675,2.116-1.132a3.986,3.986,0,0,1,1.987,2.313A2.687,2.687,0,0,1,2889.919,33.916Z" fill="none" stroke="#fff" stroke-width="1"/>
        <g id="组_8795" data-name="组 8795">
          <path id="路径_6539" data-name="路径 6539" d="M2886.979,31.576a1.219,1.219,0,0,0-.567.607,2.206,2.206,0,0,0-.116.674l.737.579a8.369,8.369,0,0,1,.371-.833c.158-.281.262-.457.262-.457Z" fill="none" stroke="#fff" stroke-width="1"/>
          <path id="路径_6540" data-name="路径 6540" d="M2888.365,33.887c-.391.3-1.128-.4-1.128-.4a3.251,3.251,0,0,1,.178-.56.858.858,0,0,1,.346-.441,2.479,2.479,0,0,0,.549-.06,1.408,1.408,0,0,0,.534-.341.21.21,0,0,1,.073.261,2.009,2.009,0,0,1-.433.412s.29.13.487.23c.011.006.149.073.158.08C2889.274,33.195,2888.741,33.6,2888.365,33.887Z" fill="none" stroke="#fff" stroke-width="1"/>
        </g>
      </g>
      <g id="组_8797" data-name="组 8797">
        <path id="路径_6541" data-name="路径 6541" d="M2889.625,27.735a1.212,1.212,0,0,1-1.411,1.339,2.314,2.314,0,0,1-.7-.208,3.732,3.732,0,0,1-1.382-1.162,3.359,3.359,0,0,1-.734-1.938c0-1.169.948-1.675,2.116-1.132a3.99,3.99,0,0,1,1.987,2.313A2.688,2.688,0,0,1,2889.625,27.735Z" fill="none" stroke="#fff" stroke-width="1"/>
        <path id="路径_6542" data-name="路径 6542" d="M2889.234,28a1.212,1.212,0,0,1-1.41,1.339,2.3,2.3,0,0,1-.7-.208,3.725,3.725,0,0,1-1.383-1.162,3.359,3.359,0,0,1-.734-1.938c0-1.169.948-1.675,2.117-1.132a3.991,3.991,0,0,1,1.986,2.313A2.688,2.688,0,0,1,2889.234,28Z" fill="none" stroke="#fff" stroke-width="1"/>
        <path id="路径_6543" data-name="路径 6543" d="M2887.853,26.6c-.444-.236-.615.02-.659.11a1.517,1.517,0,0,0-.659-.837c-.531-.3-.455.474-.1,1.148a7.04,7.04,0,0,0,.743,1.12v.016h.013l.013.015v-.016a1.533,1.533,0,0,0,.744-.3A.763.763,0,0,0,2887.853,26.6Z" fill="none" stroke="#fff" stroke-width="1"/>
      </g>
      <g id="组_8798" data-name="组 8798">
        <path id="路径_6544" data-name="路径 6544" d="M2891.78,39.732a1.212,1.212,0,0,1-1.411,1.339,2.315,2.315,0,0,1-.7-.208,3.729,3.729,0,0,1-1.382-1.161,3.362,3.362,0,0,1-.734-1.939c0-1.168.948-1.675,2.116-1.132a3.991,3.991,0,0,1,1.986,2.313A2.663,2.663,0,0,1,2891.78,39.732Z" fill="none" stroke="#fff" stroke-width="1"/>
        <path id="路径_6545" data-name="路径 6545" d="M2891.389,39.995a1.211,1.211,0,0,1-1.41,1.339,2.338,2.338,0,0,1-.7-.207,3.75,3.75,0,0,1-1.382-1.162,3.362,3.362,0,0,1-.734-1.939c0-1.168.948-1.675,2.116-1.132a4,4,0,0,1,1.987,2.313A2.7,2.7,0,0,1,2891.389,39.995Z" fill="none" stroke="#fff" stroke-width="1"/>
        <path id="路径_6546" data-name="路径 6546" d="M2888.367,38.118a.123.123,0,0,1-.143.135.22.22,0,0,1-.07-.021.376.376,0,0,1-.14-.117.341.341,0,0,1-.074-.2c0-.118.1-.169.214-.114a.4.4,0,0,1,.2.233A.27.27,0,0,1,2888.367,38.118Z" fill="none" stroke="#fff" stroke-width="1"/>
        <path id="路径_6547" data-name="路径 6547" d="M2890.328,39.008a.122.122,0,0,1-.142.135.235.235,0,0,1-.071-.021.378.378,0,0,1-.139-.117.34.34,0,0,1-.074-.195c0-.118.095-.169.213-.114a.4.4,0,0,1,.2.233A.241.241,0,0,1,2890.328,39.008Z" fill="none" stroke="#fff" stroke-width="1"/>
        <path id="路径_6548" data-name="路径 6548" d="M2887.991,38.84a3.442,3.442,0,0,0,1.153.936,1.72,1.72,0,0,0,1.381.09.885.885,0,0,1-1.108.691A2.1,2.1,0,0,1,2887.991,38.84Z" fill="none" stroke="#fff" stroke-width="1"/>
      </g>
      <g id="组_8799" data-name="组 8799">
        <path id="路径_6549" data-name="路径 6549" d="M2895.846,37.529a1.212,1.212,0,0,1-1.411,1.339,2.325,2.325,0,0,1-.7-.207,3.751,3.751,0,0,1-1.383-1.162,3.359,3.359,0,0,1-.733-1.939c0-1.168.947-1.675,2.116-1.131a3.985,3.985,0,0,1,1.986,2.312A2.7,2.7,0,0,1,2895.846,37.529Z" fill="none" stroke="#fff" stroke-width="1"/>
        <path id="路径_6550" data-name="路径 6550" d="M2895.455,37.792a1.213,1.213,0,0,1-1.411,1.34,2.333,2.333,0,0,1-.7-.208,3.752,3.752,0,0,1-1.383-1.162,3.358,3.358,0,0,1-.733-1.939c0-1.168.948-1.674,2.116-1.131a3.985,3.985,0,0,1,1.986,2.313A2.69,2.69,0,0,1,2895.455,37.792Z" fill="none" stroke="#fff" stroke-width="1"/>
        <path id="路径_6551" data-name="路径 6551" d="M2892.141,36.05l.355,1.663,2.417-.583-.156-.512-1.848.441Z" fill="none" stroke="#fff" stroke-width="1"/>
      </g>
      <g id="组_8802" data-name="组 8802">
        <g id="组_8800" data-name="组 8800">
          <path id="路径_6552" data-name="路径 6552" d="M2843.417,38.651l-1.265-.132v1.728a10.829,10.829,0,0,0,2.794.353c3.507,0,6.352-1.553,6.352-3.464,0-4.98-2.845-3.464-6.352-3.464-2.91,0-5.364,1.067-6.118,2.521-.021.041-.041.081-.059.122l4.875.324,1.3.086Z" fill="none" stroke="#fff" stroke-width="1"/>
          <path id="路径_6553" data-name="路径 6553" d="M2843.738,36.518l-1.586,2c.117.031.235.061.355.088a11.1,11.1,0,0,0,2.439.265c3.507,0,6.352-1.553,6.352-3.464s-2.845-3.465-6.352-3.465c-2.991,0-5.5,1.127-6.177,2.644l6.177.41Z" fill="none" stroke="#fff" stroke-width="1"/>
          <path id="路径_6554" data-name="路径 6554" d="M2838.769,34.587v1.727l4.875.324,1.3-1.641Z" fill="none" stroke="#fff" stroke-width="1"/>
          <path id="路径_6555" data-name="路径 6555" d="M2837.789,36.956c0,1.365,1.452,2.549,3.56,3.111l.8-1.012v-.536l1.492-1.88-4.875-.324c.018-.041.038-.081.059-.122l-1.04-1.412A13.62,13.62,0,0,0,2837.789,36.956Z" fill="none" stroke="#fff" stroke-width="1"/>
          <path id="路径_6556" data-name="路径 6556" d="M2838.769,36.315l4.875.324.094-.121-4.91-.325C2838.807,36.234,2838.787,36.274,2838.769,36.315Z" fill="none" stroke="#fff" stroke-width="1"/>
          <path id="路径_6557" data-name="路径 6557" d="M2837.788,34.781c0,1.365,1.452,2.549,3.561,3.111l2.794-3.521-6.177-.411A2.026,2.026,0,0,0,2837.788,34.781Z" fill="none" stroke="#fff" stroke-width="1"/>
          <path id="路径_6558" data-name="路径 6558" d="M2844.143,34.371v1.765l-1.99,2.383v.537l-.8,1.012V37.892Z" fill="none" stroke="#fff" stroke-width="1"/>
        </g>
        <g id="组_8801" data-name="组 8801">
          <path id="路径_6559" data-name="路径 6559" d="M2852.919,37.31s0,.974.16,1.027,1.522-.465,1.433-.728a2.157,2.157,0,0,0-.371-.582Z" fill="none" stroke="#fff" stroke-width="1"/>
          <path id="路径_6560" data-name="路径 6560" d="M2843.644,32.34s-.687,1.738.273,2.031,1.744,1.485,2.449,1.241,5.289-3.2,5.642-3.084.7,4.9.7,4.9-.079.3.705.139.862-.431.862-.431-.176-6.974-.509-7.523-1.137-.489-1.489-.43-.216-.98-.862-1.1-4.388,2.624-4.388,2.624Z" fill="none" stroke="#fff" stroke-width="1"/>
          <path id="路径_6561" data-name="路径 6561" d="M2852.866,37.77a.7.7,0,0,0,.9.122c.425-.246.514-.317.511-.6s-.139-.389.232-.46.921-.549,1.133-.531,1.115.354.814.637a17.044,17.044,0,0,1-2.726,2.107c-.336.017-1.062-.036-1.044-.407A4.184,4.184,0,0,1,2852.866,37.77Z" fill="none" stroke="#fff" stroke-width="1"/>
          <path id="路径_6562" data-name="路径 6562" d="M2849.1,25.53l5.445,3.078v.2l-2.781,1.631a.4.4,0,0,1-.4,0l-5.246-3.154Z" fill="none" stroke="#fff" stroke-width="1"/>
          <path id="路径_6563" data-name="路径 6563" d="M2849.1,25.334l5.445,3.274-2.781,1.63a.392.392,0,0,1-.4,0l-5.246-3.154Z" fill="none" stroke="#fff" stroke-width="1"/>
          <path id="路径_6564" data-name="路径 6564" d="M2855.641,24.5l-.091.338-1,3.766-5.439-3.273,1.006-3.778.077-.288a.258.258,0,0,1,.383-.154l4.884,2.94A.4.4,0,0,1,2855.641,24.5Z" fill="none" stroke="#fff" stroke-width="1"/>
          <path id="路径_6565" data-name="路径 6565" d="M2847.714,20.833s.1.772-.047.953-.167.329-.074.441.186.39.009.919-.176.833-.39.907a.928.928,0,0,1-.362.059l-.1.446s-1.9-.343-1.821-.576a1.628,1.628,0,0,0,.2-.892,5.374,5.374,0,0,1,1.357-2.257A8.865,8.865,0,0,0,2847.714,20.833Z" fill="none" stroke="#fff" stroke-width="1"/>
          <path id="路径_6566" data-name="路径 6566" d="M2847.6,21.051a1.423,1.423,0,0,0-.557.8c-.058.325.015.885-.132.949s-.014-.735-.292-.753-.239.215-.308.757-.321.75-1.068.809-1.2-1.5-1.114-2.192c.1-.839.816-1.459,2.163-1.46S2848.2,20.587,2847.6,21.051Z" fill="none" stroke="#fff" stroke-width="1"/>
          <path id="路径_6567" data-name="路径 6567" d="M2849.62,26.156l3.657,2.2-1.544.8-3.51-2.178Z" fill="none" stroke="#fff" stroke-width="1" opacity="0.68"/>
          <path id="路径_6568" data-name="路径 6568" d="M2850.867,29.817s.316.1.575-.438.865-.394.91-.6-.438-.338-.82-.3-.91.738-.91.738A1.075,1.075,0,0,1,2850.867,29.817Z" fill="none" stroke="#fff" stroke-width="1"/>
          <path id="路径_6569" data-name="路径 6569" d="M2844.978,23.748s.785.214,1.383.429.674.381.674.381v.492s1.442.741,1.55,1.43.245,3.34.505,3.34a7.131,7.131,0,0,0,1.394-.644s.184-.03.306.307a1.194,1.194,0,0,1,.062.612,12.1,12.1,0,0,1-2.084,1.119,2.162,2.162,0,0,1-.8-.184l.245,1.425s.184.72-1.823.765a3.653,3.653,0,0,1-2.88-1.011l.04-2.374s-.974.123-1.036-.8-.138-4.427.291-4.794a3.911,3.911,0,0,1,1.883-.389A.521.521,0,0,0,2844.978,23.748Z" fill="none" stroke="#fff" stroke-width="1"/>
          <path id="路径_6570" data-name="路径 6570" d="M2855.349,24.509l-.083.308-4.952-2.993.07-.262a.235.235,0,0,1,.349-.141l4.45,2.679A.369.369,0,0,1,2855.349,24.509Z" fill="none" stroke="#fff" stroke-width="1"/>
          <path id="路径_6571" data-name="路径 6571" d="M2850.314,21.824l-.947,3.355,4.993,3.041.906-3.4Z" fill="none" stroke="#fff" stroke-width="1"/>
          <path id="路径_6572" data-name="路径 6572" d="M2851.617,22.612,2850.706,26l-1.339-.816.947-3.355Z" fill="none" stroke="#fff" stroke-width="1"/>
          <path id="路径_6573" data-name="路径 6573" d="M2851.654,23.763l2.849,1.722.045-.135-2.849-1.722Z" fill="none" stroke="#fff" stroke-width="1"/>
          <path id="路径_6574" data-name="路径 6574" d="M2851.831,23.375l1.385.833.051-.152-1.385-.833Z" fill="none" stroke="#fff" stroke-width="1"/>
          <path id="路径_6575" data-name="路径 6575" d="M2851.537,24.179l2.849,1.722.045-.135-2.849-1.722Z" fill="none" stroke="#fff" stroke-width="1"/>
          <path id="路径_6576" data-name="路径 6576" d="M2851.42,24.6l1.542.928.045-.135-1.541-.928Z" fill="none" stroke="#fff" stroke-width="1"/>
          <path id="路径_6577" data-name="路径 6577" d="M2851.087,25.454l2.849,1.722.045-.135-2.849-1.722Z" fill="none" stroke="#fff" stroke-width="1"/>
          <path id="路径_6578" data-name="路径 6578" d="M2851.263,25.065l1.385.833.051-.152-1.385-.833Z" fill="none" stroke="#fff" stroke-width="1"/>
          <path id="路径_6579" data-name="路径 6579" d="M2850.97,25.87l2.849,1.722.045-.135-2.849-1.722Z" fill="none" stroke="#fff" stroke-width="1"/>
        </g>
      </g>
      <g id="组_8807" data-name="组 8807">
        <g id="组_8803" data-name="组 8803">
          <path id="路径_6580" data-name="路径 6580" d="M2857.4,44.942l-1.789,1.081v-1.94L2857.4,43Z" fill="none" stroke="#fff" stroke-width="1"/>
          <path id="路径_6581" data-name="路径 6581" d="M2855.608,44.083l-1.969-1.187v2.046l1.969,1.081Z" fill="none" stroke="#fff" stroke-width="1"/>
          <path id="路径_6582" data-name="路径 6582" d="M2857.4,43l-1.879-1.105-1.879,1,1.969,1.187Z" fill="none" stroke="#fff" stroke-width="1"/>
        </g>
        <g id="组_8804" data-name="组 8804">
          <path id="路径_6583" data-name="路径 6583" d="M2860.312,46.409l-1.789,1.081V44.083L2860.312,43Z" fill="none" stroke="#fff" stroke-width="1"/>
          <path id="路径_6584" data-name="路径 6584" d="M2858.523,44.083l-1.969-1.187v3.512l1.969,1.081Z" fill="none" stroke="#fff" stroke-width="1"/>
          <path id="路径_6585" data-name="路径 6585" d="M2860.312,43l-1.879-1.105-1.879,1,1.969,1.187Z" fill="none" stroke="#fff" stroke-width="1"/>
        </g>
        <g id="组_8805" data-name="组 8805">
          <path id="路径_6586" data-name="路径 6586" d="M2863.175,48.04l-1.789,1.081v-6.9l1.789-1.081Z" fill="none" stroke="#fff" stroke-width="1"/>
          <path id="路径_6587" data-name="路径 6587" d="M2861.386,42.217l-1.969-1.187v7.01l1.969,1.081Z" fill="none" stroke="#fff" stroke-width="1"/>
          <path id="路径_6588" data-name="路径 6588" d="M2863.175,41.136l-1.879-1.105-1.879,1,1.969,1.187Z" fill="none" stroke="#fff" stroke-width="1"/>
        </g>
        <g id="组_8806" data-name="组 8806">
          <path id="路径_6589" data-name="路径 6589" d="M2866.222,49.82l-1.789,1.081V42.069l1.789-1.081Z" fill="none" stroke="#fff" stroke-width="1"/>
          <path id="路径_6590" data-name="路径 6590" d="M2864.433,42.069l-1.969-1.187V49.82l1.969,1.081Z" fill="none" stroke="#fff" stroke-width="1"/>
          <path id="路径_6591" data-name="路径 6591" d="M2866.222,40.988l-1.879-1.105-1.879,1,1.969,1.187Z" fill="none" stroke="#fff" stroke-width="1"/>
        </g>
      </g>
      <g id="组_8809" data-name="组 8809">
        <g id="组_8808" data-name="组 8808">
          <path id="路径_6592" data-name="路径 6592" d="M2886.561,37.972a1.212,1.212,0,0,1-1.41,1.34,2.341,2.341,0,0,1-.7-.208,3.751,3.751,0,0,1-1.382-1.162,3.359,3.359,0,0,1-.734-1.939c0-1.168.948-1.674,2.116-1.131a3.99,3.99,0,0,1,1.987,2.313A2.687,2.687,0,0,1,2886.561,37.972Z" fill="none" stroke="#fff" stroke-width="1"/>
          <path id="路径_6593" data-name="路径 6593" d="M2886.171,38.235a1.213,1.213,0,0,1-1.411,1.34,2.3,2.3,0,0,1-.7-.208,3.744,3.744,0,0,1-1.383-1.162,3.358,3.358,0,0,1-.733-1.939c0-1.168.947-1.674,2.116-1.131a3.988,3.988,0,0,1,1.986,2.313A2.689,2.689,0,0,1,2886.171,38.235Z" fill="none" stroke="#fff" stroke-width="1"/>
        </g>
        <path id="路径_6594" data-name="路径 6594" d="M2884.464,37.082a.355.355,0,0,0,.13-.3,1.135,1.135,0,0,0-.588-.893c-.325-.168-.588-.041-.588.283a.9.9,0,0,0,.129.435.559.559,0,0,0-.584.633,1.261,1.261,0,0,0,.018.2l2.049,1.063a.953.953,0,0,0,.018-.182A1.9,1.9,0,0,0,2884.464,37.082Z" fill="none" stroke="#fff" stroke-width="1"/>
      </g>
      <g id="组_8812" data-name="组 8812">
        <g id="组_8810" data-name="组 8810">
          <path id="路径_6595" data-name="路径 6595" d="M2895.65,30.524a1.212,1.212,0,0,1-1.411,1.34,2.316,2.316,0,0,1-.7-.208,3.741,3.741,0,0,1-1.382-1.162,3.359,3.359,0,0,1-.734-1.938c0-1.169.948-1.675,2.116-1.132a3.989,3.989,0,0,1,1.987,2.313A2.687,2.687,0,0,1,2895.65,30.524Z" fill="none" stroke="#fff" stroke-width="1"/>
          <path id="路径_6596" data-name="路径 6596" d="M2895.259,30.788a1.212,1.212,0,0,1-1.41,1.339,2.3,2.3,0,0,1-.7-.208,3.727,3.727,0,0,1-1.383-1.162,3.359,3.359,0,0,1-.734-1.938c0-1.169.948-1.675,2.117-1.132A3.989,3.989,0,0,1,2895.132,30,2.688,2.688,0,0,1,2895.259,30.788Z" fill="none" stroke="#fff" stroke-width="1"/>
        </g>
        <g id="组_8811" data-name="组 8811">
          <path id="路径_6597" data-name="路径 6597" d="M2892.186,28.39l.806,1.64,1.106-.526Z" fill="none" stroke="#fff" stroke-width="1"/>
          <path id="路径_6598" data-name="路径 6598" d="M2894.14,31.3V29.653l-1.215.543-.89-1.744V30.2Z" fill="none" stroke="#fff" stroke-width="1"/>
        </g>
      </g>
    </g>
  </g>
</svg>
