<svg xmlns="http://www.w3.org/2000/svg" width="44.433" height="42.003" viewBox="0 0 44.433 42.003">
  <g id="mo_btn2-3_line" transform="translate(-2420.654 125.471)">
    <g id="组_9344" data-name="组 9344">
      <g id="组_9343" data-name="组 9343">
        <path id="路径_7362" data-name="路径 7362" d="M2421.16-92.6c-.21-3.446,3.555-4.262,4.324-7.071s5.8-1.56,11.816-1.783,8.917,2.229,7.579,5.35-4.9,5.128-9.809,6.019S2421.5-86.975,2421.16-92.6Z" fill="none" stroke="#fff" stroke-width="1"/>
        <g id="组_9342" data-name="组 9342">
          <g id="组_9326" data-name="组 9326">
            <g id="组_9319" data-name="组 9319">
              <path id="路径_7363" data-name="路径 7363" d="M2443.431-98.562a14.135,14.135,0,0,0-.34-3.876c-.19-.261-1.463-.231-2.258.237-.045.7.245,1.091-.066,1.81.8.5-.546,2.466.794,2.958C2442.056-97.251,2443.394-97.667,2443.431-98.562Z" fill="none" stroke="#fff" stroke-width="1"/>
              <path id="路径_7364" data-name="路径 7364" d="M2441.344-97.544c.022.01.043.02.066.029.5.182,1.833-.235,1.869-1.129a14.12,14.12,0,0,0-.339-3.877.2.2,0,0,0-.044-.044.435.435,0,0,1,.2.127,14.135,14.135,0,0,1,.34,3.876c-.037.895-1.375,1.311-1.87,1.129A.961.961,0,0,1,2441.344-97.544Z" fill="none" stroke="#fff" stroke-width="1"/>
            </g>
            <path id="路径_7365" data-name="路径 7365" d="M2436.665-95.027c-.865.352-2.368-.662-1.662-1.869a12.548,12.548,0,0,1,6.612-5.757c.527-.181.61,2.847-.273,3.057C2441.334-99.572,2438.018-95.577,2436.665-95.027Z" fill="none" stroke="#fff" stroke-width="1"/>
            <g id="组_9320" data-name="组 9320">
              <path id="路径_7366" data-name="路径 7366" d="M2426.459-91.146a10.811,10.811,0,0,0,2.829-1.681c.173-.282-.182-1.253-.2-1.652-.66.28-1.281-.021-2.059.042-.175.91-2.948,1.218-2.92,2.591C2424.117-91.34,2425.619-90.768,2426.459-91.146Z" fill="none" stroke="#fff" stroke-width="1"/>
              <path id="路径_7367" data-name="路径 7367" d="M2424.131-92.083c0,.023,0,.046,0,.07.01.506,1.513,1.078,2.353.7a10.857,10.857,0,0,0,2.829-1.681.23.23,0,0,0,.025-.058.436.436,0,0,1-.047.225,10.811,10.811,0,0,1-2.829,1.681c-.84.378-2.342-.194-2.353-.7A.916.916,0,0,1,2424.131-92.083Z" fill="none" stroke="#fff" stroke-width="1"/>
            </g>
            <path id="路径_7368" data-name="路径 7368" d="M2426.353-102.705c-.525.492.976,2.882,1.794,2.436l.084-.042c.274-.134.824-.347,1.5-.6h0l.616-.224c1.838-.659,4.2-1.451,4.773-1.672,2.362-.9.449-5.305-.967-4.679-.381.251-1.162.721-2.089,1.274-.8.475-1.7,1.011-2.554,1.52-.772.462-1.5.9-2.067,1.253A10.885,10.885,0,0,0,2426.353-102.705Z" fill="none" stroke="#fff" stroke-width="1"/>
            <path id="路径_7369" data-name="路径 7369" d="M2426.254-102.479c.362-.836,2.369-.707,2.926.028,1.683,1.965-.013,7.021.08,7.772a.09.09,0,0,1,0,.036.634.634,0,0,1-.3.526,1.943,1.943,0,0,1-1.746.22.665.665,0,0,1-.4-.374l-.011,0C2426.71-94.984,2425.835-101.512,2426.254-102.479Z" fill="none" stroke="#fff" stroke-width="1"/>
            <path id="路径_7370" data-name="路径 7370" d="M2432.065-106.208a3.72,3.72,0,0,1-.1,3.291c-.213.19-1.4,1.263-2.23,2.01l.616-.224c1.838-.659,4.2-1.451,4.773-1.672,2.362-.9.449-5.305-.967-4.679C2433.773-107.231,2432.992-106.761,2432.065-106.208Z" fill="none" stroke="#fff" stroke-width="1" opacity="0.5" style="mix-blend-mode: multiply;isolation: isolate"/>
            <path id="路径_7371" data-name="路径 7371" d="M2434.921-105.578a33.23,33.23,0,0,1,.021,3.762c-.052,1.608-.386,5.027-.368,5.3.171,2.62,2.954,1.173,3.069.5.093-.542,1.219-5.158,1.428-6.315.539-2.98.641-3.9-.713-5.827-.216-.308-.581-.706-1.7-.345A2.644,2.644,0,0,0,2434.921-105.578Z" fill="none" stroke="#fff" stroke-width="1"/>
            <path id="路径_7372" data-name="路径 7372" d="M2429.3-118.228c.044-.121,2.6-2.063,2.666-1.779a6.28,6.28,0,0,0,1.482,2.492l-.017.269a3.332,3.332,0,0,1-1.06,1.536c-.533.453-1.22.518-1.5.1-.214-.319-.837-1.276-.9-1.425C2429.753-117.539,2429.258-118.108,2429.3-118.228Z" fill="none" stroke="#fff" stroke-width="1"/>
            <g id="组_9322" data-name="组 9322">
              <g id="组_9321" data-name="组 9321">
                <path id="路径_7373" data-name="路径 7373" d="M2429.465-110.1a.466.466,0,0,0,.352-.271c.248-.577,1.567-2.369,1.58-3.406a11.5,11.5,0,0,0-1.443-3.855c-.086-.095-.4.4-.709,1.042a12.01,12.01,0,0,0-.529,1.272,16.7,16.7,0,0,0-.68,3.773q-.018.2-.036.4C2427.945-110.514,2428.9-109.98,2429.465-110.1Z" fill="none" stroke="#fff" stroke-width="1"/>
                <path id="路径_7374" data-name="路径 7374" d="M2429-111.531a2.965,2.965,0,0,1,.469,1.431.466.466,0,0,0,.352-.271c.248-.577,1.567-2.369,1.58-3.406a11.5,11.5,0,0,0-1.443-3.855c-.086-.095-.4.4-.709,1.042a9.479,9.479,0,0,0,.124,4.271c.4.969.133.832-.283.768C2429.025-111.561,2429-111.555,2429-111.531Z" fill="none" stroke="#fff" stroke-width="1" opacity="0.5" style="mix-blend-mode: multiply;isolation: isolate"/>
              </g>
            </g>
            <g id="组_9323" data-name="组 9323">
              <path id="路径_7375" data-name="路径 7375" d="M2429.518-112.79c.443,1.3,1.428,1.52,2.116,3.381.016.043.032.089.048.137a34.889,34.889,0,0,1,.808,3.617,2.711,2.711,0,0,0,2.061.371,6.8,6.8,0,0,0,1.282-.331c1.615-.574,3.086-1.647,3.11-2.071a16.074,16.074,0,0,0-1.4-2.322c-.234-.332-.43-.6-.56-.825-.354-.6-.412-1.846-.213-3.918a3.6,3.6,0,0,0-.141-1.159.864.864,0,0,0-.371-.5c-.917-.483-3.115-1.452-3.115-1.452-.064.847-.471,2.578-1.734,2.355a1.086,1.086,0,0,1-.214-.061c-.447-.182-.846-.727-1.24-2.13l-.277.09C2429.7-115.895,2429.068-114.116,2429.518-112.79Z" fill="none" stroke="#fff" stroke-width="1"/>
              <path id="路径_7376" data-name="路径 7376" d="M2431.682-109.272a34.889,34.889,0,0,1,.808,3.617,2.711,2.711,0,0,0,2.061.371,6.8,6.8,0,0,0,1.282-.331,6.4,6.4,0,0,1,.444-2.745,11.766,11.766,0,0,1,1.267-1.648c-.234-.332-.43-.6-.56-.825-.354-.6-.412-1.846-.213-3.918a3.6,3.6,0,0,0-.141-1.159c-.788-.1-1.96-.175-2.252.117-.548.548-.484,2.625-.524,3.434a4.915,4.915,0,0,1-.889,2.3C2432.721-109.813,2432.146-109.629,2431.682-109.272Z" fill="none" stroke="#fff" stroke-width="1" opacity="0.5" style="mix-blend-mode: multiply;isolation: isolate"/>
            </g>
            <g id="组_9325" data-name="组 9325">
              <path id="路径_7377" data-name="路径 7377" d="M2426.917-120.959a2.875,2.875,0,0,1,2.664-3,2.822,2.822,0,0,1,3.027,2.6,2.312,2.312,0,0,1-.317,1.393.169.169,0,0,1,0,.046c-.017.494-.067,1.464-.084,1.83s-1.108,1.947-2.319,1.923c-.543-.011-1.685-1.043-2.239-2.011a6.977,6.977,0,0,1-.377-1.267A3.368,3.368,0,0,1,2426.917-120.959Z" fill="none" stroke="#fff" stroke-width="1"/>
              <g id="组_9324" data-name="组 9324">
                <path id="路径_7378" data-name="路径 7378" d="M2430.028-123.982a3.218,3.218,0,0,1,3.486,3.27c.054,1.675-1.044,2.305-1.178,1.885s-.159-.98-.2-.942c-.387.355-.712.333-1.318.425a2.774,2.774,0,0,1-2.841-.783c-.282.216-1.015.313-1.284-.035C2426.057-120.719,2426.265-123.978,2430.028-123.982Z" fill="none" stroke="#fff" stroke-width="1"/>
                <path id="路径_7379" data-name="路径 7379" d="M2430.088-123.862a1.269,1.269,0,0,1,1.581-1.077,2.8,2.8,0,0,1,1.954,1.526c.253.544-.379,1.279-.656,1.34s-.8-.579-1.493-1.008S2430.13-123.311,2430.088-123.862Z" fill="none" stroke="#fff" stroke-width="1"/>
              </g>
              <path id="路径_7380" data-name="路径 7380" d="M2431.965-120.019c.07-.689.526-.642.765-.09a1.063,1.063,0,0,1-.568,1.253C2431.92-118.84,2431.916-119.529,2431.965-120.019Z" fill="none" stroke="#fff" stroke-width="1"/>
            </g>
            <path id="路径_7381" data-name="路径 7381" d="M2436.791-115.619c.723,3.9-.489,6.091-.626,6.338-.262.47-2.824.7-2.5-.98a16.411,16.411,0,0,0,.448-4.412C2433.982-116.3,2436.437-117.528,2436.791-115.619Z" fill="none" stroke="#fff" stroke-width="1"/>
          </g>
          <g id="组_9329" data-name="组 9329">
            <g id="组_9327" data-name="组 9327">
              <path id="路径_7382" data-name="路径 7382" d="M2428.341-106.619a4.266,4.266,0,0,0-.253.488c-.039.116-.025.366-.078.5s-.306.08-.33-.077a.983.983,0,0,1,.048-.481,3.346,3.346,0,0,1,.165-.437C2427.978-106.781,2428.439-106.786,2428.341-106.619Z" fill="none" stroke="#fff" stroke-width="1"/>
              <path id="路径_7383" data-name="路径 7383" d="M2428.064-106.683a4.14,4.14,0,0,0-.246.636,1.522,1.522,0,0,0,.035.575c.058.167-.247.322-.311.29a3.935,3.935,0,0,1-.164-.749c-.029-.1.209-.56.23-.667C2427.638-106.748,2428.169-106.911,2428.064-106.683Z" fill="none" stroke="#fff" stroke-width="1"/>
              <path id="路径_7384" data-name="路径 7384" d="M2427.267-106.77a2.522,2.522,0,0,0-.255,1.018c.047.2.122.744.291.706a.279.279,0,0,0,.234-.264c.007-.18-.03-.438-.034-.544a1.525,1.525,0,0,1,.235-.712C2427.88-106.784,2427.365-107.06,2427.267-106.77Z" fill="none" stroke="#fff" stroke-width="1"/>
              <path id="路径_7385" data-name="路径 7385" d="M2426.9-106.818a3.926,3.926,0,0,0-.141.865c-.008.194.131.867.3.857a.256.256,0,0,0,.189-.253c0-.119-.087-.264-.066-.358a2.257,2.257,0,0,1,.284-.889C2427.634-106.78,2426.975-107.1,2426.9-106.818Z" fill="none" stroke="#fff" stroke-width="1"/>
              <path id="路径_7386" data-name="路径 7386" d="M2427.494-108.542c-.057.447-.613,1.123-.675,1.983-.013.177.664.209.784.226s.562.1.674-.152c.356-.809.506-1.093.213-1.88C2428.39-108.636,2427.524-108.775,2427.494-108.542Z" fill="none" stroke="#fff" stroke-width="1"/>
              <path id="路径_7387" data-name="路径 7387" d="M2427.959-108.266a1.351,1.351,0,0,0-1.173.494,7.9,7.9,0,0,0-.277.821c-.154.481.408.352.538-.042.191-.579.358-.44.583-.473C2428.109-107.537,2428.343-108.185,2427.959-108.266Z" fill="none" stroke="#fff" stroke-width="1"/>
            </g>
            <g id="组_9328" data-name="组 9328">
              <path id="路径_7388" data-name="路径 7388" d="M2427.309-108.5a2.1,2.1,0,0,0,1.284.824,6.884,6.884,0,0,0,.628-1.151,16.485,16.485,0,0,0,.743-1.923c.2-.7-.212-.923-.814-1.084-.1-.027-.211-.053-.323-.079a.819.819,0,0,0-.631.066,1.574,1.574,0,0,0-.563,1.124A21.861,21.861,0,0,1,2427.309-108.5Z" fill="none" stroke="#fff" stroke-width="1"/>
              <path id="路径_7389" data-name="路径 7389" d="M2429.478-109.67c-.1.308-.185.588-.257.839a16.485,16.485,0,0,0,.743-1.923c.2-.7-.212-.923-.814-1.084a2.68,2.68,0,0,1,.465,1.336A2.64,2.64,0,0,1,2429.478-109.67Z" fill="none" stroke="#fff" stroke-width="1" opacity="0.5" style="mix-blend-mode: multiply;isolation: isolate"/>
            </g>
          </g>
          <g id="组_9339" data-name="组 9339">
            <g id="组_9330" data-name="组 9330">
              <path id="路径_7390" data-name="路径 7390" d="M2429.912-106.3a1.931,1.931,0,0,1-.54,1.157,2.816,2.816,0,0,1-.85.627c-.168.107-.259.312-.412.312-.433,0-.784-.616-1.232-1.064-.544-.544-.622-.784-.624-1.039,0-.574.856-1.039,1.851-1.037S2429.887-106.87,2429.912-106.3Z" fill="none" stroke="#fff" stroke-width="1"/>
              <path id="路径_7391" data-name="路径 7391" d="M2429.957-106.3a.8.8,0,0,1-.256.518,1.517,1.517,0,0,1-.458.353,2.463,2.463,0,0,1-.546.206c-.177.034-.384-.131-.581-.132a2.889,2.889,0,0,1-.555-.019,2.4,2.4,0,0,1-.539-.143,1.346,1.346,0,0,1-.418-.347c-.145-.15-.349-.258-.35-.442a.821.821,0,0,1,.251-.532,1.575,1.575,0,0,1,.473-.336,2.545,2.545,0,0,1,.554-.163,3.075,3.075,0,0,1,.573-.09c.2,0,.372.183.551.218a2.728,2.728,0,0,1,.559.084,1.758,1.758,0,0,1,.523.267A.846.846,0,0,1,2429.957-106.3Z" fill="none" stroke="#fff" stroke-width="1"/>
              <path id="路径_7392" data-name="路径 7392" d="M2429-106.308a.377.377,0,0,1-.124.25.718.718,0,0,1-.221.171,1.2,1.2,0,0,1-.265.1c-.086.017-.186-.064-.281-.064a1.4,1.4,0,0,1-.269-.009,1.156,1.156,0,0,1-.261-.069.672.672,0,0,1-.2-.168c-.07-.073-.169-.125-.169-.214a.4.4,0,0,1,.121-.258.761.761,0,0,1,.23-.163,1.2,1.2,0,0,1,.268-.079,1.53,1.53,0,0,1,.277-.043c.1,0,.181.088.267.1a1.287,1.287,0,0,1,.271.041.866.866,0,0,1,.253.129A.41.41,0,0,1,2429-106.308Z" fill="none" stroke="#fff" stroke-width="1" opacity="0.3" style="mix-blend-mode: multiply;isolation: isolate"/>
            </g>
            <g id="组_9338" data-name="组 9338">
              <g id="组_9331" data-name="组 9331">
                <path id="路径_7393" data-name="路径 7393" d="M2428.712-112.935c.508-.11.8.581.8.993s.159,1.248.354,1.361a2.194,2.194,0,0,1-1.509-1.029C2427.811-112.552,2428.247-113.687,2428.712-112.935Z" fill="none" stroke="#fff" stroke-width="1"/>
                <path id="路径_7394" data-name="路径 7394" d="M2428.712-112.935c.3.786-.085,2.2,1.151,2.354a2.194,2.194,0,0,1-1.509-1.029C2427.811-112.552,2428.247-113.687,2428.712-112.935Z" fill="none" stroke="#fff" stroke-width="1" opacity="0.3" style="mix-blend-mode: multiply;isolation: isolate"/>
                <path id="路径_7395" data-name="路径 7395" d="M2428.084-112.559c.013-.035.024-.069.038-.1s.029-.068.048-.1c.009-.016.017-.032.028-.048l.032-.046.037-.044.009-.011.011-.009.021-.02a.365.365,0,0,1,.1-.061.126.126,0,0,1,.027-.01l.028-.008a.285.285,0,0,1,.058-.005.269.269,0,0,1,.109.022.317.317,0,0,1,.09.061v.013h-.012a.291.291,0,0,0-.089-.042.23.23,0,0,0-.094,0,.253.253,0,0,0-.154.094l-.014.018-.007.009-.007.011-.024.04-.02.043a.317.317,0,0,0-.016.045.777.777,0,0,0-.027.093c-.007.032-.012.065-.018.1v.006a.079.079,0,0,1-.092.062.079.079,0,0,1-.062-.092Z" fill="none" stroke="#fff" stroke-width="1"/>
                <path id="路径_7396" data-name="路径 7396" d="M2429.775-110.576a1.476,1.476,0,0,1-.319-.137,1.091,1.091,0,0,1-.268-.22,1.1,1.1,0,0,1-.183-.3,1.45,1.45,0,0,1-.092-.336c-.018-.115-.026-.231-.037-.346s-.022-.23-.036-.344a3.246,3.246,0,0,0-.137-.666h0c0-.009,0-.018.006-.021s.015.007.019.016h0a3.237,3.237,0,0,1,.14.667c.013.116.023.231.032.346s.017.231.034.345a1.457,1.457,0,0,0,.087.332,1.062,1.062,0,0,0,.177.294,1.036,1.036,0,0,0,.263.221,1.464,1.464,0,0,0,.316.14v0Z" fill="none" stroke="#fff" stroke-width="1"/>
              </g>
              <g id="组_9333" data-name="组 9333">
                <g id="组_9332" data-name="组 9332">
                  <path id="路径_7397" data-name="路径 7397" d="M2428.16-108.968c.624.49,1.033-.6.956-.923S2427.29-109.195,2428.16-108.968Z" fill="none" stroke="#fff" stroke-width="1"/>
                  <path id="路径_7398" data-name="路径 7398" d="M2428.9-109.117a.464.464,0,0,1-.735.149c-.449-.117-.2-.444.155-.69-.008.217-.02.35.1.356.145.008.193-.482.273-.522s-.024.209-.072.346.032.289.1.144a1.761,1.761,0,0,0,.088-.49c.008-.048.088.016.048.129s-.04.184.048.056.153-.121,0,.1-.144.282-.257.362S2428.767-109.173,2428.9-109.117Z" fill="none" stroke="#fff" stroke-width="1" opacity="0.5" style="mix-blend-mode: multiply;isolation: isolate"/>
                </g>
                <path id="路径_7399" data-name="路径 7399" d="M2429.116-109.891c.065.688.009,1-.4,1.172-.295.123-.552.075-.552-.249A.966.966,0,0,0,2429.116-109.891Z" fill="none" stroke="#fff" stroke-width="1"/>
              </g>
              <g id="组_9335" data-name="组 9335">
                <path id="路径_7400" data-name="路径 7400" d="M2428.03-113.67c-.4-.244.461-.869.763-.966.415-.133-.1.08-.153.5C2428.6-113.843,2428.391-113.45,2428.03-113.67Z" fill="none" stroke="#fff" stroke-width="1"/>
                <g id="组_9334" data-name="组 9334">
                  <path id="路径_7401" data-name="路径 7401" d="M2428.354-106.3h0l-.173-7.521c0-.042-.036-.237-.078-.237s-.077.195-.078.237l-.173,7.519h0a.124.124,0,0,0,.074.1.39.39,0,0,0,.355,0A.123.123,0,0,0,2428.354-106.3Z" fill="none" stroke="#fff" stroke-width="1"/>
                  <path id="路径_7402" data-name="路径 7402" d="M2428.181-113.82c0-.042-.036-.237-.078-.237s.1,7.668.1,7.668h0a.123.123,0,0,1-.073.1.394.394,0,0,1-.27.032.161.161,0,0,0,.061.057.39.39,0,0,0,.355,0,.123.123,0,0,0,.073-.1h0Z" fill="none" stroke="#fff" stroke-width="1" opacity="0.5" style="mix-blend-mode: multiply;isolation: isolate"/>
                </g>
                <path id="路径_7403" data-name="路径 7403" d="M2428.242-113.646c.058-.171-.414-.411-.8-.411-.237,0,.255.288.39.459A.236.236,0,0,0,2428.242-113.646Z" fill="none" stroke="#fff" stroke-width="1"/>
              </g>
              <g id="组_9336" data-name="组 9336">
                <path id="路径_7404" data-name="路径 7404" d="M2428.023-113.119a.536.536,0,0,0-.162-.073.454.454,0,0,0-.18-.007,1.152,1.152,0,0,0-.185.05c-.062.021-.125.044-.189.061a.009.009,0,0,1-.011-.006.01.01,0,0,1,.005-.011c.061-.025.118-.055.178-.085a1.142,1.142,0,0,1,.186-.077.52.52,0,0,1,.212-.02.669.669,0,0,1,.206.06.063.063,0,0,1,.03.082.062.062,0,0,1-.082.03l-.007,0Z" fill="none" stroke="#fff" stroke-width="1"/>
                <path id="路径_7405" data-name="路径 7405" d="M2427.383-113.129c.429.139.674.727.247.985-.5.3-1.135.513-1.272,1.027-.05.186-.134.763-.241.6a2.5,2.5,0,0,1-.228-1.16c0-.848.043-1.21.6-1.546C2427-113.53,2427.35-113.333,2427.383-113.129Z" fill="none" stroke="#fff" stroke-width="1"/>
                <path id="路径_7406" data-name="路径 7406" d="M2427.383-113.129c-1.286.4-1.358,1.667-1.266,2.614a2.5,2.5,0,0,1-.228-1.16c0-.848.043-1.21.6-1.546C2427-113.53,2427.35-113.333,2427.383-113.129Z" fill="none" stroke="#fff" stroke-width="1" opacity="0.5" style="mix-blend-mode: screen;isolation: isolate"/>
                <path id="路径_7407" data-name="路径 7407" d="M2426.133-110.541a3.88,3.88,0,0,1-.041-.786,2.5,2.5,0,0,1,.154-.771c.024-.061.052-.121.082-.18a1.405,1.405,0,0,1,.1-.168,1.377,1.377,0,0,1,.271-.287,2.983,2.983,0,0,1,.324-.226c.056-.035.113-.068.172-.1a1.754,1.754,0,0,1,.18-.084.013.013,0,0,1,.016.008.013.013,0,0,1-.007.017h0a1.563,1.563,0,0,0-.177.081c-.058.03-.115.063-.171.1a3.251,3.251,0,0,0-.324.222,1.355,1.355,0,0,0-.27.281,1.575,1.575,0,0,0-.1.166,1.676,1.676,0,0,0-.083.178,2.472,2.472,0,0,0-.159.767,3.946,3.946,0,0,0,.034.785Z" fill="none" stroke="#fff" stroke-width="1"/>
              </g>
              <g id="组_9337" data-name="组 9337">
                <path id="路径_7408" data-name="路径 7408" d="M2428.3-108.978c0,.236.121.527-.42.544-.793.024-.987-.9-.627-1.034C2427.926-109.083,2427.986-108.932,2428.3-108.978Z" fill="none" stroke="#fff" stroke-width="1"/>
                <path id="路径_7409" data-name="路径 7409" d="M2427.92-109.212c-.364,0-.483-.27-.671-.256.032.105.7.623,1.047.49C2428.021-108.956,2427.905-109.115,2427.92-109.212Z" fill="none" stroke="#fff" stroke-width="1"/>
                <path id="路径_7410" data-name="路径 7410" d="M2427.876-108.434a.761.761,0,0,1-.623-.26c.447.261.993.2.907-.274v0a.59.59,0,0,0,.136-.007C2428.3-108.742,2428.417-108.451,2427.876-108.434Z" fill="none" stroke="#fff" stroke-width="1" opacity="0.5" style="mix-blend-mode: multiply;isolation: isolate"/>
              </g>
            </g>
          </g>
          <g id="组_9341" data-name="组 9341">
            <g id="组_9340" data-name="组 9340">
              <path id="路径_7411" data-name="路径 7411" d="M2429.978-104.991c-.07.068-.359.357-.405.379s-.489.014-.554.055-.071.151.139.161a1.76,1.76,0,0,0,.574-.032c.067-.04.4-.289.508-.372C2430.383-104.907,2430.1-105.107,2429.978-104.991Z" fill="none" stroke="#fff" stroke-width="1"/>
              <path id="路径_7412" data-name="路径 7412" d="M2429.675-105.156c-.1.09-.536.449-.6.477s-.588-.082-.682-.029-.1.176.183.234a1.914,1.914,0,0,0,.714.079c.1-.052.5-.264.658-.373C2430.154-104.909,2429.85-105.31,2429.675-105.156Z" fill="none" stroke="#fff" stroke-width="1"/>
              <path id="路径_7413" data-name="路径 7413" d="M2429.474-105.378a7.131,7.131,0,0,1-.62.452c-.066.025-.524.083-.621.134s-.119.3.176.267a3.733,3.733,0,0,0,.683-.085c.1-.049.48-.221.645-.327C2429.95-105.075,2429.658-105.533,2429.474-105.378Z" fill="none" stroke="#fff" stroke-width="1"/>
              <path id="路径_7414" data-name="路径 7414" d="M2429.315-105.716a6.4,6.4,0,0,1-.581.4c-.06.019-.482.184-.57.224a.157.157,0,0,0,.137.278,3.664,3.664,0,0,0,.646-.115c.091-.039.418-.246.57-.333C2429.714-105.374,2429.487-105.849,2429.315-105.716Z" fill="none" stroke="#fff" stroke-width="1"/>
              <path id="路径_7415" data-name="路径 7415" d="M2431.3-106.04c-.045.616-.772,1.05-1.062,1.24s-1.306-.645-1.149-.758a4.436,4.436,0,0,0,.621-.576,1.814,1.814,0,0,1,1.155-.927C2431.253-107.134,2431.324-106.348,2431.3-106.04Z" fill="none" stroke="#fff" stroke-width="1"/>
              <path id="路径_7416" data-name="路径 7416" d="M2430.71-106.969a2.335,2.335,0,0,0-1.13.227c-.1.091-.517.6-.606.707.088.315.5.052.646-.147.077-.1.632,0,.882-.133S2431.061-106.965,2430.71-106.969Z" fill="none" stroke="#fff" stroke-width="1"/>
            </g>
            <path id="路径_7417" data-name="路径 7417" d="M2436.17-109.291c-.568,1.17-3.116,3-4.365,3.581-.289.135-1.631-1.189-1.389-1.417,1.057-1,1.97-2.535,3.387-3.348C2435.243-111.3,2436.17-109.291,2436.17-109.291Z" fill="none" stroke="#fff" stroke-width="1"/>
          </g>
        </g>
      </g>
    </g>
    <g id="组_9383" data-name="组 9383">
      <ellipse id="椭圆_2" data-name="椭圆 2" cx="3.972" cy="1.755" rx="3.972" ry="1.755" transform="translate(2450.344 -87.479)" fill="none" stroke="#fff" stroke-width="1" opacity="0.5" style="mix-blend-mode: multiply;isolation: isolate"/>
      <g id="组_9345" data-name="组 9345">
        <path id="路径_7418" data-name="路径 7418" d="M2457.058-88.393a5.445,5.445,0,0,0-.774,2.412c0,.054.077.053.083,0a8.283,8.283,0,0,1,.748-2.378A.033.033,0,0,0,2457.058-88.393Z" fill="none" stroke="#fff" stroke-width="1"/>
        <path id="路径_7419" data-name="路径 7419" d="M2456.352-87.775a.028.028,0,0,0-.053,0c-.049.335-.062.676-.082,1.016a.918.918,0,0,0-.369-.458,2.033,2.033,0,0,0-.065-.292.029.029,0,0,0-.056.007,2.754,2.754,0,0,0,.3,1.151c.017.043.088.025.071-.02-.072-.188-.137-.377-.191-.571-.015-.056-.027-.113-.037-.171a2.884,2.884,0,0,1,.221.27,1.031,1.031,0,0,1,.118.259c-.01.138-.022.276-.039.413-.007.051.081.062.088.012l.026-.174c.018,0,.04-.006.037-.028s-.01-.075-.017-.114A4.779,4.779,0,0,0,2456.352-87.775Z" fill="none" stroke="#fff" stroke-width="1"/>
      </g>
      <g id="组_9347" data-name="组 9347">
        <g id="组_9346" data-name="组 9346">
          <path id="路径_7420" data-name="路径 7420" d="M2452.213-86.789c.03-.289.16-.569.17-.856a.036.036,0,0,0-.061-.025,1,1,0,0,0-.171.34.662.662,0,0,0-.012-.078.042.042,0,0,0-.08,0l0,.011a2.791,2.791,0,0,0-.029-.355c0-.03-.049-.026-.056,0a2.925,2.925,0,0,0,.033,1.338c0,.152-.007.3-.006.456a.051.051,0,0,0,.1,0v-.025c.015.064.03.127.044.188s.119.039.1-.029c-.021-.1-.039-.192-.056-.288A4.784,4.784,0,0,1,2452.213-86.789Z" fill="none" stroke="#fff" stroke-width="1"/>
          <path id="路径_7421" data-name="路径 7421" d="M2451.9-86.236a7.47,7.47,0,0,1-.264-.709,4.444,4.444,0,0,0-.2-.671c-.02-.04-.076-.018-.078.021a2,2,0,0,0,.152.684,6.918,6.918,0,0,0,.286.734C2451.831-86.107,2451.931-86.168,2451.9-86.236Z" fill="none" stroke="#fff" stroke-width="1"/>
        </g>
      </g>
      <g id="组_9351" data-name="组 9351">
        <g id="组_9350" data-name="组 9350">
          <path id="路径_7422" data-name="路径 7422" d="M2456.669-96.929a.019.019,0,0,0-.031-.008.244.244,0,0,0-.055.063,2.362,2.362,0,0,0-.062-.413.056.056,0,0,0-.054-.041h-.018a.057.057,0,0,0-.053.041c-.067.31-.167.609-.247.915-.071.275-.081.564-.134.843a.952.952,0,0,1-.484.7,3.343,3.343,0,0,1-.529.247c-.012-.255-.019-.509-.008-.764.024-.584.092-1.163.159-1.743.008-.069.015-.14.022-.21-.014-.123-.022-.248-.031-.374a2.575,2.575,0,0,0-.055-.461c-.007-.028-.083-.218-.042-.145a.159.159,0,0,1-.02-.044l-.021-.017c.039.033-.015,0-.064,0a1.824,1.824,0,0,0-.261.019,2.386,2.386,0,0,0-.611.225,4.939,4.939,0,0,0-.832.469,22.5,22.5,0,0,1-.293,3.434c-.252.138-1.119-.453-1.173-.58a1.16,1.16,0,0,1,.043-.608c.041-.2.1-.395.136-.6.006-.028-.013-.066-.047-.063a.263.263,0,0,0-.262.191v.01l0,0c-.014-.023-.057-.023-.062.008-.03.178-.012.367-.039.549a3.437,3.437,0,0,0-.059.658c.015.346,1.071.986,1.375,1.063a22.333,22.333,0,0,0-.514,4.468c-.012.678.061,2.1.035,2.782a2.209,2.209,0,0,0,.163,1.233,1.273,1.273,0,0,0,.937.541c.819.139,2.089.094,2.517-.757a7.6,7.6,0,0,0-.252-2.545c-.133-.763-.324-2.263-.483-3.02-.231-1.1-.083-2.217-.209-3.319a1.821,1.821,0,0,0,1.285-.98,5.572,5.572,0,0,0,.149-1.026,1.2,1.2,0,0,0,.1-.389c.011-.034.023-.068.035-.1A.43.43,0,0,0,2456.669-96.929Z" fill="none" stroke="#fff" stroke-width="1"/>
          <g id="组_9348" data-name="组 9348">
            <path id="路径_7423" data-name="路径 7423" d="M2462.069-95.508c.113-.189-.015-.428-.082-.638a4.175,4.175,0,0,0,.311-.464,2.224,2.224,0,0,0,.473-.259.369.369,0,0,0-.027-.5.343.343,0,0,0,.05-.6c.023-.127.04-.255.053-.384a.7.7,0,0,0,.02-.451c0-.093,0-.186-.008-.28a.479.479,0,0,0,.089-.62,1.37,1.37,0,0,1-.274-.845,1.213,1.213,0,0,0-.064-.652c-.1-.238-.411-.159-.58-.318-.024-.037-.05-.073-.075-.11l-.007-.014a2.981,2.981,0,0,0-.335-.752c-.166-.229-.522-.108-.685-.356-.108-.162.014-.429-.149-.568a.869.869,0,0,0-.551-.229c-.141.005-.253.019-.4.03-.357.029-.3-.271-.468-.406-.474-.373-1.135.05-1.656.1l-.035,0c-.231.009-.415-.149-.649-.012-.094.054-.183.1-.27.145a4.257,4.257,0,0,0-.617.207c-.044.009-.089.017-.136.024a.97.97,0,0,0-.761.5c-.1.077-.2.161-.293.248a.447.447,0,0,0-.579-.013.569.569,0,0,0-.128.687,2.251,2.251,0,0,0-.477.333.078.078,0,0,0,0,.108c.141.187.214.169.072.278a1.3,1.3,0,0,0-.354.411.319.319,0,0,0,.111.427c-.27.336-.6.8-.11.976-.122.158-.277.374-.235.555.051.221.306.212.241.425-.161.525-.039.85.462.813-.084.486-.026,1,.5.99-.038.364.1.535.51.648.371.1.312.611.629.8a1.136,1.136,0,0,0,.661.127c.031.017.062.035.093.051a.54.54,0,0,0,.528.349,1.657,1.657,0,0,1,.881.348.617.617,0,0,0,.535.09c.244-.06.207-.286.546-.111a1.465,1.465,0,0,0,.589.117.385.385,0,0,0,.458-.4l.067-.021c.473.1,1.1.057,1.095-.312.249.008.456-.06.5-.321C2461.739-95.327,2461.96-95.325,2462.069-95.508Z" fill="none" stroke="#fff" stroke-width="1"/>
            <path id="路径_7424" data-name="路径 7424" d="M2457.571-101a.03.03,0,0,0-.027-.03.314.314,0,0,0-.13.054.445.445,0,0,1-.2.035.229.229,0,0,1-.251-.213.033.033,0,0,0-.008-.039.031.031,0,0,0-.054-.009c-.157.029-.292.054-.411-.088a.229.229,0,0,1-.05-.188.294.294,0,0,1,.1-.149.121.121,0,0,0,.037-.015.022.022,0,0,0,0-.037l-.009,0a.029.029,0,0,0-.023-.012,1.279,1.279,0,0,0-.16-.047.414.414,0,0,1-.176-.111.123.123,0,0,1-.03-.147c.032-.056.1-.066.142-.115a.022.022,0,0,0-.012-.032.179.179,0,0,0-.06,0c-.045-.033-.116-.04-.162-.072a.189.189,0,0,1-.084-.158.2.2,0,0,1,.069-.145.163.163,0,0,1,.09-.038l.045.012a.032.032,0,0,0,.04-.032l.007,0a.022.022,0,0,0,0-.037.126.126,0,0,0-.1-.017.42.42,0,0,1-.248-.163c-.039-.074.058-.141.11-.171a.774.774,0,0,1,.614-.048c.022.008.04-.028.018-.039a.744.744,0,0,0-.725.067.187.187,0,0,0-.085.213.371.371,0,0,0,.208.18l-.022.014a.266.266,0,0,0-.107.188.268.268,0,0,0,.083.218.387.387,0,0,0,.137.088.233.233,0,0,0-.048.239.486.486,0,0,0,.323.235.333.333,0,0,0-.011.368.409.409,0,0,0,.479.155.3.3,0,0,0,.245.245C2457.239-100.831,2457.566-100.843,2457.571-101Z" fill="none" stroke="#fff" stroke-width="1" opacity="0.3" style="mix-blend-mode: multiply;isolation: isolate"/>
            <path id="路径_7425" data-name="路径 7425" d="M2462.031-98.207a.16.16,0,0,0-.069-.194.026.026,0,0,0-.033.018c-.012.046.011.089.01.135a.107.107,0,0,1-.078.092.26.26,0,0,1-.237-.054.2.2,0,0,0,0-.048c0-.035-.058-.041-.073-.011-.045.091-.076.169-.181.2a.206.206,0,0,1-.132,0,.194.194,0,0,1-.09-.082.081.081,0,0,0-.011-.059.028.028,0,0,0-.038-.011c-.044.024-.05.078-.076.119a.258.258,0,0,1-.146.1c-.129.039-.207-.043-.282-.132a.07.07,0,0,0,0-.013c0-.02-.036-.035-.052-.015-.032.039-.037.091-.082.122a.193.193,0,0,1-.166.005.365.365,0,0,1-.223-.275.024.024,0,0,0-.046,0h0c-.058.03-.088.1-.147.131a.127.127,0,0,1-.159-.027.462.462,0,0,1-.074-.411.014.014,0,0,0-.027-.008.44.44,0,0,0,.075.486.238.238,0,0,0,.332-.068.418.418,0,0,0,.264.258.273.273,0,0,0,.293-.087.288.288,0,0,0,.279.129.349.349,0,0,0,.209-.1.328.328,0,0,0,.041-.05.275.275,0,0,0,.25.094.339.339,0,0,0,.24-.176.28.28,0,0,0,.3.066A.21.21,0,0,0,2462.031-98.207Z" fill="none" stroke="#fff" stroke-width="1" opacity="0.3" style="mix-blend-mode: multiply;isolation: isolate"/>
            <path id="路径_7426" data-name="路径 7426" d="M2458.617-97.691a.067.067,0,0,0-.121-.023c-.038.045-.05.1-.1.139a.259.259,0,0,1-.153.059c-.176.008-.174-.155-.181-.285a.037.037,0,0,0-.071-.013l0,.011a.068.068,0,0,0-.035.022.355.355,0,0,1-.261.152c-.123,0-.115-.145-.112-.24.022-.046-.02-.109-.074-.08a.675.675,0,0,1-.32.129c-.149,0-.137-.129-.13-.237.007-.009.014-.017.02-.026.03-.048-.034-.105-.076-.066-.09.083-.2.193-.3.063a.406.406,0,0,1-.035-.328.394.394,0,0,0,.027-.043c.018-.042-.037-.062-.066-.043-.094.064-.2.2-.282.04a.38.38,0,0,1-.034-.159c0-.052.032-.11.017-.159a.043.043,0,0,0-.009-.013.058.058,0,0,0,.014-.052.053.053,0,0,0-.065-.043c-.047.01-.083.058-.132.071a.136.136,0,0,1-.113-.028.311.311,0,0,1-.116-.231.4.4,0,0,1,.023-.089l.027-.021a.046.046,0,0,0-.051-.076h0a.061.061,0,0,0-.048.022c-.092.042-.193.077-.253-.035s0-.231.035-.344a.039.039,0,0,0-.054-.045c-.052,0-.1.03-.157.038a.173.173,0,0,1-.169-.074c-.085-.13.019-.261.1-.361.023-.03-.017-.073-.049-.055l-.01.007a.432.432,0,0,0-.147.006.207.207,0,0,1-.16-.059c-.108-.109.01-.272.091-.353a.037.037,0,0,0-.048-.055l0,0,0,0c-.1-.008-.192.011-.264-.072a.1.1,0,0,1,0-.121.408.408,0,0,1,.074-.04c.066-.032.135-.059.2-.089.016-.007.111-.038.074-.073s-.152.028-.191.044a.693.693,0,0,0-.221.109.182.182,0,0,0,.026.246.332.332,0,0,0,.218.081.307.307,0,0,0-.05.347.263.263,0,0,0,.174.122.377.377,0,0,0,.125.01.343.343,0,0,0-.019.367.267.267,0,0,0,.2.12.345.345,0,0,0,.121-.007.407.407,0,0,0,.029.328.241.241,0,0,0,.275.1.412.412,0,0,0,.039.2.292.292,0,0,0,.391.172.433.433,0,0,0-.016.113.4.4,0,0,0,.065.242.2.2,0,0,0,.272.057.417.417,0,0,0,.093.317.232.232,0,0,0,.309.029.227.227,0,0,0,.135.234.49.49,0,0,0,.4-.055.24.24,0,0,0,.159.257.352.352,0,0,0,.325-.109.29.29,0,0,0,.253.25C2458.379-97.366,2458.649-97.5,2458.617-97.691Z" fill="none" stroke="#fff" stroke-width="1" opacity="0.3" style="mix-blend-mode: multiply;isolation: isolate"/>
            <path id="路径_7427" data-name="路径 7427" d="M2460.889-95.692a.2.2,0,0,0,.232-.012.161.161,0,0,0,.046-.2.206.206,0,0,0,.221-.117.221.221,0,0,0,.008-.183l-.009-.02a.238.238,0,0,0,.232-.076.2.2,0,0,0-.057-.286c-.031-.019-.074.019-.053.051.039.062.1.122.037.193a.24.24,0,0,1-.208.051.089.089,0,0,0-.085-.029.021.021,0,0,0-.016.025c.01.043.057.067.077.106a.166.166,0,0,1,0,.124.158.158,0,0,1-.223.076.019.019,0,0,0-.027.012.036.036,0,0,0-.006.056c.045.052.064.111.007.161a.175.175,0,0,1-.187,0,.025.025,0,0,0-.022,0c-.009-.005-.019,0-.023.01a.572.572,0,0,1-.12.246.214.214,0,0,1-.291,0,.035.035,0,0,0-.05.011.052.052,0,0,0-.024-.01.019.019,0,0,0-.024.013c-.019.062.063.146-.019.188-.062.032-.133-.016-.183-.058a.232.232,0,0,0-.036-.049c-.028-.03-.069.006-.055.041.029.072.1.181-.029.181a.533.533,0,0,1-.276-.131c-.017-.012-.032,0-.036.016h0a.03.03,0,0,0-.043.017c-.016.042.011.081,0,.124s-.054.041-.083.041a.484.484,0,0,1-.229-.076.117.117,0,0,0-.019-.048.035.035,0,0,0-.058,0c-.023.034-.015.124-.06.139s-.1-.017-.14-.037c-.019-.01-.181-.127-.225-.121a.031.031,0,0,0-.021,0c-.041.02-.053.069-.084.1a.1.1,0,0,1-.1.025c-.085-.019-.132-.1-.179-.169-.011-.017-.042-.015-.041.01a.218.218,0,0,0,0,.025c-.017.012-.031.03-.048.045a.177.177,0,0,1-.1.049c-.084.008-.117-.087-.142-.149a.021.021,0,0,0-.019-.013.091.091,0,0,0-.023-.051.041.041,0,0,0-.056,0c-.036.032-.035.085-.072.119a.179.179,0,0,1-.132.028c-.132-.011-.174-.117-.167-.233a.032.032,0,0,0-.044-.03.047.047,0,0,0-.056.015c-.052.07-.128.124-.21.068a.271.271,0,0,1-.092-.18.044.044,0,0,0,0-.043.05.05,0,0,0-.029-.023.046.046,0,0,0-.046.011.169.169,0,0,1-.205.062.238.238,0,0,1-.11-.17.042.042,0,0,0-.063-.054.14.14,0,0,1-.174.024.167.167,0,0,1-.056-.146l.006,0a.041.041,0,0,0-.039-.072.46.46,0,0,1-.28.045c-.137-.028-.148-.144-.127-.261.005-.032-.04-.058-.056-.024v0a.246.246,0,0,0-.084.012.274.274,0,0,1-.127-.014.108.108,0,0,1-.073-.071c-.013-.047.028-.092.036-.137a.018.018,0,0,0-.022-.021v0a.017.017,0,0,0-.011-.016c-.038-.014-.075.014-.112.024a.187.187,0,0,1-.139-.019c-.085-.047-.063-.134-.025-.2l.005,0a.02.02,0,0,0,.008-.02l.015-.024c.016-.023-.017-.046-.037-.03l-.02.021a.714.714,0,0,0-.145-.01.206.206,0,0,1-.121-.037c-.018-.018.015-.054.026-.066.043-.049.114-.077.144-.135a.018.018,0,0,0-.015-.027.33.33,0,0,0-.2.125.124.124,0,0,0-.033.133c.019.049.086.068.132.078a.6.6,0,0,0,.155.019.193.193,0,0,0,.043.22.229.229,0,0,0,.163.057.338.338,0,0,0,.088-.015.182.182,0,0,0,.045.206.272.272,0,0,0,.16.057.311.311,0,0,0,.111-.009c-.035.228.245.342.454.26a.2.2,0,0,0,.085.178.2.2,0,0,0,.214.01.256.256,0,0,0,.14.206.236.236,0,0,0,.255-.027.268.268,0,0,0,.129.2.2.2,0,0,0,.238-.036.277.277,0,0,0,.231.233.3.3,0,0,0,.231-.045.233.233,0,0,0,.058-.065.2.2,0,0,0,.162.158.219.219,0,0,0,.144-.039.379.379,0,0,0,.063-.051.267.267,0,0,0,.183.133.228.228,0,0,0,.223-.131.559.559,0,0,0,.044.043.583.583,0,0,0,.2.119.183.183,0,0,0,.185-.016.182.182,0,0,0,.054-.1.343.343,0,0,0,.28.093.139.139,0,0,0,.118-.091.208.208,0,0,0,.007-.087.4.4,0,0,0,.315.113.118.118,0,0,0,.108-.145.22.22,0,0,0,.183.013.137.137,0,0,0,.082-.116.159.159,0,0,0,0-.07.261.261,0,0,0,.324.025A.308.308,0,0,0,2460.889-95.692Z" fill="none" stroke="#fff" stroke-width="1" opacity="0.3" style="mix-blend-mode: multiply;isolation: isolate"/>
            <path id="路径_7428" data-name="路径 7428" d="M2460.012-101.464a.234.234,0,0,0,0-.191.473.473,0,0,0,.413-.375.268.268,0,0,0-.1-.267.366.366,0,0,0-.135-.054.412.412,0,0,0,.031-.367c-.044-.116-.255-.3-.357-.138-.006.01.19.03.254.188.043.106-.107.339-.122.368a.038.038,0,0,0,.007.047c.056.058.161.016.233.054a.143.143,0,0,1,.054.167c-.044.191-.222.262-.393.3a.035.035,0,0,0-.022.05c0,.006.027.113,0,.16a.153.153,0,0,1-.1.071c-.114.033-.181-.051-.216-.149a.039.039,0,0,0-.075,0,.563.563,0,0,1-.182.114.169.169,0,0,1-.168-.032c-.108-.091-.077-.237-.094-.359a.027.027,0,0,0-.024-.022h0c-.1-.022-.289.092-.388.044a.286.286,0,0,1-.128-.242.377.377,0,0,1,.058-.237c.015-.023.074-.055.083-.088a.035.035,0,0,0,.012-.049c-.071-.1-.377-.2-.218-.371a.319.319,0,0,1,.208-.083.563.563,0,0,1,.235.051c.022.023.1.063.116.013.025-.1-.2-.229-.063-.325.116-.082.28,0,.361.09.012.014.035-.005.025-.02a.338.338,0,0,0-.426-.138.191.191,0,0,0-.1.171.265.265,0,0,0,.018.094.467.467,0,0,0-.464.1.225.225,0,0,0-.037.239.459.459,0,0,0,.209.214.306.306,0,0,0-.063.065.487.487,0,0,0-.061.33.393.393,0,0,0,.175.288.459.459,0,0,0,.364-.012.414.414,0,0,0,.128.349.282.282,0,0,0,.233.066.327.327,0,0,0,.2-.1.279.279,0,0,0,.318.136A.278.278,0,0,0,2460.012-101.464Z" fill="none" stroke="#fff" stroke-width="1" opacity="0.3" style="mix-blend-mode: multiply;isolation: isolate"/>
            <path id="路径_7429" data-name="路径 7429" d="M2461.333-100.713c.012-.048.028-.133-.023-.161a.029.029,0,0,0-.033,0c-.026.021-.023.044-.024.075a.292.292,0,0,1-.031.126c-.018.032-.074.09-.111.069a.088.088,0,0,1-.035-.045.19.19,0,0,0,.005-.034.023.023,0,0,0-.033-.021c-.02-.019-.06,0-.05.027l.006.023a.413.413,0,0,1-.064.084.191.191,0,0,1-.142.043c-.133-.008-.193-.157-.2-.269a.02.02,0,0,0-.039,0,.3.3,0,0,0,.217.334.277.277,0,0,0,.261-.1.1.1,0,0,0,.021.024c.062.049.114.032.175-.015A.285.285,0,0,0,2461.333-100.713Z" fill="none" stroke="#fff" stroke-width="1" opacity="0.3" style="mix-blend-mode: multiply;isolation: isolate"/>
            <path id="路径_7430" data-name="路径 7430" d="M2454.375-98.562c-.078,0-.157.032-.23-.011s-.009-.148.016-.2c.009-.02-.011-.052-.034-.036a.323.323,0,0,0-.042.04c-.057,0-.15.047-.154-.038a.292.292,0,0,1,.114-.216c.018-.016,0-.049-.026-.035a.307.307,0,0,0-.154.276.112.112,0,0,0,.078.091.175.175,0,0,0,.1,0,.164.164,0,0,0,.029.161.231.231,0,0,0,.318,0A.019.019,0,0,0,2454.375-98.562Z" fill="none" stroke="#fff" stroke-width="1" opacity="0.3" style="mix-blend-mode: multiply;isolation: isolate"/>
          </g>
          <g id="组_9349" data-name="组 9349">
            <path id="路径_7431" data-name="路径 7431" d="M2464.561-105.073c-.119-.432-.65-.579-1.051-.777a8.322,8.322,0,0,0-.245-1.105,4.514,4.514,0,0,0,.284-1.059c-.025-.453-.393-.617-.778-.668a.7.7,0,0,0-.806-.913c-.154-.212-.318-.417-.49-.616a1.435,1.435,0,0,0-.633-.663c-.137-.131-.277-.258-.422-.381a.974.974,0,0,0-.785-1,2.78,2.78,0,0,1-1.625-.786,2.463,2.463,0,0,0-1.047-.819c-.495-.182-.81.378-1.281.4-.088-.016-.177-.031-.266-.044l-.029-.01a6.187,6.187,0,0,0-1.576-.565c-.568-.077-.89.615-1.484.507-.389-.07-.609-.624-1.042-.58a1.764,1.764,0,0,0-1.11.487c-.19.213-.327.4-.514.627-.46.564-.815.055-1.252.117-1.214.171-1.522,1.734-2.179,2.569-.016.017-.031.036-.047.054-.312.352-.8.4-.93.935-.052.215-.106.412-.166.6a8.66,8.66,0,0,0-.562,1.2c-.049.077-.1.154-.156.234a1.967,1.967,0,0,0-.339,1.813c-.028.256-.042.516-.047.778a.908.908,0,0,0-.832.832c-.095.546.364.939.827,1.153a4.535,4.535,0,0,0-.179,1.167.158.158,0,0,0,.154.155c.473.057.548-.077.51.284a2.657,2.657,0,0,0,.106,1.1.65.65,0,0,0,.783.438c.113.867.324,2,1.278,1.531.06.4.159.931.483,1.123.4.236.742-.151.962.243.545.973,1.194,1.252,1.842.465.595.805,1.428,1.438,2.158.652.48.568.924.607,1.666.161.67-.4,1.336.4,2.058.2a2.3,2.3,0,0,0,1.113-.792c.069-.022.138-.042.207-.065a1.1,1.1,0,0,0,1.253-.285,3.359,3.359,0,0,1,1.747-.8,1.26,1.26,0,0,0,.883-.66c.255-.442-.13-.7.6-.957a2.989,2.989,0,0,0,1-.7.783.783,0,0,0,.059-1.23c.022-.042.042-.086.063-.129.806-.557,1.624-1.529,1.08-2.045.361-.354.551-.752.229-1.182C2464.363-104.335,2464.676-104.657,2464.561-105.073Z" fill="none" stroke="#fff" stroke-width="1"/>
            <path id="路径_7432" data-name="路径 7432" d="M2450.183-106.187a.058.058,0,0,0-.081,0,.613.613,0,0,0-.1.267.887.887,0,0,1-.226.337.464.464,0,0,1-.664.069.069.069,0,0,0-.069-.043.062.062,0,0,0-.088.067c-.179.272-.332.5-.707.481a.476.476,0,0,1-.348-.192.6.6,0,0,1-.078-.354.318.318,0,0,0,.031-.076.044.044,0,0,0-.052-.054l-.02.007a.053.053,0,0,0-.05.016,2.719,2.719,0,0,0-.293.169.854.854,0,0,1-.41.1.25.25,0,0,1-.258-.162c-.037-.126.047-.245.03-.37a.044.044,0,0,0-.063-.028.375.375,0,0,0-.093.081c-.11.02-.222.114-.333.138a.394.394,0,0,1-.35-.1.408.408,0,0,1-.115-.306.319.319,0,0,1,.071-.185l.08-.05a.064.064,0,0,0,.009-.1l.006-.014a.044.044,0,0,0-.052-.054.254.254,0,0,0-.162.118.848.848,0,0,1-.588.137c-.162-.047-.124-.283-.095-.4a1.568,1.568,0,0,1,.79-.968c.043-.022.015-.1-.031-.081a1.507,1.507,0,0,0-.92,1.158.378.378,0,0,0,.193.422.745.745,0,0,0,.557-.052c0,.018-.008.036-.011.052a.54.54,0,0,0,.125.422.552.552,0,0,0,.437.185.8.8,0,0,0,.321-.08.481.481,0,0,0,.284.408,1,1,0,0,0,.8-.145.677.677,0,0,0,.524.533.836.836,0,0,0,.9-.486.611.611,0,0,0,.7-.015C2449.969-105.458,2450.41-105.955,2450.183-106.187Z" fill="none" stroke="#fff" stroke-width="1" opacity="0.3" style="mix-blend-mode: multiply;isolation: isolate"/>
            <path id="路径_7433" data-name="路径 7433" d="M2460.546-108.807a.325.325,0,0,0-.38-.171.054.054,0,0,0-.02.075c.051.081.145.108.212.174a.221.221,0,0,1,.026.244.531.531,0,0,1-.413.272.374.374,0,0,0-.068-.069c-.057-.044-.142.028-.119.091a.654.654,0,0,1,.046.554.426.426,0,0,1-.186.194.394.394,0,0,1-.245.017.168.168,0,0,0-.1-.068.059.059,0,0,0-.07.04c-.026.1.044.183.067.28a.527.527,0,0,1-.06.352c-.124.244-.355.243-.59.229-.008,0-.012-.012-.021-.017-.038-.02-.1,0-.1.056.013.1.083.182.064.291a.4.4,0,0,1-.226.251.741.741,0,0,1-.717-.059.048.048,0,0,0-.066.066h0c-.037.129.018.265-.014.4a.258.258,0,0,1-.262.195.939.939,0,0,1-.709-.468.027.027,0,0,0-.047.028.891.891,0,0,0,.817.573.483.483,0,0,0,.367-.582.855.855,0,0,0,.75-.025.555.555,0,0,0,.281-.553.585.585,0,0,0,.582-.23.709.709,0,0,0,.142-.451.738.738,0,0,0-.016-.13.556.556,0,0,0,.488-.236.689.689,0,0,0,.08-.6.57.57,0,0,0,.524-.356A.419.419,0,0,0,2460.546-108.807Z" fill="none" stroke="#fff" stroke-width="1" opacity="0.3" style="mix-blend-mode: multiply;isolation: isolate"/>
            <path id="路径_7434" data-name="路径 7434" d="M2456.51-103.072c-.108-.073-.214.036-.2.145a1.862,1.862,0,0,1,.068.337.524.524,0,0,1-.129.308c-.234.269-.472.038-.671-.135a.075.075,0,0,0-.12.085.157.157,0,0,0,.012.022.133.133,0,0,0-.017.082.728.728,0,0,1-.142.6c-.172.182-.375-.034-.511-.173a.115.115,0,0,0-.22,0,1.372,1.372,0,0,1-.261.651c-.206.22-.381.018-.53-.144,0-.021-.005-.044-.01-.065a.1.1,0,0,0-.2.02c0,.249.006.56-.33.529a.816.816,0,0,1-.529-.409.583.583,0,0,0-.028-.1c-.034-.085-.142-.033-.153.036-.039.229,0,.572-.338.471a.741.741,0,0,1-.281-.174c-.077-.071-.116-.2-.21-.247a.07.07,0,0,0-.032-.006.118.118,0,0,0-.055-.093.108.108,0,0,0-.155.034c-.053.084-.031.2-.081.294a.277.277,0,0,1-.2.126.629.629,0,0,1-.5-.153.754.754,0,0,1-.1-.16c0-.023.006-.046.006-.069a.094.094,0,0,0-.183-.031h0a.12.12,0,0,0-.035.1c-.068.193-.158.391-.406.32s-.336-.328-.455-.532a.079.079,0,0,0-.143.015c-.08.069-.1.2-.165.285a.351.351,0,0,1-.345.144c-.31-.058-.357-.4-.394-.649a.078.078,0,0,0-.15-.006c0,.008,0,.016,0,.024-.089.05-.126.145-.2.225a.428.428,0,0,1-.311.152c-.313,0-.385-.4-.391-.631a.074.074,0,0,0-.148,0v.006l-.009,0c-.147.131-.254.3-.476.287-.073,0-.186-.088-.18-.169a.787.787,0,0,1,.046-.164c.046-.143.1-.282.155-.422.012-.035.1-.217,0-.213s-.172.264-.2.343a1.42,1.42,0,0,0-.149.477c0,.194.23.315.4.308a.68.68,0,0,0,.426-.207.626.626,0,0,0,.439.562.547.547,0,0,0,.423-.084.885.885,0,0,0,.19-.169.7.7,0,0,0,.511.542.544.544,0,0,0,.46-.127.8.8,0,0,0,.16-.188.826.826,0,0,0,.52.418.488.488,0,0,0,.529-.268.845.845,0,0,0,.354.23.592.592,0,0,0,.8-.332.922.922,0,0,0,.143.183.8.8,0,0,0,.447.242.408.408,0,0,0,.465-.319.846.846,0,0,0,.595.311.474.474,0,0,0,.477-.413.46.46,0,0,0,.532.129,1,1,0,0,0,.475-.655.492.492,0,0,0,.6.126.711.711,0,0,0,.295-.63.59.59,0,0,0,.723-.02C2456.654-102.266,2456.831-102.856,2456.51-103.072Z" fill="none" stroke="#fff" stroke-width="1" opacity="0.3" style="mix-blend-mode: multiply;isolation: isolate"/>
            <path id="路径_7435" data-name="路径 7435" d="M2462.634-103.6a.392.392,0,0,0,.308-.357.33.33,0,0,0-.229-.351.416.416,0,0,0,.138-.487.45.45,0,0,0-.259-.269.349.349,0,0,0-.042-.014.479.479,0,0,0,.215-.449.406.406,0,0,0-.5-.317.078.078,0,0,0,0,.15c.146.03.316.027.335.216a.488.488,0,0,1-.217.378.178.178,0,0,0-.162.083.043.043,0,0,0,.015.059c.077.045.177.01.263.035a.331.331,0,0,1,.184.172.318.318,0,0,1-.2.433.038.038,0,0,0-.02.056.074.074,0,0,0,.074.089c.14.006.252.061.246.216s-.141.229-.259.276a.049.049,0,0,0-.028.037.036.036,0,0,0-.017.047,1.175,1.175,0,0,1,.193.522.436.436,0,0,1-.413.423.069.069,0,0,0-.054.089.14.14,0,0,0-.049.02.04.04,0,0,0-.014.055c.065.114.3.112.248.291-.04.136-.209.173-.342.187a.53.53,0,0,0-.121-.016.071.071,0,0,0-.019.139c.148.059.406.108.226.295a1.069,1.069,0,0,1-.58.222.047.047,0,0,0-.027.076h0a.059.059,0,0,0-.035.086c.039.083.134.1.184.173s-.015.134-.057.178a1,1,0,0,1-.433.23.228.228,0,0,0-.095-.04.068.068,0,0,0-.083.083c.017.082.16.2.119.285s-.169.125-.251.152c-.041.014-.44.088-.493.16a.073.073,0,0,0-.027.034c-.03.089.027.175.029.265a.207.207,0,0,1-.1.179.719.719,0,0,1-.5.025c-.04-.006-.08.041-.044.075.013.011.028.021.042.031a.948.948,0,0,0,0,.132.372.372,0,0,1-.073.223c-.106.134-.292.049-.418,0a.044.044,0,0,0-.046.01.179.179,0,0,0-.106-.038.083.083,0,0,0-.082.082c0,.1.077.17.074.271a.366.366,0,0,1-.144.235c-.2.179-.415.09-.576-.083a.063.063,0,0,0-.1.023.093.093,0,0,0-.057.1c.03.175,0,.361-.2.4a.56.56,0,0,1-.393-.118.09.09,0,0,0-.063-.06.094.094,0,0,0-.075.01.093.093,0,0,0-.048.083c.008.167-.025.323-.2.387a.482.482,0,0,1-.4-.077.084.084,0,0,0-.166.016.283.283,0,0,1-.21.289.334.334,0,0,1-.292-.122l0-.013a.083.083,0,0,0-.16-.044.931.931,0,0,1-.327.474c-.234.162-.42.015-.562-.18-.038-.052-.141-.023-.114.048l0,.007a.508.508,0,0,0-.1.138.559.559,0,0,1-.2.168.222.222,0,0,1-.205.008c-.089-.047-.1-.171-.152-.246a.036.036,0,0,0-.061,0l0-.007a.033.033,0,0,0-.04-.005c-.075.035-.085.129-.122.2a.379.379,0,0,1-.222.178c-.189.058-.286-.1-.336-.249l0-.014a.044.044,0,0,0-.019-.039c0-.019-.01-.038-.014-.056-.012-.056-.092-.04-.095.012,0,.02,0,.039,0,.058a1.487,1.487,0,0,0-.217.2.428.428,0,0,1-.225.125c-.052,0-.058-.1-.061-.131-.012-.131.048-.274,0-.4a.036.036,0,0,0-.061-.016.668.668,0,0,0-.091.46.254.254,0,0,0,.149.236c.1.04.222-.031.3-.084a1.235,1.235,0,0,0,.246-.2.4.4,0,0,0,.383.246.462.462,0,0,0,.312-.16.618.618,0,0,0,.1-.15.369.369,0,0,0,.366.224.565.565,0,0,0,.308-.155.64.64,0,0,0,.142-.175c.286.371.847.119,1.02-.3a.411.411,0,0,0,.38.127.411.411,0,0,0,.315-.3.52.52,0,0,0,.5.084.48.48,0,0,0,.317-.413.552.552,0,0,0,.481.1.41.41,0,0,0,.282-.4.562.562,0,0,0,.666-.013.6.6,0,0,0,.258-.4.455.455,0,0,0-.014-.177.4.4,0,0,0,.459-.015.433.433,0,0,0,.145-.267.785.785,0,0,0,.014-.163.55.55,0,0,0,.452-.083.461.461,0,0,0,.121-.511,1.2,1.2,0,0,0,.125,0,1.232,1.232,0,0,0,.452-.122.375.375,0,0,0,.235-.293.369.369,0,0,0-.063-.216.694.694,0,0,0,.528-.281.283.283,0,0,0,.033-.3.454.454,0,0,0-.119-.133.807.807,0,0,0,.609-.3.239.239,0,0,0-.063-.362.449.449,0,0,0,.277-.249.283.283,0,0,0-.054-.284.345.345,0,0,0-.112-.092.528.528,0,0,0,.492-.44A.624.624,0,0,0,2462.634-103.6Z" fill="none" stroke="#fff" stroke-width="1" opacity="0.3" style="mix-blend-mode: multiply;isolation: isolate"/>
            <path id="路径_7436" data-name="路径 7436" d="M2452.934-110.416a.48.48,0,0,0-.28-.269.963.963,0,0,0,.03-1.133.541.541,0,0,0-.529-.231.746.746,0,0,0-.268.122.838.838,0,0,0-.5-.56c-.233-.1-.8-.054-.7.329.006.022.311-.237.633-.108.214.085.347.632.368.7a.081.081,0,0,0,.078.056c.164,0,.251-.214.408-.268a.288.288,0,0,1,.319.156.891.891,0,0,1-.114.993.071.071,0,0,0,.042.1c.006.011.2.118.24.219a.3.3,0,0,1-.032.24c-.112.215-.328.195-.521.109a.079.079,0,0,0-.1.111,1.187,1.187,0,0,1-.089.426.341.341,0,0,1-.282.2c-.287.031-.456-.22-.661-.366a.056.056,0,0,0-.066,0h0c-.175.117-.271.551-.481.63a.579.579,0,0,1-.534-.153.766.766,0,0,1-.267-.417c-.013-.054.024-.185-.013-.245a.071.071,0,0,0-.054-.087c-.253-.041-.823.273-.852-.2a.641.641,0,0,1,.173-.421,1.152,1.152,0,0,1,.4-.274c.066,0,.238-.061.183-.15-.107-.175-.616-.029-.566-.366.043-.284.392-.412.639-.4a.033.033,0,0,0,.007-.065.688.688,0,0,0-.8.431.391.391,0,0,0,.113.385.567.567,0,0,0,.163.106.948.948,0,0,0-.505.821.457.457,0,0,0,.3.389.932.932,0,0,0,.608-.006.734.734,0,0,0,.005.183.987.987,0,0,0,.4.554.793.793,0,0,0,.667.146.925.925,0,0,0,.493-.55.845.845,0,0,0,.692.3.578.578,0,0,0,.424-.25.66.66,0,0,0,.129-.432.569.569,0,0,0,.647-.277A.56.56,0,0,0,2452.934-110.416Z" fill="none" stroke="#fff" stroke-width="1" opacity="0.3" style="mix-blend-mode: multiply;isolation: isolate"/>
            <path id="路径_7437" data-name="路径 7437" d="M2455.889-111.3c-.053-.086-.156-.227-.269-.192a.056.056,0,0,0-.041.053c-.007.067.032.094.076.14a.546.546,0,0,1,.141.222c.022.071.029.235-.054.261a.183.183,0,0,1-.116-.013.306.306,0,0,0-.042-.054.047.047,0,0,0-.077.018c-.056,0-.088.083-.03.112l.042.024a.776.776,0,0,1,.033.21.388.388,0,0,1-.137.269c-.2.184-.5.063-.679-.079a.04.04,0,0,0-.057.056.617.617,0,0,0,.8.151.567.567,0,0,0,.216-.529.166.166,0,0,0,.063,0c.16-.023.208-.122.224-.277A.571.571,0,0,0,2455.889-111.3Z" fill="none" stroke="#fff" stroke-width="1" opacity="0.3" style="mix-blend-mode: multiply;isolation: isolate"/>
            <path id="路径_7438" data-name="路径 7438" d="M2449.278-98.07c-.115.109-.174.275-.339.323s-.23-.2-.275-.31c-.017-.041-.092-.057-.1,0a.521.521,0,0,0,0,.117c-.084.081-.142.286-.273.173a.6.6,0,0,1-.156-.469c0-.051-.08-.062-.088-.012a.62.62,0,0,0,.188.613.231.231,0,0,0,.245.013.359.359,0,0,0,.139-.138.337.337,0,0,0,.278.184.473.473,0,0,0,.447-.467A.039.039,0,0,0,2449.278-98.07Z" fill="none" stroke="#fff" stroke-width="1" opacity="0.3" style="mix-blend-mode: multiply;isolation: isolate"/>
          </g>
        </g>
      </g>
      <g id="组_9353" data-name="组 9353">
        <g id="组_9352" data-name="组 9352">
          <path id="路径_7439" data-name="路径 7439" d="M2457.534-87.873a5.448,5.448,0,0,0-.774,2.413c-.005.053.077.052.083,0a8.234,8.234,0,0,1,.748-2.379A.033.033,0,0,0,2457.534-87.873Z" fill="none" stroke="#fff" stroke-width="1"/>
          <path id="路径_7440" data-name="路径 7440" d="M2456.828-87.255a.028.028,0,0,0-.053,0c-.049.336-.062.676-.083,1.017a.908.908,0,0,0-.368-.459,2.067,2.067,0,0,0-.065-.292.029.029,0,0,0-.056.008,2.75,2.75,0,0,0,.3,1.15c.017.043.088.025.071-.019-.072-.188-.137-.378-.191-.572-.015-.056-.027-.113-.037-.17a2.748,2.748,0,0,1,.221.269,1.038,1.038,0,0,1,.118.259c-.01.138-.022.276-.039.414-.007.05.081.062.088.012l.026-.175c.018,0,.04-.006.037-.027,0-.038-.01-.076-.017-.115A4.818,4.818,0,0,0,2456.828-87.255Z" fill="none" stroke="#fff" stroke-width="1"/>
        </g>
      </g>
      <g id="组_9355" data-name="组 9355">
        <g id="组_9354" data-name="组 9354">
          <path id="路径_7441" data-name="路径 7441" d="M2454.233-86.764a5.43,5.43,0,0,0-.773,2.412c-.006.053.077.053.083,0a8.272,8.272,0,0,1,.747-2.379A.033.033,0,0,0,2454.233-86.764Z" fill="none" stroke="#fff" stroke-width="1"/>
          <path id="路径_7442" data-name="路径 7442" d="M2453.528-86.146a.028.028,0,0,0-.053,0c-.049.335-.063.676-.083,1.016a.916.916,0,0,0-.368-.458,2.005,2.005,0,0,0-.066-.292.029.029,0,0,0-.056.007,2.756,2.756,0,0,0,.3,1.151c.017.043.088.025.07-.02-.072-.188-.136-.377-.19-.571-.016-.057-.027-.114-.038-.171a2.625,2.625,0,0,1,.221.27,1.044,1.044,0,0,1,.119.258c-.01.139-.022.277-.04.414-.006.05.081.062.089.012l.025-.174c.019,0,.04-.007.038-.028,0-.037-.01-.076-.018-.114A4.822,4.822,0,0,0,2453.528-86.146Z" fill="none" stroke="#fff" stroke-width="1"/>
        </g>
      </g>
      <g id="组_9357" data-name="组 9357">
        <g id="组_9356" data-name="组 9356">
          <path id="路径_7443" data-name="路径 7443" d="M2453.347-87.159a5.447,5.447,0,0,0-.773,2.413c0,.053.077.052.083,0a8.234,8.234,0,0,1,.748-2.379A.034.034,0,0,0,2453.347-87.159Z" fill="none" stroke="#fff" stroke-width="1"/>
          <path id="路径_7444" data-name="路径 7444" d="M2452.642-86.541a.028.028,0,0,0-.053,0c-.049.336-.063.676-.083,1.016a.911.911,0,0,0-.368-.458,2.036,2.036,0,0,0-.066-.292.028.028,0,0,0-.055.008,2.736,2.736,0,0,0,.3,1.15c.017.043.088.025.071-.019-.073-.188-.137-.378-.191-.572a1.6,1.6,0,0,1-.037-.171,2.874,2.874,0,0,1,.22.27,1,1,0,0,1,.119.259c-.01.138-.022.276-.04.413-.006.051.081.062.089.012l.025-.174c.019,0,.041-.006.038-.028,0-.037-.01-.075-.017-.114A4.868,4.868,0,0,0,2452.642-86.541Z" fill="none" stroke="#fff" stroke-width="1"/>
        </g>
      </g>
      <g id="组_9359" data-name="组 9359">
        <g id="组_9358" data-name="组 9358">
          <path id="路径_7445" data-name="路径 7445" d="M2456.671-85.62a.184.184,0,0,0-.131.086.03.03,0,0,0-.03-.011.1.1,0,0,0-.033.021h0a.44.44,0,0,0-.012-.194.023.023,0,0,0-.028-.009c0-.02-.005-.04-.01-.06a.023.023,0,0,0-.045,0,8.3,8.3,0,0,0-.042.881c0,.034.048.033.053,0,.007-.052.014-.106.022-.161a.037.037,0,0,0,.039,0h0a.033.033,0,0,0,.016-.011l0,0a.042.042,0,0,0,.009-.019.675.675,0,0,1,.076-.292c.038-.071.117-.119.139-.195A.029.029,0,0,0,2456.671-85.62Z" fill="none" stroke="#fff" stroke-width="1"/>
          <path id="路径_7446" data-name="路径 7446" d="M2456.851-85.626a.265.265,0,0,0-.116.1.03.03,0,0,0-.047-.011.4.4,0,0,0-.112.264c-.021.041-.041.083-.058.126s.021.054.048.05c0,.027,0,.053,0,.075a.028.028,0,0,0,.055,0,1.207,1.207,0,0,1,.035-.227c.026-.046.054-.09.084-.133.046-.065.13-.125.154-.2A.036.036,0,0,0,2456.851-85.626Z" fill="none" stroke="#fff" stroke-width="1"/>
          <path id="路径_7447" data-name="路径 7447" d="M2456.937-85.5c-.067,0-.122.074-.158.124a.51.51,0,0,0-.093.24.024.024,0,0,0,.046.012.868.868,0,0,1,.109-.2c.037-.047.1-.082.122-.137A.027.027,0,0,0,2456.937-85.5Z" fill="none" stroke="#fff" stroke-width="1"/>
          <path id="路径_7448" data-name="路径 7448" d="M2457.136-85.509a.05.05,0,0,0-.017,0v-.008a.031.031,0,0,0-.039-.03c-.082.026-.127.129-.174.2-.069.1-.133.2-.194.308a.04.04,0,0,0,.068.04c.024-.039.051-.075.077-.113a.047.047,0,0,0,.084-.009.906.906,0,0,1,.09-.183.51.51,0,0,1,.079-.1c.024-.024.043-.033.048-.068A.032.032,0,0,0,2457.136-85.509Z" fill="none" stroke="#fff" stroke-width="1"/>
          <path id="路径_7449" data-name="路径 7449" d="M2456.284-85.167c-.02-.02-.044-.042-.069-.064a.153.153,0,0,0-.062-.12.029.029,0,0,0-.04.011.055.055,0,0,0-.006.025.38.38,0,0,0-.363-.072.028.028,0,0,0,0,.047.38.38,0,0,0,.064.025.045.045,0,0,0,.006.063.827.827,0,0,1,.206.185.234.234,0,0,1-.255.087c-.1-.018-.184-.088-.282-.074a.034.034,0,0,0-.021.05.5.5,0,0,0,.372.123.3.3,0,0,0,.261-.159.033.033,0,0,0-.016-.05.6.6,0,0,0-.176-.2c.022,0,.043.011.065.018a.608.608,0,0,1,.17.1h0a.992.992,0,0,1,.043.229.032.032,0,0,0,.064,0,.955.955,0,0,0-.01-.149A.045.045,0,0,0,2456.284-85.167Z" fill="none" stroke="#fff" stroke-width="1"/>
        </g>
      </g>
      <g id="组_9361" data-name="组 9361">
        <g id="组_9360" data-name="组 9360">
          <path id="路径_7450" data-name="路径 7450" d="M2454.385-85.018a.188.188,0,0,0-.131.086.029.029,0,0,0-.03-.011.1.1,0,0,0-.033.021h0a.427.427,0,0,0-.012-.193.022.022,0,0,0-.028-.01c0-.02-.006-.04-.01-.06a.024.024,0,0,0-.045,0,8.314,8.314,0,0,0-.042.881c0,.034.048.033.052,0,.007-.052.015-.106.022-.161a.041.041,0,0,0,.04.006h0a.032.032,0,0,0,.017-.011l0,0a.038.038,0,0,0,.009-.019.675.675,0,0,1,.076-.292c.038-.071.117-.118.139-.195A.029.029,0,0,0,2454.385-85.018Z" fill="none" stroke="#fff" stroke-width="1"/>
          <path id="路径_7451" data-name="路径 7451" d="M2454.565-85.023a.257.257,0,0,0-.116.1.03.03,0,0,0-.047-.011.391.391,0,0,0-.112.264c-.021.042-.041.083-.058.126s.021.054.048.05c0,.027,0,.053,0,.075a.027.027,0,0,0,.055,0,1.24,1.24,0,0,1,.035-.227,1.39,1.39,0,0,1,.084-.133c.046-.065.13-.125.154-.2A.035.035,0,0,0,2454.565-85.023Z" fill="none" stroke="#fff" stroke-width="1"/>
          <path id="路径_7452" data-name="路径 7452" d="M2454.651-84.9c-.067,0-.122.073-.159.123a.522.522,0,0,0-.092.24.024.024,0,0,0,.046.012.841.841,0,0,1,.109-.2c.037-.047.1-.081.122-.137A.026.026,0,0,0,2454.651-84.9Z" fill="none" stroke="#fff" stroke-width="1"/>
          <path id="路径_7453" data-name="路径 7453" d="M2454.85-84.907a.087.087,0,0,0-.017,0v-.008a.031.031,0,0,0-.039-.03c-.082.027-.127.129-.174.2-.069.1-.133.2-.194.307a.039.039,0,0,0,.067.04c.025-.039.052-.075.078-.113a.047.047,0,0,0,.084-.009.906.906,0,0,1,.09-.183.509.509,0,0,1,.079-.1c.024-.024.042-.033.048-.067A.033.033,0,0,0,2454.85-84.907Z" fill="none" stroke="#fff" stroke-width="1"/>
          <path id="路径_7454" data-name="路径 7454" d="M2454-84.565c-.02-.02-.044-.042-.069-.064a.153.153,0,0,0-.062-.12.03.03,0,0,0-.04.011.08.08,0,0,0-.007.025.381.381,0,0,0-.362-.072.028.028,0,0,0,0,.047.315.315,0,0,0,.064.025.044.044,0,0,0,.006.063.845.845,0,0,1,.206.185.233.233,0,0,1-.255.087c-.1-.018-.184-.088-.282-.074a.034.034,0,0,0-.021.05.491.491,0,0,0,.372.123.3.3,0,0,0,.261-.159.033.033,0,0,0-.017-.05.575.575,0,0,0-.175-.2.518.518,0,0,1,.065.017.609.609,0,0,1,.17.1h0a.953.953,0,0,1,.044.229.032.032,0,0,0,.064,0,.906.906,0,0,0-.01-.148A.045.045,0,0,0,2454-84.565Z" fill="none" stroke="#fff" stroke-width="1"/>
        </g>
      </g>
      <path id="路径_7455" data-name="路径 7455" d="M2456.016-85.53c-.2,0-.362.215-.475.364a.983.983,0,0,0-.12.215,1.055,1.055,0,0,0-.2.17c0-.119,0-.238.011-.356a2.761,2.761,0,0,0,.021-.642.051.051,0,0,0-.093-.012,2.315,2.315,0,0,0-.118,1.127,3.525,3.525,0,0,1-.3-.283c-.1-.1-.187-.263-.331-.289a.066.066,0,0,0-.08.079c.026.144.19.236.3.325a3.237,3.237,0,0,0,.405.295c.006,0,.011,0,.017,0v.026a.08.08,0,0,0,.15.036.115.115,0,0,0,.108-.051c.006-.009.015-.015.021-.024,0,.013,0,.026,0,.039a.1.1,0,0,0,.207,0,.986.986,0,0,1,.047-.273l.017-.013c.111-.069.259-.082.332-.2a.065.065,0,0,0-.023-.088.234.234,0,0,0-.149-.02,1.83,1.83,0,0,0,.316-.338A.061.061,0,0,0,2456.016-85.53Z" fill="none" stroke="#fff" stroke-width="1"/>
      <g id="组_9363" data-name="组 9363">
        <g id="组_9362" data-name="组 9362">
          <path id="路径_7456" data-name="路径 7456" d="M2456.362-85.9a.453.453,0,0,0-.044.085c-.007-.011-.023-.013-.041,0a.653.653,0,0,0-.143.244l0-.025c-.009-.1,0-.226-.063-.281-.016-.015-.058.01-.065.046a.77.77,0,0,0,.032.3c.009.056.018.113.028.169l-.012.033c-.012.035,0,.049.027.044.008.036.014.072.023.107s.079-.019.072-.061-.011-.072-.015-.109c.015.012.047,0,.063-.037.039-.092.081-.184.121-.276a.575.575,0,0,0,.076-.264C2456.414-85.941,2456.379-85.923,2456.362-85.9Z" fill="none" stroke="#fff" stroke-width="1"/>
          <path id="路径_7457" data-name="路径 7457" d="M2456.931-86.344a.273.273,0,0,0-.108.142,1.482,1.482,0,0,0-.152.265c-.021.041-.038.082-.057.123a.664.664,0,0,1,.018-.073.482.482,0,0,0,.047-.17c0-.03-.036-.037-.068,0a.8.8,0,0,0-.132.462c0,.025.013.03.03.028l-.016.039c-.027.071.054.073.083,0,.049-.121.1-.242.162-.363a1.285,1.285,0,0,0-.008.151c0,.067.1.008.1-.061a1.019,1.019,0,0,1,.061-.328c.028-.076.088-.145.076-.208C2456.968-86.354,2456.949-86.352,2456.931-86.344Z" fill="none" stroke="#fff" stroke-width="1"/>
          <path id="路径_7458" data-name="路径 7458" d="M2457.416-86.621c.006-.031-.011-.041-.038-.029a.518.518,0,0,0-.184.256h0c-.1.044-.165.192-.2.295a.947.947,0,0,0-.061.345c0,.07.1.009.108-.062a.929.929,0,0,1,.058-.283l.007-.014a1.088,1.088,0,0,0-.029.226c0,.077.115.009.117-.068l0-.024a.064.064,0,0,0,.02-.039,1.013,1.013,0,0,1,.044-.237c.019-.065.051-.132.076-.2.008-.016.016-.032.026-.048A.352.352,0,0,0,2457.416-86.621Z" fill="none" stroke="#fff" stroke-width="1"/>
        </g>
      </g>
      <g id="组_9364" data-name="组 9364">
        <path id="路径_7459" data-name="路径 7459" d="M2452.381-85.2a.552.552,0,0,0,.075.263c.04.092.083.184.121.276.017.039.048.05.064.038-.005.037-.009.073-.015.109s.061.1.071.061.016-.072.023-.108c.022,0,.04-.008.027-.043l-.011-.034c.01-.055.019-.112.028-.169a.772.772,0,0,0,.031-.3c-.007-.036-.049-.061-.065-.046-.06.055-.054.181-.063.281l0,.025a.636.636,0,0,0-.143-.244c-.017-.017-.034-.015-.041,0a.379.379,0,0,0-.044-.085C2452.42-85.207,2452.385-85.225,2452.381-85.2Z" fill="none" stroke="#fff" stroke-width="1"/>
        <path id="路径_7460" data-name="路径 7460" d="M2451.868-85.628a.264.264,0,0,1,.108.141,1.523,1.523,0,0,1,.152.266c.021.04.039.081.058.122-.006-.024-.011-.047-.018-.072a.482.482,0,0,1-.047-.17c0-.031.035-.037.067,0a.789.789,0,0,1,.132.462c0,.025-.013.03-.03.028l.016.039c.027.07-.054.072-.083,0-.048-.122-.1-.242-.162-.363a1.335,1.335,0,0,1,.008.15c0,.068-.1.008-.1-.061a1,1,0,0,0-.061-.328c-.028-.076-.087-.145-.075-.208C2451.831-85.638,2451.851-85.636,2451.868-85.628Z" fill="none" stroke="#fff" stroke-width="1"/>
        <path id="路径_7461" data-name="路径 7461" d="M2451.383-85.9c-.006-.031.011-.041.038-.029a.517.517,0,0,1,.184.256h0c.1.044.165.192.2.295a.961.961,0,0,1,.061.346c0,.069-.1.008-.108-.063a.9.9,0,0,0-.058-.282l-.007-.015a1.1,1.1,0,0,1,.029.227c0,.076-.115.009-.117-.068l0-.025a.053.053,0,0,1-.02-.038,1.053,1.053,0,0,0-.045-.238c-.018-.065-.051-.131-.075-.2-.009-.016-.017-.033-.027-.049A.361.361,0,0,1,2451.383-85.9Z" fill="none" stroke="#fff" stroke-width="1"/>
      </g>
      <g id="组_9367" data-name="组 9367">
        <g id="组_9366" data-name="组 9366">
          <g id="组_9365" data-name="组 9365">
            <path id="路径_7462" data-name="路径 7462" d="M2452.634-102.6a1.159,1.159,0,0,0,1.022,1.108,1.071,1.071,0,0,0,1.086-1.014c.149-1.142-.994-.942-.994-.942S2452.631-103.756,2452.634-102.6Z" fill="none" stroke="#fff" stroke-width="1"/>
            <path id="路径_7463" data-name="路径 7463" d="M2453.9-103.414l.069.007a.607.607,0,0,1,.24.037.47.47,0,0,1,.236.212,1.265,1.265,0,0,1,.144.355.43.43,0,0,1-.026.328c-.085.16-.347.293-.493.132-.118-.129-.075-.339-.174-.48-.067-.1-.2-.1-.3-.123a.5.5,0,0,1-.244-.128c-.058-.053-.122-.125-.105-.2C2453.3-103.514,2453.732-103.431,2453.9-103.414Z" fill="none" stroke="#fff" stroke-width="1" opacity="0.4" style="mix-blend-mode: screen;isolation: isolate"/>
            <path id="路径_7464" data-name="路径 7464" d="M2453.252-103.471a.566.566,0,0,0-.121.283,1.255,1.255,0,0,0,.276,1.037.716.716,0,0,0,.739.22.828.828,0,0,0,.507-.981.885.885,0,0,0-.3-.474c.245.106.455.346.386.878a1.071,1.071,0,0,1-1.086,1.014,1.159,1.159,0,0,1-1.022-1.108C2452.633-103.222,2452.954-103.421,2453.252-103.471Z" fill="none" stroke="#fff" stroke-width="1"/>
          </g>
          <path id="路径_7465" data-name="路径 7465" d="M2453.659-103.241a.224.224,0,0,0,.038.008.417.417,0,0,0,.051,0c.062,0,.126-.019.115-.076a.123.123,0,0,0-.084-.083l-.006,0,0,0a.115.115,0,0,0-.026-.009l-.021,0a.119.119,0,0,0-.037,0h0a.276.276,0,0,0-.115.017C2453.463-103.354,2453.62-103.255,2453.659-103.241Z" fill="none" stroke="#fff" stroke-width="1"/>
          <path id="路径_7466" data-name="路径 7466" d="M2454.117-103.923c.027.027-.011.082-.026.11a.644.644,0,0,1-.1.13.579.579,0,0,1-.288.178v0h0c-.01,0,0-.013.005-.016a1.258,1.258,0,0,0,.222-.161,1.208,1.208,0,0,0,.1-.116.483.483,0,0,0,.076-.114S2454.112-103.928,2454.117-103.923Z" fill="none" stroke="#fff" stroke-width="1"/>
          <path id="路径_7467" data-name="路径 7467" d="M2453.964-103.515c.165.158.609-.231.581-.806C2454.545-104.321,2453.377-104.081,2453.964-103.515Z" fill="none" stroke="#fff" stroke-width="1"/>
          <path id="路径_7468" data-name="路径 7468" d="M2454.541-104.32c-.272.134-.654.252-.568.628a.3.3,0,0,0,.177.19.162.162,0,0,1-.186-.013C2453.4-104.061,2454.466-104.3,2454.541-104.32Z" fill="none" stroke="#fff" stroke-width="1" opacity="0.2" style="mix-blend-mode: multiply;isolation: isolate"/>
          <path id="路径_7469" data-name="路径 7469" d="M2453.522-103.784a.844.844,0,0,1,.159.374.722.722,0,0,1,.016.177.417.417,0,0,0,.051,0,.568.568,0,0,0,.02-.164,1,1,0,0,0-.062-.315.24.24,0,0,0-.077-.131.146.146,0,0,0-.13-.013C2453.48-103.846,2453.52-103.787,2453.522-103.784Z" fill="none" stroke="#fff" stroke-width="1"/>
        </g>
        <path id="路径_7470" data-name="路径 7470" d="M2454.345-102.879a.058.058,0,0,1-.023,0,.271.271,0,0,1-.2-.15c-.028-.047-.078-.145-.041-.2.059-.086.209.019.243.081C2454.35-103.1,2454.408-102.907,2454.345-102.879Z" fill="none" stroke="#fff" stroke-width="1" opacity="0.4" style="mix-blend-mode: screen;isolation: isolate"/>
        <path id="路径_7471" data-name="路径 7471" d="M2454.473-102.672a.062.062,0,0,1-.018.06.067.067,0,0,1-.039.012.141.141,0,0,1-.076-.007.1.1,0,0,1-.049-.106c0-.054.048-.105.107-.084A.149.149,0,0,1,2454.473-102.672Z" fill="none" stroke="#fff" stroke-width="1" opacity="0.4" style="mix-blend-mode: screen;isolation: isolate"/>
      </g>
      <g id="组_9370" data-name="组 9370">
        <g id="组_9369" data-name="组 9369">
          <g id="组_9368" data-name="组 9368">
            <path id="路径_7472" data-name="路径 7472" d="M2457.092-99.257a1.158,1.158,0,0,0,1.021,1.108,1.068,1.068,0,0,0,1.086-1.013c.15-1.143-.994-.942-.994-.942S2457.089-100.41,2457.092-99.257Z" fill="none" stroke="#fff" stroke-width="1"/>
            <path id="路径_7473" data-name="路径 7473" d="M2458.358-100.068l.069.006a.621.621,0,0,1,.239.038.472.472,0,0,1,.237.212,1.227,1.227,0,0,1,.143.355.424.424,0,0,1-.025.328c-.086.16-.347.293-.493.132-.119-.13-.076-.339-.175-.481-.067-.1-.2-.1-.3-.122a.5.5,0,0,1-.244-.128c-.057-.053-.122-.125-.1-.2C2457.754-100.168,2458.19-100.085,2458.358-100.068Z" fill="none" stroke="#fff" stroke-width="1" opacity="0.4" style="mix-blend-mode: screen;isolation: isolate"/>
            <path id="路径_7474" data-name="路径 7474" d="M2457.71-100.126a.577.577,0,0,0-.122.284,1.256,1.256,0,0,0,.276,1.037.718.718,0,0,0,.739.22.827.827,0,0,0,.507-.981.876.876,0,0,0-.3-.474c.245.106.456.346.386.878a1.068,1.068,0,0,1-1.086,1.013,1.158,1.158,0,0,1-1.021-1.108C2457.09-99.876,2457.412-100.075,2457.71-100.126Z" fill="none" stroke="#fff" stroke-width="1"/>
          </g>
          <path id="路径_7475" data-name="路径 7475" d="M2458.117-99.895a.152.152,0,0,0,.038.007.4.4,0,0,0,.051,0c.061,0,.126-.019.114-.076a.127.127,0,0,0-.083-.084l-.006,0,0,0a.135.135,0,0,0-.026-.009l-.021,0a.1.1,0,0,0-.037,0h0a.281.281,0,0,0-.116.017C2457.92-100.009,2458.077-99.909,2458.117-99.895Z" fill="none" stroke="#fff" stroke-width="1"/>
          <path id="路径_7476" data-name="路径 7476" d="M2458.575-100.577c.027.027-.011.081-.027.11a.637.637,0,0,1-.1.13.583.583,0,0,1-.287.178l0,0h0c-.01,0,0-.013.006-.016a1.258,1.258,0,0,0,.222-.161,1.208,1.208,0,0,0,.1-.116.506.506,0,0,0,.076-.114S2458.57-100.583,2458.575-100.577Z" fill="none" stroke="#fff" stroke-width="1"/>
          <path id="路径_7477" data-name="路径 7477" d="M2458.422-100.169c.165.158.609-.231.581-.806C2459-100.975,2457.835-100.735,2458.422-100.169Z" fill="none" stroke="#fff" stroke-width="1"/>
          <path id="路径_7478" data-name="路径 7478" d="M2459-100.974c-.271.134-.653.252-.568.628a.305.305,0,0,0,.178.19.162.162,0,0,1-.186-.013C2457.855-100.716,2458.924-100.958,2459-100.974Z" fill="none" stroke="#fff" stroke-width="1" opacity="0.2" style="mix-blend-mode: multiply;isolation: isolate"/>
          <path id="路径_7479" data-name="路径 7479" d="M2457.98-100.438a.844.844,0,0,1,.159.374.831.831,0,0,1,.016.176.4.4,0,0,0,.051,0,.6.6,0,0,0,.02-.164,1.032,1.032,0,0,0-.062-.315.25.25,0,0,0-.077-.132.145.145,0,0,0-.131-.012C2457.937-100.5,2457.978-100.441,2457.98-100.438Z" fill="none" stroke="#fff" stroke-width="1"/>
        </g>
        <path id="路径_7480" data-name="路径 7480" d="M2458.8-99.533a.049.049,0,0,1-.024,0,.272.272,0,0,1-.2-.149c-.027-.047-.077-.145-.041-.2.059-.086.21.019.243.081C2458.807-99.755,2458.866-99.561,2458.8-99.533Z" fill="none" stroke="#fff" stroke-width="1" opacity="0.4" style="mix-blend-mode: screen;isolation: isolate"/>
        <path id="路径_7481" data-name="路径 7481" d="M2458.931-99.326a.067.067,0,0,1-.018.06.07.07,0,0,1-.04.012.136.136,0,0,1-.075-.007.106.106,0,0,1-.049-.106c0-.054.047-.105.106-.084A.153.153,0,0,1,2458.931-99.326Z" fill="none" stroke="#fff" stroke-width="1" opacity="0.4" style="mix-blend-mode: screen;isolation: isolate"/>
      </g>
      <g id="组_9373" data-name="组 9373">
        <g id="组_9372" data-name="组 9372">
          <g id="组_9371" data-name="组 9371">
            <path id="路径_7482" data-name="路径 7482" d="M2447.567-98.392a1.159,1.159,0,0,0,1.022,1.108,1.071,1.071,0,0,0,1.086-1.013c.149-1.143-.994-.942-.994-.942S2447.564-99.545,2447.567-98.392Z" fill="none" stroke="#fff" stroke-width="1"/>
            <path id="路径_7483" data-name="路径 7483" d="M2448.833-99.2l.069.006a.647.647,0,0,1,.24.037.473.473,0,0,1,.236.212,1.27,1.27,0,0,1,.144.355.432.432,0,0,1-.026.329c-.085.159-.347.292-.493.132-.118-.13-.075-.339-.174-.481-.067-.1-.2-.1-.3-.122a.507.507,0,0,1-.244-.129c-.058-.052-.122-.125-.1-.2C2448.229-99.3,2448.665-99.221,2448.833-99.2Z" fill="none" stroke="#fff" stroke-width="1" opacity="0.4" style="mix-blend-mode: screen;isolation: isolate"/>
            <path id="路径_7484" data-name="路径 7484" d="M2448.185-99.261a.573.573,0,0,0-.121.284,1.252,1.252,0,0,0,.276,1.036.716.716,0,0,0,.739.221.829.829,0,0,0,.507-.982.884.884,0,0,0-.3-.473c.245.105.455.346.386.878a1.071,1.071,0,0,1-1.086,1.013,1.159,1.159,0,0,1-1.022-1.108C2447.566-99.012,2447.887-99.21,2448.185-99.261Z" fill="none" stroke="#fff" stroke-width="1"/>
          </g>
          <path id="路径_7485" data-name="路径 7485" d="M2448.592-99.031a.156.156,0,0,0,.038.008.416.416,0,0,0,.051,0c.062,0,.126-.02.115-.077a.124.124,0,0,0-.084-.083l-.006,0-.005,0-.026-.008-.021,0a.163.163,0,0,0-.037,0h0a.308.308,0,0,0-.115.017C2448.4-99.144,2448.553-99.044,2448.592-99.031Z" fill="none" stroke="#fff" stroke-width="1"/>
          <path id="路径_7486" data-name="路径 7486" d="M2449.05-99.713c.027.028-.011.082-.026.111a.637.637,0,0,1-.1.129.581.581,0,0,1-.288.179v0h0c-.01,0,0-.014,0-.016a1.206,1.206,0,0,0,.222-.162,1.06,1.06,0,0,0,.1-.115.5.5,0,0,0,.076-.114S2449.045-99.718,2449.05-99.713Z" fill="none" stroke="#fff" stroke-width="1"/>
          <path id="路径_7487" data-name="路径 7487" d="M2448.9-99.305c.165.159.609-.231.581-.805C2449.478-100.11,2448.31-99.87,2448.9-99.305Z" fill="none" stroke="#fff" stroke-width="1"/>
          <path id="路径_7488" data-name="路径 7488" d="M2449.474-100.109c-.272.134-.654.252-.568.628a.3.3,0,0,0,.177.189.161.161,0,0,1-.186-.013C2448.33-99.851,2449.4-100.093,2449.474-100.109Z" fill="none" stroke="#fff" stroke-width="1" opacity="0.2" style="mix-blend-mode: multiply;isolation: isolate"/>
          <path id="路径_7489" data-name="路径 7489" d="M2448.455-99.574a.853.853,0,0,1,.159.374.724.724,0,0,1,.016.177.416.416,0,0,0,.051,0,.562.562,0,0,0,.02-.165,1,1,0,0,0-.062-.314.242.242,0,0,0-.077-.132.144.144,0,0,0-.13-.012C2448.413-99.635,2448.453-99.576,2448.455-99.574Z" fill="none" stroke="#fff" stroke-width="1"/>
        </g>
        <path id="路径_7490" data-name="路径 7490" d="M2449.278-98.669a.037.037,0,0,1-.023,0,.269.269,0,0,1-.2-.15c-.028-.046-.078-.144-.041-.2.059-.086.209.019.243.08C2449.283-98.89,2449.341-98.7,2449.278-98.669Z" fill="none" stroke="#fff" stroke-width="1" opacity="0.4" style="mix-blend-mode: screen;isolation: isolate"/>
        <path id="路径_7491" data-name="路径 7491" d="M2449.406-98.461a.063.063,0,0,1-.018.06.085.085,0,0,1-.039.012.152.152,0,0,1-.076-.007.106.106,0,0,1-.049-.106c0-.054.048-.105.107-.084A.149.149,0,0,1,2449.406-98.461Z" fill="none" stroke="#fff" stroke-width="1" opacity="0.4" style="mix-blend-mode: screen;isolation: isolate"/>
      </g>
      <g id="组_9376" data-name="组 9376">
        <g id="组_9375" data-name="组 9375">
          <g id="组_9374" data-name="组 9374">
            <path id="路径_7492" data-name="路径 7492" d="M2458.953-105.739a1.161,1.161,0,0,0,1.022,1.108,1.071,1.071,0,0,0,1.086-1.013c.149-1.143-.994-.943-.994-.943S2458.951-106.892,2458.953-105.739Z" fill="none" stroke="#fff" stroke-width="1"/>
            <path id="路径_7493" data-name="路径 7493" d="M2460.219-106.551l.069.007a.642.642,0,0,1,.24.037.479.479,0,0,1,.237.212,1.285,1.285,0,0,1,.143.355.432.432,0,0,1-.026.329c-.085.159-.347.292-.493.132-.118-.13-.075-.339-.174-.481-.067-.1-.2-.1-.3-.122a.513.513,0,0,1-.244-.129c-.057-.052-.122-.125-.1-.2C2459.616-106.651,2460.052-106.568,2460.219-106.551Z" fill="none" stroke="#fff" stroke-width="1" opacity="0.4" style="mix-blend-mode: screen;isolation: isolate"/>
            <path id="路径_7494" data-name="路径 7494" d="M2459.571-106.608a.57.57,0,0,0-.121.283,1.255,1.255,0,0,0,.276,1.037.716.716,0,0,0,.739.221.829.829,0,0,0,.507-.982.878.878,0,0,0-.3-.473c.245.105.456.346.386.878a1.071,1.071,0,0,1-1.086,1.013,1.161,1.161,0,0,1-1.022-1.108C2458.952-106.359,2459.274-106.557,2459.571-106.608Z" fill="none" stroke="#fff" stroke-width="1"/>
          </g>
          <path id="路径_7495" data-name="路径 7495" d="M2459.978-106.378a.238.238,0,0,0,.039.008.391.391,0,0,0,.05,0c.062,0,.126-.02.115-.077a.125.125,0,0,0-.083-.083l-.006,0-.006,0a.076.076,0,0,0-.026-.008l-.021,0a.117.117,0,0,0-.036,0h0a.314.314,0,0,0-.115.017C2459.782-106.491,2459.939-106.391,2459.978-106.378Z" fill="none" stroke="#fff" stroke-width="1"/>
          <path id="路径_7496" data-name="路径 7496" d="M2460.437-107.06c.027.028-.012.082-.027.11a.643.643,0,0,1-.1.13.576.576,0,0,1-.288.179v0h0c-.01,0,0-.014,0-.016a1.237,1.237,0,0,0,.223-.162,1.078,1.078,0,0,0,.1-.115.543.543,0,0,0,.077-.114S2460.431-107.065,2460.437-107.06Z" fill="none" stroke="#fff" stroke-width="1"/>
          <path id="路径_7497" data-name="路径 7497" d="M2460.284-106.652c.164.159.608-.231.58-.805C2460.864-107.457,2459.7-107.218,2460.284-106.652Z" fill="none" stroke="#fff" stroke-width="1"/>
          <path id="路径_7498" data-name="路径 7498" d="M2460.86-107.456c-.272.133-.654.252-.568.627a.3.3,0,0,0,.178.19.161.161,0,0,1-.186-.013C2459.717-107.2,2460.786-107.44,2460.86-107.456Z" fill="none" stroke="#fff" stroke-width="1" opacity="0.2" style="mix-blend-mode: multiply;isolation: isolate"/>
          <path id="路径_7499" data-name="路径 7499" d="M2459.841-106.921a.842.842,0,0,1,.159.374.8.8,0,0,1,.017.177.391.391,0,0,0,.05,0,.566.566,0,0,0,.02-.165.964.964,0,0,0-.062-.314.236.236,0,0,0-.077-.132.143.143,0,0,0-.13-.012C2459.8-106.982,2459.839-106.923,2459.841-106.921Z" fill="none" stroke="#fff" stroke-width="1"/>
        </g>
        <path id="路径_7500" data-name="路径 7500" d="M2460.664-106.016a.059.059,0,0,1-.023,0,.269.269,0,0,1-.2-.15c-.027-.046-.078-.144-.041-.2.059-.087.21.019.243.08C2460.669-106.237,2460.728-106.044,2460.664-106.016Z" fill="none" stroke="#fff" stroke-width="1" opacity="0.4" style="mix-blend-mode: screen;isolation: isolate"/>
        <path id="路径_7501" data-name="路径 7501" d="M2460.793-105.809a.07.07,0,0,1-.018.061.089.089,0,0,1-.04.012.138.138,0,0,1-.075-.008.1.1,0,0,1-.05-.1c0-.054.048-.105.107-.085A.153.153,0,0,1,2460.793-105.809Z" fill="none" stroke="#fff" stroke-width="1" opacity="0.4" style="mix-blend-mode: screen;isolation: isolate"/>
      </g>
      <g id="组_9379" data-name="组 9379">
        <g id="组_9378" data-name="组 9378">
          <g id="组_9377" data-name="组 9377">
            <path id="路径_7502" data-name="路径 7502" d="M2452.7-108.224a1.159,1.159,0,0,0,1.022,1.108,1.069,1.069,0,0,0,1.085-1.014c.15-1.142-.994-.942-.994-.942S2452.7-109.378,2452.7-108.224Z" fill="none" stroke="#fff" stroke-width="1"/>
            <path id="路径_7503" data-name="路径 7503" d="M2453.964-109.036l.069.007a.618.618,0,0,1,.239.037.476.476,0,0,1,.237.212,1.265,1.265,0,0,1,.144.355.43.43,0,0,1-.026.328c-.086.16-.347.293-.493.133-.118-.13-.076-.34-.175-.481-.067-.1-.2-.1-.3-.122a.5.5,0,0,1-.244-.129c-.058-.052-.122-.125-.1-.2C2453.36-109.136,2453.8-109.053,2453.964-109.036Z" fill="none" stroke="#fff" stroke-width="1" opacity="0.4" style="mix-blend-mode: screen;isolation: isolate"/>
            <path id="路径_7504" data-name="路径 7504" d="M2453.316-109.093a.571.571,0,0,0-.122.283,1.255,1.255,0,0,0,.276,1.037.717.717,0,0,0,.739.221.83.83,0,0,0,.508-.982.881.881,0,0,0-.3-.474c.245.106.456.347.386.878a1.069,1.069,0,0,1-1.085,1.014,1.159,1.159,0,0,1-1.022-1.108C2452.7-108.844,2453.018-109.042,2453.316-109.093Z" fill="none" stroke="#fff" stroke-width="1"/>
          </g>
          <path id="路径_7505" data-name="路径 7505" d="M2453.723-108.863a.209.209,0,0,0,.038.008.278.278,0,0,0,.051,0c.061,0,.126-.019.114-.076a.126.126,0,0,0-.083-.083l-.006,0,0,0a.087.087,0,0,0-.026-.008l-.021,0a.122.122,0,0,0-.037,0h0a.318.318,0,0,0-.116.017C2453.526-108.976,2453.683-108.877,2453.723-108.863Z" fill="none" stroke="#fff" stroke-width="1"/>
          <path id="路径_7506" data-name="路径 7506" d="M2454.181-109.545c.027.028-.011.082-.027.11a.611.611,0,0,1-.1.13.577.577,0,0,1-.287.179v0h0c-.01,0,0-.013.006-.015a1.317,1.317,0,0,0,.222-.162,1.2,1.2,0,0,0,.1-.115.546.546,0,0,0,.076-.115S2454.176-109.55,2454.181-109.545Z" fill="none" stroke="#fff" stroke-width="1"/>
          <path id="路径_7507" data-name="路径 7507" d="M2454.028-109.137c.165.159.609-.231.581-.806C2454.609-109.943,2453.441-109.7,2454.028-109.137Z" fill="none" stroke="#fff" stroke-width="1"/>
          <path id="路径_7508" data-name="路径 7508" d="M2454.6-109.942c-.271.134-.653.252-.568.628a.306.306,0,0,0,.178.19.161.161,0,0,1-.186-.013C2453.461-109.683,2454.53-109.926,2454.6-109.942Z" fill="none" stroke="#fff" stroke-width="1" opacity="0.2" style="mix-blend-mode: multiply;isolation: isolate"/>
          <path id="路径_7509" data-name="路径 7509" d="M2453.586-109.406a.852.852,0,0,1,.159.374.848.848,0,0,1,.016.177.278.278,0,0,0,.051,0,.563.563,0,0,0,.02-.164,1.032,1.032,0,0,0-.062-.315.251.251,0,0,0-.077-.131.149.149,0,0,0-.131-.013C2453.543-109.467,2453.584-109.409,2453.586-109.406Z" fill="none" stroke="#fff" stroke-width="1"/>
        </g>
        <path id="路径_7510" data-name="路径 7510" d="M2454.409-108.5a.066.066,0,0,1-.024,0,.271.271,0,0,1-.2-.15c-.027-.046-.077-.144-.041-.2.059-.086.21.02.243.081C2454.413-108.722,2454.472-108.529,2454.409-108.5Z" fill="none" stroke="#fff" stroke-width="1" opacity="0.4" style="mix-blend-mode: screen;isolation: isolate"/>
        <path id="路径_7511" data-name="路径 7511" d="M2454.537-108.294a.07.07,0,0,1-.018.061.077.077,0,0,1-.039.011.139.139,0,0,1-.076-.007.1.1,0,0,1-.049-.106c.005-.054.047-.105.106-.084A.153.153,0,0,1,2454.537-108.294Z" fill="none" stroke="#fff" stroke-width="1" opacity="0.4" style="mix-blend-mode: screen;isolation: isolate"/>
      </g>
      <g id="组_9382" data-name="组 9382">
        <g id="组_9381" data-name="组 9381">
          <g id="组_9380" data-name="组 9380">
            <path id="路径_7512" data-name="路径 7512" d="M2446.652-103.964a1.159,1.159,0,0,0,1.022,1.108,1.07,1.07,0,0,0,1.086-1.013c.149-1.143-.994-.942-.994-.942S2446.65-105.117,2446.652-103.964Z" fill="none" stroke="#fff" stroke-width="1"/>
            <path id="路径_7513" data-name="路径 7513" d="M2447.918-104.775l.069.006a.645.645,0,0,1,.24.037.48.48,0,0,1,.237.212,1.268,1.268,0,0,1,.143.356.43.43,0,0,1-.026.328c-.085.159-.346.292-.493.132-.118-.13-.075-.339-.174-.481-.067-.1-.2-.1-.3-.122a.513.513,0,0,1-.244-.129c-.057-.052-.122-.125-.1-.2C2447.315-104.875,2447.751-104.793,2447.918-104.775Z" fill="none" stroke="#fff" stroke-width="1" opacity="0.4" style="mix-blend-mode: screen;isolation: isolate"/>
            <path id="路径_7514" data-name="路径 7514" d="M2447.27-104.833a.576.576,0,0,0-.121.284,1.252,1.252,0,0,0,.276,1.036.716.716,0,0,0,.739.221.829.829,0,0,0,.507-.982.876.876,0,0,0-.3-.473c.245.105.455.346.386.878a1.07,1.07,0,0,1-1.086,1.013,1.159,1.159,0,0,1-1.022-1.108C2446.651-104.584,2446.973-104.782,2447.27-104.833Z" fill="none" stroke="#fff" stroke-width="1"/>
          </g>
          <path id="路径_7515" data-name="路径 7515" d="M2447.677-104.6a.165.165,0,0,0,.039.008.394.394,0,0,0,.05,0c.062,0,.126-.02.115-.077a.126.126,0,0,0-.083-.083l-.006,0-.006,0-.026-.008-.021,0a.159.159,0,0,0-.036,0h0a.314.314,0,0,0-.115.017C2447.481-104.716,2447.638-104.616,2447.677-104.6Z" fill="none" stroke="#fff" stroke-width="1"/>
          <path id="路径_7516" data-name="路径 7516" d="M2448.135-105.285c.028.028-.011.082-.026.111a.637.637,0,0,1-.1.129.577.577,0,0,1-.288.179v0h0c-.01,0,0-.014,0-.016a1.223,1.223,0,0,0,.223-.162,1.077,1.077,0,0,0,.1-.115.534.534,0,0,0,.077-.114S2448.13-105.29,2448.135-105.285Z" fill="none" stroke="#fff" stroke-width="1"/>
          <path id="路径_7517" data-name="路径 7517" d="M2447.983-104.877c.164.159.608-.231.58-.805C2448.563-105.682,2447.4-105.442,2447.983-104.877Z" fill="none" stroke="#fff" stroke-width="1"/>
          <path id="路径_7518" data-name="路径 7518" d="M2448.559-105.681c-.272.134-.654.252-.568.628a.3.3,0,0,0,.178.189.161.161,0,0,1-.186-.013C2447.416-105.423,2448.485-105.665,2448.559-105.681Z" fill="none" stroke="#fff" stroke-width="1" opacity="0.2" style="mix-blend-mode: multiply;isolation: isolate"/>
          <path id="路径_7519" data-name="路径 7519" d="M2447.54-105.146a.842.842,0,0,1,.159.374.8.8,0,0,1,.017.177.394.394,0,0,0,.05,0,.562.562,0,0,0,.02-.165,1,1,0,0,0-.061-.314.245.245,0,0,0-.078-.132.143.143,0,0,0-.13-.012C2447.5-105.207,2447.538-105.148,2447.54-105.146Z" fill="none" stroke="#fff" stroke-width="1"/>
        </g>
        <path id="路径_7520" data-name="路径 7520" d="M2448.363-104.241a.036.036,0,0,1-.023,0,.269.269,0,0,1-.2-.15c-.027-.046-.078-.144-.041-.2.059-.086.21.019.243.08C2448.368-104.462,2448.427-104.269,2448.363-104.241Z" fill="none" stroke="#fff" stroke-width="1" opacity="0.4" style="mix-blend-mode: screen;isolation: isolate"/>
        <path id="路径_7521" data-name="路径 7521" d="M2448.492-104.033a.068.068,0,0,1-.018.06.09.09,0,0,1-.04.012.147.147,0,0,1-.075-.007.106.106,0,0,1-.05-.106c0-.054.048-.105.107-.085A.155.155,0,0,1,2448.492-104.033Z" fill="none" stroke="#fff" stroke-width="1" opacity="0.4" style="mix-blend-mode: screen;isolation: isolate"/>
      </g>
    </g>
  </g>
</svg>
