<svg xmlns="http://www.w3.org/2000/svg" xmlns:xlink="http://www.w3.org/1999/xlink" width="38.767" height="42.501" viewBox="0 0 38.767 42.501"><defs><linearGradient id="a" x1="0.5" y1="1.673" x2="0.5" y2="-0.047" gradientUnits="objectBoundingBox"><stop offset="0" stop-color="#00ead1"/><stop offset="0.129" stop-color="#00dfd0"/><stop offset="0.352" stop-color="#00c3cf"/><stop offset="0.641" stop-color="#0096cd"/><stop offset="0.982" stop-color="#0058cb"/><stop offset="1" stop-color="#0055cb"/></linearGradient><linearGradient id="b" x1="0.5" y1="1.183" x2="0.5" y2="0.038" gradientUnits="objectBoundingBox"><stop offset="0" stop-color="#27b7ff"/><stop offset="0.99" stop-color="#f408ab"/></linearGradient><linearGradient id="c" x1="0.5" y1="0.939" x2="0.5" y2="-0.182" xlink:href="#a"/><linearGradient id="d" x1="0.5" y1="1.191" x2="0.5" y2="-0.135" xlink:href="#b"/><linearGradient id="e" x1="0.5" y1="1.129" x2="0.5" y2="-0.479" xlink:href="#a"/><radialGradient id="f" cx="0.5" cy="0.5" r="0.5" gradientTransform="translate(0)" gradientUnits="objectBoundingBox"><stop offset="0"/><stop offset="0.089" stop-color="#1d1d1d"/><stop offset="0.346" stop-color="#6c6c6c"/><stop offset="0.575" stop-color="#ababab"/><stop offset="0.767" stop-color="#d8d8d8"/><stop offset="0.914" stop-color="#f4f4f4"/><stop offset="1" stop-color="#fff"/></radialGradient><linearGradient id="g" x1="0.944" y1="0.944" x2="0.123" y2="0.123" gradientUnits="objectBoundingBox"><stop offset="0" stop-color="#071a35"/><stop offset="1" stop-color="#193566"/></linearGradient><linearGradient id="h" x1="-0.05" y1="0.5" x2="0.866" y2="0.5" xlink:href="#a"/><linearGradient id="i" x1="-0.211" y1="0.5" x2="3.317" y2="0.5" xlink:href="#a"/><linearGradient id="j" x1="-3.473" y1="0.5" x2="16.503" y2="0.5" xlink:href="#a"/><linearGradient id="k" x1="0" y1="0.5" x2="1" y2="0.5" xlink:href="#g"/><linearGradient id="l" x1="24.436" y1="3.158" x2="27.337" y2="3.158" gradientUnits="objectBoundingBox"><stop offset="0" stop-color="#0055cb"/><stop offset="0.018" stop-color="#0058cb"/><stop offset="0.359" stop-color="#0096cd"/><stop offset="0.648" stop-color="#00c3cf"/><stop offset="0.871" stop-color="#00dfd0"/><stop offset="1" stop-color="#00ead1"/></linearGradient><linearGradient id="m" x1="-7.533" y1="0.5" x2="12.444" y2="0.5" xlink:href="#a"/><linearGradient id="o" x1="-1.597" y1="0.5" x2="1.931" y2="0.5" xlink:href="#a"/><linearGradient id="p" x1="-11.32" y1="0.5" x2="8.657" y2="0.5" xlink:href="#a"/><linearGradient id="r" x1="-3.048" y1="0.5" x2="0.48" y2="0.5" xlink:href="#a"/><linearGradient id="s" x1="-19.533" y1="0.5" x2="0.444" y2="0.5" xlink:href="#a"/><linearGradient id="u" x1="22.064" y1="3.158" x2="24.966" y2="3.158" xlink:href="#l"/><linearGradient id="v" x1="-15.379" y1="0.5" x2="4.597" y2="0.5" xlink:href="#a"/></defs><g transform="translate(0 3.505)"><g transform="translate(0 -3.505)"><g transform="translate(0 0)"><g transform="translate(22.231 7.861)"><path d="M353.4,298.815l-13.226-7.687,1.279-.744,13.227,7.687Z" transform="translate(-340.172 -290.384)" fill="#5a2d1b"/><g transform="translate(0 1.787)"><g style="isolation:isolate"><path d="M340.172,295.607l13.226,7.687,0,7.711h0l0,4.535-13.227-7.687,0-7.712h0Z" transform="translate(-340.172 -295.607)" fill="#16181d"/><path d="M378.819,316.638l1.279-.744,0,7.712h0l0,4.533-1.279.744,0-7.711h0Z" transform="translate(-365.593 -308.951)" fill="#101115"/></g></g></g><g transform="translate(0 7.861)"><g transform="translate(0 13.524)"><g style="isolation:isolate"><path d="M288.44,338.332l-13.226-7.687,1.279-.744,13.227,7.687Z" transform="translate(-275.213 -329.901)" fill="#5a2d1b"/><g transform="translate(13.226 7.687)"><path d="M315.14,352.362l0,12.685-1.279.744,0-12.685Z" transform="translate(-313.861 -352.362)" fill="#101115"/></g></g></g><g style="isolation:isolate"><path d="M275.213,330.047l13.226,7.687,0,1.194,0,0,0,12.187-13.226-7.687,0-12.685h0Z" transform="translate(-275.213 -316.473)" fill="#16181d"/><g transform="translate(0)"><path d="M275.214,303.959l13.226,7.686,23.51-13.574-13.226-7.687-14.35,8.286-2.346,1.354Z" transform="translate(-275.214 -290.384)" fill="#23262f"/></g><g transform="translate(13.226 7.687)"><path d="M337.371,312.845l0,1.194-23.51,13.574,0-1.194Z" transform="translate(-313.861 -312.845)" fill="#101115"/></g></g></g><g transform="translate(10.539 11.741)"><path d="M309.337,316.821h0v.1l-.751-.594,0,0,.076-.045.015.013Z" transform="translate(-307.699 -311.299)" fill="#ccc"/><path d="M306.979,307.935h0l-.525-.436a1.079,1.079,0,0,1-.365-.811l.067-3.114h-.148v3.114a1.163,1.163,0,0,0,.418.894l.466.39h0l.751.594v-.1h0Z" transform="translate(-306.007 -302.939)" fill="#ccbaba"/><path d="M311.545,306.041l-3.745,2.143-1.192-.963a1,1,0,0,1-.365-.768V305.21l3.373-2.059v1.318a.414.414,0,0,0,0,.055,1,1,0,0,0,.362.725.463.463,0,0,0,.051.036C310.242,305.424,310.877,305.729,311.545,306.041Z" transform="translate(-306.162 -302.662)" fill="#f2f2f2"/><path d="M309.619,303.584l-3.376,1.928V302.72c.238-.233.414-.391.437-.365.055.066,2.209-.533,2.936-.633v1.807A.414.414,0,0,0,309.619,303.584Z" transform="translate(-306.162 -301.722)" fill="#e0d7d7"/><path d="M310.788,313.738l3.745-2.143v.106l-3.747,2.141Z" transform="translate(-309.151 -308.216)" fill="#f2eae6"/><path d="M310.032,307.925l-3.41,1.948-.015-.013a1,1,0,0,1-.365-.768l3.376-1.928a1,1,0,0,0,.362.725A.459.459,0,0,0,310.032,307.925Z" transform="translate(-306.162 -305.302)" fill="#e9e5e5"/></g><g transform="translate(26.474 12.502)"><path d="M352.64,306.3l1.165-.733a.4.4,0,0,1,.366-.013l2.506,1.343a.113.113,0,0,1,.007.213l-1.165.734a.4.4,0,0,1-.366.014l-2.505-1.344A.113.113,0,0,1,352.64,306.3Z" transform="translate(-352.568 -304.979)" fill="#e0d7d7" opacity="0.3" style="mix-blend-mode:multiply;isolation:isolate"/><path d="M358.606,305.688a.125.125,0,0,1-.07.106l-.5.314,0-.117a.069.069,0,0,0-.039-.053l.174-.11a.053.053,0,0,0,.028-.043l-.01-.241a.05.05,0,0,0-.03-.04l-2.019-1.082a.158.158,0,0,0-.141.005l-.46.29c0-.035,0-.068,0-.1a.027.027,0,0,0-.017-.022.086.086,0,0,0-.079,0l-.328.207a.028.028,0,0,0-.016.024l.007.163-.24.152a.049.049,0,0,0-.028.043l.005.143-.213-.114a.124.124,0,0,1-.076-.1c0,.081.007.161.009.241a.124.124,0,0,0,.076.1l2.428,1.3a.39.39,0,0,0,.354-.013l1.129-.711a.127.127,0,0,0,.07-.106C358.612,305.848,358.609,305.768,358.606,305.688Z" transform="translate(-353.871 -304.25)" fill="#e6d1d1"/><g transform="translate(0.677)"><path d="M358.7,305.505l-2.019-1.082a.158.158,0,0,0-.141.005l-1.137.717a.044.044,0,0,0,0,.082l2.02,1.082a.156.156,0,0,0,.141-.005l1.137-.716A.044.044,0,0,0,358.7,305.505Z" transform="translate(-355.092 -304.25)" fill="#0e375b"/><path d="M358.7,305.7l-2.019-1.083a.159.159,0,0,0-.141.005l-1.137.717a.044.044,0,0,0,0,.082l2.02,1.082a.157.157,0,0,0,.141-.005l1.137-.716A.044.044,0,0,0,358.7,305.7Z" transform="translate(-355.092 -304.38)" fill="#489f97"/><path d="M363.532,308.833a.222.222,0,0,1,.2-.008c.058.031.059.084,0,.119l-.2.128a.224.224,0,0,1-.2.008.063.063,0,0,1,0-.119Z" transform="translate(-360.295 -307.141)" fill="#16181d"/><path d="M355.746,303.995a.389.389,0,0,1,.355-.013l2.428,1.3a.109.109,0,0,1,.006.206l-1.129.711a.393.393,0,0,1-.355.013l-2.428-1.3a.109.109,0,0,1-.007-.206Zm2.41,1.206-2.019-1.082a.158.158,0,0,0-.141.005l-1.137.717a.044.044,0,0,0,0,.082l2.02,1.082a.156.156,0,0,0,.141-.005l1.137-.716a.044.044,0,0,0,0-.082Zm-.165.548c.056-.036.055-.089,0-.119a.222.222,0,0,0-.2.008l-.2.129a.063.063,0,0,0,0,.119.224.224,0,0,0,.2-.008l.2-.128Zm-2.883-1.246a.024.024,0,0,0,0,.045.084.084,0,0,0,.079,0l.329-.206c.021-.014.021-.035,0-.047a.086.086,0,0,0-.079,0l-.328.207Z" transform="translate(-354.548 -303.945)" fill="#f2f2f2"/><path d="M356.483,304.946a.086.086,0,0,1,.079,0c.022.012.023.033,0,.047l-.329.206a.084.084,0,0,1-.079,0,.024.024,0,0,1,0-.046Z" transform="translate(-355.594 -304.596)" fill="#16181d"/></g></g><g transform="translate(0.754)"><g transform="translate(16.781)"><path d="M345.922,280.5H328.061l-.589-10.031h18.45Z" transform="translate(-327.472 -270.471)" fill="#999"/><rect width="17.861" height="10.127" transform="translate(0.589 0.342)" fill="#f0f0f0"/><rect width="17.087" height="9.354" transform="translate(0.976 0.729)" fill="#153c57"/></g><g transform="translate(1.605)"><g style="isolation:isolate"><g transform="translate(0 8.762)"><path d="M287.692,304.264l-.59-.343-.029-10.127.59.343Z" transform="translate(-287.074 -293.795)" fill="#888"/></g><path d="M287.663,279.576l-.59-.343,15.177-8.762.589.342Z" transform="translate(-287.074 -270.471)" fill="#999"/><g transform="translate(0.59 0.342)"><path d="M303.82,271.383l.029,10.127-15.177,8.762-.029-10.127Z" transform="translate(-288.643 -271.383)" fill="#fcfcfc"/><path d="M289.674,281.479l14.4-8.317.026,9.236-14.4,8.317Z" transform="translate(-289.286 -272.494)" fill="#153c57"/></g></g><g transform="translate(2.241 3.34)"><g transform="translate(2.966)"><path d="M69.894,93.087l-8.716,5.032V91.863l8.716-5.032Z" transform="translate(-61.128 -86.681)" fill="#faf7f3"/><g transform="translate(0.037 0.163)" opacity="0.3"><path d="M61.025,98.205l.013-.008v-6.19L69.7,87v-.016L61.025,92Z" transform="translate(-61.025 -86.989)" fill="#3e809c"/><path d="M67.285,147.25l.013-.008v-6.2l-.013.008Z" transform="translate(-66.741 -136.348)" fill="#3e809c"/><path d="M73.55,143.633l.014-.008v-6.2l-.014.008Z" transform="translate(-72.461 -133.044)" fill="#3e809c"/><path d="M79.81,140.02l.014-.008v-6.2l-.014.008Z" transform="translate(-78.178 -129.746)" fill="#3e809c"/><path d="M86.07,136.4l.014-.008v-6.2l-.014.008Z" transform="translate(-83.894 -126.442)" fill="#3e809c"/><path d="M92.33,132.789l.014-.008v-6.2l-.014.007Z" transform="translate(-89.61 -123.143)" fill="#3e809c"/><path d="M98.59,129.176l.013-.008v-6.2l-.014.007Z" transform="translate(-95.326 -119.844)" fill="#3e809c"/><path d="M104.859,125.559l.014-.008v-6.2l-.014.008Z" transform="translate(-101.051 -116.541)" fill="#3e809c"/><path d="M111.114,121.941l.014-.008v-6.2l-.014.008Z" transform="translate(-106.763 -113.237)" fill="#3e809c"/><path d="M117.379,118.324l.014-.008v-6.2l-.014.008Z" transform="translate(-112.483 -109.934)" fill="#3e809c"/><path d="M123.644,114.71l.013-.008v-6.2l-.013.008Z" transform="translate(-118.203 -106.635)" fill="#3e809c"/><path d="M129.9,111.1l.013-.008v-6.2l-.014.008Z" transform="translate(-123.92 -103.336)" fill="#3e809c"/><path d="M136.169,107.479l.013-.008v-6.2l-.013.008Z" transform="translate(-129.64 -100.033)" fill="#3e809c"/><path d="M142.429,103.862l.014-.007v-6.2l-.014.008Z" transform="translate(-135.356 -96.729)" fill="#3e809c"/><path d="M148.689,100.245l.014-.007v-6.2l-.014.008Z" transform="translate(-141.072 -93.426)" fill="#3e809c"/><path d="M154.949,96.631l.014-.008v-6.2l-.014.008Z" transform="translate(-146.788 -90.127)" fill="#3e809c"/><path d="M61.1,99.246,69.77,94.24v-.015L61.1,99.23Z" transform="translate(-61.093 -93.596)" fill="#3e809c"/><path d="M61.1,106.476l8.671-5.006v-.015L61.1,106.461Z" transform="translate(-61.093 -100.198)" fill="#3e809c"/><path d="M61.1,113.7,69.77,108.7v-.016L61.1,113.687Z" transform="translate(-61.093 -106.796)" fill="#3e809c"/><path d="M61.1,120.933l8.671-5.006v-.016L61.1,120.918Z" transform="translate(-61.093 -113.398)" fill="#3e809c"/><path d="M61.1,128.164l8.671-5.007v-.016L61.1,128.148Z" transform="translate(-61.093 -120.001)" fill="#3e809c"/><path d="M61.1,135.394l8.671-5.006v-.016L61.1,135.379Z" transform="translate(-61.093 -126.603)" fill="#3e809c"/><path d="M61.1,142.629l8.671-5.006v-.015L61.1,142.614Z" transform="translate(-61.093 -133.21)" fill="#3e809c"/><path d="M61.1,149.856l8.671-5.006v-.016L61.1,149.841Z" transform="translate(-61.093 -139.808)" fill="#3e809c"/><path d="M61.1,157.087l8.671-5.006v-.016L61.1,157.071Z" transform="translate(-61.093 -146.411)" fill="#3e809c"/></g><path d="M69.317,91.472v-6.3l.106-.061v6.425L60.6,96.626V96.5Z" transform="translate(-60.603 -85.108)" fill="#3e809c"/><g transform="translate(0.072 5.146)"><path d="M70.141,178.758l.14-.243.2-.115.14.082v.229l-.14.243-.2.115-.14-.081Z" transform="translate(-69.384 -175.441)" fill="#f1a74f"/><path d="M79.949,182.915l.14-.244.2-.115.14.082v.229l-.14.243-.2.115-.14-.081Z" transform="translate(-78.34 -179.236)" fill="#f1a74f"/><path d="M93.2,172.081l.14-.243.2-.115.141.081v.229l-.141.243-.2.115-.14-.081Z" transform="translate(-90.443 -169.344)" fill="#f1a74f"/><path d="M114.147,171.509l.14-.243.2-.115.14.081v.229l-.14.244-.2.114-.14-.081Z" transform="translate(-109.567 -168.822)" fill="#f1a74f"/><path d="M126.463,160.182l.14-.243.2-.115.14.082v.229l-.14.243-.2.115-.14-.081Z" transform="translate(-120.813 -158.479)" fill="#f1a74f"/><path d="M139.378,155.376l.14-.243.2-.115.14.081v.229l-.14.243-.2.114-.14-.08Z" transform="translate(-132.606 -154.091)" fill="#f1a74f"/><path d="M61.434,181.431l.174-.3.247-.142.175.1v.285l-.175.3-.247.142-.174-.1Z" transform="translate(-61.434 -177.803)" fill="#f1a74f"/><path d="M69.312,147.079l1.078-1.023,1.127-.394,1.637-1.2-.015-.116-1.618,1.191-1.137.4-1.062,1.008-1.811.016-1.134.972-.844-.384-.725.333-.011.132.69-.317.861.391,1.151-.986Z" transform="translate(-64.504 -144.341)" fill="#f1a74f"/></g><g transform="translate(0.072 4.234)"><path d="M124.772,143.715l.141-.243.2-.115.14.081v.229l-.14.243-.2.115-.141-.082Z" transform="translate(-119.269 -142.531)" fill="#ee584e"/><path d="M111.388,153.82l.14-.243.2-.115.14.081v.229l-.14.243-.2.115-.14-.081Z" transform="translate(-107.048 -151.758)" fill="#ee584e"/><path d="M80.553,160.238l.14-.243.2-.114.14.081v.229l-.14.243-.2.115-.14-.081Z" transform="translate(-78.892 -157.618)" fill="#ee584e"/><path d="M72.955,157.168l.14-.243.2-.115.14.081v.229l-.14.243-.2.115-.14-.081Z" transform="translate(-71.954 -154.815)" fill="#ee584e"/><path d="M61.434,158.625l.174-.3.247-.142.175.1v.285l-.175.3-.247.143-.174-.1Z" transform="translate(-61.434 -156.066)" fill="#ee584e"/><path d="M73.031,133.981l.019-.134-2.9,1.075-.009.007-1.157.888-2.683.55-.64-.275-.949.214-.031.139.927-.209.639.274,2.73-.56.013-.01,1.16-.89Z" transform="translate(-64.398 -133.846)" fill="#ee584e"/></g><g transform="translate(0.072 2.567)"><path d="M61.434,145.251l.174-.3.247-.142.175.1v.285l-.174.3-.247.143-.174-.1Z" transform="translate(-61.434 -142.187)" fill="#5995a1"/><path d="M82.35,141.55l.14-.243.2-.115.14.081v.229l-.14.244-.2.114-.14-.081Z" transform="translate(-80.533 -138.887)" fill="#5995a1"/><path d="M100.982,145.252l.14-.243.2-.115.14.082v.229l-.14.243-.2.115-.14-.081Z" transform="translate(-97.546 -142.267)" fill="#5995a1"/><path d="M122.5,133.819l.141-.243.2-.115.14.081v.229l-.14.243-.2.115-.141-.081Z" transform="translate(-117.196 -131.827)" fill="#5995a1"/><path d="M136.832,129.89l.14-.243.2-.114.14.081v.229l-.14.243-.2.115-.14-.081Z" transform="translate(-130.282 -128.24)" fill="#5995a1"/><path d="M71.182,116.352l.014-.012,1.857-1.574-.025-.108-1.843,1.563-1.238.324-1.879,1.023-1.594-.362-1.763.418-.031.138,1.746-.414,1.606.366,1.9-1.037Z" transform="translate(-64.398 -114.658)" fill="#5995a1"/></g></g><g transform="translate(0 5.953)"><path d="M33.486,154.128l.864-.5.61.352v1l-.61,1.057-.417.241v-.506l.236-.136.354-.612v-.578l-.354-.2-.5.289Z" transform="translate(-32.876 -153.63)" fill="#ee584e"/><path d="M27.517,161l-.265.153-.354-.2v-.578l.354-.613-.182-.4-.61,1.057v1l.61.353.446-.258Z" transform="translate(-26.46 -158.862)" fill="#3e809c"/></g><g transform="translate(0 8.89)"><path d="M33.486,187.935l.864-.5.61.353v1l-.61,1.057-.417.241v-.506l.236-.136.354-.613v-.578l-.354-.2-.5.29Z" transform="translate(-32.876 -187.437)" fill="#dd4d52"/><path d="M26.46,211.955l.61.353.446-.258v-.506l-.265.153-.354-.2Z" transform="translate(-26.46 -209.403)" fill="#f3bd50"/><path d="M26.9,194.764v-.578l.354-.612-.182-.4-.61,1.057v1Z" transform="translate(-26.46 -192.674)" fill="#f3e174"/></g><path d="M26.506,218.55l2.08-1.2v-.589l-2.08,1.2Z" transform="translate(-26.502 -205.321)" fill="#3e809c"/></g></g><g transform="translate(0 8.762)"><g style="isolation:isolate"><g transform="translate(0 8.204)"><path d="M283.574,325.8l-.743-.024-.029-10.14.743.024Z" transform="translate(-282.802 -315.633)" fill="#fcfcfc"/></g><path d="M283.546,302.023,282.8,302l1.6-8.2.59.346Z" transform="translate(-282.802 -293.795)" fill="#d7d7d7"/><g transform="translate(0.743 0.346)"><path d="M286.232,294.715l.029,10.14-1.451,7.882-.029-10.14Z" transform="translate(-284.781 -294.715)" fill="#858585"/><path d="M285.178,304.987l1.151-6.47.031,8.7-1.151,6.47Z" transform="translate(-285.029 -297.089)" fill="#102a3d"/></g></g></g></g><g transform="translate(9.939 14.557)"><path d="M462.7,577.079l9.533-5.152a.224.224,0,0,0,.093-.205.558.558,0,0,0-.028-.168l-9.533,5.152a.554.554,0,0,1,.028.168.225.225,0,0,1-.094.205Z" transform="translate(-462.149 -571.124)" fill="#9a9a9a"/><path d="M463.857,563.644a.272.272,0,0,1,.29.064h0l4.427,2.79-9.479,5.263-4.486-2.905h0l-.014-.01h0c-.126-.089-.216-.083-.272-.051Z" transform="translate(-454.231 -563.621)" fill="#d6d8d8"/><path d="M543.031,622.778l9.479-5.263a.049.049,0,0,0,.022-.04.168.168,0,0,0-.035-.106l-9.479,5.263a.167.167,0,0,1,.035.106.049.049,0,0,1-.022.04Z" transform="translate(-538.117 -614.455)" fill="#e0e0e0"/><path d="M542.437,622.036l9.479-5.263a.165.165,0,0,0-.033-.034L542.4,622a.159.159,0,0,1,.033.034Z" transform="translate(-537.536 -613.86)" fill="#f3f3f3"/><path d="M542.348,621.959l9.479-5.263,0,0-9.479,5.263,0,0Z" transform="translate(-537.48 -613.816)" fill="#e0e0e0"/><path d="M452.92,658.724c-.177-.1-.321-.02-.321.183a.7.7,0,0,0,.319.553c.177.1.321.02.321-.183a.555.555,0,0,0-.028-.168l.069.048,4.166,2.684c.049.029.084.014.088-.031a.176.176,0,0,0-.071-.143l-4.5-2.915-.016-.011-.011-.008Z" transform="translate(-452.599 -653.528)" fill="#797979"/><g transform="translate(9.246 0.583)"><path d="M623.2,574.611a.044.044,0,0,0,0,.082l.4.252a.157.157,0,0,0,.142,0l.42-.225a.044.044,0,0,0,0-.082l-.4-.252a.157.157,0,0,0-.142,0Z" transform="translate(-623.17 -574.371)" fill="#eaeaea"/></g><g transform="translate(8.512 0.975)"><path d="M609.665,581.851a.044.044,0,0,0,0,.083l.4.252a.158.158,0,0,0,.143,0l.42-.225a.044.044,0,0,0,0-.082l-.4-.252a.156.156,0,0,0-.142,0Z" transform="translate(-609.634 -581.611)" fill="#eaeaea"/></g><g transform="translate(7.778 1.368)"><path d="M596.131,589.094a.044.044,0,0,0,0,.082l.4.252a.157.157,0,0,0,.142,0l.42-.225a.044.044,0,0,0,0-.083l-.4-.252a.157.157,0,0,0-.143,0Z" transform="translate(-596.1 -588.854)" fill="#eaeaea"/></g><g transform="translate(7.045 1.76)"><path d="M582.6,596.337a.044.044,0,0,0,0,.082l.4.251a.157.157,0,0,0,.142,0l.42-.225a.044.044,0,0,0,0-.082l-.4-.251a.157.157,0,0,0-.142,0Z" transform="translate(-582.567 -596.097)" fill="#eaeaea"/></g><g transform="translate(6.311 2.153)"><path d="M569.062,603.578a.044.044,0,0,0,0,.083l.4.251a.156.156,0,0,0,.143,0l.42-.225a.044.044,0,0,0,0-.082l-.4-.252a.158.158,0,0,0-.142,0Z" transform="translate(-569.031 -603.338)" fill="#eaeaea"/></g><g transform="translate(5.577 2.545)"><path d="M555.528,610.817a.044.044,0,0,0,0,.083l.4.252a.157.157,0,0,0,.143,0l.42-.225a.044.044,0,0,0,0-.082l-.4-.252a.157.157,0,0,0-.142,0Z" transform="translate(-555.497 -610.577)" fill="#eaeaea"/></g><g transform="translate(9.216 1.023)"><path d="M622.658,583.125a.044.044,0,0,0,0,.083l.4.252a.158.158,0,0,0,.142,0l1.154-.618a.043.043,0,0,0,0-.082l-.4-.252a.157.157,0,0,0-.142,0Z" transform="translate(-622.627 -582.493)" fill="#eaeaea"/></g><g transform="translate(8.482 1.808)"><path d="M609.122,597.216a.043.043,0,0,0,0,.082l.4.252a.156.156,0,0,0,.142,0l.421-.225c.04-.022.042-.058,0-.082l-.4-.252a.157.157,0,0,0-.143,0Z" transform="translate(-609.091 -596.976)" fill="#eaeaea"/></g><g transform="translate(7.749 2.201)"><path d="M595.59,604.459a.043.043,0,0,0,0,.082l.4.252a.156.156,0,0,0,.142,0l.42-.225a.044.044,0,0,0,0-.082l-.4-.252a.157.157,0,0,0-.142,0Z" transform="translate(-595.559 -604.219)" fill="#eaeaea"/></g><g transform="translate(7.015 2.593)"><path d="M582.055,611.7a.044.044,0,0,0,0,.083l.4.252a.157.157,0,0,0,.142,0l.42-.225a.043.043,0,0,0,0-.082l-.4-.252a.157.157,0,0,0-.142,0Z" transform="translate(-582.024 -611.46)" fill="#eaeaea"/></g><g transform="translate(6.282 2.985)"><path d="M568.52,618.939a.044.044,0,0,0,0,.083l.4.252a.157.157,0,0,0,.142,0l.421-.225a.044.044,0,0,0,0-.082l-.4-.252a.156.156,0,0,0-.142,0Z" transform="translate(-568.489 -618.699)" fill="#eaeaea"/></g><g transform="translate(9.928 1.468)"><path d="M635.786,591.335a.044.044,0,0,0,0,.082l.4.252a.158.158,0,0,0,.143,0l1.154-.617a.044.044,0,0,0,0-.083l-.4-.252a.157.157,0,0,0-.142,0Z" transform="translate(-635.755 -590.702)" fill="#eaeaea"/></g><g transform="translate(9.194 2.253)"><path d="M622.251,605.425a.044.044,0,0,0,0,.083l.4.252a.157.157,0,0,0,.142,0l.421-.225a.044.044,0,0,0,0-.083l-.4-.252a.158.158,0,0,0-.143,0Z" transform="translate(-622.22 -605.185)" fill="#eaeaea"/></g><g transform="translate(8.46 2.645)"><path d="M608.718,612.665a.044.044,0,0,0,0,.082l.4.252a.157.157,0,0,0,.142,0l.42-.225a.044.044,0,0,0,0-.082l-.4-.252a.156.156,0,0,0-.142,0Z" transform="translate(-608.687 -612.426)" fill="#eaeaea"/></g><g transform="translate(7.727 3.038)"><path d="M595.183,619.908a.044.044,0,0,0,0,.082l.4.252a.159.159,0,0,0,.143,0l.42-.225a.044.044,0,0,0,0-.083l-.4-.252a.157.157,0,0,0-.142,0Z" transform="translate(-595.152 -619.668)" fill="#eaeaea"/></g><g transform="translate(4.844 2.938)"><path d="M541.993,618.06a.044.044,0,0,0,0,.082l.4.252a.157.157,0,0,0,.142,0l.421-.225a.044.044,0,0,0,0-.082l-.4-.252a.157.157,0,0,0-.143,0Z" transform="translate(-541.962 -617.821)" fill="#eaeaea"/></g><g transform="translate(5.548 3.378)"><path d="M554.985,626.183a.044.044,0,0,0,0,.082l.4.252a.157.157,0,0,0,.142,0l.42-.225c.04-.022.042-.059,0-.083l-.4-.252a.158.158,0,0,0-.143,0Z" transform="translate(-554.954 -625.943)" fill="#eaeaea"/></g><g transform="translate(6.993 3.43)"><path d="M581.649,627.149a.044.044,0,0,0,0,.082l.4.252a.158.158,0,0,0,.143,0l.42-.225a.044.044,0,0,0,0-.082l-.4-.252a.157.157,0,0,0-.142,0Z" transform="translate(-581.617 -626.909)" fill="#eaeaea"/></g><g transform="translate(6.26 3.823)"><path d="M568.115,634.39a.044.044,0,0,0,0,.082l.4.252a.157.157,0,0,0,.143,0l.421-.225a.044.044,0,0,0,0-.082l-.4-.252a.157.157,0,0,0-.142,0Z" transform="translate(-568.083 -634.15)" fill="#eaeaea"/></g><g transform="translate(9.872 1.892)"><path d="M634.758,599.545a.044.044,0,0,0,0,.082l.4.252a.157.157,0,0,0,.142,0l1.888-1.01a.044.044,0,0,0,0-.082l-.4-.252a.157.157,0,0,0-.142,0Z" transform="translate(-634.727 -598.52)" fill="#eaeaea"/></g><g transform="translate(9.138 3.069)"><path d="M621.226,620.487a.044.044,0,0,0,0,.082l.4.252a.158.158,0,0,0,.142,0l.421-.225a.044.044,0,0,0,0-.082l-.4-.252a.157.157,0,0,0-.142,0Z" transform="translate(-621.195 -620.247)" fill="#eaeaea"/></g><g transform="translate(8.405 3.462)"><path d="M607.691,627.727a.044.044,0,0,0,0,.083l.4.251a.156.156,0,0,0,.142,0l.421-.225a.044.044,0,0,0,0-.082l-.4-.252a.157.157,0,0,0-.142,0Z" transform="translate(-607.66 -627.487)" fill="#eaeaea"/></g><g transform="translate(7.671 3.854)"><path d="M594.157,634.967c-.04.022-.042.058,0,.082l.4.252a.157.157,0,0,0,.143,0l.421-.225a.044.044,0,0,0,0-.083l-.4-.252a.157.157,0,0,0-.142,0Z" transform="translate(-594.125 -634.728)" fill="#eaeaea"/></g><g transform="translate(6.938 4.247)"><path d="M580.622,642.211a.044.044,0,0,0,0,.082l.4.252a.157.157,0,0,0,.142,0l.421-.225a.044.044,0,0,0,0-.083l-.4-.251a.157.157,0,0,0-.142,0Z" transform="translate(-580.591 -641.971)" fill="#eaeaea"/></g><g transform="translate(4.11 3.33)"><path d="M528.46,625.3a.044.044,0,0,0,0,.082l.4.252a.157.157,0,0,0,.142,0l.421-.225a.044.044,0,0,0,0-.082l-.4-.252a.157.157,0,0,0-.142,0Z" transform="translate(-528.429 -625.062)" fill="#eaeaea"/></g><g transform="translate(4.814 3.771)"><path d="M541.452,633.426a.044.044,0,0,0,0,.082l.4.252a.157.157,0,0,0,.142,0l.421-.225a.044.044,0,0,0,0-.082l-.4-.251a.157.157,0,0,0-.142,0Z" transform="translate(-541.421 -633.186)" fill="#eaeaea"/></g><g transform="translate(5.526 4.215)"><path d="M554.58,641.633a.043.043,0,0,0,0,.082l.4.252a.157.157,0,0,0,.142,0l.421-.225a.044.044,0,0,0,0-.083l-.4-.252a.157.157,0,0,0-.142,0Z" transform="translate(-554.549 -641.393)" fill="#eaeaea"/></g><g transform="translate(6.204 4.639)"><path d="M567.089,649.452a.044.044,0,0,0,0,.083l.4.252a.156.156,0,0,0,.142,0l.421-.225a.044.044,0,0,0,0-.082l-.4-.252a.157.157,0,0,0-.142,0Z" transform="translate(-567.058 -649.212)" fill="#eaeaea"/></g><g transform="translate(12.005 2.308)"><path d="M674.107,606.436a.044.044,0,0,0,0,.083l.4.252a.158.158,0,0,0,.143,0l.42-.225a.044.044,0,0,0,0-.082l-.4-.252a.157.157,0,0,0-.142,0Z" transform="translate(-674.076 -606.196)" fill="#eaeaea"/></g><g transform="translate(11.271 2.7)"><path d="M660.572,613.678a.044.044,0,0,0,0,.083l.4.252a.157.157,0,0,0,.143,0l.421-.225a.044.044,0,0,0,0-.083l-.4-.252a.157.157,0,0,0-.142,0Z" transform="translate(-660.541 -613.438)" fill="#eaeaea"/></g><g transform="translate(10.537 3.093)"><path d="M647.036,620.92a.044.044,0,0,0,0,.082l.4.252a.158.158,0,0,0,.143,0l.42-.225a.044.044,0,0,0,0-.083l-.4-.251a.157.157,0,0,0-.142,0Z" transform="translate(-647.005 -620.68)" fill="#eaeaea"/></g><g transform="translate(6.869 3.485)"><path d="M579.365,629.732a.044.044,0,0,0,0,.082l.4.252a.158.158,0,0,0,.142,0l3.355-1.8a.044.044,0,0,0,0-.083l-.4-.252a.157.157,0,0,0-.142,0Z" transform="translate(-579.334 -627.922)" fill="#eaeaea"/></g><g transform="translate(3.377 3.723)"><path d="M514.924,632.543a.044.044,0,0,0,0,.083l.4.252a.157.157,0,0,0,.142,0l.421-.225a.043.043,0,0,0,0-.082l-.4-.252a.157.157,0,0,0-.143,0Z" transform="translate(-514.893 -632.303)" fill="#eaeaea"/></g><g transform="translate(2.643 4.115)"><path d="M501.39,639.785a.044.044,0,0,0,0,.082l.4.252a.157.157,0,0,0,.142,0l.421-.225a.044.044,0,0,0,0-.083l-.4-.252a.157.157,0,0,0-.143,0Z" transform="translate(-501.359 -639.545)" fill="#eaeaea"/></g><g transform="translate(1.176 4.508)"><path d="M474.324,647.42a.044.044,0,0,0,0,.083l.4.252a.157.157,0,0,0,.142,0l1.154-.618a.044.044,0,0,0,0-.082l-.4-.252a.158.158,0,0,0-.142,0Z" transform="translate(-474.293 -646.788)" fill="#eaeaea"/></g><g transform="translate(4.081 4.163)"><path d="M527.917,640.665a.044.044,0,0,0,0,.083l.4.251a.157.157,0,0,0,.143,0l.42-.225a.044.044,0,0,0,0-.082l-.4-.252a.156.156,0,0,0-.142,0Z" transform="translate(-527.886 -640.425)" fill="#eaeaea"/></g><g transform="translate(3.347 4.556)"><path d="M514.382,647.907a.044.044,0,0,0,0,.082l.4.252a.157.157,0,0,0,.142,0l.42-.225c.04-.022.042-.059,0-.083l-.4-.252a.157.157,0,0,0-.143,0Z" transform="translate(-514.351 -647.667)" fill="#eaeaea"/></g><g transform="translate(2.614 4.948)"><path d="M500.85,655.15a.043.043,0,0,0,0,.082l.4.252a.157.157,0,0,0,.142,0l.421-.225a.043.043,0,0,0,0-.082l-.4-.252a.156.156,0,0,0-.142,0Z" transform="translate(-500.819 -654.91)" fill="#eaeaea"/></g><g transform="translate(1.88 5.341)"><path d="M487.315,662.389a.044.044,0,0,0,0,.082l.4.252a.156.156,0,0,0,.142,0l.421-.225a.044.044,0,0,0,0-.082l-.4-.252a.157.157,0,0,0-.142,0Z" transform="translate(-487.284 -662.149)" fill="#eaeaea"/></g><g transform="translate(4.792 4.608)"><path d="M541.046,648.873a.044.044,0,0,0,0,.083l.4.252a.158.158,0,0,0,.143,0l.421-.225a.044.044,0,0,0,0-.083l-.4-.252a.157.157,0,0,0-.142,0Z" transform="translate(-541.015 -648.633)" fill="#eaeaea"/></g><g transform="translate(4.059 5)"><path d="M527.511,656.116a.044.044,0,0,0,0,.082l.4.252a.158.158,0,0,0,.143,0l.42-.225a.044.044,0,0,0,0-.083l-.4-.252a.158.158,0,0,0-.142,0Z" transform="translate(-527.48 -655.876)" fill="#eaeaea"/></g><g transform="translate(2.592 5.393)"><path d="M500.444,663.75a.044.044,0,0,0,0,.082l.4.252a.158.158,0,0,0,.143,0l1.154-.618a.044.044,0,0,0,0-.082l-.4-.252a.157.157,0,0,0-.142,0Z" transform="translate(-500.413 -663.117)" fill="#eaeaea"/></g><g transform="translate(5.47 5.032)"><path d="M553.553,656.694a.044.044,0,0,0,0,.083l.4.252a.158.158,0,0,0,.142,0l.42-.225a.044.044,0,0,0,0-.082l-.4-.252a.158.158,0,0,0-.142,0Z" transform="translate(-553.522 -656.454)" fill="#eaeaea"/></g><g transform="translate(4.737 5.424)"><path d="M540.019,663.935a.044.044,0,0,0,0,.082l.4.252a.157.157,0,0,0,.142,0l.42-.225c.04-.022.042-.059,0-.083l-.4-.252a.157.157,0,0,0-.142,0Z" transform="translate(-539.988 -663.695)" fill="#eaeaea"/></g><g transform="translate(3.27 5.817)"><path d="M512.951,671.57a.044.044,0,0,0,0,.083l.4.251a.156.156,0,0,0,.142,0l1.154-.617a.044.044,0,0,0,0-.083l-.4-.251a.157.157,0,0,0-.142,0Z" transform="translate(-512.92 -670.938)" fill="#eaeaea"/></g><g transform="translate(6.136 5.448)"><path d="M565.83,664.369c-.04.022-.042.058,0,.083l.4.252a.158.158,0,0,0,.143,0l.42-.225a.044.044,0,0,0,0-.083l-.4-.252a.158.158,0,0,0-.142,0Z" transform="translate(-565.799 -664.13)" fill="#eaeaea"/></g><g transform="translate(3.935 6.233)"><path d="M525.228,679.245a.044.044,0,0,0,0,.082l.4.252a.158.158,0,0,0,.142,0l1.154-.618a.044.044,0,0,0,0-.082l-.4-.252a.156.156,0,0,0-.142,0Z" transform="translate(-525.197 -678.613)" fill="#eaeaea"/></g><path d="M633.693,580.411l.42-.225a.05.05,0,0,0,.031-.04l0,.082a.051.051,0,0,1-.031.041l-.421.225Z" transform="translate(-623.874 -579.249)" fill="#9a9a9a"/><path d="M623.127,579.541a.05.05,0,0,0,.028.042l.4.252a.157.157,0,0,0,.142,0l0,.082a.157.157,0,0,1-.142,0l-.4-.252a.05.05,0,0,1-.028-.042Z" transform="translate(-613.882 -578.678)" fill="#737373"/><path d="M620.161,587.651l.42-.225a.05.05,0,0,0,.031-.041l0,.082a.051.051,0,0,1-.031.041l-.42.225Z" transform="translate(-611.077 -586.098)" fill="#9a9a9a"/><path d="M609.591,586.787a.05.05,0,0,0,.028.042l.4.252a.158.158,0,0,0,.143,0l0,.082a.157.157,0,0,1-.142,0l-.4-.251a.051.051,0,0,1-.028-.042Z" transform="translate(-601.08 -585.531)" fill="#737373"/><path d="M606.622,594.893l.421-.225a.051.051,0,0,0,.031-.041l0,.082a.05.05,0,0,1-.031.041l-.42.225Z" transform="translate(-598.272 -592.946)" fill="#9a9a9a"/><path d="M596.059,594.025a.05.05,0,0,0,.028.042l.4.252a.157.157,0,0,0,.142,0l0,.082a.156.156,0,0,1-.142,0l-.4-.251a.05.05,0,0,1-.028-.042Z" transform="translate(-588.281 -592.377)" fill="#737373"/><path d="M593.092,602.135l.42-.225a.05.05,0,0,0,.031-.041l0,.082a.051.051,0,0,1-.031.041l-.42.225Z" transform="translate(-585.475 -599.796)" fill="#9a9a9a"/><path d="M582.525,601.267a.051.051,0,0,0,.028.042l.4.251a.156.156,0,0,0,.142,0l0,.082a.157.157,0,0,1-.142,0l-.4-.252a.05.05,0,0,1-.028-.042Z" transform="translate(-575.48 -599.227)" fill="#737373"/><path d="M579.558,609.378l.42-.225a.051.051,0,0,0,.031-.041l0,.082a.069.069,0,0,1-.031.047l-.421.225Z" transform="translate(-572.675 -606.647)" fill="#9a9a9a"/><path d="M568.989,608.512a.05.05,0,0,0,.028.042l.4.251a.156.156,0,0,0,.143,0l0,.082a.157.157,0,0,1-.143,0l-.4-.251a.05.05,0,0,1-.028-.042Z" transform="translate(-562.678 -606.079)" fill="#737373"/><path d="M566.024,616.619l.42-.225a.05.05,0,0,0,.031-.04l0,.082a.05.05,0,0,1-.031.041l-.421.225Z" transform="translate(-559.874 -613.495)" fill="#9a9a9a"/><path d="M555.454,615.751a.051.051,0,0,0,.028.042l.4.251a.157.157,0,0,0,.142,0l0,.082a.157.157,0,0,1-.143,0l-.4-.252a.05.05,0,0,1-.028-.042Z" transform="translate(-549.877 -612.925)" fill="#737373"/><path d="M633.15,588.923l1.154-.618a.05.05,0,0,0,.031-.041l0,.082a.051.051,0,0,1-.031.041l-1.154.617Z" transform="translate(-623.362 -586.929)" fill="#9a9a9a"/><path d="M622.586,594.912a.05.05,0,0,0,.028.042l.4.252a.157.157,0,0,0,.143,0l0,.082a.157.157,0,0,1-.142,0l-.4-.252a.05.05,0,0,1-.028-.042Z" transform="translate(-613.37 -593.216)" fill="#737373"/><path d="M619.612,603.013l.421-.225a.05.05,0,0,0,.031-.041l0,.082a.051.051,0,0,1-.031.041l-.421.225Z" transform="translate(-610.557 -600.626)" fill="#9a9a9a"/><path d="M609.048,602.15a.05.05,0,0,0,.028.042l.4.251a.156.156,0,0,0,.142,0l0,.082a.157.157,0,0,1-.142,0l-.4-.252a.05.05,0,0,1-.028-.042Z" transform="translate(-600.566 -600.062)" fill="#737373"/><path d="M606.079,610.256l.42-.225a.051.051,0,0,0,.031-.041l0,.082a.05.05,0,0,1-.031.041l-.42.225Z" transform="translate(-597.758 -607.478)" fill="#9a9a9a"/><path d="M595.514,609.391a.05.05,0,0,0,.028.042l.4.252a.156.156,0,0,0,.142,0l0,.082a.157.157,0,0,1-.142,0l-.4-.252a.05.05,0,0,1-.028-.042Z" transform="translate(-587.766 -606.91)" fill="#737373"/><path d="M592.546,617.5l.421-.225a.051.051,0,0,0,.031-.041l0,.082a.051.051,0,0,1-.031.04l-.421.225Z" transform="translate(-584.958 -614.327)" fill="#9a9a9a"/><path d="M581.982,616.633a.05.05,0,0,0,.028.042l.4.251a.157.157,0,0,0,.142,0l0,.082a.157.157,0,0,1-.142,0l-.4-.252a.05.05,0,0,1-.028-.042Z" transform="translate(-574.967 -613.76)" fill="#737373"/><path d="M579.015,624.738l.421-.225a.05.05,0,0,0,.031-.041l0,.082a.05.05,0,0,1-.031.041l-.42.225Z" transform="translate(-572.161 -621.174)" fill="#9a9a9a"/><path d="M568.448,623.876a.05.05,0,0,0,.028.042l.4.252a.157.157,0,0,0,.143,0l0,.082a.157.157,0,0,1-.143,0l-.4-.251a.05.05,0,0,1-.028-.042Z" transform="translate(-562.166 -620.61)" fill="#737373"/><path d="M646.284,597.134l1.154-.617a.05.05,0,0,0,.031-.041l0,.082a.05.05,0,0,1-.031.04l-1.154.617Z" transform="translate(-635.784 -594.695)" fill="#9a9a9a"/><path d="M635.714,603.118a.05.05,0,0,0,.028.042l.4.251a.158.158,0,0,0,.143,0l0,.082a.158.158,0,0,1-.143,0l-.4-.252a.05.05,0,0,1-.028-.042Z" transform="translate(-625.786 -600.977)" fill="#737373"/><path d="M632.744,611.226l.421-.225a.05.05,0,0,0,.031-.041l0,.082a.05.05,0,0,1-.031.041l-.421.225Z" transform="translate(-622.978 -608.394)" fill="#9a9a9a"/><path d="M622.177,610.359a.05.05,0,0,0,.028.042l.4.252a.157.157,0,0,0,.142,0l0,.082a.157.157,0,0,1-.142,0l-.4-.251a.05.05,0,0,1-.028-.042Z" transform="translate(-612.983 -607.826)" fill="#737373"/><path d="M619.212,618.468l.42-.225a.049.049,0,0,0,.031-.04l0,.082a.051.051,0,0,1-.031.041l-.42.225Z" transform="translate(-610.179 -615.245)" fill="#9a9a9a"/><path d="M608.644,617.6a.05.05,0,0,0,.028.042l.4.251a.157.157,0,0,0,.142,0l0,.082a.157.157,0,0,1-.142,0l-.4-.251a.05.05,0,0,1-.028-.042Z" transform="translate(-600.184 -614.673)" fill="#737373"/><path d="M605.679,625.709l.421-.225a.05.05,0,0,0,.031-.041l0,.082a.05.05,0,0,1-.031.041l-.42.225Z" transform="translate(-597.38 -622.093)" fill="#9a9a9a"/><path d="M595.109,624.843a.05.05,0,0,0,.028.042l.4.252a.158.158,0,0,0,.143,0l0,.082a.158.158,0,0,1-.143,0l-.4-.252a.05.05,0,0,1-.028-.042Z" transform="translate(-587.382 -621.525)" fill="#737373"/><path d="M552.487,623.857l.421-.225a.051.051,0,0,0,.031-.041l0,.082a.05.05,0,0,1-.031.041l-.421.225Z" transform="translate(-547.071 -620.34)" fill="#9a9a9a"/><path d="M541.92,622.992a.051.051,0,0,0,.028.042l.4.252a.157.157,0,0,0,.142,0l0,.082a.157.157,0,0,1-.142,0l-.4-.252a.05.05,0,0,1-.028-.042Z" transform="translate(-537.076 -619.774)" fill="#737373"/><path d="M565.475,631.979l.42-.225a.051.051,0,0,0,.031-.041l0,.082a.05.05,0,0,1-.031.041l-.421.225Z" transform="translate(-559.354 -628.023)" fill="#9a9a9a"/><path d="M554.912,631.118a.05.05,0,0,0,.028.042l.4.252a.157.157,0,0,0,.142,0l0,.082a.156.156,0,0,1-.142,0l-.4-.252a.05.05,0,0,1-.028-.042Z" transform="translate(-549.364 -627.459)" fill="#737373"/><path d="M592.146,632.95l.42-.225a.051.051,0,0,0,.031-.04l0,.082a.05.05,0,0,1-.031.04l-.42.225Z" transform="translate(-584.58 -628.941)" fill="#9a9a9a"/><path d="M581.575,632.085a.05.05,0,0,0,.028.042l.4.252a.158.158,0,0,0,.143,0l0,.082a.157.157,0,0,1-.143,0l-.4-.252a.049.049,0,0,1-.028-.042Z" transform="translate(-574.582 -628.374)" fill="#737373"/><path d="M578.608,640.19l.42-.225a.05.05,0,0,0,.031-.041l0,.082a.05.05,0,0,1-.031.041l-.42.225Z" transform="translate(-571.776 -635.788)" fill="#9a9a9a"/><path d="M568.042,639.325a.05.05,0,0,0,.028.042l.4.252a.157.157,0,0,0,.143,0l0,.082a.158.158,0,0,1-.143,0l-.4-.252a.05.05,0,0,1-.028-.042Z" transform="translate(-561.782 -635.222)" fill="#737373"/><path d="M645.25,605.345l1.888-1.01a.05.05,0,0,0,.031-.041l0,.082a.05.05,0,0,1-.031.041l-1.888,1.01Z" transform="translate(-634.806 -602.089)" fill="#9a9a9a"/><path d="M634.686,618.178a.05.05,0,0,0,.028.042l.4.252a.157.157,0,0,0,.142,0l0,.082a.156.156,0,0,1-.142,0l-.4-.252a.05.05,0,0,1-.028-.042Z" transform="translate(-624.814 -615.221)" fill="#737373"/><path d="M631.716,626.285l.421-.225a.05.05,0,0,0,.031-.041l0,.082a.05.05,0,0,1-.031.04l-.421.225Z" transform="translate(-622.005 -622.637)" fill="#9a9a9a"/><path d="M621.152,625.422a.05.05,0,0,0,.028.042l.4.252a.157.157,0,0,0,.142,0l0,.082a.157.157,0,0,1-.142,0l-.4-.252a.05.05,0,0,1-.028-.042Z" transform="translate(-612.014 -622.072)" fill="#737373"/><path d="M618.183,633.524l.421-.225a.051.051,0,0,0,.031-.041l0,.082a.05.05,0,0,1-.031.04l-.421.225Z" transform="translate(-609.206 -629.484)" fill="#9a9a9a"/><path d="M607.616,632.664a.05.05,0,0,0,.028.042l.4.251a.157.157,0,0,0,.142,0l0,.082a.158.158,0,0,1-.142,0l-.4-.252a.05.05,0,0,1-.028-.042Z" transform="translate(-599.211 -628.922)" fill="#737373"/><path d="M604.65,640.768l.42-.225a.051.051,0,0,0,.031-.04l0,.082a.05.05,0,0,1-.031.04l-.42.225Z" transform="translate(-596.407 -636.336)" fill="#9a9a9a"/><path d="M594.081,639.9a.05.05,0,0,0,.028.042l.4.252a.157.157,0,0,0,.142,0l0,.082a.157.157,0,0,1-.142,0l-.4-.252a.051.051,0,0,1-.028-.042Z" transform="translate(-586.41 -635.769)" fill="#737373"/><path d="M591.113,648.007l.421-.225a.05.05,0,0,0,.031-.041l0,.082a.051.051,0,0,1-.031.041l-.421.225Z" transform="translate(-583.603 -643.181)" fill="#9a9a9a"/><path d="M580.547,647.144a.051.051,0,0,0,.028.042l.4.251a.157.157,0,0,0,.142,0l0,.082a.157.157,0,0,1-.142,0l-.4-.252a.05.05,0,0,1-.028-.042Z" transform="translate(-573.61 -642.617)" fill="#737373"/><path d="M538.953,631.1l.421-.225a.051.051,0,0,0,.031-.041l0,.082a.05.05,0,0,1-.031.04l-.421.225Z" transform="translate(-534.27 -627.193)" fill="#9a9a9a"/><path d="M528.388,630.232a.05.05,0,0,0,.028.042l.4.252a.157.157,0,0,0,.142,0l0,.082a.157.157,0,0,1-.142,0l-.4-.252a.051.051,0,0,1-.028-.042Z" transform="translate(-524.278 -626.622)" fill="#737373"/><path d="M551.944,639.223l.421-.225a.05.05,0,0,0,.031-.04l0,.082a.05.05,0,0,1-.031.041l-.42.225Z" transform="translate(-546.557 -634.875)" fill="#9a9a9a"/><path d="M541.38,638.357a.05.05,0,0,0,.028.042l.4.252a.157.157,0,0,0,.142,0l0,.082a.157.157,0,0,1-.142,0l-.4-.252a.049.049,0,0,1-.028-.042Z" transform="translate(-536.566 -634.306)" fill="#737373"/><path d="M565.077,647.434l.421-.225a.051.051,0,0,0,.031-.041l0,.082a.05.05,0,0,1-.031.041l-.42.225Z" transform="translate(-558.978 -642.64)" fill="#9a9a9a"/><path d="M554.506,646.565a.05.05,0,0,0,.028.042l.4.252a.157.157,0,0,0,.142,0l0,.082a.158.158,0,0,1-.143,0l-.4-.252a.05.05,0,0,1-.028-.042Z" transform="translate(-548.98 -642.069)" fill="#737373"/><path d="M577.579,655.249l.42-.225a.05.05,0,0,0,.031-.041l0,.082a.051.051,0,0,1-.031.041l-.421.225Z" transform="translate(-570.803 -650.031)" fill="#9a9a9a"/><path d="M567.014,654.383a.05.05,0,0,0,.028.042l.4.252a.157.157,0,0,0,.142,0l0,.082a.157.157,0,0,1-.142,0l-.4-.251a.051.051,0,0,1-.028-.042Z" transform="translate(-560.81 -649.463)" fill="#737373"/><path d="M684.6,612.239l.42-.225a.05.05,0,0,0,.031-.04l0,.082a.05.05,0,0,1-.031.04l-.421.225Z" transform="translate(-672.022 -609.352)" fill="#9a9a9a"/><path d="M674.033,611.369a.05.05,0,0,0,.028.042l.4.251a.158.158,0,0,0,.143,0l0,.082a.157.157,0,0,1-.142,0l-.4-.252a.05.05,0,0,1-.028-.042Z" transform="translate(-662.028 -608.781)" fill="#737373"/><path d="M671.068,619.478l.421-.225a.05.05,0,0,0,.031-.041l0,.082a.05.05,0,0,1-.031.041l-.42.225Z" transform="translate(-659.224 -616.199)" fill="#9a9a9a"/><path d="M660.5,618.614a.05.05,0,0,0,.028.042l.4.252a.158.158,0,0,0,.143,0l0,.082a.158.158,0,0,1-.143,0l-.4-.252a.049.049,0,0,1-.028-.042Z" transform="translate(-649.228 -615.633)" fill="#737373"/><path d="M657.529,626.721l.42-.225a.052.052,0,0,0,.031-.041l0,.082a.05.05,0,0,1-.031.041l-.421.225Z" transform="translate(-646.419 -623.049)" fill="#9a9a9a"/><path d="M646.962,625.853a.051.051,0,0,0,.028.042l.4.252a.157.157,0,0,0,.143,0l0,.082a.157.157,0,0,1-.142,0l-.4-.252a.05.05,0,0,1-.028-.042Z" transform="translate(-636.425 -622.48)" fill="#737373"/><path d="M589.86,635.534l3.355-1.795a.05.05,0,0,0,.031-.041l0,.082a.051.051,0,0,1-.031.041l-3.355,1.795Z" transform="translate(-582.418 -629.9)" fill="#9a9a9a"/><path d="M579.293,662.061a.05.05,0,0,0,.028.042l.4.252a.157.157,0,0,0,.142,0l0,.082a.157.157,0,0,1-.143,0l-.4-.252a.05.05,0,0,1-.028-.042Z" transform="translate(-572.424 -656.725)" fill="#737373"/><path d="M525.419,638.343l.421-.225a.051.051,0,0,0,.031-.04l0,.082a.051.051,0,0,1-.031.041l-.421.225Z" transform="translate(-521.47 -634.042)" fill="#9a9a9a"/><path d="M514.853,637.479a.05.05,0,0,0,.028.042l.4.252a.157.157,0,0,0,.142,0l0,.082a.157.157,0,0,1-.143,0l-.4-.252a.049.049,0,0,1-.028-.042Z" transform="translate(-511.476 -633.476)" fill="#737373"/><path d="M511.882,645.585l.421-.225a.051.051,0,0,0,.031-.041l0,.082a.051.051,0,0,1-.031.041l-.421.225Z" transform="translate(-508.667 -640.891)" fill="#9a9a9a"/><path d="M501.317,644.716a.05.05,0,0,0,.028.042l.4.252a.157.157,0,0,0,.142,0l0,.082a.156.156,0,0,1-.142,0l-.4-.251a.05.05,0,0,1-.028-.042Z" transform="translate(-498.674 -640.32)" fill="#737373"/><path d="M484.815,653.217l1.154-.618a.051.051,0,0,0,.031-.041l0,.082a.051.051,0,0,1-.031.041l-1.154.617Z" transform="translate(-483.067 -647.738)" fill="#9a9a9a"/><path d="M474.25,659.2a.05.05,0,0,0,.028.042l.4.252a.157.157,0,0,0,.142,0l0,.082a.157.157,0,0,1-.142,0l-.4-.252a.05.05,0,0,1-.028-.042Z" transform="translate(-473.074 -654.019)" fill="#737373"/><path d="M538.41,646.463l.42-.225a.05.05,0,0,0,.031-.041l0,.082a.05.05,0,0,1-.031.041l-.42.225Z" transform="translate(-533.757 -641.721)" fill="#9a9a9a"/><path d="M527.844,645.6a.05.05,0,0,0,.028.042l.4.251a.157.157,0,0,0,.143,0l0,.082a.158.158,0,0,1-.143,0l-.4-.252a.049.049,0,0,1-.028-.042Z" transform="translate(-523.763 -641.158)" fill="#737373"/><path d="M524.872,653.7l.42-.225a.051.051,0,0,0,.031-.041l0,.082a.051.051,0,0,1-.031.041l-.42.225Z" transform="translate(-520.953 -648.57)" fill="#9a9a9a"/><path d="M514.31,652.84a.05.05,0,0,0,.028.042l.4.252a.157.157,0,0,0,.142,0l0,.082a.157.157,0,0,1-.142,0l-.4-.251a.05.05,0,0,1-.028-.042Z" transform="translate(-510.963 -648.004)" fill="#737373"/><path d="M511.341,660.947l.421-.225a.05.05,0,0,0,.031-.041l0,.082a.05.05,0,0,1-.031.041l-.421.225Z" transform="translate(-508.155 -655.42)" fill="#9a9a9a"/><path d="M500.775,660.081a.05.05,0,0,0,.028.042l.4.252a.157.157,0,0,0,.142,0l0,.082a.156.156,0,0,1-.142,0l-.4-.251a.05.05,0,0,1-.028-.042Z" transform="translate(-498.162 -654.853)" fill="#737373"/><path d="M497.807,668.189l.421-.225a.05.05,0,0,0,.031-.041l0,.082a.051.051,0,0,1-.031.04l-.42.225Z" transform="translate(-495.355 -662.269)" fill="#9a9a9a"/><path d="M487.242,667.325a.05.05,0,0,0,.028.042l.4.252a.156.156,0,0,0,.142,0l0,.082a.157.157,0,0,1-.142,0l-.4-.252a.05.05,0,0,1-.028-.042Z" transform="translate(-485.362 -661.704)" fill="#737373"/><path d="M551.543,654.675l.421-.225a.05.05,0,0,0,.031-.04l0,.082a.05.05,0,0,1-.031.04l-.421.225Z" transform="translate(-546.178 -649.489)" fill="#9a9a9a"/><path d="M540.972,653.81a.05.05,0,0,0,.028.042l.4.252a.158.158,0,0,0,.143,0l0,.082a.158.158,0,0,1-.143,0l-.4-.252a.05.05,0,0,1-.028-.042Z" transform="translate(-536.18 -648.921)" fill="#737373"/><path d="M538.005,661.915l.421-.225a.051.051,0,0,0,.031-.041l0,.082a.05.05,0,0,1-.031.041L538,662Z" transform="translate(-533.374 -656.336)" fill="#9a9a9a"/><path d="M527.438,661.049a.05.05,0,0,0,.028.042l.4.252a.158.158,0,0,0,.143,0l0,.082a.156.156,0,0,1-.142,0l-.4-.251a.049.049,0,0,1-.028-.042Z" transform="translate(-523.379 -655.768)" fill="#737373"/><path d="M510.937,669.552l1.154-.618a.05.05,0,0,0,.031-.04l0,.082a.05.05,0,0,1-.031.04l-1.154.617Z" transform="translate(-507.773 -663.188)" fill="#9a9a9a"/><path d="M500.37,675.531a.05.05,0,0,0,.028.042l.4.252a.158.158,0,0,0,.143,0l0,.082a.157.157,0,0,1-.142,0l-.4-.251a.05.05,0,0,1-.028-.042Z" transform="translate(-497.779 -669.465)" fill="#737373"/><path d="M564.046,662.492l.42-.225a.05.05,0,0,0,.031-.04l0,.082a.05.05,0,0,1-.031.041l-.421.225Z" transform="translate(-558.002 -656.882)" fill="#9a9a9a"/><path d="M553.48,661.629a.05.05,0,0,0,.028.042l.4.252a.157.157,0,0,0,.142,0l0,.082a.157.157,0,0,1-.143,0l-.4-.252a.05.05,0,0,1-.028-.042Z" transform="translate(-548.01 -656.317)" fill="#737373"/><path d="M550.511,669.731l.421-.225a.051.051,0,0,0,.031-.041l0,.082a.051.051,0,0,1-.031.041l-.42.225Z" transform="translate(-545.202 -663.728)" fill="#9a9a9a"/><path d="M539.944,668.871a.05.05,0,0,0,.028.042l.4.252a.157.157,0,0,0,.142,0l0,.082a.157.157,0,0,1-.142,0l-.4-.252a.05.05,0,0,1-.028-.042Z" transform="translate(-535.208 -663.166)" fill="#737373"/><path d="M523.443,677.368l1.154-.617a.05.05,0,0,0,.031-.041l0,.082a.05.05,0,0,1-.031.041l-1.154.618Z" transform="translate(-519.6 -670.58)" fill="#9a9a9a"/><path d="M512.88,683.35a.05.05,0,0,0,.028.042l.4.251a.156.156,0,0,0,.142,0l0,.082a.158.158,0,0,1-.142,0l-.4-.252a.049.049,0,0,1-.028-.042Z" transform="translate(-509.61 -676.86)" fill="#737373"/><path d="M576.327,670.171l.421-.225a.051.051,0,0,0,.031-.041l0,.082a.051.051,0,0,1-.031.04l-.42.225Z" transform="translate(-569.619 -664.145)" fill="#9a9a9a"/><path d="M565.756,669.305a.05.05,0,0,0,.028.042l.4.252a.158.158,0,0,0,.143,0l0,.082a.158.158,0,0,1-.143,0l-.4-.252a.05.05,0,0,1-.028-.042Z" transform="translate(-559.62 -663.577)" fill="#737373"/><path d="M562.789,677.411l.421-.225a.051.051,0,0,0,.031-.041l0,.082a.051.051,0,0,1-.031.041l-.42.225Z" transform="translate(-556.814 -670.992)" fill="#9a9a9a"/><path d="M552.222,676.544a.05.05,0,0,0,.028.042l.4.252a.158.158,0,0,0,.143,0l0,.082a.157.157,0,0,1-.143,0l-.4-.251a.05.05,0,0,1-.028-.042Z" transform="translate(-546.82 -670.423)" fill="#737373"/><g transform="translate(5.402 5.84)"><path d="M552.3,671.61a.043.043,0,0,0,0,.082l.4.252a.158.158,0,0,0,.143,0l.42-.225a.044.044,0,0,0,0-.083l-.4-.252a.157.157,0,0,0-.142,0Z" transform="translate(-552.264 -671.37)" fill="#eaeaea"/></g><path d="M535.722,685.047l1.154-.618a.05.05,0,0,0,.031-.04l0,.082a.05.05,0,0,1-.031.041l-1.154.617Z" transform="translate(-531.215 -677.843)" fill="#9a9a9a"/><path d="M525.154,691.028a.05.05,0,0,0,.028.042l.4.252a.158.158,0,0,0,.143,0l0,.082a.157.157,0,0,1-.143,0l-.4-.252a.05.05,0,0,1-.028-.042Z" transform="translate(-521.219 -684.122)" fill="#737373"/></g><g transform="translate(19.118 2.469)"><g transform="translate(0)"><path d="M-865.022,46.6a3.348,3.348,0,0,0-.866.114,3.324,3.324,0,0,0-.806.335,3.358,3.358,0,0,0-.693.531,3.354,3.354,0,0,0-.531.693,3.325,3.325,0,0,0-.335.806,3.349,3.349,0,0,0-.114.866h.389a2.948,2.948,0,0,1,.1-.765,2.939,2.939,0,0,1,.3-.712,2.974,2.974,0,0,1,.47-.612,2.974,2.974,0,0,1,.612-.469,2.937,2.937,0,0,1,.712-.3,2.948,2.948,0,0,1,.765-.1V46.6Z" transform="translate(868.367 -46.591)" fill="url(#a)"/><path d="M-855.308,57.569a2.937,2.937,0,0,0-.712.3,2.973,2.973,0,0,0-.612.469,2.974,2.974,0,0,0-.47.612,2.941,2.941,0,0,0-.3.712,2.948,2.948,0,0,0-.1.765h0a2.948,2.948,0,0,0,.1.765,2.941,2.941,0,0,0,.3.712,2.976,2.976,0,0,0,.469.612l.275-.275a2.584,2.584,0,0,1-.408-.531,2.551,2.551,0,0,1-.257-.619,2.56,2.56,0,0,1-.088-.664h0a2.56,2.56,0,0,1,.088-.664,2.551,2.551,0,0,1,.257-.619,2.58,2.58,0,0,1,.408-.531,2.583,2.583,0,0,1,.531-.408,2.552,2.552,0,0,1,.619-.257,2.561,2.561,0,0,1,.664-.088v-.389A2.948,2.948,0,0,0-855.308,57.569Z" transform="translate(857.888 -57.07)" fill="url(#b)"/><path d="M-846.167,70.339a2.164,2.164,0,0,1,.218-.525,2.19,2.19,0,0,1,.346-.451,2.195,2.195,0,0,1,.451-.346,2.166,2.166,0,0,1,.525-.218,2.173,2.173,0,0,1,.564-.074v-.389a2.561,2.561,0,0,0-.664.088,2.552,2.552,0,0,0-.619.257,2.583,2.583,0,0,0-.531.408,2.583,2.583,0,0,0-.408.531,2.556,2.556,0,0,0-.257.619,2.562,2.562,0,0,0-.088.664h0a2.562,2.562,0,0,0,.088.664,2.556,2.556,0,0,0,.257.619,2.584,2.584,0,0,0,.408.531,2.583,2.583,0,0,0,.531.408,2.551,2.551,0,0,0,.619.257,2.561,2.561,0,0,0,.664.088v-.389a2.173,2.173,0,0,1-.564-.074,2.164,2.164,0,0,1-.525-.218,2.194,2.194,0,0,1-.451-.346,2.19,2.19,0,0,1-.346-.451,2.164,2.164,0,0,1-.218-.525,2.171,2.171,0,0,1-.074-.564h0A2.171,2.171,0,0,1-846.167,70.339Z" transform="translate(847.408 -67.549)" fill="url(#c)"/><path d="M-832.035,82.277a1.8,1.8,0,0,1-.284.37,1.8,1.8,0,0,1-.37.284,1.777,1.777,0,0,1-.431.179,1.784,1.784,0,0,1-.463.061h0a1.783,1.783,0,0,1-.463-.061,1.776,1.776,0,0,1-.431-.179,1.8,1.8,0,0,1-.37-.284,1.8,1.8,0,0,1-.284-.37,1.777,1.777,0,0,1-.179-.431,1.786,1.786,0,0,1-.061-.463h0a1.785,1.785,0,0,1,.061-.463,1.777,1.777,0,0,1,.179-.431,1.8,1.8,0,0,1,.284-.37,1.8,1.8,0,0,1,.37-.284,1.778,1.778,0,0,1,.431-.179,1.784,1.784,0,0,1,.463-.061v-.389a2.173,2.173,0,0,0-.564.074,2.166,2.166,0,0,0-.525.218,2.19,2.19,0,0,0-.451.346,2.19,2.19,0,0,0-.346.451,2.164,2.164,0,0,0-.218.525,2.171,2.171,0,0,0-.074.564h0a2.171,2.171,0,0,0,.074.564,2.164,2.164,0,0,0,.218.525,2.19,2.19,0,0,0,.346.451,2.19,2.19,0,0,0,.451.346,2.165,2.165,0,0,0,.525.218,2.174,2.174,0,0,0,.564.074h0a2.174,2.174,0,0,0,.564-.074,2.166,2.166,0,0,0,.525-.218,2.194,2.194,0,0,0,.451-.346,2.192,2.192,0,0,0,.346-.451Z" transform="translate(836.929 -78.029)" fill="url(#d)"/><path d="M-821.7,91.862a1.4,1.4,0,0,1-.048.362,1.394,1.394,0,0,1-.14.337,1.408,1.408,0,0,1-.222.29,1.409,1.409,0,0,1-.29.222,1.392,1.392,0,0,1-.337.14,1.4,1.4,0,0,1-.362.048h0a1.4,1.4,0,0,1-.362-.048,1.392,1.392,0,0,1-.337-.14,1.41,1.41,0,0,1-.29-.222,1.406,1.406,0,0,1-.222-.29,1.394,1.394,0,0,1-.14-.337,1.4,1.4,0,0,1-.048-.362h0a1.4,1.4,0,0,1,.048-.362,1.394,1.394,0,0,1,.14-.337,1.406,1.406,0,0,1,.222-.29,1.409,1.409,0,0,1,.29-.222,1.391,1.391,0,0,1,.337-.14,1.4,1.4,0,0,1,.362-.048v-.389a1.785,1.785,0,0,0-.463.061,1.777,1.777,0,0,0-.431.179,1.8,1.8,0,0,0-.37.284,1.8,1.8,0,0,0-.284.37,1.781,1.781,0,0,0-.179.431,1.783,1.783,0,0,0-.061.463h0a1.783,1.783,0,0,0,.061.463,1.782,1.782,0,0,0,.179.431,1.8,1.8,0,0,0,.284.37,1.8,1.8,0,0,0,.37.284,1.775,1.775,0,0,0,.431.179,1.785,1.785,0,0,0,.463.061h0a1.784,1.784,0,0,0,.463-.061,1.774,1.774,0,0,0,.431-.179,1.8,1.8,0,0,0,.37-.284,1.8,1.8,0,0,0,.284-.37,1.782,1.782,0,0,0,.179-.431,1.783,1.783,0,0,0,.061-.463Z" transform="translate(826.45 -88.508)" fill="url(#e)"/><path d="M-802.577,111.4a1.39,1.39,0,0,0-.14-.337,1.409,1.409,0,0,0-.222-.29,1.411,1.411,0,0,0-.29-.222,1.392,1.392,0,0,0-.337-.14,1.4,1.4,0,0,0-.362-.048h0a1.4,1.4,0,0,0-.362.048,1.39,1.39,0,0,0-.337.14,1.408,1.408,0,0,0-.29.222,1.407,1.407,0,0,0-.222.29,1.392,1.392,0,0,0-.14.337,1.4,1.4,0,0,0-.048.362h0a1.4,1.4,0,0,0,.048.362,1.392,1.392,0,0,0,.14.337,1.407,1.407,0,0,0,.222.29,1.408,1.408,0,0,0,.29.222,1.391,1.391,0,0,0,.337.14,1.4,1.4,0,0,0,.362.048h0a1.4,1.4,0,0,0,.362-.048,1.393,1.393,0,0,0,.337-.14,1.412,1.412,0,0,0,.29-.222,1.409,1.409,0,0,0,.222-.29,1.389,1.389,0,0,0,.14-.337,1.4,1.4,0,0,0,.048-.362h0A1.4,1.4,0,0,0-802.577,111.4Z" transform="translate(807.586 -108.07)" opacity="0.77" fill="url(#f)" style="mix-blend-mode:multiply;isolation:isolate"/><path d="M-811.273,101.98a1.389,1.389,0,0,0-.14-.337,1.41,1.41,0,0,0-.222-.29,1.407,1.407,0,0,0-.29-.222,1.391,1.391,0,0,0-.337-.14,1.4,1.4,0,0,0-.362-.048h0a1.4,1.4,0,0,0-.362.048,1.391,1.391,0,0,0-.337.14,1.407,1.407,0,0,0-.29.222,1.405,1.405,0,0,0-.222.29,1.384,1.384,0,0,0-.14.337,1.392,1.392,0,0,0-.048.362h0a1.392,1.392,0,0,0,.048.362,1.384,1.384,0,0,0,.14.337,1.4,1.4,0,0,0,.222.29,1.407,1.407,0,0,0,.29.222,1.392,1.392,0,0,0,.337.14,1.4,1.4,0,0,0,.362.048h0a1.4,1.4,0,0,0,.362-.048,1.392,1.392,0,0,0,.337-.14,1.406,1.406,0,0,0,.29-.222,1.408,1.408,0,0,0,.222-.29,1.389,1.389,0,0,0,.14-.337,1.4,1.4,0,0,0,.048-.362h0A1.4,1.4,0,0,0-811.273,101.98Z" transform="translate(815.97 -98.988)" fill="url(#g)"/><path d="M-802.766,110.887a1.069,1.069,0,0,0-.108-.258,1.083,1.083,0,0,0-.17-.222,1.08,1.08,0,0,0-.222-.17,1.066,1.066,0,0,0-.258-.108,1.071,1.071,0,0,0-.278-.037h0a1.07,1.07,0,0,0-.278.037,1.067,1.067,0,0,0-.259.108,1.079,1.079,0,0,0-.222.17,1.079,1.079,0,0,0-.17.222,1.069,1.069,0,0,0-.108.258,1.069,1.069,0,0,0-.037.278h0a1.068,1.068,0,0,0,.037.278,1.064,1.064,0,0,0,.108.258,1.079,1.079,0,0,0,.17.222,1.079,1.079,0,0,0,.222.17,1.067,1.067,0,0,0,.259.108,1.069,1.069,0,0,0,.278.037h0a1.071,1.071,0,0,0,.278-.037,1.066,1.066,0,0,0,.258-.108,1.08,1.08,0,0,0,.222-.17,1.083,1.083,0,0,0,.17-.222,1.069,1.069,0,0,0,.108-.258,1.073,1.073,0,0,0,.037-.278h0A1.074,1.074,0,0,0-802.766,110.887Z" transform="translate(807.147 -107.811)" fill="#f5f7f6"/><g transform="translate(3.533 0.101)"><path d="M-768.8,49.348l.175-.1-.175-.1v.09h-.846v.019h.846Z" transform="translate(769.643 -49.147)" fill="#f5f7f6"/><path d="M-768.8,60.066h-.846v.019h.846v.086l.175-.1-.175-.1Z" transform="translate(769.643 -59.583)" fill="#f5f7f6"/><path d="M-768.8,71.111h-.846v.019h.846v.09l.175-.1-.175-.1Z" transform="translate(769.643 -70.237)" fill="#f5f7f6"/><path d="M-768.8,82.4h-.846v.019h.846V82.5l.175-.1-.175-.1Z" transform="translate(769.643 -81.11)" fill="#f5f7f6"/><path d="M-768.8,93.8h-.846v.019h.846v.09l.175-.1-.175-.1Z" transform="translate(769.643 -92.114)" fill="#f5f7f6"/></g><text transform="translate(4.712 2.613)" fill="#f5f7f6" font-size="1" font-family="OpenSans-Semibold, Open Sans" font-weight="600"><tspan x="0" y="0">75%</tspan></text><text transform="translate(4.712 2.228)" fill="#f5f7f6" font-size="1" font-family="OpenSans-Semibold, Open Sans" font-weight="600"><tspan x="0" y="0">60%</tspan></text><text transform="translate(4.712 1.837)" fill="#f5f7f6" font-size="1" font-family="OpenSans-Semibold, Open Sans" font-weight="600"><tspan x="0" y="0">50%</tspan></text><text transform="translate(4.712 1.422)" fill="#f5f7f6" font-size="1" font-family="OpenSans-Semibold, Open Sans" font-weight="600"><tspan x="0" y="0">30%</tspan></text><text transform="translate(4.712 1)" fill="#f5f7f6" font-size="1" font-family="OpenSans-Semibold, Open Sans" font-weight="600"><tspan x="0" y="0">15%</tspan></text><text transform="translate(2.507 4.124)" fill="#193566" font-size="1" font-family="OpenSans-Bold, Open Sans" font-weight="700"><tspan x="0" y="0">TITLE HERE</tspan></text><text transform="translate(2.725 3.872)" fill="#193566" font-size="1" font-family="OpenSans, Open Sans"><tspan x="0" y="0">INFOGRAPHIC</tspan></text><g transform="translate(3.061 3.564)"><path d="M-779.179,148.611a.146.146,0,0,0-.183,0,.162.162,0,0,0-.056.133.243.243,0,0,0,.039.1.214.214,0,0,1,.036.085l0,.011h.144l0-.011a.214.214,0,0,1,.036-.086.244.244,0,0,0,.039-.1A.16.16,0,0,0-779.179,148.611Zm-.093.076a.063.063,0,0,0-.056.038.013.013,0,0,1-.012.008h-.005a.013.013,0,0,1-.007-.018.089.089,0,0,1,.08-.055.013.013,0,0,1,.014.013A.013.013,0,0,1-779.271,148.687Z" transform="translate(779.539 -148.483)" fill="#193566"/><path d="M-777.643,159.679h-.149a.013.013,0,0,1-.013-.013.013.013,0,0,1,.013-.013h.149a.013.013,0,0,1,.013.013A.013.013,0,0,1-777.643,159.679Z" transform="translate(777.985 -159.161)" fill="#193566"/><rect width="0.085" height="0.035" transform="translate(0.224 0.511)" fill="#193566"/><path d="M-775.8,145.988a.013.013,0,0,1-.013-.013v-.038a.013.013,0,0,1,.013-.013.013.013,0,0,1,.013.013v.038A.013.013,0,0,1-775.8,145.988Z" transform="translate(776.06 -145.923)" fill="#193566"/><path d="M-779.316,146.976a.014.014,0,0,1-.012-.007l-.019-.033a.013.013,0,0,1,0-.018.013.013,0,0,1,.018,0l.019.033a.014.014,0,0,1,0,.018Z" transform="translate(779.473 -146.881)" fill="#193566"/><path d="M-781.872,149.592l-.007,0-.033-.019a.013.013,0,0,1,0-.018.013.013,0,0,1,.018,0l.033.019a.014.014,0,0,1,0,.018A.013.013,0,0,1-781.872,149.592Z" transform="translate(781.951 -149.417)" fill="#193566"/><path d="M-782.777,153.135h-.038a.013.013,0,0,1-.013-.013.013.013,0,0,1,.013-.013h.038a.013.013,0,0,1,.013.013A.013.013,0,0,1-782.777,153.135Z" transform="translate(782.828 -152.851)" fill="#193566"/><path d="M-781.822,156.164a.013.013,0,0,1-.012-.007.013.013,0,0,1,0-.018l.033-.019a.013.013,0,0,1,.018,0,.013.013,0,0,1,0,.018l-.033.019Z" transform="translate(781.871 -155.754)" fill="#193566"/><path d="M-770.4,156.021l-.007,0-.033-.019a.013.013,0,0,1,0-.018.013.013,0,0,1,.018,0l.033.019a.013.013,0,0,1,0,.018A.014.014,0,0,1-770.4,156.021Z" transform="translate(770.894 -155.615)" fill="#193566"/><path d="M-769.632,152.969h-.038a.013.013,0,0,1-.013-.013.013.013,0,0,1,.013-.013h.038a.013.013,0,0,1,.013.013A.013.013,0,0,1-769.632,152.969Z" transform="translate(770.153 -152.691)" fill="#193566"/><path d="M-770.521,149.448a.013.013,0,0,1-.012-.007.014.014,0,0,1,0-.018l.033-.019a.013.013,0,0,1,.018,0,.014.014,0,0,1,0,.018l-.033.019Z" transform="translate(770.974 -149.278)" fill="#193566"/><path d="M-772.763,146.893l-.007,0a.013.013,0,0,1,0-.018l.019-.033a.014.014,0,0,1,.018,0,.014.014,0,0,1,0,.018l-.019.033A.014.014,0,0,1-772.763,146.893Z" transform="translate(773.136 -146.801)" fill="#193566"/></g></g><g transform="translate(5.684 0)"><g transform="translate(0 1.176)"><rect width="9.838" height="0.08" transform="translate(0 1.268)" fill="url(#h)"/><g transform="translate(0.044)"><path d="M-655.971,82.824h-1.976a.29.29,0,0,0-.29.29h0a.29.29,0,0,0,.29.29h.65a.148.148,0,0,1,.133.083l.124.251a.053.053,0,0,0,.1,0l.124-.251a.148.148,0,0,1,.133-.083h.717a.29.29,0,0,0,.29-.29h0A.29.29,0,0,0-655.971,82.824Z" transform="translate(658.237 -82.824)" fill="url(#i)"/><path d="M-629.083,112.992a.226.226,0,0,0-.226-.226.226.226,0,0,0-.226.226.226.226,0,0,0,.226.226A.226.226,0,0,0-629.083,112.992Z" transform="translate(630.561 -111.695)" fill="url(#j)"/><circle cx="0.119" cy="0.119" r="0.119" transform="translate(1.133 1.178)" fill="url(#k)"/><text transform="translate(0.479 1.073)" fill="#f5f7f6" font-size="1" font-family="OpenSans-Semibold, Open Sans" font-weight="600"><tspan x="0" y="0">DATA 2020</tspan></text></g><g transform="translate(1.877 1.071)"><path d="M-606.735,134h1.976a.29.29,0,0,0,.29-.29h0a.29.29,0,0,0-.29-.29h-.65a.148.148,0,0,1-.133-.083l-.124-.251a.053.053,0,0,0-.1,0l-.124.251a.148.148,0,0,1-.133.083h-.717a.29.29,0,0,0-.29.29h0A.29.29,0,0,0-606.735,134Z" transform="translate(607.025 -132.329)" fill="url(#l)"/><path d="M-577.871,112.992a.226.226,0,0,0-.226-.226.226.226,0,0,0-.226.226.226.226,0,0,0,.226.226A.226.226,0,0,0-577.871,112.992Z" transform="translate(579.349 -112.766)" fill="url(#m)"/><circle cx="0.119" cy="0.119" r="0.119" transform="translate(1.133 0.106)" fill="url(#k)"/><text transform="translate(0.457 2.188)" fill="#f5f7f6" font-size="1" font-family="OpenSans-Semibold, Open Sans" font-weight="600"><tspan x="0" y="0">DATA 2021</tspan></text></g><g transform="translate(3.586)"><path d="M-557,82.824h-1.976a.29.29,0,0,0-.29.29h0a.29.29,0,0,0,.29.29h.65a.148.148,0,0,1,.133.083l.124.251a.053.053,0,0,0,.1,0l.124-.251a.148.148,0,0,1,.133-.083H-557a.29.29,0,0,0,.29-.29h0A.29.29,0,0,0-557,82.824Z" transform="translate(559.262 -82.824)" fill="url(#o)"/><path d="M-530.107,112.992a.226.226,0,0,0-.226-.226.226.226,0,0,0-.226.226.226.226,0,0,0,.226.226A.226.226,0,0,0-530.107,112.992Z" transform="translate(531.585 -111.695)" fill="url(#p)"/><circle cx="0.119" cy="0.119" r="0.119" transform="translate(1.133 1.178)" fill="url(#k)"/><text transform="translate(0.479 1.073)" fill="#f5f7f6" font-size="1" font-family="OpenSans-Semibold, Open Sans" font-weight="600"><tspan x="0" y="0">DATA 2022</tspan></text></g><g transform="translate(7.293)"><path d="M-453.395,82.824h-1.976a.29.29,0,0,0-.29.29h0a.29.29,0,0,0,.29.29h.651a.148.148,0,0,1,.133.083l.124.251a.053.053,0,0,0,.1,0l.124-.251a.148.148,0,0,1,.133-.083h.717a.29.29,0,0,0,.29-.29h0A.29.29,0,0,0-453.395,82.824Z" transform="translate(455.661 -82.824)" fill="url(#r)"/><path d="M-426.507,112.992a.226.226,0,0,0-.226-.226.226.226,0,0,0-.226.226.226.226,0,0,0,.226.226A.226.226,0,0,0-426.507,112.992Z" transform="translate(427.985 -111.695)" fill="url(#s)"/><circle cx="0.119" cy="0.119" r="0.119" transform="translate(1.133 1.178)" fill="url(#k)"/><text transform="translate(0.479 1.073)" fill="#f5f7f6" font-size="1" font-family="OpenSans-Semibold, Open Sans" font-weight="600"><tspan x="0" y="0">DATA 2024</tspan></text></g><g transform="translate(5.418 1.071)"><path d="M-507.76,134h1.976a.29.29,0,0,0,.29-.29h0a.29.29,0,0,0-.29-.29h-.651a.148.148,0,0,1-.133-.083l-.124-.251a.053.053,0,0,0-.1,0l-.124.251a.148.148,0,0,1-.133.083h-.717a.29.29,0,0,0-.29.29h0A.29.29,0,0,0-507.76,134Z" transform="translate(508.05 -132.329)" fill="url(#u)"/><path d="M-478.9,112.992a.226.226,0,0,0-.226-.226.226.226,0,0,0-.226.226.226.226,0,0,0,.226.226A.226.226,0,0,0-478.9,112.992Z" transform="translate(480.374 -112.766)" fill="url(#v)"/><circle cx="0.119" cy="0.119" r="0.119" transform="translate(1.133 0.106)" fill="url(#k)"/><text transform="translate(0.457 2.188)" fill="#f5f7f6" font-size="1" font-family="OpenSans-Semibold, Open Sans" font-weight="600"><tspan x="0" y="0">DATA 2023</tspan></text></g></g><g transform="translate(0.487)"><text transform="translate(0 0.33)" fill="#f5faff" font-size="3.301" font-family="OpenSans-Light, Open Sans" font-weight="300"><tspan x="0.005" y="4">L</tspan></text><text transform="translate(0.238 1)" fill="#f5faff" font-size="1" font-family="OpenSans-Bold, Open Sans" font-weight="700"><tspan x="0" y="0">TITLE HERE</tspan></text></g><g transform="translate(2.276 4.017)"><text transform="translate(0 0.33)" fill="#f5faff" font-size="3.301" font-family="OpenSans-Light, Open Sans" font-weight="300"><tspan x="0.005" y="4">L</tspan></text><text transform="translate(0.238 1)" fill="#f5faff" font-size="1" font-family="OpenSans-Bold, Open Sans" font-weight="700"><tspan x="0" y="0">TITLE HERE</tspan></text></g><g transform="translate(4.03)"><text transform="translate(0 0.33)" fill="#f5faff" font-size="3.301" font-family="OpenSans-Light, Open Sans" font-weight="300"><tspan x="0.005" y="4">L</tspan></text><text transform="translate(0.238 1)" fill="#f5faff" font-size="1" font-family="OpenSans-Bold, Open Sans" font-weight="700"><tspan x="0" y="0">TITLE HERE</tspan></text></g><g transform="translate(7.727)"><text transform="translate(0 0.33)" fill="#f5faff" font-size="3.301" font-family="OpenSans-Light, Open Sans" font-weight="300"><tspan x="0.005" y="4">L</tspan></text><text transform="translate(0.238 1)" fill="#f5faff" font-size="1" font-family="OpenSans-Bold, Open Sans" font-weight="700"><tspan x="0" y="0">TITLE HERE</tspan></text></g><g transform="translate(5.819 4.017)"><text transform="translate(0 0.33)" fill="#f5faff" font-size="3.301" font-family="OpenSans-Light, Open Sans" font-weight="300"><tspan x="0.005" y="4">L</tspan></text><text transform="translate(0.238 1)" fill="#f5faff" font-size="1" font-family="OpenSans-Bold, Open Sans" font-weight="700"><tspan x="0" y="0">TITLE HERE</tspan></text></g><text transform="translate(1.16 3.802)" fill="#f5f7f6" font-size="1" font-family="OpenSans-Semibold, Open Sans" font-weight="600"><tspan x="0" y="0">A</tspan></text><text transform="translate(3.001 2.493)" fill="#f5f7f6" font-size="1" font-family="OpenSans-Semibold, Open Sans" font-weight="600"><tspan x="0" y="0">B</tspan></text><text transform="translate(4.722 3.802)" fill="#f5f7f6" font-size="1" font-family="OpenSans-Semibold, Open Sans" font-weight="600"><tspan x="0" y="0">C</tspan></text><text transform="translate(8.427 3.802)" fill="#f5f7f6" font-size="1" font-family="OpenSans-Semibold, Open Sans" font-weight="600"><tspan x="0" y="0">E</tspan></text><text transform="translate(6.566 2.493)" fill="#f5f7f6" font-size="1" font-family="OpenSans-Semibold, Open Sans" font-weight="600"><tspan x="0" y="0">D</tspan></text></g></g></g><g transform="translate(22.317 27.377)"><path d="M369.255,361.985c.217-3.377-2.624-6.308-6.344-6.547s-6.913,2.3-7.13,5.682,2.624,6.307,6.344,6.546S369.039,365.361,369.255,361.985Z" transform="translate(-355.77 -355.423)" fill="#2980b9"/><path d="M368.357,361.417a6.291,6.291,0,0,1-3.242,8.943c-2.576.773-4.894-.773-7.213-2.061a1.766,1.766,0,0,0-.176-.034,6.831,6.831,0,0,0,5.862,3.88c3.721.239,6.913-2.3,7.129-5.681A5.946,5.946,0,0,0,368.357,361.417Z" transform="translate(-357.233 -359.903)" fill="#135788"/></g><g transform="translate(13.717 10.059)"><path d="M362.643,348.393h1.418V346.9l-2.482-1.16a3.122,3.122,0,0,0-2.824-.014.861.861,0,0,0-.008,1.631l3.9,2.276Z" transform="translate(-348.961 -330.609)" fill="#031b2d"/><path d="M357.537,354.924l-.053.041a5.393,5.393,0,0,1-1.471.8,2.85,2.85,0,0,1-1.48.258h-.005c-.086-.01-.176-.025-.274-.044l-.073-.015a4.329,4.329,0,0,1-.552-.162l-.032-.011c-.18-.066-.362-.144-.542-.23a20.435,20.435,0,0,1-2.685-1.693l-.07-.048-.438-.3-.447-.306c-.715-.489-1.224-.843-1.224-.843-.476-.278-.69-.657-.581-1.014a.925.925,0,0,1,.266-.4l.021-.019,0,0a1.245,1.245,0,0,1,.252-.18l.017-.009a2.627,2.627,0,0,1,.359-.154h0a3.489,3.489,0,0,1,2.495.165l2.491,1.164c.2-.782-.019-1.4.392-1.361.569.053,2,.019,2.777.063a4.463,4.463,0,0,1,.328.989,13.8,13.8,0,0,0,.235,2.162A10.357,10.357,0,0,0,357.537,354.924Z" transform="translate(-341.049 -334.374)" fill="#022540"/><path d="M386.359,351.213c-.1-.167-.711-1.028-.711-1.028-.649.02-1.1.356-1.745.277-.079-.01-.174-.017-.281-.024a4.47,4.47,0,0,1,.328.989,12.412,12.412,0,0,0,.526,3.313l.024-.019a2.284,2.284,0,0,0,1.8-1.269A2.4,2.4,0,0,0,386.359,351.213Z" transform="translate(-367.987 -334.19)" fill="#001c32"/><g transform="translate(0 0)"><path d="M339.229,390.346a2.19,2.19,0,0,1-.435-.469.673.673,0,0,1-.093-.6,3.059,3.059,0,0,1,.931-.157,8.609,8.609,0,0,1,.865,0,8.766,8.766,0,0,0,2.525-.321,3.767,3.767,0,0,1,.466,1.057.849.849,0,0,1-.027.535,1.59,1.59,0,0,1-1.073.357c-.366.028-.8-.071-1.154-.018A2.958,2.958,0,0,1,339.229,390.346Z" transform="translate(-334.386 -363.055)" fill="#c2c2c2"/><path d="M338.756,389.1l-.014-.011a.615.615,0,0,1,.2-.907,1.816,1.816,0,0,1,.591-.063,8.618,8.618,0,0,1,.865,0,8.766,8.766,0,0,0,2.525-.321,3.761,3.761,0,0,1,.466,1.057.849.849,0,0,1-.027.535,1.588,1.588,0,0,1-1.073.357c-.366.028-.8-.071-1.154-.018A3.054,3.054,0,0,1,338.756,389.1Z" transform="translate(-334.358 -362.311)" fill="#fa4443"/><path d="M349.133,353.635l-.011.485-.15,6.66v.038l-.013.008a2.425,2.425,0,0,1-2.721.154,1.465,1.465,0,0,1-.327-.263l0-.124.2-7.858a2.506,2.506,0,0,1,.187-1.087,1.171,1.171,0,0,1,.275-.4l.076-.064,0,0a2.2,2.2,0,0,1,.252-.18,1.17,1.17,0,0,1,.376-.163h.005a8.648,8.648,0,0,1,1.659-.058c.309.1.037.443.02,1.1l.163,1.67Z" transform="translate(-339.801 -334.625)" fill="#022540"/><g transform="translate(3.846 0.003)"><path d="M363.691,311.551h.007c.185-.022,3.864-1.5,5.025-.647.164.121.4-.105.46-1.163,0,0-.175-1.094-.921-1.334-1.426-.459-4.613,1.213-4.613,1.213a7.6,7.6,0,0,0,.015,1.656C363.677,311.435,363.689,311.542,363.691,311.551Z" transform="translate(-356.873 -302.906)" fill="#5d750e"/><path d="M336.95,312.152c-.1-.253,1.386-.466,1.564-.473a10.23,10.23,0,0,1,1.788.3c.492.07,5.032-.586,5.511-.69,0,.015-1.347,2.046-1.347,2.072,0,0-3.178-.58-3.411-.567a3.978,3.978,0,0,0-.9.267,1.982,1.982,0,0,0-.468-.453.938.938,0,0,0-.657-.213,2.1,2.1,0,0,0-.645-.187c-.244-.014-.5.046-.743.047-.142,0-.594.044-.685-.089,0,.009.007.014,0-.005S336.945,312.144,336.95,312.152Z" transform="translate(-336.945 -305.118)" fill="#f5c2a6"/><path d="M343.589,316.2a1.6,1.6,0,0,1-.642.162,1.579,1.579,0,0,0-.631-.1,1.5,1.5,0,0,1-.631-.01c-.162-.069-.21-.218-.03-.306.209-.1.518.007.746-.071.244-.085.177-.224.014-.354.242.014.691-.108.871.072A2.328,2.328,0,0,1,343.589,316.2Z" transform="translate(-340.38 -308.258)" fill="#f5c2a6"/><path d="M365.29,308.2l.028.126.244,1.12a1.679,1.679,0,0,0,.329.254l0,0,.084-.026c.8-.251,1.783-.629,1.662-1.229,0-.005.01-.017.012-.023l-.213-.846-.1.029-1.446.422Z" transform="translate(-358.131 -302.341)" fill="#ffd6bf"/><g transform="translate(4.903 5.563)"><path d="M360.249,322.58a6.35,6.35,0,0,0,2.167-.039,4.726,4.726,0,0,0,2.278-.928,7.222,7.222,0,0,0,1.253-1.315c-.377-1.1-1.261-3.149-1.392-3.8-.382-1.894-.645-5.1-.9-6.143-.219-.879-.751-1.893-2.63-1.263l-2.111.965c-.468.4-2.6,1.237-2.554,2.562,0,0,.167.456.4,1.112.346.976.838,2.4,1.14,3.425.1.325.172.611.219.83.156.731.4,2.354.591,3.628A2.285,2.285,0,0,0,360.249,322.58Z" transform="translate(-356.357 -308.892)" fill="#b9cc12"/></g><g transform="translate(7.41 5.564)" opacity="0.2" style="mix-blend-mode:multiply;isolation:isolate"><path d="M371.977,316.5c-.382-1.894-.645-5.1-.9-6.143-.216-.869-.74-1.867-2.564-1.284a1.119,1.119,0,0,1,.625.356c1.693,2.184,1.8,4.86,1.966,7.426.055,1.256,1.037,2.457.6,3.713a2.866,2.866,0,0,1-3.222,1.693c-.739-.153-1.471-.292-2.195-.435a2.377,2.377,0,0,0,1.384.759,6.351,6.351,0,0,0,2.167-.039,4.726,4.726,0,0,0,2.278-.928,7.222,7.222,0,0,0,1.253-1.315C372.993,319.2,372.109,317.152,371.977,316.5Z" transform="translate(-366.286 -308.897)" fill="#b9cc12"/></g><path d="M359.239,295.7a1.774,1.774,0,0,0,.887.773,1.277,1.277,0,0,0,.424.08c.027,0,.054,0,.081,0a.738.738,0,0,0,.386-.119c.22-.155,1.1-.123,1.155-.387a.921.921,0,0,0,.017-.179,8.761,8.761,0,0,0-.775-2.185,2.642,2.642,0,0,0-1.1-1.362,3.611,3.611,0,0,0-1.388-.548l-.2.321-.162.263a7.829,7.829,0,0,1,.243,1.7A3.923,3.923,0,0,0,359.239,295.7Z" transform="translate(-353.109 -290.534)" fill="#ffd6bf"/><path d="M357.143,288.6c.094.337.383.272.606.542.256.312.309.611.565.923.093.113.313,1.184.635.931.474-.371.329,1.153,1.345,1.519a1.761,1.761,0,0,0,.787-.133.517.517,0,0,0,.234-.22l.012-.018a10.51,10.51,0,0,0,1.224-1.891,3.39,3.39,0,0,0,.026-1.421,2.275,2.275,0,0,0-.66-1.086,2.594,2.594,0,0,0-1.026-.71,3.85,3.85,0,0,0-2.255,0c-.1.026-.189.056-.279.087-.16.056-.318.124-.475.2-.064.045-.129.091-.194.14-.642.482-.576.88-.577.909A2.088,2.088,0,0,0,357.143,288.6Z" transform="translate(-352.017 -286.865)" fill="#2b0d04"/><path d="M364.567,301.554a.445.445,0,1,0,.7-.153A.517.517,0,0,0,364.567,301.554Z" transform="translate(-357.459 -297.668)" fill="#ffd6bf"/></g><path d="M366.226,288.937a3.069,3.069,0,0,1-.537,2.663.77.77,0,0,0-.2.376.221.221,0,0,0,0,.066,10.527,10.527,0,0,0,1.114-1.959,3.4,3.4,0,0,0-.056-1.42,2.274,2.274,0,0,0-.721-1.046,2.592,2.592,0,0,0-1.065-.65,3.85,3.85,0,0,0-2.251.134,5.233,5.233,0,0,1,1.779-.026A2.685,2.685,0,0,1,366.226,288.937Z" transform="translate(-352.211 -286.853)" fill="#2b0d04" opacity="0.3" style="mix-blend-mode:screen;isolation:isolate"/><path d="M346.241,318.706a1.739,1.739,0,0,0-.454-.429,1.2,1.2,0,0,0-1.4.176l-3.574,2.915s-.731.895-.665,1.278a.971.971,0,0,0,.14.362,1.247,1.247,0,0,0,.709.255c.113.007.087.079.186.145,1.151-.564,4.653-2.308,4.653-2.308h0A1.863,1.863,0,0,0,346.241,318.706Z" transform="translate(-335.487 -310.223)" fill="#ffd6bf"/><path d="M346.543,320.425l2.627-1.972a1.2,1.2,0,0,1,1.4-.176,1.738,1.738,0,0,1,.454.429,1.863,1.863,0,0,1-.41,2.393h0l-2.929,1.707A3.116,3.116,0,0,1,346.543,320.425Z" transform="translate(-340.273 -310.223)" fill="#5d750e"/><path d="M354.055,318.707a1.739,1.739,0,0,0-.454-.429.977.977,0,0,0-.846-.108,1,1,0,0,1,.775.445c.328.71.546,1.693,0,2.13-.939.716-2.208,1.029-2.936,1.959.04.036.081.071.122.105l2.929-1.707h0A1.863,1.863,0,0,0,354.055,318.707Z" transform="translate(-343.3 -310.224)" fill="#b9cc12" style="mix-blend-mode:multiply;isolation:isolate"/><path d="M321.719,321.683c.01-.14.086-.251.226-.155a4.141,4.141,0,0,0,1.159.653c.07.009.319.109.355-.191a4.152,4.152,0,0,0-.054-.564c-.032-.261.218-.25.255-.056a2.109,2.109,0,0,0,.148.509c.141.238.051.581.1.715.017.044.1.1.1.09.4.126,3.378,1.044,3.378,1.044.592.358,1.174.385.817.974s-.629,1.27-1.344,1.051a7.573,7.573,0,0,1-1.9-1.137,8.548,8.548,0,0,1-.8-.472c-.571-.371-1.181-.663-1.752-1.033a1.783,1.783,0,0,1-.491-.347A2.821,2.821,0,0,1,321.719,321.683Z" transform="translate(-321.719 -312.546)" fill="#ffd6bf"/></g><path d="M385.7,361.284l-.051-.234A1.341,1.341,0,0,1,385.7,361.284Z" transform="translate(-369.504 -342.311)" fill="#041523"/><path d="M357.255,363.355l-.053.041a5.394,5.394,0,0,1-1.471.8,2.85,2.85,0,0,1-1.48.258h-.005c-.086-.01-.176-.025-.274-.044l-.073-.015a4.325,4.325,0,0,1-.552-.162l-.032-.011c-.18-.066-.362-.144-.542-.23a20.436,20.436,0,0,1-2.685-1.693l-.15,6.66c0,.015-.009.031-.014.046a2.425,2.425,0,0,1-2.721.154c.477-.516,1.445-.3,1.92-.828a1.584,1.584,0,0,0,.3-1.01c.075-1.654-.192-3.322.038-4.962a1.238,1.238,0,0,1,.117-.406.435.435,0,0,1,.249-.225.42.42,0,0,1,.264.008,1.338,1.338,0,0,1,.4.263,9.669,9.669,0,0,0,2.171,1.4,4.817,4.817,0,0,0,1.77.5,3.066,3.066,0,0,0,1.965-.535,1.874,1.874,0,0,0,.563-1.16A10.375,10.375,0,0,0,357.255,363.355Z" transform="translate(-340.767 -342.804)" fill="#041523" opacity="0.4"/></g></g></g></svg>