<svg xmlns="http://www.w3.org/2000/svg" xmlns:xlink="http://www.w3.org/1999/xlink" width="59.44" height="41" viewBox="0 0 59.44 41">
  <defs>
    <linearGradient id="linear-gradient" x1="1.345" y1="0.573" x2="-0.191" y2="0.44" gradientUnits="objectBoundingBox">
      <stop offset="0" stop-color="#a6665e"/>
      <stop offset="0.995" stop-color="#b07849"/>
    </linearGradient>
    <linearGradient id="linear-gradient-2" x1="1.505" y1="0.586" x2="-0.322" y2="0.43" gradientUnits="objectBoundingBox">
      <stop offset="0" stop-color="#c98981"/>
      <stop offset="0.995" stop-color="#d49868"/>
    </linearGradient>
    <linearGradient id="linear-gradient-3" y1="0.5" x2="1" y2="0.5" gradientUnits="objectBoundingBox">
      <stop offset="0" stop-color="#784a43"/>
      <stop offset="0.995" stop-color="#8f603b"/>
    </linearGradient>
    <linearGradient id="linear-gradient-4" x1="0" y1="0.5" x2="1" y2="0.5" xlink:href="#linear-gradient-2"/>
  </defs>
  <g id="mo_btn1-3" transform="translate(-2562.09 263.463)">
    <g id="组_9529" data-name="组 9529">
      <path id="路径_7714" data-name="路径 7714" d="M2562.488-244.33c-.475,1.053-.479,5.477,0,7.145l33.537-22.891-.01-3.326Z" fill="#895044"/>
      <g id="组_9506" data-name="组 9506">
        <g id="组_9504" data-name="组 9504">
          <path id="路径_7715" data-name="路径 7715" d="M2587.988-222.463l-25.5-14.722,33.537-22.891,25.5,18.171Z" fill="#a6665e"/>
        </g>
        <g id="组_9505" data-name="组 9505">
          <path id="路径_7716" data-name="路径 7716" d="M2586.879-228.7l-19.694-11.37.146-.085a.587.587,0,0,0,0-1.111l-.146-.085,27.732-16.011.146.085a2.133,2.133,0,0,0,1.925,0l.146-.085,19.694,11.371-.146.084a.587.587,0,0,0,0,1.111l.146.085L2589.1-228.7l-.146-.084a2.127,2.127,0,0,0-1.925,0Zm-19.118-11.375,19.126,11.042a2.865,2.865,0,0,1,2.2,0l27.164-15.683a.719.719,0,0,1,0-1.27l-19.126-11.043a2.856,2.856,0,0,1-2.2,0l-27.164,15.683A.72.72,0,0,1,2567.761-240.078Z" fill="#deb447"/>
        </g>
      </g>
      <g id="组_9507" data-name="组 9507">
        <path id="路径_7717" data-name="路径 7717" d="M2588.022-230.43v7.092l-23.873-13.783v0l-.7-.4a29.707,29.707,0,0,1-.257-6.4,1.957,1.957,0,0,1,.257-.693Z" fill="#fce8e0"/>
      </g>
      <path id="路径_7718" data-name="路径 7718" d="M2570.725-234.3c2.7,1.527,5.378,3.082,8.067,4.622,2.678,1.559,5.366,3.1,8.036,4.675-2.7-1.526-5.378-3.081-8.067-4.622C2576.083-231.18,2573.4-232.723,2570.725-234.3Z" fill="#eccaba"/>
      <g id="组_9508" data-name="组 9508">
        <path id="路径_7719" data-name="路径 7719" d="M2620.356-242.005l-24.576-17.717a4.861,4.861,0,0,1,0-3.565l24.576,14.189Z" fill="#fce8e0"/>
      </g>
      <g id="组_9526" data-name="组 9526">
        <g id="组_9509" data-name="组 9509">
          <path id="路径_7720" data-name="路径 7720" d="M2587.988-229.608l-25.5-14.722,32.795-18.934a1.487,1.487,0,0,1,1.485,0l24.757,14.293Z" fill="url(#linear-gradient)"/>
        </g>
        <g id="组_9510" data-name="组 9510">
          <path id="路径_7721" data-name="路径 7721" d="M2586.879-232.319l-19.694-11.371.146-.084a.587.587,0,0,0,0-1.112l-.146-.084,27.732-16.011.146.084a2.127,2.127,0,0,0,1.925,0l.146-.084,19.694,11.37-.146.085a.587.587,0,0,0,0,1.111l.146.085L2589.1-232.319l-.146-.085a2.133,2.133,0,0,0-1.925,0ZM2567.761-243.7l19.126,11.043a2.856,2.856,0,0,1,2.2,0l27.164-15.683a.72.72,0,0,1,0-1.271l-19.126-11.042a2.865,2.865,0,0,1-2.2,0l-27.164,15.683A.719.719,0,0,1,2567.761-243.7Z" fill="url(#linear-gradient-2)"/>
        </g>
        <g id="组_9525" data-name="组 9525">
          <g id="组_9511" data-name="组 9511">
            <path id="路径_7722" data-name="路径 7722" d="M2583.961-251.567l-.174.132a3.6,3.6,0,0,1-.686-.315q-.454-.263-.4-.51t.658-.6a2.559,2.559,0,0,1,1.031-.38,1.521,1.521,0,0,1,.884.228,2.712,2.712,0,0,1,.512.367l-.232.1c-.164-.116-.337-.227-.518-.331a.954.954,0,0,0-.61-.139,2.271,2.271,0,0,0-.783.317q-.483.277-.549.452t.241.352A6.031,6.031,0,0,0,2583.961-251.567Z" fill="#7e534e"/>
          </g>
          <g id="组_9512" data-name="组 9512">
            <path id="路径_7723" data-name="路径 7723" d="M2586.25-251.73q.384.222.365.414t-.447.439a1.667,1.667,0,0,1-.761.258,1.35,1.35,0,0,1-.718-.21q-.381-.221-.362-.414c.012-.129.16-.275.445-.44a1.672,1.672,0,0,1,.762-.257A1.353,1.353,0,0,1,2586.25-251.73Zm0,.39c.017-.082-.056-.17-.218-.264a.806.806,0,0,0-.454-.125,1.344,1.344,0,0,0-.534.2q-.323.186-.351.308c-.018.081.054.168.217.262a.8.8,0,0,0,.456.126,1.33,1.33,0,0,0,.535-.2C2586.115-251.156,2586.232-251.259,2586.249-251.34Z" fill="#7e534e"/>
          </g>
          <g id="组_9513" data-name="组 9513">
            <path id="路径_7724" data-name="路径 7724" d="M2587.537-250.945l-.217.146a2.316,2.316,0,0,1,.936.227q.4.232-.006.468l-1.112.643-.26-.15,1.04-.6c.1-.057.15-.1.156-.146s-.03-.084-.107-.129a1.094,1.094,0,0,0-.3-.11c-.119-.026-.289-.055-.508-.085l-1.067.616-.259-.15,1.484-.857Z" fill="#7e534e"/>
          </g>
          <g id="组_9514" data-name="组 9514">
            <path id="路径_7725" data-name="路径 7725" d="M2588.881-249.148l-.329-.3c-.093-.087-.134-.163-.122-.229s.08-.134.2-.2a.738.738,0,0,1,.461-.116,1.434,1.434,0,0,1,.527.215,5.683,5.683,0,0,1,.58.387l-.211.1q-.449-.276-.549-.335a1.367,1.367,0,0,0-.323-.155.326.326,0,0,0-.231.053c-.072.041-.1.079-.1.112a.3.3,0,0,0,.1.136l.335.307a.318.318,0,0,1,.128.23q-.009.1-.192.2a.744.744,0,0,1-.486.116,1.755,1.755,0,0,1-.575-.235,4.555,4.555,0,0,1-.54-.361l.208-.1q.243.159.5.3a1.547,1.547,0,0,0,.387.178.349.349,0,0,0,.256-.046c.067-.039.095-.076.085-.111A.384.384,0,0,0,2588.881-249.148Z" fill="#7e534e"/>
          </g>
          <g id="组_9515" data-name="组 9515">
            <path id="路径_7726" data-name="路径 7726" d="M2590.8-248.822l-.872.5c-.071.041-.106.079-.106.114s.036.074.109.117l.226.13-.168.132a1.988,1.988,0,0,1-.375-.171c-.124-.071-.184-.146-.18-.223s.072-.154.2-.229l.9-.523-.268-.155.189-.109.28.148.442-.255.26.149-.439.254.472.272-.2.118Z" fill="#7e534e"/>
          </g>
          <g id="组_9516" data-name="组 9516">
            <path id="路径_7727" data-name="路径 7727" d="M2592.509-248.8l.122.07c.053.031.053.061,0,.092l-.174.1a.147.147,0,0,1-.159,0l-.122-.07c-.053-.031-.053-.061,0-.092l.174-.1A.146.146,0,0,1,2592.509-248.8Zm-1.926,1.331-.256-.148,1.484-.857.256.147Z" fill="#7e534e"/>
          </g>
          <g id="组_9517" data-name="组 9517">
            <path id="路径_7728" data-name="路径 7728" d="M2592.723-247.715l-.872.5c-.071.041-.107.079-.107.115s.037.074.11.116l.226.13-.168.132a1.975,1.975,0,0,1-.375-.171c-.124-.071-.184-.146-.18-.223s.071-.154.2-.229l.906-.523-.268-.155.188-.109.281.148.442-.255.259.149-.439.254.473.273-.2.118Z" fill="#7e534e"/>
          </g>
          <g id="组_9518" data-name="组 9518">
            <path id="路径_7729" data-name="路径 7729" d="M2594.979-246.649l-1.485.858-.207-.12.195-.134a2.187,2.187,0,0,1-.893-.223c-.271-.156-.269-.313,0-.47l1.116-.645.259.15-1.043.6c-.095.053-.144.1-.146.144s.039.09.125.139a.974.974,0,0,0,.279.1c.111.026.261.05.453.074l1.085-.627Z" fill="#7e534e"/>
          </g>
          <g id="组_9519" data-name="组 9519">
            <path id="路径_7730" data-name="路径 7730" d="M2595.622-246.041l-.871.5c-.072.041-.107.079-.107.115s.036.074.109.116l.226.13-.168.132a2,2,0,0,1-.375-.171c-.124-.071-.184-.146-.179-.223s.071-.154.2-.229l.905-.523-.268-.155.189-.109.281.148.442-.255.259.149-.439.254.472.273-.2.118Z" fill="#7e534e"/>
          </g>
          <g id="组_9520" data-name="组 9520">
            <path id="路径_7731" data-name="路径 7731" d="M2597.327-246.022l.122.071c.052.03.052.061,0,.091l-.174.1a.147.147,0,0,1-.159,0l-.122-.07c-.053-.031-.053-.061,0-.092l.174-.1A.152.152,0,0,1,2597.327-246.022Zm-1.927,1.331-.256-.148,1.484-.857.257.148Z" fill="#7e534e"/>
          </g>
          <g id="组_9521" data-name="组 9521">
            <path id="路径_7732" data-name="路径 7732" d="M2598.037-244.925c.256.148.378.286.364.414s-.162.275-.446.439a1.667,1.667,0,0,1-.761.258,1.349,1.349,0,0,1-.718-.21q-.381-.221-.363-.414c.012-.129.161-.275.445-.44a1.678,1.678,0,0,1,.763-.257A1.355,1.355,0,0,1,2598.037-244.925Zm0,.39c.017-.082-.056-.17-.218-.263a.8.8,0,0,0-.455-.126,1.359,1.359,0,0,0-.533.2q-.324.186-.351.308c-.018.081.054.168.217.262a.8.8,0,0,0,.455.126,1.333,1.333,0,0,0,.535-.2C2597.9-244.351,2598.018-244.454,2598.036-244.535Z" fill="#7e534e"/>
          </g>
          <g id="组_9522" data-name="组 9522">
            <path id="路径_7733" data-name="路径 7733" d="M2599.324-244.14l-.217.146a2.314,2.314,0,0,1,.936.227q.4.232-.006.468l-1.113.643-.259-.15,1.04-.6c.1-.057.149-.1.155-.146s-.029-.084-.107-.129a1.066,1.066,0,0,0-.3-.11c-.119-.026-.288-.055-.507-.085l-1.068.616-.259-.15,1.485-.857Z" fill="#7e534e"/>
          </g>
          <g id="组_9523" data-name="组 9523">
            <path id="路径_7734" data-name="路径 7734" d="M2600.662-243.111l.168-.124a6.653,6.653,0,0,1,.783.375c.173.1.265.194.276.284s-.069.184-.242.284l-1.046.6-.2-.118.213-.159a2.6,2.6,0,0,1-.456-.044,1.331,1.331,0,0,1-.428-.153c-.136-.078-.208-.162-.216-.25s.053-.17.186-.246l.161-.093a.7.7,0,0,1,.378-.094.861.861,0,0,1,.4.12l.618.357.132-.075c.093-.054.138-.105.134-.152s-.064-.1-.18-.17Q2601.12-242.893,2600.662-243.111Zm-.576.534-.095.054c-.077.045-.115.088-.114.13s.042.086.123.133a1.2,1.2,0,0,0,.319.12,1.97,1.97,0,0,0,.437.059l.3-.172-.573-.331a.384.384,0,0,0-.2-.054A.419.419,0,0,0,2600.086-242.577Z" fill="#7e534e"/>
          </g>
          <g id="组_9524" data-name="组 9524">
            <path id="路径_7735" data-name="路径 7735" d="M2603.461-242.5l-1.726,1c-.067.036-.1.074-.1.113s.035.079.1.117l.144.083-.168.132a1.091,1.091,0,0,1-.311-.134c-.112-.064-.167-.134-.166-.21s.061-.148.181-.217l1.784-1.03Z" fill="#7e534e"/>
          </g>
        </g>
      </g>
      <path id="路径_7736" data-name="路径 7736" d="M2588.023-223.338l32.333-18.667v-6.29l-32.368,18.688Z" fill="#b79aaa"/>
      <path id="路径_7737" data-name="路径 7737" d="M2563.862-242.656a39.06,39.06,0,0,0,.287,5.532l-.7-.4a29.707,29.707,0,0,1-.257-6.4l24.8,14.318v.9Z" fill="#b79aaa"/>
      <path id="路径_7738" data-name="路径 7738" d="M2578.846-228.637l-.736-.4-.152.785Z" fill="#70443f"/>
      <path id="路径_7739" data-name="路径 7739" d="M2578.94-229.555l-.094.918-.736-.4Z" fill="#b79aaa"/>
      <path id="路径_7740" data-name="路径 7740" d="M2621.313-241.785l-33.3,19.227-.023.014-25.434-14.687a15.78,15.78,0,0,1-.02-6.992l25.42,14.676.034.023.023-.014.014-.009,33.187-19.158.316-.182,0-.083-33.515,19.349-.023.014-25.5-14.724a15.29,15.29,0,0,0,0,7.145l25.5,14.722.023-.014,33.515-19.347.006-.081Z" fill="url(#linear-gradient-3)"/>
      <g id="组_9528" data-name="组 9528">
        <g id="组_9527" data-name="组 9527">
          <path id="路径_7741" data-name="路径 7741" d="M2578.94-229.555a6.832,6.832,0,0,1-.486.717l-.009.006a6.476,6.476,0,0,1-2.211,1.9c-.161.076-.7.295-.992.1.351-.1.485-.494.547-.62a2.174,2.174,0,0,1-1.39.023c.726.161,2.191-1.094,3.014-2.033h0a4.777,4.777,0,0,0,.512-.673Z" fill="#895044"/>
        </g>
        <path id="路径_7742" data-name="路径 7742" d="M2578.94-229.555a6.832,6.832,0,0,1-.486.717l-.009.006-1.029-.638a4.777,4.777,0,0,0,.512-.673Z" fill="#7c473c"/>
      </g>
    </g>
    <ellipse id="椭圆_3" data-name="椭圆 3" cx="2.28" cy="1.317" rx="2.28" ry="1.317" transform="translate(2601.119 -254.556)" fill="url(#linear-gradient-4)"/>
  </g>
</svg>
