<svg xmlns="http://www.w3.org/2000/svg" xmlns:xlink="http://www.w3.org/1999/xlink" width="43.056" height="41" viewBox="0 0 43.056 41">
  <defs>
    <linearGradient id="linear-gradient" x1="-2.214" y1="139.447" x2="-2.526" y2="139.381" gradientUnits="objectBoundingBox">
      <stop offset="0" stop-color="#b27973"/>
      <stop offset="0.995" stop-color="#bc865d"/>
    </linearGradient>
    <linearGradient id="linear-gradient-2" x1="0.786" y1="0.448" x2="-0.241" y2="0.635" gradientUnits="objectBoundingBox">
      <stop offset="0" stop-color="#8f6c59"/>
      <stop offset="1" stop-color="#d3b7a5"/>
    </linearGradient>
    <linearGradient id="linear-gradient-3" x1="0.218" y1="0.176" x2="1.037" y2="1.117" gradientUnits="objectBoundingBox">
      <stop offset="0" stop-color="#ae8e76"/>
      <stop offset="1" stop-color="#61483a"/>
    </linearGradient>
    <linearGradient id="linear-gradient-4" y1="0.5" x2="1" y2="0.5" gradientUnits="objectBoundingBox">
      <stop offset="0" stop-color="#937661"/>
      <stop offset="1" stop-color="#4c3527"/>
    </linearGradient>
    <linearGradient id="linear-gradient-5" x1="-0.102" y1="0.07" x2="0.436" y2="0.587" xlink:href="#linear-gradient-4"/>
    <linearGradient id="linear-gradient-6" y1="0.5" x2="1" y2="0.5" gradientUnits="objectBoundingBox">
      <stop offset="0.017" stop-color="#c2a28b"/>
      <stop offset="0.5" stop-color="#b1896e"/>
      <stop offset="1" stop-color="#976444"/>
    </linearGradient>
    <linearGradient id="linear-gradient-7" x1="0.173" y1="0.274" x2="0.836" y2="0.72" gradientUnits="objectBoundingBox">
      <stop offset="0.011" stop-color="#8c6c5b"/>
      <stop offset="0.5" stop-color="#6e5448"/>
      <stop offset="0.994" stop-color="#462a1f"/>
    </linearGradient>
    <linearGradient id="linear-gradient-8" x1="0.376" y1="0.173" x2="0.703" y2="0.745" gradientUnits="objectBoundingBox">
      <stop offset="0.011" stop-color="#aa8270"/>
      <stop offset="0.5" stop-color="#8b6b5c"/>
      <stop offset="0.994" stop-color="#653d2d"/>
    </linearGradient>
    <linearGradient id="linear-gradient-9" x1="0.335" y1="0.059" x2="0.628" y2="0.614" xlink:href="#linear-gradient-7"/>
    <linearGradient id="linear-gradient-10" x1="0.472" y1="0.386" x2="0.537" y2="0.577" gradientUnits="objectBoundingBox">
      <stop offset="0.017" stop-color="#887262"/>
      <stop offset="0.5" stop-color="#785d4a"/>
      <stop offset="1" stop-color="#5e3e29"/>
    </linearGradient>
    <linearGradient id="linear-gradient-11" x1="0" y1="0.5" x2="1" y2="0.5" xlink:href="#linear-gradient-6"/>
    <linearGradient id="linear-gradient-12" y1="0.5" x2="1" y2="0.5" gradientUnits="objectBoundingBox">
      <stop offset="0.011" stop-color="#ae8673"/>
      <stop offset="0.5" stop-color="#906f61"/>
      <stop offset="0.994" stop-color="#6a402f"/>
    </linearGradient>
    <linearGradient id="linear-gradient-13" y1="0.5" x2="1" y2="0.5" gradientUnits="objectBoundingBox">
      <stop offset="0.017" stop-color="#cfad94"/>
      <stop offset="0.5" stop-color="#bf9377"/>
      <stop offset="1" stop-color="#a56d4a"/>
    </linearGradient>
    <linearGradient id="linear-gradient-14" y1="0.5" x2="1" y2="0.5" gradientUnits="objectBoundingBox">
      <stop offset="0" stop-color="#be9988"/>
      <stop offset="0.517" stop-color="#9e6b55"/>
      <stop offset="1" stop-color="#785145"/>
    </linearGradient>
    <linearGradient id="linear-gradient-15" x1="0.563" y1="0.411" x2="0.432" y2="0.584" gradientUnits="objectBoundingBox">
      <stop offset="0" stop-color="#9f6c66"/>
      <stop offset="0.535" stop-color="#a87853"/>
      <stop offset="1" stop-color="#a2705f"/>
    </linearGradient>
    <linearGradient id="linear-gradient-16" x1="0.383" y1="0.646" x2="0.759" y2="0.16" gradientUnits="objectBoundingBox">
      <stop offset="0" stop-color="#8d605b"/>
      <stop offset="0.995" stop-color="#976d4b"/>
    </linearGradient>
    <linearGradient id="linear-gradient-17" x1="1.509" y1="0.586" x2="-0.325" y2="0.429" xlink:href="#linear-gradient-6"/>
    <linearGradient id="linear-gradient-18" x1="-0.846" y1="0.544" x2="1.266" y2="0.467" xlink:href="#linear-gradient-12"/>
    <linearGradient id="linear-gradient-19" x1="-0.242" y1="0.347" x2="1.392" y2="0.684" xlink:href="#linear-gradient-6"/>
    <linearGradient id="linear-gradient-20" x1="1.509" y1="0.586" x2="-0.325" y2="0.429" gradientUnits="objectBoundingBox">
      <stop offset="0" stop-color="#de968e"/>
      <stop offset="0.995" stop-color="#e8a673"/>
    </linearGradient>
    <linearGradient id="linear-gradient-21" x1="1.329" y1="0.505" x2="0.147" y2="0.495" xlink:href="#linear-gradient-15"/>
    <linearGradient id="linear-gradient-22" x1="1.166" y1="0.505" x2="-0.317" y2="0.491" xlink:href="#linear-gradient-16"/>
    <linearGradient id="linear-gradient-23" x1="0.798" y1="0.73" x2="-0.064" y2="0.144" gradientUnits="objectBoundingBox">
      <stop offset="0" stop-color="#d59089"/>
      <stop offset="0.995" stop-color="#dfa06f"/>
    </linearGradient>
    <linearGradient id="linear-gradient-24" x1="-140.768" y1="1589.57" x2="-142.066" y2="1589.459" gradientUnits="objectBoundingBox">
      <stop offset="0" stop-color="#c98981"/>
      <stop offset="0.995" stop-color="#d49868"/>
    </linearGradient>
    <linearGradient id="linear-gradient-25" x1="1.004" y1="0.5" x2="0.006" y2="0.5" xlink:href="#linear-gradient-24"/>
    <linearGradient id="linear-gradient-26" x1="7.046" y1="0.5" x2="-1.736" y2="0.5" xlink:href="#linear-gradient-23"/>
    <linearGradient id="linear-gradient-27" x1="32.762" y1="0.5" x2="-2.871" y2="0.5" xlink:href="#linear-gradient-23"/>
    <linearGradient id="linear-gradient-28" x1="0.715" y1="0.5" x2="-0.265" y2="0.5" gradientUnits="objectBoundingBox">
      <stop offset="0" stop-color="#b47b74"/>
      <stop offset="0.995" stop-color="#be875e"/>
    </linearGradient>
    <linearGradient id="linear-gradient-29" x1="1.019" y1="0.716" x2="0.026" y2="0.302" xlink:href="#linear-gradient-20"/>
    <linearGradient id="linear-gradient-30" x1="0" y1="0.5" x2="1" y2="0.5" xlink:href="#linear-gradient-28"/>
    <linearGradient id="linear-gradient-31" x1="0.81" y1="0.866" x2="0.174" y2="0.116" xlink:href="#linear-gradient-23"/>
    <linearGradient id="linear-gradient-32" x1="1.347" y1="1.503" x2="0.291" y2="0.198" gradientUnits="objectBoundingBox">
      <stop offset="0" stop-color="#e1a6a0"/>
      <stop offset="0.995" stop-color="#ebb284"/>
    </linearGradient>
    <linearGradient id="linear-gradient-33" x1="0.994" y1="0.836" x2="-0.087" y2="0.213" xlink:href="#linear-gradient-28"/>
    <linearGradient id="linear-gradient-34" x1="1.003" y1="0.733" x2="-0.089" y2="0.175" xlink:href="#linear-gradient-28"/>
    <linearGradient id="linear-gradient-35" x1="1.094" y1="0.209" x2="-0.061" y2="0.766" gradientUnits="objectBoundingBox">
      <stop offset="0" stop-color="#885c57"/>
      <stop offset="0.995" stop-color="#916848"/>
    </linearGradient>
    <linearGradient id="linear-gradient-36" y1="0.5" x2="1" y2="0.5" gradientUnits="objectBoundingBox">
      <stop offset="0" stop-color="#996762"/>
      <stop offset="0.995" stop-color="#a37450"/>
    </linearGradient>
    <linearGradient id="linear-gradient-37" y1="0.5" x2="1" y2="0.5" gradientUnits="objectBoundingBox">
      <stop offset="0" stop-color="#895e58"/>
      <stop offset="0.995" stop-color="#946a49"/>
    </linearGradient>
    <linearGradient id="linear-gradient-38" x1="0.579" y1="0.435" x2="0.475" y2="0.527" xlink:href="#linear-gradient-23"/>
    <linearGradient id="linear-gradient-39" x1="0.559" y1="0.437" x2="0.448" y2="0.532" xlink:href="#linear-gradient-28"/>
  </defs>
  <g id="mo_btn1-1" transform="translate(-2622.149 402.473)">
    <g id="组_9627" data-name="组 9627">
      <g id="组_9559" data-name="组 9559">
        <g id="组_9536" data-name="组 9536">
          <g id="组_9530" data-name="组 9530">
            <ellipse id="椭圆_4" data-name="椭圆 4" cx="6.498" cy="3.752" rx="6.498" ry="3.752" transform="translate(2644.345 -373.896)" fill="url(#linear-gradient)"/>
          </g>
          <g id="组_9533" data-name="组 9533">
            <g id="组_9531" data-name="组 9531">
              <path id="路径_7743" data-name="路径 7743" d="M2657.46-371.629h-.47a4.474,4.474,0,0,0-1.469-1.284,8.5,8.5,0,0,0-2.866-.973,10.238,10.238,0,0,0-6.49.973,4.44,4.44,0,0,0-1.478,1.3h-.46v1.421h0v1.772h0a3.3,3.3,0,0,0,1.937,2.679,10.344,10.344,0,0,0,9.356,0,3.289,3.289,0,0,0,1.938-2.7v-1.417h-.028a2.222,2.222,0,0,0,.029-.355Z" fill="url(#linear-gradient-2)"/>
            </g>
            <g id="组_9532" data-name="组 9532">
              <path id="路径_7744" data-name="路径 7744" d="M2657.458-371.629a2.4,2.4,0,0,1-.35,1.228,4.236,4.236,0,0,1-1.587,1.472c-.154.089-.315.173-.481.252-.079.037-.159.073-.241.108a10.472,10.472,0,0,1-8.634-.36,3.294,3.294,0,0,1-1.938-2.683,3.278,3.278,0,0,1,1.938-2.719,10.5,10.5,0,0,1,8.342-.478,7.036,7.036,0,0,1,1.014.478A3.29,3.29,0,0,1,2657.458-371.629Z" fill="url(#linear-gradient-3)"/>
            </g>
          </g>
          <g id="组_9534" data-name="组 9534">
            <ellipse id="椭圆_5" data-name="椭圆 5" cx="5.198" cy="3.001" rx="5.198" ry="3.001" transform="translate(2645.645 -374.63)" fill="url(#linear-gradient-4)"/>
          </g>
          <g id="组_9535" data-name="组 9535">
            <path id="路径_7745" data-name="路径 7745" d="M2657.46-371.629v.831l-.352.4-.228.257-1.84,1.467-.156.123-.085-.015c-.265-.043-1.118-.177-2.223-.269a20.488,20.488,0,0,0-4.292.573l4.371-5.621.861-1.108.991.185a7.036,7.036,0,0,1,1.014.478,3.29,3.29,0,0,1,1.937,2.7Z" fill="url(#linear-gradient-5)"/>
          </g>
        </g>
        <g id="组_9556" data-name="组 9556">
          <g id="组_9538" data-name="组 9538">
            <g id="组_9537" data-name="组 9537">
              <rect id="矩形_3521" data-name="矩形 3521" width="12.968" height="0.043" transform="translate(2644.856 -370.161) rotate(-29.964)" fill="#c09f6f"/>
            </g>
          </g>
          <g id="组_9543" data-name="组 9543">
            <g id="组_9539" data-name="组 9539">
              <path id="路径_7746" data-name="路径 7746" d="M2657.123-374.159a1.12,1.12,0,0,1-.459,1.044l-.714.413a.768.768,0,0,0,.3-.308,1.548,1.548,0,0,0,.155-.734,5.49,5.49,0,0,0-2.62-4.091,2.462,2.462,0,0,0-1.18-.377.358.358,0,0,0-.056,0,.91.91,0,0,0-.461.131l.709-.41a.216.216,0,0,1,.036-.02.942.942,0,0,1,.488-.119,2.478,2.478,0,0,1,1.181.376A5.5,5.5,0,0,1,2657.123-374.159Z" fill="url(#linear-gradient-6)"/>
            </g>
            <g id="组_9540" data-name="组 9540">
              <path id="路径_7747" data-name="路径 7747" d="M2656.409-373.744a1.548,1.548,0,0,1-.155.734.565.565,0,0,1-.058,0l-.593-.012-.048-.117a3.253,3.253,0,0,1-.539-.25,5.489,5.489,0,0,1-2.618-4.091,1.9,1.9,0,0,1,.01-.212l-.01-.012-.09,0c0-.01.058-.124.112-.233s.1-.219.1-.219a.46.46,0,0,1,.029-.053.358.358,0,0,1,.056,0,2.462,2.462,0,0,1,1.18.377A5.49,5.49,0,0,1,2656.409-373.744Z" fill="#c73f50"/>
            </g>
            <g id="组_9541" data-name="组 9541">
              <path id="路径_7748" data-name="路径 7748" d="M2656.409-373.744a1.548,1.548,0,0,1-.155.734.768.768,0,0,1-.3.308l0,0a.972.972,0,0,1-.469.105l-.592-.012-.049-.114a3.459,3.459,0,0,1-.536-.251,5.488,5.488,0,0,1-2.62-4.091c0-.071,0-.141.009-.214l-.009-.012-.088,0c0-.008.056-.122.109-.231l.105-.219a.791.791,0,0,1,.284-.337.91.91,0,0,1,.461-.131.358.358,0,0,1,.056,0,2.462,2.462,0,0,1,1.18.377A5.49,5.49,0,0,1,2656.409-373.744Z" fill="url(#linear-gradient-7)"/>
            </g>
            <g id="组_9542" data-name="组 9542">
              <path id="路径_7749" data-name="路径 7749" d="M2654.888-373.092a1.765,1.765,0,0,1-.822-.275,4.486,4.486,0,0,1-2.122-3.273c0-.552.2-.552.352-.552a1.782,1.782,0,0,1,.823.275,4.489,4.489,0,0,1,2.121,3.273C2655.24-373.092,2655.036-373.092,2654.888-373.092Z" fill="#cc8452"/>
            </g>
          </g>
          <g id="组_9544" data-name="组 9544">
            <path id="路径_7750" data-name="路径 7750" d="M2655.727-373.644a1.652,1.652,0,0,1-.035.356.888.888,0,0,1-.243.484c0,.015,0,.026,0,.026l-2.367,1.366-4.044,2.336-.178-.265-.782-1.161-2.368-3.521,6.1-3.525.012,0a.819.819,0,0,1,.474-.134,2.219,2.219,0,0,1,1.065.34,5.289,5.289,0,0,1,1.941,2.14A3.575,3.575,0,0,1,2655.727-373.644Z" fill="url(#linear-gradient-8)"/>
          </g>
          <g id="组_9545" data-name="组 9545">
            <path id="路径_7751" data-name="路径 7751" d="M2655.727-373.644a1.186,1.186,0,0,1-.278.84c0,.015,0,.026,0,.026l-6.411,3.7-.96-1.426a9.308,9.308,0,0,0-.661-2.049,5.268,5.268,0,0,0,1.055.651,2.31,2.31,0,0,0,1.234.054,7.786,7.786,0,0,0,1.854-.956c.4-.223.824-.4,1.24-.589a18.545,18.545,0,0,0,1.786-1.168,1.409,1.409,0,0,0,.548-.485.834.834,0,0,0,.095-.341A4.018,4.018,0,0,1,2655.727-373.644Z" fill="url(#linear-gradient-9)"/>
          </g>
          <g id="组_9546" data-name="组 9546">
            <path id="路径_7752" data-name="路径 7752" d="M2652.763-371.6l-3.9,2.254.178.265,4.044-2.336,2.367-1.366s0-.011,0-.026a.888.888,0,0,0,.243-.484Z" fill="url(#linear-gradient-10)"/>
          </g>
          <g id="组_9547" data-name="组 9547">
            <path id="路径_7753" data-name="路径 7753" d="M2654.258-372.8a1.741,1.741,0,0,1-.019.258.954.954,0,0,1-.255.581.16.16,0,0,0,0,.026l-3.4,1.943v-.026a.942.942,0,0,0,.256-.563,1.636,1.636,0,0,0,.021-.277,3.347,3.347,0,0,0-.308-1.3,5.435,5.435,0,0,0-.9-1.409,4.707,4.707,0,0,0-1.161-.982,2.756,2.756,0,0,0-.633-.273,1.6,1.6,0,0,0-.431-.065.827.827,0,0,0-.333.06l3.247-1.873.01,0a.823.823,0,0,1,.474-.132,1.66,1.66,0,0,1,.41.058,2.767,2.767,0,0,1,.654.283,4.716,4.716,0,0,1,1.149.967,5.492,5.492,0,0,1,.9,1.408A3.332,3.332,0,0,1,2654.258-372.8Z" fill="#f1c431"/>
          </g>
          <g id="组_9553" data-name="组 9553">
            <g id="组_9548" data-name="组 9548">
              <path id="路径_7754" data-name="路径 7754" d="M2649.457-369.722a1.12,1.12,0,0,1-.459,1.044l-.714.413a.774.774,0,0,0,.3-.309,1.543,1.543,0,0,0,.156-.733,5.494,5.494,0,0,0-2.62-4.092,2.476,2.476,0,0,0-1.18-.376.522.522,0,0,0-.056,0,.921.921,0,0,0-.462.131l.709-.41c.013-.007.025-.014.037-.019a.928.928,0,0,1,.488-.119,2.471,2.471,0,0,1,1.18.376A5.492,5.492,0,0,1,2649.457-369.722Z" fill="url(#linear-gradient-11)"/>
            </g>
            <g id="组_9549" data-name="组 9549">
              <path id="路径_7755" data-name="路径 7755" d="M2648.743-369.307a1.543,1.543,0,0,1-.156.733.367.367,0,0,1-.058,0l-.592-.013-.049-.116a3.285,3.285,0,0,1-.539-.25,5.493,5.493,0,0,1-2.618-4.092c0-.068,0-.141.01-.211l-.01-.012-.089,0c0-.009.058-.123.111-.233s.1-.218.1-.218a.313.313,0,0,1,.029-.054.522.522,0,0,1,.056,0,2.476,2.476,0,0,1,1.18.376A5.494,5.494,0,0,1,2648.743-369.307Z" fill="#c73f50"/>
            </g>
            <g id="组_9550" data-name="组 9550">
              <path id="路径_7756" data-name="路径 7756" d="M2648.743-369.307a1.543,1.543,0,0,1-.156.733.774.774,0,0,1-.3.309l0,0a.968.968,0,0,1-.468.1l-.593-.012-.048-.114a3.359,3.359,0,0,1-.537-.25,5.494,5.494,0,0,1-2.62-4.092,1.979,1.979,0,0,1,.01-.213l-.01-.012-.087,0c0-.007.055-.121.109-.23l.1-.219a.8.8,0,0,1,.284-.338.921.921,0,0,1,.462-.131.522.522,0,0,1,.056,0,2.476,2.476,0,0,1,1.18.376A5.494,5.494,0,0,1,2648.743-369.307Z" fill="url(#linear-gradient-12)"/>
            </g>
            <g id="组_9551" data-name="组 9551">
              <path id="路径_7757" data-name="路径 7757" d="M2647.221-368.17a2.213,2.213,0,0,1-1.065-.34,4.959,4.959,0,0,1-2.364-3.693c0-.474.145-1.038.838-1.038a2.225,2.225,0,0,1,1.065.34,4.958,4.958,0,0,1,2.364,3.694C2648.059-368.734,2647.914-368.17,2647.221-368.17Z" fill="url(#linear-gradient-13)"/>
            </g>
            <g id="组_9552" data-name="组 9552">
              <path id="路径_7758" data-name="路径 7758" d="M2647.221-368.655a1.77,1.77,0,0,1-.821-.275,4.487,4.487,0,0,1-2.123-3.273c0-.552.2-.552.353-.552a1.775,1.775,0,0,1,.822.275,4.488,4.488,0,0,1,2.122,3.273C2647.574-368.655,2647.37-368.655,2647.221-368.655Z" fill="url(#linear-gradient-14)"/>
            </g>
          </g>
          <g id="组_9554" data-name="组 9554">
            <path id="路径_7759" data-name="路径 7759" d="M2653.042-375.527l-3.386,1.955a4.707,4.707,0,0,0-1.161-.982,2.756,2.756,0,0,0-.633-.273l3.377-1.95a2.767,2.767,0,0,1,.654.283A4.716,4.716,0,0,1,2653.042-375.527Z" fill="#f3d669"/>
          </g>
          <g id="组_9555" data-name="组 9555">
            <path id="路径_7760" data-name="路径 7760" d="M2654.258-372.8a1.741,1.741,0,0,1-.019.258l-3.4,1.961a1.636,1.636,0,0,0,.021-.277,3.347,3.347,0,0,0-.308-1.3l3.393-1.956A3.332,3.332,0,0,1,2654.258-372.8Z" fill="#e09f1a"/>
          </g>
        </g>
        <g id="组_9557" data-name="组 9557">
          <path id="路径_7761" data-name="路径 7761" d="M2664.265-361.485a.334.334,0,0,0-.054.006,2.259,2.259,0,0,1-1.868-.847,11.858,11.858,0,0,1-1.01-1.22c-.09-.117-.178-.231-.272-.342a6.2,6.2,0,0,0-.694-.717c-.248-.218-.5-.425-.761-.635-.513-.414-1.036-.818-1.572-1.2-1.067-.785-2.171-1.523-3.23-2.313-.531-.4-1.056-.8-1.564-1.217a6.009,6.009,0,0,1-.495-.438,3.523,3.523,0,0,1-.787-1.121.871.871,0,0,1,.339-1.09.864.864,0,0,1,.112-.06.866.866,0,0,1,.533-.052,3.576,3.576,0,0,1,1.316.593c.163.112.316.233.466.358.513.417,1.007.857,1.5,1.3.982.886,1.922,1.823,2.9,2.717.485.451.982.883,1.49,1.3.253.213.51.422.769.624.052.039.106.078.16.114a6.271,6.271,0,0,0,.679.425c.158.086.321.168.484.249a10.674,10.674,0,0,1,1.3.7,2.258,2.258,0,0,1,1.2,1.668A1.073,1.073,0,0,1,2664.265-361.485Z" fill="url(#linear-gradient-15)"/>
        </g>
        <g id="组_9558" data-name="组 9558">
          <path id="路径_7762" data-name="路径 7762" d="M2665.2-362.681a2.258,2.258,0,0,0-1.2-1.668,10.982,10.982,0,0,0-1.328-.72c-.153-.076-.306-.153-.454-.233a6.271,6.271,0,0,1-.679-.425c-.054-.036-.108-.075-.16-.114-.259-.2-.516-.411-.769-.624-.508-.422-1.005-.854-1.49-1.3-.976-.894-1.916-1.831-2.9-2.717-.492-.44-.986-.88-1.5-1.3-.15-.125-.305-.245-.466-.356v0l-.021-.013q-.111-.076-.228-.147l-.066-.04q-.132-.078-.273-.144l-.077-.034c-.074-.033-.15-.063-.228-.091-.032-.012-.064-.024-.1-.034a3.238,3.238,0,0,0-.326-.09.866.866,0,0,0-.533.052.864.864,0,0,0-.112.06.871.871,0,0,0-.339,1.09,3.523,3.523,0,0,0,.787,1.121.9.9,0,0,1,.011-.9,1,1,0,0,1,1.061-.287,2.369,2.369,0,0,1,.25.074l.012.008a60.873,60.873,0,0,1,5.364,4.6c.462.409.932.811,1.415,1.2a1.67,1.67,0,0,1,.57,1.8,2.922,2.922,0,0,0-.079.288l-.016.08a11.858,11.858,0,0,0,1.01,1.22,2.259,2.259,0,0,0,1.868.847.334.334,0,0,1,.054-.006A1.073,1.073,0,0,0,2665.2-362.681Z" fill="url(#linear-gradient-16)"/>
        </g>
      </g>
      <g id="组_9626" data-name="组 9626">
        <g id="组_9576" data-name="组 9576">
          <g id="组_9565" data-name="组 9565">
            <g id="组_9560" data-name="组 9560">
              <path id="路径_7763" data-name="路径 7763" d="M2630.629-394.321a6.046,6.046,0,0,1-1.587.616.74.74,0,0,0-.153-.871,1.466,1.466,0,0,0-.354-.276c-.007,0-.013-.008-.021-.011a.888.888,0,0,0-.088-.045,3.2,3.2,0,0,0-2.262-.141,2.236,2.236,0,0,0-.364.143c-.035.016-.07.035-.1.054-.537.311-.706.754-.507,1.147a6.02,6.02,0,0,1-1.587-.616c-1.939-1.122-1.939-2.937,0-4.057a5.771,5.771,0,0,1,1.315-.544c.012,0,.025-.008.04-.011a8.313,8.313,0,0,1,4.456.042c.066.017.131.038.2.06a5.7,5.7,0,0,1,1.019.453,3.841,3.841,0,0,1,.737.543C2632.525-396.732,2632.279-395.276,2630.629-394.321Z" fill="#f1c431"/>
            </g>
            <g id="组_9561" data-name="组 9561">
              <path id="路径_7764" data-name="路径 7764" d="M2631.366-397.835l-2.477,3.259a1.466,1.466,0,0,0-.354-.276c-.007,0-.013-.008-.021-.011a.888.888,0,0,0-.088-.045l.915-3.924c.024-.021.05-.04.073-.059.066.017.131.038.2.06a5.7,5.7,0,0,1,1.019.453A3.841,3.841,0,0,1,2631.366-397.835Z" fill="#f3d669"/>
            </g>
            <g id="组_9562" data-name="组 9562">
              <path id="路径_7765" data-name="路径 7765" d="M2629.041-393.706a1.248,1.248,0,0,1-.506.491,3.133,3.133,0,0,1-2.838,0,1.254,1.254,0,0,1-.508-.491A8.438,8.438,0,0,0,2629.041-393.706Z" fill="#e09f1a"/>
            </g>
            <g id="组_9563" data-name="组 9563">
              <path id="路径_7766" data-name="路径 7766" d="M2629.041-393.706a8.438,8.438,0,0,1-3.852,0c-.2-.394-.03-.836.508-1.147a3.133,3.133,0,0,1,2.838,0C2629.073-394.542,2629.241-394.1,2629.041-393.706Z" fill="#f4d23c"/>
            </g>
            <g id="组_9564" data-name="组 9564">
              <path id="路径_7767" data-name="路径 7767" d="M2630.629-398.378a7.766,7.766,0,0,0-7.026,0c-1.939,1.119-1.939,2.935,0,4.056a5.993,5.993,0,0,0,1.586.616,8.438,8.438,0,0,0,3.852,0,6.006,6.006,0,0,0,1.588-.616C2632.568-395.443,2632.568-397.259,2630.629-398.378Zm-.152,3.794a5.682,5.682,0,0,1-1.507.584,7.965,7.965,0,0,1-1.855.214,7.964,7.964,0,0,1-1.854-.214,5.688,5.688,0,0,1-1.506-.584,2.19,2.19,0,0,1-1.3-1.767,2.187,2.187,0,0,1,1.3-1.765,6.843,6.843,0,0,1,3.36-.8,6.851,6.851,0,0,1,3.362.8,2.187,2.187,0,0,1,1.3,1.765A2.189,2.189,0,0,1,2630.477-394.584Z" fill="#f4d23c"/>
            </g>
          </g>
          <g id="组_9567" data-name="组 9567">
            <g id="组_9566" data-name="组 9566">
              <path id="路径_7768" data-name="路径 7768" d="M2623.635-398.267a.042.042,0,0,1-.031-.013.042.042,0,0,1-.012-.03.039.039,0,0,1,.013-.03l3.481-3.424a.042.042,0,0,1,.06,0,.039.039,0,0,1,.013.03.043.043,0,0,1-.013.03l-3.481,3.424A.046.046,0,0,1,2623.635-398.267Z" fill="#c09f6f"/>
            </g>
          </g>
          <g id="组_9569" data-name="组 9569">
            <g id="组_9568" data-name="组 9568">
              <path id="路径_7769" data-name="路径 7769" d="M2626.32-393.537h0a.043.043,0,0,1-.038-.047l.795-8.154a.044.044,0,0,1,.029-.036.044.044,0,0,1,.045.011l4.779,4.963a.043.043,0,0,1,0,.061.042.042,0,0,1-.06,0l-4.715-4.9-.787,8.062A.042.042,0,0,1,2626.32-393.537Z" fill="#c09f6f"/>
            </g>
          </g>
          <g id="组_9571" data-name="组 9571">
            <g id="组_9570" data-name="组 9570">
              <path id="路径_7770" data-name="路径 7770" d="M2632-396.707a.039.039,0,0,1-.04-.039.077.077,0,0,0-.076-.077.078.078,0,0,0-.077.077.039.039,0,0,1-.04.039.039.039,0,0,1-.039-.039.156.156,0,0,1,.156-.156.156.156,0,0,1,.156.156A.039.039,0,0,1,2632-396.707Z" fill="#e3ab15"/>
            </g>
          </g>
          <g id="组_9573" data-name="组 9573">
            <g id="组_9572" data-name="组 9572">
              <path id="路径_7771" data-name="路径 7771" d="M2626.436-393.516a.039.039,0,0,1-.039-.04.077.077,0,0,0-.077-.076.076.076,0,0,0-.076.076.04.04,0,0,1-.04.04.04.04,0,0,1-.04-.04.156.156,0,0,1,.156-.156.156.156,0,0,1,.156.156A.04.04,0,0,1,2626.436-393.516Z" fill="#e3ab15"/>
            </g>
          </g>
          <g id="组_9575" data-name="组 9575">
            <g id="组_9574" data-name="组 9574">
              <path id="路径_7772" data-name="路径 7772" d="M2623.784-398.27a.04.04,0,0,1-.04-.04.076.076,0,0,0-.076-.076.077.077,0,0,0-.077.076.04.04,0,0,1-.04.04.04.04,0,0,1-.039-.04.156.156,0,0,1,.156-.156.156.156,0,0,1,.156.156A.04.04,0,0,1,2623.784-398.27Z" fill="#e3ab15"/>
            </g>
          </g>
        </g>
        <g id="组_9581" data-name="组 9581">
          <g id="组_9577" data-name="组 9577">
            <path id="路径_7773" data-name="路径 7773" d="M2642.427-372.409a7.518,7.518,0,0,1-3.221.9,8.156,8.156,0,0,1-4.483-.9c-1.9-1.1-2.1-2.808-.6-4.036a4.567,4.567,0,0,1,.6-.412c.093-.053.187-.1.284-.152a8.657,8.657,0,0,1,7.136,0c.067.032.132.067.2.1l.087.048a4.3,4.3,0,0,1,.6.412C2644.531-375.219,2644.331-373.509,2642.427-372.409Z" fill="url(#linear-gradient-17)"/>
          </g>
          <g id="组_9578" data-name="组 9578">
            <path id="路径_7774" data-name="路径 7774" d="M2642.427-372.409a7.518,7.518,0,0,1-3.221.9,2.936,2.936,0,0,0,1.294-1.846,1.232,1.232,0,0,0,.007-.134c0-.082,0-.164,0-.244a3.752,3.752,0,0,1,.852-2.264,4.941,4.941,0,0,1,.916-.861c.021-.017.04-.032.06-.046.082-.058.164-.116.25-.169a2.132,2.132,0,0,1,.437.629C2644.531-375.219,2644.331-373.509,2642.427-372.409Z" fill="url(#linear-gradient-18)"/>
          </g>
          <g id="组_9579" data-name="组 9579">
            <path id="路径_7775" data-name="路径 7775" d="M2643.164-375.564a2.009,2.009,0,0,1-.679,1.2,3.576,3.576,0,0,1-.653.474,5.559,5.559,0,0,1-1.332.537,7.273,7.273,0,0,1-5.181-.537c-1.2-.691-1.6-1.669-1.2-2.552a2.763,2.763,0,0,1,1.2-1.207,7.2,7.2,0,0,1,6.513,0,3.444,3.444,0,0,1,.758.578,2.132,2.132,0,0,1,.437.629A1.571,1.571,0,0,1,2643.164-375.564Z" fill="url(#linear-gradient-19)"/>
          </g>
          <g id="组_9580" data-name="组 9580">
            <path id="路径_7776" data-name="路径 7776" d="M2642.668-375.617a1.843,1.843,0,0,1-.658,1.093,3.212,3.212,0,0,1-.528.374,6.427,6.427,0,0,1-5.815,0c-1.6-.927-1.6-2.43,0-3.357a6.427,6.427,0,0,1,5.815,0A1.928,1.928,0,0,1,2642.668-375.617Z" fill="url(#linear-gradient-20)"/>
          </g>
        </g>
        <g id="组_9582" data-name="组 9582">
          <path id="路径_7777" data-name="路径 7777" d="M2639.148-392.031v15.894a.285.285,0,0,1-.168.234.847.847,0,0,1-.465.093.74.74,0,0,1-.345-.093.285.285,0,0,1-.168-.234v-15.894Z" fill="url(#linear-gradient-21)"/>
        </g>
        <g id="组_9583" data-name="组 9583">
          <path id="路径_7778" data-name="路径 7778" d="M2639.148-388.29v12.153a.285.285,0,0,1-.168.234.847.847,0,0,1-.465.093c.33-.962.322-7.563.2-10.934a.859.859,0,0,0-.235-.679c-.3-.228-.338-.263-.017-.553A.979.979,0,0,1,2639.148-388.29Z" fill="url(#linear-gradient-22)"/>
        </g>
        <g id="组_9586" data-name="组 9586">
          <g id="组_9585" data-name="组 9585">
            <g id="组_9584" data-name="组 9584">
              <path id="路径_7779" data-name="路径 7779" d="M2639.559-398.913a.367.367,0,0,0-.285.055.891.891,0,0,0-.429.677.244.244,0,0,0,.088.208c-2.2-1.214-4.315-1.833-5.357-1.393-2.146.906-4.892-.378-6.816-1.614a.555.555,0,0,1-.166-.765.538.538,0,0,1,.184-.175.546.546,0,0,1,.581.009c1.261.812,3.518,2.028,5.262,1.683a2.553,2.553,0,0,0,.524-.157,3.6,3.6,0,0,1,1.725-.21,8.661,8.661,0,0,1,2.255.541A16.488,16.488,0,0,1,2639.559-398.913Z" fill="url(#linear-gradient-23)"/>
            </g>
          </g>
        </g>
        <g id="组_9587" data-name="组 9587">
          <path id="路径_7780" data-name="路径 7780" d="M2638.98-392.265a.247.247,0,0,1,0,.468.9.9,0,0,1-.81,0,.247.247,0,0,1,0-.468A.9.9,0,0,1,2638.98-392.265Z" fill="url(#linear-gradient-24)"/>
        </g>
        <g id="组_9588" data-name="组 9588">
          <path id="路径_7781" data-name="路径 7781" d="M2640.021-388.542h0a.687.687,0,0,1-.417.646,2.193,2.193,0,0,1-1.263.23,2.048,2.048,0,0,1-.334-.056,1.839,1.839,0,0,1-.329-.112c-.04-.02-.082-.04-.119-.062a1.131,1.131,0,0,1-.129-.087l-.009-.006a.711.711,0,0,1-.072-.062l-.009-.009a.573.573,0,0,1-.2-.482h0v-12.186h2.892Z" fill="url(#linear-gradient-25)"/>
        </g>
        <g id="组_9589" data-name="组 9589">
          <path id="路径_7782" data-name="路径 7782" d="M2638-399.95v12.239a1.841,1.841,0,0,1-.329-.112v-12.242A1.7,1.7,0,0,0,2638-399.95Z" fill="url(#linear-gradient-26)"/>
        </g>
        <g id="组_9590" data-name="组 9590">
          <path id="路径_7783" data-name="路径 7783" d="M2637.416-400.231v12.242a.711.711,0,0,1-.072-.062l-.009-.009V-400.3l.009.009A.458.458,0,0,0,2637.416-400.231Z" fill="url(#linear-gradient-27)"/>
        </g>
        <g id="组_9591" data-name="组 9591">
          <path id="路径_7784" data-name="路径 7784" d="M2640.021-388.542h0a.687.687,0,0,1-.417.646,2.193,2.193,0,0,1-1.263.23,1.465,1.465,0,0,0,.851-.774,3.817,3.817,0,0,0,.263-1.565q.071-2.371.135-4.74c.014-.438.025-.878.018-1.316-.015-1.15-.161-2.293-.144-3.442a2.741,2.741,0,0,1,.179-1.156.693.693,0,0,0,.031-.069h.352Z" fill="url(#linear-gradient-28)"/>
        </g>
        <g id="组_9592" data-name="组 9592">
          <path id="路径_7785" data-name="路径 7785" d="M2639.935-400.443a.954.954,0,0,1-.336.3,2.273,2.273,0,0,1-1.6.177,1.7,1.7,0,0,1-.329-.115,1.039,1.039,0,0,1-.119-.062,1.007,1.007,0,0,1-.129-.086l-.009-.007a.458.458,0,0,1-.072-.061l-.009-.009a.549.549,0,0,1,.009-.863l.013-.013a1.1,1.1,0,0,1,.2-.141,2.267,2.267,0,0,1,2.045,0,1.154,1.154,0,0,1,.2.15A.544.544,0,0,1,2639.935-400.443Z" fill="url(#linear-gradient-29)"/>
        </g>
        <g id="组_9593" data-name="组 9593">
          <path id="路径_7786" data-name="路径 7786" d="M2639.935-400.443a1.756,1.756,0,0,1-.385.084c-.226.025-1.362.036-.878-.424a.838.838,0,0,1,.3-.164,4.031,4.031,0,0,1,.833-.221A.544.544,0,0,1,2639.935-400.443Z" fill="url(#linear-gradient-30)"/>
        </g>
        <g id="组_9594" data-name="组 9594">
          <path id="路径_7787" data-name="路径 7787" d="M2639.477-401.323a.9.9,0,0,1-.9.9.9.9,0,0,1-.9-.9v0a.9.9,0,0,1,.9-.9.908.908,0,0,1,.157.014A.9.9,0,0,1,2639.477-401.323Z" fill="url(#linear-gradient-31)"/>
        </g>
        <g id="组_9595" data-name="组 9595">
          <path id="路径_7788" data-name="路径 7788" d="M2638.732-401.893a1.12,1.12,0,0,1-.283.5.709.709,0,0,1-.526.205.35.35,0,0,1-.135-.035.346.346,0,0,1-.106-.091l-.009-.013a.9.9,0,0,1,.9-.9.908.908,0,0,1,.157.014A.475.475,0,0,1,2638.732-401.893Z" fill="url(#linear-gradient-32)"/>
        </g>
        <g id="组_9596" data-name="组 9596">
          <path id="路径_7789" data-name="路径 7789" d="M2632.621-400.228a2.251,2.251,0,0,1-.331.192,2.9,2.9,0,0,1-2.194-.155,13.944,13.944,0,0,1-2.761-1.408c-.133-.091-.267-.181-.407-.259-.033-.017-.09-.037-.15-.062a.546.546,0,0,1,.581.009C2628.62-401.1,2630.877-399.883,2632.621-400.228Z" fill="url(#linear-gradient-33)"/>
        </g>
        <g id="组_9597" data-name="组 9597">
          <path id="路径_7790" data-name="路径 7790" d="M2637.109-399.662a6.428,6.428,0,0,1-1.466-.531c-.258-.13-.51-.279-.773-.4a8.661,8.661,0,0,1,2.255.541A.744.744,0,0,1,2637.109-399.662Z" fill="url(#linear-gradient-34)"/>
        </g>
        <g id="组_9600" data-name="组 9600">
          <g id="组_9598" data-name="组 9598">
            <path id="路径_7791" data-name="路径 7791" d="M2627.38-402.113a.36.36,0,0,1-.361.358.339.339,0,0,1-.272-.13h0a.349.349,0,0,1-.084-.228.358.358,0,0,1,.358-.36.355.355,0,0,1,.139.029A.36.36,0,0,1,2627.38-402.113Z" fill="#f1d420"/>
          </g>
          <g id="组_9599" data-name="组 9599">
            <path id="路径_7792" data-name="路径 7792" d="M2627.38-402.113a.36.36,0,0,1-.361.358.339.339,0,0,1-.272-.13.569.569,0,0,0,.124,0c.367-.04.243-.323.287-.561A.36.36,0,0,1,2627.38-402.113Z" fill="#d8a414"/>
          </g>
        </g>
        <g id="组_9601" data-name="组 9601">
          <path id="路径_7793" data-name="路径 7793" d="M2643.164-375.564a2.009,2.009,0,0,1-.679,1.2l-.475-.157a1.843,1.843,0,0,0,.658-1.093C2642.833-375.6,2643-375.58,2643.164-375.564Z" fill="url(#linear-gradient-35)"/>
        </g>
        <g id="组_9602" data-name="组 9602">
          <path id="路径_7794" data-name="路径 7794" d="M2642.668-375.617a1.843,1.843,0,0,1-.658,1.093c-.894-.3-2.681-.92-3.4-1.273.1-.207.465-.3.685-.309a2.517,2.517,0,0,1,.628.07Q2641.287-375.772,2642.668-375.617Z" fill="url(#linear-gradient-36)"/>
        </g>
        <g id="组_9603" data-name="组 9603">
          <path id="路径_7795" data-name="路径 7795" d="M2639.992-398.718v1.226a.631.631,0,0,1-.015.134,1.2,1.2,0,0,1-.532.73c-.3.174-.547.07-.547-.231v-1.226a1.13,1.13,0,0,1,.475-.817.7.7,0,0,1,.072-.046.534.534,0,0,1,.272-.084C2639.881-399.032,2639.992-398.919,2639.992-398.718Z" fill="url(#linear-gradient-37)"/>
        </g>
        <g id="组_9604" data-name="组 9604">
          <path id="路径_7796" data-name="路径 7796" d="M2651.111-387.527a.556.556,0,0,1-.467.257.61.61,0,0,1-.106-.012.527.527,0,0,1-.19-.076,16.5,16.5,0,0,1-5.13-5.106,17.187,17.187,0,0,0-5.241-4.894c-.334-.21-.671-.409-1-.594a.088.088,0,0,1-.039-.022.115.115,0,0,1-.036-.034v-.077a1.13,1.13,0,0,1,.475-.817.3.3,0,0,1,.187-.011l.023.014.045.024c.121.068.243.14.364.214a19.366,19.366,0,0,1,6.16,5.605,15.394,15.394,0,0,0,4.788,4.766A.555.555,0,0,1,2651.111-387.527Z" fill="url(#linear-gradient-38)"/>
        </g>
        <g id="组_9605" data-name="组 9605">
          <path id="路径_7797" data-name="路径 7797" d="M2651.11-387.527a.553.553,0,0,1-.466.256.541.541,0,0,1-.106-.011.655.655,0,0,0,.1-.519.6.6,0,0,0-.166-.215,41.74,41.74,0,0,1-3.387-2.931c-.53-.635-.919-1.373-1.384-2.056a17.111,17.111,0,0,0-4.662-4.34,5.878,5.878,0,0,1-1.208-.982,2.257,2.257,0,0,1-.365-.6.194.194,0,0,1,.164.048,19.645,19.645,0,0,1,6.524,5.819,15.411,15.411,0,0,0,4.789,4.766A.552.552,0,0,1,2651.11-387.527Z" fill="url(#linear-gradient-39)"/>
        </g>
        <g id="组_9608" data-name="组 9608">
          <g id="组_9606" data-name="组 9606">
            <path id="路径_7798" data-name="路径 7798" d="M2651-388.365a.359.359,0,0,1-.36.358.342.342,0,0,1-.272-.13h0a.35.35,0,0,1-.084-.228.358.358,0,0,1,.358-.36.374.374,0,0,1,.139.028A.361.361,0,0,1,2651-388.365Z" fill="#f1d420"/>
          </g>
          <g id="组_9607" data-name="组 9607">
            <path id="路径_7799" data-name="路径 7799" d="M2651-388.365a.359.359,0,0,1-.36.358.342.342,0,0,1-.272-.13.64.64,0,0,0,.124,0c.367-.04.243-.323.287-.562A.361.361,0,0,1,2651-388.365Z" fill="#d8a414"/>
          </g>
        </g>
        <g id="组_9625" data-name="组 9625">
          <g id="组_9614" data-name="组 9614">
            <g id="组_9609" data-name="组 9609">
              <path id="路径_7800" data-name="路径 7800" d="M2654.449-379.765a6.492,6.492,0,0,1-1.7.662.8.8,0,0,0-.164-.936,1.558,1.558,0,0,0-.38-.3.145.145,0,0,0-.022-.012.758.758,0,0,0-.094-.048,3.444,3.444,0,0,0-2.429-.153,2.513,2.513,0,0,0-.389.154,1.173,1.173,0,0,0-.112.059c-.576.333-.757.808-.543,1.231a6.487,6.487,0,0,1-1.7-.662c-2.081-1.2-2.081-3.152,0-4.354a6.243,6.243,0,0,1,1.411-.583c.014,0,.028-.009.043-.012a8.918,8.918,0,0,1,4.783.045c.07.018.14.041.21.065a6.042,6.042,0,0,1,1.093.485,4.156,4.156,0,0,1,.792.583C2656.484-382.352,2656.221-380.789,2654.449-379.765Z" fill="#f1c431"/>
            </g>
            <g id="组_9610" data-name="组 9610">
              <path id="路径_7801" data-name="路径 7801" d="M2655.241-383.536l-2.659,3.5a1.558,1.558,0,0,0-.38-.3.145.145,0,0,0-.022-.012.758.758,0,0,0-.094-.048l.981-4.212c.026-.022.053-.043.079-.063.07.018.14.041.21.065a6.042,6.042,0,0,1,1.093.485A4.156,4.156,0,0,1,2655.241-383.536Z" fill="#f3d669"/>
            </g>
            <g id="组_9611" data-name="组 9611">
              <path id="路径_7802" data-name="路径 7802" d="M2652.745-379.1a1.338,1.338,0,0,1-.543.526,3.356,3.356,0,0,1-3.045,0,1.337,1.337,0,0,1-.545-.526A9.072,9.072,0,0,0,2652.745-379.1Z" fill="#e09f1a"/>
            </g>
            <g id="组_9612" data-name="组 9612">
              <path id="路径_7803" data-name="路径 7803" d="M2652.745-379.1a9.072,9.072,0,0,1-4.133,0c-.213-.423-.033-.9.545-1.231a3.362,3.362,0,0,1,3.045,0C2652.779-380,2652.96-379.527,2652.745-379.1Z" fill="#f4d23c"/>
            </g>
            <g id="组_9613" data-name="组 9613">
              <path id="路径_7804" data-name="路径 7804" d="M2654.449-384.119a8.34,8.34,0,0,0-7.54,0c-2.081,1.2-2.081,3.15,0,4.353a6.46,6.46,0,0,0,1.7.662,9.072,9.072,0,0,0,4.133,0,6.452,6.452,0,0,0,1.7-.662C2656.53-380.969,2656.53-382.917,2654.449-384.119Zm-.163,4.072a6.078,6.078,0,0,1-1.617.627,8.568,8.568,0,0,1-1.991.229,8.567,8.567,0,0,1-1.99-.229,6.088,6.088,0,0,1-1.616-.627,2.349,2.349,0,0,1-1.4-1.9,2.348,2.348,0,0,1,1.4-1.9,7.35,7.35,0,0,1,3.606-.856,7.355,7.355,0,0,1,3.608.856,2.35,2.35,0,0,1,1.4,1.9A2.348,2.348,0,0,1,2654.286-380.047Z" fill="#f4d23c"/>
            </g>
          </g>
          <g id="组_9616" data-name="组 9616">
            <g id="组_9615" data-name="组 9615">
              <path id="路径_7805" data-name="路径 7805" d="M2646.943-384a.039.039,0,0,1-.03-.013.04.04,0,0,1-.013-.03.043.043,0,0,1,.013-.03l3.736-3.674a.043.043,0,0,1,.061,0,.046.046,0,0,1,.012.03.041.041,0,0,1-.013.031l-3.736,3.674A.041.041,0,0,1,2646.943-384Z" fill="#c09f6f"/>
            </g>
          </g>
          <g id="组_9618" data-name="组 9618">
            <g id="组_9617" data-name="组 9617">
              <path id="路径_7806" data-name="路径 7806" d="M2649.825-378.926h0a.044.044,0,0,1-.038-.047l.854-8.751a.042.042,0,0,1,.028-.036.042.042,0,0,1,.045.011l5.129,5.326a.043.043,0,0,1,0,.061.041.041,0,0,1-.06,0l-5.065-5.259-.845,8.658A.043.043,0,0,1,2649.825-378.926Z" fill="#c09f6f"/>
            </g>
          </g>
          <g id="组_9620" data-name="组 9620">
            <g id="组_9619" data-name="组 9619">
              <path id="路径_7807" data-name="路径 7807" d="M2655.917-382.325a.042.042,0,0,1-.042-.043.082.082,0,0,0-.082-.082.082.082,0,0,0-.082.082.043.043,0,0,1-.043.043.043.043,0,0,1-.043-.043.167.167,0,0,1,.168-.167.167.167,0,0,1,.167.167A.043.043,0,0,1,2655.917-382.325Z" fill="#e3ab15"/>
            </g>
          </g>
          <g id="组_9622" data-name="组 9622">
            <g id="组_9621" data-name="组 9621">
              <path id="路径_7808" data-name="路径 7808" d="M2649.95-378.9a.043.043,0,0,1-.043-.043.082.082,0,0,0-.082-.082.082.082,0,0,0-.082.082.042.042,0,0,1-.042.043.043.043,0,0,1-.043-.043.167.167,0,0,1,.167-.167.167.167,0,0,1,.168.167A.043.043,0,0,1,2649.95-378.9Z" fill="#e3ab15"/>
            </g>
          </g>
          <g id="组_9624" data-name="组 9624">
            <g id="组_9623" data-name="组 9623">
              <path id="路径_7809" data-name="路径 7809" d="M2647.1-384a.043.043,0,0,1-.043-.043.082.082,0,0,0-.082-.082.082.082,0,0,0-.082.082.043.043,0,0,1-.043.043.043.043,0,0,1-.043-.043.167.167,0,0,1,.168-.167.167.167,0,0,1,.167.167A.043.043,0,0,1,2647.1-384Z" fill="#e3ab15"/>
            </g>
          </g>
        </g>
      </g>
    </g>
  </g>
</svg>
