<svg xmlns="http://www.w3.org/2000/svg" width="38.868" height="41" viewBox="0 0 38.868 41">
  <g id="mo_btn2-1" transform="translate(-2140.512 136.322)">
    <g id="组_9458" data-name="组 9458">
      <g id="组_9389" data-name="组 9389">
        <g id="组_9388" data-name="组 9388">
          <g id="组_9387" data-name="组 9387">
            <g id="组_9386" data-name="组 9386">
              <path id="路径_7522" data-name="路径 7522" d="M2164.119-109.4a2.774,2.774,0,0,1-1.635,2.278,8.071,8.071,0,0,1-3.945.941,8.079,8.079,0,0,1-3.946-.941,2.778,2.778,0,0,1-1.635-2.278,1.522,1.522,0,0,1,.014-.213c.026-.1.049-.207.073-.311.01-.042.018-.083.026-.124a57.19,57.19,0,0,0,1.175-9.786h8.585a57.055,57.055,0,0,0,1.177,9.786c.008.041.016.082.026.124.022.1.043.2.069.3A1.432,1.432,0,0,1,2164.119-109.4Z" fill="#b0cdd1"/>
              <g id="组_9384" data-name="组 9384">
                <path id="路径_7523" data-name="路径 7523" d="M2162.831-123.237v3.4a2.133,2.133,0,0,1-1.257,1.752,6.214,6.214,0,0,1-3.035.726,6.218,6.218,0,0,1-3.035-.726,2.132,2.132,0,0,1-1.256-1.752v-3.4Z" fill="#e4554a"/>
                <path id="路径_7524" data-name="路径 7524" d="M2155.569-123.237l-.065,1.752v3.4a2.13,2.13,0,0,1-1.256-1.751v-3.4Z" fill="#be3c32"/>
                <path id="路径_7525" data-name="路径 7525" d="M2161.574-124.99a2.133,2.133,0,0,1,1.257,1.752,2.13,2.13,0,0,1-1.257,1.752,6.2,6.2,0,0,1-3.035.726,6.2,6.2,0,0,1-3.035-.726,2.13,2.13,0,0,1-1.257-1.752,2.133,2.133,0,0,1,1.257-1.752,6.2,6.2,0,0,1,3.035-.725A6.2,6.2,0,0,1,2161.574-124.99Z" fill="#d1493e"/>
              </g>
              <g id="组_9385" data-name="组 9385">
                <path id="路径_7526" data-name="路径 7526" d="M2164.658-107.411a2.3,2.3,0,0,1-.448,1.329,4.149,4.149,0,0,1-1.344,1.17,7.492,7.492,0,0,1-2.024.775,10.2,10.2,0,0,1-2.3.258,10.205,10.205,0,0,1-2.3-.258,7.488,7.488,0,0,1-2.025-.775q.117-.528.219-1.078c.069-.366.133-.739.194-1.116a6.857,6.857,0,0,0,1.835.693,9.294,9.294,0,0,0,2.08.23,9.291,9.291,0,0,0,2.1-.235,6.8,6.8,0,0,0,1.845-.706,3.771,3.771,0,0,0,1.226-1.067,2.1,2.1,0,0,0,.409-1.211c0-.039,0-.077,0-.114a1.079,1.079,0,0,0-.012-.113c.066.27.141.538.219.805s.162.532.244.8a2.343,2.343,0,0,1,.069.306A2.136,2.136,0,0,1,2164.658-107.411Z" fill="#8badb2"/>
                <path id="路径_7527" data-name="路径 7527" d="M2154.624-107.106c-.061.377-.125.75-.194,1.116s-.141.726-.219,1.078a4.174,4.174,0,0,1-1.344-1.17,2.3,2.3,0,0,1-.448-1.329,2.136,2.136,0,0,1,.023-.309,2.2,2.2,0,0,1,.071-.306c.062-.2.125-.406.187-.609s.121-.407.176-.612l.049-.183c.017-.062.032-.123.047-.185,0,.035-.008.071-.01.106s0,.071,0,.107a2.1,2.1,0,0,0,.409,1.211,3.794,3.794,0,0,0,1.226,1.067Z" fill="#729198"/>
              </g>
              <path id="路径_7528" data-name="路径 7528" d="M2155.5-118.085a86.5,86.5,0,0,1-.88,10.979l-.032-.017a2.779,2.779,0,0,1-1.635-2.28,1.671,1.671,0,0,1,.014-.212c.026-.1.049-.207.073-.311a57.31,57.31,0,0,0,1.2-9.91,2.134,2.134,0,0,0,1.257,1.751Z" fill="#799aa1"/>
            </g>
            <path id="路径_7529" data-name="路径 7529" d="M2165.954-124.8c-.225.31-.6.6-.961.475a1.767,1.767,0,0,1-.858.486,1.732,1.732,0,0,1-.731.031c0,.012.006.024.006.036a1.687,1.687,0,0,1-.517,1.619.226.226,0,0,1-.042.031,1.613,1.613,0,0,1-1.272.346,1.3,1.3,0,0,1-.128.079,1.5,1.5,0,0,1-.225.116,5.1,5.1,0,0,1-1.461.469c-.012-.006-.018,0-.024.006-.122.024-.243.042-.371.055a.022.022,0,0,1-.018.006c-.268.024-.542.042-.816.042a5.872,5.872,0,0,1-2.909-.694,2.472,2.472,0,0,1-.955-.888.117.117,0,0,1-.024-.049.778.778,0,0,1-.956-.03,1.14,1.14,0,0,1-.833.73,2.613,2.613,0,0,1-1.15-.024,1.777,1.777,0,0,1-2.234-.408.507.507,0,0,1-.14-.371.237.237,0,0,1,.134-.17,1.29,1.29,0,0,1-.992-1.558,2.038,2.038,0,0,1,1.668-1.357,1.443,1.443,0,0,1,.45-1.345,1.351,1.351,0,0,1,.724-.335,1.366,1.366,0,0,1,.663.055,1.039,1.039,0,0,1-.054-1.041,3.013,3.013,0,0,1,.681-.845,2.032,2.032,0,0,1,.8-.566.789.789,0,0,1,.578.042.347.347,0,0,1,.025-.14.7.7,0,0,1,.456-.316,3.869,3.869,0,0,1,1.053-.177,6.136,6.136,0,0,1,1.905.244,2.285,2.285,0,0,1,1.235.681.975.975,0,0,1,.073,1.132.478.478,0,0,1-.134.14,1.131,1.131,0,0,1,.438-.146,1.344,1.344,0,0,1,1.345.615c.03.054.067.127.134.146a.054.054,0,0,0,.03.006.282.282,0,0,0,.2-.134c.286-.335.651-.706,1.077-.645.012,0,.012-.018.012-.018a.34.34,0,0,1,.238-.286.96.96,0,0,1,.584-.013,3.227,3.227,0,0,1,1.868,1.473.856.856,0,0,1,.14.633.352.352,0,0,1-.067.134,2.149,2.149,0,0,1,.712-.079,1.084,1.084,0,0,1,.937.614A1.3,1.3,0,0,1,2165.954-124.8Z" fill="#daeeee"/>
            <path id="路径_7530" data-name="路径 7530" d="M2163.039-132.5a.723.723,0,0,1-.249.213c.03.1-.858-.182-1.412-.061a3.741,3.741,0,0,0-.444.122c-.4.116-.779.274-1.187.353a.468.468,0,0,1-.067.164.713.713,0,0,1-.779.232,1.039,1.039,0,0,1-.188-.086,1.356,1.356,0,0,0-1.327-.054,2.878,2.878,0,0,1-.688.273c-.243.061-.547.073-.693-.127a.688.688,0,0,1-.1-.347c-.036-.511.116-.828-.383-1-.213-.067-.5-.012-.73-.061a4.576,4.576,0,0,0-.664-.262,3.025,3.025,0,0,1-1.813.207c-.584-.188-1.022-.949-.657-1.448a1.286,1.286,0,0,1,.791-.426h.018c.5-.122,1.144-.085,1.351.377a2.7,2.7,0,0,1,1.4-1.18,7.8,7.8,0,0,1,1-.384,7.562,7.562,0,0,1,2.239-.328,3.081,3.081,0,0,1,1.667.383,1.414,1.414,0,0,1,.694,1.4,4.365,4.365,0,0,1,1.169.067,1.7,1.7,0,0,1,1.174.864A1.1,1.1,0,0,1,2163.039-132.5Z" fill="#daeeee"/>
          </g>
        </g>
        <path id="路径_7531" data-name="路径 7531" d="M2150.266-131.253a.689.689,0,0,1-.529.511,1.122,1.122,0,0,1-.469.006,2.491,2.491,0,0,1-.3-.073.556.556,0,0,0-.4-.03.71.71,0,0,0-.207.182.97.97,0,0,1-.834.207,2.851,2.851,0,0,1-.828-.329,1.2,1.2,0,0,1-1.685.414.631.631,0,0,0-.28-.152.7.7,0,0,0-.39.146.865.865,0,0,1-1.089-.329.857.857,0,0,1,.256-1.107.516.516,0,0,1-.737-.359.9.9,0,0,1,.372-.84c.1-.091.3-.146.353-.018a.862.862,0,0,1,.432-.657.637.637,0,0,1,.188-.049.439.439,0,0,1,.463.31c0-.006.018-.018.055-.036a3.393,3.393,0,0,1,.949-.158c.517-.019,1.053.1,1.12.584.006.073.018.237.091.274a.677.677,0,0,0,.286.061,1.4,1.4,0,0,0,.493-.1,4.961,4.961,0,0,1,.6-.213.8.8,0,0,1,.164-.03,1.042,1.042,0,0,1,.931.438.645.645,0,0,1,.621-.049.636.636,0,0,1,.359.511.864.864,0,0,1-.018.25.511.511,0,0,0-.031.213A1.067,1.067,0,0,1,2150.266-131.253Z" fill="#daeeee"/>
        <path id="路径_7532" data-name="路径 7532" d="M2162.851-122.125a1.613,1.613,0,0,1-1.272.346,1.3,1.3,0,0,1-.128.079,1.5,1.5,0,0,1-.225.116,5.1,5.1,0,0,1-1.461.469c-.012-.006-.018,0-.024.006-.122.024-.243.042-.371.055a.022.022,0,0,1-.018.006c-.268.024-.542.042-.816.042a5.872,5.872,0,0,1-2.909-.694,2.472,2.472,0,0,1-.955-.888.117.117,0,0,1-.024-.049.778.778,0,0,1-.956-.03,1.14,1.14,0,0,1-.833.73,2.613,2.613,0,0,1-1.15-.024,1.777,1.777,0,0,1-2.234-.408.507.507,0,0,1-.14-.371.237.237,0,0,1,.134-.17,1.29,1.29,0,0,1-.992-1.558,2.038,2.038,0,0,1,1.668-1.357,1.443,1.443,0,0,1,.45-1.345,1.351,1.351,0,0,1,.724-.335,1.033,1.033,0,0,0-.45.542c-.122.395.2.913.6.846a2.219,2.219,0,0,0-1.217,1.253,1.168,1.168,0,0,0,.688,1.461.706.706,0,0,0,.067,1.107,1.294,1.294,0,0,0,1.247.031,1.161,1.161,0,0,0,.791-1.193,1.785,1.785,0,0,0,1.674.3.271.271,0,0,0-.1.414.67.67,0,0,0,.445.213,2.4,2.4,0,0,0,1.557-.317.61.61,0,0,0,.165.688,1.541,1.541,0,0,0,.681.31,6.566,6.566,0,0,0,4.15-.377A2.128,2.128,0,0,0,2162.851-122.125Z" fill="#c6e1e1"/>
        <path id="路径_7533" data-name="路径 7533" d="M2155.542-125.862a2.881,2.881,0,0,1-1.552.11.979.979,0,0,1-.693-1.211c-.432-.231-.95-.244-1.315-.487a1.039,1.039,0,0,1-.054-1.041,3.013,3.013,0,0,1,.681-.845,2.032,2.032,0,0,1,.8-.566.789.789,0,0,1,.578.042.347.347,0,0,1,.025-.14.7.7,0,0,1,.456-.316,3.869,3.869,0,0,1,1.053-.177,1.153,1.153,0,0,0-.469.311.668.668,0,0,0-.042.876,1.265,1.265,0,0,0-1.077.56,1.268,1.268,0,0,0-.11,1.205.544.544,0,0,0,.183.237.592.592,0,0,0,.255.079c.256.043.511.085.767.134a.485.485,0,0,0-.456.365.661.661,0,0,0,.261.663A1.084,1.084,0,0,0,2155.542-125.862Z" fill="#c6e1e1"/>
        <path id="路径_7534" data-name="路径 7534" d="M2163.4-123.811c0,.012.006.024.006.036a1.594,1.594,0,0,1-.517-.219,3.631,3.631,0,0,1-.6-.511.709.709,0,0,1-.219-.3.278.278,0,0,1,.121-.329.87.87,0,0,1-.809-.462.87.87,0,0,1,.1-.925.887.887,0,0,1-.851-.511,1.3,1.3,0,0,1,.109-.773c.286-.335.651-.706,1.077-.645a.582.582,0,0,0-.067.091.694.694,0,0,0-.128.353.306.306,0,0,0,.2.3c-.109.213.061.469.237.639a1.2,1.2,0,0,0,.913.426,1.27,1.27,0,0,0-.334,1.169.943.943,0,0,0,.924.712.647.647,0,0,0,.153.693.906.906,0,0,0,.42.231A1.732,1.732,0,0,1,2163.4-123.811Z" fill="#c6e1e1"/>
        <path id="路径_7535" data-name="路径 7535" d="M2160.4-126.738a.669.669,0,0,1-.456.462,1.094,1.094,0,0,1-.669-.036.806.806,0,0,1-.384-.244.435.435,0,0,1-.079-.432.146.146,0,0,1,.1-.091c-.219-.006-.34-.249-.389-.462a.98.98,0,0,1,.073-.755,1.131,1.131,0,0,1,.438-.146c.037.158-.055.487.049.615a2.283,2.283,0,0,1,.255.669.686.686,0,0,0,.359.5A.838.838,0,0,0,2160.4-126.738Z" fill="#c6e1e1"/>
        <path id="路径_7536" data-name="路径 7536" d="M2159.68-131.71a.713.713,0,0,1-.779.232,1.039,1.039,0,0,1-.188-.086,1.356,1.356,0,0,0-1.327-.054,2.878,2.878,0,0,1-.688.273c-.243.061-.547.073-.693-.127a.688.688,0,0,1-.1-.347c-.036-.511.116-.828-.383-1-.213-.067-.5-.012-.73-.061a4.576,4.576,0,0,0-.664-.262,3.025,3.025,0,0,1-1.813.207c-.584-.188-1.022-.949-.657-1.448a1.286,1.286,0,0,1,.791-.426h.018a1.734,1.734,0,0,0-.328.56.655.655,0,0,0,.03.62.659.659,0,0,0,.365.207,3.644,3.644,0,0,0,2.051-.164c.042.262.353.377.614.408a3.572,3.572,0,0,0,1.522-.134c-.012.164-.183.262-.3.371a1.569,1.569,0,0,0-.359.889.283.283,0,0,0,.019.188.208.208,0,0,0,.164.085,2.592,2.592,0,0,0,1.028-.14,4.663,4.663,0,0,1,1.3-.127,1.653,1.653,0,0,1,.462.073,5.06,5.06,0,0,1,.463.207A1.082,1.082,0,0,0,2159.68-131.71Z" fill="#c6e1e1"/>
        <path id="路径_7537" data-name="路径 7537" d="M2156.224-135.994a3.039,3.039,0,0,0-.5.305,7.883,7.883,0,0,0-1.065,1.351.412.412,0,0,1-.231.176.455.455,0,0,1-.28-.067.856.856,0,0,1-.311-.2,2.593,2.593,0,0,1,1.382-1.18A7.8,7.8,0,0,1,2156.224-135.994Z" fill="#c6e1e1"/>
        <path id="路径_7538" data-name="路径 7538" d="M2163.039-132.5a.723.723,0,0,1-.249.213c.03.1-.858-.182-1.412-.061a3.741,3.741,0,0,0-.444.122.731.731,0,0,0-.128-.073,2.966,2.966,0,0,0-1.2-.116,2.426,2.426,0,0,1-1.156-.322,1.9,1.9,0,0,1-.8-.882.935.935,0,0,1-.092-.384.655.655,0,0,1,.493-.645c.037.1-.091.256-.115.353a.9.9,0,0,0,.006.444,1.273,1.273,0,0,0,.529.712,2.431,2.431,0,0,0,1.345.3,10.65,10.65,0,0,0,1.594-.147.2.2,0,0,1,.122.007.307.307,0,0,1,.067.091.994.994,0,0,0,.876.444A2.926,2.926,0,0,0,2163.039-132.5Z" fill="#c6e1e1"/>
        <path id="路径_7539" data-name="路径 7539" d="M2146.262-130.334a1.193,1.193,0,0,1-1.247-.031.631.631,0,0,0-.28-.152.7.7,0,0,0-.39.146.865.865,0,0,1-1.089-.329.857.857,0,0,1,.256-1.107.516.516,0,0,1-.737-.359.9.9,0,0,1,.372-.84c.1-.091.3-.146.353-.018a.862.862,0,0,1,.432-.657.637.637,0,0,1,.188-.049,1.39,1.39,0,0,0-.2.456.841.841,0,0,0,.115.682.223.223,0,0,0-.322.1.328.328,0,0,0,.1.353.727.727,0,0,0,.353.165.609.609,0,0,0-.152.639.617.617,0,0,0,.535.383c.262.006.5-.158.767-.14A1.648,1.648,0,0,0,2146.262-130.334Z" fill="#c6e1e1"/>
        <path id="路径_7540" data-name="路径 7540" d="M2149.268-130.736a2.491,2.491,0,0,1-.3-.073.556.556,0,0,0-.4-.03.71.71,0,0,0-.207.182.97.97,0,0,1-.834.207,2.851,2.851,0,0,1-.828-.329c-.006.006-.006.019-.012.025a.382.382,0,0,1,.122-.3.076.076,0,0,1,.067-.031.071.071,0,0,1,.055.037,1.47,1.47,0,0,0,.876.432.37.37,0,0,0,.28-.055.7.7,0,0,0,.1-.158.514.514,0,0,1,.67-.177c.1.061.182.152.286.213A.417.417,0,0,0,2149.268-130.736Z" fill="#c6e1e1"/>
        <path id="路径_7541" data-name="路径 7541" d="M2145.587-133.614a2.3,2.3,0,0,0-.213.134,1.012,1.012,0,0,0-.184.139.994.994,0,0,0-.177.356.783.783,0,0,0,.117.576.842.842,0,0,1-.5-.4.729.729,0,0,1,.006-.642A3.393,3.393,0,0,1,2145.587-133.614Z" fill="#c6e1e1"/>
        <path id="路径_7542" data-name="路径 7542" d="M2149.12-131.857a.478.478,0,0,1-.43.054,3.166,3.166,0,0,1-.894-.272.8.8,0,0,1-.363-.336.277.277,0,0,1,.144-.382,4.961,4.961,0,0,1,.6-.213.428.428,0,0,0-.124.273.558.558,0,0,0,.051.212A1.031,1.031,0,0,0,2149.12-131.857Z" fill="#c6e1e1"/>
      </g>
      <g id="组_9456" data-name="组 9456">
        <g id="组_9398" data-name="组 9398">
          <g id="组_9392" data-name="组 9392">
            <g id="组_9390" data-name="组 9390">
              <path id="路径_7543" data-name="路径 7543" d="M2179.38-107.615v4.736L2166.667-95.5v-4.736Z" fill="#f5d7a4"/>
            </g>
            <g id="组_9391" data-name="组 9391">
              <path id="路径_7544" data-name="路径 7544" d="M2166.667-100.234V-95.5l-6.515-3.765V-104Z" fill="#f3c47e"/>
            </g>
            <path id="路径_7545" data-name="路径 7545" d="M2179.38-108.041l-12.712,7.381-6.515-3.764,12.722-7.381Z" fill="#5d899f"/>
            <path id="路径_7546" data-name="路径 7546" d="M2179.38-108.042v.426l-12.712,7.381v-.426Z" fill="#36718c"/>
            <path id="路径_7547" data-name="路径 7547" d="M2166.667-100.66v.426L2160.152-104v-.426l.83.478Z" fill="#245972"/>
            <path id="路径_7548" data-name="路径 7548" d="M2179.38-103.13v.426l-12.712,7.381v-.426Z" fill="#36718c"/>
            <path id="路径_7549" data-name="路径 7549" d="M2166.667-95.749v.426l-6.515-3.765v-.426Z" fill="#245972"/>
          </g>
          <g id="组_9395" data-name="组 9395">
            <g id="组_9393" data-name="组 9393">
              <path id="路径_7550" data-name="路径 7550" d="M2173.7-103.233v.994l-3.592,2.06v-.994Z" fill="#36718c"/>
              <path id="路径_7551" data-name="路径 7551" d="M2173.6-102.3v-.764l-3.393,1.946v.764Z" fill="#223d53"/>
              <path id="路径_7552" data-name="路径 7552" d="M2173.458-102.377l.14.081v-.764l-.14.081Z" fill="#2c6580"/>
              <path id="路径_7553" data-name="路径 7553" d="M2170.205-100.513v.162l3.393-1.945-.14-.081Z" fill="#5d899f"/>
              <path id="路径_7554" data-name="路径 7554" d="M2170.014-100.231l.092.053v-.994l-.092-.053Z" fill="#2c6580"/>
              <path id="路径_7555" data-name="路径 7555" d="M2170.014-101.225l.092.053,3.592-2.06-.092-.053Z" fill="#5d899f"/>
            </g>
            <g id="组_9394" data-name="组 9394">
              <path id="路径_7556" data-name="路径 7556" d="M2173.7-101.663v.994l-3.592,2.06V-99.6Z" fill="#36718c"/>
              <path id="路径_7557" data-name="路径 7557" d="M2173.6-100.726v-.764l-3.393,1.946v.764Z" fill="#223d53"/>
              <path id="路径_7558" data-name="路径 7558" d="M2173.458-100.807l.14.081v-.764l-.14.081Z" fill="#2c6580"/>
              <path id="路径_7559" data-name="路径 7559" d="M2170.205-98.943v.162l3.393-1.945-.14-.081Z" fill="#5d899f"/>
              <path id="路径_7560" data-name="路径 7560" d="M2170.014-98.661l.092.053V-99.6l-.092-.053Z" fill="#2c6580"/>
              <path id="路径_7561" data-name="路径 7561" d="M2170.014-99.656l.092.053,3.592-2.06-.092-.053Z" fill="#5d899f"/>
            </g>
          </g>
          <g id="组_9396" data-name="组 9396">
            <path id="路径_7562" data-name="路径 7562" d="M2169.279-100.741l-1.467.831v3.926l1.354-.787Z" fill="#d18567"/>
            <path id="路径_7563" data-name="路径 7563" d="M2169.38-100.889l-1.642.934v4.091l.144-.083v-3.926l1.354-.768v3.907l.144-.083Z" fill="#36718c"/>
            <path id="路径_7564" data-name="路径 7564" d="M2167.738-99.955l-.07-.038V-95.9l.07.038Z" fill="#2c6580"/>
            <path id="路径_7565" data-name="路径 7565" d="M2169.31-100.927l.07.038-1.642.934-.07-.038Z" fill="#5d899f"/>
            <path id="路径_7566" data-name="路径 7566" d="M2169.235-96.734l-.069-.039V-100.6l.069-.04Z" fill="#2c6580"/>
          </g>
          <g id="组_9397" data-name="组 9397">
            <path id="路径_7567" data-name="路径 7567" d="M2178.529-106.1l-2.913,1.656v3.926l2.8-1.613Z" fill="#d18567"/>
            <path id="路径_7568" data-name="路径 7568" d="M2178.629-106.248l-3.087,1.759v4.091l.144-.083v-3.926l2.8-1.594v3.907l.144-.083Z" fill="#36718c"/>
            <path id="路径_7569" data-name="路径 7569" d="M2175.542-104.488l-.07-.038v4.091l.07.038Z" fill="#2c6580"/>
            <path id="路径_7570" data-name="路径 7570" d="M2178.56-106.286l.07.038-3.087,1.759-.07-.038Z" fill="#5d899f"/>
            <path id="路径_7571" data-name="路径 7571" d="M2178.485-102.093l-.069-.039v-3.828l.069-.04Z" fill="#2c6580"/>
          </g>
        </g>
        <g id="组_9405" data-name="组 9405">
          <g id="组_9401" data-name="组 9401">
            <g id="组_9399" data-name="组 9399">
              <path id="路径_7572" data-name="路径 7572" d="M2179.38-112.775v4.736l-5.941,3.445v-4.736Z" fill="#f5d7a4"/>
            </g>
            <g id="组_9400" data-name="组 9400">
              <path id="路径_7573" data-name="路径 7573" d="M2173.438-109.33v4.736l-6.515-3.765v-4.736Z" fill="#f3c47e"/>
            </g>
            <path id="路径_7574" data-name="路径 7574" d="M2179.38-113.2l-5.942,3.445-6.515-3.764,5.951-3.445Z" fill="#5d899f"/>
            <path id="路径_7575" data-name="路径 7575" d="M2179.38-113.2v.426l-5.941,3.445v-.426Z" fill="#36718c"/>
            <path id="路径_7576" data-name="路径 7576" d="M2173.438-109.756v.426l-6.515-3.765v-.426l.83.478Z" fill="#245972"/>
          </g>
          <g id="组_9404" data-name="组 9404">
            <g id="组_9402" data-name="组 9402">
              <path id="路径_7577" data-name="路径 7577" d="M2178.315-111.023v.994l-3.593,2.06v-.994Z" fill="#36718c"/>
              <path id="路径_7578" data-name="路径 7578" d="M2178.215-110.087v-.764l-3.393,1.946v.764Z" fill="#223d53"/>
              <path id="路径_7579" data-name="路径 7579" d="M2178.075-110.168l.14.081v-.764l-.14.081Z" fill="#2c6580"/>
              <path id="路径_7580" data-name="路径 7580" d="M2174.822-108.3v.162l3.393-1.945-.14-.081Z" fill="#5d899f"/>
              <path id="路径_7581" data-name="路径 7581" d="M2174.631-108.022l.092.053v-.994l-.092-.053Z" fill="#2c6580"/>
              <path id="路径_7582" data-name="路径 7582" d="M2174.631-109.016l.092.053,3.593-2.06-.092-.053Z" fill="#5d899f"/>
            </g>
            <g id="组_9403" data-name="组 9403">
              <path id="路径_7583" data-name="路径 7583" d="M2178.315-109.453v.994l-3.593,2.06v-.994Z" fill="#36718c"/>
              <path id="路径_7584" data-name="路径 7584" d="M2178.215-108.517v-.764l-3.393,1.946v.764Z" fill="#223d53"/>
              <path id="路径_7585" data-name="路径 7585" d="M2178.075-108.6l.14.081v-.764l-.14.081Z" fill="#2c6580"/>
              <path id="路径_7586" data-name="路径 7586" d="M2174.822-106.733v.162l3.393-1.945-.14-.081Z" fill="#5d899f"/>
              <path id="路径_7587" data-name="路径 7587" d="M2174.631-106.452l.092.053v-.994l-.092-.053Z" fill="#2c6580"/>
              <path id="路径_7588" data-name="路径 7588" d="M2174.631-107.446l.092.053,3.593-2.06-.092-.053Z" fill="#5d899f"/>
            </g>
          </g>
        </g>
        <g id="组_9412" data-name="组 9412">
          <g id="组_9407" data-name="组 9407">
            <path id="路径_7589" data-name="路径 7589" d="M2165.178-97.753l.517.3c.159.091.3.091.38,0a.423.423,0,0,0,0-.439l-.5-1.148h-.383l.493,1.139-.51-.294Z" fill="#6daf45"/>
            <g id="组_9406" data-name="组 9406">
              <path id="路径_7590" data-name="路径 7590" d="M2165.275-98.25h-.574l.574.663Z" fill="#6daf45"/>
            </g>
          </g>
          <g id="组_9409" data-name="组 9409">
            <path id="路径_7591" data-name="路径 7591" d="M2163.549-98.694l.994.574v-.443l-.986-.569.255-.294-.384-.443-.259.3a.428.428,0,0,0,0,.439A.963.963,0,0,0,2163.549-98.694Z" fill="#6daf45"/>
            <g id="组_9408" data-name="组 9408">
              <path id="路径_7592" data-name="路径 7592" d="M2163.858-99.261v-.663h-.574Z" fill="#6daf45"/>
            </g>
          </g>
          <g id="组_9411" data-name="组 9411">
            <path id="路径_7593" data-name="路径 7593" d="M2164.129-99.814l.493-.57.255.589h.384l-.259-.6a.948.948,0,0,0-.38-.439c-.158-.092-.3-.092-.38,0l-.5.574Z" fill="#6daf45"/>
            <g id="组_9410" data-name="组 9410">
              <path id="路径_7594" data-name="路径 7594" d="M2164.734-99.907l.574.663v-.663Z" fill="#6daf45"/>
            </g>
          </g>
        </g>
        <g id="组_9422" data-name="组 9422">
          <g id="组_9413" data-name="组 9413">
            <path id="路径_7595" data-name="路径 7595" d="M2168.52-108.723v2.588a.447.447,0,0,1-.265.368,1.3,1.3,0,0,1-.637.153,1.3,1.3,0,0,1-.638-.153.447.447,0,0,1-.264-.368v-2.588Z" fill="#c0d9db"/>
            <path id="路径_7596" data-name="路径 7596" d="M2166.993-108.723l-.013.368v2.588a.447.447,0,0,1-.264-.368v-2.588Z" fill="#799aa1"/>
          </g>
          <g id="组_9414" data-name="组 9414">
            <path id="路径_7597" data-name="路径 7597" d="M2168.52-110.232v1.543a.448.448,0,0,1-.265.368,1.3,1.3,0,0,1-.637.153,1.3,1.3,0,0,1-.638-.153.448.448,0,0,1-.264-.368v-1.543Z" fill="#e4554a"/>
            <path id="路径_7598" data-name="路径 7598" d="M2166.993-110.232l-.013.368v1.543a.448.448,0,0,1-.264-.368v-1.543Z" fill="#be3c32"/>
          </g>
          <g id="组_9415" data-name="组 9415">
            <path id="路径_7599" data-name="路径 7599" d="M2168.52-112.427v2.588a.448.448,0,0,1-.265.368,1.3,1.3,0,0,1-.637.153,1.3,1.3,0,0,1-.638-.153.448.448,0,0,1-.264-.368v-2.588Z" fill="#c0d9db"/>
            <path id="路径_7600" data-name="路径 7600" d="M2166.993-112.427l-.013.368v2.588a.448.448,0,0,1-.264-.368v-2.588Z" fill="#799aa1"/>
          </g>
          <g id="组_9416" data-name="组 9416">
            <path id="路径_7601" data-name="路径 7601" d="M2168.52-113.936v1.542a.448.448,0,0,1-.265.369,1.309,1.309,0,0,1-.637.152,1.311,1.311,0,0,1-.638-.152.449.449,0,0,1-.264-.369v-1.542Z" fill="#e4554a"/>
            <path id="路径_7602" data-name="路径 7602" d="M2166.993-113.936l-.013.368v1.543a.449.449,0,0,1-.264-.369v-1.542Z" fill="#be3c32"/>
          </g>
          <g id="组_9417" data-name="组 9417">
            <path id="路径_7603" data-name="路径 7603" d="M2168.52-116.132v2.589a.448.448,0,0,1-.265.368,1.309,1.309,0,0,1-.637.152,1.311,1.311,0,0,1-.638-.152.448.448,0,0,1-.264-.368v-2.589Z" fill="#c0d9db"/>
            <path id="路径_7604" data-name="路径 7604" d="M2166.993-116.132l-.013.369v2.588a.448.448,0,0,1-.264-.368v-2.589Z" fill="#799aa1"/>
          </g>
          <g id="组_9418" data-name="组 9418">
            <path id="路径_7605" data-name="路径 7605" d="M2168.52-117.64v1.542a.447.447,0,0,1-.265.368,1.3,1.3,0,0,1-.637.153,1.3,1.3,0,0,1-.638-.153.447.447,0,0,1-.264-.368v-1.542Z" fill="#e4554a"/>
            <path id="路径_7606" data-name="路径 7606" d="M2166.993-117.64l-.013.368v1.542a.447.447,0,0,1-.264-.368v-1.542Z" fill="#be3c32"/>
          </g>
          <g id="组_9419" data-name="组 9419">
            <path id="路径_7607" data-name="路径 7607" d="M2168.52-119.836v2.588a.447.447,0,0,1-.265.368,1.3,1.3,0,0,1-.637.153,1.3,1.3,0,0,1-.638-.153.447.447,0,0,1-.264-.368v-2.588Z" fill="#c0d9db"/>
            <path id="路径_7608" data-name="路径 7608" d="M2166.993-119.836l-.013.368v2.588a.447.447,0,0,1-.264-.368v-2.588Z" fill="#799aa1"/>
          </g>
          <g id="组_9420" data-name="组 9420">
            <path id="路径_7609" data-name="路径 7609" d="M2168.52-121.345v1.543a.448.448,0,0,1-.265.368,1.3,1.3,0,0,1-.637.153,1.3,1.3,0,0,1-.638-.153.448.448,0,0,1-.264-.368v-1.543Z" fill="#e4554a"/>
            <path id="路径_7610" data-name="路径 7610" d="M2166.993-121.345l-.013.368v1.543a.448.448,0,0,1-.264-.368v-1.543Z" fill="#be3c32"/>
          </g>
          <g id="组_9421" data-name="组 9421">
            <path id="路径_7611" data-name="路径 7611" d="M2168.52-122.553v1.542a.448.448,0,0,1-.265.369,1.309,1.309,0,0,1-.637.152,1.311,1.311,0,0,1-.638-.152.449.449,0,0,1-.264-.369v-1.542Z" fill="#c0d9db"/>
            <path id="路径_7612" data-name="路径 7612" d="M2166.993-122.553l-.013.368v1.543a.449.449,0,0,1-.264-.369v-1.542Z" fill="#799aa1"/>
            <path id="路径_7613" data-name="路径 7613" d="M2168.256-122.922a.449.449,0,0,1,.264.369.449.449,0,0,1-.264.368,1.3,1.3,0,0,1-.638.152,1.3,1.3,0,0,1-.638-.152.448.448,0,0,1-.264-.368.449.449,0,0,1,.264-.369,1.311,1.311,0,0,1,.638-.152A1.314,1.314,0,0,1,2168.256-122.922Z" fill="#8badb2"/>
            <path id="路径_7614" data-name="路径 7614" d="M2168.485-122.552a.357.357,0,0,1-.16.277.774.774,0,0,1-.086.059c-.023.013-.054.018-.078.03a1.176,1.176,0,0,1-.333.094c-.044.008-.09.012-.136.016-.025,0-.048.008-.074.008h-.035a.078.078,0,0,1-.032,0,.922.922,0,0,1-.1,0,1.118,1.118,0,0,1-.449-.14.157.157,0,0,1-.043-.028.71.71,0,0,0-.1-.078.336.336,0,0,1-.1-.23.313.313,0,0,1,.019-.1.487.487,0,0,1,.227-.238,1.277,1.277,0,0,1,.621-.148,1.278,1.278,0,0,1,.621.148A.415.415,0,0,1,2168.485-122.552Z" fill="#b0cdd1"/>
          </g>
          <path id="路径_7615" data-name="路径 7615" d="M2168.485-122.553a.417.417,0,0,1-.247.338v-.676A.417.417,0,0,1,2168.485-122.553Z" fill="#799aa1"/>
        </g>
        <g id="组_9433" data-name="组 9433">
          <g id="组_9427" data-name="组 9427">
            <g id="组_9426" data-name="组 9426" style="isolation: isolate">
              <g id="组_9423" data-name="组 9423">
                <path id="路径_7616" data-name="路径 7616" d="M2174.733-99.295l-.9.522a.022.022,0,0,0,.01-.017l.9-.522A.02.02,0,0,1,2174.733-99.295Z" fill="#429645"/>
              </g>
              <g id="组_9424" data-name="组 9424">
                <path id="路径_7617" data-name="路径 7617" d="M2173.9-99.3l.9-.522-.052.511-.9.522Z" fill="#58a345"/>
              </g>
              <g id="组_9425" data-name="组 9425">
                <path id="路径_7618" data-name="路径 7618" d="M2173.9-99.3l-.052.511c0,.019-.017.025-.034.015l-.553-.319a.076.076,0,0,1-.034-.056l-.025-.554Z" fill="#1b7c5e"/>
              </g>
            </g>
          </g>
          <g id="组_9432" data-name="组 9432">
            <g id="组_9431" data-name="组 9431" style="isolation: isolate">
              <g id="组_9428" data-name="组 9428">
                <path id="路径_7619" data-name="路径 7619" d="M2173.932-99.309l.869-.505v.034l-.869.505Z" fill="#429645"/>
              </g>
              <path id="路径_7620" data-name="路径 7620" d="M2174.522-100.075a1.214,1.214,0,0,0-.149-.1.9.9,0,0,0-.292-.113.024.024,0,0,0-.019,0l-.869.505a.034.034,0,0,1,.018,0,.92.92,0,0,1,.293.113,1.341,1.341,0,0,1,.149.1l.24.186.87-.506Z" fill="#58a345"/>
              <path id="路径_7621" data-name="路径 7621" d="M2174.706-99.894l-.81.471-.223-.172a1.52,1.52,0,0,0-.153-.1,1.014,1.014,0,0,0-.233-.1l.025-.015.767-.445a.961.961,0,0,1,.278.11,1.266,1.266,0,0,1,.146.1Z" fill="#429645"/>
              <g id="组_9429" data-name="组 9429">
                <path id="路径_7622" data-name="路径 7622" d="M2173.893-99.384l.87-.506a.106.106,0,0,1,.038.076l-.869.505A.1.1,0,0,0,2173.893-99.384Z" fill="#6daf45"/>
              </g>
              <g id="组_9430" data-name="组 9430">
                <path id="路径_7623" data-name="路径 7623" d="M2173.5-99.67a1.341,1.341,0,0,1,.149.1l.24.186a.1.1,0,0,1,.039.075v.034l-.753-.435v-.04c0-.023.014-.037.032-.033A.92.92,0,0,1,2173.5-99.67Z" fill="#1c8061"/>
              </g>
            </g>
          </g>
          <path id="路径_7624" data-name="路径 7624" d="M2173.9-99.444v.021l-.223-.172a1.52,1.52,0,0,0-.153-.1,1.014,1.014,0,0,0-.233-.1v-.022l.025.007a1.116,1.116,0,0,1,.208.093,1.52,1.52,0,0,1,.153.1Z" fill="#1c8061"/>
          <path id="路径_7625" data-name="路径 7625" d="M2174.706-99.915v.021l-.02-.006C2174.7-99.916,2174.706-99.915,2174.706-99.915Z" fill="#429645"/>
          <path id="路径_7626" data-name="路径 7626" d="M2174.706-99.915l-.81.471-.223-.173a1.52,1.52,0,0,0-.153-.1,1.014,1.014,0,0,0-.233-.1l.792-.46a.937.937,0,0,1,.278.111,1.265,1.265,0,0,1,.146.1Z" fill="#6daf45"/>
        </g>
        <g id="组_9444" data-name="组 9444">
          <g id="组_9438" data-name="组 9438">
            <g id="组_9437" data-name="组 9437" style="isolation: isolate">
              <g id="组_9434" data-name="组 9434">
                <path id="路径_7627" data-name="路径 7627" d="M2173.776-98.741l-.9.522a.022.022,0,0,0,.01-.017l.9-.522A.022.022,0,0,1,2173.776-98.741Z" fill="#429645"/>
              </g>
              <g id="组_9435" data-name="组 9435">
                <path id="路径_7628" data-name="路径 7628" d="M2172.94-98.747l.9-.522-.052.511-.9.522Z" fill="#58a345"/>
              </g>
              <g id="组_9436" data-name="组 9436">
                <path id="路径_7629" data-name="路径 7629" d="M2172.94-98.747l-.052.511a.021.021,0,0,1-.034.015l-.554-.32a.073.073,0,0,1-.033-.056l-.025-.554Z" fill="#1b7c5e"/>
              </g>
            </g>
          </g>
          <g id="组_9443" data-name="组 9443">
            <g id="组_9442" data-name="组 9442" style="isolation: isolate">
              <g id="组_9439" data-name="组 9439">
                <path id="路径_7630" data-name="路径 7630" d="M2172.975-98.755l.869-.505v.034l-.869.505Z" fill="#429645"/>
              </g>
              <path id="路径_7631" data-name="路径 7631" d="M2173.565-99.521a1.306,1.306,0,0,0-.149-.1.947.947,0,0,0-.293-.113.027.027,0,0,0-.018,0l-.869.505a.026.026,0,0,1,.018,0,.946.946,0,0,1,.293.113,1.6,1.6,0,0,1,.149.1l.24.185.869-.5Z" fill="#58a345"/>
              <path id="路径_7632" data-name="路径 7632" d="M2173.748-99.34l-.81.471-.223-.173a1.567,1.567,0,0,0-.153-.1.966.966,0,0,0-.232-.1l.025-.015.766-.446a.932.932,0,0,1,.279.111,1.356,1.356,0,0,1,.146.1Z" fill="#429645"/>
              <g id="组_9440" data-name="组 9440">
                <path id="路径_7633" data-name="路径 7633" d="M2172.936-98.831l.869-.5a.1.1,0,0,1,.039.075l-.869.506A.1.1,0,0,0,2172.936-98.831Z" fill="#6daf45"/>
              </g>
              <g id="组_9441" data-name="组 9441">
                <path id="路径_7634" data-name="路径 7634" d="M2172.547-99.117a1.6,1.6,0,0,1,.149.1l.24.185a.1.1,0,0,1,.039.076v.033l-.753-.434V-99.2c0-.023.013-.036.032-.033A.946.946,0,0,1,2172.547-99.117Z" fill="#1c8061"/>
              </g>
            </g>
          </g>
          <path id="路径_7635" data-name="路径 7635" d="M2172.938-98.891v.022l-.223-.173a1.567,1.567,0,0,0-.153-.1.966.966,0,0,0-.232-.1v-.023l.025.008a1.1,1.1,0,0,1,.207.093,1.285,1.285,0,0,1,.153.1Z" fill="#1c8061"/>
          <path id="路径_7636" data-name="路径 7636" d="M2173.748-99.362v.022l-.019-.007C2173.74-99.362,2173.748-99.362,2173.748-99.362Z" fill="#429645"/>
          <path id="路径_7637" data-name="路径 7637" d="M2173.748-99.362l-.81.471-.223-.172a1.285,1.285,0,0,0-.153-.1,1.058,1.058,0,0,0-.232-.1l.791-.459a.955.955,0,0,1,.279.11,1.355,1.355,0,0,1,.146.1Z" fill="#6daf45"/>
        </g>
        <g id="组_9455" data-name="组 9455">
          <g id="组_9449" data-name="组 9449">
            <g id="组_9448" data-name="组 9448" style="isolation: isolate">
              <g id="组_9445" data-name="组 9445">
                <path id="路径_7638" data-name="路径 7638" d="M2172.822-98.184l-.9.522a.021.021,0,0,0,.01-.017l.9-.522A.022.022,0,0,1,2172.822-98.184Z" fill="#429645"/>
              </g>
              <g id="组_9446" data-name="组 9446">
                <path id="路径_7639" data-name="路径 7639" d="M2171.986-98.19l.9-.522-.052.511-.9.522Z" fill="#58a345"/>
              </g>
              <g id="组_9447" data-name="组 9447">
                <path id="路径_7640" data-name="路径 7640" d="M2171.986-98.19l-.053.511c0,.018-.017.025-.034.015l-.553-.319a.076.076,0,0,1-.034-.056l-.025-.554Z" fill="#1b7c5e"/>
              </g>
            </g>
          </g>
          <g id="组_9454" data-name="组 9454">
            <g id="组_9453" data-name="组 9453" style="isolation: isolate">
              <g id="组_9450" data-name="组 9450">
                <path id="路径_7641" data-name="路径 7641" d="M2172.021-98.2l.869-.505v.034l-.869.505Z" fill="#429645"/>
              </g>
              <path id="路径_7642" data-name="路径 7642" d="M2172.61-98.964a1.286,1.286,0,0,0-.148-.1.905.905,0,0,0-.293-.113.022.022,0,0,0-.018,0l-.869.505a.022.022,0,0,1,.018,0,.926.926,0,0,1,.292.113,1.213,1.213,0,0,1,.149.1l.241.186.869-.506Z" fill="#58a345"/>
              <path id="路径_7643" data-name="路径 7643" d="M2172.794-98.783l-.81.471-.223-.172a1.417,1.417,0,0,0-.153-.1.991.991,0,0,0-.233-.1l.025-.015.767-.445a.962.962,0,0,1,.278.11,1.309,1.309,0,0,1,.146.1Z" fill="#429645"/>
              <g id="组_9451" data-name="组 9451">
                <path id="路径_7644" data-name="路径 7644" d="M2171.982-98.273l.869-.506a.107.107,0,0,1,.039.076l-.869.505A.105.105,0,0,0,2171.982-98.273Z" fill="#6daf45"/>
              </g>
              <g id="组_9452" data-name="组 9452">
                <path id="路径_7645" data-name="路径 7645" d="M2171.592-98.559a1.213,1.213,0,0,1,.149.1l.241.186a.105.105,0,0,1,.039.075v.034l-.752-.435v-.04c0-.024.013-.037.032-.033A.926.926,0,0,1,2171.592-98.559Z" fill="#1c8061"/>
              </g>
            </g>
          </g>
          <path id="路径_7646" data-name="路径 7646" d="M2171.984-98.333v.021l-.223-.172a1.417,1.417,0,0,0-.153-.1.991.991,0,0,0-.233-.1v-.022l.025.007a1.075,1.075,0,0,1,.208.093,1.417,1.417,0,0,1,.153.1Z" fill="#1c8061"/>
          <path id="路径_7647" data-name="路径 7647" d="M2172.794-98.8v.021l-.019-.006C2172.786-98.805,2172.794-98.805,2172.794-98.8Z" fill="#429645"/>
          <path id="路径_7648" data-name="路径 7648" d="M2172.794-98.8l-.81.471-.223-.173a1.417,1.417,0,0,0-.153-.1.991.991,0,0,0-.233-.1l.792-.46a.962.962,0,0,1,.278.11,1.32,1.32,0,0,1,.146.1Z" fill="#6daf45"/>
        </g>
      </g>
      <g id="组_9457" data-name="组 9457">
        <path id="路径_7649" data-name="路径 7649" d="M2168.879-124.149a1.3,1.3,0,0,0-.371,1.187.74.74,0,0,1,.008.308.774.774,0,0,1-.031.1.866.866,0,0,1-.16.277,1.4,1.4,0,0,1-.742.207h-.035a.434.434,0,0,1-.1-.008,1.118,1.118,0,0,1-.449-.14.157.157,0,0,1-.043-.028.71.71,0,0,0-.1-.078.916.916,0,0,0-.25-.125.877.877,0,0,0-.32-.035c-.082,0-.16.012-.242.012a2.7,2.7,0,0,1-1.824-1.1.661.661,0,0,0-.531-.246.637.637,0,0,1-.558-.328.462.462,0,0,0-.449-.227,2.411,2.411,0,0,1-1.4-.258.761.761,0,0,1-.465-.718.278.278,0,0,0-.176-.278,1.365,1.365,0,0,1-.956-1.171c0-.5.589-.933,1.312-1.176a3.9,3.9,0,0,1,1.2-.2,2.165,2.165,0,0,1,.5.051.392.392,0,0,1,.024-.039,1.355,1.355,0,0,1,.937-.656,1.549,1.549,0,0,1,.238-.019,1.392,1.392,0,0,1,1.184.769,1.216,1.216,0,0,1,.07,1.031c.066,0,.133-.008.191-.008h.047a1.685,1.685,0,0,1,1.043.312.628.628,0,0,1,.449-.2.6.6,0,0,1,.14.016.633.633,0,0,1,.469.422.614.614,0,0,1,.027.273.165.165,0,0,0,.184.18,1.285,1.285,0,0,1,1.047.425,1.274,1.274,0,0,1,.429.918A.8.8,0,0,1,2168.879-124.149Z" fill="#daeeee"/>
        <path id="路径_7650" data-name="路径 7650" d="M2163.654-128.822a1.594,1.594,0,0,0-.5.508c-.159.266-.316.732-.049.889a.612.612,0,0,1-.387-.743A1.337,1.337,0,0,1,2163.654-128.822Z" fill="#c6e1e1"/>
        <path id="路径_7651" data-name="路径 7651" d="M2167.551-122.072a.305.305,0,0,1-.1,0,1.118,1.118,0,0,1-.449-.14.157.157,0,0,1-.043-.028.71.71,0,0,0-.1-.078.916.916,0,0,0-.25-.125.877.877,0,0,0-.32-.035c-.082,0-.16.012-.242.012a2.7,2.7,0,0,1-1.824-1.1.661.661,0,0,0-.531-.246.637.637,0,0,1-.558-.328.462.462,0,0,0-.449-.227,2.411,2.411,0,0,1-1.4-.258.761.761,0,0,1-.465-.718.278.278,0,0,0-.176-.278,1.365,1.365,0,0,1-.956-1.171c0-.5.589-.933,1.312-1.176a1.884,1.884,0,0,0-.3.258,1.116,1.116,0,0,0-.274,1.055c.137.425.559.679.844,1.023a.4.4,0,0,1,.1.218c0,.1-.058.2-.05.3.019.18.238.25.414.281l.968.164a.97.97,0,0,1,.527.2c.1.094.153.227.254.313.215.187.543.125.816.2.449.129.688.613,1.078.863a2.66,2.66,0,0,0,.789.269,4.192,4.192,0,0,1,.6.176,1.721,1.721,0,0,1,.68.438A.693.693,0,0,1,2167.551-122.072Z" fill="#c6e1e1"/>
        <path id="路径_7652" data-name="路径 7652" d="M2166.792-126.843a1.326,1.326,0,0,0-.233.916.952.952,0,0,1-.133-.813.617.617,0,0,1,.448-.2A1.261,1.261,0,0,0,2166.792-126.843Z" fill="#c6e1e1"/>
        <path id="路径_7653" data-name="路径 7653" d="M2167.45-124.066a.782.782,0,0,0,.6.379c.009.025-.022.045-.047.055a.9.9,0,0,1-.621.059.635.635,0,0,1-.349-.663c.011-.1.1-.519.273-.425.083.046.035.172.039.249A.771.771,0,0,0,2167.45-124.066Z" fill="#c6e1e1"/>
        <path id="路径_7654" data-name="路径 7654" d="M2164.328-125.994a.863.863,0,0,0,.1.69.525.525,0,0,0,.152.152.747.747,0,0,0,.161.069l.242.082a.681.681,0,0,0,.476.04.473.473,0,0,1-.339-.144,1.2,1.2,0,0,1-.491-.683.986.986,0,0,1,.043-.432c.027-.1.1-.379.1-.379A2.559,2.559,0,0,0,2164.328-125.994Z" fill="#c6e1e1"/>
      </g>
    </g>
    <g id="组_9503" data-name="组 9503">
      <g id="组_9465" data-name="组 9465">
        <g id="组_9463" data-name="组 9463">
          <g id="组_9462" data-name="组 9462" style="isolation: isolate">
            <g id="组_9459" data-name="组 9459">
              <path id="路径_7655" data-name="路径 7655" d="M2151.565-105.8v2.5l-3.378,1.962v-2.5Z" fill="#8badb2"/>
            </g>
            <g id="组_9460" data-name="组 9460">
              <path id="路径_7656" data-name="路径 7656" d="M2148.187-103.841v2.5l-3.4-1.962v-2.5Z" fill="#799aa1"/>
            </g>
            <g id="组_9461" data-name="组 9461">
              <path id="路径_7657" data-name="路径 7657" d="M2151.565-105.8l-3.378,1.962-3.4-1.962,3.382-1.962Z" fill="#9fd5d5"/>
            </g>
          </g>
        </g>
        <path id="路径_7658" data-name="路径 7658" d="M2148.171-107.766v.147l-1.88,1.088s-1.5.752-1.5.728S2148.171-107.766,2148.171-107.766Z" fill="#799aa1"/>
        <path id="路径_7659" data-name="路径 7659" d="M2151.565-105.8l-1.5-.728s-1.889-1.057-1.892-1.088,0-.147,0-.147Z" fill="#8badb2"/>
        <path id="路径_7660" data-name="路径 7660" d="M2148.187-103.841v-1.6l1.875-1.089,1.5.727Z" fill="#b0cdd1"/>
        <path id="路径_7661" data-name="路径 7661" d="M2146.291-106.531s-1.479.7-1.5.728,3.4,1.962,3.4,1.962v-1.6Z" fill="#8badb2"/>
        <g id="组_9464" data-name="组 9464">
          <path id="路径_7662" data-name="路径 7662" d="M2150.063-107.065v.53a.937.937,0,0,1-.553.77,2.729,2.729,0,0,1-1.333.319,2.729,2.729,0,0,1-1.333-.319.935.935,0,0,1-.552-.77v-.53Z" fill="#8badb2"/>
          <path id="路径_7663" data-name="路径 7663" d="M2146.872-107.065l-.028.77v.53a.935.935,0,0,1-.552-.77v-.53Z" fill="#799aa1"/>
          <path id="路径_7664" data-name="路径 7664" d="M2146.844-107.835a.938.938,0,0,0-.553.77.937.937,0,0,0,.553.77,2.718,2.718,0,0,0,1.333.319,2.725,2.725,0,0,0,1.334-.319.937.937,0,0,0,.552-.77.939.939,0,0,0-.552-.77,2.736,2.736,0,0,0-1.334-.319A2.729,2.729,0,0,0,2146.844-107.835Z" fill="#b0cdd1"/>
          <path id="路径_7665" data-name="路径 7665" d="M2148.177-106.183a2.5,2.5,0,0,1-1.23-.292.744.744,0,0,1-.448-.59.745.745,0,0,1,.448-.59,2.5,2.5,0,0,1,1.23-.291,2.5,2.5,0,0,1,1.23.291.747.747,0,0,1,.449.59.745.745,0,0,1-.449.59A2.5,2.5,0,0,1,2148.177-106.183Z" fill="#799aa1"/>
        </g>
      </g>
      <g id="组_9467" data-name="组 9467">
        <g id="组_9466" data-name="组 9466">
          <path id="路径_7666" data-name="路径 7666" d="M2152.756-102.073l-.246.369c-.015.022-.044.071-.044.071l-.094-.052-2.8-1.615a.1.1,0,0,1-.06-.108.323.323,0,0,1,.06-.175.391.391,0,0,1,.141-.142.159.159,0,0,1,.142-.022.021.021,0,0,1,.015.011Z" fill="#b0cdd1"/>
        </g>
      </g>
      <path id="路径_7667" data-name="路径 7667" d="M2152.529-101.693h-.026c-.026,0-.071,0-.131.008l-2.8-1.615a.1.1,0,0,1-.06-.108c0,.008,2.751,1.566,3,1.7Z" fill="#799aa1"/>
      <g id="组_9469" data-name="组 9469">
        <g id="组_9468" data-name="组 9468">
          <path id="路径_7668" data-name="路径 7668" d="M2153.58-102.548l-.246.369c-.015.022-.045.07-.045.07l-.093-.052-2.8-1.614a.1.1,0,0,1-.06-.108.323.323,0,0,1,.06-.175.391.391,0,0,1,.141-.142.159.159,0,0,1,.142-.022.019.019,0,0,1,.015.011Z" fill="#b0cdd1"/>
        </g>
      </g>
      <path id="路径_7669" data-name="路径 7669" d="M2153.353-102.168h-.026c-.026,0-.071,0-.131.007l-2.8-1.614a.1.1,0,0,1-.06-.108c0,.007,2.751,1.566,3,1.7Z" fill="#799aa1"/>
      <g id="组_9476" data-name="组 9476">
        <g id="组_9474" data-name="组 9474">
          <g id="组_9473" data-name="组 9473" style="isolation: isolate">
            <g id="组_9470" data-name="组 9470">
              <path id="路径_7670" data-name="路径 7670" d="M2158.025-102.062v2.5l-3.378,1.962v-2.5Z" fill="#8badb2"/>
            </g>
            <g id="组_9471" data-name="组 9471">
              <path id="路径_7671" data-name="路径 7671" d="M2154.647-100.1v2.5l-3.4-1.962v-2.5Z" fill="#799aa1"/>
            </g>
            <g id="组_9472" data-name="组 9472">
              <path id="路径_7672" data-name="路径 7672" d="M2158.025-102.062l-3.378,1.962-3.4-1.962,3.382-1.962Z" fill="#9fd5d5"/>
            </g>
          </g>
        </g>
        <path id="路径_7673" data-name="路径 7673" d="M2154.631-104.025v.147l-1.88,1.089s-1.494.751-1.5.727S2154.631-104.025,2154.631-104.025Z" fill="#799aa1"/>
        <path id="路径_7674" data-name="路径 7674" d="M2158.025-102.062l-1.5-.727s-1.889-1.058-1.892-1.089,0-.147,0-.147Z" fill="#8badb2"/>
        <path id="路径_7675" data-name="路径 7675" d="M2154.647-100.1v-1.6l1.876-1.089,1.5.727Z" fill="#b0cdd1"/>
        <path id="路径_7676" data-name="路径 7676" d="M2152.751-102.789s-1.479.7-1.5.727,3.4,1.962,3.4,1.962v-1.6Z" fill="#8badb2"/>
        <g id="组_9475" data-name="组 9475">
          <path id="路径_7677" data-name="路径 7677" d="M2156.523-103.324v.53a.936.936,0,0,1-.553.77,2.715,2.715,0,0,1-1.333.319,2.721,2.721,0,0,1-1.333-.319.935.935,0,0,1-.552-.77v-.53Z" fill="#8badb2"/>
          <path id="路径_7678" data-name="路径 7678" d="M2153.332-103.324l-.028.77v.53a.935.935,0,0,1-.552-.77v-.53Z" fill="#799aa1"/>
          <path id="路径_7679" data-name="路径 7679" d="M2153.3-104.094a.94.94,0,0,0-.553.77.938.938,0,0,0,.553.77,2.721,2.721,0,0,0,1.333.319,2.724,2.724,0,0,0,1.334-.319.936.936,0,0,0,.552-.77.938.938,0,0,0-.552-.77,2.734,2.734,0,0,0-1.334-.318A2.732,2.732,0,0,0,2153.3-104.094Z" fill="#b0cdd1"/>
          <path id="路径_7680" data-name="路径 7680" d="M2154.637-102.442a2.513,2.513,0,0,1-1.23-.291.745.745,0,0,1-.448-.591.745.745,0,0,1,.448-.59,2.5,2.5,0,0,1,1.23-.291,2.5,2.5,0,0,1,1.23.291.747.747,0,0,1,.449.59.747.747,0,0,1-.449.591A2.51,2.51,0,0,1,2154.637-102.442Z" fill="#799aa1"/>
        </g>
      </g>
      <g id="组_9488" data-name="组 9488">
        <g id="组_9481" data-name="组 9481">
          <g id="组_9478" data-name="组 9478">
            <g id="组_9477" data-name="组 9477">
              <path id="路径_7681" data-name="路径 7681" d="M2150.139-99.062l.262.394.031.048,2.02-1.168a.106.106,0,0,0,.059-.107.344.344,0,0,0-.059-.176.425.425,0,0,0-.142-.141.164.164,0,0,0-.142-.023l-.017.01Z" fill="#b0cdd1"/>
              <path id="路径_7682" data-name="路径 7682" d="M2152.311-100.211l-2.121,1.225-.051-.076,2.012-1.163.017-.01a.165.165,0,0,1,.142.023Z" fill="#8badb2"/>
            </g>
          </g>
          <g id="组_9480" data-name="组 9480">
            <g id="组_9479" data-name="组 9479">
              <path id="路径_7683" data-name="路径 7683" d="M2150.955-98.629l.262.394.031.048,2.02-1.168a.107.107,0,0,0,.059-.107.346.346,0,0,0-.059-.176.437.437,0,0,0-.142-.141.164.164,0,0,0-.142-.023l-.017.01Z" fill="#b0cdd1"/>
              <path id="路径_7684" data-name="路径 7684" d="M2153.127-99.778l-2.121,1.225-.051-.076,2.012-1.163.017-.01a.165.165,0,0,1,.142.023Z" fill="#8badb2"/>
            </g>
          </g>
        </g>
        <g id="组_9487" data-name="组 9487">
          <path id="路径_7685" data-name="路径 7685" d="M2148.775-100.5l-.354.5a1.674,1.674,0,0,1-.213.5,1.874,1.874,0,0,1-.54.552l-.224.313-.063.085-.243-.294a.35.35,0,0,1-.093-.265,1.371,1.371,0,0,1,.239-.7,1.733,1.733,0,0,1,.581-.581.71.71,0,0,1,.351-.112Z" fill="#f5c35f"/>
          <g id="组_9485" data-name="组 9485">
            <g id="组_9484" data-name="组 9484" style="isolation: isolate">
              <g id="组_9482" data-name="组 9482">
                <path id="路径_7686" data-name="路径 7686" d="M2153.151-96.334v.293l-.986.573v-.293Z" fill="#8badb2"/>
              </g>
              <g id="组_9483" data-name="组 9483">
                <path id="路径_7687" data-name="路径 7687" d="M2152.166-95.762v.293L2147.771-98v-.293Z" fill="#799aa1"/>
              </g>
            </g>
          </g>
          <g id="组_9486" data-name="组 9486">
            <path id="路径_7688" data-name="路径 7688" d="M2153.288-97.919l-1.231,1.855-.148.225-4.313-2.519a.5.5,0,0,1-.277-.507,1.615,1.615,0,0,1,.277-.827,2.014,2.014,0,0,1,.666-.661.77.77,0,0,1,.667-.109.415.415,0,0,1,.082.048Z" fill="#f8d38f"/>
          </g>
          <path id="路径_7689" data-name="路径 7689" d="M2153.729-97.309l-.242.321a1.988,1.988,0,0,1-.2.41,2.038,2.038,0,0,1-.563.592l-.142.194-.067.086s-.436-.067-.447-.071a.741.741,0,0,1-.112-.033.5.5,0,0,1-.276-.507,1.614,1.614,0,0,1,.276-.828,2.011,2.011,0,0,1,.667-.66.759.759,0,0,1,.664-.108.4.4,0,0,1,.208.194C2153.506-97.712,2153.729-97.309,2153.729-97.309Z" fill="#fbe3c2"/>
          <path id="路径_7690" data-name="路径 7690" d="M2152.614-95.688a.266.266,0,0,1-.1-.018c-.106-.045-.128-.179-.128-.284a1.381,1.381,0,0,1,.239-.7,1.775,1.775,0,0,1,.583-.581.715.715,0,0,1,.35-.114.24.24,0,0,1,.1.019c.107.044.129.179.129.284a1.386,1.386,0,0,1-.239.7,1.8,1.8,0,0,1-.583.581A.711.711,0,0,1,2152.614-95.688Z" fill="#f8d38f"/>
        </g>
        <path id="路径_7691" data-name="路径 7691" d="M2147.444-98.647l-.063.085-.243-.294a.35.35,0,0,1-.093-.265l.276.254Z" fill="#df7746"/>
        <path id="路径_7692" data-name="路径 7692" d="M2152.057-96.064l-.148.225-4.313-2.519a.5.5,0,0,1-.277-.507l4.359,2.547Z" fill="#e98a51"/>
        <path id="路径_7693" data-name="路径 7693" d="M2152.581-95.792l-.067.086s-.436-.067-.447-.071a.741.741,0,0,1-.112-.033.5.5,0,0,1-.276-.507l.705.328Z" fill="#f8d38f"/>
      </g>
      <g id="组_9500" data-name="组 9500">
        <g id="组_9493" data-name="组 9493">
          <g id="组_9490" data-name="组 9490">
            <g id="组_9489" data-name="组 9489">
              <path id="路径_7694" data-name="路径 7694" d="M2143.606-102.823l.261.394.032.048,2.019-1.167a.107.107,0,0,0,.059-.108.335.335,0,0,0-.059-.176.431.431,0,0,0-.141-.141.165.165,0,0,0-.142-.023l-.018.011Z" fill="#b0cdd1"/>
              <path id="路径_7695" data-name="路径 7695" d="M2145.778-103.972l-2.122,1.225-.05-.076,2.011-1.163.018-.01a.166.166,0,0,1,.142.024Z" fill="#8badb2"/>
            </g>
          </g>
          <g id="组_9492" data-name="组 9492">
            <g id="组_9491" data-name="组 9491">
              <path id="路径_7696" data-name="路径 7696" d="M2144.422-102.39l.261.394.032.048,2.019-1.167a.109.109,0,0,0,.059-.108.344.344,0,0,0-.059-.176.425.425,0,0,0-.142-.141.163.163,0,0,0-.141-.023l-.018.01Z" fill="#b0cdd1"/>
              <path id="路径_7697" data-name="路径 7697" d="M2146.593-103.539l-2.121,1.225-.05-.076,2.011-1.163.018-.01a.166.166,0,0,1,.142.024Z" fill="#8badb2"/>
            </g>
          </g>
        </g>
        <g id="组_9499" data-name="组 9499">
          <path id="路径_7698" data-name="路径 7698" d="M2142.241-104.264l-.354.5a1.7,1.7,0,0,1-.212.5,1.877,1.877,0,0,1-.541.552l-.224.313-.063.086-.242-.295a.343.343,0,0,1-.093-.264,1.37,1.37,0,0,1,.238-.7,1.727,1.727,0,0,1,.582-.581.718.718,0,0,1,.35-.112Z" fill="#f5c35f"/>
          <g id="组_9497" data-name="组 9497">
            <g id="组_9496" data-name="组 9496" style="isolation: isolate">
              <g id="组_9494" data-name="组 9494">
                <path id="路径_7699" data-name="路径 7699" d="M2146.618-100.1v.293l-.986.573v-.293Z" fill="#8badb2"/>
              </g>
              <g id="组_9495" data-name="组 9495">
                <path id="路径_7700" data-name="路径 7700" d="M2145.632-99.522v.293l-4.395-2.527v-.293Z" fill="#799aa1"/>
              </g>
            </g>
          </g>
          <g id="组_9498" data-name="组 9498">
            <path id="路径_7701" data-name="路径 7701" d="M2146.754-101.68l-1.23,1.855-.149.225-4.313-2.519a.5.5,0,0,1-.276-.507,1.617,1.617,0,0,1,.276-.827,2.033,2.033,0,0,1,.667-.661.769.769,0,0,1,.667-.109.471.471,0,0,1,.081.048Z" fill="#f8d38f"/>
          </g>
          <path id="路径_7702" data-name="路径 7702" d="M2147.2-101.07l-.243.321a1.938,1.938,0,0,1-.2.41,2.032,2.032,0,0,1-.563.593l-.142.194-.067.085s-.436-.067-.447-.071a.789.789,0,0,1-.112-.033.5.5,0,0,1-.276-.507,1.625,1.625,0,0,1,.276-.828,2.041,2.041,0,0,1,.667-.66.76.76,0,0,1,.664-.108.413.413,0,0,1,.209.194C2146.972-101.472,2147.2-101.07,2147.2-101.07Z" fill="#fbe3c2"/>
          <path id="路径_7703" data-name="路径 7703" d="M2146.08-99.448a.24.24,0,0,1-.1-.019c-.107-.044-.129-.179-.129-.284a1.387,1.387,0,0,1,.239-.7,1.8,1.8,0,0,1,.583-.581.71.71,0,0,1,.35-.113.266.266,0,0,1,.1.018c.106.045.128.179.128.284a1.388,1.388,0,0,1-.238.7,1.787,1.787,0,0,1-.584.581A.712.712,0,0,1,2146.08-99.448Z" fill="#f8d38f"/>
        </g>
        <path id="路径_7704" data-name="路径 7704" d="M2140.91-102.408l-.063.086-.242-.295a.343.343,0,0,1-.093-.264l.275.253Z" fill="#df7746"/>
        <path id="路径_7705" data-name="路径 7705" d="M2145.524-99.825l-.149.225-4.313-2.519a.5.5,0,0,1-.276-.507l4.358,2.548Z" fill="#e98a51"/>
        <path id="路径_7706" data-name="路径 7706" d="M2146.047-99.552l-.067.085s-.436-.067-.447-.071a.789.789,0,0,1-.112-.033.5.5,0,0,1-.276-.507l.705.328Z" fill="#f8d38f"/>
      </g>
      <path id="路径_7707" data-name="路径 7707" d="M2149.242-109.347a.564.564,0,0,1-.079.149A.114.114,0,0,1,2149.242-109.347Z" fill="#daeeee"/>
      <g id="组_9501" data-name="组 9501">
        <path id="路径_7708" data-name="路径 7708" d="M2149.383-107.744a.334.334,0,0,1-.071.377.666.666,0,0,1-.361.171,1.369,1.369,0,0,1-.6-.03c.123.034.1.522.037.608a.264.264,0,0,1-.149.093.482.482,0,0,1-.365-.041.851.851,0,0,1-.306-.414.623.623,0,0,1-.052-.2.465.465,0,0,0-.209-.365,1.48,1.48,0,0,1-.462-.489,2.159,2.159,0,0,1-.291-.961.474.474,0,0,1,.007-.146.409.409,0,0,1-.063.026.464.464,0,0,1-.28-.052,1.431,1.431,0,0,1-.816-1.431c.008-.086.108-.153.216-.2a.4.4,0,0,0,.25-.454,1.826,1.826,0,0,1,.022-1.089,2.868,2.868,0,0,1,.724-.906.8.8,0,0,1,.2-.108.282.282,0,0,1,.145-.019c.1.019.324.116.354.217a4.3,4.3,0,0,1,.164,1.077.558.558,0,0,1,.5-.108.554.554,0,0,1,.16.134,1.7,1.7,0,0,1,.392.693,1.655,1.655,0,0,1-.045.862.424.424,0,0,0,.324.514.626.626,0,0,1,.112.045.8.8,0,0,1,.384.615.856.856,0,0,1-.059.421.062.062,0,0,1,.033-.011.3.3,0,0,1,.205.1.778.778,0,0,1,.261.578A.54.54,0,0,1,2149.383-107.744Z" fill="#daeeee"/>
        <path id="路径_7709" data-name="路径 7709" d="M2148.235-106.525a.482.482,0,0,1-.365-.041.851.851,0,0,1-.306-.414.623.623,0,0,1-.052-.2.465.465,0,0,0-.209-.365,1.48,1.48,0,0,1-.462-.489,2.159,2.159,0,0,1-.291-.961.474.474,0,0,1,.007-.146.409.409,0,0,1-.063.026.464.464,0,0,1-.28-.052,1.431,1.431,0,0,1-.816-1.431c.008-.086.108-.153.216-.2a.4.4,0,0,0,.25-.454,1.826,1.826,0,0,1,.022-1.089,2.868,2.868,0,0,1,.724-.906,1.163,1.163,0,0,0-.164.753.533.533,0,0,0-.4.362,1.352,1.352,0,0,0-.048.559,7.513,7.513,0,0,0,.171,1.107.591.591,0,0,0-.275-.1.2.2,0,0,0-.209.165.3.3,0,0,0,.026.115,1.581,1.581,0,0,0,1.353.939.742.742,0,0,0-.089.668,1.314,1.314,0,0,0,.153.455.473.473,0,0,0,.4.234.509.509,0,0,1,.183,0,.252.252,0,0,1,.116.146A7.106,7.106,0,0,0,2148.235-106.525Z" fill="#c6e1e1"/>
        <path id="路径_7710" data-name="路径 7710" d="M2147.388-111.452a.786.786,0,0,0-.034.328,3.6,3.6,0,0,0,.079.566.822.822,0,0,0,.343.577.463.463,0,0,0,0,.37,1.024,1.024,0,0,0,.215.312,1.157,1.157,0,0,0,.341.267.566.566,0,0,0,.423.037,1.012,1.012,0,0,1-.445.125.586.586,0,0,1-.425-.158.807.807,0,0,1-.171-.3,2.817,2.817,0,0,1-.139-.526.674.674,0,0,1-.394-.359,1.478,1.478,0,0,1-.233-.974.822.822,0,0,1,.368-.549c.064-.039.208-.124.242-.006C2147.58-111.656,2147.421-111.535,2147.388-111.452Z" fill="#c6e1e1"/>
      </g>
      <g id="组_9502" data-name="组 9502">
        <path id="路径_7711" data-name="路径 7711" d="M2156.675-105.186a.67.67,0,0,1-.276.525,1.862,1.862,0,0,1-1.066.448.951.951,0,0,1-.41.544.269.269,0,0,1,.216.276.3.3,0,0,1-.328.283.586.586,0,0,1-.421-.157.157.157,0,0,1-.026-.029.708.708,0,0,1-.146-.362.067.067,0,0,0-.011-.034.085.085,0,0,0-.03-.015.8.8,0,0,1-.212-.074,1.33,1.33,0,0,1-.548-.816.9.9,0,0,1,.015-.6.6.6,0,0,1-.369-.32,2.868,2.868,0,0,1-.187-.377.884.884,0,0,1-.086-.466.478.478,0,0,1,.019-.074.745.745,0,0,1,.209-.317c.037-.037.108-.078.119-.131s-.022-.115-.026-.16a2.138,2.138,0,0,1,.011-.753,2.306,2.306,0,0,1,.254-.708,2.14,2.14,0,0,1,.212-.313c.019-.027.25-.261.25-.261a.514.514,0,0,1,0-.437,1.294,1.294,0,0,1,.541-.525,5.532,5.532,0,0,1,.194-.779,1.074,1.074,0,0,1,.227-.474.438.438,0,0,1,.3-.13.277.277,0,0,1,.179.056.534.534,0,0,1,.149.44c0,.275-.011.548-.037.82.011.007.015.015.022.018a.472.472,0,0,1,.578-.041.627.627,0,0,1,.25.586,1.016,1.016,0,0,1-.477.693,1.077,1.077,0,0,1,.615.958,1.083,1.083,0,0,1-.608.962.54.54,0,0,1,.418.44.937.937,0,0,1-.108.607,3.6,3.6,0,0,1,.343.276A.724.724,0,0,1,2156.675-105.186Z" fill="#daeeee"/>
        <path id="路径_7712" data-name="路径 7712" d="M2155.094-111.423a1.6,1.6,0,0,0-.108,1.174c-.265.067-.358.384-.544.582a1.418,1.418,0,0,0-.213.231.515.515,0,0,0-.056.3,1.064,1.064,0,0,0,.384.749c-.484.093-.794.567-1.01,1.011a2.375,2.375,0,0,0-.306,1.043.946.946,0,0,0,.534.884.259.259,0,0,0-.187.2.656.656,0,0,0,.015.291,1.622,1.622,0,0,0,.272.667.748.748,0,0,0,.619.321.975.975,0,0,0,.254.812.383.383,0,0,0,.063.049.586.586,0,0,1-.421-.157.157.157,0,0,1-.026-.029.708.708,0,0,1-.146-.362.067.067,0,0,0-.011-.034.085.085,0,0,0-.03-.015.8.8,0,0,1-.212-.074,1.33,1.33,0,0,1-.548-.816.9.9,0,0,1,.015-.6.6.6,0,0,1-.369-.32,2.868,2.868,0,0,1-.187-.377.884.884,0,0,1-.086-.466.478.478,0,0,1,.019-.074.745.745,0,0,1,.209-.317c.037-.037.108-.078.119-.131s-.022-.115-.026-.16a2.138,2.138,0,0,1,.011-.753,2.306,2.306,0,0,1,.254-.708,2.14,2.14,0,0,1,.212-.313c.019-.027.25-.261.25-.261a.514.514,0,0,1,0-.437,1.294,1.294,0,0,1,.541-.525,5.532,5.532,0,0,1,.194-.779,1.074,1.074,0,0,1,.227-.474A.438.438,0,0,1,2155.094-111.423Z" fill="#c6e1e1"/>
        <path id="路径_7713" data-name="路径 7713" d="M2154.577-106.564a.635.635,0,0,0,.48.433.4.4,0,0,0-.141.3,1.205,1.205,0,0,0,.046.336.509.509,0,0,0,.09.215.5.5,0,0,0,.2.118.71.71,0,0,0,.674.022,1.851,1.851,0,0,1-.52.277.637.637,0,0,1-.564-.078.639.639,0,0,1-.216-.517,1.9,1.9,0,0,1,.126-.564.552.552,0,0,1-.284-.545.79.79,0,0,1,.156-.467A.683.683,0,0,0,2154.577-106.564Z" fill="#c6e1e1"/>
      </g>
    </g>
  </g>
</svg>
